<?xml version="1.0" encoding="us-ascii" standalone="no"?><svg xmlns="http://www.w3.org/2000/svg" xmlns:xlink="http://www.w3.org/1999/xlink" contentStyleType="text/css" height="1632px" preserveAspectRatio="none" style="width:575px;height:1632px;background:#FFFFFF;" version="1.1" viewBox="0 0 575 1632" width="575px" zoomAndPan="magnify"><defs/><g><!--cluster User--><g id="cluster_User"><rect fill="none" height="366.5" rx="2.5" ry="2.5" style="stroke:#000000;stroke-width:1.5;" width="214" x="7" y="7"/><text fill="#000000" font-family="sans-serif" font-size="14" font-style="italic" lengthAdjust="spacing" textLength="81" x="73.5" y="24.1074">&#171;aggregate&#187;</text><text fill="#000000" font-family="sans-serif" font-size="14" font-weight="bold" lengthAdjust="spacing" textLength="33" x="97.5" y="42.7285">User</text></g><!--cluster Building--><g id="cluster_Building"><rect fill="none" height="443.5" rx="2.5" ry="2.5" style="stroke:#000000;stroke-width:1.5;" width="182" x="63" y="766"/><text fill="#000000" font-family="sans-serif" font-size="14" font-style="italic" lengthAdjust="spacing" textLength="81" x="113.5" y="783.1074">&#171;aggregate&#187;</text><text fill="#000000" font-family="sans-serif" font-size="14" font-weight="bold" lengthAdjust="spacing" textLength="58" x="125" y="801.7285">Building</text></g><!--cluster Floor--><g id="cluster_Floor"><rect fill="none" height="607.5" rx="2.5" ry="2.5" style="stroke:#000000;stroke-width:1.5;" width="142" x="269" y="1018.5"/><text fill="#000000" font-family="sans-serif" font-size="14" font-style="italic" lengthAdjust="spacing" textLength="81" x="299.5" y="1035.6074">&#171;aggregate&#187;</text><text fill="#000000" font-family="sans-serif" font-size="14" font-weight="bold" lengthAdjust="spacing" textLength="37" x="321.5" y="1054.2285">Floor</text></g><!--cluster Passageway--><g id="cluster_Passageway"><rect fill="none" height="199" rx="2.5" ry="2.5" style="stroke:#000000;stroke-width:1.5;" width="134" x="435" y="1254.5"/><text fill="#000000" font-family="sans-serif" font-size="14" font-style="italic" lengthAdjust="spacing" textLength="81" x="461.5" y="1271.6074">&#171;aggregate&#187;</text><text fill="#000000" font-family="sans-serif" font-size="14" font-weight="bold" lengthAdjust="spacing" textLength="85" x="459.5" y="1290.2285">Passageway</text></g><!--cluster Robot--><g id="cluster_Robot"><rect fill="none" height="351" rx="2.5" ry="2.5" style="stroke:#000000;stroke-width:1.5;" width="130" x="245" y="229"/><text fill="#000000" font-family="sans-serif" font-size="14" font-style="italic" lengthAdjust="spacing" textLength="81" x="269.5" y="246.1074">&#171;aggregate&#187;</text><text fill="#000000" font-family="sans-serif" font-size="14" font-weight="bold" lengthAdjust="spacing" textLength="42" x="289" y="264.7285">Robot</text></g><!--cluster Task--><g id="cluster_Task"><rect fill="none" height="390.5" rx="2.5" ry="2.5" style="stroke:#000000;stroke-width:1.5;" width="293" x="272" y="604"/><text fill="#000000" font-family="sans-serif" font-size="14" font-style="italic" lengthAdjust="spacing" textLength="81" x="378" y="621.1074">&#171;aggregate&#187;</text><text fill="#000000" font-family="sans-serif" font-size="14" font-weight="bold" lengthAdjust="spacing" textLength="32" x="402.5" y="639.7285">Task</text></g><!--class user--><g id="elem_user"><rect codeLine="8" fill="#F1F1F1" height="52.582" id="user" rx="2.5" ry="2.5" style="stroke:#181818;stroke-width:0.5;" width="37" x="66.5" y="63"/><text fill="#000000" font-family="sans-serif" font-size="12" font-style="italic" lengthAdjust="spacing" textLength="35" x="67.5" y="80.9492">&#171;root&#187;</text><text fill="#000000" font-family="sans-serif" font-size="14" lengthAdjust="spacing" textLength="28" x="71" y="99.0684">user</text><line style="stroke:#181818;stroke-width:0.5;" x1="67.5" x2="102.5" y1="107.582" y2="107.582"/></g><!--class Admin--><g id="elem_Admin"><rect codeLine="9" fill="#F1F1F1" height="36.6211" id="Admin" rx="2.5" ry="2.5" style="stroke:#181818;stroke-width:0.5;" width="45" x="23.5" y="320.5"/><text fill="#000000" font-family="sans-serif" font-size="14" lengthAdjust="spacing" textLength="39" x="26.5" y="340.6074">Admin</text><line style="stroke:#181818;stroke-width:0.5;" x1="24.5" x2="67.5" y1="349.1211" y2="349.1211"/></g><!--class GestorFrota--><g id="elem_GestorFrota"><rect codeLine="10" fill="#F1F1F1" height="36.6211" id="GestorFrota" rx="2.5" ry="2.5" style="stroke:#181818;stroke-width:0.5;" width="83" x="121.5" y="176"/><text fill="#000000" font-family="sans-serif" font-size="14" lengthAdjust="spacing" textLength="77" x="124.5" y="196.1074">GestorFrota</text><line style="stroke:#181818;stroke-width:0.5;" x1="122.5" x2="203.5" y1="204.6211" y2="204.6211"/></g><!--class GestorCampus--><g id="elem_GestorCampus"><rect codeLine="11" fill="#F1F1F1" height="36.6211" id="GestorCampus" rx="2.5" ry="2.5" style="stroke:#181818;stroke-width:0.5;" width="101" x="103.5" y="320.5"/><text fill="#000000" font-family="sans-serif" font-size="14" lengthAdjust="spacing" textLength="95" x="106.5" y="340.6074">GestorCampus</text><line style="stroke:#181818;stroke-width:0.5;" x1="104.5" x2="203.5" y1="349.1211" y2="349.1211"/></g><!--class Utente--><g id="elem_Utente"><rect codeLine="12" fill="#F1F1F1" height="36.6211" id="Utente" rx="2.5" ry="2.5" style="stroke:#181818;stroke-width:0.5;" width="47" x="147.5" y="71"/><text fill="#000000" font-family="sans-serif" font-size="14" lengthAdjust="spacing" textLength="41" x="150.5" y="91.1074">Utente</text><line style="stroke:#181818;stroke-width:0.5;" x1="148.5" x2="193.5" y1="99.6211" y2="99.6211"/></g><!--class building--><g id="elem_building"><rect codeLine="17" fill="#F1F1F1" height="145.6875" id="building" rx="2.5" ry="2.5" style="stroke:#181818;stroke-width:0.5;" width="150" x="79" y="822"/><text fill="#000000" font-family="sans-serif" font-size="12" font-style="italic" lengthAdjust="spacing" textLength="35" x="136.5" y="839.9492">&#171;root&#187;</text><text fill="#000000" font-family="sans-serif" font-size="14" lengthAdjust="spacing" textLength="49" x="129.5" y="858.0684">building</text><line style="stroke:#181818;stroke-width:0.5;" x1="80" x2="228" y1="866.582" y2="866.582"/><rect fill="none" height="6" style="stroke:#C82930;stroke-width:1.0;" width="6" x="87" y="878.3926"/><text fill="#000000" font-family="sans-serif" font-size="14" lengthAdjust="spacing" textLength="34" x="99" y="885.6895">Code</text><rect fill="none" height="6" style="stroke:#C82930;stroke-width:1.0;" width="6" x="87" y="897.0137"/><text fill="#000000" font-family="sans-serif" font-size="14" lengthAdjust="spacing" textLength="36" x="99" y="904.3105">Name</text><rect fill="none" height="6" style="stroke:#C82930;stroke-width:1.0;" width="6" x="87" y="915.6348"/><text fill="#000000" font-family="sans-serif" font-size="14" lengthAdjust="spacing" textLength="124" x="99" y="922.9316">MaxFloorDimension</text><rect fill="none" height="6" style="stroke:#C82930;stroke-width:1.0;" width="6" x="87" y="934.2559"/><text fill="#000000" font-family="sans-serif" font-size="14" lengthAdjust="spacing" textLength="121" x="99" y="941.5527">MinFloorDimension</text><rect fill="none" height="6" style="stroke:#C82930;stroke-width:1.0;" width="6" x="87" y="952.877"/><text fill="#000000" font-family="sans-serif" font-size="14" lengthAdjust="spacing" textLength="71" x="99" y="960.1738">Description</text></g><!--class Lift--><g id="elem_Lift"><rect codeLine="25" fill="#F1F1F1" height="73.8633" id="Lift" rx="2.5" ry="2.5" style="stroke:#181818;stroke-width:0.5;" width="110" x="99" y="1119.5"/><text fill="#000000" font-family="sans-serif" font-size="14" lengthAdjust="spacing" textLength="19" x="144.5" y="1139.6074">Lift</text><line style="stroke:#181818;stroke-width:0.5;" x1="100" x2="208" y1="1148.1211" y2="1148.1211"/><rect fill="none" height="6" style="stroke:#C82930;stroke-width:1.0;" width="6" x="107" y="1159.9316"/><text fill="#000000" font-family="sans-serif" font-size="14" lengthAdjust="spacing" textLength="34" x="119" y="1167.2285">Code</text><rect fill="none" height="6" style="stroke:#C82930;stroke-width:1.0;" width="6" x="107" y="1178.5527"/><text fill="#000000" font-family="sans-serif" font-size="14" lengthAdjust="spacing" textLength="84" x="119" y="1185.8496">BuildingCode</text></g><!--class floor--><g id="elem_floor"><rect codeLine="32" fill="#F1F1F1" height="164.3086" id="floor" rx="2.5" ry="2.5" style="stroke:#181818;stroke-width:0.5;" width="110" x="285" y="1074.5"/><text fill="#000000" font-family="sans-serif" font-size="12" font-style="italic" lengthAdjust="spacing" textLength="35" x="322.5" y="1092.4492">&#171;root&#187;</text><text fill="#000000" font-family="sans-serif" font-size="14" lengthAdjust="spacing" textLength="28" x="326" y="1110.5684">floor</text><line style="stroke:#181818;stroke-width:0.5;" x1="286" x2="394" y1="1119.082" y2="1119.082"/><rect fill="none" height="6" style="stroke:#C82930;stroke-width:1.0;" width="6" x="293" y="1130.8926"/><text fill="#000000" font-family="sans-serif" font-size="14" lengthAdjust="spacing" textLength="34" x="305" y="1138.1895">Code</text><rect fill="none" height="6" style="stroke:#C82930;stroke-width:1.0;" width="6" x="293" y="1149.5137"/><text fill="#000000" font-family="sans-serif" font-size="14" lengthAdjust="spacing" textLength="82" x="305" y="1156.8105">FloorNumber</text><rect fill="none" height="6" style="stroke:#C82930;stroke-width:1.0;" width="6" x="293" y="1168.1348"/><text fill="#000000" font-family="sans-serif" font-size="14" lengthAdjust="spacing" textLength="84" x="305" y="1175.4316">BuildingCode</text><rect fill="none" height="6" style="stroke:#C82930;stroke-width:1.0;" width="6" x="293" y="1186.7559"/><text fill="#000000" font-family="sans-serif" font-size="14" lengthAdjust="spacing" textLength="71" x="305" y="1194.0527">Description</text><rect fill="none" height="6" style="stroke:#C82930;stroke-width:1.0;" width="6" x="293" y="1205.377"/><text fill="#000000" font-family="sans-serif" font-size="14" lengthAdjust="spacing" textLength="36" x="305" y="1212.6738">Width</text><rect fill="none" height="6" style="stroke:#C82930;stroke-width:1.0;" width="6" x="293" y="1223.998"/><text fill="#000000" font-family="sans-serif" font-size="14" lengthAdjust="spacing" textLength="44" x="305" y="1231.2949">Length</text></g><!--class Room--><g id="elem_Room"><rect codeLine="41" fill="#F1F1F1" height="129.7266" id="Room" rx="2.5" ry="2.5" style="stroke:#181818;stroke-width:0.5;" width="97" x="291.5" y="1309"/><text fill="#000000" font-family="sans-serif" font-size="14" lengthAdjust="spacing" textLength="37" x="321.5" y="1329.1074">Room</text><line style="stroke:#181818;stroke-width:0.5;" x1="292.5" x2="387.5" y1="1337.6211" y2="1337.6211"/><rect fill="none" height="6" style="stroke:#C82930;stroke-width:1.0;" width="6" x="299.5" y="1349.4316"/><text fill="#000000" font-family="sans-serif" font-size="14" lengthAdjust="spacing" textLength="34" x="311.5" y="1356.7285">Code</text><rect fill="none" height="6" style="stroke:#C82930;stroke-width:1.0;" width="6" x="299.5" y="1368.0527"/><text fill="#000000" font-family="sans-serif" font-size="14" lengthAdjust="spacing" textLength="67" x="311.5" y="1375.3496">FloorCode</text><rect fill="none" height="6" style="stroke:#C82930;stroke-width:1.0;" width="6" x="299.5" y="1386.6738"/><text fill="#000000" font-family="sans-serif" font-size="14" lengthAdjust="spacing" textLength="36" x="311.5" y="1393.9707">Width</text><rect fill="none" height="6" style="stroke:#C82930;stroke-width:1.0;" width="6" x="299.5" y="1405.2949"/><text fill="#000000" font-family="sans-serif" font-size="14" lengthAdjust="spacing" textLength="44" x="311.5" y="1412.5918">Length</text><rect fill="none" height="6" style="stroke:#C82930;stroke-width:1.0;" width="6" x="299.5" y="1423.916"/><text fill="#000000" font-family="sans-serif" font-size="14" lengthAdjust="spacing" textLength="71" x="311.5" y="1431.2129">Description</text></g><!--class Type--><g id="elem_Type"><rect codeLine="49" fill="#F1F1F1" height="111.1055" id="Type" rx="2.5" ry="2.5" style="stroke:#181818;stroke-width:0.5;" width="110" x="285" y="1499"/><text fill="#000000" font-family="sans-serif" font-size="14" lengthAdjust="spacing" textLength="32" x="324" y="1519.1074">Type</text><line style="stroke:#181818;stroke-width:0.5;" x1="286" x2="394" y1="1527.6211" y2="1527.6211"/><rect fill="none" height="6" style="stroke:#C82930;stroke-width:1.0;" width="6" x="293" y="1539.4316"/><text fill="#000000" font-family="sans-serif" font-size="14" lengthAdjust="spacing" textLength="37" x="305" y="1546.7285">Office</text><rect fill="none" height="6" style="stroke:#C82930;stroke-width:1.0;" width="6" x="293" y="1558.0527"/><text fill="#000000" font-family="sans-serif" font-size="14" lengthAdjust="spacing" textLength="84" x="305" y="1565.3496">Amphitheater</text><rect fill="none" height="6" style="stroke:#C82930;stroke-width:1.0;" width="6" x="293" y="1576.6738"/><text fill="#000000" font-family="sans-serif" font-size="14" lengthAdjust="spacing" textLength="69" x="305" y="1583.9707">Laboratory</text><rect fill="none" height="6" style="stroke:#C82930;stroke-width:1.0;" width="6" x="293" y="1595.2949"/><text fill="#000000" font-family="sans-serif" font-size="14" lengthAdjust="spacing" textLength="36" x="305" y="1602.5918">Other</text></g><!--class passageway--><g id="elem_passageway"><rect codeLine="59" fill="#F1F1F1" height="127.0664" id="passageway" rx="2.5" ry="2.5" style="stroke:#181818;stroke-width:0.5;" width="101" x="451.5" y="1310.5"/><text fill="#000000" font-family="sans-serif" font-size="12" font-style="italic" lengthAdjust="spacing" textLength="35" x="484.5" y="1328.4492">&#171;root&#187;</text><text fill="#000000" font-family="sans-serif" font-size="14" lengthAdjust="spacing" textLength="78" x="463" y="1346.5684">passageway</text><line style="stroke:#181818;stroke-width:0.5;" x1="452.5" x2="551.5" y1="1355.082" y2="1355.082"/><rect fill="none" height="6" style="stroke:#C82930;stroke-width:1.0;" width="6" x="459.5" y="1366.8926"/><text fill="#000000" font-family="sans-serif" font-size="14" lengthAdjust="spacing" textLength="34" x="471.5" y="1374.1895">Code</text><rect fill="none" height="6" style="stroke:#C82930;stroke-width:1.0;" width="6" x="459.5" y="1385.5137"/><text fill="#000000" font-family="sans-serif" font-size="14" lengthAdjust="spacing" textLength="75" x="471.5" y="1392.8105">Floor1Code</text><rect fill="none" height="6" style="stroke:#C82930;stroke-width:1.0;" width="6" x="459.5" y="1404.1348"/><text fill="#000000" font-family="sans-serif" font-size="14" lengthAdjust="spacing" textLength="75" x="471.5" y="1411.4316">Floor2Code</text><rect fill="none" height="6" style="stroke:#C82930;stroke-width:1.0;" width="6" x="459.5" y="1422.7559"/><text fill="#000000" font-family="sans-serif" font-size="14" lengthAdjust="spacing" textLength="71" x="471.5" y="1430.0527">Description</text></g><!--class robot--><g id="elem_robot"><rect codeLine="74" fill="#F1F1F1" height="108.4453" id="robot" rx="2.5" ry="2.5" style="stroke:#181818;stroke-width:0.5;" width="95" x="262.5" y="285"/><text fill="#000000" font-family="sans-serif" font-size="12" font-style="italic" lengthAdjust="spacing" textLength="35" x="292.5" y="302.9492">&#171;root&#187;</text><text fill="#000000" font-family="sans-serif" font-size="14" lengthAdjust="spacing" textLength="33" x="293.5" y="321.0684">robot</text><line style="stroke:#181818;stroke-width:0.5;" x1="263.5" x2="356.5" y1="329.582" y2="329.582"/><rect fill="none" height="6" style="stroke:#C82930;stroke-width:1.0;" width="6" x="270.5" y="341.3926"/><text fill="#000000" font-family="sans-serif" font-size="14" lengthAdjust="spacing" textLength="31" x="282.5" y="348.6895">code</text><rect fill="none" height="6" style="stroke:#C82930;stroke-width:1.0;" width="6" x="270.5" y="360.0137"/><text fill="#000000" font-family="sans-serif" font-size="14" lengthAdjust="spacing" textLength="35" x="282.5" y="367.3105">name</text><rect fill="none" height="6" style="stroke:#C82930;stroke-width:1.0;" width="6" x="270.5" y="378.6348"/><text fill="#000000" font-family="sans-serif" font-size="14" lengthAdjust="spacing" textLength="69" x="282.5" y="385.9316">description</text></g><!--class robotType--><g id="elem_robotType"><rect codeLine="80" fill="#F1F1F1" height="111.1055" id="robotType" rx="2.5" ry="2.5" style="stroke:#181818;stroke-width:0.5;" width="97" x="261.5" y="453"/><text fill="#000000" font-family="sans-serif" font-size="14" lengthAdjust="spacing" textLength="65" x="277.5" y="473.1074">robotType</text><line style="stroke:#181818;stroke-width:0.5;" x1="262.5" x2="357.5" y1="481.6211" y2="481.6211"/><rect fill="none" height="6" style="stroke:#C82930;stroke-width:1.0;" width="6" x="269.5" y="493.4316"/><text fill="#000000" font-family="sans-serif" font-size="14" lengthAdjust="spacing" textLength="31" x="281.5" y="500.7285">code</text><rect fill="none" height="6" style="stroke:#C82930;stroke-width:1.0;" width="6" x="269.5" y="512.0527"/><text fill="#000000" font-family="sans-serif" font-size="14" lengthAdjust="spacing" textLength="38" x="281.5" y="519.3496">Brand</text><rect fill="none" height="6" style="stroke:#C82930;stroke-width:1.0;" width="6" x="269.5" y="530.6738"/><text fill="#000000" font-family="sans-serif" font-size="14" lengthAdjust="spacing" textLength="38" x="281.5" y="537.9707">Model</text><rect fill="none" height="6" style="stroke:#C82930;stroke-width:1.0;" width="6" x="269.5" y="549.2949"/><text fill="#000000" font-family="sans-serif" font-size="14" lengthAdjust="spacing" textLength="71" x="281.5" y="556.5918">Description</text></g><!--class task--><g id="elem_task"><rect codeLine="105" fill="#F1F1F1" height="89.8242" id="task" rx="2.5" ry="2.5" style="stroke:#181818;stroke-width:0.5;" width="97" x="335.5" y="660"/><text fill="#000000" font-family="sans-serif" font-size="12" font-style="italic" lengthAdjust="spacing" textLength="35" x="366.5" y="677.9492">&#171;root&#187;</text><text fill="#000000" font-family="sans-serif" font-size="14" lengthAdjust="spacing" textLength="26" x="371" y="696.0684">task</text><line style="stroke:#181818;stroke-width:0.5;" x1="336.5" x2="431.5" y1="704.582" y2="704.582"/><rect fill="none" height="6" style="stroke:#C82930;stroke-width:1.0;" width="6" x="343.5" y="716.3926"/><text fill="#000000" font-family="sans-serif" font-size="14" lengthAdjust="spacing" textLength="34" x="355.5" y="723.6895">Code</text><rect fill="none" height="6" style="stroke:#C82930;stroke-width:1.0;" width="6" x="343.5" y="735.0137"/><text fill="#000000" font-family="sans-serif" font-size="14" lengthAdjust="spacing" textLength="71" x="355.5" y="742.3105">Description</text></g><!--class DeliveryTask--><g id="elem_DeliveryTask"><rect codeLine="110" fill="#F1F1F1" height="166.9688" id="DeliveryTask" rx="2.5" ry="2.5" style="stroke:#181818;stroke-width:0.5;" width="137" x="288.5" y="811.5"/><text fill="#000000" font-family="sans-serif" font-size="14" lengthAdjust="spacing" textLength="82" x="316" y="831.6074">DeliveryTask</text><line style="stroke:#181818;stroke-width:0.5;" x1="289.5" x2="424.5" y1="840.1211" y2="840.1211"/><rect fill="none" height="6" style="stroke:#C82930;stroke-width:1.0;" width="6" x="296.5" y="851.9316"/><text fill="#000000" font-family="sans-serif" font-size="14" lengthAdjust="spacing" textLength="78" x="308.5" y="859.2285">pickupRoom</text><rect fill="none" height="6" style="stroke:#C82930;stroke-width:1.0;" width="6" x="296.5" y="870.5527"/><text fill="#000000" font-family="sans-serif" font-size="14" lengthAdjust="spacing" textLength="86" x="308.5" y="877.8496">deliveryRoom</text><rect fill="none" height="6" style="stroke:#C82930;stroke-width:1.0;" width="6" x="296.5" y="889.1738"/><text fill="#000000" font-family="sans-serif" font-size="14" lengthAdjust="spacing" textLength="85" x="308.5" y="896.4707">deliveryName</text><rect fill="none" height="6" style="stroke:#C82930;stroke-width:1.0;" width="6" x="296.5" y="907.7949"/><text fill="#000000" font-family="sans-serif" font-size="14" lengthAdjust="spacing" textLength="98" x="308.5" y="915.0918">deliveryContact</text><rect fill="none" height="6" style="stroke:#C82930;stroke-width:1.0;" width="6" x="296.5" y="926.416"/><text fill="#000000" font-family="sans-serif" font-size="14" lengthAdjust="spacing" textLength="77" x="308.5" y="933.7129">pickupName</text><rect fill="none" height="6" style="stroke:#C82930;stroke-width:1.0;" width="6" x="296.5" y="945.0371"/><text fill="#000000" font-family="sans-serif" font-size="14" lengthAdjust="spacing" textLength="90" x="308.5" y="952.334">pickupContact</text><rect fill="none" height="6" style="stroke:#C82930;stroke-width:1.0;" width="6" x="296.5" y="963.6582"/><text fill="#000000" font-family="sans-serif" font-size="14" lengthAdjust="spacing" textLength="111" x="308.5" y="970.9551">confirmationCode</text></g><!--class SecurityTask--><g id="elem_SecurityTask"><rect codeLine="120" fill="#F1F1F1" height="73.8633" id="SecurityTask" rx="2.5" ry="2.5" style="stroke:#181818;stroke-width:0.5;" width="88" x="461" y="858"/><text fill="#000000" font-family="sans-serif" font-size="14" lengthAdjust="spacing" textLength="82" x="464" y="878.1074">SecurityTask</text><line style="stroke:#181818;stroke-width:0.5;" x1="462" x2="548" y1="886.6211" y2="886.6211"/><rect fill="none" height="6" style="stroke:#C82930;stroke-width:1.0;" width="6" x="469" y="898.4316"/><text fill="#000000" font-family="sans-serif" font-size="14" lengthAdjust="spacing" textLength="56" x="481" y="905.7285">locations</text><rect fill="none" height="6" style="stroke:#C82930;stroke-width:1.0;" width="6" x="469" y="917.0527"/><text fill="#000000" font-family="sans-serif" font-size="14" lengthAdjust="spacing" textLength="46" x="481" y="924.3496">contact</text></g><!--class Campus--><g id="elem_Campus"><rect codeLine="69" fill="#F1F1F1" height="36.6211" id="Campus" rx="2.5" ry="2.5" style="stroke:#181818;stroke-width:0.5;" width="58" x="125" y="490"/><text fill="#000000" font-family="sans-serif" font-size="14" lengthAdjust="spacing" textLength="52" x="128" y="510.1074">Campus</text><line style="stroke:#181818;stroke-width:0.5;" x1="126" x2="182" y1="518.6211" y2="518.6211"/></g><!--reverse link user to Admin--><g id="link_user_Admin"><path codeLine="127" d="M75.5,122.02 C75.5,185.13 75.5,333 75.5,333 C75.5,333 72.62,333 68.66,333 " fill="none" id="user-backto-Admin" style="stroke:#181818;stroke-width:1.0;"/><polygon fill="#181818" points="75.5,116.02,71.5,125.02,75.5,121.02,79.5,125.02,75.5,116.02" style="stroke:#181818;stroke-width:1.0;"/><text fill="#000000" font-family="sans-serif" font-size="13" lengthAdjust="spacing" textLength="7" x="67.5" y="223.9583">&#233;</text><text fill="#000000" font-family="sans-serif" font-size="13" lengthAdjust="spacing" textLength="7" x="74.1875" y="137.7865">1</text><text fill="#000000" font-family="sans-serif" font-size="13" lengthAdjust="spacing" textLength="7" x="76.3445" y="325.8673">1</text></g><!--link Admin to user--><g id="link_Admin_user"><path codeLine="132" d="M68.81,346 C70.76,346 72,346 72,346 C72,346 72,188.32 72,122.47 " fill="none" id="Admin-to-user" style="stroke:#181818;stroke-width:1.0;"/><polygon fill="#181818" points="72,116.47,68,125.47,72,121.47,76,125.47,72,116.47" style="stroke:#181818;stroke-width:1.0;"/><text fill="#000000" font-family="sans-serif" font-size="13" lengthAdjust="spacing" textLength="25" x="46" y="247.8583">gere</text><text fill="#000000" font-family="sans-serif" font-size="13" lengthAdjust="spacing" textLength="7" x="76.5386" y="364.6798">1</text><text fill="#000000" font-family="sans-serif" font-size="13" lengthAdjust="spacing" textLength="20" x="47.4719" y="137.5513">1..*</text></g><!--reverse link user to GestorFrota--><g id="link_user_GestorFrota"><path codeLine="128" d="M109.71,114 C123.73,114 134.5,114 134.5,114 C134.5,114 134.5,152.05 134.5,175.83 " fill="none" id="user-backto-GestorFrota" style="stroke:#181818;stroke-width:1.0;"/><polygon fill="#181818" points="103.71,114,112.71,118,108.71,114,112.71,110,103.71,114" style="stroke:#181818;stroke-width:1.0;"/><text fill="#000000" font-family="sans-serif" font-size="13" lengthAdjust="spacing" textLength="7" x="126.5" y="125.5483">&#233;</text><text fill="#000000" font-family="sans-serif" font-size="13" lengthAdjust="spacing" textLength="7" x="109.9566" y="137.4093">1</text><text fill="#000000" font-family="sans-serif" font-size="13" lengthAdjust="spacing" textLength="7" x="117.7" y="164.6401">1</text></g><!--reverse link user to GestorCampus--><g id="link_user_GestorCampus"><path codeLine="129" d="M109.8,111 C114.63,111 112.5,111 112.5,111 C112.5,111 112.5,265.89 112.5,320.34 " fill="none" id="user-backto-GestorCampus" style="stroke:#181818;stroke-width:1.0;"/><polygon fill="#181818" points="103.8,111,112.8,115,108.8,111,112.8,107,103.8,111" style="stroke:#181818;stroke-width:1.0;"/><text fill="#000000" font-family="sans-serif" font-size="13" lengthAdjust="spacing" textLength="7" x="104.5" y="207.3483">&#233;</text><text fill="#000000" font-family="sans-serif" font-size="13" lengthAdjust="spacing" textLength="7" x="111.4656" y="112.6189">1</text><text fill="#000000" font-family="sans-serif" font-size="13" lengthAdjust="spacing" textLength="7" x="91.7188" y="309.1532">1</text></g><!--reverse link user to Utente--><g id="link_user_Utente"><path codeLine="130" d="M109.66,90 C122.5,90 133.67,90 147.45,90 " fill="none" id="user-backto-Utente" style="stroke:#181818;stroke-width:1.0;"/><polygon fill="#181818" points="103.66,90,112.66,94,108.66,90,112.66,86,103.66,90" style="stroke:#181818;stroke-width:1.0;"/><text fill="#000000" font-family="sans-serif" font-size="13" lengthAdjust="spacing" textLength="7" x="117.56" y="86.0283">&#233;</text><text fill="#000000" font-family="sans-serif" font-size="13" lengthAdjust="spacing" textLength="7" x="111.5545" y="84.3046">1</text><text fill="#000000" font-family="sans-serif" font-size="13" lengthAdjust="spacing" textLength="7" x="132.5041" y="84.7767">1</text></g><!--link Utente to task--><g id="link_Utente_task"><path codeLine="134" d="M194.6,90 C252.24,90 395.5,90 395.5,90 C395.5,90 395.5,511.75 395.5,653.78 " fill="none" id="Utente-to-task" style="stroke:#181818;stroke-width:1.0;"/><polygon fill="#181818" points="395.5,659.78,399.5,650.78,395.5,654.78,391.5,650.78,395.5,659.78" style="stroke:#181818;stroke-width:1.0;"/><text fill="#000000" font-family="sans-serif" font-size="13" lengthAdjust="spacing" textLength="50" x="396.5" y="270.4683">requests</text><text fill="#000000" font-family="sans-serif" font-size="13" lengthAdjust="spacing" textLength="7" x="202.5606" y="84.7767">1</text><text fill="#000000" font-family="sans-serif" font-size="13" lengthAdjust="spacing" textLength="20" x="375.7297" y="648.6182">1..*</text></g><!--link GestorCampus to Campus--><g id="link_GestorCampus_Campus"><path codeLine="136" d="M154,357.79 C154,390.45 154,451.34 154,483.89 " fill="none" id="GestorCampus-to-Campus" style="stroke:#181818;stroke-width:1.0;"/><polygon fill="#181818" points="154,489.89,158,480.89,154,484.89,150,480.89,154,489.89" style="stroke:#181818;stroke-width:1.0;"/><text fill="#000000" font-family="sans-serif" font-size="13" lengthAdjust="spacing" textLength="25" x="128" y="419.8683">gere</text><text fill="#000000" font-family="sans-serif" font-size="13" lengthAdjust="spacing" textLength="7" x="146.0594" y="379.2425">1</text><text fill="#000000" font-family="sans-serif" font-size="13" lengthAdjust="spacing" textLength="20" x="130.9375" y="478.7185">1..*</text></g><!--link GestorFrota to robot--><g id="link_GestorFrota_robot"><path codeLine="138" d="M163,213.4 C163,244.49 163,303 163,303 C163,303 213.35,303 256.27,303 " fill="none" id="GestorFrota-to-robot" style="stroke:#181818;stroke-width:1.0;"/><polygon fill="#181818" points="262.27,303,253.27,299,257.27,303,253.27,307,262.27,303" style="stroke:#181818;stroke-width:1.0;"/><text fill="#000000" font-family="sans-serif" font-size="13" lengthAdjust="spacing" textLength="25" x="141.84" y="299.0283">gere</text><text fill="#000000" font-family="sans-serif" font-size="13" lengthAdjust="spacing" textLength="7" x="155.1031" y="234.5354">1</text><text fill="#000000" font-family="sans-serif" font-size="13" lengthAdjust="spacing" textLength="20" x="234.5125" y="294.0383">1..*</text></g><!--link Campus to building--><g id="link_Campus_building"><path codeLine="140" d="M154,527.14 C154,579.54 154,724.27 154,815.71 " fill="none" id="Campus-to-building" style="stroke:#181818;stroke-width:1.0;"/><polygon fill="#181818" points="154,821.71,158,812.71,154,816.71,150,812.71,154,821.71" style="stroke:#181818;stroke-width:1.0;"/><text fill="#000000" font-family="sans-serif" font-size="13" lengthAdjust="spacing" textLength="85" x="68" y="670.4583">constitu&#237;do por</text><text fill="#000000" font-family="sans-serif" font-size="13" lengthAdjust="spacing" textLength="7" x="146.0594" y="548.5522">1</text><text fill="#000000" font-family="sans-serif" font-size="13" lengthAdjust="spacing" textLength="20" x="133.0156" y="810.7168">5..*</text></g><!--link building to floor--><g id="link_building_floor"><path codeLine="143" d="M219,968.21 C219,1026.02 219,1097 219,1097 C219,1097 246.9,1097 278.81,1097 " fill="none" id="building-to-floor" style="stroke:#181818;stroke-width:1.0;"/><polygon fill="#181818" points="284.81,1097,275.81,1093,279.81,1097,275.81,1101,284.81,1097" style="stroke:#181818;stroke-width:1.0;"/><text fill="#000000" font-family="sans-serif" font-size="13" lengthAdjust="spacing" textLength="22" x="196" y="1061.5383">t&#234;m</text><text fill="#000000" font-family="sans-serif" font-size="13" lengthAdjust="spacing" textLength="7" x="217.6695" y="989.7988">1</text><text fill="#000000" font-family="sans-serif" font-size="13" lengthAdjust="spacing" textLength="20" x="256.865" y="1085.7397">1..*</text></g><!--link building to Lift--><g id="link_building_Lift"><path codeLine="144" d="M154,968.19 C154,1017.3 154,1073.94 154,1113.14 " fill="none" id="building-to-Lift" style="stroke:#181818;stroke-width:1.0;"/><polygon fill="#181818" points="154,1119.14,158,1110.14,154,1114.14,150,1110.14,154,1119.14" style="stroke:#181818;stroke-width:1.0;"/><text fill="#000000" font-family="sans-serif" font-size="13" lengthAdjust="spacing" textLength="22" x="131" y="1039.6983">t&#234;m</text><text fill="#000000" font-family="sans-serif" font-size="13" lengthAdjust="spacing" textLength="7" x="146.6773" y="989.7769">1</text><text fill="#000000" font-family="sans-serif" font-size="13" lengthAdjust="spacing" textLength="22" x="130.1094" y="1108.3229">0..1</text></g><!--link floor to passageway--><g id="link_floor_passageway"><path codeLine="146" d="M395.06,1157 C425.11,1157 456.25,1157 456.25,1157 C456.25,1157 456.25,1240.33 456.25,1304.36 " fill="none" id="floor-to-passageway" style="stroke:#181818;stroke-width:1.0;"/><polygon fill="#181818" points="456.25,1310.36,460.25,1301.36,456.25,1305.36,452.25,1301.36,456.25,1310.36" style="stroke:#181818;stroke-width:1.0;"/><text fill="#000000" font-family="sans-serif" font-size="13" lengthAdjust="spacing" textLength="22" x="433.25" y="1199.1183">t&#234;m</text><text fill="#000000" font-family="sans-serif" font-size="13" lengthAdjust="spacing" textLength="7" x="402.929" y="1152.9521">1</text><text fill="#000000" font-family="sans-serif" font-size="13" lengthAdjust="spacing" textLength="20" x="429.8039" y="1299.0601">1..*</text></g><!--link floor to Room--><g id="link_floor_Room"><path codeLine="147" d="M340,1238.73 C340,1261.94 340,1280.88 340,1302.94 " fill="none" id="floor-to-Room" style="stroke:#181818;stroke-width:1.0;"/><polygon fill="#181818" points="340,1308.94,344,1299.94,340,1303.94,336,1299.94,340,1308.94" style="stroke:#181818;stroke-width:1.0;"/><text fill="#000000" font-family="sans-serif" font-size="13" lengthAdjust="spacing" textLength="22" x="341" y="1269.8583">t&#234;m</text><text fill="#000000" font-family="sans-serif" font-size="13" lengthAdjust="spacing" textLength="7" x="332.6883" y="1260.8382">1</text><text fill="#000000" font-family="sans-serif" font-size="13" lengthAdjust="spacing" textLength="20" x="318.9063" y="1297.9536">1..*</text></g><!--link Room to Type--><g id="link_Room_Type"><path codeLine="148" d="M340,1439.16 C340,1458.75 340,1474.06 340,1492.96 " fill="none" id="Room-to-Type" style="stroke:#181818;stroke-width:1.0;"/><polygon fill="#181818" points="340,1498.96,344,1489.96,340,1493.96,336,1489.96,340,1498.96" style="stroke:#181818;stroke-width:1.0;"/><text fill="#000000" font-family="sans-serif" font-size="13" lengthAdjust="spacing" textLength="7" x="341" y="1465.0883">&#233;</text><text fill="#000000" font-family="sans-serif" font-size="13" lengthAdjust="spacing" textLength="7" x="332.6391" y="1460.8136">1</text><text fill="#000000" font-family="sans-serif" font-size="13" lengthAdjust="spacing" textLength="7" x="332.5516" y="1487.7951">1</text></g><!--link robot to robotType--><g id="link_robot_robotType"><path codeLine="153" d="M310,393.1 C310,412.18 310,427.67 310,446.88 " fill="none" id="robot-to-robotType" style="stroke:#181818;stroke-width:1.0;"/><polygon fill="#181818" points="310,452.88,314,443.88,310,447.88,306,443.88,310,452.88" style="stroke:#181818;stroke-width:1.0;"/><text fill="#000000" font-family="sans-serif" font-size="13" lengthAdjust="spacing" textLength="21" x="311" y="419.0183">has</text><text fill="#000000" font-family="sans-serif" font-size="13" lengthAdjust="spacing" textLength="7" x="302.5297" y="415.5298">1</text><text fill="#000000" font-family="sans-serif" font-size="13" lengthAdjust="spacing" textLength="7" x="302.5516" y="441.7048">1</text></g><!--link robotType to task--><g id="link_robotType_task"><path codeLine="154" d="M347,564.02 C347,594.32 347,625.36 347,653.87 " fill="none" id="robotType-to-task" style="stroke:#181818;stroke-width:1.0;"/><polygon fill="#181818" points="347,659.87,351,650.87,347,654.87,343,650.87,347,659.87" style="stroke:#181818;stroke-width:1.0;"/><text fill="#000000" font-family="sans-serif" font-size="13" lengthAdjust="spacing" textLength="21" x="325" y="607.9683">has</text><text fill="#000000" font-family="sans-serif" font-size="13" lengthAdjust="spacing" textLength="7" x="344.2922" y="586.2628">1</text><text fill="#000000" font-family="sans-serif" font-size="13" lengthAdjust="spacing" textLength="7" x="333.7984" y="648.722">1</text></g><!--link task to DeliveryTask--><g id="link_task_DeliveryTask"><path codeLine="159" d="M380.5,750.03 C380.5,768.35 380.5,784.15 380.5,805.2 " fill="none" id="task-to-DeliveryTask" style="stroke:#181818;stroke-width:1.0;"/><polygon fill="#181818" points="380.5,811.2,384.5,802.2,380.5,806.2,376.5,802.2,380.5,811.2" style="stroke:#181818;stroke-width:1.0;"/><text fill="#000000" font-family="sans-serif" font-size="13" lengthAdjust="spacing" textLength="10" x="381.5" y="776.6383">is</text><text fill="#000000" font-family="sans-serif" font-size="13" lengthAdjust="spacing" textLength="7" x="372.4719" y="771.9548">1</text><text fill="#000000" font-family="sans-serif" font-size="13" lengthAdjust="spacing" textLength="7" x="375.2188" y="800.3101">1</text></g><!--link task to SecurityTask--><g id="link_task_SecurityTask"><path codeLine="160" d="M429,750.03 C429,806.21 429,895 429,895 C429,895 438.07,895 454.79,895 " fill="none" id="task-to-SecurityTask" style="stroke:#181818;stroke-width:1.0;"/><polygon fill="#181818" points="460.79,895,451.79,891,455.79,895,451.79,899,460.79,895" style="stroke:#181818;stroke-width:1.0;"/><text fill="#000000" font-family="sans-serif" font-size="13" lengthAdjust="spacing" textLength="10" x="430" y="834.4383">is</text><text fill="#000000" font-family="sans-serif" font-size="13" lengthAdjust="spacing" textLength="7" x="428.0953" y="771.9548">1</text><text fill="#000000" font-family="sans-serif" font-size="13" lengthAdjust="spacing" textLength="7" x="445.888" y="890.6559">1</text></g><!--SRC=[ZLNDZjCm4BxxAQnUAY6boo9ngLQLThSiGkekQ7_4sNMcgTN43hQpK51V1Wu899wYBuPZvsUIb9PSafdvFFDDPiPZDaBcJBECvenlM08FTfi2rS0jaqaAn3I0L4YmsnoeqdQjo5h4G3Dmdx490XUQknEayaIV36XwSS6IH4F2BCncz1kXxk4fCuOMmQoLihCPqb_6cP18VWl6AdsZbMK3xJNByi8WzPC5QHs7NKlZgX1fB6HoXCgoXGGwmLW-4RrMCI3nZcLOl6LVRbAbz5na88rG4jk4_ATj3ePhaTjIwzKxn6SXLlO8XJgZHht3-VgGHv9TLVQJcNf7TqMs17qi-32VLljHn7QDv0N8f5Bi2E9qhrHsYabFTyJrOKPLG915HX_BFcu3XWFlLol1eQUypFAri6jm_r7tJ0ksL9gvBjps7JcyhcEYodnmgRhtPxRjbWTN9yUO_olH-I7bgnFryIr3I0XQZL7Bz5ujbHtq4AAfAy208U-4bPrXYGzN17dirQNdxKep6RVYhJEchNYmtcVZ4tmVG0kMzhlybcdEMl4TYded-AQJ5XxSkLOIX86yqzjBh_6DTrF8_S_z3rKb6RsHjlp1GLY8B8UlbV0i4f7klqik6DcDptmZDVLvP6OpA4y8PuC99nerlT3vIRkw_7D8nJFeRUcrEf6xB8ky74jIbIv0XfhcFcmqrqfQnYrsr8A2t85m9LT2PwmavPasn1w05rfOJ2nLt0DDSzOx2eFcLyheV4GleYZo7twPq2dT_-eO_HijbW408y9qz27-5TQDDv4GgjH6qSoz9vCNex3afZG1xPPIGFSXlc1Jjt8_5IwScq8SjG-kjBL7b48V6Jg-1dQybQ3N7jGilYbrVz9OOOlzdrZHN6dNROsrvpfia2cr-z_P0T3BoSHzbZkinf1mekUclUegs45KsN6LlVn4vf6_niFF7uTqIsLJtsOOFGGXQa0rcS53QwwzDpVIbAwP8Uq5XK5bzOATZ2j__GmUFIHMO0v1HksTu41WmDq1Siq8yNs1SNXCfrIO8GBFYqUGlm00]--></g></svg>