<?xml version="1.0" encoding="us-ascii" standalone="no"?><svg xmlns="http://www.w3.org/2000/svg" xmlns:xlink="http://www.w3.org/1999/xlink" contentStyleType="text/css" height="436px" preserveAspectRatio="none" style="width:303px;height:436px;background:#FFFFFF;" version="1.1" viewBox="0 0 303 436" width="303px" zoomAndPan="magnify"><defs/><g><text fill="#000000" font-family="sans-serif" font-size="14" font-weight="bold" lengthAdjust="spacing" textLength="101" x="102.5" y="30.1074">Create a robot</text><rect fill="#FFFFFF" height="151.4551" style="stroke:#181818;stroke-width:1.0;" width="10" x="145" y="161.1543"/><rect fill="#FFFFFF" height="31.291" style="stroke:#181818;stroke-width:1.0;" width="10" x="251" y="192.4453"/><rect fill="none" height="50.582" style="stroke:#000000;stroke-width:1.5;" width="275" x="10" y="270.0273"/><line style="stroke:#181818;stroke-width:0.5;stroke-dasharray:5.0,5.0;" x1="150" x2="150" y1="127.8633" y2="337.6094"/><line style="stroke:#181818;stroke-width:0.5;stroke-dasharray:5.0,5.0;" x1="256" x2="256" y1="127.8633" y2="337.6094"/><rect fill="#E2E2F0" height="51.2422" rx="2.5" ry="2.5" style="stroke:#181818;stroke-width:0.5;" width="100" x="100" y="75.6211"/><text fill="#000000" font-family="sans-serif" font-size="14" font-style="italic" lengthAdjust="spacing" textLength="86" x="107" y="97.7285">&#171;component&#187;</text><text fill="#000000" font-family="sans-serif" font-size="14" lengthAdjust="spacing" textLength="61" x="119.5" y="116.3496">Back-End</text><rect fill="#E2E2F0" height="51.2422" rx="2.5" ry="2.5" style="stroke:#181818;stroke-width:0.5;" width="100" x="100" y="336.6094"/><text fill="#000000" font-family="sans-serif" font-size="14" font-style="italic" lengthAdjust="spacing" textLength="86" x="107" y="358.7168">&#171;component&#187;</text><text fill="#000000" font-family="sans-serif" font-size="14" lengthAdjust="spacing" textLength="61" x="119.5" y="377.3379">Back-End</text><text fill="#000000" font-family="sans-serif" font-size="14" font-style="italic" lengthAdjust="spacing" textLength="86" x="210" y="105.7285">&#171;component&#187;</text><text fill="#000000" font-family="sans-serif" font-size="14" lengthAdjust="spacing" textLength="61" x="222.5" y="124.3496">Database</text><path d="M238,54.6211 C238,44.6211 256,44.6211 256,44.6211 C256,44.6211 274,44.6211 274,54.6211 L274,80.6211 C274,90.6211 256,90.6211 256,90.6211 C256,90.6211 238,90.6211 238,80.6211 L238,54.6211 " fill="#E2E2F0" style="stroke:#181818;stroke-width:1.5;"/><path d="M238,54.6211 C238,64.6211 256,64.6211 256,64.6211 C256,64.6211 274,64.6211 274,54.6211 " fill="none" style="stroke:#181818;stroke-width:1.5;"/><text fill="#000000" font-family="sans-serif" font-size="14" font-style="italic" lengthAdjust="spacing" textLength="86" x="210" y="351.7168">&#171;component&#187;</text><text fill="#000000" font-family="sans-serif" font-size="14" lengthAdjust="spacing" textLength="61" x="222.5" y="370.3379">Database</text><path d="M238,383.8516 C238,373.8516 256,373.8516 256,373.8516 C256,373.8516 274,373.8516 274,383.8516 L274,409.8516 C274,419.8516 256,419.8516 256,419.8516 C256,419.8516 238,419.8516 238,409.8516 L238,383.8516 " fill="#E2E2F0" style="stroke:#181818;stroke-width:1.5;"/><path d="M238,383.8516 C238,393.8516 256,393.8516 256,393.8516 C256,393.8516 274,393.8516 274,383.8516 " fill="none" style="stroke:#181818;stroke-width:1.5;"/><rect fill="#FFFFFF" height="151.4551" style="stroke:#181818;stroke-width:1.0;" width="10" x="145" y="161.1543"/><rect fill="#FFFFFF" height="31.291" style="stroke:#181818;stroke-width:1.0;" width="10" x="251" y="192.4453"/><ellipse cx="76.5" cy="160.4043" fill="none" rx="4" ry="4" style="stroke:#181818;stroke-width:1.5;"/><line style="stroke:#181818;stroke-width:1.0;" x1="143" x2="133" y1="161.1543" y2="157.1543"/><line style="stroke:#181818;stroke-width:1.0;" x1="143" x2="133" y1="161.1543" y2="165.1543"/><line style="stroke:#181818;stroke-width:1.0;" x1="81" x2="144" y1="161.1543" y2="161.1543"/><text fill="#000000" font-family="sans-serif" font-size="13" font-weight="bold" lengthAdjust="spacing" textLength="7" x="84" y="155.8916">1</text><text fill="#000000" font-family="sans-serif" font-size="13" lengthAdjust="spacing" textLength="35" x="95" y="155.8916">POST</text><line style="stroke:#181818;stroke-width:1.0;" x1="249" x2="239" y1="192.4453" y2="188.4453"/><line style="stroke:#181818;stroke-width:1.0;" x1="249" x2="239" y1="192.4453" y2="196.4453"/><line style="stroke:#181818;stroke-width:1.0;" x1="155" x2="250" y1="192.4453" y2="192.4453"/><text fill="#000000" font-family="sans-serif" font-size="13" font-weight="bold" lengthAdjust="spacing" textLength="7" x="162" y="187.1826">2</text><text fill="#000000" font-family="sans-serif" font-size="13" lengthAdjust="spacing" textLength="39" x="173" y="187.1826">persist</text><line style="stroke:#181818;stroke-width:1.0;" x1="156" x2="166" y1="223.7363" y2="219.7363"/><line style="stroke:#181818;stroke-width:1.0;" x1="156" x2="166" y1="223.7363" y2="227.7363"/><line style="stroke:#181818;stroke-width:1.0;stroke-dasharray:2.0,2.0;" x1="155" x2="255" y1="223.7363" y2="223.7363"/><text fill="#000000" font-family="sans-serif" font-size="13" font-weight="bold" lengthAdjust="spacing" textLength="7" x="172" y="218.4736">3</text><text fill="#000000" font-family="sans-serif" font-size="13" lengthAdjust="spacing" textLength="4" x="183" y="218.4736">&#160;</text><ellipse cx="41.5" cy="254.2773" fill="none" rx="4" ry="4" style="stroke:#181818;stroke-width:1.5;"/><line style="stroke:#181818;stroke-width:1.0;" x1="48.5" x2="58.5" y1="255.0273" y2="251.0273"/><line style="stroke:#181818;stroke-width:1.0;" x1="48.5" x2="58.5" y1="255.0273" y2="259.0273"/><line style="stroke:#181818;stroke-width:1.0;" x1="42" x2="144" y1="255.0273" y2="255.0273"/><text fill="#000000" font-family="sans-serif" font-size="13" font-weight="bold" lengthAdjust="spacing" textLength="7" x="59" y="249.7646">4</text><text fill="#000000" font-family="sans-serif" font-size="13" lengthAdjust="spacing" textLength="70" x="70" y="249.7646">201 Created</text><path d="M10,270.0273 L71,270.0273 L71,279.3184 L61,289.3184 L10,289.3184 L10,270.0273 " fill="#EEEEEE" style="stroke:#000000;stroke-width:1.5;"/><rect fill="none" height="50.582" style="stroke:#000000;stroke-width:1.5;" width="275" x="10" y="270.0273"/><text fill="#000000" font-family="sans-serif" font-size="13" font-weight="bold" lengthAdjust="spacing" textLength="16" x="25" y="285.0557">alt</text><text fill="#000000" font-family="sans-serif" font-size="11" font-weight="bold" lengthAdjust="spacing" textLength="194" x="86" y="283.8975">[bad request / robot already exists]</text><ellipse cx="6.5" cy="311.8594" fill="none" rx="4" ry="4" style="stroke:#181818;stroke-width:1.5;"/><line style="stroke:#181818;stroke-width:1.0;" x1="13.5" x2="23.5" y1="312.6094" y2="308.6094"/><line style="stroke:#181818;stroke-width:1.0;" x1="13.5" x2="23.5" y1="312.6094" y2="316.6094"/><line style="stroke:#181818;stroke-width:1.0;" x1="7" x2="149" y1="312.6094" y2="312.6094"/><text fill="#000000" font-family="sans-serif" font-size="13" font-weight="bold" lengthAdjust="spacing" textLength="7" x="24" y="307.3467">5</text><text fill="#000000" font-family="sans-serif" font-size="13" lengthAdjust="spacing" textLength="100" x="35" y="307.3467">400 Bad Request</text><!--SRC=[NO_1QiCm44Jl-nMBxoPkwIaO5rJxdD3q1zRIKaHiIPNMfVdxhkD0JM_BphmPXXQ9OPb7pb2kFYJAD6CYUwLFliXjOini1K2ywFsMcOIHCCSnwbVjugrF50GherGz15SX5JG3jgsDSug1WtGTE18QgJ1M_UEw-thppmUliUwwbJ_Y-NJv020h_dkjDGE0_bTPiICcpiKN-JFq1bIeDnuSxmNDRTjwotrkdXvJdCPFWYCvtVcrS14yREEG9dMu6_AFTfGz_j8qQ9HutuXzaTPoSF0B]--></g></svg>