<?xml version="1.0" encoding="us-ascii" standalone="no"?><svg xmlns="http://www.w3.org/2000/svg" xmlns:xlink="http://www.w3.org/1999/xlink" contentStyleType="text/css" height="562px" preserveAspectRatio="none" style="width:349px;height:562px;background:#FFFFFF;" version="1.1" viewBox="0 0 349 562" width="349px" zoomAndPan="magnify"><defs/><g><text fill="#000000" font-family="sans-serif" font-size="14" font-weight="bold" lengthAdjust="spacing" textLength="61" x="145.5" y="30.1074">Edit a lift</text><rect fill="#FFFFFF" height="276.6191" style="stroke:#181818;stroke-width:1.0;" width="10" x="145" y="161.1543"/><rect fill="#FFFFFF" height="31.291" style="stroke:#181818;stroke-width:1.0;" width="10" x="286" y="192.4453"/><rect fill="#FFFFFF" height="31.291" style="stroke:#181818;stroke-width:1.0;" width="10" x="286" y="255.0273"/><rect fill="#FFFFFF" height="31.291" style="stroke:#181818;stroke-width:1.0;" width="10" x="286" y="317.6094"/><rect fill="none" height="50.582" style="stroke:#000000;stroke-width:1.5;" width="333" x="10" y="395.1914"/><line style="stroke:#181818;stroke-width:0.5;stroke-dasharray:5.0,5.0;" x1="150" x2="150" y1="127.8633" y2="462.7734"/><line style="stroke:#181818;stroke-width:0.5;stroke-dasharray:5.0,5.0;" x1="291" x2="291" y1="127.8633" y2="462.7734"/><rect fill="#E2E2F0" height="51.2422" rx="2.5" ry="2.5" style="stroke:#181818;stroke-width:0.5;" width="100" x="100" y="75.6211"/><text fill="#000000" font-family="sans-serif" font-size="14" font-style="italic" lengthAdjust="spacing" textLength="86" x="107" y="97.7285">&#171;component&#187;</text><text fill="#000000" font-family="sans-serif" font-size="14" lengthAdjust="spacing" textLength="61" x="119.5" y="116.3496">Back-End</text><rect fill="#E2E2F0" height="51.2422" rx="2.5" ry="2.5" style="stroke:#181818;stroke-width:0.5;" width="100" x="100" y="461.7734"/><text fill="#000000" font-family="sans-serif" font-size="14" font-style="italic" lengthAdjust="spacing" textLength="86" x="107" y="483.8809">&#171;component&#187;</text><text fill="#000000" font-family="sans-serif" font-size="14" lengthAdjust="spacing" textLength="61" x="119.5" y="502.502">Back-End</text><text fill="#000000" font-family="sans-serif" font-size="14" font-style="italic" lengthAdjust="spacing" textLength="86" x="245" y="105.7285">&#171;component&#187;</text><text fill="#000000" font-family="sans-serif" font-size="14" lengthAdjust="spacing" textLength="61" x="257.5" y="124.3496">Database</text><path d="M273,54.6211 C273,44.6211 291,44.6211 291,44.6211 C291,44.6211 309,44.6211 309,54.6211 L309,80.6211 C309,90.6211 291,90.6211 291,90.6211 C291,90.6211 273,90.6211 273,80.6211 L273,54.6211 " fill="#E2E2F0" style="stroke:#181818;stroke-width:1.5;"/><path d="M273,54.6211 C273,64.6211 291,64.6211 291,64.6211 C291,64.6211 309,64.6211 309,54.6211 " fill="none" style="stroke:#181818;stroke-width:1.5;"/><text fill="#000000" font-family="sans-serif" font-size="14" font-style="italic" lengthAdjust="spacing" textLength="86" x="245" y="476.8809">&#171;component&#187;</text><text fill="#000000" font-family="sans-serif" font-size="14" lengthAdjust="spacing" textLength="61" x="257.5" y="495.502">Database</text><path d="M273,509.0156 C273,499.0156 291,499.0156 291,499.0156 C291,499.0156 309,499.0156 309,509.0156 L309,535.0156 C309,545.0156 291,545.0156 291,545.0156 C291,545.0156 273,545.0156 273,535.0156 L273,509.0156 " fill="#E2E2F0" style="stroke:#181818;stroke-width:1.5;"/><path d="M273,509.0156 C273,519.0156 291,519.0156 291,519.0156 C291,519.0156 309,519.0156 309,509.0156 " fill="none" style="stroke:#181818;stroke-width:1.5;"/><rect fill="#FFFFFF" height="276.6191" style="stroke:#181818;stroke-width:1.0;" width="10" x="145" y="161.1543"/><rect fill="#FFFFFF" height="31.291" style="stroke:#181818;stroke-width:1.0;" width="10" x="286" y="192.4453"/><rect fill="#FFFFFF" height="31.291" style="stroke:#181818;stroke-width:1.0;" width="10" x="286" y="255.0273"/><rect fill="#FFFFFF" height="31.291" style="stroke:#181818;stroke-width:1.0;" width="10" x="286" y="317.6094"/><ellipse cx="68.5" cy="160.4043" fill="none" rx="4" ry="4" style="stroke:#181818;stroke-width:1.5;"/><line style="stroke:#181818;stroke-width:1.0;" x1="143" x2="133" y1="161.1543" y2="157.1543"/><line style="stroke:#181818;stroke-width:1.0;" x1="143" x2="133" y1="161.1543" y2="165.1543"/><line style="stroke:#181818;stroke-width:1.0;" x1="73" x2="144" y1="161.1543" y2="161.1543"/><text fill="#000000" font-family="sans-serif" font-size="13" font-weight="bold" lengthAdjust="spacing" textLength="7" x="76" y="155.8916">1</text><text fill="#000000" font-family="sans-serif" font-size="13" lengthAdjust="spacing" textLength="43" x="87" y="155.8916">PATCH</text><line style="stroke:#181818;stroke-width:1.0;" x1="284" x2="274" y1="192.4453" y2="188.4453"/><line style="stroke:#181818;stroke-width:1.0;" x1="284" x2="274" y1="192.4453" y2="196.4453"/><line style="stroke:#181818;stroke-width:1.0;" x1="155" x2="285" y1="192.4453" y2="192.4453"/><text fill="#000000" font-family="sans-serif" font-size="13" font-weight="bold" lengthAdjust="spacing" textLength="7" x="162" y="187.1826">2</text><text fill="#000000" font-family="sans-serif" font-size="13" lengthAdjust="spacing" textLength="101" x="173" y="187.1826">select existing lift</text><line style="stroke:#181818;stroke-width:1.0;" x1="156" x2="166" y1="223.7363" y2="219.7363"/><line style="stroke:#181818;stroke-width:1.0;" x1="156" x2="166" y1="223.7363" y2="227.7363"/><line style="stroke:#181818;stroke-width:1.0;stroke-dasharray:2.0,2.0;" x1="155" x2="290" y1="223.7363" y2="223.7363"/><text fill="#000000" font-family="sans-serif" font-size="13" font-weight="bold" lengthAdjust="spacing" textLength="7" x="172" y="218.4736">3</text><text fill="#000000" font-family="sans-serif" font-size="13" lengthAdjust="spacing" textLength="4" x="183" y="218.4736">&#160;</text><line style="stroke:#181818;stroke-width:1.0;" x1="284" x2="274" y1="255.0273" y2="251.0273"/><line style="stroke:#181818;stroke-width:1.0;" x1="284" x2="274" y1="255.0273" y2="259.0273"/><line style="stroke:#181818;stroke-width:1.0;" x1="155" x2="285" y1="255.0273" y2="255.0273"/><text fill="#000000" font-family="sans-serif" font-size="13" font-weight="bold" lengthAdjust="spacing" textLength="7" x="162" y="249.7646">4</text><text fill="#000000" font-family="sans-serif" font-size="13" lengthAdjust="spacing" textLength="70" x="173" y="249.7646">select floors</text><line style="stroke:#181818;stroke-width:1.0;" x1="156" x2="166" y1="286.3184" y2="282.3184"/><line style="stroke:#181818;stroke-width:1.0;" x1="156" x2="166" y1="286.3184" y2="290.3184"/><line style="stroke:#181818;stroke-width:1.0;stroke-dasharray:2.0,2.0;" x1="155" x2="290" y1="286.3184" y2="286.3184"/><text fill="#000000" font-family="sans-serif" font-size="13" font-weight="bold" lengthAdjust="spacing" textLength="7" x="172" y="281.0557">5</text><text fill="#000000" font-family="sans-serif" font-size="13" lengthAdjust="spacing" textLength="4" x="183" y="281.0557">&#160;</text><line style="stroke:#181818;stroke-width:1.0;" x1="284" x2="274" y1="317.6094" y2="313.6094"/><line style="stroke:#181818;stroke-width:1.0;" x1="284" x2="274" y1="317.6094" y2="321.6094"/><line style="stroke:#181818;stroke-width:1.0;" x1="155" x2="285" y1="317.6094" y2="317.6094"/><text fill="#000000" font-family="sans-serif" font-size="13" font-weight="bold" lengthAdjust="spacing" textLength="7" x="162" y="312.3467">6</text><text fill="#000000" font-family="sans-serif" font-size="13" lengthAdjust="spacing" textLength="39" x="173" y="312.3467">persist</text><line style="stroke:#181818;stroke-width:1.0;" x1="156" x2="166" y1="348.9004" y2="344.9004"/><line style="stroke:#181818;stroke-width:1.0;" x1="156" x2="166" y1="348.9004" y2="352.9004"/><line style="stroke:#181818;stroke-width:1.0;stroke-dasharray:2.0,2.0;" x1="155" x2="290" y1="348.9004" y2="348.9004"/><text fill="#000000" font-family="sans-serif" font-size="13" font-weight="bold" lengthAdjust="spacing" textLength="7" x="172" y="343.6377">7</text><text fill="#000000" font-family="sans-serif" font-size="13" lengthAdjust="spacing" textLength="4" x="183" y="343.6377">&#160;</text><ellipse cx="67.5" cy="379.4414" fill="none" rx="4" ry="4" style="stroke:#181818;stroke-width:1.5;"/><line style="stroke:#181818;stroke-width:1.0;" x1="74.5" x2="84.5" y1="380.1914" y2="376.1914"/><line style="stroke:#181818;stroke-width:1.0;" x1="74.5" x2="84.5" y1="380.1914" y2="384.1914"/><line style="stroke:#181818;stroke-width:1.0;" x1="68" x2="144" y1="380.1914" y2="380.1914"/><text fill="#000000" font-family="sans-serif" font-size="13" font-weight="bold" lengthAdjust="spacing" textLength="7" x="85" y="374.9287">8</text><text fill="#000000" font-family="sans-serif" font-size="13" lengthAdjust="spacing" textLength="44" x="96" y="374.9287">200 OK</text><path d="M10,395.1914 L71,395.1914 L71,404.4824 L61,414.4824 L10,414.4824 L10,395.1914 " fill="#EEEEEE" style="stroke:#000000;stroke-width:1.5;"/><rect fill="none" height="50.582" style="stroke:#000000;stroke-width:1.5;" width="333" x="10" y="395.1914"/><text fill="#000000" font-family="sans-serif" font-size="13" font-weight="bold" lengthAdjust="spacing" textLength="16" x="25" y="410.2197">alt</text><text fill="#000000" font-family="sans-serif" font-size="11" font-weight="bold" lengthAdjust="spacing" textLength="252" x="86" y="409.0615">[bad request / lift not found / floors not found]</text><ellipse cx="6.5" cy="437.0234" fill="none" rx="4" ry="4" style="stroke:#181818;stroke-width:1.5;"/><line style="stroke:#181818;stroke-width:1.0;" x1="13.5" x2="23.5" y1="437.7734" y2="433.7734"/><line style="stroke:#181818;stroke-width:1.0;" x1="13.5" x2="23.5" y1="437.7734" y2="441.7734"/><line style="stroke:#181818;stroke-width:1.0;" x1="7" x2="149" y1="437.7734" y2="437.7734"/><text fill="#000000" font-family="sans-serif" font-size="13" font-weight="bold" lengthAdjust="spacing" textLength="7" x="24" y="432.5107">9</text><text fill="#000000" font-family="sans-serif" font-size="13" lengthAdjust="spacing" textLength="100" x="35" y="432.5107">400 Bad Request</text><!--SRC=[dP11IyGm48Nlyok6tekBU5fA5sCBWWT5_GFJP7O9soOrcOh-UsSteaKyYBVXpVjUteGMYM6P1awGZpxCb6Z2cUoH3lmaxoDZOYi0uaNdtdb1mj7lLLAlUEjd2eALKQJkWwkGCfeUcyR6QOw1WxGjE18QA3DMtUTqzdNcXmzsiMxR4x_5X-ldcri0ik9VILX505sSzifjCVEepP3VV1OV3gNKbxipeAwwf87ZzUAtcFqOOyh_u6TEMHlyaTp5fgdBVPUR3TxVwO6Zu41E__bbuInuSRu4GzHISGbEXLBkMrh7N6cCKVonuEi7zNbMymS0]--></g></svg>