<?xml version="1.0" encoding="us-ascii" standalone="no"?><svg xmlns="http://www.w3.org/2000/svg" xmlns:xlink="http://www.w3.org/1999/xlink" contentStyleType="text/css" height="436px" preserveAspectRatio="none" style="width:312px;height:436px;background:#FFFFFF;" version="1.1" viewBox="0 0 312 436" width="312px" zoomAndPan="magnify"><defs/><g><text fill="#000000" font-family="sans-serif" font-size="14" font-weight="bold" lengthAdjust="spacing" textLength="95" x="110" y="30.1074">List all robots</text><rect fill="#FFFFFF" height="151.4551" style="stroke:#181818;stroke-width:1.0;" width="10" x="145" y="161.1543"/><rect fill="#FFFFFF" height="31.291" style="stroke:#181818;stroke-width:1.0;" width="10" x="260" y="192.4453"/><rect fill="none" height="50.582" style="stroke:#000000;stroke-width:1.5;" width="258" x="10" y="270.0273"/><line style="stroke:#181818;stroke-width:0.5;stroke-dasharray:5.0,5.0;" x1="150" x2="150" y1="127.8633" y2="337.6094"/><line style="stroke:#181818;stroke-width:0.5;stroke-dasharray:5.0,5.0;" x1="265" x2="265" y1="127.8633" y2="337.6094"/><rect fill="#E2E2F0" height="51.2422" rx="2.5" ry="2.5" style="stroke:#181818;stroke-width:0.5;" width="100" x="100" y="75.6211"/><text fill="#000000" font-family="sans-serif" font-size="14" font-style="italic" lengthAdjust="spacing" textLength="86" x="107" y="97.7285">&#171;component&#187;</text><text fill="#000000" font-family="sans-serif" font-size="14" lengthAdjust="spacing" textLength="61" x="119.5" y="116.3496">Back-End</text><rect fill="#E2E2F0" height="51.2422" rx="2.5" ry="2.5" style="stroke:#181818;stroke-width:0.5;" width="100" x="100" y="336.6094"/><text fill="#000000" font-family="sans-serif" font-size="14" font-style="italic" lengthAdjust="spacing" textLength="86" x="107" y="358.7168">&#171;component&#187;</text><text fill="#000000" font-family="sans-serif" font-size="14" lengthAdjust="spacing" textLength="61" x="119.5" y="377.3379">Back-End</text><text fill="#000000" font-family="sans-serif" font-size="14" font-style="italic" lengthAdjust="spacing" textLength="86" x="219" y="105.7285">&#171;component&#187;</text><text fill="#000000" font-family="sans-serif" font-size="14" lengthAdjust="spacing" textLength="61" x="231.5" y="124.3496">Database</text><path d="M247,54.6211 C247,44.6211 265,44.6211 265,44.6211 C265,44.6211 283,44.6211 283,54.6211 L283,80.6211 C283,90.6211 265,90.6211 265,90.6211 C265,90.6211 247,90.6211 247,80.6211 L247,54.6211 " fill="#E2E2F0" style="stroke:#181818;stroke-width:1.5;"/><path d="M247,54.6211 C247,64.6211 265,64.6211 265,64.6211 C265,64.6211 283,64.6211 283,54.6211 " fill="none" style="stroke:#181818;stroke-width:1.5;"/><text fill="#000000" font-family="sans-serif" font-size="14" font-style="italic" lengthAdjust="spacing" textLength="86" x="219" y="351.7168">&#171;component&#187;</text><text fill="#000000" font-family="sans-serif" font-size="14" lengthAdjust="spacing" textLength="61" x="231.5" y="370.3379">Database</text><path d="M247,383.8516 C247,373.8516 265,373.8516 265,373.8516 C265,373.8516 283,373.8516 283,383.8516 L283,409.8516 C283,419.8516 265,419.8516 265,419.8516 C265,419.8516 247,419.8516 247,409.8516 L247,383.8516 " fill="#E2E2F0" style="stroke:#181818;stroke-width:1.5;"/><path d="M247,383.8516 C247,393.8516 265,393.8516 265,393.8516 C265,393.8516 283,393.8516 283,383.8516 " fill="none" style="stroke:#181818;stroke-width:1.5;"/><rect fill="#FFFFFF" height="151.4551" style="stroke:#181818;stroke-width:1.0;" width="10" x="145" y="161.1543"/><rect fill="#FFFFFF" height="31.291" style="stroke:#181818;stroke-width:1.0;" width="10" x="260" y="192.4453"/><ellipse cx="85.5" cy="160.4043" fill="none" rx="4" ry="4" style="stroke:#181818;stroke-width:1.5;"/><line style="stroke:#181818;stroke-width:1.0;" x1="143" x2="133" y1="161.1543" y2="157.1543"/><line style="stroke:#181818;stroke-width:1.0;" x1="143" x2="133" y1="161.1543" y2="165.1543"/><line style="stroke:#181818;stroke-width:1.0;" x1="90" x2="144" y1="161.1543" y2="161.1543"/><text fill="#000000" font-family="sans-serif" font-size="13" font-weight="bold" lengthAdjust="spacing" textLength="7" x="93" y="155.8916">1</text><text fill="#000000" font-family="sans-serif" font-size="13" lengthAdjust="spacing" textLength="26" x="104" y="155.8916">GET</text><line style="stroke:#181818;stroke-width:1.0;" x1="258" x2="248" y1="192.4453" y2="188.4453"/><line style="stroke:#181818;stroke-width:1.0;" x1="258" x2="248" y1="192.4453" y2="196.4453"/><line style="stroke:#181818;stroke-width:1.0;" x1="155" x2="259" y1="192.4453" y2="192.4453"/><text fill="#000000" font-family="sans-serif" font-size="13" font-weight="bold" lengthAdjust="spacing" textLength="7" x="162" y="187.1826">2</text><text fill="#000000" font-family="sans-serif" font-size="13" lengthAdjust="spacing" textLength="75" x="173" y="187.1826">select robots</text><line style="stroke:#181818;stroke-width:1.0;" x1="156" x2="166" y1="223.7363" y2="219.7363"/><line style="stroke:#181818;stroke-width:1.0;" x1="156" x2="166" y1="223.7363" y2="227.7363"/><line style="stroke:#181818;stroke-width:1.0;stroke-dasharray:2.0,2.0;" x1="155" x2="264" y1="223.7363" y2="223.7363"/><text fill="#000000" font-family="sans-serif" font-size="13" font-weight="bold" lengthAdjust="spacing" textLength="7" x="172" y="218.4736">3</text><text fill="#000000" font-family="sans-serif" font-size="13" lengthAdjust="spacing" textLength="4" x="183" y="218.4736">&#160;</text><ellipse cx="67.5" cy="254.2773" fill="none" rx="4" ry="4" style="stroke:#181818;stroke-width:1.5;"/><line style="stroke:#181818;stroke-width:1.0;" x1="74.5" x2="84.5" y1="255.0273" y2="251.0273"/><line style="stroke:#181818;stroke-width:1.0;" x1="74.5" x2="84.5" y1="255.0273" y2="259.0273"/><line style="stroke:#181818;stroke-width:1.0;" x1="68" x2="144" y1="255.0273" y2="255.0273"/><text fill="#000000" font-family="sans-serif" font-size="13" font-weight="bold" lengthAdjust="spacing" textLength="7" x="85" y="249.7646">4</text><text fill="#000000" font-family="sans-serif" font-size="13" lengthAdjust="spacing" textLength="44" x="96" y="249.7646">200 OK</text><path d="M10,270.0273 L71,270.0273 L71,279.3184 L61,289.3184 L10,289.3184 L10,270.0273 " fill="#EEEEEE" style="stroke:#000000;stroke-width:1.5;"/><rect fill="none" height="50.582" style="stroke:#000000;stroke-width:1.5;" width="258" x="10" y="270.0273"/><text fill="#000000" font-family="sans-serif" font-size="13" font-weight="bold" lengthAdjust="spacing" textLength="16" x="25" y="285.0557">alt</text><text fill="#000000" font-family="sans-serif" font-size="11" font-weight="bold" lengthAdjust="spacing" textLength="177" x="86" y="283.8975">[bad request / robots not found]</text><ellipse cx="6.5" cy="311.8594" fill="none" rx="4" ry="4" style="stroke:#181818;stroke-width:1.5;"/><line style="stroke:#181818;stroke-width:1.0;" x1="13.5" x2="23.5" y1="312.6094" y2="308.6094"/><line style="stroke:#181818;stroke-width:1.0;" x1="13.5" x2="23.5" y1="312.6094" y2="316.6094"/><line style="stroke:#181818;stroke-width:1.0;" x1="7" x2="149" y1="312.6094" y2="312.6094"/><text fill="#000000" font-family="sans-serif" font-size="13" font-weight="bold" lengthAdjust="spacing" textLength="7" x="24" y="307.3467">5</text><text fill="#000000" font-family="sans-serif" font-size="13" lengthAdjust="spacing" textLength="100" x="35" y="307.3467">400 Bad Request</text><!--SRC=[NO_1Yi9038RlUOhGUr5aJr8g32qULX1qNo2ToShWTAPsqeLzU-DMfUmj9D__9Q59KfpwZaV8Lny76gd7WUoLBdoMty0uiXK0yQBrmMT12W77r2N90CgBjtwWA5WOZPLjT0LIHjDYLTdK3obobBe6Hq8TPSQYULP_N6F-SR1BPLq_yblSjry0PCN_aB2s0BJzc6fgYvc3tlQwvOqr1dHSpX9ml1oelAhAMRvPh_7ugVuWs97JHsyJwt-hfn5Z4lnEKtJBr8UcZDAdcLxwTHihV0S0]--></g></svg>