<?xml version="1.0" encoding="us-ascii" standalone="no"?><svg xmlns="http://www.w3.org/2000/svg" xmlns:xlink="http://www.w3.org/1999/xlink" contentStyleType="text/css" height="562px" preserveAspectRatio="none" style="width:372px;height:562px;background:#FFFFFF;" version="1.1" viewBox="0 0 372 562" width="372px" zoomAndPan="magnify"><defs/><g><text fill="#000000" font-family="sans-serif" font-size="14" font-weight="bold" lengthAdjust="spacing" textLength="76" x="149.5" y="30.1074">Edit a floor</text><rect fill="#FFFFFF" height="276.6191" style="stroke:#181818;stroke-width:1.0;" width="10" x="145" y="161.1543"/><rect fill="#FFFFFF" height="31.291" style="stroke:#181818;stroke-width:1.0;" width="10" x="297" y="192.4453"/><rect fill="#FFFFFF" height="31.291" style="stroke:#181818;stroke-width:1.0;" width="10" x="297" y="255.0273"/><rect fill="#FFFFFF" height="31.291" style="stroke:#181818;stroke-width:1.0;" width="10" x="297" y="317.6094"/><rect fill="none" height="50.582" style="stroke:#000000;stroke-width:1.5;" width="356" x="10" y="395.1914"/><line style="stroke:#181818;stroke-width:0.5;stroke-dasharray:5.0,5.0;" x1="150" x2="150" y1="127.8633" y2="462.7734"/><line style="stroke:#181818;stroke-width:0.5;stroke-dasharray:5.0,5.0;" x1="302" x2="302" y1="127.8633" y2="462.7734"/><rect fill="#E2E2F0" height="51.2422" rx="2.5" ry="2.5" style="stroke:#181818;stroke-width:0.5;" width="100" x="100" y="75.6211"/><text fill="#000000" font-family="sans-serif" font-size="14" font-style="italic" lengthAdjust="spacing" textLength="86" x="107" y="97.7285">&#171;component&#187;</text><text fill="#000000" font-family="sans-serif" font-size="14" lengthAdjust="spacing" textLength="61" x="119.5" y="116.3496">Back-End</text><rect fill="#E2E2F0" height="51.2422" rx="2.5" ry="2.5" style="stroke:#181818;stroke-width:0.5;" width="100" x="100" y="461.7734"/><text fill="#000000" font-family="sans-serif" font-size="14" font-style="italic" lengthAdjust="spacing" textLength="86" x="107" y="483.8809">&#171;component&#187;</text><text fill="#000000" font-family="sans-serif" font-size="14" lengthAdjust="spacing" textLength="61" x="119.5" y="502.502">Back-End</text><text fill="#000000" font-family="sans-serif" font-size="14" font-style="italic" lengthAdjust="spacing" textLength="86" x="256" y="105.7285">&#171;component&#187;</text><text fill="#000000" font-family="sans-serif" font-size="14" lengthAdjust="spacing" textLength="61" x="268.5" y="124.3496">Database</text><path d="M284,54.6211 C284,44.6211 302,44.6211 302,44.6211 C302,44.6211 320,44.6211 320,54.6211 L320,80.6211 C320,90.6211 302,90.6211 302,90.6211 C302,90.6211 284,90.6211 284,80.6211 L284,54.6211 " fill="#E2E2F0" style="stroke:#181818;stroke-width:1.5;"/><path d="M284,54.6211 C284,64.6211 302,64.6211 302,64.6211 C302,64.6211 320,64.6211 320,54.6211 " fill="none" style="stroke:#181818;stroke-width:1.5;"/><text fill="#000000" font-family="sans-serif" font-size="14" font-style="italic" lengthAdjust="spacing" textLength="86" x="256" y="476.8809">&#171;component&#187;</text><text fill="#000000" font-family="sans-serif" font-size="14" lengthAdjust="spacing" textLength="61" x="268.5" y="495.502">Database</text><path d="M284,509.0156 C284,499.0156 302,499.0156 302,499.0156 C302,499.0156 320,499.0156 320,509.0156 L320,535.0156 C320,545.0156 302,545.0156 302,545.0156 C302,545.0156 284,545.0156 284,535.0156 L284,509.0156 " fill="#E2E2F0" style="stroke:#181818;stroke-width:1.5;"/><path d="M284,509.0156 C284,519.0156 302,519.0156 302,519.0156 C302,519.0156 320,519.0156 320,509.0156 " fill="none" style="stroke:#181818;stroke-width:1.5;"/><rect fill="#FFFFFF" height="276.6191" style="stroke:#181818;stroke-width:1.0;" width="10" x="145" y="161.1543"/><rect fill="#FFFFFF" height="31.291" style="stroke:#181818;stroke-width:1.0;" width="10" x="297" y="192.4453"/><rect fill="#FFFFFF" height="31.291" style="stroke:#181818;stroke-width:1.0;" width="10" x="297" y="255.0273"/><rect fill="#FFFFFF" height="31.291" style="stroke:#181818;stroke-width:1.0;" width="10" x="297" y="317.6094"/><ellipse cx="68.5" cy="160.4043" fill="none" rx="4" ry="4" style="stroke:#181818;stroke-width:1.5;"/><polygon fill="#181818" points="133,157.1543,143,161.1543,133,165.1543,137,161.1543" style="stroke:#181818;stroke-width:1.0;"/><line style="stroke:#181818;stroke-width:1.0;" x1="73" x2="139" y1="161.1543" y2="161.1543"/><text fill="#000000" font-family="sans-serif" font-size="13" font-weight="bold" lengthAdjust="spacing" textLength="7" x="76" y="155.8916">1</text><text fill="#000000" font-family="sans-serif" font-size="13" lengthAdjust="spacing" textLength="43" x="87" y="155.8916">PATCH</text><polygon fill="#181818" points="285,188.4453,295,192.4453,285,196.4453,289,192.4453" style="stroke:#181818;stroke-width:1.0;"/><line style="stroke:#181818;stroke-width:1.0;" x1="155" x2="291" y1="192.4453" y2="192.4453"/><text fill="#000000" font-family="sans-serif" font-size="13" font-weight="bold" lengthAdjust="spacing" textLength="7" x="162" y="187.1826">2</text><text fill="#000000" font-family="sans-serif" font-size="13" lengthAdjust="spacing" textLength="112" x="173" y="187.1826">select existing floor</text><polygon fill="#181818" points="166,219.7363,156,223.7363,166,227.7363,162,223.7363" style="stroke:#181818;stroke-width:1.0;"/><line style="stroke:#181818;stroke-width:1.0;stroke-dasharray:2.0,2.0;" x1="160" x2="301" y1="223.7363" y2="223.7363"/><text fill="#000000" font-family="sans-serif" font-size="13" font-weight="bold" lengthAdjust="spacing" textLength="7" x="172" y="218.4736">3</text><text fill="#000000" font-family="sans-serif" font-size="13" lengthAdjust="spacing" textLength="4" x="183" y="218.4736">&#160;</text><polygon fill="#181818" points="285,251.0273,295,255.0273,285,259.0273,289,255.0273" style="stroke:#181818;stroke-width:1.0;"/><line style="stroke:#181818;stroke-width:1.0;" x1="155" x2="291" y1="255.0273" y2="255.0273"/><text fill="#000000" font-family="sans-serif" font-size="13" font-weight="bold" lengthAdjust="spacing" textLength="7" x="162" y="249.7646">4</text><text fill="#000000" font-family="sans-serif" font-size="13" lengthAdjust="spacing" textLength="83" x="173" y="249.7646">select building</text><polygon fill="#181818" points="166,282.3184,156,286.3184,166,290.3184,162,286.3184" style="stroke:#181818;stroke-width:1.0;"/><line style="stroke:#181818;stroke-width:1.0;stroke-dasharray:2.0,2.0;" x1="160" x2="301" y1="286.3184" y2="286.3184"/><text fill="#000000" font-family="sans-serif" font-size="13" font-weight="bold" lengthAdjust="spacing" textLength="7" x="172" y="281.0557">5</text><text fill="#000000" font-family="sans-serif" font-size="13" lengthAdjust="spacing" textLength="4" x="183" y="281.0557">&#160;</text><polygon fill="#181818" points="285,313.6094,295,317.6094,285,321.6094,289,317.6094" style="stroke:#181818;stroke-width:1.0;"/><line style="stroke:#181818;stroke-width:1.0;" x1="155" x2="291" y1="317.6094" y2="317.6094"/><text fill="#000000" font-family="sans-serif" font-size="13" font-weight="bold" lengthAdjust="spacing" textLength="7" x="162" y="312.3467">6</text><text fill="#000000" font-family="sans-serif" font-size="13" lengthAdjust="spacing" textLength="39" x="173" y="312.3467">persist</text><polygon fill="#181818" points="166,344.9004,156,348.9004,166,352.9004,162,348.9004" style="stroke:#181818;stroke-width:1.0;"/><line style="stroke:#181818;stroke-width:1.0;stroke-dasharray:2.0,2.0;" x1="160" x2="301" y1="348.9004" y2="348.9004"/><text fill="#000000" font-family="sans-serif" font-size="13" font-weight="bold" lengthAdjust="spacing" textLength="7" x="172" y="343.6377">7</text><text fill="#000000" font-family="sans-serif" font-size="13" lengthAdjust="spacing" textLength="4" x="183" y="343.6377">&#160;</text><ellipse cx="67.5" cy="379.4414" fill="none" rx="4" ry="4" style="stroke:#181818;stroke-width:1.5;"/><line style="stroke:#181818;stroke-width:1.0;" x1="74.5" x2="84.5" y1="380.1914" y2="376.1914"/><line style="stroke:#181818;stroke-width:1.0;" x1="74.5" x2="84.5" y1="380.1914" y2="384.1914"/><line style="stroke:#181818;stroke-width:1.0;stroke-dasharray:2.0,2.0;" x1="68" x2="144" y1="380.1914" y2="380.1914"/><text fill="#000000" font-family="sans-serif" font-size="13" font-weight="bold" lengthAdjust="spacing" textLength="7" x="85" y="374.9287">8</text><text fill="#000000" font-family="sans-serif" font-size="13" lengthAdjust="spacing" textLength="44" x="96" y="374.9287">200 OK</text><path d="M10,395.1914 L71,395.1914 L71,404.4824 L61,414.4824 L10,414.4824 L10,395.1914 " fill="#EEEEEE" style="stroke:#000000;stroke-width:1.5;"/><rect fill="none" height="50.582" style="stroke:#000000;stroke-width:1.5;" width="356" x="10" y="395.1914"/><text fill="#000000" font-family="sans-serif" font-size="13" font-weight="bold" lengthAdjust="spacing" textLength="16" x="25" y="410.2197">alt</text><text fill="#000000" font-family="sans-serif" font-size="11" font-weight="bold" lengthAdjust="spacing" textLength="275" x="86" y="409.0615">[bad request / floor not found / building not found]</text><ellipse cx="6.5" cy="437.0234" fill="none" rx="4" ry="4" style="stroke:#181818;stroke-width:1.5;"/><line style="stroke:#181818;stroke-width:1.0;" x1="13.5" x2="23.5" y1="437.7734" y2="433.7734"/><line style="stroke:#181818;stroke-width:1.0;" x1="13.5" x2="23.5" y1="437.7734" y2="441.7734"/><line style="stroke:#181818;stroke-width:1.0;stroke-dasharray:2.0,2.0;" x1="7" x2="149" y1="437.7734" y2="437.7734"/><text fill="#000000" font-family="sans-serif" font-size="13" font-weight="bold" lengthAdjust="spacing" textLength="7" x="24" y="432.5107">9</text><text fill="#000000" font-family="sans-serif" font-size="13" lengthAdjust="spacing" textLength="100" x="35" y="432.5107">400 Bad Request</text><!--SRC=[bP11JyCm38Nl_XLMxnKJuZHLdGYjXCG11Fm1D_6cQ6qI4XV1lyUi0mRY03VhvRtFpw5POfYdWJEKlG-9CasOoEvfnm_oEZ9cjW8WNdJkdHSat8unPW0rYxS-KH2iZ6RgFhWAgQ3fiMbid58C7AHjmP7GG8MnwexJmTUP7pxOnBfzZw_nxlBnwXg0hFXd4bOHG1_qMLDhB3ngCUGNNyI7tR7JfxipeBRw00F7f_elb67serFAl_E9Sz42VyjjOjFKzNBT-Mg5jpTwtgZRoUalFyrS1C-MGp14mMsSWrFbezsN-0rreIYZYFi5SRfLEx2wtm00]--></g></svg>