<?xml version="1.0" encoding="us-ascii" standalone="no"?><svg xmlns="http://www.w3.org/2000/svg" xmlns:xlink="http://www.w3.org/1999/xlink" contentStyleType="text/css" height="499px" preserveAspectRatio="none" style="width:320px;height:499px;background:#FFFFFF;" version="1.1" viewBox="0 0 320 499" width="320px" zoomAndPan="magnify"><defs/><g><text fill="#000000" font-family="sans-serif" font-size="14" font-weight="bold" lengthAdjust="spacing" textLength="138" x="92.5" y="30.1074">List lift of a building</text><rect fill="#FFFFFF" height="214.0371" style="stroke:#181818;stroke-width:1.0;" width="10" x="145" y="161.1543"/><rect fill="#FFFFFF" height="31.291" style="stroke:#181818;stroke-width:1.0;" width="10" x="268" y="192.4453"/><rect fill="#FFFFFF" height="31.291" style="stroke:#181818;stroke-width:1.0;" width="10" x="268" y="255.0273"/><rect fill="none" height="50.582" style="stroke:#000000;stroke-width:1.5;" width="235" x="10" y="332.6094"/><line style="stroke:#181818;stroke-width:0.5;stroke-dasharray:5.0,5.0;" x1="150" x2="150" y1="127.8633" y2="400.1914"/><line style="stroke:#181818;stroke-width:0.5;stroke-dasharray:5.0,5.0;" x1="273" x2="273" y1="127.8633" y2="400.1914"/><rect fill="#E2E2F0" height="51.2422" rx="2.5" ry="2.5" style="stroke:#181818;stroke-width:0.5;" width="100" x="100" y="75.6211"/><text fill="#000000" font-family="sans-serif" font-size="14" font-style="italic" lengthAdjust="spacing" textLength="86" x="107" y="97.7285">&#171;component&#187;</text><text fill="#000000" font-family="sans-serif" font-size="14" lengthAdjust="spacing" textLength="61" x="119.5" y="116.3496">Back-End</text><rect fill="#E2E2F0" height="51.2422" rx="2.5" ry="2.5" style="stroke:#181818;stroke-width:0.5;" width="100" x="100" y="399.1914"/><text fill="#000000" font-family="sans-serif" font-size="14" font-style="italic" lengthAdjust="spacing" textLength="86" x="107" y="421.2988">&#171;component&#187;</text><text fill="#000000" font-family="sans-serif" font-size="14" lengthAdjust="spacing" textLength="61" x="119.5" y="439.9199">Back-End</text><text fill="#000000" font-family="sans-serif" font-size="14" font-style="italic" lengthAdjust="spacing" textLength="86" x="227" y="105.7285">&#171;component&#187;</text><text fill="#000000" font-family="sans-serif" font-size="14" lengthAdjust="spacing" textLength="61" x="239.5" y="124.3496">Database</text><path d="M255,54.6211 C255,44.6211 273,44.6211 273,44.6211 C273,44.6211 291,44.6211 291,54.6211 L291,80.6211 C291,90.6211 273,90.6211 273,90.6211 C273,90.6211 255,90.6211 255,80.6211 L255,54.6211 " fill="#E2E2F0" style="stroke:#181818;stroke-width:1.5;"/><path d="M255,54.6211 C255,64.6211 273,64.6211 273,64.6211 C273,64.6211 291,64.6211 291,54.6211 " fill="none" style="stroke:#181818;stroke-width:1.5;"/><text fill="#000000" font-family="sans-serif" font-size="14" font-style="italic" lengthAdjust="spacing" textLength="86" x="227" y="414.2988">&#171;component&#187;</text><text fill="#000000" font-family="sans-serif" font-size="14" lengthAdjust="spacing" textLength="61" x="239.5" y="432.9199">Database</text><path d="M255,446.4336 C255,436.4336 273,436.4336 273,436.4336 C273,436.4336 291,436.4336 291,446.4336 L291,472.4336 C291,482.4336 273,482.4336 273,482.4336 C273,482.4336 255,482.4336 255,472.4336 L255,446.4336 " fill="#E2E2F0" style="stroke:#181818;stroke-width:1.5;"/><path d="M255,446.4336 C255,456.4336 273,456.4336 273,456.4336 C273,456.4336 291,456.4336 291,446.4336 " fill="none" style="stroke:#181818;stroke-width:1.5;"/><rect fill="#FFFFFF" height="214.0371" style="stroke:#181818;stroke-width:1.0;" width="10" x="145" y="161.1543"/><rect fill="#FFFFFF" height="31.291" style="stroke:#181818;stroke-width:1.0;" width="10" x="268" y="192.4453"/><rect fill="#FFFFFF" height="31.291" style="stroke:#181818;stroke-width:1.0;" width="10" x="268" y="255.0273"/><ellipse cx="85.5" cy="160.4043" fill="none" rx="4" ry="4" style="stroke:#181818;stroke-width:1.5;"/><line style="stroke:#181818;stroke-width:1.0;" x1="143" x2="133" y1="161.1543" y2="157.1543"/><line style="stroke:#181818;stroke-width:1.0;" x1="143" x2="133" y1="161.1543" y2="165.1543"/><line style="stroke:#181818;stroke-width:1.0;" x1="90" x2="144" y1="161.1543" y2="161.1543"/><text fill="#000000" font-family="sans-serif" font-size="13" font-weight="bold" lengthAdjust="spacing" textLength="7" x="93" y="155.8916">1</text><text fill="#000000" font-family="sans-serif" font-size="13" lengthAdjust="spacing" textLength="26" x="104" y="155.8916">GET</text><line style="stroke:#181818;stroke-width:1.0;" x1="266" x2="256" y1="192.4453" y2="188.4453"/><line style="stroke:#181818;stroke-width:1.0;" x1="266" x2="256" y1="192.4453" y2="196.4453"/><line style="stroke:#181818;stroke-width:1.0;" x1="155" x2="267" y1="192.4453" y2="192.4453"/><text fill="#000000" font-family="sans-serif" font-size="13" font-weight="bold" lengthAdjust="spacing" textLength="7" x="162" y="187.1826">2</text><text fill="#000000" font-family="sans-serif" font-size="13" lengthAdjust="spacing" textLength="83" x="173" y="187.1826">select building</text><line style="stroke:#181818;stroke-width:1.0;" x1="156" x2="166" y1="223.7363" y2="219.7363"/><line style="stroke:#181818;stroke-width:1.0;" x1="156" x2="166" y1="223.7363" y2="227.7363"/><line style="stroke:#181818;stroke-width:1.0;stroke-dasharray:2.0,2.0;" x1="155" x2="272" y1="223.7363" y2="223.7363"/><text fill="#000000" font-family="sans-serif" font-size="13" font-weight="bold" lengthAdjust="spacing" textLength="7" x="172" y="218.4736">3</text><text fill="#000000" font-family="sans-serif" font-size="13" lengthAdjust="spacing" textLength="4" x="183" y="218.4736">&#160;</text><line style="stroke:#181818;stroke-width:1.0;" x1="266" x2="256" y1="255.0273" y2="251.0273"/><line style="stroke:#181818;stroke-width:1.0;" x1="266" x2="256" y1="255.0273" y2="259.0273"/><line style="stroke:#181818;stroke-width:1.0;" x1="155" x2="267" y1="255.0273" y2="255.0273"/><text fill="#000000" font-family="sans-serif" font-size="13" font-weight="bold" lengthAdjust="spacing" textLength="7" x="162" y="249.7646">4</text><text fill="#000000" font-family="sans-serif" font-size="13" lengthAdjust="spacing" textLength="52" x="173" y="249.7646">select lift</text><line style="stroke:#181818;stroke-width:1.0;" x1="156" x2="166" y1="286.3184" y2="282.3184"/><line style="stroke:#181818;stroke-width:1.0;" x1="156" x2="166" y1="286.3184" y2="290.3184"/><line style="stroke:#181818;stroke-width:1.0;stroke-dasharray:2.0,2.0;" x1="155" x2="272" y1="286.3184" y2="286.3184"/><text fill="#000000" font-family="sans-serif" font-size="13" font-weight="bold" lengthAdjust="spacing" textLength="7" x="172" y="281.0557">5</text><text fill="#000000" font-family="sans-serif" font-size="13" lengthAdjust="spacing" textLength="4" x="183" y="281.0557">&#160;</text><ellipse cx="67.5" cy="316.8594" fill="none" rx="4" ry="4" style="stroke:#181818;stroke-width:1.5;"/><line style="stroke:#181818;stroke-width:1.0;" x1="74.5" x2="84.5" y1="317.6094" y2="313.6094"/><line style="stroke:#181818;stroke-width:1.0;" x1="74.5" x2="84.5" y1="317.6094" y2="321.6094"/><line style="stroke:#181818;stroke-width:1.0;" x1="68" x2="144" y1="317.6094" y2="317.6094"/><text fill="#000000" font-family="sans-serif" font-size="13" font-weight="bold" lengthAdjust="spacing" textLength="7" x="85" y="312.3467">6</text><text fill="#000000" font-family="sans-serif" font-size="13" lengthAdjust="spacing" textLength="44" x="96" y="312.3467">200 OK</text><path d="M10,332.6094 L71,332.6094 L71,341.9004 L61,351.9004 L10,351.9004 L10,332.6094 " fill="#EEEEEE" style="stroke:#000000;stroke-width:1.5;"/><rect fill="none" height="50.582" style="stroke:#000000;stroke-width:1.5;" width="235" x="10" y="332.6094"/><text fill="#000000" font-family="sans-serif" font-size="13" font-weight="bold" lengthAdjust="spacing" textLength="16" x="25" y="347.6377">alt</text><text fill="#000000" font-family="sans-serif" font-size="11" font-weight="bold" lengthAdjust="spacing" textLength="154" x="86" y="346.4795">[bad request / lift not found]</text><ellipse cx="6.5" cy="374.4414" fill="none" rx="4" ry="4" style="stroke:#181818;stroke-width:1.5;"/><line style="stroke:#181818;stroke-width:1.0;" x1="13.5" x2="23.5" y1="375.1914" y2="371.1914"/><line style="stroke:#181818;stroke-width:1.0;" x1="13.5" x2="23.5" y1="375.1914" y2="379.1914"/><line style="stroke:#181818;stroke-width:1.0;" x1="7" x2="149" y1="375.1914" y2="375.1914"/><text fill="#000000" font-family="sans-serif" font-size="13" font-weight="bold" lengthAdjust="spacing" textLength="7" x="24" y="369.9287">7</text><text fill="#000000" font-family="sans-serif" font-size="13" lengthAdjust="spacing" textLength="100" x="35" y="369.9287">400 Bad Request</text><!--SRC=[ZP31IiH038RlUOhGUt4HJqlfmj2o1mL1VO5q9bs6dSxKJaRmxKsjQ14FtaBoVPb_GaLIBDF02-IhZpCjDE5CzaeNVfRtmBYm5G3nelM3puB1Zu9fHCAX-E1yl02e9zxwcQ9WPLIl- -Wgf8ocnwQnQPfJv2Xj2uw41igCLVTLVNAT-SN1ATLjk_f7FFSl06J5lv6mjW2qlKxLEcBce1b_qdo3dG45wcqDEDuF_jgm_koVzYarJRs5kpqSyF5UymNDG4uFzbfOxtIpNIecmJ6LwFREdJf6sQUDtM_NjrZX3m00]--></g></svg>