<?xml version="1.0" encoding="us-ascii" standalone="no"?><svg xmlns="http://www.w3.org/2000/svg" xmlns:xlink="http://www.w3.org/1999/xlink" contentStyleType="text/css" height="624px" preserveAspectRatio="none" style="width:513px;height:624px;background:#FFFFFF;" version="1.1" viewBox="0 0 513 624" width="513px" zoomAndPan="magnify"><defs/><g><text fill="#000000" font-family="sans-serif" font-size="14" font-weight="bold" lengthAdjust="spacing" textLength="128" x="194" y="30.1074">Edit a passageway</text><rect fill="#FFFFFF" height="339.2012" style="stroke:#181818;stroke-width:1.0;" width="10" x="152" y="161.1543"/><rect fill="#FFFFFF" height="31.291" style="stroke:#181818;stroke-width:1.0;" width="10" x="352" y="192.4453"/><rect fill="#FFFFFF" height="31.291" style="stroke:#181818;stroke-width:1.0;" width="10" x="352" y="255.0273"/><rect fill="#FFFFFF" height="31.291" style="stroke:#181818;stroke-width:1.0;" width="10" x="352" y="317.6094"/><rect fill="#FFFFFF" height="31.291" style="stroke:#181818;stroke-width:1.0;" width="10" x="352" y="380.1914"/><rect fill="none" height="50.582" style="stroke:#000000;stroke-width:1.5;" width="497" x="10" y="457.7734"/><line style="stroke:#181818;stroke-width:0.5;stroke-dasharray:5.0,5.0;" x1="157" x2="157" y1="127.8633" y2="525.3555"/><line style="stroke:#181818;stroke-width:0.5;stroke-dasharray:5.0,5.0;" x1="357" x2="357" y1="127.8633" y2="525.3555"/><rect fill="#E2E2F0" height="51.2422" rx="2.5" ry="2.5" style="stroke:#181818;stroke-width:0.5;" width="100" x="107" y="75.6211"/><text fill="#000000" font-family="sans-serif" font-size="14" font-style="italic" lengthAdjust="spacing" textLength="86" x="114" y="97.7285">&#171;component&#187;</text><text fill="#000000" font-family="sans-serif" font-size="14" lengthAdjust="spacing" textLength="61" x="126.5" y="116.3496">Back-End</text><rect fill="#E2E2F0" height="51.2422" rx="2.5" ry="2.5" style="stroke:#181818;stroke-width:0.5;" width="100" x="107" y="524.3555"/><text fill="#000000" font-family="sans-serif" font-size="14" font-style="italic" lengthAdjust="spacing" textLength="86" x="114" y="546.4629">&#171;component&#187;</text><text fill="#000000" font-family="sans-serif" font-size="14" lengthAdjust="spacing" textLength="61" x="126.5" y="565.084">Back-End</text><text fill="#000000" font-family="sans-serif" font-size="14" font-style="italic" lengthAdjust="spacing" textLength="86" x="311" y="105.7285">&#171;component&#187;</text><text fill="#000000" font-family="sans-serif" font-size="14" lengthAdjust="spacing" textLength="61" x="323.5" y="124.3496">Database</text><path d="M339,54.6211 C339,44.6211 357,44.6211 357,44.6211 C357,44.6211 375,44.6211 375,54.6211 L375,80.6211 C375,90.6211 357,90.6211 357,90.6211 C357,90.6211 339,90.6211 339,80.6211 L339,54.6211 " fill="#E2E2F0" style="stroke:#181818;stroke-width:1.5;"/><path d="M339,54.6211 C339,64.6211 357,64.6211 357,64.6211 C357,64.6211 375,64.6211 375,54.6211 " fill="none" style="stroke:#181818;stroke-width:1.5;"/><text fill="#000000" font-family="sans-serif" font-size="14" font-style="italic" lengthAdjust="spacing" textLength="86" x="311" y="539.4629">&#171;component&#187;</text><text fill="#000000" font-family="sans-serif" font-size="14" lengthAdjust="spacing" textLength="61" x="323.5" y="558.084">Database</text><path d="M339,571.5977 C339,561.5977 357,561.5977 357,561.5977 C357,561.5977 375,561.5977 375,571.5977 L375,597.5977 C375,607.5977 357,607.5977 357,607.5977 C357,607.5977 339,607.5977 339,597.5977 L339,571.5977 " fill="#E2E2F0" style="stroke:#181818;stroke-width:1.5;"/><path d="M339,571.5977 C339,581.5977 357,581.5977 357,581.5977 C357,581.5977 375,581.5977 375,571.5977 " fill="none" style="stroke:#181818;stroke-width:1.5;"/><rect fill="#FFFFFF" height="339.2012" style="stroke:#181818;stroke-width:1.0;" width="10" x="152" y="161.1543"/><rect fill="#FFFFFF" height="31.291" style="stroke:#181818;stroke-width:1.0;" width="10" x="352" y="192.4453"/><rect fill="#FFFFFF" height="31.291" style="stroke:#181818;stroke-width:1.0;" width="10" x="352" y="255.0273"/><rect fill="#FFFFFF" height="31.291" style="stroke:#181818;stroke-width:1.0;" width="10" x="352" y="317.6094"/><rect fill="#FFFFFF" height="31.291" style="stroke:#181818;stroke-width:1.0;" width="10" x="352" y="380.1914"/><ellipse cx="75.5" cy="160.4043" fill="none" rx="4" ry="4" style="stroke:#181818;stroke-width:1.5;"/><line style="stroke:#181818;stroke-width:1.0;" x1="150" x2="140" y1="161.1543" y2="157.1543"/><line style="stroke:#181818;stroke-width:1.0;" x1="150" x2="140" y1="161.1543" y2="165.1543"/><line style="stroke:#181818;stroke-width:1.0;" x1="80" x2="151" y1="161.1543" y2="161.1543"/><text fill="#000000" font-family="sans-serif" font-size="13" font-weight="bold" lengthAdjust="spacing" textLength="7" x="83" y="155.8916">1</text><text fill="#000000" font-family="sans-serif" font-size="13" lengthAdjust="spacing" textLength="43" x="94" y="155.8916">PATCH</text><line style="stroke:#181818;stroke-width:1.0;" x1="350" x2="340" y1="192.4453" y2="188.4453"/><line style="stroke:#181818;stroke-width:1.0;" x1="350" x2="340" y1="192.4453" y2="196.4453"/><line style="stroke:#181818;stroke-width:1.0;" x1="162" x2="351" y1="192.4453" y2="192.4453"/><text fill="#000000" font-family="sans-serif" font-size="13" font-weight="bold" lengthAdjust="spacing" textLength="7" x="169" y="187.1826">2</text><text fill="#000000" font-family="sans-serif" font-size="13" lengthAdjust="spacing" textLength="160" x="180" y="187.1826">select existing passageway</text><line style="stroke:#181818;stroke-width:1.0;" x1="163" x2="173" y1="223.7363" y2="219.7363"/><line style="stroke:#181818;stroke-width:1.0;" x1="163" x2="173" y1="223.7363" y2="227.7363"/><line style="stroke:#181818;stroke-width:1.0;stroke-dasharray:2.0,2.0;" x1="162" x2="356" y1="223.7363" y2="223.7363"/><text fill="#000000" font-family="sans-serif" font-size="13" font-weight="bold" lengthAdjust="spacing" textLength="7" x="179" y="218.4736">3</text><text fill="#000000" font-family="sans-serif" font-size="13" lengthAdjust="spacing" textLength="4" x="190" y="218.4736">&#160;</text><line style="stroke:#181818;stroke-width:1.0;" x1="350" x2="340" y1="255.0273" y2="251.0273"/><line style="stroke:#181818;stroke-width:1.0;" x1="350" x2="340" y1="255.0273" y2="259.0273"/><line style="stroke:#181818;stroke-width:1.0;" x1="162" x2="351" y1="255.0273" y2="255.0273"/><text fill="#000000" font-family="sans-serif" font-size="13" font-weight="bold" lengthAdjust="spacing" textLength="7" x="169" y="249.7646">4</text><text fill="#000000" font-family="sans-serif" font-size="13" lengthAdjust="spacing" textLength="83" x="180" y="249.7646">select building</text><line style="stroke:#181818;stroke-width:1.0;" x1="163" x2="173" y1="286.3184" y2="282.3184"/><line style="stroke:#181818;stroke-width:1.0;" x1="163" x2="173" y1="286.3184" y2="290.3184"/><line style="stroke:#181818;stroke-width:1.0;stroke-dasharray:2.0,2.0;" x1="162" x2="356" y1="286.3184" y2="286.3184"/><text fill="#000000" font-family="sans-serif" font-size="13" font-weight="bold" lengthAdjust="spacing" textLength="7" x="179" y="281.0557">5</text><text fill="#000000" font-family="sans-serif" font-size="13" lengthAdjust="spacing" textLength="4" x="190" y="281.0557">&#160;</text><line style="stroke:#181818;stroke-width:1.0;" x1="350" x2="340" y1="317.6094" y2="313.6094"/><line style="stroke:#181818;stroke-width:1.0;" x1="350" x2="340" y1="317.6094" y2="321.6094"/><line style="stroke:#181818;stroke-width:1.0;" x1="162" x2="351" y1="317.6094" y2="317.6094"/><text fill="#000000" font-family="sans-serif" font-size="13" font-weight="bold" lengthAdjust="spacing" textLength="7" x="169" y="312.3467">6</text><text fill="#000000" font-family="sans-serif" font-size="13" lengthAdjust="spacing" textLength="70" x="180" y="312.3467">select floors</text><line style="stroke:#181818;stroke-width:1.0;" x1="163" x2="173" y1="348.9004" y2="344.9004"/><line style="stroke:#181818;stroke-width:1.0;" x1="163" x2="173" y1="348.9004" y2="352.9004"/><line style="stroke:#181818;stroke-width:1.0;stroke-dasharray:2.0,2.0;" x1="162" x2="356" y1="348.9004" y2="348.9004"/><text fill="#000000" font-family="sans-serif" font-size="13" font-weight="bold" lengthAdjust="spacing" textLength="7" x="179" y="343.6377">7</text><text fill="#000000" font-family="sans-serif" font-size="13" lengthAdjust="spacing" textLength="4" x="190" y="343.6377">&#160;</text><line style="stroke:#181818;stroke-width:1.0;" x1="350" x2="340" y1="380.1914" y2="376.1914"/><line style="stroke:#181818;stroke-width:1.0;" x1="350" x2="340" y1="380.1914" y2="384.1914"/><line style="stroke:#181818;stroke-width:1.0;" x1="162" x2="351" y1="380.1914" y2="380.1914"/><text fill="#000000" font-family="sans-serif" font-size="13" font-weight="bold" lengthAdjust="spacing" textLength="7" x="169" y="374.9287">8</text><text fill="#000000" font-family="sans-serif" font-size="13" lengthAdjust="spacing" textLength="39" x="180" y="374.9287">persist</text><line style="stroke:#181818;stroke-width:1.0;" x1="163" x2="173" y1="411.4824" y2="407.4824"/><line style="stroke:#181818;stroke-width:1.0;" x1="163" x2="173" y1="411.4824" y2="415.4824"/><line style="stroke:#181818;stroke-width:1.0;stroke-dasharray:2.0,2.0;" x1="162" x2="356" y1="411.4824" y2="411.4824"/><text fill="#000000" font-family="sans-serif" font-size="13" font-weight="bold" lengthAdjust="spacing" textLength="7" x="179" y="406.2197">9</text><text fill="#000000" font-family="sans-serif" font-size="13" lengthAdjust="spacing" textLength="4" x="190" y="406.2197">&#160;</text><ellipse cx="67.5" cy="442.0234" fill="none" rx="4" ry="4" style="stroke:#181818;stroke-width:1.5;"/><line style="stroke:#181818;stroke-width:1.0;" x1="74.5" x2="84.5" y1="442.7734" y2="438.7734"/><line style="stroke:#181818;stroke-width:1.0;" x1="74.5" x2="84.5" y1="442.7734" y2="446.7734"/><line style="stroke:#181818;stroke-width:1.0;" x1="68" x2="151" y1="442.7734" y2="442.7734"/><text fill="#000000" font-family="sans-serif" font-size="13" font-weight="bold" lengthAdjust="spacing" textLength="14" x="85" y="437.5107">10</text><text fill="#000000" font-family="sans-serif" font-size="13" lengthAdjust="spacing" textLength="44" x="103" y="437.5107">200 OK</text><path d="M10,457.7734 L71,457.7734 L71,467.0645 L61,477.0645 L10,477.0645 L10,457.7734 " fill="#EEEEEE" style="stroke:#000000;stroke-width:1.5;"/><rect fill="none" height="50.582" style="stroke:#000000;stroke-width:1.5;" width="497" x="10" y="457.7734"/><text fill="#000000" font-family="sans-serif" font-size="13" font-weight="bold" lengthAdjust="spacing" textLength="16" x="25" y="472.8018">alt</text><text fill="#000000" font-family="sans-serif" font-size="11" font-weight="bold" lengthAdjust="spacing" textLength="416" x="86" y="471.6436">[bad request / passageway not found / building not found / floors not found]</text><ellipse cx="6.5" cy="499.6055" fill="none" rx="4" ry="4" style="stroke:#181818;stroke-width:1.5;"/><line style="stroke:#181818;stroke-width:1.0;" x1="13.5" x2="23.5" y1="500.3555" y2="496.3555"/><line style="stroke:#181818;stroke-width:1.0;" x1="13.5" x2="23.5" y1="500.3555" y2="504.3555"/><line style="stroke:#181818;stroke-width:1.0;" x1="7" x2="156" y1="500.3555" y2="500.3555"/><text fill="#000000" font-family="sans-serif" font-size="13" font-weight="bold" lengthAdjust="spacing" textLength="14" x="24" y="495.0928">11</text><text fill="#000000" font-family="sans-serif" font-size="13" lengthAdjust="spacing" textLength="100" x="42" y="495.0928">400 Bad Request</text><!--SRC=[dL7DJiCm3BxxAQpUAoQqqrHrehGI4WSGy09kOwPeQL8I1zZRur5-2kA0ThE-ltnsA4lmUUmvGjfRFr6a4ISQzhJZUpauniY308WLdJjZ1Kdvb9H_eGE0EiGETY8lM3HgB3jl2gI4JOTLDOHn2fwzr3KO4kefCHRjn_IkQvjVEjY6igwF_WtUNZnSNW7G8FQPX1K4KEB8gs-3YPtsGtwrIQpVBQjzUTe6L5lEcM1uIVmLrcVhZ8QTdl3eGeZf1F_4CUac_tHkGrMLyvtELokykTP3EUrFHd_jANCIF5jS17tGQY5xe_3daZ_0kVStj7nXhIyqcdmt9o-xQ3DMyHi0]--></g></svg>