<?xml version="1.0" encoding="us-ascii" standalone="no"?><svg xmlns="http://www.w3.org/2000/svg" xmlns:xlink="http://www.w3.org/1999/xlink" contentStyleType="text/css" height="732px" preserveAspectRatio="none" style="width:569px;height:732px;background:#FFFFFF;" version="1.1" viewBox="0 0 569 732" width="569px" zoomAndPan="magnify"><defs/><g><!--cluster RobDroneGO--><g id="cluster_RobDroneGO"><path d="M8.5,6.0137 L102.5,6.0137 A3.75,3.75 0 0 1 105,8.5137 L112,30.6348 L559.5,30.6348 A2.5,2.5 0 0 1 562,33.1348 L562,722.5137 A2.5,2.5 0 0 1 559.5,725.0137 L8.5,725.0137 A2.5,2.5 0 0 1 6,722.5137 L6,8.5137 A2.5,2.5 0 0 1 8.5,6.0137 " fill="none" style="stroke:#000000;stroke-width:1.5;"/><line style="stroke:#000000;stroke-width:1.5;" x1="6" x2="112" y1="30.6348" y2="30.6348"/><text fill="#000000" font-family="sans-serif" font-size="14" font-weight="bold" lengthAdjust="spacing" textLength="93" x="10" y="23.1211">RobDroneGO</text></g><!--cluster infra--><g id="cluster_infra"><path d="M166.5,51.0137 L264.5,51.0137 A3.75,3.75 0 0 1 267,53.5137 L274,75.6348 L408.5,75.6348 A2.5,2.5 0 0 1 411,78.1348 L411,158.5137 A2.5,2.5 0 0 1 408.5,161.0137 L166.5,161.0137 A2.5,2.5 0 0 1 164,158.5137 L164,53.5137 A2.5,2.5 0 0 1 166.5,51.0137 " fill="none" style="stroke:#000000;stroke-width:1.5;"/><line style="stroke:#000000;stroke-width:1.5;" x1="164" x2="274" y1="75.6348" y2="75.6348"/><text fill="#000000" font-family="sans-serif" font-size="14" font-weight="bold" lengthAdjust="spacing" textLength="97" x="168" y="68.1211">Infrastructure</text></g><!--cluster adapters--><g id="cluster_adapters"><path d="M42.5,185.0137 L173.5,185.0137 A3.75,3.75 0 0 1 176,187.5137 L183,209.6348 L499.5,209.6348 A2.5,2.5 0 0 1 502,212.1348 L502,361.5137 A2.5,2.5 0 0 1 499.5,364.0137 L42.5,364.0137 A2.5,2.5 0 0 1 40,361.5137 L40,187.5137 A2.5,2.5 0 0 1 42.5,185.0137 " fill="none" style="stroke:#000000;stroke-width:1.5;"/><line style="stroke:#000000;stroke-width:1.5;" x1="40" x2="183" y1="209.6348" y2="209.6348"/><text fill="#000000" font-family="sans-serif" font-size="14" font-weight="bold" lengthAdjust="spacing" textLength="130" x="44" y="202.1211">Interface Adapters</text></g><!--cluster ctrl--><g id="cluster_ctrl"><path d="M66.5,230.0137 L146.5,230.0137 A3.75,3.75 0 0 1 149,232.5137 L156,254.6348 L354.5,254.6348 A2.5,2.5 0 0 1 357,257.1348 L357,337.5137 A2.5,2.5 0 0 1 354.5,340.0137 L66.5,340.0137 A2.5,2.5 0 0 1 64,337.5137 L64,232.5137 A2.5,2.5 0 0 1 66.5,230.0137 " fill="none" style="stroke:#000000;stroke-width:1.5;"/><line style="stroke:#000000;stroke-width:1.5;" x1="64" x2="156" y1="254.6348" y2="254.6348"/><text fill="#000000" font-family="sans-serif" font-size="14" font-weight="bold" lengthAdjust="spacing" textLength="79" x="68" y="247.1211">Controllers</text></g><!--cluster services--><g id="cluster_services"><path d="M32.5,388.0137 L321.5,388.0137 A3.75,3.75 0 0 1 324,390.5137 L331,412.6348 L535.5,412.6348 A2.5,2.5 0 0 1 538,415.1348 L538,564.5137 A2.5,2.5 0 0 1 535.5,567.0137 L32.5,567.0137 A2.5,2.5 0 0 1 30,564.5137 L30,390.5137 A2.5,2.5 0 0 1 32.5,388.0137 " fill="none" style="stroke:#000000;stroke-width:1.5;"/><line style="stroke:#000000;stroke-width:1.5;" x1="30" x2="331" y1="412.6348" y2="412.6348"/><text fill="#000000" font-family="sans-serif" font-size="14" font-weight="bold" lengthAdjust="spacing" textLength="288" x="34" y="405.1211">Application Services / Use Case Services</text></g><!--cluster appServ--><g id="cluster_appServ"><path d="M56.5,433.0137 L150.5,433.0137 A3.75,3.75 0 0 1 153,435.5137 L160,457.6348 L511.5,457.6348 A2.5,2.5 0 0 1 514,460.1348 L514,540.5137 A2.5,2.5 0 0 1 511.5,543.0137 L56.5,543.0137 A2.5,2.5 0 0 1 54,540.5137 L54,435.5137 A2.5,2.5 0 0 1 56.5,433.0137 " fill="none" style="stroke:#000000;stroke-width:1.5;"/><line style="stroke:#000000;stroke-width:1.5;" x1="54" x2="160" y1="457.6348" y2="457.6348"/><text fill="#000000" font-family="sans-serif" font-size="14" font-weight="bold" lengthAdjust="spacing" textLength="93" x="58" y="450.1211">App Services</text></g><!--cluster domain--><g id="cluster_domain"><path d="M42.5,591.0137 L95.5,591.0137 A3.75,3.75 0 0 1 98,593.5137 L105,615.6348 L493.5,615.6348 A2.5,2.5 0 0 1 496,618.1348 L496,698.5137 A2.5,2.5 0 0 1 493.5,701.0137 L42.5,701.0137 A2.5,2.5 0 0 1 40,698.5137 L40,593.5137 A2.5,2.5 0 0 1 42.5,591.0137 " fill="none" style="stroke:#000000;stroke-width:1.5;"/><line style="stroke:#000000;stroke-width:1.5;" x1="40" x2="105" y1="615.6348" y2="615.6348"/><text fill="#000000" font-family="sans-serif" font-size="14" font-weight="bold" lengthAdjust="spacing" textLength="52" x="44" y="608.1211">Domain</text></g><!--entity routes--><g id="elem_routes"><path d="M183,88.0137 L224,88.0137 A3.75,3.75 0 0 1 226.5,90.5137 L233.5,109.0137 L253,109.0137 A2.5,2.5 0 0 1 255.5,111.5137 L255.5,142.1348 A2.5,2.5 0 0 1 253,144.6348 L183,144.6348 A2.5,2.5 0 0 1 180.5,142.1348 L180.5,90.5137 A2.5,2.5 0 0 1 183,88.0137 " fill="#F1F1F1" style="stroke:#181818;stroke-width:0.5;"/><line style="stroke:#181818;stroke-width:0.5;" x1="180.5" x2="233.5" y1="109.0137" y2="109.0137"/><text fill="#000000" font-family="sans-serif" font-size="14" lengthAdjust="spacing" textLength="45" x="190.5" y="131.1211">Routes</text></g><!--entity persistence--><g id="elem_persistence"><path d="M293.5,88.0137 L334.5,88.0137 A3.75,3.75 0 0 1 337,90.5137 L344,109.0137 L392.5,109.0137 A2.5,2.5 0 0 1 395,111.5137 L395,142.1348 A2.5,2.5 0 0 1 392.5,144.6348 L293.5,144.6348 A2.5,2.5 0 0 1 291,142.1348 L291,90.5137 A2.5,2.5 0 0 1 293.5,88.0137 " fill="#F1F1F1" style="stroke:#181818;stroke-width:0.5;"/><line style="stroke:#181818;stroke-width:0.5;" x1="291" x2="344" y1="109.0137" y2="109.0137"/><text fill="#000000" font-family="sans-serif" font-size="14" lengthAdjust="spacing" textLength="74" x="301" y="131.1211">Persistence</text></g><!--entity implCtrl--><g id="elem_implCtrl"><path d="M219.5,267.0137 L260.5,267.0137 A3.75,3.75 0 0 1 263,269.5137 L270,288.0137 L338.5,288.0137 A2.5,2.5 0 0 1 341,290.5137 L341,321.1348 A2.5,2.5 0 0 1 338.5,323.6348 L219.5,323.6348 A2.5,2.5 0 0 1 217,321.1348 L217,269.5137 A2.5,2.5 0 0 1 219.5,267.0137 " fill="#F1F1F1" style="stroke:#181818;stroke-width:0.5;"/><line style="stroke:#181818;stroke-width:0.5;" x1="217" x2="270" y1="288.0137" y2="288.0137"/><text fill="#000000" font-family="sans-serif" font-size="14" lengthAdjust="spacing" textLength="94" x="227" y="310.1211">ImplControllers</text></g><!--entity iCtrl--><g id="elem_iCtrl"><path d="M82.5,267.0137 L123.5,267.0137 A3.75,3.75 0 0 1 126,269.5137 L133,288.0137 L179.5,288.0137 A2.5,2.5 0 0 1 182,290.5137 L182,321.1348 A2.5,2.5 0 0 1 179.5,323.6348 L82.5,323.6348 A2.5,2.5 0 0 1 80,321.1348 L80,269.5137 A2.5,2.5 0 0 1 82.5,267.0137 " fill="#F1F1F1" style="stroke:#181818;stroke-width:0.5;"/><line style="stroke:#181818;stroke-width:0.5;" x1="80" x2="133" y1="288.0137" y2="288.0137"/><text fill="#000000" font-family="sans-serif" font-size="14" lengthAdjust="spacing" textLength="72" x="90" y="310.1211">IControllers</text></g><!--entity repos--><g id="elem_repos"><path d="M379,267.0137 L420,267.0137 A3.75,3.75 0 0 1 422.5,269.5137 L429.5,288.0137 L483,288.0137 A2.5,2.5 0 0 1 485.5,290.5137 L485.5,321.1348 A2.5,2.5 0 0 1 483,323.6348 L379,323.6348 A2.5,2.5 0 0 1 376.5,321.1348 L376.5,269.5137 A2.5,2.5 0 0 1 379,267.0137 " fill="#F1F1F1" style="stroke:#181818;stroke-width:0.5;"/><line style="stroke:#181818;stroke-width:0.5;" x1="376.5" x2="429.5" y1="288.0137" y2="288.0137"/><text fill="#000000" font-family="sans-serif" font-size="14" lengthAdjust="spacing" textLength="79" x="386.5" y="310.1211">Repositories</text></g><!--entity iAppServ--><g id="elem_iAppServ"><path d="M72.5,470.0137 L113.5,470.0137 A3.75,3.75 0 0 1 116,472.5137 L123,491.0137 L179.5,491.0137 A2.5,2.5 0 0 1 182,493.5137 L182,524.1348 A2.5,2.5 0 0 1 179.5,526.6348 L72.5,526.6348 A2.5,2.5 0 0 1 70,524.1348 L70,472.5137 A2.5,2.5 0 0 1 72.5,470.0137 " fill="#F1F1F1" style="stroke:#181818;stroke-width:0.5;"/><line style="stroke:#181818;stroke-width:0.5;" x1="70" x2="123" y1="491.0137" y2="491.0137"/><text fill="#000000" font-family="sans-serif" font-size="14" lengthAdjust="spacing" textLength="82" x="80" y="513.1211">IAppServices</text></g><!--entity implAppServ--><g id="elem_implAppServ"><path d="M219.5,470.0137 L260.5,470.0137 A3.75,3.75 0 0 1 263,472.5137 L270,491.0137 L348.5,491.0137 A2.5,2.5 0 0 1 351,493.5137 L351,524.1348 A2.5,2.5 0 0 1 348.5,526.6348 L219.5,526.6348 A2.5,2.5 0 0 1 217,524.1348 L217,472.5137 A2.5,2.5 0 0 1 219.5,470.0137 " fill="#F1F1F1" style="stroke:#181818;stroke-width:0.5;"/><line style="stroke:#181818;stroke-width:0.5;" x1="217" x2="270" y1="491.0137" y2="491.0137"/><text fill="#000000" font-family="sans-serif" font-size="14" lengthAdjust="spacing" textLength="104" x="227" y="513.1211">ImplAppServices</text></g><!--entity iRepos--><g id="elem_iRepos"><path d="M388.5,470.0137 L429.5,470.0137 A3.75,3.75 0 0 1 432,472.5137 L439,491.0137 L495.5,491.0137 A2.5,2.5 0 0 1 498,493.5137 L498,524.1348 A2.5,2.5 0 0 1 495.5,526.6348 L388.5,526.6348 A2.5,2.5 0 0 1 386,524.1348 L386,472.5137 A2.5,2.5 0 0 1 388.5,470.0137 " fill="#F1F1F1" style="stroke:#181818;stroke-width:0.5;"/><line style="stroke:#181818;stroke-width:0.5;" x1="386" x2="439" y1="491.0137" y2="491.0137"/><text fill="#000000" font-family="sans-serif" font-size="14" lengthAdjust="spacing" textLength="82" x="396" y="513.1211">IRepositories</text></g><!--entity aggregates--><g id="elem_aggregates"><path d="M379,628.0137 L420,628.0137 A3.75,3.75 0 0 1 422.5,630.5137 L429.5,649.0137 L477,649.0137 A2.5,2.5 0 0 1 479.5,651.5137 L479.5,682.1348 A2.5,2.5 0 0 1 477,684.6348 L379,684.6348 A2.5,2.5 0 0 1 376.5,682.1348 L376.5,630.5137 A2.5,2.5 0 0 1 379,628.0137 " fill="#F1F1F1" style="stroke:#181818;stroke-width:0.5;"/><line style="stroke:#181818;stroke-width:0.5;" x1="376.5" x2="429.5" y1="649.0137" y2="649.0137"/><text fill="#000000" font-family="sans-serif" font-size="14" lengthAdjust="spacing" textLength="73" x="386.5" y="671.1211">Aggregates</text></g><!--entity vo--><g id="elem_vo"><path d="M229.5,628.0137 L270.5,628.0137 A3.75,3.75 0 0 1 273,630.5137 L280,649.0137 L338.5,649.0137 A2.5,2.5 0 0 1 341,651.5137 L341,682.1348 A2.5,2.5 0 0 1 338.5,684.6348 L229.5,684.6348 A2.5,2.5 0 0 1 227,682.1348 L227,630.5137 A2.5,2.5 0 0 1 229.5,628.0137 " fill="#F1F1F1" style="stroke:#181818;stroke-width:0.5;"/><line style="stroke:#181818;stroke-width:0.5;" x1="227" x2="280" y1="649.0137" y2="649.0137"/><text fill="#000000" font-family="sans-serif" font-size="14" lengthAdjust="spacing" textLength="84" x="237" y="671.1211">ValueObjects</text></g><!--entity domainServ--><g id="elem_domainServ"><path d="M58.5,628.0137 L99.5,628.0137 A3.75,3.75 0 0 1 102,630.5137 L109,649.0137 L189.5,649.0137 A2.5,2.5 0 0 1 192,651.5137 L192,682.1348 A2.5,2.5 0 0 1 189.5,684.6348 L58.5,684.6348 A2.5,2.5 0 0 1 56,682.1348 L56,630.5137 A2.5,2.5 0 0 1 58.5,628.0137 " fill="#F1F1F1" style="stroke:#181818;stroke-width:0.5;"/><line style="stroke:#181818;stroke-width:0.5;" x1="56" x2="109" y1="649.0137" y2="649.0137"/><text fill="#000000" font-family="sans-serif" font-size="14" lengthAdjust="spacing" textLength="106" x="66" y="671.1211">Domain Services</text></g><!--link routes to iCtrl--><g id="link_routes_iCtrl"><path codeLine="60" d="M204.41,145.1737 C188.11,178.3237 163.6069,249.1791 147.2869,282.3791 " fill="none" id="routes-to-iCtrl" style="stroke:#181818;stroke-width:1.0;stroke-dasharray:7.0,7.0;"/><polygon fill="#181818" points="144.64,287.7637,152.2001,281.4514,146.8457,283.2765,145.0206,277.9222,144.64,287.7637" style="stroke:#181818;stroke-width:1.0;"/></g><!--reverse link iAppServ to implAppServ--><g id="link_iAppServ_implAppServ"><path codeLine="62" d="M200.16,498.5137 C211.7,498.5137 205.24,498.5137 216.77,498.5137 " fill="none" id="iAppServ-backto-implAppServ" style="stroke:#181818;stroke-width:1.0;stroke-dasharray:7.0,7.0;"/><polygon fill="none" points="182.16,498.5137,200.16,504.5137,200.16,492.5137,182.16,498.5137" style="stroke:#181818;stroke-width:1.0;"/></g><!--link implAppServ to iRepos--><g id="link_implAppServ_iRepos"><path codeLine="63" d="M351.27,498.5137 C362.73,498.5137 368.19,498.5137 379.65,498.5137 " fill="none" id="implAppServ-to-iRepos" style="stroke:#181818;stroke-width:1.0;stroke-dasharray:7.0,7.0;"/><polygon fill="#181818" points="385.65,498.5137,376.65,494.5137,380.65,498.5137,376.65,502.5137,385.65,498.5137" style="stroke:#181818;stroke-width:1.0;"/></g><!--link implAppServ to aggregates--><g id="link_implAppServ_aggregates"><path codeLine="65" d="M309.41,527.0437 C335.65,555.4737 372.2898,595.1653 398.5298,623.5853 " fill="none" id="implAppServ-to-aggregates" style="stroke:#181818;stroke-width:1.0;stroke-dasharray:7.0,7.0;"/><polygon fill="#181818" points="402.6,627.9937,399.4336,618.6677,399.2082,624.3201,393.5558,624.0946,402.6,627.9937" style="stroke:#181818;stroke-width:1.0;"/></g><!--link implAppServ to vo--><g id="link_implAppServ_vo"><path codeLine="66" d="M284,527.0437 C284,555.4737 284,614.5737 284,642.9937 " fill="none" id="implAppServ-to-vo" style="stroke:#181818;stroke-width:1.0;stroke-dasharray:7.0,7.0;"/><polygon fill="#181818" points="284,648.9937,288,639.9937,284,643.9937,280,639.9937,284,648.9937" style="stroke:#181818;stroke-width:1.0;"/></g><!--link implAppServ to domainServ--><g id="link_implAppServ_domainServ"><path codeLine="67" d="M255.76,527.0437 C226.61,555.4737 185.6661,616.3852 156.5161,644.8052 " fill="none" id="implAppServ-to-domainServ" style="stroke:#181818;stroke-width:1.0;stroke-dasharray:7.0,7.0;"/><polygon fill="#181818" points="152.22,648.9937,161.4565,645.575,155.8001,645.5032,155.8718,639.8469,152.22,648.9937" style="stroke:#181818;stroke-width:1.0;"/></g><!--reverse link persistence to repos--><g id="link_persistence_repos"><path codeLine="69" d="M359.421,150.5464 C375.901,183.6964 400.7,254.5637 417.2,287.7637 " fill="none" id="persistence-backto-repos" style="stroke:#181818;stroke-width:1.0;stroke-dasharray:7.0,7.0;"/><polygon fill="#181818" points="356.75,145.1737,357.1746,155.0134,358.9758,149.6509,364.3382,151.4521,356.75,145.1737" style="stroke:#181818;stroke-width:1.0;"/></g><!--link repos to iRepos--><g id="link_repos_iRepos"><path codeLine="70" d="M432.51,324.0437 C434.61,362.4237 437.4063,434.6506 439.5063,473.0206 " fill="none" id="repos-to-iRepos" style="stroke:#181818;stroke-width:1.0;stroke-dasharray:7.0,7.0;"/><polygon fill="none" points="440.49,490.9937,445.4974,472.6927,433.5153,473.3485,440.49,490.9937" style="stroke:#181818;stroke-width:1.0;"/></g><!--reverse link iCtrl to implCtrl--><g id="link_iCtrl_implCtrl"><path codeLine="72" d="M200.16,295.5137 C211.76,295.5137 205.36,295.5137 216.96,295.5137 " fill="none" id="iCtrl-backto-implCtrl" style="stroke:#181818;stroke-width:1.0;stroke-dasharray:7.0,7.0;"/><polygon fill="none" points="182.16,295.5137,200.16,301.5137,200.16,289.5137,182.16,295.5137" style="stroke:#181818;stroke-width:1.0;"/></g><!--link implCtrl to iAppServ--><g id="link_implCtrl_iAppServ"><path codeLine="73" d="M250.12,324.2437 C234.49,339.9337 215.29,360.3037 200,380.0137 C177.39,409.1537 158.3567,461.2298 144.3067,485.7098 " fill="none" id="implCtrl-to-iAppServ" style="stroke:#181818;stroke-width:1.0;stroke-dasharray:7.0,7.0;"/><polygon fill="#181818" points="141.32,490.9137,149.2692,485.099,143.8089,486.5772,142.3308,481.1168,141.32,490.9137" style="stroke:#181818;stroke-width:1.0;"/></g><!--SRC=[VLFBRiCW4BpxAr0-mFs3I5OYLJcbSfNUYREsg0YW1UUIvD_BoyRWf1UBdPs1dT6wb_m2I5fvtgCKy7aazugGFg07qIFL1iVEZ0Y4Qi8SuYapgPMZ0UsQ64xtohUVrPBr1QYPDY0wVuzQb3C_Qg9YSn06iAUMqLoeicUzSL8QYtoAdHG69UUkOKcTGHu9oSrLyOB671IeaVki2b6fAEbhgoqegPcHo68ihdxhib6AiuuQ9WNv1honpge-o4a3sL7xcJ3lNK-4pBkx8-THfLozIg09kB_2cMbctZlxDg1IbA1_T6K8h5sca8BBqzZBAsN2yI_XbFbiXW5Xe77RQAfURjmFvICSpx_G6S-_oTUyJNmq2p0yl_GOHhNIkELrlGtBK5NBH6h-sCwvvfrj3A4GM3nPMRLkSWMbsUmmFjLwjF3YbvhW-f6_wNStJEWdJrYTXlu3]--></g></svg>