<?xml version="1.0" encoding="us-ascii" standalone="no"?><svg xmlns="http://www.w3.org/2000/svg" xmlns:xlink="http://www.w3.org/1999/xlink" contentStyleType="text/css" height="594px" preserveAspectRatio="none" style="width:517px;height:594px;background:#FFFFFF;" version="1.1" viewBox="0 0 517 594" width="517px" zoomAndPan="magnify"><defs/><g><!--cluster RobDroneGO--><g id="cluster_RobDroneGO"><path d="M8.5,6.0137 L102.5,6.0137 A3.75,3.75 0 0 1 105,8.5137 L112,30.6348 L507.5,30.6348 A2.5,2.5 0 0 1 510,33.1348 L510,584.5137 A2.5,2.5 0 0 1 507.5,587.0137 L8.5,587.0137 A2.5,2.5 0 0 1 6,584.5137 L6,8.5137 A2.5,2.5 0 0 1 8.5,6.0137 " fill="none" style="stroke:#000000;stroke-width:1.5;"/><line style="stroke:#000000;stroke-width:1.5;" x1="6" x2="112" y1="30.6348" y2="30.6348"/><text fill="#000000" font-family="sans-serif" font-size="14" font-weight="bold" lengthAdjust="spacing" textLength="93" x="10" y="23.1211">RobDroneGO</text></g><!--cluster infra--><g id="cluster_infra"><path d="M159.5,51.0137 L257.5,51.0137 A3.75,3.75 0 0 1 260,53.5137 L267,75.6348 L401.5,75.6348 A2.5,2.5 0 0 1 404,78.1348 L404,158.5137 A2.5,2.5 0 0 1 401.5,161.0137 L159.5,161.0137 A2.5,2.5 0 0 1 157,158.5137 L157,53.5137 A2.5,2.5 0 0 1 159.5,51.0137 " fill="none" style="stroke:#000000;stroke-width:1.5;"/><line style="stroke:#000000;stroke-width:1.5;" x1="157" x2="267" y1="75.6348" y2="75.6348"/><text fill="#000000" font-family="sans-serif" font-size="14" font-weight="bold" lengthAdjust="spacing" textLength="97" x="161" y="68.1211">Infrastructure</text></g><!--cluster adapters--><g id="cluster_adapters"><path d="M140.5,185.0137 L271.5,185.0137 A3.75,3.75 0 0 1 274,187.5137 L281,209.6348 L411.5,209.6348 A2.5,2.5 0 0 1 414,212.1348 L414,292.5137 A2.5,2.5 0 0 1 411.5,295.0137 L140.5,295.0137 A2.5,2.5 0 0 1 138,292.5137 L138,187.5137 A2.5,2.5 0 0 1 140.5,185.0137 " fill="none" style="stroke:#000000;stroke-width:1.5;"/><line style="stroke:#000000;stroke-width:1.5;" x1="138" x2="281" y1="209.6348" y2="209.6348"/><text fill="#000000" font-family="sans-serif" font-size="14" font-weight="bold" lengthAdjust="spacing" textLength="130" x="142" y="202.1211">Interface Adapters</text></g><!--cluster services--><g id="cluster_services"><path d="M115.5,319.0137 L404.5,319.0137 A3.75,3.75 0 0 1 407,321.5137 L414,343.6348 L414.5,343.6348 A2.5,2.5 0 0 1 417,346.1348 L417,426.5137 A2.5,2.5 0 0 1 414.5,429.0137 L115.5,429.0137 A2.5,2.5 0 0 1 113,426.5137 L113,321.5137 A2.5,2.5 0 0 1 115.5,319.0137 " fill="none" style="stroke:#000000;stroke-width:1.5;"/><line style="stroke:#000000;stroke-width:1.5;" x1="113" x2="414" y1="343.6348" y2="343.6348"/><text fill="#000000" font-family="sans-serif" font-size="14" font-weight="bold" lengthAdjust="spacing" textLength="288" x="117" y="336.1211">Application Services / Use Case Services</text></g><!--cluster domain--><g id="cluster_domain"><path d="M32.5,453.0137 L85.5,453.0137 A3.75,3.75 0 0 1 88,455.5137 L95,477.6348 L483.5,477.6348 A2.5,2.5 0 0 1 486,480.1348 L486,560.5137 A2.5,2.5 0 0 1 483.5,563.0137 L32.5,563.0137 A2.5,2.5 0 0 1 30,560.5137 L30,455.5137 A2.5,2.5 0 0 1 32.5,453.0137 " fill="none" style="stroke:#000000;stroke-width:1.5;"/><line style="stroke:#000000;stroke-width:1.5;" x1="30" x2="95" y1="477.6348" y2="477.6348"/><text fill="#000000" font-family="sans-serif" font-size="14" font-weight="bold" lengthAdjust="spacing" textLength="52" x="34" y="470.1211">Domain</text></g><!--entity routes--><g id="elem_routes"><path d="M176,88.0137 L217,88.0137 A3.75,3.75 0 0 1 219.5,90.5137 L226.5,109.0137 L246,109.0137 A2.5,2.5 0 0 1 248.5,111.5137 L248.5,142.1348 A2.5,2.5 0 0 1 246,144.6348 L176,144.6348 A2.5,2.5 0 0 1 173.5,142.1348 L173.5,90.5137 A2.5,2.5 0 0 1 176,88.0137 " fill="#F1F1F1" style="stroke:#181818;stroke-width:0.5;"/><line style="stroke:#181818;stroke-width:0.5;" x1="173.5" x2="226.5" y1="109.0137" y2="109.0137"/><text fill="#000000" font-family="sans-serif" font-size="14" lengthAdjust="spacing" textLength="45" x="183.5" y="131.1211">Routes</text></g><!--entity persistence--><g id="elem_persistence"><path d="M286.5,88.0137 L327.5,88.0137 A3.75,3.75 0 0 1 330,90.5137 L337,109.0137 L385.5,109.0137 A2.5,2.5 0 0 1 388,111.5137 L388,142.1348 A2.5,2.5 0 0 1 385.5,144.6348 L286.5,144.6348 A2.5,2.5 0 0 1 284,142.1348 L284,90.5137 A2.5,2.5 0 0 1 286.5,88.0137 " fill="#F1F1F1" style="stroke:#181818;stroke-width:0.5;"/><line style="stroke:#181818;stroke-width:0.5;" x1="284" x2="337" y1="109.0137" y2="109.0137"/><text fill="#000000" font-family="sans-serif" font-size="14" lengthAdjust="spacing" textLength="74" x="294" y="131.1211">Persistence</text></g><!--entity ctrl--><g id="elem_ctrl"><path d="M157,222.0137 L198,222.0137 A3.75,3.75 0 0 1 200.5,224.5137 L207.5,243.0137 L251,243.0137 A2.5,2.5 0 0 1 253.5,245.5137 L253.5,276.1348 A2.5,2.5 0 0 1 251,278.6348 L157,278.6348 A2.5,2.5 0 0 1 154.5,276.1348 L154.5,224.5137 A2.5,2.5 0 0 1 157,222.0137 " fill="#F1F1F1" style="stroke:#181818;stroke-width:0.5;"/><line style="stroke:#181818;stroke-width:0.5;" x1="154.5" x2="207.5" y1="243.0137" y2="243.0137"/><text fill="#000000" font-family="sans-serif" font-size="14" lengthAdjust="spacing" textLength="69" x="164.5" y="265.1211">Controllers</text></g><!--entity repos--><g id="elem_repos"><path d="M291,222.0137 L332,222.0137 A3.75,3.75 0 0 1 334.5,224.5137 L341.5,243.0137 L395,243.0137 A2.5,2.5 0 0 1 397.5,245.5137 L397.5,276.1348 A2.5,2.5 0 0 1 395,278.6348 L291,278.6348 A2.5,2.5 0 0 1 288.5,276.1348 L288.5,224.5137 A2.5,2.5 0 0 1 291,222.0137 " fill="#F1F1F1" style="stroke:#181818;stroke-width:0.5;"/><line style="stroke:#181818;stroke-width:0.5;" x1="288.5" x2="341.5" y1="243.0137" y2="243.0137"/><text fill="#000000" font-family="sans-serif" font-size="14" lengthAdjust="spacing" textLength="79" x="298.5" y="265.1211">Repositories</text></g><!--entity appServ--><g id="elem_appServ"><path d="M220,356.0137 L261,356.0137 A3.75,3.75 0 0 1 263.5,358.5137 L270.5,377.0137 L328,377.0137 A2.5,2.5 0 0 1 330.5,379.5137 L330.5,410.1348 A2.5,2.5 0 0 1 328,412.6348 L220,412.6348 A2.5,2.5 0 0 1 217.5,410.1348 L217.5,358.5137 A2.5,2.5 0 0 1 220,356.0137 " fill="#F1F1F1" style="stroke:#181818;stroke-width:0.5;"/><line style="stroke:#181818;stroke-width:0.5;" x1="217.5" x2="270.5" y1="377.0137" y2="377.0137"/><text fill="#000000" font-family="sans-serif" font-size="14" lengthAdjust="spacing" textLength="83" x="227.5" y="399.1211">App Services</text></g><!--entity aggregates--><g id="elem_aggregates"><path d="M369,490.0137 L410,490.0137 A3.75,3.75 0 0 1 412.5,492.5137 L419.5,511.0137 L467,511.0137 A2.5,2.5 0 0 1 469.5,513.5137 L469.5,544.1348 A2.5,2.5 0 0 1 467,546.6348 L369,546.6348 A2.5,2.5 0 0 1 366.5,544.1348 L366.5,492.5137 A2.5,2.5 0 0 1 369,490.0137 " fill="#F1F1F1" style="stroke:#181818;stroke-width:0.5;"/><line style="stroke:#181818;stroke-width:0.5;" x1="366.5" x2="419.5" y1="511.0137" y2="511.0137"/><text fill="#000000" font-family="sans-serif" font-size="14" lengthAdjust="spacing" textLength="73" x="376.5" y="533.1211">Aggregates</text></g><!--entity vo--><g id="elem_vo"><path d="M219.5,490.0137 L260.5,490.0137 A3.75,3.75 0 0 1 263,492.5137 L270,511.0137 L328.5,511.0137 A2.5,2.5 0 0 1 331,513.5137 L331,544.1348 A2.5,2.5 0 0 1 328.5,546.6348 L219.5,546.6348 A2.5,2.5 0 0 1 217,544.1348 L217,492.5137 A2.5,2.5 0 0 1 219.5,490.0137 " fill="#F1F1F1" style="stroke:#181818;stroke-width:0.5;"/><line style="stroke:#181818;stroke-width:0.5;" x1="217" x2="270" y1="511.0137" y2="511.0137"/><text fill="#000000" font-family="sans-serif" font-size="14" lengthAdjust="spacing" textLength="84" x="227" y="533.1211">ValueObjects</text></g><!--entity domainServ--><g id="elem_domainServ"><path d="M48.5,490.0137 L89.5,490.0137 A3.75,3.75 0 0 1 92,492.5137 L99,511.0137 L179.5,511.0137 A2.5,2.5 0 0 1 182,513.5137 L182,544.1348 A2.5,2.5 0 0 1 179.5,546.6348 L48.5,546.6348 A2.5,2.5 0 0 1 46,544.1348 L46,492.5137 A2.5,2.5 0 0 1 48.5,490.0137 " fill="#F1F1F1" style="stroke:#181818;stroke-width:0.5;"/><line style="stroke:#181818;stroke-width:0.5;" x1="46" x2="99" y1="511.0137" y2="511.0137"/><text fill="#000000" font-family="sans-serif" font-size="14" lengthAdjust="spacing" textLength="106" x="56" y="533.1211">Domain Services</text></g><!--link routes to ctrl--><g id="link_routes_ctrl"><path codeLine="43" d="M209.53,145.1837 C208.34,167.7137 206.9768,214.372 205.7868,236.882 " fill="none" id="routes-to-ctrl" style="stroke:#181818;stroke-width:1.0;stroke-dasharray:7.0,7.0;"/><polygon fill="#181818" points="205.47,242.8737,209.9395,234.0974,205.734,237.8806,201.9507,233.6751,205.47,242.8737" style="stroke:#181818;stroke-width:1.0;"/></g><!--link ctrl to appServ--><g id="link_ctrl_appServ"><path codeLine="45" d="M218.67,279.1837 C230.62,301.7137 244.5866,349.0642 256.5366,371.5742 " fill="none" id="ctrl-to-appServ" style="stroke:#181818;stroke-width:1.0;stroke-dasharray:7.0,7.0;"/><polygon fill="#181818" points="259.35,376.8737,258.6629,367.0488,257.0055,372.4574,251.5969,370.8,259.35,376.8737" style="stroke:#181818;stroke-width:1.0;"/></g><!--link appServ to aggregates--><g id="link_appServ_aggregates"><path codeLine="47" d="M311.08,413.2737 C323.45,422.9637 337.1,434.1337 349,445.0137 C364.39,459.0837 376.4575,471.4783 389.2375,485.3683 " fill="none" id="appServ-to-aggregates" style="stroke:#181818;stroke-width:1.0;stroke-dasharray:7.0,7.0;"/><polygon fill="#181818" points="393.3,489.7837,390.1498,480.4522,389.9145,486.1042,384.2626,485.8689,393.3,489.7837" style="stroke:#181818;stroke-width:1.0;"/></g><!--link appServ to vo--><g id="link_appServ_vo"><path codeLine="48" d="M274,413.1837 C274,435.7137 274,482.3637 274,504.8737 " fill="none" id="appServ-to-vo" style="stroke:#181818;stroke-width:1.0;stroke-dasharray:7.0,7.0;"/><polygon fill="#181818" points="274,510.8737,278,501.8737,274,505.8737,270,501.8737,274,510.8737" style="stroke:#181818;stroke-width:1.0;"/></g><!--link appServ to domainServ--><g id="link_appServ_domainServ"><path codeLine="49" d="M239.23,413.1937 C226.8,423.1637 212.73,434.5337 200,445.0137 C182.21,459.6637 167.1266,493.3237 151.0966,506.9137 " fill="none" id="appServ-to-domainServ" style="stroke:#181818;stroke-width:1.0;stroke-dasharray:7.0,7.0;"/><polygon fill="#181818" points="146.52,510.7937,155.9716,508.0248,150.3339,507.5603,150.7983,501.9226,146.52,510.7937" style="stroke:#181818;stroke-width:1.0;"/></g><!--reverse link persistence to repos--><g id="link_persistence_repos"><path codeLine="51" d="M337.7865,151.1753 C338.9765,173.7053 340.34,220.3637 341.53,242.8737 " fill="none" id="persistence-backto-repos" style="stroke:#181818;stroke-width:1.0;stroke-dasharray:7.0,7.0;"/><polygon fill="#181818" points="337.47,145.1837,333.9503,154.3821,337.7337,150.1767,341.9391,153.9602,337.47,145.1837" style="stroke:#181818;stroke-width:1.0;"/></g><!--link repos to appServ--><g id="link_repos_appServ"><path codeLine="52" d="M328.54,279.1837 C316.76,301.7137 308.5605,338.4126 296.7905,360.9226 " fill="none" id="repos-to-appServ" style="stroke:#181818;stroke-width:1.0;stroke-dasharray:7.0,7.0;"/><polygon fill="none" points="288.45,376.8737,302.1075,363.7028,291.4735,358.1424,288.45,376.8737" style="stroke:#181818;stroke-width:1.0;"/></g><!--SRC=[TL91ReGm3Bpd5H4Fe3-eX7QbQazRKRLtRp0e5OqZ9t3PzkzDGc19HI_8CnxROuUUnWvPjdGxCnbykSgxaB9Vs8lf6PpdIVc9KOAJEZ99iebQcZowcEGbkekK_X5xrIkoqywZKQcFtS5DdsjoHNKn7hc7e6Wwi25sLIo534eN9pAUQHnZ8eYKv_7OI8kMdFR4EfkE-5yFZRMZLk0r6Vc6F6iLgfxakqDvWl1PkUJChOB2MUnHwi3QYBFixympVO4sKTSjKT6j6GR60VB5uO4Eb_s0SSBhxHELJ_gPZdLL7bhONCPdfpkheJI_T5q_fqiBaUuTOTvDY7N9H6us2tgc0ZxcXG7fLUefqBjVPQNhxstGBm00]--></g></svg>