<?xml version="1.0" encoding="us-ascii" standalone="no"?><svg xmlns="http://www.w3.org/2000/svg" xmlns:xlink="http://www.w3.org/1999/xlink" contentStyleType="text/css" height="386px" preserveAspectRatio="none" style="width:278px;height:386px;background:#FFFFFF;" version="1.1" viewBox="0 0 278 386" width="278px" zoomAndPan="magnify"><defs/><g><text fill="#000000" font-family="sans-serif" font-size="14" font-weight="bold" lengthAdjust="spacing" textLength="120" x="80.5" y="30.1074">Create a building</text><rect fill="#FFFFFF" height="137.1641" style="stroke:#181818;stroke-width:1.0;" width="10" x="74" y="156.5332"/><rect fill="#FFFFFF" height="137.1641" style="stroke:#181818;stroke-width:1.0;" width="10" x="219" y="156.5332"/><rect fill="none" height="50.582" style="stroke:#000000;stroke-width:1.5;" width="262" x="10" y="171.5332"/><rect fill="none" height="50.582" style="stroke:#000000;stroke-width:1.5;" width="262" x="10" y="236.1152"/><line style="stroke:#181818;stroke-width:0.5;stroke-dasharray:5.0,5.0;" x1="79" x2="79" y1="123.2422" y2="303.6973"/><line style="stroke:#181818;stroke-width:0.5;stroke-dasharray:5.0,5.0;" x1="224" x2="224" y1="123.2422" y2="303.6973"/><text fill="#000000" font-family="sans-serif" font-size="14" lengthAdjust="spacing" textLength="112" x="20" y="119.7285">Campus Manager</text><ellipse cx="79" cy="53.1211" fill="#E2E2F0" rx="8" ry="8" style="stroke:#181818;stroke-width:0.5;"/><path d="M79,61.1211 L79,88.1211 M66,69.1211 L92,69.1211 M79,88.1211 L66,103.1211 M79,88.1211 L92,103.1211 " fill="none" style="stroke:#181818;stroke-width:0.5;"/><text fill="#000000" font-family="sans-serif" font-size="14" lengthAdjust="spacing" textLength="112" x="20" y="317.8047">Campus Manager</text><ellipse cx="79" cy="329.8184" fill="#E2E2F0" rx="8" ry="8" style="stroke:#181818;stroke-width:0.5;"/><path d="M79,337.8184 L79,364.8184 M66,345.8184 L92,345.8184 M79,364.8184 L66,379.8184 M79,364.8184 L92,379.8184 " fill="none" style="stroke:#181818;stroke-width:0.5;"/><rect fill="#E2E2F0" height="51.2422" rx="2.5" ry="2.5" style="stroke:#181818;stroke-width:0.5;" width="76" x="186" y="71"/><text fill="#000000" font-family="sans-serif" font-size="14" font-style="italic" lengthAdjust="spacing" textLength="62" x="193" y="93.1074">&#171;System&#187;</text><text fill="#000000" font-family="sans-serif" font-size="14" lengthAdjust="spacing" textLength="46" x="201" y="111.7285">System</text><rect fill="#E2E2F0" height="51.2422" rx="2.5" ry="2.5" style="stroke:#181818;stroke-width:0.5;" width="76" x="186" y="302.6973"/><text fill="#000000" font-family="sans-serif" font-size="14" font-style="italic" lengthAdjust="spacing" textLength="62" x="193" y="324.8047">&#171;System&#187;</text><text fill="#000000" font-family="sans-serif" font-size="14" lengthAdjust="spacing" textLength="46" x="201" y="343.4258">System</text><rect fill="#FFFFFF" height="137.1641" style="stroke:#181818;stroke-width:1.0;" width="10" x="74" y="156.5332"/><rect fill="#FFFFFF" height="137.1641" style="stroke:#181818;stroke-width:1.0;" width="10" x="219" y="156.5332"/><line style="stroke:#181818;stroke-width:1.0;" x1="217" x2="207" y1="156.5332" y2="152.5332"/><line style="stroke:#181818;stroke-width:1.0;" x1="217" x2="207" y1="156.5332" y2="160.5332"/><line style="stroke:#181818;stroke-width:1.0;" x1="84" x2="218" y1="156.5332" y2="156.5332"/><text fill="#000000" font-family="sans-serif" font-size="13" font-weight="bold" lengthAdjust="spacing" textLength="7" x="91" y="151.2705">1</text><text fill="#000000" font-family="sans-serif" font-size="13" lengthAdjust="spacing" textLength="35" x="102" y="151.2705">POST</text><path d="M10,171.5332 L71,171.5332 L71,180.8242 L61,190.8242 L10,190.8242 L10,171.5332 " fill="#EEEEEE" style="stroke:#000000;stroke-width:1.5;"/><rect fill="none" height="50.582" style="stroke:#000000;stroke-width:1.5;" width="262" x="10" y="171.5332"/><text fill="#000000" font-family="sans-serif" font-size="13" font-weight="bold" lengthAdjust="spacing" textLength="16" x="25" y="186.5615">alt</text><text fill="#000000" font-family="sans-serif" font-size="11" font-weight="bold" lengthAdjust="spacing" textLength="52" x="86" y="185.4033">[Created]</text><line style="stroke:#181818;stroke-width:1.0;" x1="85" x2="95" y1="214.1152" y2="210.1152"/><line style="stroke:#181818;stroke-width:1.0;" x1="85" x2="95" y1="214.1152" y2="218.1152"/><line style="stroke:#181818;stroke-width:1.0;stroke-dasharray:2.0,2.0;" x1="84" x2="218" y1="214.1152" y2="214.1152"/><text fill="#000000" font-family="sans-serif" font-size="13" font-weight="bold" lengthAdjust="spacing" textLength="7" x="101" y="208.8525">2</text><text fill="#000000" font-family="sans-serif" font-size="13" lengthAdjust="spacing" textLength="70" x="112" y="208.8525">201 Created</text><path d="M10,236.1152 L71,236.1152 L71,245.4063 L61,255.4063 L10,255.4063 L10,236.1152 " fill="#EEEEEE" style="stroke:#000000;stroke-width:1.5;"/><rect fill="none" height="50.582" style="stroke:#000000;stroke-width:1.5;" width="262" x="10" y="236.1152"/><text fill="#000000" font-family="sans-serif" font-size="13" font-weight="bold" lengthAdjust="spacing" textLength="16" x="25" y="251.1436">alt</text><text fill="#000000" font-family="sans-serif" font-size="11" font-weight="bold" lengthAdjust="spacing" textLength="77" x="86" y="249.9854">[Bad Request]</text><line style="stroke:#181818;stroke-width:1.0;" x1="85" x2="95" y1="278.6973" y2="274.6973"/><line style="stroke:#181818;stroke-width:1.0;" x1="85" x2="95" y1="278.6973" y2="282.6973"/><line style="stroke:#181818;stroke-width:1.0;stroke-dasharray:2.0,2.0;" x1="84" x2="218" y1="278.6973" y2="278.6973"/><text fill="#000000" font-family="sans-serif" font-size="13" font-weight="bold" lengthAdjust="spacing" textLength="7" x="101" y="273.4346">3</text><text fill="#000000" font-family="sans-serif" font-size="13" lengthAdjust="spacing" textLength="100" x="112" y="273.4346">400 Bad Request</text><!--SRC=[RP11JiGm34NtFeNLpQnA2s8rghgWwmeqvGAUn2hH96b87AIvFMcBO11uvVzjltpby2OIqh5fWYKlsTaxjRWcyNjchxZMXkP83e2oB3wxCqT85-C35HS3gGlDFCdLCaPM0Y16IZz49c4aF6TZjV5p0IXP8bO3kP0JZkJBOQoG4WuZ59mOPKA9WDLqJS9k6vKMksut-XvW6Ek-tzmZlZnFhnlMVAnl5SgFA1k0fSZALnQzwRM6iUlgUcSyjFU_vkmrV1y-aSRJ-X59_Zr-RDi_Epj0yssi6xNcWay0]--></g></svg>