<?xml version="1.0" encoding="us-ascii" standalone="no"?><svg xmlns="http://www.w3.org/2000/svg" xmlns:xlink="http://www.w3.org/1999/xlink" contentStyleType="text/css" height="979px" preserveAspectRatio="none" style="width:1050px;height:979px;background:#FFFFFF;" version="1.1" viewBox="0 0 1050 979" width="1050px" zoomAndPan="magnify"><defs/><g><text fill="#000000" font-family="sans-serif" font-size="14" font-weight="bold" lengthAdjust="spacing" textLength="76" x="488.75" y="30.1074">Edit a floor</text><rect fill="#FFFFFF" height="700.7227" style="stroke:#181818;stroke-width:1.0;" width="10" x="103" y="161.1543"/><rect fill="#FFFFFF" height="638.1406" style="stroke:#181818;stroke-width:1.0;" width="10" x="213" y="192.4453"/><rect fill="#FFFFFF" height="575.5586" style="stroke:#181818;stroke-width:1.0;" width="10" x="323" y="223.7363"/><rect fill="#FFFFFF" height="93.873" style="stroke:#181818;stroke-width:1.0;" width="10" x="525" y="255.0273"/><rect fill="#FFFFFF" height="96.5332" style="stroke:#181818;stroke-width:1.0;" width="10" x="644.5" y="390.1914"/><rect fill="#FFFFFF" height="124.8242" style="stroke:#181818;stroke-width:1.0;" width="10" x="754.5" y="643.1797"/><rect fill="#FFFFFF" height="52.2422" style="stroke:#181818;stroke-width:1.0;" width="10" x="892.5" y="684.4707"/><rect fill="#FFFFFF" height="31.291" style="stroke:#181818;stroke-width:1.0;" width="10" x="998.5" y="286.3184"/><rect fill="#FFFFFF" height="31.291" style="stroke:#181818;stroke-width:1.0;" width="10" x="998.5" y="549.3066"/><line style="stroke:#181818;stroke-width:0.5;stroke-dasharray:5.0,5.0;" x1="108" x2="108" y1="127.8633" y2="879.877"/><line style="stroke:#181818;stroke-width:0.5;stroke-dasharray:5.0,5.0;" x1="218" x2="218" y1="127.8633" y2="879.877"/><line style="stroke:#181818;stroke-width:0.5;stroke-dasharray:5.0,5.0;" x1="328" x2="328" y1="127.8633" y2="879.877"/><line style="stroke:#181818;stroke-width:0.5;stroke-dasharray:5.0,5.0;" x1="529.5" x2="529.5" y1="127.8633" y2="879.877"/><line style="stroke:#181818;stroke-width:0.5;stroke-dasharray:5.0,5.0;" x1="649.5" x2="649.5" y1="398.0215" y2="879.877"/><line style="stroke:#181818;stroke-width:0.5;stroke-dasharray:5.0,5.0;" x1="759.5" x2="759.5" y1="127.8633" y2="879.877"/><line style="stroke:#181818;stroke-width:0.5;stroke-dasharray:5.0,5.0;" x1="897.5" x2="897.5" y1="692.3008" y2="879.877"/><line style="stroke:#181818;stroke-width:0.5;stroke-dasharray:5.0,5.0;" x1="1003.5" x2="1003.5" y1="127.8633" y2="879.877"/><rect fill="#E2E2F0" height="51.2422" rx="2.5" ry="2.5" style="stroke:#181818;stroke-width:0.5;" width="100" x="58" y="75.6211"/><text fill="#000000" font-family="sans-serif" font-size="14" font-style="italic" lengthAdjust="spacing" textLength="86" x="65" y="97.7285">&#171;component&#187;</text><text fill="#000000" font-family="sans-serif" font-size="14" lengthAdjust="spacing" textLength="49" x="83.5" y="116.3496">Routing</text><rect fill="#E2E2F0" height="51.2422" rx="2.5" ry="2.5" style="stroke:#181818;stroke-width:0.5;" width="100" x="58" y="878.877"/><text fill="#000000" font-family="sans-serif" font-size="14" font-style="italic" lengthAdjust="spacing" textLength="86" x="65" y="900.9844">&#171;component&#187;</text><text fill="#000000" font-family="sans-serif" font-size="14" lengthAdjust="spacing" textLength="49" x="83.5" y="919.6055">Routing</text><rect fill="#E2E2F0" height="51.2422" rx="2.5" ry="2.5" style="stroke:#181818;stroke-width:0.5;" width="100" x="168" y="75.6211"/><text fill="#000000" font-family="sans-serif" font-size="14" font-style="italic" lengthAdjust="spacing" textLength="86" x="175" y="97.7285">&#171;component&#187;</text><text fill="#000000" font-family="sans-serif" font-size="14" lengthAdjust="spacing" textLength="62" x="187" y="116.3496">Controller</text><rect fill="#E2E2F0" height="51.2422" rx="2.5" ry="2.5" style="stroke:#181818;stroke-width:0.5;" width="100" x="168" y="878.877"/><text fill="#000000" font-family="sans-serif" font-size="14" font-style="italic" lengthAdjust="spacing" textLength="86" x="175" y="900.9844">&#171;component&#187;</text><text fill="#000000" font-family="sans-serif" font-size="14" lengthAdjust="spacing" textLength="62" x="187" y="919.6055">Controller</text><rect fill="#E2E2F0" height="51.2422" rx="2.5" ry="2.5" style="stroke:#181818;stroke-width:0.5;" width="100" x="278" y="75.6211"/><text fill="#000000" font-family="sans-serif" font-size="14" font-style="italic" lengthAdjust="spacing" textLength="86" x="285" y="97.7285">&#171;component&#187;</text><text fill="#000000" font-family="sans-serif" font-size="14" lengthAdjust="spacing" textLength="47" x="304.5" y="116.3496">Service</text><rect fill="#E2E2F0" height="51.2422" rx="2.5" ry="2.5" style="stroke:#181818;stroke-width:0.5;" width="100" x="278" y="878.877"/><text fill="#000000" font-family="sans-serif" font-size="14" font-style="italic" lengthAdjust="spacing" textLength="86" x="285" y="900.9844">&#171;component&#187;</text><text fill="#000000" font-family="sans-serif" font-size="14" lengthAdjust="spacing" textLength="47" x="304.5" y="919.6055">Service</text><rect fill="#E2E2F0" height="51.2422" rx="2.5" ry="2.5" style="stroke:#181818;stroke-width:0.5;" width="119" x="470.5" y="75.6211"/><text fill="#000000" font-family="sans-serif" font-size="14" font-style="italic" lengthAdjust="spacing" textLength="86" x="487" y="97.7285">&#171;component&#187;</text><text fill="#000000" font-family="sans-serif" font-size="14" lengthAdjust="spacing" textLength="105" x="477.5" y="116.3496">Floor Repository</text><rect fill="#E2E2F0" height="51.2422" rx="2.5" ry="2.5" style="stroke:#181818;stroke-width:0.5;" width="119" x="470.5" y="878.877"/><text fill="#000000" font-family="sans-serif" font-size="14" font-style="italic" lengthAdjust="spacing" textLength="86" x="487" y="900.9844">&#171;component&#187;</text><text fill="#000000" font-family="sans-serif" font-size="14" lengthAdjust="spacing" textLength="105" x="477.5" y="919.6055">Floor Repository</text><rect fill="#E2E2F0" height="51.2422" rx="2.5" ry="2.5" style="stroke:#181818;stroke-width:0.5;" width="100" x="599.5" y="878.877"/><text fill="#000000" font-family="sans-serif" font-size="14" font-style="italic" lengthAdjust="spacing" textLength="86" x="606.5" y="900.9844">&#171;component&#187;</text><text fill="#000000" font-family="sans-serif" font-size="14" lengthAdjust="spacing" textLength="33" x="633" y="919.6055">Floor</text><rect fill="#E2E2F0" height="51.2422" rx="2.5" ry="2.5" style="stroke:#181818;stroke-width:0.5;" width="100" x="709.5" y="75.6211"/><text fill="#000000" font-family="sans-serif" font-size="14" font-style="italic" lengthAdjust="spacing" textLength="86" x="716.5" y="97.7285">&#171;component&#187;</text><text fill="#000000" font-family="sans-serif" font-size="14" lengthAdjust="spacing" textLength="27" x="746" y="116.3496">Map</text><rect fill="#E2E2F0" height="51.2422" rx="2.5" ry="2.5" style="stroke:#181818;stroke-width:0.5;" width="100" x="709.5" y="878.877"/><text fill="#000000" font-family="sans-serif" font-size="14" font-style="italic" lengthAdjust="spacing" textLength="86" x="716.5" y="900.9844">&#171;component&#187;</text><text fill="#000000" font-family="sans-serif" font-size="14" lengthAdjust="spacing" textLength="27" x="746" y="919.6055">Map</text><rect fill="#E2E2F0" height="51.2422" rx="2.5" ry="2.5" style="stroke:#181818;stroke-width:0.5;" width="100" x="847.5" y="878.877"/><text fill="#000000" font-family="sans-serif" font-size="14" font-style="italic" lengthAdjust="spacing" textLength="86" x="854.5" y="900.9844">&#171;component&#187;</text><text fill="#000000" font-family="sans-serif" font-size="14" lengthAdjust="spacing" textLength="30" x="882.5" y="919.6055">DTO</text><text fill="#000000" font-family="sans-serif" font-size="14" font-style="italic" lengthAdjust="spacing" textLength="86" x="957.5" y="105.7285">&#171;component&#187;</text><text fill="#000000" font-family="sans-serif" font-size="14" lengthAdjust="spacing" textLength="61" x="970" y="124.3496">Database</text><path d="M985.5,54.6211 C985.5,44.6211 1003.5,44.6211 1003.5,44.6211 C1003.5,44.6211 1021.5,44.6211 1021.5,54.6211 L1021.5,80.6211 C1021.5,90.6211 1003.5,90.6211 1003.5,90.6211 C1003.5,90.6211 985.5,90.6211 985.5,80.6211 L985.5,54.6211 " fill="#E2E2F0" style="stroke:#181818;stroke-width:1.5;"/><path d="M985.5,54.6211 C985.5,64.6211 1003.5,64.6211 1003.5,64.6211 C1003.5,64.6211 1021.5,64.6211 1021.5,54.6211 " fill="none" style="stroke:#181818;stroke-width:1.5;"/><text fill="#000000" font-family="sans-serif" font-size="14" font-style="italic" lengthAdjust="spacing" textLength="86" x="957.5" y="893.9844">&#171;component&#187;</text><text fill="#000000" font-family="sans-serif" font-size="14" lengthAdjust="spacing" textLength="61" x="970" y="912.6055">Database</text><path d="M985.5,926.1191 C985.5,916.1191 1003.5,916.1191 1003.5,916.1191 C1003.5,916.1191 1021.5,916.1191 1021.5,926.1191 L1021.5,952.1191 C1021.5,962.1191 1003.5,962.1191 1003.5,962.1191 C1003.5,962.1191 985.5,962.1191 985.5,952.1191 L985.5,926.1191 " fill="#E2E2F0" style="stroke:#181818;stroke-width:1.5;"/><path d="M985.5,926.1191 C985.5,936.1191 1003.5,936.1191 1003.5,936.1191 C1003.5,936.1191 1021.5,936.1191 1021.5,926.1191 " fill="none" style="stroke:#181818;stroke-width:1.5;"/><rect fill="#FFFFFF" height="700.7227" style="stroke:#181818;stroke-width:1.0;" width="10" x="103" y="161.1543"/><rect fill="#FFFFFF" height="638.1406" style="stroke:#181818;stroke-width:1.0;" width="10" x="213" y="192.4453"/><rect fill="#FFFFFF" height="575.5586" style="stroke:#181818;stroke-width:1.0;" width="10" x="323" y="223.7363"/><rect fill="#FFFFFF" height="93.873" style="stroke:#181818;stroke-width:1.0;" width="10" x="525" y="255.0273"/><rect fill="#FFFFFF" height="96.5332" style="stroke:#181818;stroke-width:1.0;" width="10" x="644.5" y="390.1914"/><rect fill="#FFFFFF" height="124.8242" style="stroke:#181818;stroke-width:1.0;" width="10" x="754.5" y="643.1797"/><rect fill="#FFFFFF" height="52.2422" style="stroke:#181818;stroke-width:1.0;" width="10" x="892.5" y="684.4707"/><rect fill="#FFFFFF" height="31.291" style="stroke:#181818;stroke-width:1.0;" width="10" x="998.5" y="286.3184"/><rect fill="#FFFFFF" height="31.291" style="stroke:#181818;stroke-width:1.0;" width="10" x="998.5" y="549.3066"/><ellipse cx="4.5" cy="160.4043" fill="none" rx="4" ry="4" style="stroke:#181818;stroke-width:1.5;"/><line style="stroke:#181818;stroke-width:1.0;" x1="101" x2="91" y1="161.1543" y2="157.1543"/><line style="stroke:#181818;stroke-width:1.0;" x1="101" x2="91" y1="161.1543" y2="165.1543"/><line style="stroke:#181818;stroke-width:1.0;" x1="9" x2="102" y1="161.1543" y2="161.1543"/><text fill="#000000" font-family="sans-serif" font-size="13" font-weight="bold" lengthAdjust="spacing" textLength="7" x="12" y="155.8916">1</text><text fill="#000000" font-family="sans-serif" font-size="13" lengthAdjust="spacing" textLength="65" x="23" y="155.8916">PATCH /:id</text><line style="stroke:#181818;stroke-width:1.0;" x1="211" x2="201" y1="192.4453" y2="188.4453"/><line style="stroke:#181818;stroke-width:1.0;" x1="211" x2="201" y1="192.4453" y2="196.4453"/><line style="stroke:#181818;stroke-width:1.0;" x1="113" x2="212" y1="192.4453" y2="192.4453"/><text fill="#000000" font-family="sans-serif" font-size="13" font-weight="bold" lengthAdjust="spacing" textLength="7" x="120" y="187.1826">2</text><text fill="#000000" font-family="sans-serif" font-size="13" lengthAdjust="spacing" textLength="49" x="131" y="187.1826">edit floor</text><line style="stroke:#181818;stroke-width:1.0;" x1="321" x2="311" y1="223.7363" y2="219.7363"/><line style="stroke:#181818;stroke-width:1.0;" x1="321" x2="311" y1="223.7363" y2="227.7363"/><line style="stroke:#181818;stroke-width:1.0;" x1="223" x2="322" y1="223.7363" y2="223.7363"/><text fill="#000000" font-family="sans-serif" font-size="13" font-weight="bold" lengthAdjust="spacing" textLength="7" x="230" y="218.4736">3</text><text fill="#000000" font-family="sans-serif" font-size="13" lengthAdjust="spacing" textLength="49" x="241" y="218.4736">edit floor</text><line style="stroke:#181818;stroke-width:1.0;" x1="523" x2="513" y1="255.0273" y2="251.0273"/><line style="stroke:#181818;stroke-width:1.0;" x1="523" x2="513" y1="255.0273" y2="259.0273"/><line style="stroke:#181818;stroke-width:1.0;" x1="333" x2="524" y1="255.0273" y2="255.0273"/><text fill="#000000" font-family="sans-serif" font-size="13" font-weight="bold" lengthAdjust="spacing" textLength="7" x="340" y="249.7646">4</text><text fill="#000000" font-family="sans-serif" font-size="13" lengthAdjust="spacing" textLength="162" x="351" y="249.7646">verifies if floor already exists</text><line style="stroke:#181818;stroke-width:1.0;" x1="996.5" x2="986.5" y1="286.3184" y2="282.3184"/><line style="stroke:#181818;stroke-width:1.0;" x1="996.5" x2="986.5" y1="286.3184" y2="290.3184"/><line style="stroke:#181818;stroke-width:1.0;" x1="535" x2="997.5" y1="286.3184" y2="286.3184"/><text fill="#000000" font-family="sans-serif" font-size="13" font-weight="bold" lengthAdjust="spacing" textLength="7" x="542" y="281.0557">5</text><text fill="#000000" font-family="sans-serif" font-size="13" lengthAdjust="spacing" textLength="63" x="553" y="281.0557">select floor</text><line style="stroke:#181818;stroke-width:1.0;" x1="536" x2="546" y1="317.6094" y2="313.6094"/><line style="stroke:#181818;stroke-width:1.0;" x1="536" x2="546" y1="317.6094" y2="321.6094"/><line style="stroke:#181818;stroke-width:1.0;stroke-dasharray:2.0,2.0;" x1="535" x2="1002.5" y1="317.6094" y2="317.6094"/><text fill="#000000" font-family="sans-serif" font-size="13" font-weight="bold" lengthAdjust="spacing" textLength="7" x="552" y="312.3467">6</text><text fill="#000000" font-family="sans-serif" font-size="13" lengthAdjust="spacing" textLength="24" x="563" y="312.3467">floor</text><line style="stroke:#181818;stroke-width:1.0;" x1="334" x2="344" y1="348.9004" y2="344.9004"/><line style="stroke:#181818;stroke-width:1.0;" x1="334" x2="344" y1="348.9004" y2="352.9004"/><line style="stroke:#181818;stroke-width:1.0;stroke-dasharray:2.0,2.0;" x1="333" x2="529" y1="348.9004" y2="348.9004"/><text fill="#000000" font-family="sans-serif" font-size="13" font-weight="bold" lengthAdjust="spacing" textLength="7" x="350" y="343.6377">7</text><text fill="#000000" font-family="sans-serif" font-size="13" lengthAdjust="spacing" textLength="59" x="361" y="343.6377">floor found</text><line style="stroke:#181818;stroke-width:1.0;" x1="597.5" x2="587.5" y1="380.1914" y2="376.1914"/><line style="stroke:#181818;stroke-width:1.0;" x1="597.5" x2="587.5" y1="380.1914" y2="384.1914"/><line style="stroke:#181818;stroke-width:1.0;" x1="333" x2="598.5" y1="380.1914" y2="380.1914"/><text fill="#000000" font-family="sans-serif" font-size="13" font-weight="bold" lengthAdjust="spacing" textLength="7" x="340" y="374.9287">8</text><text fill="#000000" font-family="sans-serif" font-size="13" lengthAdjust="spacing" textLength="21" x="351" y="374.9287">edit</text><rect fill="#E2E2F0" height="51.2422" rx="2.5" ry="2.5" style="stroke:#181818;stroke-width:0.5;" width="100" x="599.5" y="356.9004"/><text fill="#000000" font-family="sans-serif" font-size="14" font-style="italic" lengthAdjust="spacing" textLength="86" x="606.5" y="379.0078">&#171;component&#187;</text><text fill="#000000" font-family="sans-serif" font-size="14" lengthAdjust="spacing" textLength="33" x="633" y="397.6289">Floor</text><line style="stroke:#181818;stroke-width:1.0;stroke-dasharray:2.0,2.0;" x1="654.5" x2="696.5" y1="442.4336" y2="442.4336"/><line style="stroke:#181818;stroke-width:1.0;stroke-dasharray:2.0,2.0;" x1="696.5" x2="696.5" y1="442.4336" y2="455.4336"/><line style="stroke:#181818;stroke-width:1.0;stroke-dasharray:2.0,2.0;" x1="655.5" x2="696.5" y1="455.4336" y2="455.4336"/><line style="stroke:#181818;stroke-width:1.0;" x1="655.5" x2="665.5" y1="455.4336" y2="451.4336"/><line style="stroke:#181818;stroke-width:1.0;" x1="655.5" x2="665.5" y1="455.4336" y2="459.4336"/><text fill="#000000" font-family="sans-serif" font-size="13" font-weight="bold" lengthAdjust="spacing" textLength="7" x="661.5" y="437.1709">9</text><text fill="#000000" font-family="sans-serif" font-size="13" lengthAdjust="spacing" textLength="39" x="672.5" y="437.1709">verifies</text><line style="stroke:#181818;stroke-width:1.0;" x1="334" x2="344" y1="486.7246" y2="482.7246"/><line style="stroke:#181818;stroke-width:1.0;" x1="334" x2="344" y1="486.7246" y2="490.7246"/><line style="stroke:#181818;stroke-width:1.0;stroke-dasharray:2.0,2.0;" x1="333" x2="648.5" y1="486.7246" y2="486.7246"/><text fill="#000000" font-family="sans-serif" font-size="13" font-weight="bold" lengthAdjust="spacing" textLength="14" x="350" y="481.4619">10</text><text fill="#000000" font-family="sans-serif" font-size="13" lengthAdjust="spacing" textLength="35" x="368" y="481.4619">edited</text><line style="stroke:#181818;stroke-width:1.0;" x1="528" x2="518" y1="518.0156" y2="514.0156"/><line style="stroke:#181818;stroke-width:1.0;" x1="528" x2="518" y1="518.0156" y2="522.0156"/><line style="stroke:#181818;stroke-width:1.0;" x1="333" x2="529" y1="518.0156" y2="518.0156"/><text fill="#000000" font-family="sans-serif" font-size="13" font-weight="bold" lengthAdjust="spacing" textLength="14" x="340" y="512.7529">11</text><text fill="#000000" font-family="sans-serif" font-size="13" lengthAdjust="spacing" textLength="26" x="358" y="512.7529">save</text><line style="stroke:#181818;stroke-width:1.0;" x1="996.5" x2="986.5" y1="549.3066" y2="545.3066"/><line style="stroke:#181818;stroke-width:1.0;" x1="996.5" x2="986.5" y1="549.3066" y2="553.3066"/><line style="stroke:#181818;stroke-width:1.0;" x1="530" x2="997.5" y1="549.3066" y2="549.3066"/><text fill="#000000" font-family="sans-serif" font-size="13" font-weight="bold" lengthAdjust="spacing" textLength="14" x="537" y="544.0439">12</text><text fill="#000000" font-family="sans-serif" font-size="13" lengthAdjust="spacing" textLength="60" x="555" y="544.0439">insert floor</text><line style="stroke:#181818;stroke-width:1.0;" x1="531" x2="541" y1="580.5977" y2="576.5977"/><line style="stroke:#181818;stroke-width:1.0;" x1="531" x2="541" y1="580.5977" y2="584.5977"/><line style="stroke:#181818;stroke-width:1.0;stroke-dasharray:2.0,2.0;" x1="530" x2="1002.5" y1="580.5977" y2="580.5977"/><text fill="#000000" font-family="sans-serif" font-size="13" font-weight="bold" lengthAdjust="spacing" textLength="14" x="547" y="575.335">13</text><text fill="#000000" font-family="sans-serif" font-size="13" lengthAdjust="spacing" textLength="49" x="565" y="575.335">success</text><line style="stroke:#181818;stroke-width:1.0;" x1="334" x2="344" y1="611.8887" y2="607.8887"/><line style="stroke:#181818;stroke-width:1.0;" x1="334" x2="344" y1="611.8887" y2="615.8887"/><line style="stroke:#181818;stroke-width:1.0;stroke-dasharray:2.0,2.0;" x1="333" x2="529" y1="611.8887" y2="611.8887"/><text fill="#000000" font-family="sans-serif" font-size="13" font-weight="bold" lengthAdjust="spacing" textLength="14" x="350" y="606.626">14</text><text fill="#000000" font-family="sans-serif" font-size="13" lengthAdjust="spacing" textLength="49" x="368" y="606.626">success</text><line style="stroke:#181818;stroke-width:1.0;" x1="752.5" x2="742.5" y1="643.1797" y2="639.1797"/><line style="stroke:#181818;stroke-width:1.0;" x1="752.5" x2="742.5" y1="643.1797" y2="647.1797"/><line style="stroke:#181818;stroke-width:1.0;" x1="333" x2="753.5" y1="643.1797" y2="643.1797"/><text fill="#000000" font-family="sans-serif" font-size="13" font-weight="bold" lengthAdjust="spacing" textLength="14" x="340" y="637.917">15</text><text fill="#000000" font-family="sans-serif" font-size="13" lengthAdjust="spacing" textLength="86" x="358" y="637.917">convert to DTO</text><line style="stroke:#181818;stroke-width:1.0;" x1="845.5" x2="835.5" y1="674.4707" y2="670.4707"/><line style="stroke:#181818;stroke-width:1.0;" x1="845.5" x2="835.5" y1="674.4707" y2="678.4707"/><line style="stroke:#181818;stroke-width:1.0;stroke-dasharray:2.0,2.0;" x1="764.5" x2="846.5" y1="674.4707" y2="674.4707"/><text fill="#000000" font-family="sans-serif" font-size="13" font-weight="bold" lengthAdjust="spacing" textLength="14" x="771.5" y="669.208">16</text><text fill="#000000" font-family="sans-serif" font-size="13" lengthAdjust="spacing" textLength="41" x="789.5" y="669.208">convert</text><rect fill="#E2E2F0" height="51.2422" rx="2.5" ry="2.5" style="stroke:#181818;stroke-width:0.5;" width="100" x="847.5" y="651.1797"/><text fill="#000000" font-family="sans-serif" font-size="14" font-style="italic" lengthAdjust="spacing" textLength="86" x="854.5" y="673.2871">&#171;component&#187;</text><text fill="#000000" font-family="sans-serif" font-size="14" lengthAdjust="spacing" textLength="30" x="882.5" y="691.9082">DTO</text><line style="stroke:#181818;stroke-width:1.0;" x1="765.5" x2="775.5" y1="736.7129" y2="732.7129"/><line style="stroke:#181818;stroke-width:1.0;" x1="765.5" x2="775.5" y1="736.7129" y2="740.7129"/><line style="stroke:#181818;stroke-width:1.0;stroke-dasharray:2.0,2.0;" x1="764.5" x2="896.5" y1="736.7129" y2="736.7129"/><text fill="#000000" font-family="sans-serif" font-size="13" font-weight="bold" lengthAdjust="spacing" textLength="14" x="781.5" y="731.4502">17</text><text fill="#000000" font-family="sans-serif" font-size="13" lengthAdjust="spacing" textLength="18" x="799.5" y="731.4502">dto</text><line style="stroke:#181818;stroke-width:1.0;" x1="334" x2="344" y1="768.0039" y2="764.0039"/><line style="stroke:#181818;stroke-width:1.0;" x1="334" x2="344" y1="768.0039" y2="772.0039"/><line style="stroke:#181818;stroke-width:1.0;stroke-dasharray:2.0,2.0;" x1="333" x2="758.5" y1="768.0039" y2="768.0039"/><text fill="#000000" font-family="sans-serif" font-size="13" font-weight="bold" lengthAdjust="spacing" textLength="14" x="350" y="762.7412">18</text><text fill="#000000" font-family="sans-serif" font-size="13" lengthAdjust="spacing" textLength="18" x="368" y="762.7412">dto</text><line style="stroke:#181818;stroke-width:1.0;" x1="224" x2="234" y1="799.2949" y2="795.2949"/><line style="stroke:#181818;stroke-width:1.0;" x1="224" x2="234" y1="799.2949" y2="803.2949"/><line style="stroke:#181818;stroke-width:1.0;stroke-dasharray:2.0,2.0;" x1="223" x2="327" y1="799.2949" y2="799.2949"/><text fill="#000000" font-family="sans-serif" font-size="13" font-weight="bold" lengthAdjust="spacing" textLength="14" x="240" y="794.0322">19</text><text fill="#000000" font-family="sans-serif" font-size="13" lengthAdjust="spacing" textLength="49" x="258" y="794.0322">success</text><line style="stroke:#181818;stroke-width:1.0;" x1="114" x2="124" y1="830.5859" y2="826.5859"/><line style="stroke:#181818;stroke-width:1.0;" x1="114" x2="124" y1="830.5859" y2="834.5859"/><line style="stroke:#181818;stroke-width:1.0;stroke-dasharray:2.0,2.0;" x1="113" x2="217" y1="830.5859" y2="830.5859"/><text fill="#000000" font-family="sans-serif" font-size="13" font-weight="bold" lengthAdjust="spacing" textLength="14" x="130" y="825.3232">20</text><text fill="#000000" font-family="sans-serif" font-size="13" lengthAdjust="spacing" textLength="49" x="148" y="825.3232">success</text><ellipse cx="13.5" cy="861.127" fill="none" rx="4" ry="4" style="stroke:#181818;stroke-width:1.5;"/><line style="stroke:#181818;stroke-width:1.0;" x1="20.5" x2="30.5" y1="861.877" y2="857.877"/><line style="stroke:#181818;stroke-width:1.0;" x1="20.5" x2="30.5" y1="861.877" y2="865.877"/><line style="stroke:#181818;stroke-width:1.0;stroke-dasharray:2.0,2.0;" x1="14" x2="107" y1="861.877" y2="861.877"/><text fill="#000000" font-family="sans-serif" font-size="13" font-weight="bold" lengthAdjust="spacing" textLength="14" x="31" y="856.6143">21</text><text fill="#000000" font-family="sans-serif" font-size="13" lengthAdjust="spacing" textLength="44" x="49" y="856.6143">200 OK</text><!--SRC=[ZPFBQiCm44Nt-WgHPS4qT6b2IabR2gMqjFc1YJm98evafB5f_hwI_93iF9gTR9qxStMbWPgqgWyRDCpkfQh0m85N8FQmmnywbiWD2cAC9BdrIo690z-MMXl674nIo0eKyTcthacgtOo3vQPTyyL2w4Eb5IfQBiVuIYiokYpH18KOFg-9Vj0qKc1Gs7Pz3N_rDlatLjfAqkOOTC6xSV_-LKRy6le1LG0FK5t3djUV0IjeshW0WWrOT4otQi7DX6EFEbikXsnp_lMqNhtn-rmM30J91WZxNTPJNf5actFqDzZTtw2A14jWh-rJlY3ijbcFUKaCEESD6hcLQBdSTab2QH2A8yTVQSacfGOPYmLyEPT3xlgKxXLsxGT9iM5kDvisRQa2KoujEZvNQskhQrMaccY7dPxkxguBP6A_QvDOYX6CziQnucbdTZ5I2msUYqWgfxWr8biBWTRU7D8PFWaejUh78FSFgl5kt6Dt3p_QSRkCUIJKTxCGakpen3MvgdvIibZI_qljUcIe59rEiD1my7So3MVErJ_fqIIC1- -CAfaWDwUBHPOb_CDypZ_VKxmVqpy0]--></g></svg>