<?xml version="1.0" encoding="us-ascii" standalone="no"?><svg xmlns="http://www.w3.org/2000/svg" xmlns:xlink="http://www.w3.org/1999/xlink" contentStyleType="text/css" height="513px" preserveAspectRatio="none" style="width:689px;height:513px;background:#FFFFFF;" version="1.1" viewBox="0 0 689 513" width="689px" zoomAndPan="magnify"><defs/><g><text fill="#000000" font-family="sans-serif" font-size="14" font-weight="bold" lengthAdjust="spacing" textLength="135" x="273.5" y="30.1074">Create a robot type</text><rect fill="#FFFFFF" height="251.3281" style="stroke:#181818;stroke-width:1.0;" width="10" x="49" y="151.8633"/><rect fill="#FFFFFF" height="219.0371" style="stroke:#181818;stroke-width:1.0;" width="10" x="254" y="175.1543"/><rect fill="#FFFFFF" height="156.4551" style="stroke:#181818;stroke-width:1.0;" width="10" x="403" y="206.4453"/><rect fill="#FFFFFF" height="93.873" style="stroke:#181818;stroke-width:1.0;" width="10" x="552" y="237.7363"/><line style="stroke:#181818;stroke-width:0.5;stroke-dasharray:5.0,5.0;" x1="54" x2="54" y1="141.8633" y2="412.1914"/><line style="stroke:#181818;stroke-width:0.5;stroke-dasharray:5.0,5.0;" x1="259" x2="259" y1="141.8633" y2="412.1914"/><line style="stroke:#181818;stroke-width:0.5;stroke-dasharray:5.0,5.0;" x1="408" x2="408" y1="141.8633" y2="412.1914"/><line style="stroke:#181818;stroke-width:0.5;stroke-dasharray:5.0,5.0;" x1="557" x2="557" y1="141.8633" y2="412.1914"/><text fill="#000000" font-family="sans-serif" font-size="14" font-style="italic" lengthAdjust="spacing" textLength="61" x="20.5" y="119.7285">&#171;Human&#187;</text><text fill="#000000" font-family="sans-serif" font-size="14" lengthAdjust="spacing" textLength="92" x="5" y="138.3496">Fleet Manager</text><ellipse cx="54" cy="53.1211" fill="#E2E2F0" rx="8" ry="8" style="stroke:#181818;stroke-width:0.5;"/><path d="M54,61.1211 L54,88.1211 M41,69.1211 L67,69.1211 M54,88.1211 L41,103.1211 M54,88.1211 L67,103.1211 " fill="none" style="stroke:#181818;stroke-width:0.5;"/><text fill="#000000" font-family="sans-serif" font-size="14" font-style="italic" lengthAdjust="spacing" textLength="61" x="20.5" y="426.2988">&#171;Human&#187;</text><text fill="#000000" font-family="sans-serif" font-size="14" lengthAdjust="spacing" textLength="92" x="5" y="444.9199">Fleet Manager</text><ellipse cx="54" cy="456.9336" fill="#E2E2F0" rx="8" ry="8" style="stroke:#181818;stroke-width:0.5;"/><path d="M54,464.9336 L54,491.9336 M41,472.9336 L67,472.9336 M54,491.9336 L41,506.9336 M54,491.9336 L67,506.9336 " fill="none" style="stroke:#181818;stroke-width:0.5;"/><rect fill="#E2E2F0" height="51.2422" rx="2.5" ry="2.5" style="stroke:#181818;stroke-width:0.5;" width="100" x="209" y="89.6211"/><text fill="#000000" font-family="sans-serif" font-size="14" font-style="italic" lengthAdjust="spacing" textLength="86" x="216" y="111.7285">&#171;component&#187;</text><text fill="#000000" font-family="sans-serif" font-size="14" lengthAdjust="spacing" textLength="49" x="234.5" y="130.3496">Routing</text><rect fill="#E2E2F0" height="51.2422" rx="2.5" ry="2.5" style="stroke:#181818;stroke-width:0.5;" width="100" x="209" y="411.1914"/><text fill="#000000" font-family="sans-serif" font-size="14" font-style="italic" lengthAdjust="spacing" textLength="86" x="216" y="433.2988">&#171;component&#187;</text><text fill="#000000" font-family="sans-serif" font-size="14" lengthAdjust="spacing" textLength="49" x="234.5" y="451.9199">Routing</text><rect fill="#E2E2F0" height="51.2422" rx="2.5" ry="2.5" style="stroke:#181818;stroke-width:0.5;" width="100" x="358" y="89.6211"/><text fill="#000000" font-family="sans-serif" font-size="14" font-style="italic" lengthAdjust="spacing" textLength="86" x="365" y="111.7285">&#171;component&#187;</text><text fill="#000000" font-family="sans-serif" font-size="14" lengthAdjust="spacing" textLength="73" x="371.5" y="130.3496">Component</text><rect fill="#E2E2F0" height="51.2422" rx="2.5" ry="2.5" style="stroke:#181818;stroke-width:0.5;" width="100" x="358" y="411.1914"/><text fill="#000000" font-family="sans-serif" font-size="14" font-style="italic" lengthAdjust="spacing" textLength="86" x="365" y="433.2988">&#171;component&#187;</text><text fill="#000000" font-family="sans-serif" font-size="14" lengthAdjust="spacing" textLength="73" x="371.5" y="451.9199">Component</text><rect fill="#E2E2F0" height="51.2422" rx="2.5" ry="2.5" style="stroke:#181818;stroke-width:0.5;" width="100" x="507" y="89.6211"/><text fill="#000000" font-family="sans-serif" font-size="14" font-style="italic" lengthAdjust="spacing" textLength="86" x="514" y="111.7285">&#171;component&#187;</text><text fill="#000000" font-family="sans-serif" font-size="14" lengthAdjust="spacing" textLength="47" x="533.5" y="130.3496">Service</text><rect fill="#E2E2F0" height="51.2422" rx="2.5" ry="2.5" style="stroke:#181818;stroke-width:0.5;" width="100" x="507" y="411.1914"/><text fill="#000000" font-family="sans-serif" font-size="14" font-style="italic" lengthAdjust="spacing" textLength="86" x="514" y="433.2988">&#171;component&#187;</text><text fill="#000000" font-family="sans-serif" font-size="14" lengthAdjust="spacing" textLength="47" x="533.5" y="451.9199">Service</text><rect fill="#FFFFFF" height="251.3281" style="stroke:#181818;stroke-width:1.0;" width="10" x="49" y="151.8633"/><rect fill="#FFFFFF" height="219.0371" style="stroke:#181818;stroke-width:1.0;" width="10" x="254" y="175.1543"/><rect fill="#FFFFFF" height="156.4551" style="stroke:#181818;stroke-width:1.0;" width="10" x="403" y="206.4453"/><rect fill="#FFFFFF" height="93.873" style="stroke:#181818;stroke-width:1.0;" width="10" x="552" y="237.7363"/><line style="stroke:#181818;stroke-width:1.0;" x1="252" x2="242" y1="175.1543" y2="171.1543"/><line style="stroke:#181818;stroke-width:1.0;" x1="252" x2="242" y1="175.1543" y2="179.1543"/><line style="stroke:#181818;stroke-width:1.0;" x1="59" x2="253" y1="175.1543" y2="175.1543"/><text fill="#000000" font-family="sans-serif" font-size="13" font-weight="bold" lengthAdjust="spacing" textLength="7" x="66" y="169.8916">1</text><text fill="#000000" font-family="sans-serif" font-size="13" lengthAdjust="spacing" textLength="165" x="77" y="169.8916">Navigate to createFloor page</text><line style="stroke:#181818;stroke-width:1.0;" x1="401" x2="391" y1="206.4453" y2="202.4453"/><line style="stroke:#181818;stroke-width:1.0;" x1="401" x2="391" y1="206.4453" y2="210.4453"/><line style="stroke:#181818;stroke-width:1.0;" x1="264" x2="402" y1="206.4453" y2="206.4453"/><text fill="#000000" font-family="sans-serif" font-size="13" font-weight="bold" lengthAdjust="spacing" textLength="7" x="271" y="201.1826">2</text><text fill="#000000" font-family="sans-serif" font-size="13" lengthAdjust="spacing" textLength="109" x="282" y="201.1826">create a robot type</text><line style="stroke:#181818;stroke-width:1.0;" x1="550" x2="540" y1="237.7363" y2="233.7363"/><line style="stroke:#181818;stroke-width:1.0;" x1="550" x2="540" y1="237.7363" y2="241.7363"/><line style="stroke:#181818;stroke-width:1.0;" x1="413" x2="551" y1="237.7363" y2="237.7363"/><text fill="#000000" font-family="sans-serif" font-size="13" font-weight="bold" lengthAdjust="spacing" textLength="7" x="420" y="232.4736">3</text><text fill="#000000" font-family="sans-serif" font-size="13" lengthAdjust="spacing" textLength="109" x="431" y="232.4736">create a robot type</text><line style="stroke:#181818;stroke-width:1.0;" x1="681" x2="671" y1="269.0273" y2="265.0273"/><line style="stroke:#181818;stroke-width:1.0;" x1="681" x2="671" y1="269.0273" y2="273.0273"/><line style="stroke:#181818;stroke-width:1.0;" x1="562" x2="682" y1="269.0273" y2="269.0273"/><text fill="#000000" font-family="sans-serif" font-size="13" font-weight="bold" lengthAdjust="spacing" textLength="7" x="569" y="263.7646">4</text><text fill="#000000" font-family="sans-serif" font-size="13" lengthAdjust="spacing" textLength="76" x="580" y="263.7646">Http Request</text><line style="stroke:#181818;stroke-width:1.0;" x1="563" x2="573" y1="300.3184" y2="296.3184"/><line style="stroke:#181818;stroke-width:1.0;" x1="563" x2="573" y1="300.3184" y2="304.3184"/><line style="stroke:#181818;stroke-width:1.0;stroke-dasharray:2.0,2.0;" x1="562" x2="682" y1="300.3184" y2="300.3184"/><text fill="#000000" font-family="sans-serif" font-size="13" font-weight="bold" lengthAdjust="spacing" textLength="7" x="579" y="295.0557">5</text><text fill="#000000" font-family="sans-serif" font-size="13" lengthAdjust="spacing" textLength="86" x="590" y="295.0557">Http Response</text><line style="stroke:#181818;stroke-width:1.0;" x1="414" x2="424" y1="331.6094" y2="327.6094"/><line style="stroke:#181818;stroke-width:1.0;" x1="414" x2="424" y1="331.6094" y2="335.6094"/><line style="stroke:#181818;stroke-width:1.0;stroke-dasharray:2.0,2.0;" x1="413" x2="556" y1="331.6094" y2="331.6094"/><text fill="#000000" font-family="sans-serif" font-size="13" font-weight="bold" lengthAdjust="spacing" textLength="7" x="430" y="326.3467">6</text><text fill="#000000" font-family="sans-serif" font-size="13" lengthAdjust="spacing" textLength="49" x="441" y="326.3467">success</text><line style="stroke:#181818;stroke-width:1.0;" x1="265" x2="275" y1="362.9004" y2="358.9004"/><line style="stroke:#181818;stroke-width:1.0;" x1="265" x2="275" y1="362.9004" y2="366.9004"/><line style="stroke:#181818;stroke-width:1.0;stroke-dasharray:2.0,2.0;" x1="264" x2="407" y1="362.9004" y2="362.9004"/><text fill="#000000" font-family="sans-serif" font-size="13" font-weight="bold" lengthAdjust="spacing" textLength="7" x="281" y="357.6377">7</text><text fill="#000000" font-family="sans-serif" font-size="13" lengthAdjust="spacing" textLength="49" x="292" y="357.6377">success</text><line style="stroke:#181818;stroke-width:1.0;" x1="60" x2="70" y1="394.1914" y2="390.1914"/><line style="stroke:#181818;stroke-width:1.0;" x1="60" x2="70" y1="394.1914" y2="398.1914"/><line style="stroke:#181818;stroke-width:1.0;stroke-dasharray:2.0,2.0;" x1="59" x2="258" y1="394.1914" y2="394.1914"/><text fill="#000000" font-family="sans-serif" font-size="13" font-weight="bold" lengthAdjust="spacing" textLength="7" x="76" y="388.9287">8</text><text fill="#000000" font-family="sans-serif" font-size="13" lengthAdjust="spacing" textLength="131" x="87" y="388.9287">Successfully response</text><!--SRC=[XP91RiCW44NtSufHzhw05NaJoSh6NSGdcD2fXM83XI5IRX_0TfmcLRj3clVW_n4KnPeudTb3k6ZZoDE4ZjI51kxbDZ9wLW8WMjBvu9c4aT3RinMKcsC0Kc8zxjgHMR0Zaqo_GmhOThZV7-D4fcaWtInQQKT6S7UoKRGP2kNdSqALdPmrREGLFwo38cJiBxfdVzMA2nlcymjUCkjhhj9sq7PLqpnYrFX1LptacLXKfN0xsjJGfMARkF2mUlcEagnUfFSjpMA6e91PMGF-PoqSh7nsQpoAE3pnT-GWi7MjgcqMKkkGRdg8Jq53L8f3W4z-UsT9-7Cpl_2bJLfXUNGZ-vdyYkDuIpze2V7ahUkx0m00]--></g></svg>