<?xml version="1.0" encoding="us-ascii" standalone="no"?><svg xmlns="http://www.w3.org/2000/svg" xmlns:xlink="http://www.w3.org/1999/xlink" contentStyleType="text/css" height="1121px" preserveAspectRatio="none" style="width:1270px;height:1121px;background:#FFFFFF;" version="1.1" viewBox="0 0 1270 1121" width="1270px" zoomAndPan="magnify"><defs/><g><text fill="#000000" font-family="sans-serif" font-size="14" font-weight="bold" lengthAdjust="spacing" textLength="148" x="562.75" y="30.1074">Create a passageway</text><rect fill="#FFFFFF" height="843.1777" style="stroke:#181818;stroke-width:1.0;" width="10" x="115" y="161.1543"/><rect fill="#FFFFFF" height="780.5957" style="stroke:#181818;stroke-width:1.0;" width="10" x="267" y="192.4453"/><rect fill="#FFFFFF" height="718.0137" style="stroke:#181818;stroke-width:1.0;" width="10" x="419" y="223.7363"/><rect fill="#FFFFFF" height="93.873" style="stroke:#181818;stroke-width:1.0;" width="10" x="593" y="272.3184"/><rect fill="#FFFFFF" height="93.873" style="stroke:#181818;stroke-width:1.0;" width="10" x="745" y="397.4824"/><rect fill="#FFFFFF" height="96.5332" style="stroke:#181818;stroke-width:1.0;" width="10" x="864.5" y="532.6465"/><rect fill="#FFFFFF" height="124.8242" style="stroke:#181818;stroke-width:1.0;" width="10" x="974.5" y="785.6348"/><rect fill="#FFFFFF" height="52.2422" style="stroke:#181818;stroke-width:1.0;" width="10" x="1112.5" y="826.9258"/><rect fill="#FFFFFF" height="31.291" style="stroke:#181818;stroke-width:1.0;" width="10" x="1218.5" y="303.6094"/><rect fill="#FFFFFF" height="31.291" style="stroke:#181818;stroke-width:1.0;" width="10" x="1218.5" y="428.7734"/><rect fill="#FFFFFF" height="31.291" style="stroke:#181818;stroke-width:1.0;" width="10" x="1218.5" y="691.7617"/><line style="stroke:#181818;stroke-width:0.5;stroke-dasharray:5.0,5.0;" x1="120" x2="120" y1="127.8633" y2="1022.332"/><line style="stroke:#181818;stroke-width:0.5;stroke-dasharray:5.0,5.0;" x1="272" x2="272" y1="127.8633" y2="1022.332"/><line style="stroke:#181818;stroke-width:0.5;stroke-dasharray:5.0,5.0;" x1="424" x2="424" y1="127.8633" y2="1022.332"/><line style="stroke:#181818;stroke-width:0.5;stroke-dasharray:5.0,5.0;" x1="597.5" x2="597.5" y1="127.8633" y2="1022.332"/><line style="stroke:#181818;stroke-width:0.5;stroke-dasharray:5.0,5.0;" x1="749.5" x2="749.5" y1="127.8633" y2="1022.332"/><line style="stroke:#181818;stroke-width:0.5;stroke-dasharray:5.0,5.0;" x1="869.5" x2="869.5" y1="540.4766" y2="1022.332"/><line style="stroke:#181818;stroke-width:0.5;stroke-dasharray:5.0,5.0;" x1="979.5" x2="979.5" y1="127.8633" y2="1022.332"/><line style="stroke:#181818;stroke-width:0.5;stroke-dasharray:5.0,5.0;" x1="1117.5" x2="1117.5" y1="834.7559" y2="1022.332"/><line style="stroke:#181818;stroke-width:0.5;stroke-dasharray:5.0,5.0;" x1="1223.5" x2="1223.5" y1="127.8633" y2="1022.332"/><rect fill="#E2E2F0" height="51.2422" rx="2.5" ry="2.5" style="stroke:#181818;stroke-width:0.5;" width="100" x="70" y="75.6211"/><text fill="#000000" font-family="sans-serif" font-size="14" font-style="italic" lengthAdjust="spacing" textLength="86" x="77" y="97.7285">&#171;component&#187;</text><text fill="#000000" font-family="sans-serif" font-size="14" lengthAdjust="spacing" textLength="49" x="95.5" y="116.3496">Routing</text><rect fill="#E2E2F0" height="51.2422" rx="2.5" ry="2.5" style="stroke:#181818;stroke-width:0.5;" width="100" x="70" y="1021.332"/><text fill="#000000" font-family="sans-serif" font-size="14" font-style="italic" lengthAdjust="spacing" textLength="86" x="77" y="1043.4395">&#171;component&#187;</text><text fill="#000000" font-family="sans-serif" font-size="14" lengthAdjust="spacing" textLength="49" x="95.5" y="1062.0605">Routing</text><rect fill="#E2E2F0" height="51.2422" rx="2.5" ry="2.5" style="stroke:#181818;stroke-width:0.5;" width="100" x="222" y="75.6211"/><text fill="#000000" font-family="sans-serif" font-size="14" font-style="italic" lengthAdjust="spacing" textLength="86" x="229" y="97.7285">&#171;component&#187;</text><text fill="#000000" font-family="sans-serif" font-size="14" lengthAdjust="spacing" textLength="62" x="241" y="116.3496">Controller</text><rect fill="#E2E2F0" height="51.2422" rx="2.5" ry="2.5" style="stroke:#181818;stroke-width:0.5;" width="100" x="222" y="1021.332"/><text fill="#000000" font-family="sans-serif" font-size="14" font-style="italic" lengthAdjust="spacing" textLength="86" x="229" y="1043.4395">&#171;component&#187;</text><text fill="#000000" font-family="sans-serif" font-size="14" lengthAdjust="spacing" textLength="62" x="241" y="1062.0605">Controller</text><rect fill="#E2E2F0" height="51.2422" rx="2.5" ry="2.5" style="stroke:#181818;stroke-width:0.5;" width="100" x="374" y="75.6211"/><text fill="#000000" font-family="sans-serif" font-size="14" font-style="italic" lengthAdjust="spacing" textLength="86" x="381" y="97.7285">&#171;component&#187;</text><text fill="#000000" font-family="sans-serif" font-size="14" lengthAdjust="spacing" textLength="47" x="400.5" y="116.3496">Service</text><rect fill="#E2E2F0" height="51.2422" rx="2.5" ry="2.5" style="stroke:#181818;stroke-width:0.5;" width="100" x="374" y="1021.332"/><text fill="#000000" font-family="sans-serif" font-size="14" font-style="italic" lengthAdjust="spacing" textLength="86" x="381" y="1043.4395">&#171;component&#187;</text><text fill="#000000" font-family="sans-serif" font-size="14" lengthAdjust="spacing" textLength="47" x="400.5" y="1062.0605">Service</text><rect fill="#E2E2F0" height="51.2422" rx="2.5" ry="2.5" style="stroke:#181818;stroke-width:0.5;" width="165" x="515.5" y="75.6211"/><text fill="#000000" font-family="sans-serif" font-size="14" font-style="italic" lengthAdjust="spacing" textLength="86" x="555" y="97.7285">&#171;component&#187;</text><text fill="#000000" font-family="sans-serif" font-size="14" lengthAdjust="spacing" textLength="151" x="522.5" y="116.3496">Passageway Repository</text><rect fill="#E2E2F0" height="51.2422" rx="2.5" ry="2.5" style="stroke:#181818;stroke-width:0.5;" width="165" x="515.5" y="1021.332"/><text fill="#000000" font-family="sans-serif" font-size="14" font-style="italic" lengthAdjust="spacing" textLength="86" x="555" y="1043.4395">&#171;component&#187;</text><text fill="#000000" font-family="sans-serif" font-size="14" lengthAdjust="spacing" textLength="151" x="522.5" y="1062.0605">Passageway Repository</text><rect fill="#E2E2F0" height="51.2422" rx="2.5" ry="2.5" style="stroke:#181818;stroke-width:0.5;" width="119" x="690.5" y="75.6211"/><text fill="#000000" font-family="sans-serif" font-size="14" font-style="italic" lengthAdjust="spacing" textLength="86" x="707" y="97.7285">&#171;component&#187;</text><text fill="#000000" font-family="sans-serif" font-size="14" lengthAdjust="spacing" textLength="105" x="697.5" y="116.3496">Floor Repository</text><rect fill="#E2E2F0" height="51.2422" rx="2.5" ry="2.5" style="stroke:#181818;stroke-width:0.5;" width="119" x="690.5" y="1021.332"/><text fill="#000000" font-family="sans-serif" font-size="14" font-style="italic" lengthAdjust="spacing" textLength="86" x="707" y="1043.4395">&#171;component&#187;</text><text fill="#000000" font-family="sans-serif" font-size="14" lengthAdjust="spacing" textLength="105" x="697.5" y="1062.0605">Floor Repository</text><rect fill="#E2E2F0" height="51.2422" rx="2.5" ry="2.5" style="stroke:#181818;stroke-width:0.5;" width="100" x="819.5" y="1021.332"/><text fill="#000000" font-family="sans-serif" font-size="14" font-style="italic" lengthAdjust="spacing" textLength="86" x="826.5" y="1043.4395">&#171;component&#187;</text><text fill="#000000" font-family="sans-serif" font-size="14" lengthAdjust="spacing" textLength="79" x="830" y="1062.0605">Passageway</text><rect fill="#E2E2F0" height="51.2422" rx="2.5" ry="2.5" style="stroke:#181818;stroke-width:0.5;" width="100" x="929.5" y="75.6211"/><text fill="#000000" font-family="sans-serif" font-size="14" font-style="italic" lengthAdjust="spacing" textLength="86" x="936.5" y="97.7285">&#171;component&#187;</text><text fill="#000000" font-family="sans-serif" font-size="14" lengthAdjust="spacing" textLength="27" x="966" y="116.3496">Map</text><rect fill="#E2E2F0" height="51.2422" rx="2.5" ry="2.5" style="stroke:#181818;stroke-width:0.5;" width="100" x="929.5" y="1021.332"/><text fill="#000000" font-family="sans-serif" font-size="14" font-style="italic" lengthAdjust="spacing" textLength="86" x="936.5" y="1043.4395">&#171;component&#187;</text><text fill="#000000" font-family="sans-serif" font-size="14" lengthAdjust="spacing" textLength="27" x="966" y="1062.0605">Map</text><rect fill="#E2E2F0" height="51.2422" rx="2.5" ry="2.5" style="stroke:#181818;stroke-width:0.5;" width="100" x="1067.5" y="1021.332"/><text fill="#000000" font-family="sans-serif" font-size="14" font-style="italic" lengthAdjust="spacing" textLength="86" x="1074.5" y="1043.4395">&#171;component&#187;</text><text fill="#000000" font-family="sans-serif" font-size="14" lengthAdjust="spacing" textLength="30" x="1102.5" y="1062.0605">DTO</text><text fill="#000000" font-family="sans-serif" font-size="14" font-style="italic" lengthAdjust="spacing" textLength="86" x="1177.5" y="105.7285">&#171;component&#187;</text><text fill="#000000" font-family="sans-serif" font-size="14" lengthAdjust="spacing" textLength="61" x="1190" y="124.3496">Database</text><path d="M1205.5,54.6211 C1205.5,44.6211 1223.5,44.6211 1223.5,44.6211 C1223.5,44.6211 1241.5,44.6211 1241.5,54.6211 L1241.5,80.6211 C1241.5,90.6211 1223.5,90.6211 1223.5,90.6211 C1223.5,90.6211 1205.5,90.6211 1205.5,80.6211 L1205.5,54.6211 " fill="#E2E2F0" style="stroke:#181818;stroke-width:1.5;"/><path d="M1205.5,54.6211 C1205.5,64.6211 1223.5,64.6211 1223.5,64.6211 C1223.5,64.6211 1241.5,64.6211 1241.5,54.6211 " fill="none" style="stroke:#181818;stroke-width:1.5;"/><text fill="#000000" font-family="sans-serif" font-size="14" font-style="italic" lengthAdjust="spacing" textLength="86" x="1177.5" y="1036.4395">&#171;component&#187;</text><text fill="#000000" font-family="sans-serif" font-size="14" lengthAdjust="spacing" textLength="61" x="1190" y="1055.0605">Database</text><path d="M1205.5,1068.5742 C1205.5,1058.5742 1223.5,1058.5742 1223.5,1058.5742 C1223.5,1058.5742 1241.5,1058.5742 1241.5,1068.5742 L1241.5,1094.5742 C1241.5,1104.5742 1223.5,1104.5742 1223.5,1104.5742 C1223.5,1104.5742 1205.5,1104.5742 1205.5,1094.5742 L1205.5,1068.5742 " fill="#E2E2F0" style="stroke:#181818;stroke-width:1.5;"/><path d="M1205.5,1068.5742 C1205.5,1078.5742 1223.5,1078.5742 1223.5,1078.5742 C1223.5,1078.5742 1241.5,1078.5742 1241.5,1068.5742 " fill="none" style="stroke:#181818;stroke-width:1.5;"/><rect fill="#FFFFFF" height="843.1777" style="stroke:#181818;stroke-width:1.0;" width="10" x="115" y="161.1543"/><rect fill="#FFFFFF" height="780.5957" style="stroke:#181818;stroke-width:1.0;" width="10" x="267" y="192.4453"/><rect fill="#FFFFFF" height="718.0137" style="stroke:#181818;stroke-width:1.0;" width="10" x="419" y="223.7363"/><rect fill="#FFFFFF" height="93.873" style="stroke:#181818;stroke-width:1.0;" width="10" x="593" y="272.3184"/><rect fill="#FFFFFF" height="93.873" style="stroke:#181818;stroke-width:1.0;" width="10" x="745" y="397.4824"/><rect fill="#FFFFFF" height="96.5332" style="stroke:#181818;stroke-width:1.0;" width="10" x="864.5" y="532.6465"/><rect fill="#FFFFFF" height="124.8242" style="stroke:#181818;stroke-width:1.0;" width="10" x="974.5" y="785.6348"/><rect fill="#FFFFFF" height="52.2422" style="stroke:#181818;stroke-width:1.0;" width="10" x="1112.5" y="826.9258"/><rect fill="#FFFFFF" height="31.291" style="stroke:#181818;stroke-width:1.0;" width="10" x="1218.5" y="303.6094"/><rect fill="#FFFFFF" height="31.291" style="stroke:#181818;stroke-width:1.0;" width="10" x="1218.5" y="428.7734"/><rect fill="#FFFFFF" height="31.291" style="stroke:#181818;stroke-width:1.0;" width="10" x="1218.5" y="691.7617"/><ellipse cx="46.5" cy="160.4043" fill="none" rx="4" ry="4" style="stroke:#181818;stroke-width:1.5;"/><line style="stroke:#181818;stroke-width:1.0;" x1="113" x2="103" y1="161.1543" y2="157.1543"/><line style="stroke:#181818;stroke-width:1.0;" x1="113" x2="103" y1="161.1543" y2="165.1543"/><line style="stroke:#181818;stroke-width:1.0;" x1="51" x2="114" y1="161.1543" y2="161.1543"/><text fill="#000000" font-family="sans-serif" font-size="13" font-weight="bold" lengthAdjust="spacing" textLength="7" x="54" y="155.8916">1</text><text fill="#000000" font-family="sans-serif" font-size="13" lengthAdjust="spacing" textLength="35" x="65" y="155.8916">POST</text><line style="stroke:#181818;stroke-width:1.0;" x1="265" x2="255" y1="192.4453" y2="188.4453"/><line style="stroke:#181818;stroke-width:1.0;" x1="265" x2="255" y1="192.4453" y2="196.4453"/><line style="stroke:#181818;stroke-width:1.0;" x1="125" x2="266" y1="192.4453" y2="192.4453"/><text fill="#000000" font-family="sans-serif" font-size="13" font-weight="bold" lengthAdjust="spacing" textLength="7" x="132" y="187.1826">2</text><text fill="#000000" font-family="sans-serif" font-size="13" lengthAdjust="spacing" textLength="112" x="143" y="187.1826">create passageway</text><line style="stroke:#181818;stroke-width:1.0;" x1="417" x2="407" y1="223.7363" y2="219.7363"/><line style="stroke:#181818;stroke-width:1.0;" x1="417" x2="407" y1="223.7363" y2="227.7363"/><line style="stroke:#181818;stroke-width:1.0;" x1="277" x2="418" y1="223.7363" y2="223.7363"/><text fill="#000000" font-family="sans-serif" font-size="13" font-weight="bold" lengthAdjust="spacing" textLength="7" x="284" y="218.4736">3</text><text fill="#000000" font-family="sans-serif" font-size="13" lengthAdjust="spacing" textLength="112" x="295" y="218.4736">create passageway</text><line style="stroke:#181818;stroke-width:1.0;" x1="591" x2="581" y1="272.3184" y2="268.3184"/><line style="stroke:#181818;stroke-width:1.0;" x1="591" x2="581" y1="272.3184" y2="276.3184"/><line style="stroke:#181818;stroke-width:1.0;" x1="429" x2="592" y1="272.3184" y2="272.3184"/><text fill="#000000" font-family="sans-serif" font-size="13" font-weight="bold" lengthAdjust="spacing" textLength="7" x="436" y="258.4102">4</text><text fill="#000000" font-family="sans-serif" font-size="13" lengthAdjust="spacing" textLength="125" x="447" y="249.7646">verifies if passageway</text><text fill="#000000" font-family="sans-serif" font-size="13" lengthAdjust="spacing" textLength="81" x="451" y="267.0557">already exists</text><line style="stroke:#181818;stroke-width:1.0;" x1="1216.5" x2="1206.5" y1="303.6094" y2="299.6094"/><line style="stroke:#181818;stroke-width:1.0;" x1="1216.5" x2="1206.5" y1="303.6094" y2="307.6094"/><line style="stroke:#181818;stroke-width:1.0;" x1="603" x2="1217.5" y1="303.6094" y2="303.6094"/><text fill="#000000" font-family="sans-serif" font-size="13" font-weight="bold" lengthAdjust="spacing" textLength="7" x="610" y="298.3467">5</text><text fill="#000000" font-family="sans-serif" font-size="13" lengthAdjust="spacing" textLength="111" x="621" y="298.3467">select passageway</text><line style="stroke:#181818;stroke-width:1.0;" x1="604" x2="614" y1="334.9004" y2="330.9004"/><line style="stroke:#181818;stroke-width:1.0;" x1="604" x2="614" y1="334.9004" y2="338.9004"/><line style="stroke:#181818;stroke-width:1.0;stroke-dasharray:2.0,2.0;" x1="603" x2="1222.5" y1="334.9004" y2="334.9004"/><text fill="#000000" font-family="sans-serif" font-size="13" font-weight="bold" lengthAdjust="spacing" textLength="7" x="620" y="329.6377">6</text><text fill="#000000" font-family="sans-serif" font-size="13" lengthAdjust="spacing" textLength="72" x="631" y="329.6377">passageway</text><line style="stroke:#181818;stroke-width:1.0;" x1="430" x2="440" y1="366.1914" y2="362.1914"/><line style="stroke:#181818;stroke-width:1.0;" x1="430" x2="440" y1="366.1914" y2="370.1914"/><line style="stroke:#181818;stroke-width:1.0;stroke-dasharray:2.0,2.0;" x1="429" x2="597" y1="366.1914" y2="366.1914"/><text fill="#000000" font-family="sans-serif" font-size="13" font-weight="bold" lengthAdjust="spacing" textLength="7" x="446" y="360.9287">7</text><text fill="#000000" font-family="sans-serif" font-size="13" lengthAdjust="spacing" textLength="129" x="457" y="360.9287">passageway not found</text><line style="stroke:#181818;stroke-width:1.0;" x1="743" x2="733" y1="397.4824" y2="393.4824"/><line style="stroke:#181818;stroke-width:1.0;" x1="743" x2="733" y1="397.4824" y2="401.4824"/><line style="stroke:#181818;stroke-width:1.0;" x1="429" x2="744" y1="397.4824" y2="397.4824"/><text fill="#000000" font-family="sans-serif" font-size="13" font-weight="bold" lengthAdjust="spacing" textLength="7" x="436" y="392.2197">8</text><text fill="#000000" font-family="sans-serif" font-size="13" lengthAdjust="spacing" textLength="123" x="447" y="392.2197">verifies if floors exists</text><line style="stroke:#181818;stroke-width:1.0;" x1="1216.5" x2="1206.5" y1="428.7734" y2="424.7734"/><line style="stroke:#181818;stroke-width:1.0;" x1="1216.5" x2="1206.5" y1="428.7734" y2="432.7734"/><line style="stroke:#181818;stroke-width:1.0;" x1="755" x2="1217.5" y1="428.7734" y2="428.7734"/><text fill="#000000" font-family="sans-serif" font-size="13" font-weight="bold" lengthAdjust="spacing" textLength="7" x="762" y="423.5107">9</text><text fill="#000000" font-family="sans-serif" font-size="13" lengthAdjust="spacing" textLength="70" x="773" y="423.5107">select floors</text><line style="stroke:#181818;stroke-width:1.0;" x1="756" x2="766" y1="460.0645" y2="456.0645"/><line style="stroke:#181818;stroke-width:1.0;" x1="756" x2="766" y1="460.0645" y2="464.0645"/><line style="stroke:#181818;stroke-width:1.0;stroke-dasharray:2.0,2.0;" x1="755" x2="1222.5" y1="460.0645" y2="460.0645"/><text fill="#000000" font-family="sans-serif" font-size="13" font-weight="bold" lengthAdjust="spacing" textLength="14" x="772" y="454.8018">10</text><text fill="#000000" font-family="sans-serif" font-size="13" lengthAdjust="spacing" textLength="31" x="790" y="454.8018">floors</text><line style="stroke:#181818;stroke-width:1.0;" x1="430" x2="440" y1="491.3555" y2="487.3555"/><line style="stroke:#181818;stroke-width:1.0;" x1="430" x2="440" y1="491.3555" y2="495.3555"/><line style="stroke:#181818;stroke-width:1.0;stroke-dasharray:2.0,2.0;" x1="429" x2="749" y1="491.3555" y2="491.3555"/><text fill="#000000" font-family="sans-serif" font-size="13" font-weight="bold" lengthAdjust="spacing" textLength="14" x="446" y="486.0928">11</text><text fill="#000000" font-family="sans-serif" font-size="13" lengthAdjust="spacing" textLength="66" x="464" y="486.0928">floors found</text><line style="stroke:#181818;stroke-width:1.0;" x1="817.5" x2="807.5" y1="522.6465" y2="518.6465"/><line style="stroke:#181818;stroke-width:1.0;" x1="817.5" x2="807.5" y1="522.6465" y2="526.6465"/><line style="stroke:#181818;stroke-width:1.0;" x1="429" x2="818.5" y1="522.6465" y2="522.6465"/><text fill="#000000" font-family="sans-serif" font-size="13" font-weight="bold" lengthAdjust="spacing" textLength="14" x="436" y="517.3838">12</text><text fill="#000000" font-family="sans-serif" font-size="13" lengthAdjust="spacing" textLength="36" x="454" y="517.3838">create</text><rect fill="#E2E2F0" height="51.2422" rx="2.5" ry="2.5" style="stroke:#181818;stroke-width:0.5;" width="100" x="819.5" y="499.3555"/><text fill="#000000" font-family="sans-serif" font-size="14" font-style="italic" lengthAdjust="spacing" textLength="86" x="826.5" y="521.4629">&#171;component&#187;</text><text fill="#000000" font-family="sans-serif" font-size="14" lengthAdjust="spacing" textLength="79" x="830" y="540.084">Passageway</text><line style="stroke:#181818;stroke-width:1.0;stroke-dasharray:2.0,2.0;" x1="874.5" x2="916.5" y1="584.8887" y2="584.8887"/><line style="stroke:#181818;stroke-width:1.0;stroke-dasharray:2.0,2.0;" x1="916.5" x2="916.5" y1="584.8887" y2="597.8887"/><line style="stroke:#181818;stroke-width:1.0;stroke-dasharray:2.0,2.0;" x1="875.5" x2="916.5" y1="597.8887" y2="597.8887"/><line style="stroke:#181818;stroke-width:1.0;" x1="875.5" x2="885.5" y1="597.8887" y2="593.8887"/><line style="stroke:#181818;stroke-width:1.0;" x1="875.5" x2="885.5" y1="597.8887" y2="601.8887"/><text fill="#000000" font-family="sans-serif" font-size="13" font-weight="bold" lengthAdjust="spacing" textLength="14" x="881.5" y="579.626">13</text><text fill="#000000" font-family="sans-serif" font-size="13" lengthAdjust="spacing" textLength="39" x="899.5" y="579.626">verifies</text><line style="stroke:#181818;stroke-width:1.0;" x1="430" x2="440" y1="629.1797" y2="625.1797"/><line style="stroke:#181818;stroke-width:1.0;" x1="430" x2="440" y1="629.1797" y2="633.1797"/><line style="stroke:#181818;stroke-width:1.0;stroke-dasharray:2.0,2.0;" x1="429" x2="868.5" y1="629.1797" y2="629.1797"/><text fill="#000000" font-family="sans-serif" font-size="13" font-weight="bold" lengthAdjust="spacing" textLength="14" x="446" y="623.917">14</text><text fill="#000000" font-family="sans-serif" font-size="13" lengthAdjust="spacing" textLength="43" x="464" y="623.917">created</text><line style="stroke:#181818;stroke-width:1.0;" x1="596" x2="586" y1="660.4707" y2="656.4707"/><line style="stroke:#181818;stroke-width:1.0;" x1="596" x2="586" y1="660.4707" y2="664.4707"/><line style="stroke:#181818;stroke-width:1.0;" x1="429" x2="597" y1="660.4707" y2="660.4707"/><text fill="#000000" font-family="sans-serif" font-size="13" font-weight="bold" lengthAdjust="spacing" textLength="14" x="436" y="655.208">15</text><text fill="#000000" font-family="sans-serif" font-size="13" lengthAdjust="spacing" textLength="26" x="454" y="655.208">save</text><line style="stroke:#181818;stroke-width:1.0;" x1="1216.5" x2="1206.5" y1="691.7617" y2="687.7617"/><line style="stroke:#181818;stroke-width:1.0;" x1="1216.5" x2="1206.5" y1="691.7617" y2="695.7617"/><line style="stroke:#181818;stroke-width:1.0;" x1="598" x2="1217.5" y1="691.7617" y2="691.7617"/><text fill="#000000" font-family="sans-serif" font-size="13" font-weight="bold" lengthAdjust="spacing" textLength="14" x="605" y="686.499">16</text><text fill="#000000" font-family="sans-serif" font-size="13" lengthAdjust="spacing" textLength="108" x="623" y="686.499">insert passageway</text><line style="stroke:#181818;stroke-width:1.0;" x1="599" x2="609" y1="723.0527" y2="719.0527"/><line style="stroke:#181818;stroke-width:1.0;" x1="599" x2="609" y1="723.0527" y2="727.0527"/><line style="stroke:#181818;stroke-width:1.0;stroke-dasharray:2.0,2.0;" x1="598" x2="1222.5" y1="723.0527" y2="723.0527"/><text fill="#000000" font-family="sans-serif" font-size="13" font-weight="bold" lengthAdjust="spacing" textLength="14" x="615" y="717.79">17</text><text fill="#000000" font-family="sans-serif" font-size="13" lengthAdjust="spacing" textLength="49" x="633" y="717.79">success</text><line style="stroke:#181818;stroke-width:1.0;" x1="430" x2="440" y1="754.3438" y2="750.3438"/><line style="stroke:#181818;stroke-width:1.0;" x1="430" x2="440" y1="754.3438" y2="758.3438"/><line style="stroke:#181818;stroke-width:1.0;stroke-dasharray:2.0,2.0;" x1="429" x2="597" y1="754.3438" y2="754.3438"/><text fill="#000000" font-family="sans-serif" font-size="13" font-weight="bold" lengthAdjust="spacing" textLength="14" x="446" y="749.0811">18</text><text fill="#000000" font-family="sans-serif" font-size="13" lengthAdjust="spacing" textLength="49" x="464" y="749.0811">success</text><line style="stroke:#181818;stroke-width:1.0;" x1="972.5" x2="962.5" y1="785.6348" y2="781.6348"/><line style="stroke:#181818;stroke-width:1.0;" x1="972.5" x2="962.5" y1="785.6348" y2="789.6348"/><line style="stroke:#181818;stroke-width:1.0;" x1="429" x2="973.5" y1="785.6348" y2="785.6348"/><text fill="#000000" font-family="sans-serif" font-size="13" font-weight="bold" lengthAdjust="spacing" textLength="14" x="436" y="780.3721">19</text><text fill="#000000" font-family="sans-serif" font-size="13" lengthAdjust="spacing" textLength="86" x="454" y="780.3721">convert to DTO</text><line style="stroke:#181818;stroke-width:1.0;" x1="1065.5" x2="1055.5" y1="816.9258" y2="812.9258"/><line style="stroke:#181818;stroke-width:1.0;" x1="1065.5" x2="1055.5" y1="816.9258" y2="820.9258"/><line style="stroke:#181818;stroke-width:1.0;stroke-dasharray:2.0,2.0;" x1="984.5" x2="1066.5" y1="816.9258" y2="816.9258"/><text fill="#000000" font-family="sans-serif" font-size="13" font-weight="bold" lengthAdjust="spacing" textLength="14" x="991.5" y="811.6631">20</text><text fill="#000000" font-family="sans-serif" font-size="13" lengthAdjust="spacing" textLength="41" x="1009.5" y="811.6631">convert</text><rect fill="#E2E2F0" height="51.2422" rx="2.5" ry="2.5" style="stroke:#181818;stroke-width:0.5;" width="100" x="1067.5" y="793.6348"/><text fill="#000000" font-family="sans-serif" font-size="14" font-style="italic" lengthAdjust="spacing" textLength="86" x="1074.5" y="815.7422">&#171;component&#187;</text><text fill="#000000" font-family="sans-serif" font-size="14" lengthAdjust="spacing" textLength="30" x="1102.5" y="834.3633">DTO</text><line style="stroke:#181818;stroke-width:1.0;" x1="985.5" x2="995.5" y1="879.168" y2="875.168"/><line style="stroke:#181818;stroke-width:1.0;" x1="985.5" x2="995.5" y1="879.168" y2="883.168"/><line style="stroke:#181818;stroke-width:1.0;stroke-dasharray:2.0,2.0;" x1="984.5" x2="1116.5" y1="879.168" y2="879.168"/><text fill="#000000" font-family="sans-serif" font-size="13" font-weight="bold" lengthAdjust="spacing" textLength="14" x="1001.5" y="873.9053">21</text><text fill="#000000" font-family="sans-serif" font-size="13" lengthAdjust="spacing" textLength="18" x="1019.5" y="873.9053">dto</text><line style="stroke:#181818;stroke-width:1.0;" x1="430" x2="440" y1="910.459" y2="906.459"/><line style="stroke:#181818;stroke-width:1.0;" x1="430" x2="440" y1="910.459" y2="914.459"/><line style="stroke:#181818;stroke-width:1.0;stroke-dasharray:2.0,2.0;" x1="429" x2="978.5" y1="910.459" y2="910.459"/><text fill="#000000" font-family="sans-serif" font-size="13" font-weight="bold" lengthAdjust="spacing" textLength="14" x="446" y="905.1963">22</text><text fill="#000000" font-family="sans-serif" font-size="13" lengthAdjust="spacing" textLength="18" x="464" y="905.1963">dto</text><line style="stroke:#181818;stroke-width:1.0;" x1="278" x2="288" y1="941.75" y2="937.75"/><line style="stroke:#181818;stroke-width:1.0;" x1="278" x2="288" y1="941.75" y2="945.75"/><line style="stroke:#181818;stroke-width:1.0;stroke-dasharray:2.0,2.0;" x1="277" x2="423" y1="941.75" y2="941.75"/><text fill="#000000" font-family="sans-serif" font-size="13" font-weight="bold" lengthAdjust="spacing" textLength="14" x="294" y="936.4873">23</text><text fill="#000000" font-family="sans-serif" font-size="13" lengthAdjust="spacing" textLength="49" x="312" y="936.4873">success</text><line style="stroke:#181818;stroke-width:1.0;" x1="126" x2="136" y1="973.041" y2="969.041"/><line style="stroke:#181818;stroke-width:1.0;" x1="126" x2="136" y1="973.041" y2="977.041"/><line style="stroke:#181818;stroke-width:1.0;stroke-dasharray:2.0,2.0;" x1="125" x2="271" y1="973.041" y2="973.041"/><text fill="#000000" font-family="sans-serif" font-size="13" font-weight="bold" lengthAdjust="spacing" textLength="14" x="142" y="967.7783">24</text><text fill="#000000" font-family="sans-serif" font-size="13" lengthAdjust="spacing" textLength="49" x="160" y="967.7783">success</text><line style="stroke:#181818;stroke-width:1.0;" x1="6.5" x2="16.5" y1="1004.332" y2="1000.332"/><line style="stroke:#181818;stroke-width:1.0;" x1="6.5" x2="16.5" y1="1004.332" y2="1008.332"/><line style="stroke:#181818;stroke-width:1.0;stroke-dasharray:2.0,2.0;" x1="0" x2="119" y1="1004.332" y2="1004.332"/><text fill="#000000" font-family="sans-serif" font-size="13" font-weight="bold" lengthAdjust="spacing" textLength="14" x="17" y="999.0693">25</text><text fill="#000000" font-family="sans-serif" font-size="13" lengthAdjust="spacing" textLength="70" x="35" y="999.0693">201 Created</text><!--SRC=[bLNBRjim4BppAuWS0mXeUnGCzv2Wjo91d6CkQseT4959WLofzT-7r8ClomfoeycPsTc7Lz2JLltvY8RP3wawC73c7OWFUCS3NLha1WKnHfBS-S4W479m26iTuXzS67CSaa9se8ZVlUYUf7g_us2vcSvyjnFwt6c5YlRx7FwW5HdTjcX6XWW_jqW7D8CKE3BiTDw2FmUl_0KxRILfSnd9CGlZ7hOq_hHQcv9-yfTVCMFq8kGMwIzq8_eCtHRiyVLfX3LKMcY0u0WM7MO-JS1ZWME_TRNVXqxL_FdfyCf0a1nye-TxjhnxRDAZcejf8D9n2EG8P0d7IonDs-RFABQWFRFeMCq7DF8aqN9vIclxfZYqJhkvSFmlBTb4DzTWXQIFuifKk_2jc_pKMb1eZin1gbL32Rx1b74LAAz4ObvfuYVTgoPLA5ndLOc3c1TalBTB1O9KWBD8BDEUgAiffz5cM95f8fidEHkwIYuwkj7j-_imB6kDJ8jRzYMMv1fL3kADYhFj6RGmuCqnaifnlpz6jXS2hVtU3AsGjiR6RvVQ_qq7xz3j4BTFeZltofY7Z47SYfbwCA6J9CYf-WLKHKb_bnhtaA0KxHQmCM3mTxLgLf9RDaIsN_9zji9Azf9RVxjTLINuNpz-pb-vR1QMHVW9]--></g></svg>