<?xml version="1.0" encoding="us-ascii" standalone="no"?><svg xmlns="http://www.w3.org/2000/svg" xmlns:xlink="http://www.w3.org/1999/xlink" contentStyleType="text/css" height="476px" preserveAspectRatio="none" style="width:690px;height:476px;background:#FFFFFF;" version="1.1" viewBox="0 0 690 476" width="690px" zoomAndPan="magnify"><defs/><g><text fill="#000000" font-family="sans-serif" font-size="14" font-weight="bold" lengthAdjust="spacing" textLength="128" x="277.5" y="30.1074">Edit a passageway</text><rect fill="#FFFFFF" height="219.0371" style="stroke:#181818;stroke-width:1.0;" width="10" x="59" y="156.5332"/><rect fill="#FFFFFF" height="219.0371" style="stroke:#181818;stroke-width:1.0;" width="10" x="244" y="156.5332"/><rect fill="#FFFFFF" height="156.4551" style="stroke:#181818;stroke-width:1.0;" width="10" x="381" y="187.8242"/><line style="stroke:#181818;stroke-width:0.5;stroke-dasharray:5.0,5.0;" x1="64" x2="64" y1="123.2422" y2="393.5703"/><line style="stroke:#181818;stroke-width:0.5;stroke-dasharray:5.0,5.0;" x1="249" x2="249" y1="123.2422" y2="393.5703"/><line style="stroke:#181818;stroke-width:0.5;stroke-dasharray:5.0,5.0;" x1="386" x2="386" y1="123.2422" y2="393.5703"/><line style="stroke:#181818;stroke-width:0.5;stroke-dasharray:5.0,5.0;" x1="523" x2="523" y1="123.2422" y2="393.5703"/><text fill="#000000" font-family="sans-serif" font-size="14" lengthAdjust="spacing" textLength="112" x="5" y="119.7285">Campus Manager</text><ellipse cx="64" cy="53.1211" fill="#E2E2F0" rx="8" ry="8" style="stroke:#181818;stroke-width:0.5;"/><path d="M64,61.1211 L64,88.1211 M51,69.1211 L77,69.1211 M64,88.1211 L51,103.1211 M64,88.1211 L77,103.1211 " fill="none" style="stroke:#181818;stroke-width:0.5;"/><text fill="#000000" font-family="sans-serif" font-size="14" lengthAdjust="spacing" textLength="112" x="5" y="407.6777">Campus Manager</text><ellipse cx="64" cy="419.6914" fill="#E2E2F0" rx="8" ry="8" style="stroke:#181818;stroke-width:0.5;"/><path d="M64,427.6914 L64,454.6914 M51,435.6914 L77,435.6914 M64,454.6914 L51,469.6914 M64,454.6914 L77,469.6914 " fill="none" style="stroke:#181818;stroke-width:0.5;"/><rect fill="#E2E2F0" height="51.2422" rx="2.5" ry="2.5" style="stroke:#181818;stroke-width:0.5;" width="100" x="199" y="71"/><text fill="#000000" font-family="sans-serif" font-size="14" font-style="italic" lengthAdjust="spacing" textLength="86" x="206" y="93.1074">&#171;component&#187;</text><text fill="#000000" font-family="sans-serif" font-size="14" lengthAdjust="spacing" textLength="49" x="224.5" y="111.7285">Routing</text><rect fill="#E2E2F0" height="51.2422" rx="2.5" ry="2.5" style="stroke:#181818;stroke-width:0.5;" width="100" x="199" y="392.5703"/><text fill="#000000" font-family="sans-serif" font-size="14" font-style="italic" lengthAdjust="spacing" textLength="86" x="206" y="414.6777">&#171;component&#187;</text><text fill="#000000" font-family="sans-serif" font-size="14" lengthAdjust="spacing" textLength="49" x="224.5" y="433.2988">Routing</text><rect fill="#E2E2F0" height="51.2422" rx="2.5" ry="2.5" style="stroke:#181818;stroke-width:0.5;" width="100" x="336" y="71"/><text fill="#000000" font-family="sans-serif" font-size="14" font-style="italic" lengthAdjust="spacing" textLength="86" x="343" y="93.1074">&#171;component&#187;</text><text fill="#000000" font-family="sans-serif" font-size="14" lengthAdjust="spacing" textLength="73" x="349.5" y="111.7285">Component</text><rect fill="#E2E2F0" height="51.2422" rx="2.5" ry="2.5" style="stroke:#181818;stroke-width:0.5;" width="100" x="336" y="392.5703"/><text fill="#000000" font-family="sans-serif" font-size="14" font-style="italic" lengthAdjust="spacing" textLength="86" x="343" y="414.6777">&#171;component&#187;</text><text fill="#000000" font-family="sans-serif" font-size="14" lengthAdjust="spacing" textLength="73" x="349.5" y="433.2988">Component</text><rect fill="#E2E2F0" height="51.2422" rx="2.5" ry="2.5" style="stroke:#181818;stroke-width:0.5;" width="100" x="473" y="71"/><text fill="#000000" font-family="sans-serif" font-size="14" font-style="italic" lengthAdjust="spacing" textLength="86" x="480" y="93.1074">&#171;component&#187;</text><text fill="#000000" font-family="sans-serif" font-size="14" lengthAdjust="spacing" textLength="47" x="499.5" y="111.7285">Service</text><rect fill="#E2E2F0" height="51.2422" rx="2.5" ry="2.5" style="stroke:#181818;stroke-width:0.5;" width="100" x="473" y="392.5703"/><text fill="#000000" font-family="sans-serif" font-size="14" font-style="italic" lengthAdjust="spacing" textLength="86" x="480" y="414.6777">&#171;component&#187;</text><text fill="#000000" font-family="sans-serif" font-size="14" lengthAdjust="spacing" textLength="47" x="499.5" y="433.2988">Service</text><rect fill="#FFFFFF" height="219.0371" style="stroke:#181818;stroke-width:1.0;" width="10" x="59" y="156.5332"/><rect fill="#FFFFFF" height="219.0371" style="stroke:#181818;stroke-width:1.0;" width="10" x="244" y="156.5332"/><rect fill="#FFFFFF" height="156.4551" style="stroke:#181818;stroke-width:1.0;" width="10" x="381" y="187.8242"/><line style="stroke:#181818;stroke-width:1.0;" x1="242" x2="232" y1="156.5332" y2="152.5332"/><line style="stroke:#181818;stroke-width:1.0;" x1="242" x2="232" y1="156.5332" y2="160.5332"/><line style="stroke:#181818;stroke-width:1.0;" x1="69" x2="243" y1="156.5332" y2="156.5332"/><text fill="#000000" font-family="sans-serif" font-size="13" font-weight="bold" lengthAdjust="spacing" textLength="7" x="76" y="151.2705">1</text><text fill="#000000" font-family="sans-serif" font-size="13" lengthAdjust="spacing" textLength="150" x="87" y="151.2705">wants to edit passageway</text><line style="stroke:#181818;stroke-width:1.0;" x1="379" x2="369" y1="187.8242" y2="183.8242"/><line style="stroke:#181818;stroke-width:1.0;" x1="379" x2="369" y1="187.8242" y2="191.8242"/><line style="stroke:#181818;stroke-width:1.0;" x1="254" x2="380" y1="187.8242" y2="187.8242"/><text fill="#000000" font-family="sans-serif" font-size="13" font-weight="bold" lengthAdjust="spacing" textLength="7" x="261" y="182.5615">2</text><text fill="#000000" font-family="sans-serif" font-size="13" lengthAdjust="spacing" textLength="97" x="272" y="182.5615">edit passageway</text><line style="stroke:#181818;stroke-width:1.0;" x1="521" x2="511" y1="219.1152" y2="215.1152"/><line style="stroke:#181818;stroke-width:1.0;" x1="521" x2="511" y1="219.1152" y2="223.1152"/><line style="stroke:#181818;stroke-width:1.0;" x1="391" x2="522" y1="219.1152" y2="219.1152"/><text fill="#000000" font-family="sans-serif" font-size="13" font-weight="bold" lengthAdjust="spacing" textLength="7" x="398" y="213.8525">3</text><text fill="#000000" font-family="sans-serif" font-size="13" lengthAdjust="spacing" textLength="97" x="409" y="213.8525">edit passageway</text><line style="stroke:#181818;stroke-width:1.0;" x1="682" x2="672" y1="250.4063" y2="246.4063"/><line style="stroke:#181818;stroke-width:1.0;" x1="682" x2="672" y1="250.4063" y2="254.4063"/><line style="stroke:#181818;stroke-width:1.0;" x1="523" x2="683" y1="250.4063" y2="250.4063"/><text fill="#000000" font-family="sans-serif" font-size="13" font-weight="bold" lengthAdjust="spacing" textLength="7" x="530" y="245.1436">4</text><text fill="#000000" font-family="sans-serif" font-size="13" lengthAdjust="spacing" textLength="126" x="541" y="245.1436">Http request (PATCH)</text><line style="stroke:#181818;stroke-width:1.0;" x1="524" x2="534" y1="281.6973" y2="277.6973"/><line style="stroke:#181818;stroke-width:1.0;" x1="524" x2="534" y1="281.6973" y2="285.6973"/><line style="stroke:#181818;stroke-width:1.0;stroke-dasharray:2.0,2.0;" x1="523" x2="683" y1="281.6973" y2="281.6973"/><text fill="#000000" font-family="sans-serif" font-size="13" font-weight="bold" lengthAdjust="spacing" textLength="7" x="540" y="276.4346">5</text><text fill="#000000" font-family="sans-serif" font-size="13" lengthAdjust="spacing" textLength="114" x="551" y="276.4346">Http response (200)</text><line style="stroke:#181818;stroke-width:1.0;" x1="392" x2="402" y1="312.9883" y2="308.9883"/><line style="stroke:#181818;stroke-width:1.0;" x1="392" x2="402" y1="312.9883" y2="316.9883"/><line style="stroke:#181818;stroke-width:1.0;stroke-dasharray:2.0,2.0;" x1="391" x2="522" y1="312.9883" y2="312.9883"/><text fill="#000000" font-family="sans-serif" font-size="13" font-weight="bold" lengthAdjust="spacing" textLength="7" x="408" y="307.7256">6</text><text fill="#000000" font-family="sans-serif" font-size="13" lengthAdjust="spacing" textLength="49" x="419" y="307.7256">success</text><line style="stroke:#181818;stroke-width:1.0;" x1="255" x2="265" y1="344.2793" y2="340.2793"/><line style="stroke:#181818;stroke-width:1.0;" x1="255" x2="265" y1="344.2793" y2="348.2793"/><line style="stroke:#181818;stroke-width:1.0;stroke-dasharray:2.0,2.0;" x1="254" x2="385" y1="344.2793" y2="344.2793"/><text fill="#000000" font-family="sans-serif" font-size="13" font-weight="bold" lengthAdjust="spacing" textLength="7" x="271" y="339.0166">7</text><text fill="#000000" font-family="sans-serif" font-size="13" lengthAdjust="spacing" textLength="49" x="282" y="339.0166">success</text><line style="stroke:#181818;stroke-width:1.0;" x1="65" x2="75" y1="375.5703" y2="371.5703"/><line style="stroke:#181818;stroke-width:1.0;" x1="65" x2="75" y1="375.5703" y2="379.5703"/><line style="stroke:#181818;stroke-width:1.0;stroke-dasharray:2.0,2.0;" x1="64" x2="248" y1="375.5703" y2="375.5703"/><text fill="#000000" font-family="sans-serif" font-size="13" font-weight="bold" lengthAdjust="spacing" textLength="7" x="81" y="370.3076">8</text><text fill="#000000" font-family="sans-serif" font-size="13" lengthAdjust="spacing" textLength="106" x="92" y="370.3076">success message</text><!--SRC=[VP3DQiD038JlUWhXKt8mX1vDC1HJoCLGchw0kX5XIRrsLt92thwx6_-b2Rs9dM-qCw9UMzStN-n1JjPrvAd1Zio9ZhpNwpUZPwC0QZNCRmUhI44N2Vg5hW1ajFMOLTHqlM1DBWW-GnAiQWZhr1hRaLFCFjfUhJicpTzct6vDstIjOwTbUOzNev0C4VkFthC_MyE9bTly1mUewhmifwyBl0IdeBR8iTQYLEXapwGSAqppu8FH7tUbLCM3VpP5018LyJ7O4ySeHQp0dMeN3l_JioYktby_gzqQvbfvFZCI2WhZwcMpMI_MBD99RmoBm86dM0C6GxJxippXKurml_Jr0uaDfo9BntYjnLCuvYy0]--></g></svg>