<?xml version="1.0" encoding="us-ascii" standalone="no"?><svg xmlns="http://www.w3.org/2000/svg" xmlns:xlink="http://www.w3.org/1999/xlink" contentStyleType="text/css" height="476px" preserveAspectRatio="none" style="width:626px;height:476px;background:#FFFFFF;" version="1.1" viewBox="0 0 626 476" width="626px" zoomAndPan="magnify"><defs/><g><text fill="#000000" font-family="sans-serif" font-size="14" font-weight="bold" lengthAdjust="spacing" textLength="165" x="227" y="30.1074">Create a room in a floor</text><rect fill="#FFFFFF" height="251.3281" style="stroke:#181818;stroke-width:1.0;" width="10" x="59" y="133.2422"/><rect fill="#FFFFFF" height="219.0371" style="stroke:#181818;stroke-width:1.0;" width="10" x="269" y="156.5332"/><rect fill="#FFFFFF" height="156.4551" style="stroke:#181818;stroke-width:1.0;" width="10" x="379" y="187.8242"/><rect fill="#FFFFFF" height="93.873" style="stroke:#181818;stroke-width:1.0;" width="10" x="489" y="219.1152"/><line style="stroke:#181818;stroke-width:0.5;stroke-dasharray:5.0,5.0;" x1="64" x2="64" y1="123.2422" y2="393.5703"/><line style="stroke:#181818;stroke-width:0.5;stroke-dasharray:5.0,5.0;" x1="274" x2="274" y1="123.2422" y2="393.5703"/><line style="stroke:#181818;stroke-width:0.5;stroke-dasharray:5.0,5.0;" x1="384" x2="384" y1="123.2422" y2="393.5703"/><line style="stroke:#181818;stroke-width:0.5;stroke-dasharray:5.0,5.0;" x1="494" x2="494" y1="123.2422" y2="393.5703"/><text fill="#000000" font-family="sans-serif" font-size="14" lengthAdjust="spacing" textLength="112" x="5" y="119.7285">Campus Manager</text><ellipse cx="64" cy="53.1211" fill="#E2E2F0" rx="8" ry="8" style="stroke:#181818;stroke-width:0.5;"/><path d="M64,61.1211 L64,88.1211 M51,69.1211 L77,69.1211 M64,88.1211 L51,103.1211 M64,88.1211 L77,103.1211 " fill="none" style="stroke:#181818;stroke-width:0.5;"/><text fill="#000000" font-family="sans-serif" font-size="14" lengthAdjust="spacing" textLength="112" x="5" y="407.6777">Campus Manager</text><ellipse cx="64" cy="419.6914" fill="#E2E2F0" rx="8" ry="8" style="stroke:#181818;stroke-width:0.5;"/><path d="M64,427.6914 L64,454.6914 M51,435.6914 L77,435.6914 M64,454.6914 L51,469.6914 M64,454.6914 L77,469.6914 " fill="none" style="stroke:#181818;stroke-width:0.5;"/><rect fill="#E2E2F0" height="51.2422" rx="2.5" ry="2.5" style="stroke:#181818;stroke-width:0.5;" width="100" x="224" y="71"/><text fill="#000000" font-family="sans-serif" font-size="14" font-style="italic" lengthAdjust="spacing" textLength="86" x="231" y="93.1074">&#171;component&#187;</text><text fill="#000000" font-family="sans-serif" font-size="14" lengthAdjust="spacing" textLength="49" x="249.5" y="111.7285">Routing</text><rect fill="#E2E2F0" height="51.2422" rx="2.5" ry="2.5" style="stroke:#181818;stroke-width:0.5;" width="100" x="224" y="392.5703"/><text fill="#000000" font-family="sans-serif" font-size="14" font-style="italic" lengthAdjust="spacing" textLength="86" x="231" y="414.6777">&#171;component&#187;</text><text fill="#000000" font-family="sans-serif" font-size="14" lengthAdjust="spacing" textLength="49" x="249.5" y="433.2988">Routing</text><rect fill="#E2E2F0" height="51.2422" rx="2.5" ry="2.5" style="stroke:#181818;stroke-width:0.5;" width="100" x="334" y="71"/><text fill="#000000" font-family="sans-serif" font-size="14" font-style="italic" lengthAdjust="spacing" textLength="86" x="341" y="93.1074">&#171;component&#187;</text><text fill="#000000" font-family="sans-serif" font-size="14" lengthAdjust="spacing" textLength="73" x="347.5" y="111.7285">Component</text><rect fill="#E2E2F0" height="51.2422" rx="2.5" ry="2.5" style="stroke:#181818;stroke-width:0.5;" width="100" x="334" y="392.5703"/><text fill="#000000" font-family="sans-serif" font-size="14" font-style="italic" lengthAdjust="spacing" textLength="86" x="341" y="414.6777">&#171;component&#187;</text><text fill="#000000" font-family="sans-serif" font-size="14" lengthAdjust="spacing" textLength="73" x="347.5" y="433.2988">Component</text><rect fill="#E2E2F0" height="51.2422" rx="2.5" ry="2.5" style="stroke:#181818;stroke-width:0.5;" width="100" x="444" y="71"/><text fill="#000000" font-family="sans-serif" font-size="14" font-style="italic" lengthAdjust="spacing" textLength="86" x="451" y="93.1074">&#171;component&#187;</text><text fill="#000000" font-family="sans-serif" font-size="14" lengthAdjust="spacing" textLength="47" x="470.5" y="111.7285">Service</text><rect fill="#E2E2F0" height="51.2422" rx="2.5" ry="2.5" style="stroke:#181818;stroke-width:0.5;" width="100" x="444" y="392.5703"/><text fill="#000000" font-family="sans-serif" font-size="14" font-style="italic" lengthAdjust="spacing" textLength="86" x="451" y="414.6777">&#171;component&#187;</text><text fill="#000000" font-family="sans-serif" font-size="14" lengthAdjust="spacing" textLength="47" x="470.5" y="433.2988">Service</text><rect fill="#FFFFFF" height="251.3281" style="stroke:#181818;stroke-width:1.0;" width="10" x="59" y="133.2422"/><rect fill="#FFFFFF" height="219.0371" style="stroke:#181818;stroke-width:1.0;" width="10" x="269" y="156.5332"/><rect fill="#FFFFFF" height="156.4551" style="stroke:#181818;stroke-width:1.0;" width="10" x="379" y="187.8242"/><rect fill="#FFFFFF" height="93.873" style="stroke:#181818;stroke-width:1.0;" width="10" x="489" y="219.1152"/><line style="stroke:#181818;stroke-width:1.0;" x1="267" x2="257" y1="156.5332" y2="152.5332"/><line style="stroke:#181818;stroke-width:1.0;" x1="267" x2="257" y1="156.5332" y2="160.5332"/><line style="stroke:#181818;stroke-width:1.0;" x1="69" x2="268" y1="156.5332" y2="156.5332"/><text fill="#000000" font-family="sans-serif" font-size="13" font-weight="bold" lengthAdjust="spacing" textLength="7" x="76" y="151.2705">1</text><text fill="#000000" font-family="sans-serif" font-size="13" lengthAdjust="spacing" textLength="170" x="87" y="151.2705">Navigate to createRoom page</text><line style="stroke:#181818;stroke-width:1.0;" x1="377" x2="367" y1="187.8242" y2="183.8242"/><line style="stroke:#181818;stroke-width:1.0;" x1="377" x2="367" y1="187.8242" y2="191.8242"/><line style="stroke:#181818;stroke-width:1.0;" x1="279" x2="378" y1="187.8242" y2="187.8242"/><text fill="#000000" font-family="sans-serif" font-size="13" font-weight="bold" lengthAdjust="spacing" textLength="7" x="286" y="182.5615">2</text><text fill="#000000" font-family="sans-serif" font-size="13" lengthAdjust="spacing" textLength="69" x="297" y="182.5615">create room</text><line style="stroke:#181818;stroke-width:1.0;" x1="487" x2="477" y1="219.1152" y2="215.1152"/><line style="stroke:#181818;stroke-width:1.0;" x1="487" x2="477" y1="219.1152" y2="223.1152"/><line style="stroke:#181818;stroke-width:1.0;" x1="389" x2="488" y1="219.1152" y2="219.1152"/><text fill="#000000" font-family="sans-serif" font-size="13" font-weight="bold" lengthAdjust="spacing" textLength="7" x="396" y="213.8525">3</text><text fill="#000000" font-family="sans-serif" font-size="13" lengthAdjust="spacing" textLength="69" x="407" y="213.8525">create room</text><line style="stroke:#181818;stroke-width:1.0;" x1="618" x2="608" y1="250.4063" y2="246.4063"/><line style="stroke:#181818;stroke-width:1.0;" x1="618" x2="608" y1="250.4063" y2="254.4063"/><line style="stroke:#181818;stroke-width:1.0;" x1="499" x2="619" y1="250.4063" y2="250.4063"/><text fill="#000000" font-family="sans-serif" font-size="13" font-weight="bold" lengthAdjust="spacing" textLength="7" x="506" y="245.1436">4</text><text fill="#000000" font-family="sans-serif" font-size="13" lengthAdjust="spacing" textLength="76" x="517" y="245.1436">Http Request</text><line style="stroke:#181818;stroke-width:1.0;" x1="500" x2="510" y1="281.6973" y2="277.6973"/><line style="stroke:#181818;stroke-width:1.0;" x1="500" x2="510" y1="281.6973" y2="285.6973"/><line style="stroke:#181818;stroke-width:1.0;stroke-dasharray:2.0,2.0;" x1="499" x2="619" y1="281.6973" y2="281.6973"/><text fill="#000000" font-family="sans-serif" font-size="13" font-weight="bold" lengthAdjust="spacing" textLength="7" x="516" y="276.4346">5</text><text fill="#000000" font-family="sans-serif" font-size="13" lengthAdjust="spacing" textLength="86" x="527" y="276.4346">Http Response</text><line style="stroke:#181818;stroke-width:1.0;" x1="390" x2="400" y1="312.9883" y2="308.9883"/><line style="stroke:#181818;stroke-width:1.0;" x1="390" x2="400" y1="312.9883" y2="316.9883"/><line style="stroke:#181818;stroke-width:1.0;stroke-dasharray:2.0,2.0;" x1="389" x2="493" y1="312.9883" y2="312.9883"/><text fill="#000000" font-family="sans-serif" font-size="13" font-weight="bold" lengthAdjust="spacing" textLength="7" x="406" y="307.7256">6</text><text fill="#000000" font-family="sans-serif" font-size="13" lengthAdjust="spacing" textLength="49" x="417" y="307.7256">success</text><line style="stroke:#181818;stroke-width:1.0;" x1="280" x2="290" y1="344.2793" y2="340.2793"/><line style="stroke:#181818;stroke-width:1.0;" x1="280" x2="290" y1="344.2793" y2="348.2793"/><line style="stroke:#181818;stroke-width:1.0;stroke-dasharray:2.0,2.0;" x1="279" x2="383" y1="344.2793" y2="344.2793"/><text fill="#000000" font-family="sans-serif" font-size="13" font-weight="bold" lengthAdjust="spacing" textLength="7" x="296" y="339.0166">7</text><text fill="#000000" font-family="sans-serif" font-size="13" lengthAdjust="spacing" textLength="49" x="307" y="339.0166">success</text><line style="stroke:#181818;stroke-width:1.0;" x1="70" x2="80" y1="375.5703" y2="371.5703"/><line style="stroke:#181818;stroke-width:1.0;" x1="70" x2="80" y1="375.5703" y2="379.5703"/><line style="stroke:#181818;stroke-width:1.0;stroke-dasharray:2.0,2.0;" x1="69" x2="273" y1="375.5703" y2="375.5703"/><text fill="#000000" font-family="sans-serif" font-size="13" font-weight="bold" lengthAdjust="spacing" textLength="7" x="86" y="370.3076">8</text><text fill="#000000" font-family="sans-serif" font-size="13" lengthAdjust="spacing" textLength="124" x="97" y="370.3076">Successfully reponse</text><!--SRC=[VP9DReGm38NtFeKrUow0HcpOT4CNS08tzQ1e84aJ1sbktoH0OVgti_I-5xzdXQ9O4-StzX3ksZZoDACZTQUH1tbCZ9wL08YMDBUUIHW9lRKpQfEcssIj1o0brkEbfTd5W1sPvFSNf81j1-bLqKexCeANtaRHPYoQNsUyNfMTdJLif6cUyNONYY5Z_z43-qKhBcnOvszuJggNt285QxkgQRvIrFXAYnwp9XPLwThdeYwLENmR3hijFr5orPkdNEUqA8jGY8pkiVwYDnrsBdjgV15nsFD7v21mDAkgGmkfOs0uZATW8Ih58S0x_zYp9Ni-n2zyQP4kLfOUvB2IjpXDZ_HNrWmdstwjJm00]--></g></svg>