<?xml version="1.0" encoding="us-ascii" standalone="no"?><svg xmlns="http://www.w3.org/2000/svg" xmlns:xlink="http://www.w3.org/1999/xlink" contentStyleType="text/css" height="716px" preserveAspectRatio="none" style="width:1264px;height:716px;background:#FFFFFF;" version="1.1" viewBox="0 0 1264 716" width="1264px" zoomAndPan="magnify"><defs/><g><text fill="#000000" font-family="sans-serif" font-size="14" font-weight="bold" lengthAdjust="spacing" textLength="250" x="508.5" y="30.1074">List all buildings min and max floors</text><rect fill="#FFFFFF" height="437.7344" style="stroke:#181818;stroke-width:1.0;" width="10" x="89" y="161.1543"/><rect fill="#FFFFFF" height="375.1523" style="stroke:#181818;stroke-width:1.0;" width="10" x="332" y="192.4453"/><rect fill="#FFFFFF" height="312.5703" style="stroke:#181818;stroke-width:1.0;" width="10" x="575" y="223.7363"/><rect fill="#FFFFFF" height="93.873" style="stroke:#181818;stroke-width:1.0;" width="10" x="847" y="255.0273"/><rect fill="#FFFFFF" height="124.8242" style="stroke:#181818;stroke-width:1.0;" width="10" x="975" y="380.1914"/><rect fill="#FFFFFF" height="52.2422" style="stroke:#181818;stroke-width:1.0;" width="10" x="1106" y="421.4824"/><rect fill="#FFFFFF" height="31.291" style="stroke:#181818;stroke-width:1.0;" width="10" x="1212" y="286.3184"/><line style="stroke:#181818;stroke-width:0.5;stroke-dasharray:5.0,5.0;" x1="94" x2="94" y1="127.8633" y2="616.8887"/><line style="stroke:#181818;stroke-width:0.5;stroke-dasharray:5.0,5.0;" x1="337" x2="337" y1="127.8633" y2="616.8887"/><line style="stroke:#181818;stroke-width:0.5;stroke-dasharray:5.0,5.0;" x1="580" x2="580" y1="127.8633" y2="616.8887"/><line style="stroke:#181818;stroke-width:0.5;stroke-dasharray:5.0,5.0;" x1="852" x2="852" y1="127.8633" y2="616.8887"/><line style="stroke:#181818;stroke-width:0.5;stroke-dasharray:5.0,5.0;" x1="980" x2="980" y1="127.8633" y2="616.8887"/><line style="stroke:#181818;stroke-width:0.5;stroke-dasharray:5.0,5.0;" x1="1111" x2="1111" y1="429.3125" y2="616.8887"/><line style="stroke:#181818;stroke-width:0.5;stroke-dasharray:5.0,5.0;" x1="1217" x2="1217" y1="127.8633" y2="616.8887"/><rect fill="#E2E2F0" height="51.2422" rx="2.5" ry="2.5" style="stroke:#181818;stroke-width:0.5;" width="100" x="44" y="75.6211"/><text fill="#000000" font-family="sans-serif" font-size="14" font-style="italic" lengthAdjust="spacing" textLength="86" x="51" y="97.7285">&#171;component&#187;</text><text fill="#000000" font-family="sans-serif" font-size="14" lengthAdjust="spacing" textLength="49" x="69.5" y="116.3496">Routing</text><rect fill="#E2E2F0" height="51.2422" rx="2.5" ry="2.5" style="stroke:#181818;stroke-width:0.5;" width="100" x="44" y="615.8887"/><text fill="#000000" font-family="sans-serif" font-size="14" font-style="italic" lengthAdjust="spacing" textLength="86" x="51" y="637.9961">&#171;component&#187;</text><text fill="#000000" font-family="sans-serif" font-size="14" lengthAdjust="spacing" textLength="49" x="69.5" y="656.6172">Routing</text><rect fill="#E2E2F0" height="51.2422" rx="2.5" ry="2.5" style="stroke:#181818;stroke-width:0.5;" width="100" x="287" y="75.6211"/><text fill="#000000" font-family="sans-serif" font-size="14" font-style="italic" lengthAdjust="spacing" textLength="86" x="294" y="97.7285">&#171;component&#187;</text><text fill="#000000" font-family="sans-serif" font-size="14" lengthAdjust="spacing" textLength="62" x="306" y="116.3496">Controller</text><rect fill="#E2E2F0" height="51.2422" rx="2.5" ry="2.5" style="stroke:#181818;stroke-width:0.5;" width="100" x="287" y="615.8887"/><text fill="#000000" font-family="sans-serif" font-size="14" font-style="italic" lengthAdjust="spacing" textLength="86" x="294" y="637.9961">&#171;component&#187;</text><text fill="#000000" font-family="sans-serif" font-size="14" lengthAdjust="spacing" textLength="62" x="306" y="656.6172">Controller</text><rect fill="#E2E2F0" height="51.2422" rx="2.5" ry="2.5" style="stroke:#181818;stroke-width:0.5;" width="100" x="530" y="75.6211"/><text fill="#000000" font-family="sans-serif" font-size="14" font-style="italic" lengthAdjust="spacing" textLength="86" x="537" y="97.7285">&#171;component&#187;</text><text fill="#000000" font-family="sans-serif" font-size="14" lengthAdjust="spacing" textLength="47" x="556.5" y="116.3496">Service</text><rect fill="#E2E2F0" height="51.2422" rx="2.5" ry="2.5" style="stroke:#181818;stroke-width:0.5;" width="100" x="530" y="615.8887"/><text fill="#000000" font-family="sans-serif" font-size="14" font-style="italic" lengthAdjust="spacing" textLength="86" x="537" y="637.9961">&#171;component&#187;</text><text fill="#000000" font-family="sans-serif" font-size="14" lengthAdjust="spacing" textLength="47" x="556.5" y="656.6172">Service</text><rect fill="#E2E2F0" height="51.2422" rx="2.5" ry="2.5" style="stroke:#181818;stroke-width:0.5;" width="136" x="784" y="75.6211"/><text fill="#000000" font-family="sans-serif" font-size="14" font-style="italic" lengthAdjust="spacing" textLength="86" x="809" y="97.7285">&#171;component&#187;</text><text fill="#000000" font-family="sans-serif" font-size="14" lengthAdjust="spacing" textLength="122" x="791" y="116.3496">Building Repository</text><rect fill="#E2E2F0" height="51.2422" rx="2.5" ry="2.5" style="stroke:#181818;stroke-width:0.5;" width="136" x="784" y="615.8887"/><text fill="#000000" font-family="sans-serif" font-size="14" font-style="italic" lengthAdjust="spacing" textLength="86" x="809" y="637.9961">&#171;component&#187;</text><text fill="#000000" font-family="sans-serif" font-size="14" lengthAdjust="spacing" textLength="122" x="791" y="656.6172">Building Repository</text><rect fill="#E2E2F0" height="51.2422" rx="2.5" ry="2.5" style="stroke:#181818;stroke-width:0.5;" width="100" x="930" y="75.6211"/><text fill="#000000" font-family="sans-serif" font-size="14" font-style="italic" lengthAdjust="spacing" textLength="86" x="937" y="97.7285">&#171;component&#187;</text><text fill="#000000" font-family="sans-serif" font-size="14" lengthAdjust="spacing" textLength="27" x="966.5" y="116.3496">Map</text><rect fill="#E2E2F0" height="51.2422" rx="2.5" ry="2.5" style="stroke:#181818;stroke-width:0.5;" width="100" x="930" y="615.8887"/><text fill="#000000" font-family="sans-serif" font-size="14" font-style="italic" lengthAdjust="spacing" textLength="86" x="937" y="637.9961">&#171;component&#187;</text><text fill="#000000" font-family="sans-serif" font-size="14" lengthAdjust="spacing" textLength="27" x="966.5" y="656.6172">Map</text><rect fill="#E2E2F0" height="51.2422" rx="2.5" ry="2.5" style="stroke:#181818;stroke-width:0.5;" width="100" x="1061" y="615.8887"/><text fill="#000000" font-family="sans-serif" font-size="14" font-style="italic" lengthAdjust="spacing" textLength="86" x="1068" y="637.9961">&#171;component&#187;</text><text fill="#000000" font-family="sans-serif" font-size="14" lengthAdjust="spacing" textLength="30" x="1096" y="656.6172">DTO</text><text fill="#000000" font-family="sans-serif" font-size="14" font-style="italic" lengthAdjust="spacing" textLength="86" x="1171" y="105.7285">&#171;component&#187;</text><text fill="#000000" font-family="sans-serif" font-size="14" lengthAdjust="spacing" textLength="61" x="1183.5" y="124.3496">Database</text><path d="M1199,54.6211 C1199,44.6211 1217,44.6211 1217,44.6211 C1217,44.6211 1235,44.6211 1235,54.6211 L1235,80.6211 C1235,90.6211 1217,90.6211 1217,90.6211 C1217,90.6211 1199,90.6211 1199,80.6211 L1199,54.6211 " fill="#E2E2F0" style="stroke:#181818;stroke-width:1.5;"/><path d="M1199,54.6211 C1199,64.6211 1217,64.6211 1217,64.6211 C1217,64.6211 1235,64.6211 1235,54.6211 " fill="none" style="stroke:#181818;stroke-width:1.5;"/><text fill="#000000" font-family="sans-serif" font-size="14" font-style="italic" lengthAdjust="spacing" textLength="86" x="1171" y="630.9961">&#171;component&#187;</text><text fill="#000000" font-family="sans-serif" font-size="14" lengthAdjust="spacing" textLength="61" x="1183.5" y="649.6172">Database</text><path d="M1199,663.1309 C1199,653.1309 1217,653.1309 1217,653.1309 C1217,653.1309 1235,653.1309 1235,663.1309 L1235,689.1309 C1235,699.1309 1217,699.1309 1217,699.1309 C1217,699.1309 1199,699.1309 1199,689.1309 L1199,663.1309 " fill="#E2E2F0" style="stroke:#181818;stroke-width:1.5;"/><path d="M1199,663.1309 C1199,673.1309 1217,673.1309 1217,673.1309 C1217,673.1309 1235,673.1309 1235,663.1309 " fill="none" style="stroke:#181818;stroke-width:1.5;"/><rect fill="#FFFFFF" height="437.7344" style="stroke:#181818;stroke-width:1.0;" width="10" x="89" y="161.1543"/><rect fill="#FFFFFF" height="375.1523" style="stroke:#181818;stroke-width:1.0;" width="10" x="332" y="192.4453"/><rect fill="#FFFFFF" height="312.5703" style="stroke:#181818;stroke-width:1.0;" width="10" x="575" y="223.7363"/><rect fill="#FFFFFF" height="93.873" style="stroke:#181818;stroke-width:1.0;" width="10" x="847" y="255.0273"/><rect fill="#FFFFFF" height="124.8242" style="stroke:#181818;stroke-width:1.0;" width="10" x="975" y="380.1914"/><rect fill="#FFFFFF" height="52.2422" style="stroke:#181818;stroke-width:1.0;" width="10" x="1106" y="421.4824"/><rect fill="#FFFFFF" height="31.291" style="stroke:#181818;stroke-width:1.0;" width="10" x="1212" y="286.3184"/><ellipse cx="29.5" cy="160.4043" fill="none" rx="4" ry="4" style="stroke:#181818;stroke-width:1.5;"/><line style="stroke:#181818;stroke-width:1.0;" x1="87" x2="77" y1="161.1543" y2="157.1543"/><line style="stroke:#181818;stroke-width:1.0;" x1="87" x2="77" y1="161.1543" y2="165.1543"/><line style="stroke:#181818;stroke-width:1.0;" x1="34" x2="88" y1="161.1543" y2="161.1543"/><text fill="#000000" font-family="sans-serif" font-size="13" font-weight="bold" lengthAdjust="spacing" textLength="7" x="37" y="155.8916">1</text><text fill="#000000" font-family="sans-serif" font-size="13" lengthAdjust="spacing" textLength="26" x="48" y="155.8916">GET</text><line style="stroke:#181818;stroke-width:1.0;" x1="330" x2="320" y1="192.4453" y2="188.4453"/><line style="stroke:#181818;stroke-width:1.0;" x1="330" x2="320" y1="192.4453" y2="196.4453"/><line style="stroke:#181818;stroke-width:1.0;" x1="99" x2="331" y1="192.4453" y2="192.4453"/><text fill="#000000" font-family="sans-serif" font-size="13" font-weight="bold" lengthAdjust="spacing" textLength="7" x="106" y="187.1826">2</text><text fill="#000000" font-family="sans-serif" font-size="13" lengthAdjust="spacing" textLength="203" x="117" y="187.1826">list all buildings min and max floors</text><line style="stroke:#181818;stroke-width:1.0;" x1="573" x2="563" y1="223.7363" y2="219.7363"/><line style="stroke:#181818;stroke-width:1.0;" x1="573" x2="563" y1="223.7363" y2="227.7363"/><line style="stroke:#181818;stroke-width:1.0;" x1="342" x2="574" y1="223.7363" y2="223.7363"/><text fill="#000000" font-family="sans-serif" font-size="13" font-weight="bold" lengthAdjust="spacing" textLength="7" x="349" y="218.4736">3</text><text fill="#000000" font-family="sans-serif" font-size="13" lengthAdjust="spacing" textLength="203" x="360" y="218.4736">list all buildings min and max floors</text><line style="stroke:#181818;stroke-width:1.0;" x1="845" x2="835" y1="255.0273" y2="251.0273"/><line style="stroke:#181818;stroke-width:1.0;" x1="845" x2="835" y1="255.0273" y2="259.0273"/><line style="stroke:#181818;stroke-width:1.0;" x1="585" x2="846" y1="255.0273" y2="255.0273"/><text fill="#000000" font-family="sans-serif" font-size="13" font-weight="bold" lengthAdjust="spacing" textLength="7" x="592" y="249.7646">4</text><text fill="#000000" font-family="sans-serif" font-size="13" lengthAdjust="spacing" textLength="203" x="603" y="249.7646">list all buildings min and max floors</text><line style="stroke:#181818;stroke-width:1.0;" x1="1210" x2="1200" y1="286.3184" y2="282.3184"/><line style="stroke:#181818;stroke-width:1.0;" x1="1210" x2="1200" y1="286.3184" y2="290.3184"/><line style="stroke:#181818;stroke-width:1.0;" x1="857" x2="1211" y1="286.3184" y2="286.3184"/><text fill="#000000" font-family="sans-serif" font-size="13" font-weight="bold" lengthAdjust="spacing" textLength="7" x="864" y="281.0557">5</text><text fill="#000000" font-family="sans-serif" font-size="13" lengthAdjust="spacing" textLength="231" x="875" y="281.0557">select buildings with min and max floors</text><line style="stroke:#181818;stroke-width:1.0;" x1="858" x2="868" y1="317.6094" y2="313.6094"/><line style="stroke:#181818;stroke-width:1.0;" x1="858" x2="868" y1="317.6094" y2="321.6094"/><line style="stroke:#181818;stroke-width:1.0;stroke-dasharray:2.0,2.0;" x1="857" x2="1216" y1="317.6094" y2="317.6094"/><text fill="#000000" font-family="sans-serif" font-size="13" font-weight="bold" lengthAdjust="spacing" textLength="7" x="874" y="312.3467">6</text><text fill="#000000" font-family="sans-serif" font-size="13" lengthAdjust="spacing" textLength="17" x="885" y="312.3467">list</text><line style="stroke:#181818;stroke-width:1.0;" x1="586" x2="596" y1="348.9004" y2="344.9004"/><line style="stroke:#181818;stroke-width:1.0;" x1="586" x2="596" y1="348.9004" y2="352.9004"/><line style="stroke:#181818;stroke-width:1.0;stroke-dasharray:2.0,2.0;" x1="585" x2="851" y1="348.9004" y2="348.9004"/><text fill="#000000" font-family="sans-serif" font-size="13" font-weight="bold" lengthAdjust="spacing" textLength="7" x="602" y="343.6377">7</text><text fill="#000000" font-family="sans-serif" font-size="13" lengthAdjust="spacing" textLength="227" x="613" y="343.6377">list of buildings with min and max floors</text><line style="stroke:#181818;stroke-width:1.0;" x1="973" x2="963" y1="380.1914" y2="376.1914"/><line style="stroke:#181818;stroke-width:1.0;" x1="973" x2="963" y1="380.1914" y2="384.1914"/><line style="stroke:#181818;stroke-width:1.0;" x1="585" x2="974" y1="380.1914" y2="380.1914"/><text fill="#000000" font-family="sans-serif" font-size="13" font-weight="bold" lengthAdjust="spacing" textLength="7" x="592" y="374.9287">8</text><text fill="#000000" font-family="sans-serif" font-size="13" lengthAdjust="spacing" textLength="111" x="603" y="374.9287">convert to DTO List</text><line style="stroke:#181818;stroke-width:1.0;" x1="1059" x2="1049" y1="411.4824" y2="407.4824"/><line style="stroke:#181818;stroke-width:1.0;" x1="1059" x2="1049" y1="411.4824" y2="415.4824"/><line style="stroke:#181818;stroke-width:1.0;stroke-dasharray:2.0,2.0;" x1="985" x2="1060" y1="411.4824" y2="411.4824"/><text fill="#000000" font-family="sans-serif" font-size="13" font-weight="bold" lengthAdjust="spacing" textLength="7" x="992" y="406.2197">9</text><text fill="#000000" font-family="sans-serif" font-size="13" lengthAdjust="spacing" textLength="41" x="1003" y="406.2197">convert</text><rect fill="#E2E2F0" height="51.2422" rx="2.5" ry="2.5" style="stroke:#181818;stroke-width:0.5;" width="100" x="1061" y="388.1914"/><text fill="#000000" font-family="sans-serif" font-size="14" font-style="italic" lengthAdjust="spacing" textLength="86" x="1068" y="410.2988">&#171;component&#187;</text><text fill="#000000" font-family="sans-serif" font-size="14" lengthAdjust="spacing" textLength="30" x="1096" y="428.9199">DTO</text><line style="stroke:#181818;stroke-width:1.0;" x1="986" x2="996" y1="473.7246" y2="469.7246"/><line style="stroke:#181818;stroke-width:1.0;" x1="986" x2="996" y1="473.7246" y2="477.7246"/><line style="stroke:#181818;stroke-width:1.0;stroke-dasharray:2.0,2.0;" x1="985" x2="1110" y1="473.7246" y2="473.7246"/><text fill="#000000" font-family="sans-serif" font-size="13" font-weight="bold" lengthAdjust="spacing" textLength="14" x="1002" y="468.4619">10</text><text fill="#000000" font-family="sans-serif" font-size="13" lengthAdjust="spacing" textLength="39" x="1020" y="468.4619">dto list</text><line style="stroke:#181818;stroke-width:1.0;" x1="586" x2="596" y1="505.0156" y2="501.0156"/><line style="stroke:#181818;stroke-width:1.0;" x1="586" x2="596" y1="505.0156" y2="509.0156"/><line style="stroke:#181818;stroke-width:1.0;stroke-dasharray:2.0,2.0;" x1="585" x2="979" y1="505.0156" y2="505.0156"/><text fill="#000000" font-family="sans-serif" font-size="13" font-weight="bold" lengthAdjust="spacing" textLength="14" x="602" y="499.7529">11</text><text fill="#000000" font-family="sans-serif" font-size="13" lengthAdjust="spacing" textLength="39" x="620" y="499.7529">dto list</text><line style="stroke:#181818;stroke-width:1.0;" x1="343" x2="353" y1="536.3066" y2="532.3066"/><line style="stroke:#181818;stroke-width:1.0;" x1="343" x2="353" y1="536.3066" y2="540.3066"/><line style="stroke:#181818;stroke-width:1.0;stroke-dasharray:2.0,2.0;" x1="342" x2="579" y1="536.3066" y2="536.3066"/><text fill="#000000" font-family="sans-serif" font-size="13" font-weight="bold" lengthAdjust="spacing" textLength="14" x="359" y="531.0439">12</text><text fill="#000000" font-family="sans-serif" font-size="13" lengthAdjust="spacing" textLength="49" x="377" y="531.0439">success</text><line style="stroke:#181818;stroke-width:1.0;" x1="100" x2="110" y1="567.5977" y2="563.5977"/><line style="stroke:#181818;stroke-width:1.0;" x1="100" x2="110" y1="567.5977" y2="571.5977"/><line style="stroke:#181818;stroke-width:1.0;stroke-dasharray:2.0,2.0;" x1="99" x2="336" y1="567.5977" y2="567.5977"/><text fill="#000000" font-family="sans-serif" font-size="13" font-weight="bold" lengthAdjust="spacing" textLength="14" x="116" y="562.335">13</text><text fill="#000000" font-family="sans-serif" font-size="13" lengthAdjust="spacing" textLength="49" x="134" y="562.335">success</text><line style="stroke:#181818;stroke-width:1.0;" x1="6.5" x2="16.5" y1="598.8887" y2="594.8887"/><line style="stroke:#181818;stroke-width:1.0;" x1="6.5" x2="16.5" y1="598.8887" y2="602.8887"/><line style="stroke:#181818;stroke-width:1.0;stroke-dasharray:2.0,2.0;" x1="0" x2="93" y1="598.8887" y2="598.8887"/><text fill="#000000" font-family="sans-serif" font-size="13" font-weight="bold" lengthAdjust="spacing" textLength="14" x="17" y="593.626">14</text><text fill="#000000" font-family="sans-serif" font-size="13" lengthAdjust="spacing" textLength="44" x="35" y="593.626">200 OK</text><!--SRC=[bPDDRi8m48NtFiMeIwH8gCieIgN-g8ksGW8kC74CjN3io9xGSllQWIGEf0XsTlBUvvdnCpPaT5CLmZAtaxf6YnNKo7Uu5IiwA05MS6AC9FdrftG4g1GKZLIbr5i7bTI0keGAVs6ZZB6ECKyXoMMDck1XQHhooWT01_QuXYpZfggD5fhoV2n_CPgiKKhOri7xxJNJIjYzvA9rkEFwclpvL3qiHMsS96CFhRNholhFr_nVMBVw2kjhijVrefMLT4uhaR109xpcj3eAYpCTUp99dlTZI-7zRSsGazmZYUupwtu7QJIl5DHjrzK31pEBE07R3VL-vid9EaAWZUPyFpAsin4hmFqGKt-gyh6DW3-IlgUeFRGic7Sc_vJ7IX4hpqwTc93Pt71u11trD1fM25aQhcOlB86FaezL-n27shs4iQ1hA_5ncyq6IzGYUNG8Op9mm_QYmQ3hSKDZKzhswBxSYmIwXdFXHfrsWHX5R9po2LSKJVyeiYn98ltZV0wBZrZUFOq_]--></g></svg>