<?xml version="1.0" encoding="us-ascii" standalone="no"?><svg xmlns="http://www.w3.org/2000/svg" xmlns:xlink="http://www.w3.org/1999/xlink" contentStyleType="text/css" height="1016px" preserveAspectRatio="none" style="width:1114px;height:1016px;background:#FFFFFF;" version="1.1" viewBox="0 0 1114 1016" width="1114px" zoomAndPan="magnify"><defs/><g><text fill="#000000" font-family="sans-serif" font-size="14" font-weight="bold" lengthAdjust="spacing" textLength="130" x="493.5" y="30.1074">Create a FloorMap</text><rect fill="#FFFFFF" height="738.0137" style="stroke:#181818;stroke-width:1.0;" width="10" x="115" y="161.1543"/><rect fill="#FFFFFF" height="675.4316" style="stroke:#181818;stroke-width:1.0;" width="10" x="244" y="192.4453"/><rect fill="#FFFFFF" height="612.8496" style="stroke:#181818;stroke-width:1.0;" width="10" x="373" y="223.7363"/><rect fill="#FFFFFF" height="93.873" style="stroke:#181818;stroke-width:1.0;" width="10" x="575" y="255.0273"/><rect fill="#FFFFFF" height="96.5332" style="stroke:#181818;stroke-width:1.0;" width="10" x="708" y="427.4824"/><rect fill="#FFFFFF" height="124.8242" style="stroke:#181818;stroke-width:1.0;" width="10" x="818" y="680.4707"/><rect fill="#FFFFFF" height="52.2422" style="stroke:#181818;stroke-width:1.0;" width="10" x="956" y="721.7617"/><rect fill="#FFFFFF" height="31.291" style="stroke:#181818;stroke-width:1.0;" width="10" x="1062" y="286.3184"/><rect fill="#FFFFFF" height="31.291" style="stroke:#181818;stroke-width:1.0;" width="10" x="1062" y="586.5977"/><line style="stroke:#181818;stroke-width:0.5;stroke-dasharray:5.0,5.0;" x1="120" x2="120" y1="127.8633" y2="917.168"/><line style="stroke:#181818;stroke-width:0.5;stroke-dasharray:5.0,5.0;" x1="249" x2="249" y1="127.8633" y2="917.168"/><line style="stroke:#181818;stroke-width:0.5;stroke-dasharray:5.0,5.0;" x1="378" x2="378" y1="127.8633" y2="917.168"/><line style="stroke:#181818;stroke-width:0.5;stroke-dasharray:5.0,5.0;" x1="580" x2="580" y1="127.8633" y2="917.168"/><line style="stroke:#181818;stroke-width:0.5;stroke-dasharray:5.0,5.0;" x1="713" x2="713" y1="435.3125" y2="917.168"/><line style="stroke:#181818;stroke-width:0.5;stroke-dasharray:5.0,5.0;" x1="823" x2="823" y1="127.8633" y2="917.168"/><line style="stroke:#181818;stroke-width:0.5;stroke-dasharray:5.0,5.0;" x1="961" x2="961" y1="729.5918" y2="917.168"/><line style="stroke:#181818;stroke-width:0.5;stroke-dasharray:5.0,5.0;" x1="1067" x2="1067" y1="127.8633" y2="917.168"/><rect fill="#E2E2F0" height="51.2422" rx="2.5" ry="2.5" style="stroke:#181818;stroke-width:0.5;" width="100" x="70" y="75.6211"/><text fill="#000000" font-family="sans-serif" font-size="14" font-style="italic" lengthAdjust="spacing" textLength="86" x="77" y="97.7285">&#171;component&#187;</text><text fill="#000000" font-family="sans-serif" font-size="14" lengthAdjust="spacing" textLength="49" x="95.5" y="116.3496">Routing</text><rect fill="#E2E2F0" height="51.2422" rx="2.5" ry="2.5" style="stroke:#181818;stroke-width:0.5;" width="100" x="70" y="916.168"/><text fill="#000000" font-family="sans-serif" font-size="14" font-style="italic" lengthAdjust="spacing" textLength="86" x="77" y="938.2754">&#171;component&#187;</text><text fill="#000000" font-family="sans-serif" font-size="14" lengthAdjust="spacing" textLength="49" x="95.5" y="956.8965">Routing</text><rect fill="#E2E2F0" height="51.2422" rx="2.5" ry="2.5" style="stroke:#181818;stroke-width:0.5;" width="100" x="199" y="75.6211"/><text fill="#000000" font-family="sans-serif" font-size="14" font-style="italic" lengthAdjust="spacing" textLength="86" x="206" y="97.7285">&#171;component&#187;</text><text fill="#000000" font-family="sans-serif" font-size="14" lengthAdjust="spacing" textLength="62" x="218" y="116.3496">Controller</text><rect fill="#E2E2F0" height="51.2422" rx="2.5" ry="2.5" style="stroke:#181818;stroke-width:0.5;" width="100" x="199" y="916.168"/><text fill="#000000" font-family="sans-serif" font-size="14" font-style="italic" lengthAdjust="spacing" textLength="86" x="206" y="938.2754">&#171;component&#187;</text><text fill="#000000" font-family="sans-serif" font-size="14" lengthAdjust="spacing" textLength="62" x="218" y="956.8965">Controller</text><rect fill="#E2E2F0" height="51.2422" rx="2.5" ry="2.5" style="stroke:#181818;stroke-width:0.5;" width="100" x="328" y="75.6211"/><text fill="#000000" font-family="sans-serif" font-size="14" font-style="italic" lengthAdjust="spacing" textLength="86" x="335" y="97.7285">&#171;component&#187;</text><text fill="#000000" font-family="sans-serif" font-size="14" lengthAdjust="spacing" textLength="47" x="354.5" y="116.3496">Service</text><rect fill="#E2E2F0" height="51.2422" rx="2.5" ry="2.5" style="stroke:#181818;stroke-width:0.5;" width="100" x="328" y="916.168"/><text fill="#000000" font-family="sans-serif" font-size="14" font-style="italic" lengthAdjust="spacing" textLength="86" x="335" y="938.2754">&#171;component&#187;</text><text fill="#000000" font-family="sans-serif" font-size="14" lengthAdjust="spacing" textLength="47" x="354.5" y="956.8965">Service</text><rect fill="#E2E2F0" height="51.2422" rx="2.5" ry="2.5" style="stroke:#181818;stroke-width:0.5;" width="146" x="507" y="75.6211"/><text fill="#000000" font-family="sans-serif" font-size="14" font-style="italic" lengthAdjust="spacing" textLength="86" x="537" y="97.7285">&#171;component&#187;</text><text fill="#000000" font-family="sans-serif" font-size="14" lengthAdjust="spacing" textLength="132" x="514" y="116.3496">FloorMap Repository</text><rect fill="#E2E2F0" height="51.2422" rx="2.5" ry="2.5" style="stroke:#181818;stroke-width:0.5;" width="146" x="507" y="916.168"/><text fill="#000000" font-family="sans-serif" font-size="14" font-style="italic" lengthAdjust="spacing" textLength="86" x="537" y="938.2754">&#171;component&#187;</text><text fill="#000000" font-family="sans-serif" font-size="14" lengthAdjust="spacing" textLength="132" x="514" y="956.8965">FloorMap Repository</text><rect fill="#E2E2F0" height="51.2422" rx="2.5" ry="2.5" style="stroke:#181818;stroke-width:0.5;" width="100" x="663" y="916.168"/><text fill="#000000" font-family="sans-serif" font-size="14" font-style="italic" lengthAdjust="spacing" textLength="86" x="670" y="938.2754">&#171;component&#187;</text><text fill="#000000" font-family="sans-serif" font-size="14" lengthAdjust="spacing" textLength="60" x="683" y="956.8965">FloorMap</text><rect fill="#E2E2F0" height="51.2422" rx="2.5" ry="2.5" style="stroke:#181818;stroke-width:0.5;" width="100" x="773" y="75.6211"/><text fill="#000000" font-family="sans-serif" font-size="14" font-style="italic" lengthAdjust="spacing" textLength="86" x="780" y="97.7285">&#171;component&#187;</text><text fill="#000000" font-family="sans-serif" font-size="14" lengthAdjust="spacing" textLength="27" x="809.5" y="116.3496">Map</text><rect fill="#E2E2F0" height="51.2422" rx="2.5" ry="2.5" style="stroke:#181818;stroke-width:0.5;" width="100" x="773" y="916.168"/><text fill="#000000" font-family="sans-serif" font-size="14" font-style="italic" lengthAdjust="spacing" textLength="86" x="780" y="938.2754">&#171;component&#187;</text><text fill="#000000" font-family="sans-serif" font-size="14" lengthAdjust="spacing" textLength="27" x="809.5" y="956.8965">Map</text><rect fill="#E2E2F0" height="51.2422" rx="2.5" ry="2.5" style="stroke:#181818;stroke-width:0.5;" width="100" x="911" y="916.168"/><text fill="#000000" font-family="sans-serif" font-size="14" font-style="italic" lengthAdjust="spacing" textLength="86" x="918" y="938.2754">&#171;component&#187;</text><text fill="#000000" font-family="sans-serif" font-size="14" lengthAdjust="spacing" textLength="30" x="946" y="956.8965">DTO</text><text fill="#000000" font-family="sans-serif" font-size="14" font-style="italic" lengthAdjust="spacing" textLength="86" x="1021" y="105.7285">&#171;component&#187;</text><text fill="#000000" font-family="sans-serif" font-size="14" lengthAdjust="spacing" textLength="61" x="1033.5" y="124.3496">Database</text><path d="M1049,54.6211 C1049,44.6211 1067,44.6211 1067,44.6211 C1067,44.6211 1085,44.6211 1085,54.6211 L1085,80.6211 C1085,90.6211 1067,90.6211 1067,90.6211 C1067,90.6211 1049,90.6211 1049,80.6211 L1049,54.6211 " fill="#E2E2F0" style="stroke:#181818;stroke-width:1.5;"/><path d="M1049,54.6211 C1049,64.6211 1067,64.6211 1067,64.6211 C1067,64.6211 1085,64.6211 1085,54.6211 " fill="none" style="stroke:#181818;stroke-width:1.5;"/><text fill="#000000" font-family="sans-serif" font-size="14" font-style="italic" lengthAdjust="spacing" textLength="86" x="1021" y="931.2754">&#171;component&#187;</text><text fill="#000000" font-family="sans-serif" font-size="14" lengthAdjust="spacing" textLength="61" x="1033.5" y="949.8965">Database</text><path d="M1049,963.4102 C1049,953.4102 1067,953.4102 1067,953.4102 C1067,953.4102 1085,953.4102 1085,963.4102 L1085,989.4102 C1085,999.4102 1067,999.4102 1067,999.4102 C1067,999.4102 1049,999.4102 1049,989.4102 L1049,963.4102 " fill="#E2E2F0" style="stroke:#181818;stroke-width:1.5;"/><path d="M1049,963.4102 C1049,973.4102 1067,973.4102 1067,973.4102 C1067,973.4102 1085,973.4102 1085,963.4102 " fill="none" style="stroke:#181818;stroke-width:1.5;"/><rect fill="#FFFFFF" height="738.0137" style="stroke:#181818;stroke-width:1.0;" width="10" x="115" y="161.1543"/><rect fill="#FFFFFF" height="675.4316" style="stroke:#181818;stroke-width:1.0;" width="10" x="244" y="192.4453"/><rect fill="#FFFFFF" height="612.8496" style="stroke:#181818;stroke-width:1.0;" width="10" x="373" y="223.7363"/><rect fill="#FFFFFF" height="93.873" style="stroke:#181818;stroke-width:1.0;" width="10" x="575" y="255.0273"/><rect fill="#FFFFFF" height="96.5332" style="stroke:#181818;stroke-width:1.0;" width="10" x="708" y="427.4824"/><rect fill="#FFFFFF" height="124.8242" style="stroke:#181818;stroke-width:1.0;" width="10" x="818" y="680.4707"/><rect fill="#FFFFFF" height="52.2422" style="stroke:#181818;stroke-width:1.0;" width="10" x="956" y="721.7617"/><rect fill="#FFFFFF" height="31.291" style="stroke:#181818;stroke-width:1.0;" width="10" x="1062" y="286.3184"/><rect fill="#FFFFFF" height="31.291" style="stroke:#181818;stroke-width:1.0;" width="10" x="1062" y="586.5977"/><ellipse cx="46.5" cy="160.4043" fill="none" rx="4" ry="4" style="stroke:#181818;stroke-width:1.5;"/><line style="stroke:#181818;stroke-width:1.0;" x1="113" x2="103" y1="161.1543" y2="157.1543"/><line style="stroke:#181818;stroke-width:1.0;" x1="113" x2="103" y1="161.1543" y2="165.1543"/><line style="stroke:#181818;stroke-width:1.0;" x1="51" x2="114" y1="161.1543" y2="161.1543"/><text fill="#000000" font-family="sans-serif" font-size="13" font-weight="bold" lengthAdjust="spacing" textLength="7" x="54" y="155.8916">1</text><text fill="#000000" font-family="sans-serif" font-size="13" lengthAdjust="spacing" textLength="35" x="65" y="155.8916">POST</text><line style="stroke:#181818;stroke-width:1.0;" x1="242" x2="232" y1="192.4453" y2="188.4453"/><line style="stroke:#181818;stroke-width:1.0;" x1="242" x2="232" y1="192.4453" y2="196.4453"/><line style="stroke:#181818;stroke-width:1.0;" x1="125" x2="243" y1="192.4453" y2="192.4453"/><text fill="#000000" font-family="sans-serif" font-size="13" font-weight="bold" lengthAdjust="spacing" textLength="7" x="132" y="187.1826">2</text><text fill="#000000" font-family="sans-serif" font-size="13" lengthAdjust="spacing" textLength="89" x="143" y="187.1826">create floorMap</text><line style="stroke:#181818;stroke-width:1.0;" x1="371" x2="361" y1="223.7363" y2="219.7363"/><line style="stroke:#181818;stroke-width:1.0;" x1="371" x2="361" y1="223.7363" y2="227.7363"/><line style="stroke:#181818;stroke-width:1.0;" x1="254" x2="372" y1="223.7363" y2="223.7363"/><text fill="#000000" font-family="sans-serif" font-size="13" font-weight="bold" lengthAdjust="spacing" textLength="7" x="261" y="218.4736">3</text><text fill="#000000" font-family="sans-serif" font-size="13" lengthAdjust="spacing" textLength="89" x="272" y="218.4736">create floorMap</text><line style="stroke:#181818;stroke-width:1.0;" x1="573" x2="563" y1="255.0273" y2="251.0273"/><line style="stroke:#181818;stroke-width:1.0;" x1="573" x2="563" y1="255.0273" y2="259.0273"/><line style="stroke:#181818;stroke-width:1.0;" x1="383" x2="574" y1="255.0273" y2="255.0273"/><text fill="#000000" font-family="sans-serif" font-size="13" font-weight="bold" lengthAdjust="spacing" textLength="7" x="390" y="249.7646">4</text><text fill="#000000" font-family="sans-serif" font-size="13" lengthAdjust="spacing" textLength="162" x="401" y="249.7646">verifies if floor already exists</text><line style="stroke:#181818;stroke-width:1.0;" x1="1060" x2="1050" y1="286.3184" y2="282.3184"/><line style="stroke:#181818;stroke-width:1.0;" x1="1060" x2="1050" y1="286.3184" y2="290.3184"/><line style="stroke:#181818;stroke-width:1.0;" x1="585" x2="1061" y1="286.3184" y2="286.3184"/><text fill="#000000" font-family="sans-serif" font-size="13" font-weight="bold" lengthAdjust="spacing" textLength="7" x="592" y="281.0557">5</text><text fill="#000000" font-family="sans-serif" font-size="13" lengthAdjust="spacing" textLength="63" x="603" y="281.0557">select floor</text><line style="stroke:#181818;stroke-width:1.0;" x1="586" x2="596" y1="317.6094" y2="313.6094"/><line style="stroke:#181818;stroke-width:1.0;" x1="586" x2="596" y1="317.6094" y2="321.6094"/><line style="stroke:#181818;stroke-width:1.0;stroke-dasharray:2.0,2.0;" x1="585" x2="1066" y1="317.6094" y2="317.6094"/><text fill="#000000" font-family="sans-serif" font-size="13" font-weight="bold" lengthAdjust="spacing" textLength="7" x="602" y="312.3467">6</text><text fill="#000000" font-family="sans-serif" font-size="13" lengthAdjust="spacing" textLength="24" x="613" y="312.3467">floor</text><line style="stroke:#181818;stroke-width:1.0;" x1="384" x2="394" y1="348.9004" y2="344.9004"/><line style="stroke:#181818;stroke-width:1.0;" x1="384" x2="394" y1="348.9004" y2="352.9004"/><line style="stroke:#181818;stroke-width:1.0;stroke-dasharray:2.0,2.0;" x1="383" x2="579" y1="348.9004" y2="348.9004"/><text fill="#000000" font-family="sans-serif" font-size="13" font-weight="bold" lengthAdjust="spacing" textLength="7" x="400" y="343.6377">7</text><text fill="#000000" font-family="sans-serif" font-size="13" lengthAdjust="spacing" textLength="59" x="411" y="343.6377">floor found</text><path d="M388,361.9004 L388,388.9004 L554,388.9004 L554,371.9004 L544,361.9004 L388,361.9004 " fill="#FEFFDD" style="stroke:#181818;stroke-width:0.5;"/><path d="M544,361.9004 L544,371.9004 L554,371.9004 L544,361.9004 " fill="#FEFFDD" style="stroke:#181818;stroke-width:0.5;"/><text fill="#000000" font-family="sans-serif" font-size="13" lengthAdjust="spacing" textLength="145" x="394" y="380.9287">The file is read(floorMap);</text><line style="stroke:#181818;stroke-width:1.0;" x1="661" x2="651" y1="417.4824" y2="413.4824"/><line style="stroke:#181818;stroke-width:1.0;" x1="661" x2="651" y1="417.4824" y2="421.4824"/><line style="stroke:#181818;stroke-width:1.0;" x1="383" x2="662" y1="417.4824" y2="417.4824"/><text fill="#000000" font-family="sans-serif" font-size="13" font-weight="bold" lengthAdjust="spacing" textLength="7" x="390" y="412.2197">8</text><text fill="#000000" font-family="sans-serif" font-size="13" lengthAdjust="spacing" textLength="36" x="401" y="412.2197">create</text><rect fill="#E2E2F0" height="51.2422" rx="2.5" ry="2.5" style="stroke:#181818;stroke-width:0.5;" width="100" x="663" y="394.1914"/><text fill="#000000" font-family="sans-serif" font-size="14" font-style="italic" lengthAdjust="spacing" textLength="86" x="670" y="416.2988">&#171;component&#187;</text><text fill="#000000" font-family="sans-serif" font-size="14" lengthAdjust="spacing" textLength="60" x="683" y="434.9199">FloorMap</text><line style="stroke:#181818;stroke-width:1.0;stroke-dasharray:2.0,2.0;" x1="718" x2="760" y1="479.7246" y2="479.7246"/><line style="stroke:#181818;stroke-width:1.0;stroke-dasharray:2.0,2.0;" x1="760" x2="760" y1="479.7246" y2="492.7246"/><line style="stroke:#181818;stroke-width:1.0;stroke-dasharray:2.0,2.0;" x1="719" x2="760" y1="492.7246" y2="492.7246"/><line style="stroke:#181818;stroke-width:1.0;" x1="719" x2="729" y1="492.7246" y2="488.7246"/><line style="stroke:#181818;stroke-width:1.0;" x1="719" x2="729" y1="492.7246" y2="496.7246"/><text fill="#000000" font-family="sans-serif" font-size="13" font-weight="bold" lengthAdjust="spacing" textLength="7" x="725" y="474.4619">9</text><text fill="#000000" font-family="sans-serif" font-size="13" lengthAdjust="spacing" textLength="39" x="736" y="474.4619">verifies</text><line style="stroke:#181818;stroke-width:1.0;" x1="384" x2="394" y1="524.0156" y2="520.0156"/><line style="stroke:#181818;stroke-width:1.0;" x1="384" x2="394" y1="524.0156" y2="528.0156"/><line style="stroke:#181818;stroke-width:1.0;stroke-dasharray:2.0,2.0;" x1="383" x2="712" y1="524.0156" y2="524.0156"/><text fill="#000000" font-family="sans-serif" font-size="13" font-weight="bold" lengthAdjust="spacing" textLength="14" x="400" y="518.7529">10</text><text fill="#000000" font-family="sans-serif" font-size="13" lengthAdjust="spacing" textLength="43" x="418" y="518.7529">created</text><line style="stroke:#181818;stroke-width:1.0;" x1="578" x2="568" y1="555.3066" y2="551.3066"/><line style="stroke:#181818;stroke-width:1.0;" x1="578" x2="568" y1="555.3066" y2="559.3066"/><line style="stroke:#181818;stroke-width:1.0;" x1="383" x2="579" y1="555.3066" y2="555.3066"/><text fill="#000000" font-family="sans-serif" font-size="13" font-weight="bold" lengthAdjust="spacing" textLength="14" x="390" y="550.0439">11</text><text fill="#000000" font-family="sans-serif" font-size="13" lengthAdjust="spacing" textLength="26" x="408" y="550.0439">save</text><line style="stroke:#181818;stroke-width:1.0;" x1="1060" x2="1050" y1="586.5977" y2="582.5977"/><line style="stroke:#181818;stroke-width:1.0;" x1="1060" x2="1050" y1="586.5977" y2="590.5977"/><line style="stroke:#181818;stroke-width:1.0;" x1="580" x2="1061" y1="586.5977" y2="586.5977"/><text fill="#000000" font-family="sans-serif" font-size="13" font-weight="bold" lengthAdjust="spacing" textLength="14" x="587" y="581.335">12</text><text fill="#000000" font-family="sans-serif" font-size="13" lengthAdjust="spacing" textLength="85" x="605" y="581.335">insert floorMap</text><line style="stroke:#181818;stroke-width:1.0;" x1="581" x2="591" y1="617.8887" y2="613.8887"/><line style="stroke:#181818;stroke-width:1.0;" x1="581" x2="591" y1="617.8887" y2="621.8887"/><line style="stroke:#181818;stroke-width:1.0;stroke-dasharray:2.0,2.0;" x1="580" x2="1066" y1="617.8887" y2="617.8887"/><text fill="#000000" font-family="sans-serif" font-size="13" font-weight="bold" lengthAdjust="spacing" textLength="14" x="597" y="612.626">13</text><text fill="#000000" font-family="sans-serif" font-size="13" lengthAdjust="spacing" textLength="49" x="615" y="612.626">success</text><line style="stroke:#181818;stroke-width:1.0;" x1="384" x2="394" y1="649.1797" y2="645.1797"/><line style="stroke:#181818;stroke-width:1.0;" x1="384" x2="394" y1="649.1797" y2="653.1797"/><line style="stroke:#181818;stroke-width:1.0;stroke-dasharray:2.0,2.0;" x1="383" x2="579" y1="649.1797" y2="649.1797"/><text fill="#000000" font-family="sans-serif" font-size="13" font-weight="bold" lengthAdjust="spacing" textLength="14" x="400" y="643.917">14</text><text fill="#000000" font-family="sans-serif" font-size="13" lengthAdjust="spacing" textLength="49" x="418" y="643.917">success</text><line style="stroke:#181818;stroke-width:1.0;" x1="816" x2="806" y1="680.4707" y2="676.4707"/><line style="stroke:#181818;stroke-width:1.0;" x1="816" x2="806" y1="680.4707" y2="684.4707"/><line style="stroke:#181818;stroke-width:1.0;" x1="383" x2="817" y1="680.4707" y2="680.4707"/><text fill="#000000" font-family="sans-serif" font-size="13" font-weight="bold" lengthAdjust="spacing" textLength="14" x="390" y="675.208">15</text><text fill="#000000" font-family="sans-serif" font-size="13" lengthAdjust="spacing" textLength="86" x="408" y="675.208">convert to DTO</text><line style="stroke:#181818;stroke-width:1.0;" x1="909" x2="899" y1="711.7617" y2="707.7617"/><line style="stroke:#181818;stroke-width:1.0;" x1="909" x2="899" y1="711.7617" y2="715.7617"/><line style="stroke:#181818;stroke-width:1.0;stroke-dasharray:2.0,2.0;" x1="828" x2="910" y1="711.7617" y2="711.7617"/><text fill="#000000" font-family="sans-serif" font-size="13" font-weight="bold" lengthAdjust="spacing" textLength="14" x="835" y="706.499">16</text><text fill="#000000" font-family="sans-serif" font-size="13" lengthAdjust="spacing" textLength="41" x="853" y="706.499">convert</text><rect fill="#E2E2F0" height="51.2422" rx="2.5" ry="2.5" style="stroke:#181818;stroke-width:0.5;" width="100" x="911" y="688.4707"/><text fill="#000000" font-family="sans-serif" font-size="14" font-style="italic" lengthAdjust="spacing" textLength="86" x="918" y="710.5781">&#171;component&#187;</text><text fill="#000000" font-family="sans-serif" font-size="14" lengthAdjust="spacing" textLength="30" x="946" y="729.1992">DTO</text><line style="stroke:#181818;stroke-width:1.0;" x1="829" x2="839" y1="774.0039" y2="770.0039"/><line style="stroke:#181818;stroke-width:1.0;" x1="829" x2="839" y1="774.0039" y2="778.0039"/><line style="stroke:#181818;stroke-width:1.0;stroke-dasharray:2.0,2.0;" x1="828" x2="960" y1="774.0039" y2="774.0039"/><text fill="#000000" font-family="sans-serif" font-size="13" font-weight="bold" lengthAdjust="spacing" textLength="14" x="845" y="768.7412">17</text><text fill="#000000" font-family="sans-serif" font-size="13" lengthAdjust="spacing" textLength="18" x="863" y="768.7412">dto</text><line style="stroke:#181818;stroke-width:1.0;" x1="384" x2="394" y1="805.2949" y2="801.2949"/><line style="stroke:#181818;stroke-width:1.0;" x1="384" x2="394" y1="805.2949" y2="809.2949"/><line style="stroke:#181818;stroke-width:1.0;stroke-dasharray:2.0,2.0;" x1="383" x2="822" y1="805.2949" y2="805.2949"/><text fill="#000000" font-family="sans-serif" font-size="13" font-weight="bold" lengthAdjust="spacing" textLength="14" x="400" y="800.0322">18</text><text fill="#000000" font-family="sans-serif" font-size="13" lengthAdjust="spacing" textLength="18" x="418" y="800.0322">dto</text><line style="stroke:#181818;stroke-width:1.0;" x1="255" x2="265" y1="836.5859" y2="832.5859"/><line style="stroke:#181818;stroke-width:1.0;" x1="255" x2="265" y1="836.5859" y2="840.5859"/><line style="stroke:#181818;stroke-width:1.0;stroke-dasharray:2.0,2.0;" x1="254" x2="377" y1="836.5859" y2="836.5859"/><text fill="#000000" font-family="sans-serif" font-size="13" font-weight="bold" lengthAdjust="spacing" textLength="14" x="271" y="831.3232">19</text><text fill="#000000" font-family="sans-serif" font-size="13" lengthAdjust="spacing" textLength="49" x="289" y="831.3232">success</text><line style="stroke:#181818;stroke-width:1.0;" x1="126" x2="136" y1="867.877" y2="863.877"/><line style="stroke:#181818;stroke-width:1.0;" x1="126" x2="136" y1="867.877" y2="871.877"/><line style="stroke:#181818;stroke-width:1.0;stroke-dasharray:2.0,2.0;" x1="125" x2="248" y1="867.877" y2="867.877"/><text fill="#000000" font-family="sans-serif" font-size="13" font-weight="bold" lengthAdjust="spacing" textLength="14" x="142" y="862.6143">20</text><text fill="#000000" font-family="sans-serif" font-size="13" lengthAdjust="spacing" textLength="49" x="160" y="862.6143">success</text><line style="stroke:#181818;stroke-width:1.0;" x1="6.5" x2="16.5" y1="899.168" y2="895.168"/><line style="stroke:#181818;stroke-width:1.0;" x1="6.5" x2="16.5" y1="899.168" y2="903.168"/><line style="stroke:#181818;stroke-width:1.0;stroke-dasharray:2.0,2.0;" x1="0" x2="119" y1="899.168" y2="899.168"/><text fill="#000000" font-family="sans-serif" font-size="13" font-weight="bold" lengthAdjust="spacing" textLength="14" x="17" y="893.9053">21</text><text fill="#000000" font-family="sans-serif" font-size="13" lengthAdjust="spacing" textLength="70" x="35" y="893.9053">201 Created</text><!--SRC=[bLJ1RjmW4Btp5IYdDfAbj4TtjJqawgrAbTqVOF5uWsA31MCh-_SP5cE3rxMI6uRtXfdtU1Oz6jst9x3ClIdT2IjQtWdv9ivmm4i3t894nb0XhHyj20Gk-9_66FjNT8mH0vLKdT38xrvCZqgVxxXmt8Ort-saQJkZGUD-dyCVZKPhcWRibI6dpotI0UoW95mPBgotuB5J_WATSGgDlLofzRXlQVip_8oqHOZOTXlsT7o-mYfSNby952VXW33ZAW1F2npxROhzVjAvvF-U3qSc9Ah1cpJkitZkiOd29PV1p7goSgBEC9OmV84e-1PxnB28zRnCxP8FO5Mjm75LXoCk6gfNNJYyAuSkgPOoMLR6roLHIhgmeJSQa3EnEZ4wBLPk3y0AKkYYT3vhQB4slQvIMjOQqyQBhiwlo4qzYN1y9PoYw2XA14tuBPA-_sAWA-vPR5Mg-_j9vLirvdxp2MTfbuYbSwkJi2tJd1ZWFmueJJoSotp21DTB2SvznOOLIcv1shoFN-bVyk0xev1HuEQ-MZzh6xMX30Qr0pff7wcgJsWnb_HxQTCUqjwgl82rcRWtMLmPBRwWB89vu5TOINJf_x3R5KM2__dmO_o5P-x7FyK7]--></g></svg>