<?xml version="1.0" encoding="us-ascii" standalone="no"?><svg xmlns="http://www.w3.org/2000/svg" xmlns:xlink="http://www.w3.org/1999/xlink" contentStyleType="text/css" height="1233px" preserveAspectRatio="none" style="width:1147px;height:1233px;background:#FFFFFF;" version="1.1" viewBox="0 0 1147 1233" width="1147px" zoomAndPan="magnify"><defs/><g><text fill="#000000" font-family="sans-serif" font-size="14" font-weight="bold" lengthAdjust="spacing" textLength="120" x="515" y="30.1074">Create a building</text><rect fill="#FFFFFF" height="955.0508" style="stroke:#181818;stroke-width:1.0;" width="10" x="147" y="161.1543"/><rect fill="#FFFFFF" height="892.4688" style="stroke:#181818;stroke-width:1.0;" width="10" x="271" y="192.4453"/><rect fill="#FFFFFF" height="829.8867" style="stroke:#181818;stroke-width:1.0;" width="10" x="395" y="223.7363"/><rect fill="#FFFFFF" height="229.0371" style="stroke:#181818;stroke-width:1.0;" width="10" x="654" y="255.0273"/><rect fill="#FFFFFF" height="93.873" style="stroke:#181818;stroke-width:1.0;" width="10" x="654" y="772.3438"/><rect fill="#FFFFFF" height="124.8242" style="stroke:#181818;stroke-width:1.0;" width="10" x="874" y="897.5078"/><rect fill="#FFFFFF" height="52.2422" style="stroke:#181818;stroke-width:1.0;" width="10" x="989" y="938.7988"/><rect fill="#FFFFFF" height="31.291" style="stroke:#181818;stroke-width:1.0;" width="10" x="1095" y="286.3184"/><rect fill="#FFFFFF" height="31.291" style="stroke:#181818;stroke-width:1.0;" width="10" x="1095" y="803.6348"/><rect fill="none" height="144.4551" style="stroke:#000000;stroke-width:1.5;" width="709" x="10" y="332.6094"/><rect fill="none" height="144.4551" style="stroke:#000000;stroke-width:1.5;" width="819" x="10" y="597.5977"/><line style="stroke:#181818;stroke-width:0.5;stroke-dasharray:5.0,5.0;" x1="152" x2="152" y1="127.8633" y2="1134.2051"/><line style="stroke:#181818;stroke-width:0.5;stroke-dasharray:5.0,5.0;" x1="276" x2="276" y1="127.8633" y2="1134.2051"/><line style="stroke:#181818;stroke-width:0.5;stroke-dasharray:5.0,5.0;" x1="400" x2="400" y1="127.8633" y2="1134.2051"/><line style="stroke:#181818;stroke-width:0.5;stroke-dasharray:5.0,5.0;" x1="659" x2="659" y1="127.8633" y2="1134.2051"/><line style="stroke:#181818;stroke-width:0.5;stroke-dasharray:5.0,5.0;" x1="769" x2="769" y1="525.1855" y2="1134.2051"/><line style="stroke:#181818;stroke-width:0.5;stroke-dasharray:5.0,5.0;" x1="879" x2="879" y1="127.8633" y2="1134.2051"/><line style="stroke:#181818;stroke-width:0.5;stroke-dasharray:5.0,5.0;" x1="994" x2="994" y1="946.6289" y2="1134.2051"/><line style="stroke:#181818;stroke-width:0.5;stroke-dasharray:5.0,5.0;" x1="1100" x2="1100" y1="127.8633" y2="1134.2051"/><rect fill="#E2E2F0" height="51.2422" rx="2.5" ry="2.5" style="stroke:#181818;stroke-width:0.5;" width="100" x="102" y="75.6211"/><text fill="#000000" font-family="sans-serif" font-size="14" font-style="italic" lengthAdjust="spacing" textLength="86" x="109" y="97.7285">&#171;component&#187;</text><text fill="#000000" font-family="sans-serif" font-size="14" lengthAdjust="spacing" textLength="49" x="127.5" y="116.3496">Routing</text><rect fill="#E2E2F0" height="51.2422" rx="2.5" ry="2.5" style="stroke:#181818;stroke-width:0.5;" width="100" x="102" y="1133.2051"/><text fill="#000000" font-family="sans-serif" font-size="14" font-style="italic" lengthAdjust="spacing" textLength="86" x="109" y="1155.3125">&#171;component&#187;</text><text fill="#000000" font-family="sans-serif" font-size="14" lengthAdjust="spacing" textLength="49" x="127.5" y="1173.9336">Routing</text><rect fill="#E2E2F0" height="51.2422" rx="2.5" ry="2.5" style="stroke:#181818;stroke-width:0.5;" width="100" x="226" y="75.6211"/><text fill="#000000" font-family="sans-serif" font-size="14" font-style="italic" lengthAdjust="spacing" textLength="86" x="233" y="97.7285">&#171;component&#187;</text><text fill="#000000" font-family="sans-serif" font-size="14" lengthAdjust="spacing" textLength="62" x="245" y="116.3496">Controller</text><rect fill="#E2E2F0" height="51.2422" rx="2.5" ry="2.5" style="stroke:#181818;stroke-width:0.5;" width="100" x="226" y="1133.2051"/><text fill="#000000" font-family="sans-serif" font-size="14" font-style="italic" lengthAdjust="spacing" textLength="86" x="233" y="1155.3125">&#171;component&#187;</text><text fill="#000000" font-family="sans-serif" font-size="14" lengthAdjust="spacing" textLength="62" x="245" y="1173.9336">Controller</text><rect fill="#E2E2F0" height="51.2422" rx="2.5" ry="2.5" style="stroke:#181818;stroke-width:0.5;" width="100" x="350" y="75.6211"/><text fill="#000000" font-family="sans-serif" font-size="14" font-style="italic" lengthAdjust="spacing" textLength="86" x="357" y="97.7285">&#171;component&#187;</text><text fill="#000000" font-family="sans-serif" font-size="14" lengthAdjust="spacing" textLength="47" x="376.5" y="116.3496">Service</text><rect fill="#E2E2F0" height="51.2422" rx="2.5" ry="2.5" style="stroke:#181818;stroke-width:0.5;" width="100" x="350" y="1133.2051"/><text fill="#000000" font-family="sans-serif" font-size="14" font-style="italic" lengthAdjust="spacing" textLength="86" x="357" y="1155.3125">&#171;component&#187;</text><text fill="#000000" font-family="sans-serif" font-size="14" lengthAdjust="spacing" textLength="47" x="376.5" y="1173.9336">Service</text><rect fill="#E2E2F0" height="51.2422" rx="2.5" ry="2.5" style="stroke:#181818;stroke-width:0.5;" width="100" x="609" y="75.6211"/><text fill="#000000" font-family="sans-serif" font-size="14" font-style="italic" lengthAdjust="spacing" textLength="86" x="616" y="97.7285">&#171;component&#187;</text><text fill="#000000" font-family="sans-serif" font-size="14" lengthAdjust="spacing" textLength="68" x="625" y="116.3496">Repository</text><rect fill="#E2E2F0" height="51.2422" rx="2.5" ry="2.5" style="stroke:#181818;stroke-width:0.5;" width="100" x="609" y="1133.2051"/><text fill="#000000" font-family="sans-serif" font-size="14" font-style="italic" lengthAdjust="spacing" textLength="86" x="616" y="1155.3125">&#171;component&#187;</text><text fill="#000000" font-family="sans-serif" font-size="14" lengthAdjust="spacing" textLength="68" x="625" y="1173.9336">Repository</text><rect fill="#E2E2F0" height="51.2422" rx="2.5" ry="2.5" style="stroke:#181818;stroke-width:0.5;" width="100" x="719" y="1133.2051"/><text fill="#000000" font-family="sans-serif" font-size="14" font-style="italic" lengthAdjust="spacing" textLength="86" x="726" y="1155.3125">&#171;component&#187;</text><text fill="#000000" font-family="sans-serif" font-size="14" lengthAdjust="spacing" textLength="50" x="744" y="1173.9336">Building</text><rect fill="#E2E2F0" height="51.2422" rx="2.5" ry="2.5" style="stroke:#181818;stroke-width:0.5;" width="100" x="829" y="75.6211"/><text fill="#000000" font-family="sans-serif" font-size="14" font-style="italic" lengthAdjust="spacing" textLength="86" x="836" y="97.7285">&#171;component&#187;</text><text fill="#000000" font-family="sans-serif" font-size="14" lengthAdjust="spacing" textLength="27" x="865.5" y="116.3496">Map</text><rect fill="#E2E2F0" height="51.2422" rx="2.5" ry="2.5" style="stroke:#181818;stroke-width:0.5;" width="100" x="829" y="1133.2051"/><text fill="#000000" font-family="sans-serif" font-size="14" font-style="italic" lengthAdjust="spacing" textLength="86" x="836" y="1155.3125">&#171;component&#187;</text><text fill="#000000" font-family="sans-serif" font-size="14" lengthAdjust="spacing" textLength="27" x="865.5" y="1173.9336">Map</text><rect fill="#E2E2F0" height="51.2422" rx="2.5" ry="2.5" style="stroke:#181818;stroke-width:0.5;" width="100" x="944" y="1133.2051"/><text fill="#000000" font-family="sans-serif" font-size="14" font-style="italic" lengthAdjust="spacing" textLength="86" x="951" y="1155.3125">&#171;component&#187;</text><text fill="#000000" font-family="sans-serif" font-size="14" lengthAdjust="spacing" textLength="30" x="979" y="1173.9336">DTO</text><text fill="#000000" font-family="sans-serif" font-size="14" font-style="italic" lengthAdjust="spacing" textLength="86" x="1054" y="105.7285">&#171;component&#187;</text><text fill="#000000" font-family="sans-serif" font-size="14" lengthAdjust="spacing" textLength="61" x="1066.5" y="124.3496">Database</text><path d="M1082,54.6211 C1082,44.6211 1100,44.6211 1100,44.6211 C1100,44.6211 1118,44.6211 1118,54.6211 L1118,80.6211 C1118,90.6211 1100,90.6211 1100,90.6211 C1100,90.6211 1082,90.6211 1082,80.6211 L1082,54.6211 " fill="#E2E2F0" style="stroke:#181818;stroke-width:1.5;"/><path d="M1082,54.6211 C1082,64.6211 1100,64.6211 1100,64.6211 C1100,64.6211 1118,64.6211 1118,54.6211 " fill="none" style="stroke:#181818;stroke-width:1.5;"/><text fill="#000000" font-family="sans-serif" font-size="14" font-style="italic" lengthAdjust="spacing" textLength="86" x="1054" y="1148.3125">&#171;component&#187;</text><text fill="#000000" font-family="sans-serif" font-size="14" lengthAdjust="spacing" textLength="61" x="1066.5" y="1166.9336">Database</text><path d="M1082,1180.4473 C1082,1170.4473 1100,1170.4473 1100,1170.4473 C1100,1170.4473 1118,1170.4473 1118,1180.4473 L1118,1206.4473 C1118,1216.4473 1100,1216.4473 1100,1216.4473 C1100,1216.4473 1082,1216.4473 1082,1206.4473 L1082,1180.4473 " fill="#E2E2F0" style="stroke:#181818;stroke-width:1.5;"/><path d="M1082,1180.4473 C1082,1190.4473 1100,1190.4473 1100,1190.4473 C1100,1190.4473 1118,1190.4473 1118,1180.4473 " fill="none" style="stroke:#181818;stroke-width:1.5;"/><rect fill="#FFFFFF" height="955.0508" style="stroke:#181818;stroke-width:1.0;" width="10" x="147" y="161.1543"/><rect fill="#FFFFFF" height="892.4688" style="stroke:#181818;stroke-width:1.0;" width="10" x="271" y="192.4453"/><rect fill="#FFFFFF" height="829.8867" style="stroke:#181818;stroke-width:1.0;" width="10" x="395" y="223.7363"/><rect fill="#FFFFFF" height="229.0371" style="stroke:#181818;stroke-width:1.0;" width="10" x="654" y="255.0273"/><rect fill="#FFFFFF" height="93.873" style="stroke:#181818;stroke-width:1.0;" width="10" x="654" y="772.3438"/><rect fill="#FFFFFF" height="124.8242" style="stroke:#181818;stroke-width:1.0;" width="10" x="874" y="897.5078"/><rect fill="#FFFFFF" height="52.2422" style="stroke:#181818;stroke-width:1.0;" width="10" x="989" y="938.7988"/><rect fill="#FFFFFF" height="31.291" style="stroke:#181818;stroke-width:1.0;" width="10" x="1095" y="286.3184"/><rect fill="#FFFFFF" height="31.291" style="stroke:#181818;stroke-width:1.0;" width="10" x="1095" y="803.6348"/><ellipse cx="19.5" cy="160.4043" fill="none" rx="4" ry="4" style="stroke:#181818;stroke-width:1.5;"/><line style="stroke:#181818;stroke-width:1.0;" x1="145" x2="135" y1="161.1543" y2="157.1543"/><line style="stroke:#181818;stroke-width:1.0;" x1="145" x2="135" y1="161.1543" y2="165.1543"/><line style="stroke:#181818;stroke-width:1.0;" x1="24" x2="146" y1="161.1543" y2="161.1543"/><text fill="#000000" font-family="sans-serif" font-size="13" font-weight="bold" lengthAdjust="spacing" textLength="7" x="27" y="155.8916">1</text><text fill="#000000" font-family="sans-serif" font-size="13" lengthAdjust="spacing" textLength="94" x="38" y="155.8916">POST /buildings</text><line style="stroke:#181818;stroke-width:1.0;" x1="269" x2="259" y1="192.4453" y2="188.4453"/><line style="stroke:#181818;stroke-width:1.0;" x1="269" x2="259" y1="192.4453" y2="196.4453"/><line style="stroke:#181818;stroke-width:1.0;" x1="157" x2="270" y1="192.4453" y2="192.4453"/><text fill="#000000" font-family="sans-serif" font-size="13" font-weight="bold" lengthAdjust="spacing" textLength="7" x="164" y="187.1826">2</text><text fill="#000000" font-family="sans-serif" font-size="13" lengthAdjust="spacing" textLength="84" x="175" y="187.1826">create building</text><line style="stroke:#181818;stroke-width:1.0;" x1="393" x2="383" y1="223.7363" y2="219.7363"/><line style="stroke:#181818;stroke-width:1.0;" x1="393" x2="383" y1="223.7363" y2="227.7363"/><line style="stroke:#181818;stroke-width:1.0;" x1="281" x2="394" y1="223.7363" y2="223.7363"/><text fill="#000000" font-family="sans-serif" font-size="13" font-weight="bold" lengthAdjust="spacing" textLength="7" x="288" y="218.4736">3</text><text fill="#000000" font-family="sans-serif" font-size="13" lengthAdjust="spacing" textLength="84" x="299" y="218.4736">create building</text><line style="stroke:#181818;stroke-width:1.0;" x1="652" x2="642" y1="255.0273" y2="251.0273"/><line style="stroke:#181818;stroke-width:1.0;" x1="652" x2="642" y1="255.0273" y2="259.0273"/><line style="stroke:#181818;stroke-width:1.0;" x1="405" x2="653" y1="255.0273" y2="255.0273"/><text fill="#000000" font-family="sans-serif" font-size="13" font-weight="bold" lengthAdjust="spacing" textLength="7" x="412" y="249.7646">4</text><text fill="#000000" font-family="sans-serif" font-size="13" lengthAdjust="spacing" textLength="219" x="423" y="249.7646">verifies if already exists with that code</text><line style="stroke:#181818;stroke-width:1.0;" x1="1093" x2="1083" y1="286.3184" y2="282.3184"/><line style="stroke:#181818;stroke-width:1.0;" x1="1093" x2="1083" y1="286.3184" y2="290.3184"/><line style="stroke:#181818;stroke-width:1.0;" x1="664" x2="1094" y1="286.3184" y2="286.3184"/><text fill="#000000" font-family="sans-serif" font-size="13" font-weight="bold" lengthAdjust="spacing" textLength="7" x="671" y="281.0557">5</text><text fill="#000000" font-family="sans-serif" font-size="13" lengthAdjust="spacing" textLength="83" x="682" y="281.0557">select building</text><line style="stroke:#181818;stroke-width:1.0;" x1="665" x2="675" y1="317.6094" y2="313.6094"/><line style="stroke:#181818;stroke-width:1.0;" x1="665" x2="675" y1="317.6094" y2="321.6094"/><line style="stroke:#181818;stroke-width:1.0;stroke-dasharray:2.0,2.0;" x1="664" x2="1099" y1="317.6094" y2="317.6094"/><text fill="#000000" font-family="sans-serif" font-size="13" font-weight="bold" lengthAdjust="spacing" textLength="7" x="681" y="312.3467">6</text><text fill="#000000" font-family="sans-serif" font-size="13" lengthAdjust="spacing" textLength="44" x="692" y="312.3467">building</text><path d="M10,332.6094 L71,332.6094 L71,341.9004 L61,351.9004 L10,351.9004 L10,332.6094 " fill="#EEEEEE" style="stroke:#000000;stroke-width:1.5;"/><rect fill="none" height="144.4551" style="stroke:#000000;stroke-width:1.5;" width="709" x="10" y="332.6094"/><text fill="#000000" font-family="sans-serif" font-size="13" font-weight="bold" lengthAdjust="spacing" textLength="16" x="25" y="347.6377">alt</text><text fill="#000000" font-family="sans-serif" font-size="11" font-weight="bold" lengthAdjust="spacing" textLength="87" x="86" y="346.4795">[building found]</text><line style="stroke:#181818;stroke-width:1.0;" x1="406" x2="416" y1="375.1914" y2="371.1914"/><line style="stroke:#181818;stroke-width:1.0;" x1="406" x2="416" y1="375.1914" y2="379.1914"/><line style="stroke:#181818;stroke-width:1.0;stroke-dasharray:2.0,2.0;" x1="405" x2="653" y1="375.1914" y2="375.1914"/><text fill="#000000" font-family="sans-serif" font-size="13" font-weight="bold" lengthAdjust="spacing" textLength="7" x="422" y="369.9287">7</text><text fill="#000000" font-family="sans-serif" font-size="13" lengthAdjust="spacing" textLength="31" x="433" y="369.9287">found</text><line style="stroke:#181818;stroke-width:1.0;" x1="282" x2="292" y1="406.4824" y2="402.4824"/><line style="stroke:#181818;stroke-width:1.0;" x1="282" x2="292" y1="406.4824" y2="410.4824"/><line style="stroke:#181818;stroke-width:1.0;stroke-dasharray:2.0,2.0;" x1="281" x2="394" y1="406.4824" y2="406.4824"/><text fill="#000000" font-family="sans-serif" font-size="13" font-weight="bold" lengthAdjust="spacing" textLength="7" x="298" y="401.2197">8</text><text fill="#000000" font-family="sans-serif" font-size="13" lengthAdjust="spacing" textLength="16" x="309" y="401.2197">fail</text><line style="stroke:#181818;stroke-width:1.0;" x1="158" x2="168" y1="437.7734" y2="433.7734"/><line style="stroke:#181818;stroke-width:1.0;" x1="158" x2="168" y1="437.7734" y2="441.7734"/><line style="stroke:#181818;stroke-width:1.0;stroke-dasharray:2.0,2.0;" x1="157" x2="270" y1="437.7734" y2="437.7734"/><text fill="#000000" font-family="sans-serif" font-size="13" font-weight="bold" lengthAdjust="spacing" textLength="7" x="174" y="432.5107">9</text><text fill="#000000" font-family="sans-serif" font-size="13" lengthAdjust="spacing" textLength="16" x="185" y="432.5107">fail</text><ellipse cx="6.5" cy="468.3145" fill="none" rx="4" ry="4" style="stroke:#181818;stroke-width:1.5;"/><line style="stroke:#181818;stroke-width:1.0;" x1="13.5" x2="23.5" y1="469.0645" y2="465.0645"/><line style="stroke:#181818;stroke-width:1.0;" x1="13.5" x2="23.5" y1="469.0645" y2="473.0645"/><line style="stroke:#181818;stroke-width:1.0;stroke-dasharray:2.0,2.0;" x1="7" x2="146" y1="469.0645" y2="469.0645"/><text fill="#000000" font-family="sans-serif" font-size="13" font-weight="bold" lengthAdjust="spacing" textLength="14" x="24" y="463.8018">10</text><text fill="#000000" font-family="sans-serif" font-size="13" lengthAdjust="spacing" textLength="100" x="42" y="463.8018">400 Bad Request</text><line style="stroke:#181818;stroke-width:1.0;" x1="717" x2="707" y1="507.3555" y2="503.3555"/><line style="stroke:#181818;stroke-width:1.0;" x1="717" x2="707" y1="507.3555" y2="511.3555"/><line style="stroke:#181818;stroke-width:1.0;" x1="405" x2="718" y1="507.3555" y2="507.3555"/><text fill="#000000" font-family="sans-serif" font-size="13" font-weight="bold" lengthAdjust="spacing" textLength="14" x="412" y="502.0928">11</text><text fill="#000000" font-family="sans-serif" font-size="13" lengthAdjust="spacing" textLength="36" x="430" y="502.0928">create</text><rect fill="#E2E2F0" height="51.2422" rx="2.5" ry="2.5" style="stroke:#181818;stroke-width:0.5;" width="100" x="719" y="484.0645"/><text fill="#000000" font-family="sans-serif" font-size="14" font-style="italic" lengthAdjust="spacing" textLength="86" x="726" y="506.1719">&#171;component&#187;</text><text fill="#000000" font-family="sans-serif" font-size="14" lengthAdjust="spacing" textLength="50" x="744" y="524.793">Building</text><line style="stroke:#181818;stroke-width:1.0;stroke-dasharray:2.0,2.0;" x1="769" x2="811" y1="569.5977" y2="569.5977"/><line style="stroke:#181818;stroke-width:1.0;stroke-dasharray:2.0,2.0;" x1="811" x2="811" y1="569.5977" y2="582.5977"/><line style="stroke:#181818;stroke-width:1.0;stroke-dasharray:2.0,2.0;" x1="770" x2="811" y1="582.5977" y2="582.5977"/><line style="stroke:#181818;stroke-width:1.0;" x1="770" x2="780" y1="582.5977" y2="578.5977"/><line style="stroke:#181818;stroke-width:1.0;" x1="770" x2="780" y1="582.5977" y2="586.5977"/><text fill="#000000" font-family="sans-serif" font-size="13" font-weight="bold" lengthAdjust="spacing" textLength="14" x="776" y="564.335">12</text><text fill="#000000" font-family="sans-serif" font-size="13" lengthAdjust="spacing" textLength="68" x="794" y="564.335">verifies data</text><path d="M10,597.5977 L71,597.5977 L71,606.8887 L61,616.8887 L10,616.8887 L10,597.5977 " fill="#EEEEEE" style="stroke:#000000;stroke-width:1.5;"/><rect fill="none" height="144.4551" style="stroke:#000000;stroke-width:1.5;" width="819" x="10" y="597.5977"/><text fill="#000000" font-family="sans-serif" font-size="13" font-weight="bold" lengthAdjust="spacing" textLength="16" x="25" y="612.626">alt</text><text fill="#000000" font-family="sans-serif" font-size="11" font-weight="bold" lengthAdjust="spacing" textLength="69" x="86" y="611.4678">[invalid data]</text><line style="stroke:#181818;stroke-width:1.0;" x1="406" x2="416" y1="640.1797" y2="636.1797"/><line style="stroke:#181818;stroke-width:1.0;" x1="406" x2="416" y1="640.1797" y2="644.1797"/><line style="stroke:#181818;stroke-width:1.0;stroke-dasharray:2.0,2.0;" x1="405" x2="768" y1="640.1797" y2="640.1797"/><text fill="#000000" font-family="sans-serif" font-size="13" font-weight="bold" lengthAdjust="spacing" textLength="14" x="422" y="634.917">13</text><text fill="#000000" font-family="sans-serif" font-size="13" lengthAdjust="spacing" textLength="64" x="440" y="634.917">invalid data</text><line style="stroke:#181818;stroke-width:1.0;" x1="282" x2="292" y1="671.4707" y2="667.4707"/><line style="stroke:#181818;stroke-width:1.0;" x1="282" x2="292" y1="671.4707" y2="675.4707"/><line style="stroke:#181818;stroke-width:1.0;stroke-dasharray:2.0,2.0;" x1="281" x2="394" y1="671.4707" y2="671.4707"/><text fill="#000000" font-family="sans-serif" font-size="13" font-weight="bold" lengthAdjust="spacing" textLength="14" x="298" y="666.208">14</text><text fill="#000000" font-family="sans-serif" font-size="13" lengthAdjust="spacing" textLength="16" x="316" y="666.208">fail</text><line style="stroke:#181818;stroke-width:1.0;" x1="158" x2="168" y1="702.7617" y2="698.7617"/><line style="stroke:#181818;stroke-width:1.0;" x1="158" x2="168" y1="702.7617" y2="706.7617"/><line style="stroke:#181818;stroke-width:1.0;stroke-dasharray:2.0,2.0;" x1="157" x2="270" y1="702.7617" y2="702.7617"/><text fill="#000000" font-family="sans-serif" font-size="13" font-weight="bold" lengthAdjust="spacing" textLength="14" x="174" y="697.499">15</text><text fill="#000000" font-family="sans-serif" font-size="13" lengthAdjust="spacing" textLength="16" x="192" y="697.499">fail</text><ellipse cx="6.5" cy="733.3027" fill="none" rx="4" ry="4" style="stroke:#181818;stroke-width:1.5;"/><line style="stroke:#181818;stroke-width:1.0;" x1="13.5" x2="23.5" y1="734.0527" y2="730.0527"/><line style="stroke:#181818;stroke-width:1.0;" x1="13.5" x2="23.5" y1="734.0527" y2="738.0527"/><line style="stroke:#181818;stroke-width:1.0;stroke-dasharray:2.0,2.0;" x1="7" x2="146" y1="734.0527" y2="734.0527"/><text fill="#000000" font-family="sans-serif" font-size="13" font-weight="bold" lengthAdjust="spacing" textLength="14" x="24" y="728.79">16</text><text fill="#000000" font-family="sans-serif" font-size="13" lengthAdjust="spacing" textLength="100" x="42" y="728.79">400 Bad Request</text><line style="stroke:#181818;stroke-width:1.0;" x1="652" x2="642" y1="772.3438" y2="768.3438"/><line style="stroke:#181818;stroke-width:1.0;" x1="652" x2="642" y1="772.3438" y2="776.3438"/><line style="stroke:#181818;stroke-width:1.0;" x1="405" x2="653" y1="772.3438" y2="772.3438"/><text fill="#000000" font-family="sans-serif" font-size="13" font-weight="bold" lengthAdjust="spacing" textLength="14" x="412" y="767.0811">17</text><text fill="#000000" font-family="sans-serif" font-size="13" lengthAdjust="spacing" textLength="26" x="430" y="767.0811">save</text><line style="stroke:#181818;stroke-width:1.0;" x1="1093" x2="1083" y1="803.6348" y2="799.6348"/><line style="stroke:#181818;stroke-width:1.0;" x1="1093" x2="1083" y1="803.6348" y2="807.6348"/><line style="stroke:#181818;stroke-width:1.0;" x1="664" x2="1094" y1="803.6348" y2="803.6348"/><text fill="#000000" font-family="sans-serif" font-size="13" font-weight="bold" lengthAdjust="spacing" textLength="14" x="671" y="798.3721">18</text><text fill="#000000" font-family="sans-serif" font-size="13" lengthAdjust="spacing" textLength="80" x="689" y="798.3721">insert building</text><line style="stroke:#181818;stroke-width:1.0;" x1="665" x2="675" y1="834.9258" y2="830.9258"/><line style="stroke:#181818;stroke-width:1.0;" x1="665" x2="675" y1="834.9258" y2="838.9258"/><line style="stroke:#181818;stroke-width:1.0;stroke-dasharray:2.0,2.0;" x1="664" x2="1099" y1="834.9258" y2="834.9258"/><text fill="#000000" font-family="sans-serif" font-size="13" font-weight="bold" lengthAdjust="spacing" textLength="14" x="681" y="829.6631">19</text><text fill="#000000" font-family="sans-serif" font-size="13" lengthAdjust="spacing" textLength="49" x="699" y="829.6631">success</text><line style="stroke:#181818;stroke-width:1.0;" x1="406" x2="416" y1="866.2168" y2="862.2168"/><line style="stroke:#181818;stroke-width:1.0;" x1="406" x2="416" y1="866.2168" y2="870.2168"/><line style="stroke:#181818;stroke-width:1.0;stroke-dasharray:2.0,2.0;" x1="405" x2="658" y1="866.2168" y2="866.2168"/><text fill="#000000" font-family="sans-serif" font-size="13" font-weight="bold" lengthAdjust="spacing" textLength="14" x="422" y="860.9541">20</text><text fill="#000000" font-family="sans-serif" font-size="13" lengthAdjust="spacing" textLength="63" x="440" y="860.9541">successaa</text><line style="stroke:#181818;stroke-width:1.0;" x1="872" x2="862" y1="897.5078" y2="893.5078"/><line style="stroke:#181818;stroke-width:1.0;" x1="872" x2="862" y1="897.5078" y2="901.5078"/><line style="stroke:#181818;stroke-width:1.0;" x1="405" x2="873" y1="897.5078" y2="897.5078"/><text fill="#000000" font-family="sans-serif" font-size="13" font-weight="bold" lengthAdjust="spacing" textLength="14" x="412" y="892.2451">21</text><text fill="#000000" font-family="sans-serif" font-size="13" lengthAdjust="spacing" textLength="37" x="430" y="892.2451">toDTO</text><line style="stroke:#181818;stroke-width:1.0;" x1="942" x2="932" y1="928.7988" y2="924.7988"/><line style="stroke:#181818;stroke-width:1.0;" x1="942" x2="932" y1="928.7988" y2="932.7988"/><line style="stroke:#181818;stroke-width:1.0;" x1="884" x2="943" y1="928.7988" y2="928.7988"/><text fill="#000000" font-family="sans-serif" font-size="13" font-weight="bold" lengthAdjust="spacing" textLength="14" x="891" y="923.5361">22</text><text fill="#000000" font-family="sans-serif" font-size="13" lengthAdjust="spacing" textLength="18" x="909" y="923.5361">dto</text><rect fill="#E2E2F0" height="51.2422" rx="2.5" ry="2.5" style="stroke:#181818;stroke-width:0.5;" width="100" x="944" y="905.5078"/><text fill="#000000" font-family="sans-serif" font-size="14" font-style="italic" lengthAdjust="spacing" textLength="86" x="951" y="927.6152">&#171;component&#187;</text><text fill="#000000" font-family="sans-serif" font-size="14" lengthAdjust="spacing" textLength="30" x="979" y="946.2363">DTO</text><line style="stroke:#181818;stroke-width:1.0;" x1="885" x2="895" y1="991.041" y2="987.041"/><line style="stroke:#181818;stroke-width:1.0;" x1="885" x2="895" y1="991.041" y2="995.041"/><line style="stroke:#181818;stroke-width:1.0;stroke-dasharray:2.0,2.0;" x1="884" x2="993" y1="991.041" y2="991.041"/><text fill="#000000" font-family="sans-serif" font-size="13" font-weight="bold" lengthAdjust="spacing" textLength="14" x="901" y="985.7783">23</text><text fill="#000000" font-family="sans-serif" font-size="13" lengthAdjust="spacing" textLength="18" x="919" y="985.7783">dto</text><line style="stroke:#181818;stroke-width:1.0;" x1="406" x2="416" y1="1022.332" y2="1018.332"/><line style="stroke:#181818;stroke-width:1.0;" x1="406" x2="416" y1="1022.332" y2="1026.332"/><line style="stroke:#181818;stroke-width:1.0;stroke-dasharray:2.0,2.0;" x1="405" x2="878" y1="1022.332" y2="1022.332"/><text fill="#000000" font-family="sans-serif" font-size="13" font-weight="bold" lengthAdjust="spacing" textLength="14" x="422" y="1017.0693">24</text><text fill="#000000" font-family="sans-serif" font-size="13" lengthAdjust="spacing" textLength="18" x="440" y="1017.0693">dto</text><line style="stroke:#181818;stroke-width:1.0;" x1="282" x2="292" y1="1053.623" y2="1049.623"/><line style="stroke:#181818;stroke-width:1.0;" x1="282" x2="292" y1="1053.623" y2="1057.623"/><line style="stroke:#181818;stroke-width:1.0;stroke-dasharray:2.0,2.0;" x1="281" x2="399" y1="1053.623" y2="1053.623"/><text fill="#000000" font-family="sans-serif" font-size="13" font-weight="bold" lengthAdjust="spacing" textLength="14" x="298" y="1048.3604">25</text><text fill="#000000" font-family="sans-serif" font-size="13" lengthAdjust="spacing" textLength="49" x="316" y="1048.3604">success</text><line style="stroke:#181818;stroke-width:1.0;" x1="158" x2="168" y1="1084.9141" y2="1080.9141"/><line style="stroke:#181818;stroke-width:1.0;" x1="158" x2="168" y1="1084.9141" y2="1088.9141"/><line style="stroke:#181818;stroke-width:1.0;stroke-dasharray:2.0,2.0;" x1="157" x2="275" y1="1084.9141" y2="1084.9141"/><text fill="#000000" font-family="sans-serif" font-size="13" font-weight="bold" lengthAdjust="spacing" textLength="14" x="174" y="1079.6514">26</text><text fill="#000000" font-family="sans-serif" font-size="13" lengthAdjust="spacing" textLength="49" x="192" y="1079.6514">success</text><ellipse cx="31.5" cy="1115.4551" fill="none" rx="4" ry="4" style="stroke:#181818;stroke-width:1.5;"/><line style="stroke:#181818;stroke-width:1.0;" x1="38.5" x2="48.5" y1="1116.2051" y2="1112.2051"/><line style="stroke:#181818;stroke-width:1.0;" x1="38.5" x2="48.5" y1="1116.2051" y2="1120.2051"/><line style="stroke:#181818;stroke-width:1.0;stroke-dasharray:2.0,2.0;" x1="32" x2="151" y1="1116.2051" y2="1116.2051"/><text fill="#000000" font-family="sans-serif" font-size="13" font-weight="bold" lengthAdjust="spacing" textLength="14" x="49" y="1110.9424">27</text><text fill="#000000" font-family="sans-serif" font-size="13" lengthAdjust="spacing" textLength="70" x="67" y="1110.9424">201 Created</text><!--SRC=[nPLDRzim38Rl-XL4Zm6CPSDEHf02xQv3XwH_WBQOLgWZUHBjBVz-almHAHz6RyibClEy5FEIOR1ZexjZHLQu3wLRj7Y45kiFVACzdne2IpKBmOhz-TaICW52rQb6AlqcX5UmgbMBck5XPphsqGT01tOumsPJcsDhD6dURdFysMYsfcd8HaKzFow9zcHxLLDKkE6yXE-eDKwniQUec0gtFhmaUngvJBGa-8bjP8_OBc4_NbyY9ldoUecC5Jhop7WQmEg24u-cs6vdUqluzR9_XIzJZKvWpQeFRHeHCQ51bdXSGZsqyzpCMNh6HA882IRBbzGZ8oOsw3BZI-Z9geCY1-e0sFXCyWJqLpbsy4VnE_0xigz2Kf8sJI6oVE42RrJfRsxyk9vhchMo4XueRbGoiv9I6fjp6ZYOJai1_fLVcnioOf6Rl_gLwGTKJKHIO_EEpiYZsMoA8lda-teDJoXXHxyxSYn8Is-V_tqcnMSstUp1QZMtJyn6vkOa7Gg36UrGkiT6oI6Gcd5fH0R-5plYQs7y7FPqPx3kJ9RIFXtVclRxe-MwkYRdnCLeBStGA47yN4VzjYc1ZTygvtfyJ8Gj54jdirgLuIsfrp-4zLFC2MA4Ci37qygkc739PwRkgj-J9ubqMXVY_WZSK2KhIbmDnhVrr_7FIgQQQIF-0m00]--></g></svg>