<?xml version="1.0" encoding="us-ascii" standalone="no"?><svg xmlns="http://www.w3.org/2000/svg" xmlns:xlink="http://www.w3.org/1999/xlink" contentStyleType="text/css" height="639px" preserveAspectRatio="none" style="width:1111px;height:639px;background:#FFFFFF;" version="1.1" viewBox="0 0 1111 639" width="1111px" zoomAndPan="magnify"><defs/><g><text fill="#000000" font-family="sans-serif" font-size="14" font-weight="bold" lengthAdjust="spacing" textLength="81" x="511.5" y="30.1074">Create a lift</text><rect fill="#FFFFFF" height="344.2012" style="stroke:#181818;stroke-width:1.0;" width="10" x="59" y="175.1543"/><rect fill="#FFFFFF" height="344.2012" style="stroke:#181818;stroke-width:1.0;" width="10" x="253" y="175.1543"/><rect fill="#FFFFFF" height="219.0371" style="stroke:#181818;stroke-width:1.0;" width="10" x="534" y="269.0273"/><rect fill="#FFFFFF" height="156.4551" style="stroke:#181818;stroke-width:1.0;" width="10" x="741" y="300.3184"/><rect fill="#FFFFFF" height="93.873" style="stroke:#181818;stroke-width:1.0;" width="10" x="929" y="331.6094"/><line style="stroke:#181818;stroke-width:0.5;stroke-dasharray:5.0,5.0;" x1="64" x2="64" y1="141.8633" y2="537.3555"/><line style="stroke:#181818;stroke-width:0.5;stroke-dasharray:5.0,5.0;" x1="258" x2="258" y1="141.8633" y2="537.3555"/><line style="stroke:#181818;stroke-width:0.5;stroke-dasharray:5.0,5.0;" x1="539" x2="539" y1="141.8633" y2="537.3555"/><line style="stroke:#181818;stroke-width:0.5;stroke-dasharray:5.0,5.0;" x1="746" x2="746" y1="141.8633" y2="537.3555"/><line style="stroke:#181818;stroke-width:0.5;stroke-dasharray:5.0,5.0;" x1="934" x2="934" y1="141.8633" y2="537.3555"/><text fill="#000000" font-family="sans-serif" font-size="14" font-style="italic" lengthAdjust="spacing" textLength="61" x="30.5" y="119.7285">&#171;Human&#187;</text><text fill="#000000" font-family="sans-serif" font-size="14" lengthAdjust="spacing" textLength="112" x="5" y="138.3496">Campus Manager</text><ellipse cx="64" cy="53.1211" fill="#E2E2F0" rx="8" ry="8" style="stroke:#181818;stroke-width:0.5;"/><path d="M64,61.1211 L64,88.1211 M51,69.1211 L77,69.1211 M64,88.1211 L51,103.1211 M64,88.1211 L77,103.1211 " fill="none" style="stroke:#181818;stroke-width:0.5;"/><text fill="#000000" font-family="sans-serif" font-size="14" font-style="italic" lengthAdjust="spacing" textLength="61" x="30.5" y="551.4629">&#171;Human&#187;</text><text fill="#000000" font-family="sans-serif" font-size="14" lengthAdjust="spacing" textLength="112" x="5" y="570.084">Campus Manager</text><ellipse cx="64" cy="582.0977" fill="#E2E2F0" rx="8" ry="8" style="stroke:#181818;stroke-width:0.5;"/><path d="M64,590.0977 L64,617.0977 M51,598.0977 L77,598.0977 M64,617.0977 L51,632.0977 M64,617.0977 L77,632.0977 " fill="none" style="stroke:#181818;stroke-width:0.5;"/><rect fill="#E2E2F0" height="51.2422" rx="2.5" ry="2.5" style="stroke:#181818;stroke-width:0.5;" width="100" x="208" y="89.6211"/><text fill="#000000" font-family="sans-serif" font-size="14" font-style="italic" lengthAdjust="spacing" textLength="86" x="215" y="111.7285">&#171;component&#187;</text><text fill="#000000" font-family="sans-serif" font-size="14" lengthAdjust="spacing" textLength="29" x="243.5" y="130.3496">View</text><rect fill="#E2E2F0" height="51.2422" rx="2.5" ry="2.5" style="stroke:#181818;stroke-width:0.5;" width="100" x="208" y="536.3555"/><text fill="#000000" font-family="sans-serif" font-size="14" font-style="italic" lengthAdjust="spacing" textLength="86" x="215" y="558.4629">&#171;component&#187;</text><text fill="#000000" font-family="sans-serif" font-size="14" lengthAdjust="spacing" textLength="29" x="243.5" y="577.084">View</text><rect fill="#E2E2F0" height="51.2422" rx="2.5" ry="2.5" style="stroke:#181818;stroke-width:0.5;" width="100" x="489" y="89.6211"/><text fill="#000000" font-family="sans-serif" font-size="14" font-style="italic" lengthAdjust="spacing" textLength="86" x="496" y="111.7285">&#171;component&#187;</text><text fill="#000000" font-family="sans-serif" font-size="14" lengthAdjust="spacing" textLength="67" x="505.5" y="130.3496">ViewModel</text><rect fill="#E2E2F0" height="51.2422" rx="2.5" ry="2.5" style="stroke:#181818;stroke-width:0.5;" width="100" x="489" y="536.3555"/><text fill="#000000" font-family="sans-serif" font-size="14" font-style="italic" lengthAdjust="spacing" textLength="86" x="496" y="558.4629">&#171;component&#187;</text><text fill="#000000" font-family="sans-serif" font-size="14" lengthAdjust="spacing" textLength="67" x="505.5" y="577.084">ViewModel</text><rect fill="#E2E2F0" height="51.2422" rx="2.5" ry="2.5" style="stroke:#181818;stroke-width:0.5;" width="100" x="696" y="89.6211"/><text fill="#000000" font-family="sans-serif" font-size="14" font-style="italic" lengthAdjust="spacing" textLength="86" x="703" y="111.7285">&#171;component&#187;</text><text fill="#000000" font-family="sans-serif" font-size="14" lengthAdjust="spacing" textLength="47" x="722.5" y="130.3496">Service</text><rect fill="#E2E2F0" height="51.2422" rx="2.5" ry="2.5" style="stroke:#181818;stroke-width:0.5;" width="100" x="696" y="536.3555"/><text fill="#000000" font-family="sans-serif" font-size="14" font-style="italic" lengthAdjust="spacing" textLength="86" x="703" y="558.4629">&#171;component&#187;</text><text fill="#000000" font-family="sans-serif" font-size="14" lengthAdjust="spacing" textLength="47" x="722.5" y="577.084">Service</text><rect fill="#E2E2F0" height="51.2422" rx="2.5" ry="2.5" style="stroke:#181818;stroke-width:0.5;" width="100" x="884" y="89.6211"/><text fill="#000000" font-family="sans-serif" font-size="14" font-style="italic" lengthAdjust="spacing" textLength="86" x="891" y="111.7285">&#171;component&#187;</text><text fill="#000000" font-family="sans-serif" font-size="14" lengthAdjust="spacing" textLength="75" x="896.5" y="130.3496">HttpAdapter</text><rect fill="#E2E2F0" height="51.2422" rx="2.5" ry="2.5" style="stroke:#181818;stroke-width:0.5;" width="100" x="884" y="536.3555"/><text fill="#000000" font-family="sans-serif" font-size="14" font-style="italic" lengthAdjust="spacing" textLength="86" x="891" y="558.4629">&#171;component&#187;</text><text fill="#000000" font-family="sans-serif" font-size="14" lengthAdjust="spacing" textLength="75" x="896.5" y="577.084">HttpAdapter</text><rect fill="#FFFFFF" height="344.2012" style="stroke:#181818;stroke-width:1.0;" width="10" x="59" y="175.1543"/><rect fill="#FFFFFF" height="344.2012" style="stroke:#181818;stroke-width:1.0;" width="10" x="253" y="175.1543"/><rect fill="#FFFFFF" height="219.0371" style="stroke:#181818;stroke-width:1.0;" width="10" x="534" y="269.0273"/><rect fill="#FFFFFF" height="156.4551" style="stroke:#181818;stroke-width:1.0;" width="10" x="741" y="300.3184"/><rect fill="#FFFFFF" height="93.873" style="stroke:#181818;stroke-width:1.0;" width="10" x="929" y="331.6094"/><polygon fill="#181818" points="241,171.1543,251,175.1543,241,179.1543,245,175.1543" style="stroke:#181818;stroke-width:1.0;"/><line style="stroke:#181818;stroke-width:1.0;" x1="69" x2="247" y1="175.1543" y2="175.1543"/><text fill="#000000" font-family="sans-serif" font-size="13" font-weight="bold" lengthAdjust="spacing" textLength="7" x="76" y="169.8916">1</text><text fill="#000000" font-family="sans-serif" font-size="13" lengthAdjust="spacing" textLength="123" x="87" y="169.8916">Navigate to CreateLift</text><polygon fill="#181818" points="80,202.4453,70,206.4453,80,210.4453,76,206.4453" style="stroke:#181818;stroke-width:1.0;"/><line style="stroke:#181818;stroke-width:1.0;stroke-dasharray:2.0,2.0;" x1="74" x2="252" y1="206.4453" y2="206.4453"/><text fill="#000000" font-family="sans-serif" font-size="13" font-weight="bold" lengthAdjust="spacing" textLength="7" x="86" y="201.1826">2</text><text fill="#000000" font-family="sans-serif" font-size="13" lengthAdjust="spacing" textLength="149" x="97" y="201.1826">Display form for lift details</text><polygon fill="#181818" points="241,233.7363,251,237.7363,241,241.7363,245,237.7363" style="stroke:#181818;stroke-width:1.0;"/><line style="stroke:#181818;stroke-width:1.0;" x1="69" x2="247" y1="237.7363" y2="237.7363"/><text fill="#000000" font-family="sans-serif" font-size="13" font-weight="bold" lengthAdjust="spacing" textLength="7" x="76" y="232.4736">3</text><text fill="#000000" font-family="sans-serif" font-size="13" lengthAdjust="spacing" textLength="122" x="87" y="232.4736">Enters lift information</text><polygon fill="#181818" points="522,265.0273,532,269.0273,522,273.0273,526,269.0273" style="stroke:#181818;stroke-width:1.0;"/><line style="stroke:#181818;stroke-width:1.0;" x1="263" x2="528" y1="269.0273" y2="269.0273"/><text fill="#000000" font-family="sans-serif" font-size="13" font-weight="bold" lengthAdjust="spacing" textLength="7" x="270" y="263.7646">4</text><text fill="#000000" font-family="sans-serif" font-size="13" lengthAdjust="spacing" textLength="241" x="281" y="263.7646">Trigger create lift with provided information</text><polygon fill="#181818" points="729,296.3184,739,300.3184,729,304.3184,733,300.3184" style="stroke:#181818;stroke-width:1.0;"/><line style="stroke:#181818;stroke-width:1.0;" x1="544" x2="735" y1="300.3184" y2="300.3184"/><text fill="#000000" font-family="sans-serif" font-size="13" font-weight="bold" lengthAdjust="spacing" textLength="7" x="551" y="295.0557">5</text><text fill="#000000" font-family="sans-serif" font-size="13" lengthAdjust="spacing" textLength="120" x="562" y="295.0557">Request to create lift</text><polygon fill="#181818" points="917,327.6094,927,331.6094,917,335.6094,921,331.6094" style="stroke:#181818;stroke-width:1.0;"/><line style="stroke:#181818;stroke-width:1.0;" x1="751" x2="923" y1="331.6094" y2="331.6094"/><text fill="#000000" font-family="sans-serif" font-size="13" font-weight="bold" lengthAdjust="spacing" textLength="7" x="758" y="326.3467">6</text><text fill="#000000" font-family="sans-serif" font-size="13" lengthAdjust="spacing" textLength="120" x="769" y="326.3467">Make HTTP Request</text><line style="stroke:#181818;stroke-width:1.0;" x1="1103" x2="1093" y1="362.9004" y2="358.9004"/><line style="stroke:#181818;stroke-width:1.0;" x1="1103" x2="1093" y1="362.9004" y2="366.9004"/><line style="stroke:#181818;stroke-width:1.0;" x1="939" x2="1104" y1="362.9004" y2="362.9004"/><text fill="#000000" font-family="sans-serif" font-size="13" font-weight="bold" lengthAdjust="spacing" textLength="7" x="946" y="357.6377">7</text><text fill="#000000" font-family="sans-serif" font-size="13" lengthAdjust="spacing" textLength="131" x="957" y="357.6377">HTTP Request (POST)</text><line style="stroke:#181818;stroke-width:1.0;" x1="940" x2="950" y1="394.1914" y2="390.1914"/><line style="stroke:#181818;stroke-width:1.0;" x1="940" x2="950" y1="394.1914" y2="398.1914"/><line style="stroke:#181818;stroke-width:1.0;stroke-dasharray:2.0,2.0;" x1="939" x2="1104" y1="394.1914" y2="394.1914"/><text fill="#000000" font-family="sans-serif" font-size="13" font-weight="bold" lengthAdjust="spacing" textLength="7" x="956" y="388.9287">8</text><text fill="#000000" font-family="sans-serif" font-size="13" lengthAdjust="spacing" textLength="127" x="967" y="388.9287">HTTP Response (201)</text><polygon fill="#181818" points="762,421.4824,752,425.4824,762,429.4824,758,425.4824" style="stroke:#181818;stroke-width:1.0;"/><line style="stroke:#181818;stroke-width:1.0;stroke-dasharray:2.0,2.0;" x1="756" x2="933" y1="425.4824" y2="425.4824"/><text fill="#000000" font-family="sans-serif" font-size="13" font-weight="bold" lengthAdjust="spacing" textLength="7" x="768" y="420.2197">9</text><text fill="#000000" font-family="sans-serif" font-size="13" lengthAdjust="spacing" textLength="143" x="779" y="420.2197">Receive HTTP Response</text><polygon fill="#181818" points="555,452.7734,545,456.7734,555,460.7734,551,456.7734" style="stroke:#181818;stroke-width:1.0;"/><line style="stroke:#181818;stroke-width:1.0;stroke-dasharray:2.0,2.0;" x1="549" x2="745" y1="456.7734" y2="456.7734"/><text fill="#000000" font-family="sans-serif" font-size="13" font-weight="bold" lengthAdjust="spacing" textLength="14" x="561" y="451.5107">10</text><text fill="#000000" font-family="sans-serif" font-size="13" lengthAdjust="spacing" textLength="155" x="579" y="451.5107">Receive success response</text><polygon fill="#181818" points="274,484.0645,264,488.0645,274,492.0645,270,488.0645" style="stroke:#181818;stroke-width:1.0;"/><line style="stroke:#181818;stroke-width:1.0;stroke-dasharray:2.0,2.0;" x1="268" x2="538" y1="488.0645" y2="488.0645"/><text fill="#000000" font-family="sans-serif" font-size="13" font-weight="bold" lengthAdjust="spacing" textLength="14" x="280" y="482.8018">11</text><text fill="#000000" font-family="sans-serif" font-size="13" lengthAdjust="spacing" textLength="155" x="298" y="482.8018">Receive success response</text><polygon fill="#181818" points="75,515.3555,65,519.3555,75,523.3555,71,519.3555" style="stroke:#181818;stroke-width:1.0;"/><line style="stroke:#181818;stroke-width:1.0;stroke-dasharray:2.0,2.0;" x1="69" x2="257" y1="519.3555" y2="519.3555"/><text fill="#000000" font-family="sans-serif" font-size="13" font-weight="bold" lengthAdjust="spacing" textLength="14" x="81" y="514.0928">12</text><text fill="#000000" font-family="sans-serif" font-size="13" lengthAdjust="spacing" textLength="131" x="99" y="514.0928">Successfully response</text><!--SRC=[ZPD1Rvmm48Nl_XMZFIK7f3P7525LjD8UIXfbLxbFpUp6Mh1TUo3QVvy1bcAsITGB6gptFMRU6EpOsQxzJK75ax4U0xRWKP_mI3i-DmI1D2l5XgKk0o4J83Jc88UesGNObDZwBaA5Lg2m0OnGLd1_l-rQj4MXn9IDDXujm-RPqEiewQKGaNQjTvOiloUiN4tDN_NuzXcoez0RJICGf_ep-PRPVwlHywNfb-Nz2bCoJrPCBUVmWBqv3ZcmkoJoSuX3qZ3zS5nMIpqWQkGoCH2R7BwRw1iymy65TdYCOK9DZAQ9wo_ziD9Bd0J63W2oSLPT78iabXpsmHmbVz3JaaRerV0B-E1wKrEzjbYrE7genKsivm1pUA8_7KKUnasy4uUBLCs8q6cMkLoD4y5slt-SlHOs4QeKoef2m9I1cyTVk_sjMgyfonPPb8L5WfkxBr_Nikng7ascfpMbQdgtfsMegxXdbzXfJJ7AV_AlqHnCckootVznM9PpTOjs4tJeckRy8QdIWx9w0m00]--></g></svg>