<?xml version="1.0" encoding="us-ascii" standalone="no"?><svg xmlns="http://www.w3.org/2000/svg" xmlns:xlink="http://www.w3.org/1999/xlink" contentStyleType="text/css" height="1512px" preserveAspectRatio="none" style="width:1250px;height:1512px;background:#FFFFFF;" version="1.1" viewBox="0 0 1250 1512" width="1250px" zoomAndPan="magnify"><defs/><g><text fill="#000000" font-family="sans-serif" font-size="14" font-weight="bold" lengthAdjust="spacing" textLength="81" x="593.75" y="30.1074">Create a lift</text><rect fill="#FFFFFF" height="1233.6699" style="stroke:#181818;stroke-width:1.0;" width="10" x="147" y="161.1543"/><rect fill="#FFFFFF" height="1171.0879" style="stroke:#181818;stroke-width:1.0;" width="10" x="257" y="192.4453"/><rect fill="#FFFFFF" height="1108.5059" style="stroke:#181818;stroke-width:1.0;" width="10" x="367" y="223.7363"/><rect fill="#FFFFFF" height="229.0371" style="stroke:#181818;stroke-width:1.0;" width="10" x="626" y="255.0273"/><rect fill="#FFFFFF" height="93.873" style="stroke:#181818;stroke-width:1.0;" width="10" x="626" y="1050.9629"/><rect fill="#FFFFFF" height="240.3281" style="stroke:#181818;stroke-width:1.0;" width="10" x="748" y="507.3555"/><rect fill="#FFFFFF" height="124.8242" style="stroke:#181818;stroke-width:1.0;" width="10" x="977.5" y="1176.127"/><rect fill="#FFFFFF" height="52.2422" style="stroke:#181818;stroke-width:1.0;" width="10" x="1092.5" y="1217.418"/><rect fill="#FFFFFF" height="31.291" style="stroke:#181818;stroke-width:1.0;" width="10" x="1198.5" y="286.3184"/><rect fill="#FFFFFF" height="31.291" style="stroke:#181818;stroke-width:1.0;" width="10" x="1198.5" y="564.9375"/><rect fill="#FFFFFF" height="31.291" style="stroke:#181818;stroke-width:1.0;" width="10" x="1198.5" y="1082.2539"/><rect fill="none" height="144.4551" style="stroke:#000000;stroke-width:1.5;" width="683.5" x="10" y="332.6094"/><rect fill="none" height="144.4551" style="stroke:#000000;stroke-width:1.5;" width="812.5" x="10" y="611.2285"/><rect fill="none" height="144.4551" style="stroke:#000000;stroke-width:1.5;" width="922.5" x="10" y="876.2168"/><line style="stroke:#181818;stroke-width:0.5;stroke-dasharray:5.0,5.0;" x1="152" x2="152" y1="127.8633" y2="1412.8242"/><line style="stroke:#181818;stroke-width:0.5;stroke-dasharray:5.0,5.0;" x1="262" x2="262" y1="127.8633" y2="1412.8242"/><line style="stroke:#181818;stroke-width:0.5;stroke-dasharray:5.0,5.0;" x1="372" x2="372" y1="127.8633" y2="1412.8242"/><line style="stroke:#181818;stroke-width:0.5;stroke-dasharray:5.0,5.0;" x1="630.5" x2="630.5" y1="127.8633" y2="1412.8242"/><line style="stroke:#181818;stroke-width:0.5;stroke-dasharray:5.0,5.0;" x1="752.5" x2="752.5" y1="127.8633" y2="1412.8242"/><line style="stroke:#181818;stroke-width:0.5;stroke-dasharray:5.0,5.0;" x1="872.5" x2="872.5" y1="803.8047" y2="1412.8242"/><line style="stroke:#181818;stroke-width:0.5;stroke-dasharray:5.0,5.0;" x1="982.5" x2="982.5" y1="127.8633" y2="1412.8242"/><line style="stroke:#181818;stroke-width:0.5;stroke-dasharray:5.0,5.0;" x1="1097.5" x2="1097.5" y1="1225.248" y2="1412.8242"/><line style="stroke:#181818;stroke-width:0.5;stroke-dasharray:5.0,5.0;" x1="1203.5" x2="1203.5" y1="127.8633" y2="1412.8242"/><rect fill="#E2E2F0" height="51.2422" rx="2.5" ry="2.5" style="stroke:#181818;stroke-width:0.5;" width="100" x="102" y="75.6211"/><text fill="#000000" font-family="sans-serif" font-size="14" font-style="italic" lengthAdjust="spacing" textLength="86" x="109" y="97.7285">&#171;component&#187;</text><text fill="#000000" font-family="sans-serif" font-size="14" lengthAdjust="spacing" textLength="49" x="127.5" y="116.3496">Routing</text><rect fill="#E2E2F0" height="51.2422" rx="2.5" ry="2.5" style="stroke:#181818;stroke-width:0.5;" width="100" x="102" y="1411.8242"/><text fill="#000000" font-family="sans-serif" font-size="14" font-style="italic" lengthAdjust="spacing" textLength="86" x="109" y="1433.9316">&#171;component&#187;</text><text fill="#000000" font-family="sans-serif" font-size="14" lengthAdjust="spacing" textLength="49" x="127.5" y="1452.5527">Routing</text><rect fill="#E2E2F0" height="51.2422" rx="2.5" ry="2.5" style="stroke:#181818;stroke-width:0.5;" width="100" x="212" y="75.6211"/><text fill="#000000" font-family="sans-serif" font-size="14" font-style="italic" lengthAdjust="spacing" textLength="86" x="219" y="97.7285">&#171;component&#187;</text><text fill="#000000" font-family="sans-serif" font-size="14" lengthAdjust="spacing" textLength="62" x="231" y="116.3496">Controller</text><rect fill="#E2E2F0" height="51.2422" rx="2.5" ry="2.5" style="stroke:#181818;stroke-width:0.5;" width="100" x="212" y="1411.8242"/><text fill="#000000" font-family="sans-serif" font-size="14" font-style="italic" lengthAdjust="spacing" textLength="86" x="219" y="1433.9316">&#171;component&#187;</text><text fill="#000000" font-family="sans-serif" font-size="14" lengthAdjust="spacing" textLength="62" x="231" y="1452.5527">Controller</text><rect fill="#E2E2F0" height="51.2422" rx="2.5" ry="2.5" style="stroke:#181818;stroke-width:0.5;" width="100" x="322" y="75.6211"/><text fill="#000000" font-family="sans-serif" font-size="14" font-style="italic" lengthAdjust="spacing" textLength="86" x="329" y="97.7285">&#171;component&#187;</text><text fill="#000000" font-family="sans-serif" font-size="14" lengthAdjust="spacing" textLength="47" x="348.5" y="116.3496">Service</text><rect fill="#E2E2F0" height="51.2422" rx="2.5" ry="2.5" style="stroke:#181818;stroke-width:0.5;" width="100" x="322" y="1411.8242"/><text fill="#000000" font-family="sans-serif" font-size="14" font-style="italic" lengthAdjust="spacing" textLength="86" x="329" y="1433.9316">&#171;component&#187;</text><text fill="#000000" font-family="sans-serif" font-size="14" lengthAdjust="spacing" textLength="47" x="348.5" y="1452.5527">Service</text><rect fill="#E2E2F0" height="51.2422" rx="2.5" ry="2.5" style="stroke:#181818;stroke-width:0.5;" width="105" x="578.5" y="75.6211"/><text fill="#000000" font-family="sans-serif" font-size="14" font-style="italic" lengthAdjust="spacing" textLength="86" x="588" y="97.7285">&#171;component&#187;</text><text fill="#000000" font-family="sans-serif" font-size="14" lengthAdjust="spacing" textLength="91" x="585.5" y="116.3496">Lift Repository</text><rect fill="#E2E2F0" height="51.2422" rx="2.5" ry="2.5" style="stroke:#181818;stroke-width:0.5;" width="105" x="578.5" y="1411.8242"/><text fill="#000000" font-family="sans-serif" font-size="14" font-style="italic" lengthAdjust="spacing" textLength="86" x="588" y="1433.9316">&#171;component&#187;</text><text fill="#000000" font-family="sans-serif" font-size="14" lengthAdjust="spacing" textLength="91" x="585.5" y="1452.5527">Lift Repository</text><rect fill="#E2E2F0" height="51.2422" rx="2.5" ry="2.5" style="stroke:#181818;stroke-width:0.5;" width="119" x="693.5" y="75.6211"/><text fill="#000000" font-family="sans-serif" font-size="14" font-style="italic" lengthAdjust="spacing" textLength="86" x="710" y="97.7285">&#171;component&#187;</text><text fill="#000000" font-family="sans-serif" font-size="14" lengthAdjust="spacing" textLength="105" x="700.5" y="116.3496">Floor Repository</text><rect fill="#E2E2F0" height="51.2422" rx="2.5" ry="2.5" style="stroke:#181818;stroke-width:0.5;" width="119" x="693.5" y="1411.8242"/><text fill="#000000" font-family="sans-serif" font-size="14" font-style="italic" lengthAdjust="spacing" textLength="86" x="710" y="1433.9316">&#171;component&#187;</text><text fill="#000000" font-family="sans-serif" font-size="14" lengthAdjust="spacing" textLength="105" x="700.5" y="1452.5527">Floor Repository</text><rect fill="#E2E2F0" height="51.2422" rx="2.5" ry="2.5" style="stroke:#181818;stroke-width:0.5;" width="100" x="822.5" y="1411.8242"/><text fill="#000000" font-family="sans-serif" font-size="14" font-style="italic" lengthAdjust="spacing" textLength="86" x="829.5" y="1433.9316">&#171;component&#187;</text><text fill="#000000" font-family="sans-serif" font-size="14" lengthAdjust="spacing" textLength="19" x="863" y="1452.5527">Lift</text><rect fill="#E2E2F0" height="51.2422" rx="2.5" ry="2.5" style="stroke:#181818;stroke-width:0.5;" width="100" x="932.5" y="75.6211"/><text fill="#000000" font-family="sans-serif" font-size="14" font-style="italic" lengthAdjust="spacing" textLength="86" x="939.5" y="97.7285">&#171;component&#187;</text><text fill="#000000" font-family="sans-serif" font-size="14" lengthAdjust="spacing" textLength="27" x="969" y="116.3496">Map</text><rect fill="#E2E2F0" height="51.2422" rx="2.5" ry="2.5" style="stroke:#181818;stroke-width:0.5;" width="100" x="932.5" y="1411.8242"/><text fill="#000000" font-family="sans-serif" font-size="14" font-style="italic" lengthAdjust="spacing" textLength="86" x="939.5" y="1433.9316">&#171;component&#187;</text><text fill="#000000" font-family="sans-serif" font-size="14" lengthAdjust="spacing" textLength="27" x="969" y="1452.5527">Map</text><rect fill="#E2E2F0" height="51.2422" rx="2.5" ry="2.5" style="stroke:#181818;stroke-width:0.5;" width="100" x="1047.5" y="1411.8242"/><text fill="#000000" font-family="sans-serif" font-size="14" font-style="italic" lengthAdjust="spacing" textLength="86" x="1054.5" y="1433.9316">&#171;component&#187;</text><text fill="#000000" font-family="sans-serif" font-size="14" lengthAdjust="spacing" textLength="30" x="1082.5" y="1452.5527">DTO</text><text fill="#000000" font-family="sans-serif" font-size="14" font-style="italic" lengthAdjust="spacing" textLength="86" x="1157.5" y="105.7285">&#171;component&#187;</text><text fill="#000000" font-family="sans-serif" font-size="14" lengthAdjust="spacing" textLength="61" x="1170" y="124.3496">Database</text><path d="M1185.5,54.6211 C1185.5,44.6211 1203.5,44.6211 1203.5,44.6211 C1203.5,44.6211 1221.5,44.6211 1221.5,54.6211 L1221.5,80.6211 C1221.5,90.6211 1203.5,90.6211 1203.5,90.6211 C1203.5,90.6211 1185.5,90.6211 1185.5,80.6211 L1185.5,54.6211 " fill="#E2E2F0" style="stroke:#181818;stroke-width:1.5;"/><path d="M1185.5,54.6211 C1185.5,64.6211 1203.5,64.6211 1203.5,64.6211 C1203.5,64.6211 1221.5,64.6211 1221.5,54.6211 " fill="none" style="stroke:#181818;stroke-width:1.5;"/><text fill="#000000" font-family="sans-serif" font-size="14" font-style="italic" lengthAdjust="spacing" textLength="86" x="1157.5" y="1426.9316">&#171;component&#187;</text><text fill="#000000" font-family="sans-serif" font-size="14" lengthAdjust="spacing" textLength="61" x="1170" y="1445.5527">Database</text><path d="M1185.5,1459.0664 C1185.5,1449.0664 1203.5,1449.0664 1203.5,1449.0664 C1203.5,1449.0664 1221.5,1449.0664 1221.5,1459.0664 L1221.5,1485.0664 C1221.5,1495.0664 1203.5,1495.0664 1203.5,1495.0664 C1203.5,1495.0664 1185.5,1495.0664 1185.5,1485.0664 L1185.5,1459.0664 " fill="#E2E2F0" style="stroke:#181818;stroke-width:1.5;"/><path d="M1185.5,1459.0664 C1185.5,1469.0664 1203.5,1469.0664 1203.5,1469.0664 C1203.5,1469.0664 1221.5,1469.0664 1221.5,1459.0664 " fill="none" style="stroke:#181818;stroke-width:1.5;"/><rect fill="#FFFFFF" height="1233.6699" style="stroke:#181818;stroke-width:1.0;" width="10" x="147" y="161.1543"/><rect fill="#FFFFFF" height="1171.0879" style="stroke:#181818;stroke-width:1.0;" width="10" x="257" y="192.4453"/><rect fill="#FFFFFF" height="1108.5059" style="stroke:#181818;stroke-width:1.0;" width="10" x="367" y="223.7363"/><rect fill="#FFFFFF" height="229.0371" style="stroke:#181818;stroke-width:1.0;" width="10" x="626" y="255.0273"/><rect fill="#FFFFFF" height="93.873" style="stroke:#181818;stroke-width:1.0;" width="10" x="626" y="1050.9629"/><rect fill="#FFFFFF" height="240.3281" style="stroke:#181818;stroke-width:1.0;" width="10" x="748" y="507.3555"/><rect fill="#FFFFFF" height="124.8242" style="stroke:#181818;stroke-width:1.0;" width="10" x="977.5" y="1176.127"/><rect fill="#FFFFFF" height="52.2422" style="stroke:#181818;stroke-width:1.0;" width="10" x="1092.5" y="1217.418"/><rect fill="#FFFFFF" height="31.291" style="stroke:#181818;stroke-width:1.0;" width="10" x="1198.5" y="286.3184"/><rect fill="#FFFFFF" height="31.291" style="stroke:#181818;stroke-width:1.0;" width="10" x="1198.5" y="564.9375"/><rect fill="#FFFFFF" height="31.291" style="stroke:#181818;stroke-width:1.0;" width="10" x="1198.5" y="1082.2539"/><ellipse cx="57.5" cy="160.4043" fill="none" rx="4" ry="4" style="stroke:#181818;stroke-width:1.5;"/><line style="stroke:#181818;stroke-width:1.0;" x1="145" x2="135" y1="161.1543" y2="157.1543"/><line style="stroke:#181818;stroke-width:1.0;" x1="145" x2="135" y1="161.1543" y2="165.1543"/><line style="stroke:#181818;stroke-width:1.0;" x1="62" x2="146" y1="161.1543" y2="161.1543"/><text fill="#000000" font-family="sans-serif" font-size="13" font-weight="bold" lengthAdjust="spacing" textLength="7" x="65" y="155.8916">1</text><text fill="#000000" font-family="sans-serif" font-size="13" lengthAdjust="spacing" textLength="56" x="76" y="155.8916">POST /lift</text><line style="stroke:#181818;stroke-width:1.0;" x1="255" x2="245" y1="192.4453" y2="188.4453"/><line style="stroke:#181818;stroke-width:1.0;" x1="255" x2="245" y1="192.4453" y2="196.4453"/><line style="stroke:#181818;stroke-width:1.0;" x1="157" x2="256" y1="192.4453" y2="192.4453"/><text fill="#000000" font-family="sans-serif" font-size="13" font-weight="bold" lengthAdjust="spacing" textLength="7" x="164" y="187.1826">2</text><text fill="#000000" font-family="sans-serif" font-size="13" lengthAdjust="spacing" textLength="53" x="175" y="187.1826">create lift</text><line style="stroke:#181818;stroke-width:1.0;" x1="365" x2="355" y1="223.7363" y2="219.7363"/><line style="stroke:#181818;stroke-width:1.0;" x1="365" x2="355" y1="223.7363" y2="227.7363"/><line style="stroke:#181818;stroke-width:1.0;" x1="267" x2="366" y1="223.7363" y2="223.7363"/><text fill="#000000" font-family="sans-serif" font-size="13" font-weight="bold" lengthAdjust="spacing" textLength="7" x="274" y="218.4736">3</text><text fill="#000000" font-family="sans-serif" font-size="13" lengthAdjust="spacing" textLength="53" x="285" y="218.4736">create lift</text><line style="stroke:#181818;stroke-width:1.0;" x1="624" x2="614" y1="255.0273" y2="251.0273"/><line style="stroke:#181818;stroke-width:1.0;" x1="624" x2="614" y1="255.0273" y2="259.0273"/><line style="stroke:#181818;stroke-width:1.0;" x1="377" x2="625" y1="255.0273" y2="255.0273"/><text fill="#000000" font-family="sans-serif" font-size="13" font-weight="bold" lengthAdjust="spacing" textLength="7" x="384" y="249.7646">4</text><text fill="#000000" font-family="sans-serif" font-size="13" lengthAdjust="spacing" textLength="219" x="395" y="249.7646">verifies if already exists with that code</text><line style="stroke:#181818;stroke-width:1.0;" x1="1196.5" x2="1186.5" y1="286.3184" y2="282.3184"/><line style="stroke:#181818;stroke-width:1.0;" x1="1196.5" x2="1186.5" y1="286.3184" y2="290.3184"/><line style="stroke:#181818;stroke-width:1.0;" x1="636" x2="1197.5" y1="286.3184" y2="286.3184"/><text fill="#000000" font-family="sans-serif" font-size="13" font-weight="bold" lengthAdjust="spacing" textLength="7" x="643" y="281.0557">5</text><text fill="#000000" font-family="sans-serif" font-size="13" lengthAdjust="spacing" textLength="52" x="654" y="281.0557">select lift</text><line style="stroke:#181818;stroke-width:1.0;" x1="637" x2="647" y1="317.6094" y2="313.6094"/><line style="stroke:#181818;stroke-width:1.0;" x1="637" x2="647" y1="317.6094" y2="321.6094"/><line style="stroke:#181818;stroke-width:1.0;stroke-dasharray:2.0,2.0;" x1="636" x2="1202.5" y1="317.6094" y2="317.6094"/><text fill="#000000" font-family="sans-serif" font-size="13" font-weight="bold" lengthAdjust="spacing" textLength="7" x="653" y="312.3467">6</text><text fill="#000000" font-family="sans-serif" font-size="13" lengthAdjust="spacing" textLength="13" x="664" y="312.3467">lift</text><path d="M10,332.6094 L71,332.6094 L71,341.9004 L61,351.9004 L10,351.9004 L10,332.6094 " fill="#EEEEEE" style="stroke:#000000;stroke-width:1.5;"/><rect fill="none" height="144.4551" style="stroke:#000000;stroke-width:1.5;" width="683.5" x="10" y="332.6094"/><text fill="#000000" font-family="sans-serif" font-size="13" font-weight="bold" lengthAdjust="spacing" textLength="16" x="25" y="347.6377">alt</text><text fill="#000000" font-family="sans-serif" font-size="11" font-weight="bold" lengthAdjust="spacing" textLength="57" x="86" y="346.4795">[lift found]</text><line style="stroke:#181818;stroke-width:1.0;" x1="378" x2="388" y1="375.1914" y2="371.1914"/><line style="stroke:#181818;stroke-width:1.0;" x1="378" x2="388" y1="375.1914" y2="379.1914"/><line style="stroke:#181818;stroke-width:1.0;stroke-dasharray:2.0,2.0;" x1="377" x2="625" y1="375.1914" y2="375.1914"/><text fill="#000000" font-family="sans-serif" font-size="13" font-weight="bold" lengthAdjust="spacing" textLength="7" x="394" y="369.9287">7</text><text fill="#000000" font-family="sans-serif" font-size="13" lengthAdjust="spacing" textLength="31" x="405" y="369.9287">found</text><line style="stroke:#181818;stroke-width:1.0;" x1="268" x2="278" y1="406.4824" y2="402.4824"/><line style="stroke:#181818;stroke-width:1.0;" x1="268" x2="278" y1="406.4824" y2="410.4824"/><line style="stroke:#181818;stroke-width:1.0;stroke-dasharray:2.0,2.0;" x1="267" x2="366" y1="406.4824" y2="406.4824"/><text fill="#000000" font-family="sans-serif" font-size="13" font-weight="bold" lengthAdjust="spacing" textLength="7" x="284" y="401.2197">8</text><text fill="#000000" font-family="sans-serif" font-size="13" lengthAdjust="spacing" textLength="16" x="295" y="401.2197">fail</text><line style="stroke:#181818;stroke-width:1.0;" x1="158" x2="168" y1="437.7734" y2="433.7734"/><line style="stroke:#181818;stroke-width:1.0;" x1="158" x2="168" y1="437.7734" y2="441.7734"/><line style="stroke:#181818;stroke-width:1.0;stroke-dasharray:2.0,2.0;" x1="157" x2="256" y1="437.7734" y2="437.7734"/><text fill="#000000" font-family="sans-serif" font-size="13" font-weight="bold" lengthAdjust="spacing" textLength="7" x="174" y="432.5107">9</text><text fill="#000000" font-family="sans-serif" font-size="13" lengthAdjust="spacing" textLength="16" x="185" y="432.5107">fail</text><ellipse cx="6.5" cy="468.3145" fill="none" rx="4" ry="4" style="stroke:#181818;stroke-width:1.5;"/><line style="stroke:#181818;stroke-width:1.0;" x1="13.5" x2="23.5" y1="469.0645" y2="465.0645"/><line style="stroke:#181818;stroke-width:1.0;" x1="13.5" x2="23.5" y1="469.0645" y2="473.0645"/><line style="stroke:#181818;stroke-width:1.0;stroke-dasharray:2.0,2.0;" x1="7" x2="146" y1="469.0645" y2="469.0645"/><text fill="#000000" font-family="sans-serif" font-size="13" font-weight="bold" lengthAdjust="spacing" textLength="14" x="24" y="463.8018">10</text><text fill="#000000" font-family="sans-serif" font-size="13" lengthAdjust="spacing" textLength="100" x="42" y="463.8018">400 Bad Request</text><line style="stroke:#181818;stroke-width:1.0;" x1="746" x2="736" y1="507.3555" y2="503.3555"/><line style="stroke:#181818;stroke-width:1.0;" x1="746" x2="736" y1="507.3555" y2="511.3555"/><line style="stroke:#181818;stroke-width:1.0;" x1="377" x2="747" y1="507.3555" y2="507.3555"/><text fill="#000000" font-family="sans-serif" font-size="13" font-weight="bold" lengthAdjust="spacing" textLength="14" x="384" y="502.0928">11</text><text fill="#000000" font-family="sans-serif" font-size="13" lengthAdjust="spacing" textLength="207" x="402" y="502.0928">check if floors belong to the building</text><line style="stroke:#181818;stroke-width:1.0;" x1="1196.5" x2="1186.5" y1="564.9375" y2="560.9375"/><line style="stroke:#181818;stroke-width:1.0;" x1="1196.5" x2="1186.5" y1="564.9375" y2="568.9375"/><line style="stroke:#181818;stroke-width:1.0;" x1="758" x2="1197.5" y1="564.9375" y2="564.9375"/><text fill="#000000" font-family="sans-serif" font-size="13" font-weight="bold" lengthAdjust="spacing" textLength="14" x="765" y="559.6748">12</text><text fill="#000000" font-family="sans-serif" font-size="13" lengthAdjust="spacing" textLength="70" x="783" y="559.6748">select floors</text><line style="stroke:#181818;stroke-width:1.0;" x1="759" x2="769" y1="596.2285" y2="592.2285"/><line style="stroke:#181818;stroke-width:1.0;" x1="759" x2="769" y1="596.2285" y2="600.2285"/><line style="stroke:#181818;stroke-width:1.0;stroke-dasharray:2.0,2.0;" x1="758" x2="1202.5" y1="596.2285" y2="596.2285"/><text fill="#000000" font-family="sans-serif" font-size="13" font-weight="bold" lengthAdjust="spacing" textLength="14" x="775" y="590.9658">13</text><text fill="#000000" font-family="sans-serif" font-size="13" lengthAdjust="spacing" textLength="31" x="793" y="590.9658">floors</text><path d="M10,611.2285 L71,611.2285 L71,620.5195 L61,630.5195 L10,630.5195 L10,611.2285 " fill="#EEEEEE" style="stroke:#000000;stroke-width:1.5;"/><rect fill="none" height="144.4551" style="stroke:#000000;stroke-width:1.5;" width="812.5" x="10" y="611.2285"/><text fill="#000000" font-family="sans-serif" font-size="13" font-weight="bold" lengthAdjust="spacing" textLength="16" x="25" y="626.2568">alt</text><text fill="#000000" font-family="sans-serif" font-size="11" font-weight="bold" lengthAdjust="spacing" textLength="97" x="86" y="625.0986">[floors not found]</text><line style="stroke:#181818;stroke-width:1.0;" x1="378" x2="388" y1="653.8105" y2="649.8105"/><line style="stroke:#181818;stroke-width:1.0;" x1="378" x2="388" y1="653.8105" y2="657.8105"/><line style="stroke:#181818;stroke-width:1.0;stroke-dasharray:2.0,2.0;" x1="377" x2="747" y1="653.8105" y2="653.8105"/><text fill="#000000" font-family="sans-serif" font-size="13" font-weight="bold" lengthAdjust="spacing" textLength="14" x="394" y="648.5479">14</text><text fill="#000000" font-family="sans-serif" font-size="13" lengthAdjust="spacing" textLength="53" x="412" y="648.5479">not found</text><line style="stroke:#181818;stroke-width:1.0;" x1="268" x2="278" y1="685.1016" y2="681.1016"/><line style="stroke:#181818;stroke-width:1.0;" x1="268" x2="278" y1="685.1016" y2="689.1016"/><line style="stroke:#181818;stroke-width:1.0;stroke-dasharray:2.0,2.0;" x1="267" x2="366" y1="685.1016" y2="685.1016"/><text fill="#000000" font-family="sans-serif" font-size="13" font-weight="bold" lengthAdjust="spacing" textLength="14" x="284" y="679.8389">15</text><text fill="#000000" font-family="sans-serif" font-size="13" lengthAdjust="spacing" textLength="53" x="302" y="679.8389">not found</text><line style="stroke:#181818;stroke-width:1.0;" x1="158" x2="168" y1="716.3926" y2="712.3926"/><line style="stroke:#181818;stroke-width:1.0;" x1="158" x2="168" y1="716.3926" y2="720.3926"/><line style="stroke:#181818;stroke-width:1.0;stroke-dasharray:2.0,2.0;" x1="157" x2="256" y1="716.3926" y2="716.3926"/><text fill="#000000" font-family="sans-serif" font-size="13" font-weight="bold" lengthAdjust="spacing" textLength="14" x="174" y="711.1299">16</text><text fill="#000000" font-family="sans-serif" font-size="13" lengthAdjust="spacing" textLength="53" x="192" y="711.1299">not found</text><ellipse cx="6.5" cy="746.9336" fill="none" rx="4" ry="4" style="stroke:#181818;stroke-width:1.5;"/><line style="stroke:#181818;stroke-width:1.0;" x1="13.5" x2="23.5" y1="747.6836" y2="743.6836"/><line style="stroke:#181818;stroke-width:1.0;" x1="13.5" x2="23.5" y1="747.6836" y2="751.6836"/><line style="stroke:#181818;stroke-width:1.0;stroke-dasharray:2.0,2.0;" x1="7" x2="146" y1="747.6836" y2="747.6836"/><text fill="#000000" font-family="sans-serif" font-size="13" font-weight="bold" lengthAdjust="spacing" textLength="14" x="24" y="742.4209">17</text><text fill="#000000" font-family="sans-serif" font-size="13" lengthAdjust="spacing" textLength="100" x="42" y="742.4209">400 Bad Request</text><line style="stroke:#181818;stroke-width:1.0;" x1="820.5" x2="810.5" y1="785.9746" y2="781.9746"/><line style="stroke:#181818;stroke-width:1.0;" x1="820.5" x2="810.5" y1="785.9746" y2="789.9746"/><line style="stroke:#181818;stroke-width:1.0;" x1="377" x2="821.5" y1="785.9746" y2="785.9746"/><text fill="#000000" font-family="sans-serif" font-size="13" font-weight="bold" lengthAdjust="spacing" textLength="14" x="384" y="780.7119">18</text><text fill="#000000" font-family="sans-serif" font-size="13" lengthAdjust="spacing" textLength="36" x="402" y="780.7119">create</text><rect fill="#E2E2F0" height="51.2422" rx="2.5" ry="2.5" style="stroke:#181818;stroke-width:0.5;" width="100" x="822.5" y="762.6836"/><text fill="#000000" font-family="sans-serif" font-size="14" font-style="italic" lengthAdjust="spacing" textLength="86" x="829.5" y="784.791">&#171;component&#187;</text><text fill="#000000" font-family="sans-serif" font-size="14" lengthAdjust="spacing" textLength="19" x="863" y="803.4121">Lift</text><line style="stroke:#181818;stroke-width:1.0;stroke-dasharray:2.0,2.0;" x1="872.5" x2="914.5" y1="848.2168" y2="848.2168"/><line style="stroke:#181818;stroke-width:1.0;stroke-dasharray:2.0,2.0;" x1="914.5" x2="914.5" y1="848.2168" y2="861.2168"/><line style="stroke:#181818;stroke-width:1.0;stroke-dasharray:2.0,2.0;" x1="873.5" x2="914.5" y1="861.2168" y2="861.2168"/><line style="stroke:#181818;stroke-width:1.0;" x1="873.5" x2="883.5" y1="861.2168" y2="857.2168"/><line style="stroke:#181818;stroke-width:1.0;" x1="873.5" x2="883.5" y1="861.2168" y2="865.2168"/><text fill="#000000" font-family="sans-serif" font-size="13" font-weight="bold" lengthAdjust="spacing" textLength="14" x="879.5" y="842.9541">19</text><text fill="#000000" font-family="sans-serif" font-size="13" lengthAdjust="spacing" textLength="68" x="897.5" y="842.9541">verifies data</text><path d="M10,876.2168 L71,876.2168 L71,885.5078 L61,895.5078 L10,895.5078 L10,876.2168 " fill="#EEEEEE" style="stroke:#000000;stroke-width:1.5;"/><rect fill="none" height="144.4551" style="stroke:#000000;stroke-width:1.5;" width="922.5" x="10" y="876.2168"/><text fill="#000000" font-family="sans-serif" font-size="13" font-weight="bold" lengthAdjust="spacing" textLength="16" x="25" y="891.2451">alt</text><text fill="#000000" font-family="sans-serif" font-size="11" font-weight="bold" lengthAdjust="spacing" textLength="69" x="86" y="890.0869">[invalid data]</text><line style="stroke:#181818;stroke-width:1.0;" x1="378" x2="388" y1="918.7988" y2="914.7988"/><line style="stroke:#181818;stroke-width:1.0;" x1="378" x2="388" y1="918.7988" y2="922.7988"/><line style="stroke:#181818;stroke-width:1.0;stroke-dasharray:2.0,2.0;" x1="377" x2="871.5" y1="918.7988" y2="918.7988"/><text fill="#000000" font-family="sans-serif" font-size="13" font-weight="bold" lengthAdjust="spacing" textLength="14" x="394" y="913.5361">20</text><text fill="#000000" font-family="sans-serif" font-size="13" lengthAdjust="spacing" textLength="64" x="412" y="913.5361">invalid data</text><line style="stroke:#181818;stroke-width:1.0;" x1="268" x2="278" y1="950.0898" y2="946.0898"/><line style="stroke:#181818;stroke-width:1.0;" x1="268" x2="278" y1="950.0898" y2="954.0898"/><line style="stroke:#181818;stroke-width:1.0;stroke-dasharray:2.0,2.0;" x1="267" x2="366" y1="950.0898" y2="950.0898"/><text fill="#000000" font-family="sans-serif" font-size="13" font-weight="bold" lengthAdjust="spacing" textLength="14" x="284" y="944.8271">21</text><text fill="#000000" font-family="sans-serif" font-size="13" lengthAdjust="spacing" textLength="16" x="302" y="944.8271">fail</text><line style="stroke:#181818;stroke-width:1.0;" x1="158" x2="168" y1="981.3809" y2="977.3809"/><line style="stroke:#181818;stroke-width:1.0;" x1="158" x2="168" y1="981.3809" y2="985.3809"/><line style="stroke:#181818;stroke-width:1.0;stroke-dasharray:2.0,2.0;" x1="157" x2="256" y1="981.3809" y2="981.3809"/><text fill="#000000" font-family="sans-serif" font-size="13" font-weight="bold" lengthAdjust="spacing" textLength="14" x="174" y="976.1182">22</text><text fill="#000000" font-family="sans-serif" font-size="13" lengthAdjust="spacing" textLength="16" x="192" y="976.1182">fail</text><ellipse cx="6.5" cy="1011.9219" fill="none" rx="4" ry="4" style="stroke:#181818;stroke-width:1.5;"/><line style="stroke:#181818;stroke-width:1.0;" x1="13.5" x2="23.5" y1="1012.6719" y2="1008.6719"/><line style="stroke:#181818;stroke-width:1.0;" x1="13.5" x2="23.5" y1="1012.6719" y2="1016.6719"/><line style="stroke:#181818;stroke-width:1.0;stroke-dasharray:2.0,2.0;" x1="7" x2="146" y1="1012.6719" y2="1012.6719"/><text fill="#000000" font-family="sans-serif" font-size="13" font-weight="bold" lengthAdjust="spacing" textLength="14" x="24" y="1007.4092">23</text><text fill="#000000" font-family="sans-serif" font-size="13" lengthAdjust="spacing" textLength="100" x="42" y="1007.4092">400 Bad Request</text><line style="stroke:#181818;stroke-width:1.0;" x1="624" x2="614" y1="1050.9629" y2="1046.9629"/><line style="stroke:#181818;stroke-width:1.0;" x1="624" x2="614" y1="1050.9629" y2="1054.9629"/><line style="stroke:#181818;stroke-width:1.0;" x1="377" x2="625" y1="1050.9629" y2="1050.9629"/><text fill="#000000" font-family="sans-serif" font-size="13" font-weight="bold" lengthAdjust="spacing" textLength="14" x="384" y="1045.7002">24</text><text fill="#000000" font-family="sans-serif" font-size="13" lengthAdjust="spacing" textLength="26" x="402" y="1045.7002">save</text><line style="stroke:#181818;stroke-width:1.0;" x1="1196.5" x2="1186.5" y1="1082.2539" y2="1078.2539"/><line style="stroke:#181818;stroke-width:1.0;" x1="1196.5" x2="1186.5" y1="1082.2539" y2="1086.2539"/><line style="stroke:#181818;stroke-width:1.0;" x1="636" x2="1197.5" y1="1082.2539" y2="1082.2539"/><text fill="#000000" font-family="sans-serif" font-size="13" font-weight="bold" lengthAdjust="spacing" textLength="14" x="643" y="1076.9912">25</text><text fill="#000000" font-family="sans-serif" font-size="13" lengthAdjust="spacing" textLength="49" x="661" y="1076.9912">insert lift</text><line style="stroke:#181818;stroke-width:1.0;" x1="637" x2="647" y1="1113.5449" y2="1109.5449"/><line style="stroke:#181818;stroke-width:1.0;" x1="637" x2="647" y1="1113.5449" y2="1117.5449"/><line style="stroke:#181818;stroke-width:1.0;stroke-dasharray:2.0,2.0;" x1="636" x2="1202.5" y1="1113.5449" y2="1113.5449"/><text fill="#000000" font-family="sans-serif" font-size="13" font-weight="bold" lengthAdjust="spacing" textLength="14" x="653" y="1108.2822">26</text><text fill="#000000" font-family="sans-serif" font-size="13" lengthAdjust="spacing" textLength="49" x="671" y="1108.2822">success</text><line style="stroke:#181818;stroke-width:1.0;" x1="378" x2="388" y1="1144.8359" y2="1140.8359"/><line style="stroke:#181818;stroke-width:1.0;" x1="378" x2="388" y1="1144.8359" y2="1148.8359"/><line style="stroke:#181818;stroke-width:1.0;stroke-dasharray:2.0,2.0;" x1="377" x2="630" y1="1144.8359" y2="1144.8359"/><text fill="#000000" font-family="sans-serif" font-size="13" font-weight="bold" lengthAdjust="spacing" textLength="14" x="394" y="1139.5732">27</text><text fill="#000000" font-family="sans-serif" font-size="13" lengthAdjust="spacing" textLength="49" x="412" y="1139.5732">success</text><line style="stroke:#181818;stroke-width:1.0;" x1="975.5" x2="965.5" y1="1176.127" y2="1172.127"/><line style="stroke:#181818;stroke-width:1.0;" x1="975.5" x2="965.5" y1="1176.127" y2="1180.127"/><line style="stroke:#181818;stroke-width:1.0;" x1="377" x2="976.5" y1="1176.127" y2="1176.127"/><text fill="#000000" font-family="sans-serif" font-size="13" font-weight="bold" lengthAdjust="spacing" textLength="14" x="384" y="1170.8643">28</text><text fill="#000000" font-family="sans-serif" font-size="13" lengthAdjust="spacing" textLength="37" x="402" y="1170.8643">toDTO</text><line style="stroke:#181818;stroke-width:1.0;" x1="1045.5" x2="1035.5" y1="1207.418" y2="1203.418"/><line style="stroke:#181818;stroke-width:1.0;" x1="1045.5" x2="1035.5" y1="1207.418" y2="1211.418"/><line style="stroke:#181818;stroke-width:1.0;" x1="987.5" x2="1046.5" y1="1207.418" y2="1207.418"/><text fill="#000000" font-family="sans-serif" font-size="13" font-weight="bold" lengthAdjust="spacing" textLength="14" x="994.5" y="1202.1553">29</text><text fill="#000000" font-family="sans-serif" font-size="13" lengthAdjust="spacing" textLength="18" x="1012.5" y="1202.1553">dto</text><rect fill="#E2E2F0" height="51.2422" rx="2.5" ry="2.5" style="stroke:#181818;stroke-width:0.5;" width="100" x="1047.5" y="1184.127"/><text fill="#000000" font-family="sans-serif" font-size="14" font-style="italic" lengthAdjust="spacing" textLength="86" x="1054.5" y="1206.2344">&#171;component&#187;</text><text fill="#000000" font-family="sans-serif" font-size="14" lengthAdjust="spacing" textLength="30" x="1082.5" y="1224.8555">DTO</text><line style="stroke:#181818;stroke-width:1.0;" x1="988.5" x2="998.5" y1="1269.6602" y2="1265.6602"/><line style="stroke:#181818;stroke-width:1.0;" x1="988.5" x2="998.5" y1="1269.6602" y2="1273.6602"/><line style="stroke:#181818;stroke-width:1.0;stroke-dasharray:2.0,2.0;" x1="987.5" x2="1096.5" y1="1269.6602" y2="1269.6602"/><text fill="#000000" font-family="sans-serif" font-size="13" font-weight="bold" lengthAdjust="spacing" textLength="14" x="1004.5" y="1264.3975">30</text><text fill="#000000" font-family="sans-serif" font-size="13" lengthAdjust="spacing" textLength="18" x="1022.5" y="1264.3975">dto</text><line style="stroke:#181818;stroke-width:1.0;" x1="378" x2="388" y1="1300.9512" y2="1296.9512"/><line style="stroke:#181818;stroke-width:1.0;" x1="378" x2="388" y1="1300.9512" y2="1304.9512"/><line style="stroke:#181818;stroke-width:1.0;stroke-dasharray:2.0,2.0;" x1="377" x2="981.5" y1="1300.9512" y2="1300.9512"/><text fill="#000000" font-family="sans-serif" font-size="13" font-weight="bold" lengthAdjust="spacing" textLength="14" x="394" y="1295.6885">31</text><text fill="#000000" font-family="sans-serif" font-size="13" lengthAdjust="spacing" textLength="18" x="412" y="1295.6885">dto</text><line style="stroke:#181818;stroke-width:1.0;" x1="268" x2="278" y1="1332.2422" y2="1328.2422"/><line style="stroke:#181818;stroke-width:1.0;" x1="268" x2="278" y1="1332.2422" y2="1336.2422"/><line style="stroke:#181818;stroke-width:1.0;stroke-dasharray:2.0,2.0;" x1="267" x2="371" y1="1332.2422" y2="1332.2422"/><text fill="#000000" font-family="sans-serif" font-size="13" font-weight="bold" lengthAdjust="spacing" textLength="14" x="284" y="1326.9795">32</text><text fill="#000000" font-family="sans-serif" font-size="13" lengthAdjust="spacing" textLength="49" x="302" y="1326.9795">success</text><line style="stroke:#181818;stroke-width:1.0;" x1="158" x2="168" y1="1363.5332" y2="1359.5332"/><line style="stroke:#181818;stroke-width:1.0;" x1="158" x2="168" y1="1363.5332" y2="1367.5332"/><line style="stroke:#181818;stroke-width:1.0;stroke-dasharray:2.0,2.0;" x1="157" x2="261" y1="1363.5332" y2="1363.5332"/><text fill="#000000" font-family="sans-serif" font-size="13" font-weight="bold" lengthAdjust="spacing" textLength="14" x="174" y="1358.2705">33</text><text fill="#000000" font-family="sans-serif" font-size="13" lengthAdjust="spacing" textLength="49" x="192" y="1358.2705">success</text><ellipse cx="31.5" cy="1394.0742" fill="none" rx="4" ry="4" style="stroke:#181818;stroke-width:1.5;"/><line style="stroke:#181818;stroke-width:1.0;" x1="38.5" x2="48.5" y1="1394.8242" y2="1390.8242"/><line style="stroke:#181818;stroke-width:1.0;" x1="38.5" x2="48.5" y1="1394.8242" y2="1398.8242"/><line style="stroke:#181818;stroke-width:1.0;stroke-dasharray:2.0,2.0;" x1="32" x2="151" y1="1394.8242" y2="1394.8242"/><text fill="#000000" font-family="sans-serif" font-size="13" font-weight="bold" lengthAdjust="spacing" textLength="14" x="49" y="1389.5615">34</text><text fill="#000000" font-family="sans-serif" font-size="13" lengthAdjust="spacing" textLength="70" x="67" y="1389.5615">201 Created</text><!--SRC=[nLN1Rjim3BthAuWU0mJhXfsC80NMOQSD7Ph-W6pHZH15yYGvM_v-b6pBikCan_fYcNgFf1v9cRVUwFPOecNk87N3BJz2mwi3VyUTFoi4YvLdp4jFwsUBt2DmKB8c8w6zh6J3jOU7LzDwgTyVW3kmtHescyeS6wDH- -rs2dyssbkZ5Dh8gDBdBT8ExKbM61ckMz-2_wGiuHKRuwGtzXnf8NDBfbky7yeOEoVMmNYF6IAcCBU0ltWJSKVUt89zVtk9CE7dOGNtlEGE2TElEc0vmx4dizvkKqKA-FsoUuDFiO2yyl8K2jhliW4L65b52gYwmdTbJxGHmZ9q80_5kSRizzc02vnKcG9EQ6KjqO6iWIlo8Cw0_wJp3lvAlmU_vvwY2ynS3dIM_0Idf4T1qHGrCKpFB4f6c-jPv8WHcAEuwgXGcrOB1lIC8QQ7xI4Hauvs8MRDfOgGNBHfaHBaoMmswtMsy_Nn4RvnGTtvfqNd6Mf14f6sMT99Yec-gO6fA7ki3a7SQ7DGeZBadPhCxn7ALYeHsY4vJDGeXZQ35kDCT5edgJk_bs9FyWZdx71JmMEGFhF5MBdgHGOP9PzgdcCcccUYvvZxgcS9ZzeCfPWtzMgLve35xXoxBclrCD3nv5AVk9AYCmpTDk-q2UX3-Yq-L-RNyHCkJER2Q4fDBlpyUbYUJTTM5Jh7PkroRHW7-Dt1e3kueDwdktRCW6mitCqnKMzMgoAyiWpf8rpAw-GWMd028FkqLMUO4EJUu5vKS-5OmstAhXTuWPNTtkoYx5yUF_T_Uv5pXX_5Vm00]--></g></svg>