<?xml version="1.0" encoding="us-ascii" standalone="no"?><svg xmlns="http://www.w3.org/2000/svg" xmlns:xlink="http://www.w3.org/1999/xlink" contentStyleType="text/css" height="716px" preserveAspectRatio="none" style="width:1022px;height:716px;background:#FFFFFF;" version="1.1" viewBox="0 0 1022 716" width="1022px" zoomAndPan="magnify"><defs/><g><text fill="#000000" font-family="sans-serif" font-size="14" font-weight="bold" lengthAdjust="spacing" textLength="166" x="429.75" y="30.1074">List all lifts of a building</text><rect fill="#FFFFFF" height="437.7344" style="stroke:#181818;stroke-width:1.0;" width="10" x="89" y="161.1543"/><rect fill="#FFFFFF" height="375.1523" style="stroke:#181818;stroke-width:1.0;" width="10" x="260" y="192.4453"/><rect fill="#FFFFFF" height="312.5703" style="stroke:#181818;stroke-width:1.0;" width="10" x="431" y="223.7363"/><rect fill="#FFFFFF" height="93.873" style="stroke:#181818;stroke-width:1.0;" width="10" x="621" y="255.0273"/><rect fill="#FFFFFF" height="124.8242" style="stroke:#181818;stroke-width:1.0;" width="10" x="733.5" y="380.1914"/><rect fill="#FFFFFF" height="52.2422" style="stroke:#181818;stroke-width:1.0;" width="10" x="864.5" y="421.4824"/><rect fill="#FFFFFF" height="31.291" style="stroke:#181818;stroke-width:1.0;" width="10" x="970.5" y="286.3184"/><line style="stroke:#181818;stroke-width:0.5;stroke-dasharray:5.0,5.0;" x1="94" x2="94" y1="127.8633" y2="616.8887"/><line style="stroke:#181818;stroke-width:0.5;stroke-dasharray:5.0,5.0;" x1="265" x2="265" y1="127.8633" y2="616.8887"/><line style="stroke:#181818;stroke-width:0.5;stroke-dasharray:5.0,5.0;" x1="436" x2="436" y1="127.8633" y2="616.8887"/><line style="stroke:#181818;stroke-width:0.5;stroke-dasharray:5.0,5.0;" x1="625.5" x2="625.5" y1="127.8633" y2="616.8887"/><line style="stroke:#181818;stroke-width:0.5;stroke-dasharray:5.0,5.0;" x1="738.5" x2="738.5" y1="127.8633" y2="616.8887"/><line style="stroke:#181818;stroke-width:0.5;stroke-dasharray:5.0,5.0;" x1="869.5" x2="869.5" y1="429.3125" y2="616.8887"/><line style="stroke:#181818;stroke-width:0.5;stroke-dasharray:5.0,5.0;" x1="975.5" x2="975.5" y1="127.8633" y2="616.8887"/><rect fill="#E2E2F0" height="51.2422" rx="2.5" ry="2.5" style="stroke:#181818;stroke-width:0.5;" width="100" x="44" y="75.6211"/><text fill="#000000" font-family="sans-serif" font-size="14" font-style="italic" lengthAdjust="spacing" textLength="86" x="51" y="97.7285">&#171;component&#187;</text><text fill="#000000" font-family="sans-serif" font-size="14" lengthAdjust="spacing" textLength="49" x="69.5" y="116.3496">Routing</text><rect fill="#E2E2F0" height="51.2422" rx="2.5" ry="2.5" style="stroke:#181818;stroke-width:0.5;" width="100" x="44" y="615.8887"/><text fill="#000000" font-family="sans-serif" font-size="14" font-style="italic" lengthAdjust="spacing" textLength="86" x="51" y="637.9961">&#171;component&#187;</text><text fill="#000000" font-family="sans-serif" font-size="14" lengthAdjust="spacing" textLength="49" x="69.5" y="656.6172">Routing</text><rect fill="#E2E2F0" height="51.2422" rx="2.5" ry="2.5" style="stroke:#181818;stroke-width:0.5;" width="100" x="215" y="75.6211"/><text fill="#000000" font-family="sans-serif" font-size="14" font-style="italic" lengthAdjust="spacing" textLength="86" x="222" y="97.7285">&#171;component&#187;</text><text fill="#000000" font-family="sans-serif" font-size="14" lengthAdjust="spacing" textLength="62" x="234" y="116.3496">Controller</text><rect fill="#E2E2F0" height="51.2422" rx="2.5" ry="2.5" style="stroke:#181818;stroke-width:0.5;" width="100" x="215" y="615.8887"/><text fill="#000000" font-family="sans-serif" font-size="14" font-style="italic" lengthAdjust="spacing" textLength="86" x="222" y="637.9961">&#171;component&#187;</text><text fill="#000000" font-family="sans-serif" font-size="14" lengthAdjust="spacing" textLength="62" x="234" y="656.6172">Controller</text><rect fill="#E2E2F0" height="51.2422" rx="2.5" ry="2.5" style="stroke:#181818;stroke-width:0.5;" width="100" x="386" y="75.6211"/><text fill="#000000" font-family="sans-serif" font-size="14" font-style="italic" lengthAdjust="spacing" textLength="86" x="393" y="97.7285">&#171;component&#187;</text><text fill="#000000" font-family="sans-serif" font-size="14" lengthAdjust="spacing" textLength="47" x="412.5" y="116.3496">Service</text><rect fill="#E2E2F0" height="51.2422" rx="2.5" ry="2.5" style="stroke:#181818;stroke-width:0.5;" width="100" x="386" y="615.8887"/><text fill="#000000" font-family="sans-serif" font-size="14" font-style="italic" lengthAdjust="spacing" textLength="86" x="393" y="637.9961">&#171;component&#187;</text><text fill="#000000" font-family="sans-serif" font-size="14" lengthAdjust="spacing" textLength="47" x="412.5" y="656.6172">Service</text><rect fill="#E2E2F0" height="51.2422" rx="2.5" ry="2.5" style="stroke:#181818;stroke-width:0.5;" width="105" x="573.5" y="75.6211"/><text fill="#000000" font-family="sans-serif" font-size="14" font-style="italic" lengthAdjust="spacing" textLength="86" x="583" y="97.7285">&#171;component&#187;</text><text fill="#000000" font-family="sans-serif" font-size="14" lengthAdjust="spacing" textLength="91" x="580.5" y="116.3496">Lift Repository</text><rect fill="#E2E2F0" height="51.2422" rx="2.5" ry="2.5" style="stroke:#181818;stroke-width:0.5;" width="105" x="573.5" y="615.8887"/><text fill="#000000" font-family="sans-serif" font-size="14" font-style="italic" lengthAdjust="spacing" textLength="86" x="583" y="637.9961">&#171;component&#187;</text><text fill="#000000" font-family="sans-serif" font-size="14" lengthAdjust="spacing" textLength="91" x="580.5" y="656.6172">Lift Repository</text><rect fill="#E2E2F0" height="51.2422" rx="2.5" ry="2.5" style="stroke:#181818;stroke-width:0.5;" width="100" x="688.5" y="75.6211"/><text fill="#000000" font-family="sans-serif" font-size="14" font-style="italic" lengthAdjust="spacing" textLength="86" x="695.5" y="97.7285">&#171;component&#187;</text><text fill="#000000" font-family="sans-serif" font-size="14" lengthAdjust="spacing" textLength="27" x="725" y="116.3496">Map</text><rect fill="#E2E2F0" height="51.2422" rx="2.5" ry="2.5" style="stroke:#181818;stroke-width:0.5;" width="100" x="688.5" y="615.8887"/><text fill="#000000" font-family="sans-serif" font-size="14" font-style="italic" lengthAdjust="spacing" textLength="86" x="695.5" y="637.9961">&#171;component&#187;</text><text fill="#000000" font-family="sans-serif" font-size="14" lengthAdjust="spacing" textLength="27" x="725" y="656.6172">Map</text><rect fill="#E2E2F0" height="51.2422" rx="2.5" ry="2.5" style="stroke:#181818;stroke-width:0.5;" width="100" x="819.5" y="615.8887"/><text fill="#000000" font-family="sans-serif" font-size="14" font-style="italic" lengthAdjust="spacing" textLength="86" x="826.5" y="637.9961">&#171;component&#187;</text><text fill="#000000" font-family="sans-serif" font-size="14" lengthAdjust="spacing" textLength="30" x="854.5" y="656.6172">DTO</text><text fill="#000000" font-family="sans-serif" font-size="14" font-style="italic" lengthAdjust="spacing" textLength="86" x="929.5" y="105.7285">&#171;component&#187;</text><text fill="#000000" font-family="sans-serif" font-size="14" lengthAdjust="spacing" textLength="61" x="942" y="124.3496">Database</text><path d="M957.5,54.6211 C957.5,44.6211 975.5,44.6211 975.5,44.6211 C975.5,44.6211 993.5,44.6211 993.5,54.6211 L993.5,80.6211 C993.5,90.6211 975.5,90.6211 975.5,90.6211 C975.5,90.6211 957.5,90.6211 957.5,80.6211 L957.5,54.6211 " fill="#E2E2F0" style="stroke:#181818;stroke-width:1.5;"/><path d="M957.5,54.6211 C957.5,64.6211 975.5,64.6211 975.5,64.6211 C975.5,64.6211 993.5,64.6211 993.5,54.6211 " fill="none" style="stroke:#181818;stroke-width:1.5;"/><text fill="#000000" font-family="sans-serif" font-size="14" font-style="italic" lengthAdjust="spacing" textLength="86" x="929.5" y="630.9961">&#171;component&#187;</text><text fill="#000000" font-family="sans-serif" font-size="14" lengthAdjust="spacing" textLength="61" x="942" y="649.6172">Database</text><path d="M957.5,663.1309 C957.5,653.1309 975.5,653.1309 975.5,653.1309 C975.5,653.1309 993.5,653.1309 993.5,663.1309 L993.5,689.1309 C993.5,699.1309 975.5,699.1309 975.5,699.1309 C975.5,699.1309 957.5,699.1309 957.5,689.1309 L957.5,663.1309 " fill="#E2E2F0" style="stroke:#181818;stroke-width:1.5;"/><path d="M957.5,663.1309 C957.5,673.1309 975.5,673.1309 975.5,673.1309 C975.5,673.1309 993.5,673.1309 993.5,663.1309 " fill="none" style="stroke:#181818;stroke-width:1.5;"/><rect fill="#FFFFFF" height="437.7344" style="stroke:#181818;stroke-width:1.0;" width="10" x="89" y="161.1543"/><rect fill="#FFFFFF" height="375.1523" style="stroke:#181818;stroke-width:1.0;" width="10" x="260" y="192.4453"/><rect fill="#FFFFFF" height="312.5703" style="stroke:#181818;stroke-width:1.0;" width="10" x="431" y="223.7363"/><rect fill="#FFFFFF" height="93.873" style="stroke:#181818;stroke-width:1.0;" width="10" x="621" y="255.0273"/><rect fill="#FFFFFF" height="124.8242" style="stroke:#181818;stroke-width:1.0;" width="10" x="733.5" y="380.1914"/><rect fill="#FFFFFF" height="52.2422" style="stroke:#181818;stroke-width:1.0;" width="10" x="864.5" y="421.4824"/><rect fill="#FFFFFF" height="31.291" style="stroke:#181818;stroke-width:1.0;" width="10" x="970.5" y="286.3184"/><ellipse cx="29.5" cy="160.4043" fill="none" rx="4" ry="4" style="stroke:#181818;stroke-width:1.5;"/><line style="stroke:#181818;stroke-width:1.0;" x1="87" x2="77" y1="161.1543" y2="157.1543"/><line style="stroke:#181818;stroke-width:1.0;" x1="87" x2="77" y1="161.1543" y2="165.1543"/><line style="stroke:#181818;stroke-width:1.0;" x1="34" x2="88" y1="161.1543" y2="161.1543"/><text fill="#000000" font-family="sans-serif" font-size="13" font-weight="bold" lengthAdjust="spacing" textLength="7" x="37" y="155.8916">1</text><text fill="#000000" font-family="sans-serif" font-size="13" lengthAdjust="spacing" textLength="26" x="48" y="155.8916">GET</text><line style="stroke:#181818;stroke-width:1.0;" x1="258" x2="248" y1="192.4453" y2="188.4453"/><line style="stroke:#181818;stroke-width:1.0;" x1="258" x2="248" y1="192.4453" y2="196.4453"/><line style="stroke:#181818;stroke-width:1.0;" x1="99" x2="259" y1="192.4453" y2="192.4453"/><text fill="#000000" font-family="sans-serif" font-size="13" font-weight="bold" lengthAdjust="spacing" textLength="7" x="106" y="187.1826">2</text><text fill="#000000" font-family="sans-serif" font-size="13" lengthAdjust="spacing" textLength="131" x="117" y="187.1826">list all lifts of a building</text><line style="stroke:#181818;stroke-width:1.0;" x1="429" x2="419" y1="223.7363" y2="219.7363"/><line style="stroke:#181818;stroke-width:1.0;" x1="429" x2="419" y1="223.7363" y2="227.7363"/><line style="stroke:#181818;stroke-width:1.0;" x1="270" x2="430" y1="223.7363" y2="223.7363"/><text fill="#000000" font-family="sans-serif" font-size="13" font-weight="bold" lengthAdjust="spacing" textLength="7" x="277" y="218.4736">3</text><text fill="#000000" font-family="sans-serif" font-size="13" lengthAdjust="spacing" textLength="131" x="288" y="218.4736">list all lifts of a building</text><line style="stroke:#181818;stroke-width:1.0;" x1="619" x2="609" y1="255.0273" y2="251.0273"/><line style="stroke:#181818;stroke-width:1.0;" x1="619" x2="609" y1="255.0273" y2="259.0273"/><line style="stroke:#181818;stroke-width:1.0;" x1="441" x2="620" y1="255.0273" y2="255.0273"/><text fill="#000000" font-family="sans-serif" font-size="13" font-weight="bold" lengthAdjust="spacing" textLength="7" x="448" y="249.7646">4</text><text fill="#000000" font-family="sans-serif" font-size="13" lengthAdjust="spacing" textLength="150" x="459" y="249.7646">get list of lifts of a building</text><line style="stroke:#181818;stroke-width:1.0;" x1="968.5" x2="958.5" y1="286.3184" y2="282.3184"/><line style="stroke:#181818;stroke-width:1.0;" x1="968.5" x2="958.5" y1="286.3184" y2="290.3184"/><line style="stroke:#181818;stroke-width:1.0;" x1="631" x2="969.5" y1="286.3184" y2="286.3184"/><text fill="#000000" font-family="sans-serif" font-size="13" font-weight="bold" lengthAdjust="spacing" textLength="7" x="638" y="281.0557">5</text><text fill="#000000" font-family="sans-serif" font-size="13" lengthAdjust="spacing" textLength="59" x="649" y="281.0557">select lifts</text><line style="stroke:#181818;stroke-width:1.0;" x1="632" x2="642" y1="317.6094" y2="313.6094"/><line style="stroke:#181818;stroke-width:1.0;" x1="632" x2="642" y1="317.6094" y2="321.6094"/><line style="stroke:#181818;stroke-width:1.0;stroke-dasharray:2.0,2.0;" x1="631" x2="974.5" y1="317.6094" y2="317.6094"/><text fill="#000000" font-family="sans-serif" font-size="13" font-weight="bold" lengthAdjust="spacing" textLength="7" x="648" y="312.3467">6</text><text fill="#000000" font-family="sans-serif" font-size="13" lengthAdjust="spacing" textLength="17" x="659" y="312.3467">list</text><line style="stroke:#181818;stroke-width:1.0;" x1="442" x2="452" y1="348.9004" y2="344.9004"/><line style="stroke:#181818;stroke-width:1.0;" x1="442" x2="452" y1="348.9004" y2="352.9004"/><line style="stroke:#181818;stroke-width:1.0;stroke-dasharray:2.0,2.0;" x1="441" x2="625" y1="348.9004" y2="348.9004"/><text fill="#000000" font-family="sans-serif" font-size="13" font-weight="bold" lengthAdjust="spacing" textLength="7" x="458" y="343.6377">7</text><text fill="#000000" font-family="sans-serif" font-size="13" lengthAdjust="spacing" textLength="128" x="469" y="343.6377">list of lifts of a building</text><line style="stroke:#181818;stroke-width:1.0;" x1="731.5" x2="721.5" y1="380.1914" y2="376.1914"/><line style="stroke:#181818;stroke-width:1.0;" x1="731.5" x2="721.5" y1="380.1914" y2="384.1914"/><line style="stroke:#181818;stroke-width:1.0;" x1="441" x2="732.5" y1="380.1914" y2="380.1914"/><text fill="#000000" font-family="sans-serif" font-size="13" font-weight="bold" lengthAdjust="spacing" textLength="7" x="448" y="374.9287">8</text><text fill="#000000" font-family="sans-serif" font-size="13" lengthAdjust="spacing" textLength="111" x="459" y="374.9287">convert to DTO List</text><line style="stroke:#181818;stroke-width:1.0;" x1="817.5" x2="807.5" y1="411.4824" y2="407.4824"/><line style="stroke:#181818;stroke-width:1.0;" x1="817.5" x2="807.5" y1="411.4824" y2="415.4824"/><line style="stroke:#181818;stroke-width:1.0;stroke-dasharray:2.0,2.0;" x1="743.5" x2="818.5" y1="411.4824" y2="411.4824"/><text fill="#000000" font-family="sans-serif" font-size="13" font-weight="bold" lengthAdjust="spacing" textLength="7" x="750.5" y="406.2197">9</text><text fill="#000000" font-family="sans-serif" font-size="13" lengthAdjust="spacing" textLength="41" x="761.5" y="406.2197">convert</text><rect fill="#E2E2F0" height="51.2422" rx="2.5" ry="2.5" style="stroke:#181818;stroke-width:0.5;" width="100" x="819.5" y="388.1914"/><text fill="#000000" font-family="sans-serif" font-size="14" font-style="italic" lengthAdjust="spacing" textLength="86" x="826.5" y="410.2988">&#171;component&#187;</text><text fill="#000000" font-family="sans-serif" font-size="14" lengthAdjust="spacing" textLength="30" x="854.5" y="428.9199">DTO</text><line style="stroke:#181818;stroke-width:1.0;" x1="744.5" x2="754.5" y1="473.7246" y2="469.7246"/><line style="stroke:#181818;stroke-width:1.0;" x1="744.5" x2="754.5" y1="473.7246" y2="477.7246"/><line style="stroke:#181818;stroke-width:1.0;stroke-dasharray:2.0,2.0;" x1="743.5" x2="868.5" y1="473.7246" y2="473.7246"/><text fill="#000000" font-family="sans-serif" font-size="13" font-weight="bold" lengthAdjust="spacing" textLength="14" x="760.5" y="468.4619">10</text><text fill="#000000" font-family="sans-serif" font-size="13" lengthAdjust="spacing" textLength="39" x="778.5" y="468.4619">dto list</text><line style="stroke:#181818;stroke-width:1.0;" x1="442" x2="452" y1="505.0156" y2="501.0156"/><line style="stroke:#181818;stroke-width:1.0;" x1="442" x2="452" y1="505.0156" y2="509.0156"/><line style="stroke:#181818;stroke-width:1.0;stroke-dasharray:2.0,2.0;" x1="441" x2="737.5" y1="505.0156" y2="505.0156"/><text fill="#000000" font-family="sans-serif" font-size="13" font-weight="bold" lengthAdjust="spacing" textLength="14" x="458" y="499.7529">11</text><text fill="#000000" font-family="sans-serif" font-size="13" lengthAdjust="spacing" textLength="39" x="476" y="499.7529">dto list</text><line style="stroke:#181818;stroke-width:1.0;" x1="271" x2="281" y1="536.3066" y2="532.3066"/><line style="stroke:#181818;stroke-width:1.0;" x1="271" x2="281" y1="536.3066" y2="540.3066"/><line style="stroke:#181818;stroke-width:1.0;stroke-dasharray:2.0,2.0;" x1="270" x2="435" y1="536.3066" y2="536.3066"/><text fill="#000000" font-family="sans-serif" font-size="13" font-weight="bold" lengthAdjust="spacing" textLength="14" x="287" y="531.0439">12</text><text fill="#000000" font-family="sans-serif" font-size="13" lengthAdjust="spacing" textLength="49" x="305" y="531.0439">success</text><line style="stroke:#181818;stroke-width:1.0;" x1="100" x2="110" y1="567.5977" y2="563.5977"/><line style="stroke:#181818;stroke-width:1.0;" x1="100" x2="110" y1="567.5977" y2="571.5977"/><line style="stroke:#181818;stroke-width:1.0;stroke-dasharray:2.0,2.0;" x1="99" x2="264" y1="567.5977" y2="567.5977"/><text fill="#000000" font-family="sans-serif" font-size="13" font-weight="bold" lengthAdjust="spacing" textLength="14" x="116" y="562.335">13</text><text fill="#000000" font-family="sans-serif" font-size="13" lengthAdjust="spacing" textLength="49" x="134" y="562.335">success</text><line style="stroke:#181818;stroke-width:1.0;" x1="6.5" x2="16.5" y1="598.8887" y2="594.8887"/><line style="stroke:#181818;stroke-width:1.0;" x1="6.5" x2="16.5" y1="598.8887" y2="602.8887"/><line style="stroke:#181818;stroke-width:1.0;stroke-dasharray:2.0,2.0;" x1="0" x2="93" y1="598.8887" y2="598.8887"/><text fill="#000000" font-family="sans-serif" font-size="13" font-weight="bold" lengthAdjust="spacing" textLength="14" x="17" y="593.626">14</text><text fill="#000000" font-family="sans-serif" font-size="13" lengthAdjust="spacing" textLength="44" x="35" y="593.626">200 OK</text><!--SRC=[ZPD1RiCW44Ntd6BKPIHBKPUMvIxQgekcYfJa0XYJ20KR2yQHSliEECOuIQtkCFptXnc-UO-cxPjAMkREgksuvGrqN9pvIUxngYLOAP0nL4ZhZN88N6lGweWEp14uLBtIjMfFZ16CIgYEjmWlEzCZxRu0Ts27DHI5C4rdMjbYMSxbxwP5QxIMDX0YVYv1UsalIiX0k66z9D_GfM4dE-CK6diDc6_4qjOIzyExe6rujoJxE6o3hCPxjveZhxYJfBcj1c5rfsDl9YlBEAuSlZuFZ0jK5uvot6RZiPScSygfbwNNYJuJmnBSkuqp_BVL3M0Zw4tYH7CuIHoSY5ys6Y4MQMz50ygfXgO43lm4r1MZq-oke2_6Qfcg4iSdBVvniSGYtcpMf8z2xYTvaHQ17fmUF_mTqmr9mfZNXReKYjLgGf96aAnzPBB9rty-jE9rqMvguvasb8xNVSY9wuMGpgN4-92pHCop-8HAaaJHBOeiI_IlwpLilrFv6E1V]--></g></svg>