<?xml version="1.0" encoding="us-ascii" standalone="no"?><svg xmlns="http://www.w3.org/2000/svg" xmlns:xlink="http://www.w3.org/1999/xlink" contentStyleType="text/css" height="716px" preserveAspectRatio="none" style="width:1062px;height:716px;background:#FFFFFF;" version="1.1" viewBox="0 0 1062 716" width="1062px" zoomAndPan="magnify"><defs/><g><text fill="#000000" font-family="sans-serif" font-size="14" font-weight="bold" lengthAdjust="spacing" textLength="181" x="442.25" y="30.1074">List all floors of a building</text><rect fill="#FFFFFF" height="437.7344" style="stroke:#181818;stroke-width:1.0;" width="10" x="89" y="161.1543"/><rect fill="#FFFFFF" height="375.1523" style="stroke:#181818;stroke-width:1.0;" width="10" x="271" y="192.4453"/><rect fill="#FFFFFF" height="312.5703" style="stroke:#181818;stroke-width:1.0;" width="10" x="453" y="223.7363"/><rect fill="#FFFFFF" height="93.873" style="stroke:#181818;stroke-width:1.0;" width="10" x="654" y="255.0273"/><rect fill="#FFFFFF" height="124.8242" style="stroke:#181818;stroke-width:1.0;" width="10" x="773.5" y="380.1914"/><rect fill="#FFFFFF" height="52.2422" style="stroke:#181818;stroke-width:1.0;" width="10" x="904.5" y="421.4824"/><rect fill="#FFFFFF" height="31.291" style="stroke:#181818;stroke-width:1.0;" width="10" x="1010.5" y="286.3184"/><line style="stroke:#181818;stroke-width:0.5;stroke-dasharray:5.0,5.0;" x1="94" x2="94" y1="127.8633" y2="616.8887"/><line style="stroke:#181818;stroke-width:0.5;stroke-dasharray:5.0,5.0;" x1="276" x2="276" y1="127.8633" y2="616.8887"/><line style="stroke:#181818;stroke-width:0.5;stroke-dasharray:5.0,5.0;" x1="458" x2="458" y1="127.8633" y2="616.8887"/><line style="stroke:#181818;stroke-width:0.5;stroke-dasharray:5.0,5.0;" x1="658.5" x2="658.5" y1="127.8633" y2="616.8887"/><line style="stroke:#181818;stroke-width:0.5;stroke-dasharray:5.0,5.0;" x1="778.5" x2="778.5" y1="127.8633" y2="616.8887"/><line style="stroke:#181818;stroke-width:0.5;stroke-dasharray:5.0,5.0;" x1="909.5" x2="909.5" y1="429.3125" y2="616.8887"/><line style="stroke:#181818;stroke-width:0.5;stroke-dasharray:5.0,5.0;" x1="1015.5" x2="1015.5" y1="127.8633" y2="616.8887"/><rect fill="#E2E2F0" height="51.2422" rx="2.5" ry="2.5" style="stroke:#181818;stroke-width:0.5;" width="100" x="44" y="75.6211"/><text fill="#000000" font-family="sans-serif" font-size="14" font-style="italic" lengthAdjust="spacing" textLength="86" x="51" y="97.7285">&#171;component&#187;</text><text fill="#000000" font-family="sans-serif" font-size="14" lengthAdjust="spacing" textLength="49" x="69.5" y="116.3496">Routing</text><rect fill="#E2E2F0" height="51.2422" rx="2.5" ry="2.5" style="stroke:#181818;stroke-width:0.5;" width="100" x="44" y="615.8887"/><text fill="#000000" font-family="sans-serif" font-size="14" font-style="italic" lengthAdjust="spacing" textLength="86" x="51" y="637.9961">&#171;component&#187;</text><text fill="#000000" font-family="sans-serif" font-size="14" lengthAdjust="spacing" textLength="49" x="69.5" y="656.6172">Routing</text><rect fill="#E2E2F0" height="51.2422" rx="2.5" ry="2.5" style="stroke:#181818;stroke-width:0.5;" width="100" x="226" y="75.6211"/><text fill="#000000" font-family="sans-serif" font-size="14" font-style="italic" lengthAdjust="spacing" textLength="86" x="233" y="97.7285">&#171;component&#187;</text><text fill="#000000" font-family="sans-serif" font-size="14" lengthAdjust="spacing" textLength="62" x="245" y="116.3496">Controller</text><rect fill="#E2E2F0" height="51.2422" rx="2.5" ry="2.5" style="stroke:#181818;stroke-width:0.5;" width="100" x="226" y="615.8887"/><text fill="#000000" font-family="sans-serif" font-size="14" font-style="italic" lengthAdjust="spacing" textLength="86" x="233" y="637.9961">&#171;component&#187;</text><text fill="#000000" font-family="sans-serif" font-size="14" lengthAdjust="spacing" textLength="62" x="245" y="656.6172">Controller</text><rect fill="#E2E2F0" height="51.2422" rx="2.5" ry="2.5" style="stroke:#181818;stroke-width:0.5;" width="100" x="408" y="75.6211"/><text fill="#000000" font-family="sans-serif" font-size="14" font-style="italic" lengthAdjust="spacing" textLength="86" x="415" y="97.7285">&#171;component&#187;</text><text fill="#000000" font-family="sans-serif" font-size="14" lengthAdjust="spacing" textLength="47" x="434.5" y="116.3496">Service</text><rect fill="#E2E2F0" height="51.2422" rx="2.5" ry="2.5" style="stroke:#181818;stroke-width:0.5;" width="100" x="408" y="615.8887"/><text fill="#000000" font-family="sans-serif" font-size="14" font-style="italic" lengthAdjust="spacing" textLength="86" x="415" y="637.9961">&#171;component&#187;</text><text fill="#000000" font-family="sans-serif" font-size="14" lengthAdjust="spacing" textLength="47" x="434.5" y="656.6172">Service</text><rect fill="#E2E2F0" height="51.2422" rx="2.5" ry="2.5" style="stroke:#181818;stroke-width:0.5;" width="119" x="599.5" y="75.6211"/><text fill="#000000" font-family="sans-serif" font-size="14" font-style="italic" lengthAdjust="spacing" textLength="86" x="616" y="97.7285">&#171;component&#187;</text><text fill="#000000" font-family="sans-serif" font-size="14" lengthAdjust="spacing" textLength="105" x="606.5" y="116.3496">Floor Repository</text><rect fill="#E2E2F0" height="51.2422" rx="2.5" ry="2.5" style="stroke:#181818;stroke-width:0.5;" width="119" x="599.5" y="615.8887"/><text fill="#000000" font-family="sans-serif" font-size="14" font-style="italic" lengthAdjust="spacing" textLength="86" x="616" y="637.9961">&#171;component&#187;</text><text fill="#000000" font-family="sans-serif" font-size="14" lengthAdjust="spacing" textLength="105" x="606.5" y="656.6172">Floor Repository</text><rect fill="#E2E2F0" height="51.2422" rx="2.5" ry="2.5" style="stroke:#181818;stroke-width:0.5;" width="100" x="728.5" y="75.6211"/><text fill="#000000" font-family="sans-serif" font-size="14" font-style="italic" lengthAdjust="spacing" textLength="86" x="735.5" y="97.7285">&#171;component&#187;</text><text fill="#000000" font-family="sans-serif" font-size="14" lengthAdjust="spacing" textLength="27" x="765" y="116.3496">Map</text><rect fill="#E2E2F0" height="51.2422" rx="2.5" ry="2.5" style="stroke:#181818;stroke-width:0.5;" width="100" x="728.5" y="615.8887"/><text fill="#000000" font-family="sans-serif" font-size="14" font-style="italic" lengthAdjust="spacing" textLength="86" x="735.5" y="637.9961">&#171;component&#187;</text><text fill="#000000" font-family="sans-serif" font-size="14" lengthAdjust="spacing" textLength="27" x="765" y="656.6172">Map</text><rect fill="#E2E2F0" height="51.2422" rx="2.5" ry="2.5" style="stroke:#181818;stroke-width:0.5;" width="100" x="859.5" y="615.8887"/><text fill="#000000" font-family="sans-serif" font-size="14" font-style="italic" lengthAdjust="spacing" textLength="86" x="866.5" y="637.9961">&#171;component&#187;</text><text fill="#000000" font-family="sans-serif" font-size="14" lengthAdjust="spacing" textLength="30" x="894.5" y="656.6172">DTO</text><text fill="#000000" font-family="sans-serif" font-size="14" font-style="italic" lengthAdjust="spacing" textLength="86" x="969.5" y="105.7285">&#171;component&#187;</text><text fill="#000000" font-family="sans-serif" font-size="14" lengthAdjust="spacing" textLength="61" x="982" y="124.3496">Database</text><path d="M997.5,54.6211 C997.5,44.6211 1015.5,44.6211 1015.5,44.6211 C1015.5,44.6211 1033.5,44.6211 1033.5,54.6211 L1033.5,80.6211 C1033.5,90.6211 1015.5,90.6211 1015.5,90.6211 C1015.5,90.6211 997.5,90.6211 997.5,80.6211 L997.5,54.6211 " fill="#E2E2F0" style="stroke:#181818;stroke-width:1.5;"/><path d="M997.5,54.6211 C997.5,64.6211 1015.5,64.6211 1015.5,64.6211 C1015.5,64.6211 1033.5,64.6211 1033.5,54.6211 " fill="none" style="stroke:#181818;stroke-width:1.5;"/><text fill="#000000" font-family="sans-serif" font-size="14" font-style="italic" lengthAdjust="spacing" textLength="86" x="969.5" y="630.9961">&#171;component&#187;</text><text fill="#000000" font-family="sans-serif" font-size="14" lengthAdjust="spacing" textLength="61" x="982" y="649.6172">Database</text><path d="M997.5,663.1309 C997.5,653.1309 1015.5,653.1309 1015.5,653.1309 C1015.5,653.1309 1033.5,653.1309 1033.5,663.1309 L1033.5,689.1309 C1033.5,699.1309 1015.5,699.1309 1015.5,699.1309 C1015.5,699.1309 997.5,699.1309 997.5,689.1309 L997.5,663.1309 " fill="#E2E2F0" style="stroke:#181818;stroke-width:1.5;"/><path d="M997.5,663.1309 C997.5,673.1309 1015.5,673.1309 1015.5,673.1309 C1015.5,673.1309 1033.5,673.1309 1033.5,663.1309 " fill="none" style="stroke:#181818;stroke-width:1.5;"/><rect fill="#FFFFFF" height="437.7344" style="stroke:#181818;stroke-width:1.0;" width="10" x="89" y="161.1543"/><rect fill="#FFFFFF" height="375.1523" style="stroke:#181818;stroke-width:1.0;" width="10" x="271" y="192.4453"/><rect fill="#FFFFFF" height="312.5703" style="stroke:#181818;stroke-width:1.0;" width="10" x="453" y="223.7363"/><rect fill="#FFFFFF" height="93.873" style="stroke:#181818;stroke-width:1.0;" width="10" x="654" y="255.0273"/><rect fill="#FFFFFF" height="124.8242" style="stroke:#181818;stroke-width:1.0;" width="10" x="773.5" y="380.1914"/><rect fill="#FFFFFF" height="52.2422" style="stroke:#181818;stroke-width:1.0;" width="10" x="904.5" y="421.4824"/><rect fill="#FFFFFF" height="31.291" style="stroke:#181818;stroke-width:1.0;" width="10" x="1010.5" y="286.3184"/><ellipse cx="29.5" cy="160.4043" fill="none" rx="4" ry="4" style="stroke:#181818;stroke-width:1.5;"/><line style="stroke:#181818;stroke-width:1.0;" x1="87" x2="77" y1="161.1543" y2="157.1543"/><line style="stroke:#181818;stroke-width:1.0;" x1="87" x2="77" y1="161.1543" y2="165.1543"/><line style="stroke:#181818;stroke-width:1.0;" x1="34" x2="88" y1="161.1543" y2="161.1543"/><text fill="#000000" font-family="sans-serif" font-size="13" font-weight="bold" lengthAdjust="spacing" textLength="7" x="37" y="155.8916">1</text><text fill="#000000" font-family="sans-serif" font-size="13" lengthAdjust="spacing" textLength="26" x="48" y="155.8916">GET</text><line style="stroke:#181818;stroke-width:1.0;" x1="269" x2="259" y1="192.4453" y2="188.4453"/><line style="stroke:#181818;stroke-width:1.0;" x1="269" x2="259" y1="192.4453" y2="196.4453"/><line style="stroke:#181818;stroke-width:1.0;" x1="99" x2="270" y1="192.4453" y2="192.4453"/><text fill="#000000" font-family="sans-serif" font-size="13" font-weight="bold" lengthAdjust="spacing" textLength="7" x="106" y="187.1826">2</text><text fill="#000000" font-family="sans-serif" font-size="13" lengthAdjust="spacing" textLength="142" x="117" y="187.1826">list all floors of a building</text><line style="stroke:#181818;stroke-width:1.0;" x1="451" x2="441" y1="223.7363" y2="219.7363"/><line style="stroke:#181818;stroke-width:1.0;" x1="451" x2="441" y1="223.7363" y2="227.7363"/><line style="stroke:#181818;stroke-width:1.0;" x1="281" x2="452" y1="223.7363" y2="223.7363"/><text fill="#000000" font-family="sans-serif" font-size="13" font-weight="bold" lengthAdjust="spacing" textLength="7" x="288" y="218.4736">3</text><text fill="#000000" font-family="sans-serif" font-size="13" lengthAdjust="spacing" textLength="142" x="299" y="218.4736">list all floors of a building</text><line style="stroke:#181818;stroke-width:1.0;" x1="652" x2="642" y1="255.0273" y2="251.0273"/><line style="stroke:#181818;stroke-width:1.0;" x1="652" x2="642" y1="255.0273" y2="259.0273"/><line style="stroke:#181818;stroke-width:1.0;" x1="463" x2="653" y1="255.0273" y2="255.0273"/><text fill="#000000" font-family="sans-serif" font-size="13" font-weight="bold" lengthAdjust="spacing" textLength="7" x="470" y="249.7646">4</text><text fill="#000000" font-family="sans-serif" font-size="13" lengthAdjust="spacing" textLength="161" x="481" y="249.7646">get list of floors of a building</text><line style="stroke:#181818;stroke-width:1.0;" x1="1008.5" x2="998.5" y1="286.3184" y2="282.3184"/><line style="stroke:#181818;stroke-width:1.0;" x1="1008.5" x2="998.5" y1="286.3184" y2="290.3184"/><line style="stroke:#181818;stroke-width:1.0;" x1="664" x2="1009.5" y1="286.3184" y2="286.3184"/><text fill="#000000" font-family="sans-serif" font-size="13" font-weight="bold" lengthAdjust="spacing" textLength="7" x="671" y="281.0557">5</text><text fill="#000000" font-family="sans-serif" font-size="13" lengthAdjust="spacing" textLength="70" x="682" y="281.0557">select floors</text><line style="stroke:#181818;stroke-width:1.0;" x1="665" x2="675" y1="317.6094" y2="313.6094"/><line style="stroke:#181818;stroke-width:1.0;" x1="665" x2="675" y1="317.6094" y2="321.6094"/><line style="stroke:#181818;stroke-width:1.0;stroke-dasharray:2.0,2.0;" x1="664" x2="1014.5" y1="317.6094" y2="317.6094"/><text fill="#000000" font-family="sans-serif" font-size="13" font-weight="bold" lengthAdjust="spacing" textLength="7" x="681" y="312.3467">6</text><text fill="#000000" font-family="sans-serif" font-size="13" lengthAdjust="spacing" textLength="17" x="692" y="312.3467">list</text><line style="stroke:#181818;stroke-width:1.0;" x1="464" x2="474" y1="348.9004" y2="344.9004"/><line style="stroke:#181818;stroke-width:1.0;" x1="464" x2="474" y1="348.9004" y2="352.9004"/><line style="stroke:#181818;stroke-width:1.0;stroke-dasharray:2.0,2.0;" x1="463" x2="658" y1="348.9004" y2="348.9004"/><text fill="#000000" font-family="sans-serif" font-size="13" font-weight="bold" lengthAdjust="spacing" textLength="7" x="480" y="343.6377">7</text><text fill="#000000" font-family="sans-serif" font-size="13" lengthAdjust="spacing" textLength="139" x="491" y="343.6377">list of floors of a building</text><line style="stroke:#181818;stroke-width:1.0;" x1="771.5" x2="761.5" y1="380.1914" y2="376.1914"/><line style="stroke:#181818;stroke-width:1.0;" x1="771.5" x2="761.5" y1="380.1914" y2="384.1914"/><line style="stroke:#181818;stroke-width:1.0;" x1="463" x2="772.5" y1="380.1914" y2="380.1914"/><text fill="#000000" font-family="sans-serif" font-size="13" font-weight="bold" lengthAdjust="spacing" textLength="7" x="470" y="374.9287">8</text><text fill="#000000" font-family="sans-serif" font-size="13" lengthAdjust="spacing" textLength="111" x="481" y="374.9287">convert to DTO List</text><line style="stroke:#181818;stroke-width:1.0;" x1="857.5" x2="847.5" y1="411.4824" y2="407.4824"/><line style="stroke:#181818;stroke-width:1.0;" x1="857.5" x2="847.5" y1="411.4824" y2="415.4824"/><line style="stroke:#181818;stroke-width:1.0;stroke-dasharray:2.0,2.0;" x1="783.5" x2="858.5" y1="411.4824" y2="411.4824"/><text fill="#000000" font-family="sans-serif" font-size="13" font-weight="bold" lengthAdjust="spacing" textLength="7" x="790.5" y="406.2197">9</text><text fill="#000000" font-family="sans-serif" font-size="13" lengthAdjust="spacing" textLength="41" x="801.5" y="406.2197">convert</text><rect fill="#E2E2F0" height="51.2422" rx="2.5" ry="2.5" style="stroke:#181818;stroke-width:0.5;" width="100" x="859.5" y="388.1914"/><text fill="#000000" font-family="sans-serif" font-size="14" font-style="italic" lengthAdjust="spacing" textLength="86" x="866.5" y="410.2988">&#171;component&#187;</text><text fill="#000000" font-family="sans-serif" font-size="14" lengthAdjust="spacing" textLength="30" x="894.5" y="428.9199">DTO</text><line style="stroke:#181818;stroke-width:1.0;" x1="784.5" x2="794.5" y1="473.7246" y2="469.7246"/><line style="stroke:#181818;stroke-width:1.0;" x1="784.5" x2="794.5" y1="473.7246" y2="477.7246"/><line style="stroke:#181818;stroke-width:1.0;stroke-dasharray:2.0,2.0;" x1="783.5" x2="908.5" y1="473.7246" y2="473.7246"/><text fill="#000000" font-family="sans-serif" font-size="13" font-weight="bold" lengthAdjust="spacing" textLength="14" x="800.5" y="468.4619">10</text><text fill="#000000" font-family="sans-serif" font-size="13" lengthAdjust="spacing" textLength="39" x="818.5" y="468.4619">dto list</text><line style="stroke:#181818;stroke-width:1.0;" x1="464" x2="474" y1="505.0156" y2="501.0156"/><line style="stroke:#181818;stroke-width:1.0;" x1="464" x2="474" y1="505.0156" y2="509.0156"/><line style="stroke:#181818;stroke-width:1.0;stroke-dasharray:2.0,2.0;" x1="463" x2="777.5" y1="505.0156" y2="505.0156"/><text fill="#000000" font-family="sans-serif" font-size="13" font-weight="bold" lengthAdjust="spacing" textLength="14" x="480" y="499.7529">11</text><text fill="#000000" font-family="sans-serif" font-size="13" lengthAdjust="spacing" textLength="39" x="498" y="499.7529">dto list</text><line style="stroke:#181818;stroke-width:1.0;" x1="282" x2="292" y1="536.3066" y2="532.3066"/><line style="stroke:#181818;stroke-width:1.0;" x1="282" x2="292" y1="536.3066" y2="540.3066"/><line style="stroke:#181818;stroke-width:1.0;stroke-dasharray:2.0,2.0;" x1="281" x2="457" y1="536.3066" y2="536.3066"/><text fill="#000000" font-family="sans-serif" font-size="13" font-weight="bold" lengthAdjust="spacing" textLength="14" x="298" y="531.0439">12</text><text fill="#000000" font-family="sans-serif" font-size="13" lengthAdjust="spacing" textLength="49" x="316" y="531.0439">success</text><line style="stroke:#181818;stroke-width:1.0;" x1="100" x2="110" y1="567.5977" y2="563.5977"/><line style="stroke:#181818;stroke-width:1.0;" x1="100" x2="110" y1="567.5977" y2="571.5977"/><line style="stroke:#181818;stroke-width:1.0;stroke-dasharray:2.0,2.0;" x1="99" x2="275" y1="567.5977" y2="567.5977"/><text fill="#000000" font-family="sans-serif" font-size="13" font-weight="bold" lengthAdjust="spacing" textLength="14" x="116" y="562.335">13</text><text fill="#000000" font-family="sans-serif" font-size="13" lengthAdjust="spacing" textLength="49" x="134" y="562.335">success</text><line style="stroke:#181818;stroke-width:1.0;" x1="6.5" x2="16.5" y1="598.8887" y2="594.8887"/><line style="stroke:#181818;stroke-width:1.0;" x1="6.5" x2="16.5" y1="598.8887" y2="602.8887"/><line style="stroke:#181818;stroke-width:1.0;stroke-dasharray:2.0,2.0;" x1="0" x2="93" y1="598.8887" y2="598.8887"/><text fill="#000000" font-family="sans-serif" font-size="13" font-weight="bold" lengthAdjust="spacing" textLength="14" x="17" y="593.626">14</text><text fill="#000000" font-family="sans-serif" font-size="13" lengthAdjust="spacing" textLength="44" x="35" y="593.626">200 OK</text><!--SRC=[ZPFBRiCW44NtVCKeoqYMeYujortqjMYhI4b-O8n9X8AD1UD8-Vi2ZWrvrEqEmxrdcE4QUz9jtrJ2C7kKROS66-YG7_4WjdHM0epWn1X9SkilQGbGATWhhOq5lGU4gfUgbks1CUScoMM7BS5Yetjokmj02sPOGr5mtNIw5IsLvRNyHRTaj5B210UVFkTCMs5EaelWiCDwJlxkRmqRqMahIPjpy8LMZDkRStvZ5yGDTdEorzqwo6gwfTL8MA4LJdDP3SBgHiUUTLQMqy1o-7ZRCUGaJqXYt6RZiPScayf1pJ_G18ecblWzRXpZ_raN1nkTdXA7ciD1qC1oW3zGaur5WCUvCUMkZd9Hl22YfwwOEyvkg_gAh1QfB8K-QFMtwoMGUB-hRdqgSZ_Jap04xkrT3iA_4c_f98nvNQZiyh5SHalI33cqJqyMkVxphXklct2naKVQK7gwxbraRC-vi3PrZ2zwbOthM3vm9PboAIwAB4lqJwiLh3zJ-PZb7m00]--></g></svg>