<?xml version="1.0" encoding="us-ascii" standalone="no"?><svg xmlns="http://www.w3.org/2000/svg" xmlns:xlink="http://www.w3.org/1999/xlink" contentStyleType="text/css" height="874px" preserveAspectRatio="none" style="width:915px;height:874px;background:#FFFFFF;" version="1.1" viewBox="0 0 915 874" width="915px" zoomAndPan="magnify"><defs/><g><text fill="#000000" font-family="sans-serif" font-size="14" font-weight="bold" lengthAdjust="spacing" textLength="114" x="402" y="30.1074">List all buildings</text><rect fill="#FFFFFF" height="596.1895" style="stroke:#181818;stroke-width:1.0;" width="10" x="132" y="161.1543"/><rect fill="#FFFFFF" height="533.6074" style="stroke:#181818;stroke-width:1.0;" width="10" x="244" y="192.4453"/><rect fill="#FFFFFF" height="471.0254" style="stroke:#181818;stroke-width:1.0;" width="10" x="356" y="223.7363"/><rect fill="#FFFFFF" height="252.3281" style="stroke:#181818;stroke-width:1.0;" width="10" x="509" y="255.0273"/><rect fill="#FFFFFF" height="124.8242" style="stroke:#181818;stroke-width:1.0;" width="10" x="619" y="538.6465"/><rect fill="#FFFFFF" height="52.2422" style="stroke:#181818;stroke-width:1.0;" width="10" x="757" y="579.9375"/><rect fill="#FFFFFF" height="31.291" style="stroke:#181818;stroke-width:1.0;" width="10" x="863" y="286.3184"/><rect fill="none" height="144.4551" style="stroke:#000000;stroke-width:1.5;" width="564" x="10" y="332.6094"/><line style="stroke:#181818;stroke-width:0.5;stroke-dasharray:5.0,5.0;" x1="137" x2="137" y1="127.8633" y2="775.3438"/><line style="stroke:#181818;stroke-width:0.5;stroke-dasharray:5.0,5.0;" x1="249" x2="249" y1="127.8633" y2="775.3438"/><line style="stroke:#181818;stroke-width:0.5;stroke-dasharray:5.0,5.0;" x1="361" x2="361" y1="127.8633" y2="775.3438"/><line style="stroke:#181818;stroke-width:0.5;stroke-dasharray:5.0,5.0;" x1="514" x2="514" y1="127.8633" y2="775.3438"/><line style="stroke:#181818;stroke-width:0.5;stroke-dasharray:5.0,5.0;" x1="624" x2="624" y1="127.8633" y2="775.3438"/><line style="stroke:#181818;stroke-width:0.5;stroke-dasharray:5.0,5.0;" x1="762" x2="762" y1="587.7676" y2="775.3438"/><line style="stroke:#181818;stroke-width:0.5;stroke-dasharray:5.0,5.0;" x1="868" x2="868" y1="127.8633" y2="775.3438"/><rect fill="#E2E2F0" height="51.2422" rx="2.5" ry="2.5" style="stroke:#181818;stroke-width:0.5;" width="100" x="87" y="75.6211"/><text fill="#000000" font-family="sans-serif" font-size="14" font-style="italic" lengthAdjust="spacing" textLength="86" x="94" y="97.7285">&#171;component&#187;</text><text fill="#000000" font-family="sans-serif" font-size="14" lengthAdjust="spacing" textLength="49" x="112.5" y="116.3496">Routing</text><rect fill="#E2E2F0" height="51.2422" rx="2.5" ry="2.5" style="stroke:#181818;stroke-width:0.5;" width="100" x="87" y="774.3438"/><text fill="#000000" font-family="sans-serif" font-size="14" font-style="italic" lengthAdjust="spacing" textLength="86" x="94" y="796.4512">&#171;component&#187;</text><text fill="#000000" font-family="sans-serif" font-size="14" lengthAdjust="spacing" textLength="49" x="112.5" y="815.0723">Routing</text><rect fill="#E2E2F0" height="51.2422" rx="2.5" ry="2.5" style="stroke:#181818;stroke-width:0.5;" width="100" x="199" y="75.6211"/><text fill="#000000" font-family="sans-serif" font-size="14" font-style="italic" lengthAdjust="spacing" textLength="86" x="206" y="97.7285">&#171;component&#187;</text><text fill="#000000" font-family="sans-serif" font-size="14" lengthAdjust="spacing" textLength="62" x="218" y="116.3496">Controller</text><rect fill="#E2E2F0" height="51.2422" rx="2.5" ry="2.5" style="stroke:#181818;stroke-width:0.5;" width="100" x="199" y="774.3438"/><text fill="#000000" font-family="sans-serif" font-size="14" font-style="italic" lengthAdjust="spacing" textLength="86" x="206" y="796.4512">&#171;component&#187;</text><text fill="#000000" font-family="sans-serif" font-size="14" lengthAdjust="spacing" textLength="62" x="218" y="815.0723">Controller</text><rect fill="#E2E2F0" height="51.2422" rx="2.5" ry="2.5" style="stroke:#181818;stroke-width:0.5;" width="100" x="311" y="75.6211"/><text fill="#000000" font-family="sans-serif" font-size="14" font-style="italic" lengthAdjust="spacing" textLength="86" x="318" y="97.7285">&#171;component&#187;</text><text fill="#000000" font-family="sans-serif" font-size="14" lengthAdjust="spacing" textLength="47" x="337.5" y="116.3496">Service</text><rect fill="#E2E2F0" height="51.2422" rx="2.5" ry="2.5" style="stroke:#181818;stroke-width:0.5;" width="100" x="311" y="774.3438"/><text fill="#000000" font-family="sans-serif" font-size="14" font-style="italic" lengthAdjust="spacing" textLength="86" x="318" y="796.4512">&#171;component&#187;</text><text fill="#000000" font-family="sans-serif" font-size="14" lengthAdjust="spacing" textLength="47" x="337.5" y="815.0723">Service</text><rect fill="#E2E2F0" height="51.2422" rx="2.5" ry="2.5" style="stroke:#181818;stroke-width:0.5;" width="100" x="464" y="75.6211"/><text fill="#000000" font-family="sans-serif" font-size="14" font-style="italic" lengthAdjust="spacing" textLength="86" x="471" y="97.7285">&#171;component&#187;</text><text fill="#000000" font-family="sans-serif" font-size="14" lengthAdjust="spacing" textLength="68" x="480" y="116.3496">Repository</text><rect fill="#E2E2F0" height="51.2422" rx="2.5" ry="2.5" style="stroke:#181818;stroke-width:0.5;" width="100" x="464" y="774.3438"/><text fill="#000000" font-family="sans-serif" font-size="14" font-style="italic" lengthAdjust="spacing" textLength="86" x="471" y="796.4512">&#171;component&#187;</text><text fill="#000000" font-family="sans-serif" font-size="14" lengthAdjust="spacing" textLength="68" x="480" y="815.0723">Repository</text><rect fill="#E2E2F0" height="51.2422" rx="2.5" ry="2.5" style="stroke:#181818;stroke-width:0.5;" width="100" x="574" y="75.6211"/><text fill="#000000" font-family="sans-serif" font-size="14" font-style="italic" lengthAdjust="spacing" textLength="86" x="581" y="97.7285">&#171;component&#187;</text><text fill="#000000" font-family="sans-serif" font-size="14" lengthAdjust="spacing" textLength="27" x="610.5" y="116.3496">Map</text><rect fill="#E2E2F0" height="51.2422" rx="2.5" ry="2.5" style="stroke:#181818;stroke-width:0.5;" width="100" x="574" y="774.3438"/><text fill="#000000" font-family="sans-serif" font-size="14" font-style="italic" lengthAdjust="spacing" textLength="86" x="581" y="796.4512">&#171;component&#187;</text><text fill="#000000" font-family="sans-serif" font-size="14" lengthAdjust="spacing" textLength="27" x="610.5" y="815.0723">Map</text><rect fill="#E2E2F0" height="51.2422" rx="2.5" ry="2.5" style="stroke:#181818;stroke-width:0.5;" width="100" x="712" y="774.3438"/><text fill="#000000" font-family="sans-serif" font-size="14" font-style="italic" lengthAdjust="spacing" textLength="86" x="719" y="796.4512">&#171;component&#187;</text><text fill="#000000" font-family="sans-serif" font-size="14" lengthAdjust="spacing" textLength="30" x="747" y="815.0723">DTO</text><text fill="#000000" font-family="sans-serif" font-size="14" font-style="italic" lengthAdjust="spacing" textLength="86" x="822" y="105.7285">&#171;component&#187;</text><text fill="#000000" font-family="sans-serif" font-size="14" lengthAdjust="spacing" textLength="61" x="834.5" y="124.3496">Database</text><path d="M850,54.6211 C850,44.6211 868,44.6211 868,44.6211 C868,44.6211 886,44.6211 886,54.6211 L886,80.6211 C886,90.6211 868,90.6211 868,90.6211 C868,90.6211 850,90.6211 850,80.6211 L850,54.6211 " fill="#E2E2F0" style="stroke:#181818;stroke-width:1.5;"/><path d="M850,54.6211 C850,64.6211 868,64.6211 868,64.6211 C868,64.6211 886,64.6211 886,54.6211 " fill="none" style="stroke:#181818;stroke-width:1.5;"/><text fill="#000000" font-family="sans-serif" font-size="14" font-style="italic" lengthAdjust="spacing" textLength="86" x="822" y="789.4512">&#171;component&#187;</text><text fill="#000000" font-family="sans-serif" font-size="14" lengthAdjust="spacing" textLength="61" x="834.5" y="808.0723">Database</text><path d="M850,821.5859 C850,811.5859 868,811.5859 868,811.5859 C868,811.5859 886,811.5859 886,821.5859 L886,847.5859 C886,857.5859 868,857.5859 868,857.5859 C868,857.5859 850,857.5859 850,847.5859 L850,821.5859 " fill="#E2E2F0" style="stroke:#181818;stroke-width:1.5;"/><path d="M850,821.5859 C850,831.5859 868,831.5859 868,831.5859 C868,831.5859 886,831.5859 886,821.5859 " fill="none" style="stroke:#181818;stroke-width:1.5;"/><rect fill="#FFFFFF" height="596.1895" style="stroke:#181818;stroke-width:1.0;" width="10" x="132" y="161.1543"/><rect fill="#FFFFFF" height="533.6074" style="stroke:#181818;stroke-width:1.0;" width="10" x="244" y="192.4453"/><rect fill="#FFFFFF" height="471.0254" style="stroke:#181818;stroke-width:1.0;" width="10" x="356" y="223.7363"/><rect fill="#FFFFFF" height="252.3281" style="stroke:#181818;stroke-width:1.0;" width="10" x="509" y="255.0273"/><rect fill="#FFFFFF" height="124.8242" style="stroke:#181818;stroke-width:1.0;" width="10" x="619" y="538.6465"/><rect fill="#FFFFFF" height="52.2422" style="stroke:#181818;stroke-width:1.0;" width="10" x="757" y="579.9375"/><rect fill="#FFFFFF" height="31.291" style="stroke:#181818;stroke-width:1.0;" width="10" x="863" y="286.3184"/><ellipse cx="13.5" cy="160.4043" fill="none" rx="4" ry="4" style="stroke:#181818;stroke-width:1.5;"/><line style="stroke:#181818;stroke-width:1.0;" x1="130" x2="120" y1="161.1543" y2="157.1543"/><line style="stroke:#181818;stroke-width:1.0;" x1="130" x2="120" y1="161.1543" y2="165.1543"/><line style="stroke:#181818;stroke-width:1.0;" x1="18" x2="131" y1="161.1543" y2="161.1543"/><text fill="#000000" font-family="sans-serif" font-size="13" font-weight="bold" lengthAdjust="spacing" textLength="7" x="21" y="155.8916">1</text><text fill="#000000" font-family="sans-serif" font-size="13" lengthAdjust="spacing" textLength="85" x="32" y="155.8916">GET /buildings</text><line style="stroke:#181818;stroke-width:1.0;" x1="242" x2="232" y1="192.4453" y2="188.4453"/><line style="stroke:#181818;stroke-width:1.0;" x1="242" x2="232" y1="192.4453" y2="196.4453"/><line style="stroke:#181818;stroke-width:1.0;" x1="142" x2="243" y1="192.4453" y2="192.4453"/><text fill="#000000" font-family="sans-serif" font-size="13" font-weight="bold" lengthAdjust="spacing" textLength="7" x="149" y="187.1826">2</text><text fill="#000000" font-family="sans-serif" font-size="13" lengthAdjust="spacing" textLength="72" x="160" y="187.1826">list buildings</text><line style="stroke:#181818;stroke-width:1.0;" x1="354" x2="344" y1="223.7363" y2="219.7363"/><line style="stroke:#181818;stroke-width:1.0;" x1="354" x2="344" y1="223.7363" y2="227.7363"/><line style="stroke:#181818;stroke-width:1.0;" x1="254" x2="355" y1="223.7363" y2="223.7363"/><text fill="#000000" font-family="sans-serif" font-size="13" font-weight="bold" lengthAdjust="spacing" textLength="7" x="261" y="218.4736">3</text><text fill="#000000" font-family="sans-serif" font-size="13" lengthAdjust="spacing" textLength="72" x="272" y="218.4736">list buildings</text><line style="stroke:#181818;stroke-width:1.0;" x1="507" x2="497" y1="255.0273" y2="251.0273"/><line style="stroke:#181818;stroke-width:1.0;" x1="507" x2="497" y1="255.0273" y2="259.0273"/><line style="stroke:#181818;stroke-width:1.0;" x1="366" x2="508" y1="255.0273" y2="255.0273"/><text fill="#000000" font-family="sans-serif" font-size="13" font-weight="bold" lengthAdjust="spacing" textLength="7" x="373" y="249.7646">4</text><text fill="#000000" font-family="sans-serif" font-size="13" lengthAdjust="spacing" textLength="108" x="384" y="249.7646">get list of buildings</text><line style="stroke:#181818;stroke-width:1.0;" x1="861" x2="851" y1="286.3184" y2="282.3184"/><line style="stroke:#181818;stroke-width:1.0;" x1="861" x2="851" y1="286.3184" y2="290.3184"/><line style="stroke:#181818;stroke-width:1.0;" x1="519" x2="862" y1="286.3184" y2="286.3184"/><text fill="#000000" font-family="sans-serif" font-size="13" font-weight="bold" lengthAdjust="spacing" textLength="7" x="526" y="281.0557">5</text><text fill="#000000" font-family="sans-serif" font-size="13" lengthAdjust="spacing" textLength="107" x="537" y="281.0557">select all buildings</text><line style="stroke:#181818;stroke-width:1.0;" x1="520" x2="530" y1="317.6094" y2="313.6094"/><line style="stroke:#181818;stroke-width:1.0;" x1="520" x2="530" y1="317.6094" y2="321.6094"/><line style="stroke:#181818;stroke-width:1.0;stroke-dasharray:2.0,2.0;" x1="519" x2="867" y1="317.6094" y2="317.6094"/><text fill="#000000" font-family="sans-serif" font-size="13" font-weight="bold" lengthAdjust="spacing" textLength="7" x="536" y="312.3467">6</text><text fill="#000000" font-family="sans-serif" font-size="13" lengthAdjust="spacing" textLength="17" x="547" y="312.3467">list</text><path d="M10,332.6094 L71,332.6094 L71,341.9004 L61,351.9004 L10,351.9004 L10,332.6094 " fill="#EEEEEE" style="stroke:#000000;stroke-width:1.5;"/><rect fill="none" height="144.4551" style="stroke:#000000;stroke-width:1.5;" width="564" x="10" y="332.6094"/><text fill="#000000" font-family="sans-serif" font-size="13" font-weight="bold" lengthAdjust="spacing" textLength="16" x="25" y="347.6377">alt</text><text fill="#000000" font-family="sans-serif" font-size="11" font-weight="bold" lengthAdjust="spacing" textLength="115" x="86" y="346.4795">[buildings not found]</text><line style="stroke:#181818;stroke-width:1.0;" x1="367" x2="377" y1="375.1914" y2="371.1914"/><line style="stroke:#181818;stroke-width:1.0;" x1="367" x2="377" y1="375.1914" y2="379.1914"/><line style="stroke:#181818;stroke-width:1.0;stroke-dasharray:2.0,2.0;" x1="366" x2="508" y1="375.1914" y2="375.1914"/><text fill="#000000" font-family="sans-serif" font-size="13" font-weight="bold" lengthAdjust="spacing" textLength="7" x="383" y="369.9287">7</text><text fill="#000000" font-family="sans-serif" font-size="13" lengthAdjust="spacing" textLength="108" x="394" y="369.9287">buildings not found</text><line style="stroke:#181818;stroke-width:1.0;" x1="255" x2="265" y1="406.4824" y2="402.4824"/><line style="stroke:#181818;stroke-width:1.0;" x1="255" x2="265" y1="406.4824" y2="410.4824"/><line style="stroke:#181818;stroke-width:1.0;stroke-dasharray:2.0,2.0;" x1="254" x2="355" y1="406.4824" y2="406.4824"/><text fill="#000000" font-family="sans-serif" font-size="13" font-weight="bold" lengthAdjust="spacing" textLength="7" x="271" y="401.2197">8</text><text fill="#000000" font-family="sans-serif" font-size="13" lengthAdjust="spacing" textLength="16" x="282" y="401.2197">fail</text><line style="stroke:#181818;stroke-width:1.0;" x1="143" x2="153" y1="437.7734" y2="433.7734"/><line style="stroke:#181818;stroke-width:1.0;" x1="143" x2="153" y1="437.7734" y2="441.7734"/><line style="stroke:#181818;stroke-width:1.0;stroke-dasharray:2.0,2.0;" x1="142" x2="243" y1="437.7734" y2="437.7734"/><text fill="#000000" font-family="sans-serif" font-size="13" font-weight="bold" lengthAdjust="spacing" textLength="7" x="159" y="432.5107">9</text><text fill="#000000" font-family="sans-serif" font-size="13" lengthAdjust="spacing" textLength="16" x="170" y="432.5107">fail</text><ellipse cx="6.5" cy="468.3145" fill="none" rx="4" ry="4" style="stroke:#181818;stroke-width:1.5;"/><line style="stroke:#181818;stroke-width:1.0;" x1="13.5" x2="23.5" y1="469.0645" y2="465.0645"/><line style="stroke:#181818;stroke-width:1.0;" x1="13.5" x2="23.5" y1="469.0645" y2="473.0645"/><line style="stroke:#181818;stroke-width:1.0;stroke-dasharray:2.0,2.0;" x1="7" x2="131" y1="469.0645" y2="469.0645"/><text fill="#000000" font-family="sans-serif" font-size="13" font-weight="bold" lengthAdjust="spacing" textLength="14" x="24" y="463.8018">10</text><text fill="#000000" font-family="sans-serif" font-size="13" lengthAdjust="spacing" textLength="85" x="42" y="463.8018">404 Not Found</text><line style="stroke:#181818;stroke-width:1.0;" x1="367" x2="377" y1="507.3555" y2="503.3555"/><line style="stroke:#181818;stroke-width:1.0;" x1="367" x2="377" y1="507.3555" y2="511.3555"/><line style="stroke:#181818;stroke-width:1.0;stroke-dasharray:2.0,2.0;" x1="366" x2="513" y1="507.3555" y2="507.3555"/><text fill="#000000" font-family="sans-serif" font-size="13" font-weight="bold" lengthAdjust="spacing" textLength="14" x="383" y="502.0928">11</text><text fill="#000000" font-family="sans-serif" font-size="13" lengthAdjust="spacing" textLength="86" x="401" y="502.0928">list of buildings</text><line style="stroke:#181818;stroke-width:1.0;" x1="617" x2="607" y1="538.6465" y2="534.6465"/><line style="stroke:#181818;stroke-width:1.0;" x1="617" x2="607" y1="538.6465" y2="542.6465"/><line style="stroke:#181818;stroke-width:1.0;" x1="366" x2="618" y1="538.6465" y2="538.6465"/><text fill="#000000" font-family="sans-serif" font-size="13" font-weight="bold" lengthAdjust="spacing" textLength="14" x="373" y="533.3838">12</text><text fill="#000000" font-family="sans-serif" font-size="13" lengthAdjust="spacing" textLength="111" x="391" y="533.3838">convert to DTO List</text><line style="stroke:#181818;stroke-width:1.0;" x1="710" x2="700" y1="569.9375" y2="565.9375"/><line style="stroke:#181818;stroke-width:1.0;" x1="710" x2="700" y1="569.9375" y2="573.9375"/><line style="stroke:#181818;stroke-width:1.0;stroke-dasharray:2.0,2.0;" x1="629" x2="711" y1="569.9375" y2="569.9375"/><text fill="#000000" font-family="sans-serif" font-size="13" font-weight="bold" lengthAdjust="spacing" textLength="14" x="636" y="564.6748">13</text><text fill="#000000" font-family="sans-serif" font-size="13" lengthAdjust="spacing" textLength="41" x="654" y="564.6748">convert</text><rect fill="#E2E2F0" height="51.2422" rx="2.5" ry="2.5" style="stroke:#181818;stroke-width:0.5;" width="100" x="712" y="546.6465"/><text fill="#000000" font-family="sans-serif" font-size="14" font-style="italic" lengthAdjust="spacing" textLength="86" x="719" y="568.7539">&#171;component&#187;</text><text fill="#000000" font-family="sans-serif" font-size="14" lengthAdjust="spacing" textLength="30" x="747" y="587.375">DTO</text><line style="stroke:#181818;stroke-width:1.0;" x1="630" x2="640" y1="632.1797" y2="628.1797"/><line style="stroke:#181818;stroke-width:1.0;" x1="630" x2="640" y1="632.1797" y2="636.1797"/><line style="stroke:#181818;stroke-width:1.0;stroke-dasharray:2.0,2.0;" x1="629" x2="761" y1="632.1797" y2="632.1797"/><text fill="#000000" font-family="sans-serif" font-size="13" font-weight="bold" lengthAdjust="spacing" textLength="14" x="646" y="626.917">14</text><text fill="#000000" font-family="sans-serif" font-size="13" lengthAdjust="spacing" textLength="39" x="664" y="626.917">dto list</text><line style="stroke:#181818;stroke-width:1.0;" x1="367" x2="377" y1="663.4707" y2="659.4707"/><line style="stroke:#181818;stroke-width:1.0;" x1="367" x2="377" y1="663.4707" y2="667.4707"/><line style="stroke:#181818;stroke-width:1.0;stroke-dasharray:2.0,2.0;" x1="366" x2="623" y1="663.4707" y2="663.4707"/><text fill="#000000" font-family="sans-serif" font-size="13" font-weight="bold" lengthAdjust="spacing" textLength="14" x="383" y="658.208">15</text><text fill="#000000" font-family="sans-serif" font-size="13" lengthAdjust="spacing" textLength="39" x="401" y="658.208">dto list</text><line style="stroke:#181818;stroke-width:1.0;" x1="255" x2="265" y1="694.7617" y2="690.7617"/><line style="stroke:#181818;stroke-width:1.0;" x1="255" x2="265" y1="694.7617" y2="698.7617"/><line style="stroke:#181818;stroke-width:1.0;stroke-dasharray:2.0,2.0;" x1="254" x2="360" y1="694.7617" y2="694.7617"/><text fill="#000000" font-family="sans-serif" font-size="13" font-weight="bold" lengthAdjust="spacing" textLength="14" x="271" y="689.499">16</text><text fill="#000000" font-family="sans-serif" font-size="13" lengthAdjust="spacing" textLength="49" x="289" y="689.499">success</text><line style="stroke:#181818;stroke-width:1.0;" x1="143" x2="153" y1="726.0527" y2="722.0527"/><line style="stroke:#181818;stroke-width:1.0;" x1="143" x2="153" y1="726.0527" y2="730.0527"/><line style="stroke:#181818;stroke-width:1.0;stroke-dasharray:2.0,2.0;" x1="142" x2="248" y1="726.0527" y2="726.0527"/><text fill="#000000" font-family="sans-serif" font-size="13" font-weight="bold" lengthAdjust="spacing" textLength="14" x="159" y="720.79">17</text><text fill="#000000" font-family="sans-serif" font-size="13" lengthAdjust="spacing" textLength="49" x="177" y="720.79">success</text><ellipse cx="42.5" cy="756.5938" fill="none" rx="4" ry="4" style="stroke:#181818;stroke-width:1.5;"/><line style="stroke:#181818;stroke-width:1.0;" x1="49.5" x2="59.5" y1="757.3438" y2="753.3438"/><line style="stroke:#181818;stroke-width:1.0;" x1="49.5" x2="59.5" y1="757.3438" y2="761.3438"/><line style="stroke:#181818;stroke-width:1.0;stroke-dasharray:2.0,2.0;" x1="43" x2="136" y1="757.3438" y2="757.3438"/><text fill="#000000" font-family="sans-serif" font-size="13" font-weight="bold" lengthAdjust="spacing" textLength="14" x="60" y="752.0811">18</text><text fill="#000000" font-family="sans-serif" font-size="13" lengthAdjust="spacing" textLength="44" x="78" y="752.0811">200 OK</text><!--SRC=[VPDDRkCm38NtF0NHPG5ZWg8h8qWNC-qifZz0smlGjX88LIH3ebFazaCfjIqxYRsIhE-HuYD57JlRxIlb8NnfsvAdFRPKVz5EVV3HAFIgPW3MBEjd7HZ96AmwRHfjTm509AnhtP9bl7bt7Sll6wI0_hJ6zRfs-zPPPNcpcUA_dMNlZ54-AUfXkoJwKFwWQvKKuRHUmjzLwu9cvuz9qL88Kjit7RqSB0bVg4sAFRLBs9_FjuGrF8_M45D5GGdpipg1rOo31rTiDeDV9Vvz_CHVeyLKipuGgvw0deogpBCIJUnFrfj1ELAG2QA-Tt11_8D0ZqRPpCOITufF4TpsOf2f06Rw659yAIMNaNcRpTWGfAb0gEBY1M9oQ5JE0fci8hIESUiwsm3ADx_1r8nhgi63C- -tf4r2SeEdVHsG1xTU5qLsSh-wnrT9z9GIATk80momVCTpkxFoPtvFcXSdkeptF2ZFA7ChCvpUzkYq802HIpbbjczlHqdM49RGSVABCMxSdZKZSaEuiOHBR4fztUVGrRKAarhx0ONhrbzGPMy2pXfojrhXsxySxn_VVm00]--></g></svg>