<?xml version="1.0" encoding="us-ascii" standalone="no"?><svg xmlns="http://www.w3.org/2000/svg" xmlns:xlink="http://www.w3.org/1999/xlink" contentStyleType="text/css" height="639px" preserveAspectRatio="none" style="width:1200px;height:639px;background:#FFFFFF;" version="1.1" viewBox="0 0 1200 639" width="1200px" zoomAndPan="magnify"><defs/><g><text fill="#000000" font-family="sans-serif" font-size="14" font-weight="bold" lengthAdjust="spacing" textLength="135" x="529" y="30.1074">Create a robot type</text><rect fill="#FFFFFF" height="367.4922" style="stroke:#181818;stroke-width:1.0;" width="10" x="49" y="151.8633"/><rect fill="#FFFFFF" height="344.2012" style="stroke:#181818;stroke-width:1.0;" width="10" x="288" y="175.1543"/><rect fill="#FFFFFF" height="219.0371" style="stroke:#181818;stroke-width:1.0;" width="10" x="614" y="269.0273"/><rect fill="#FFFFFF" height="156.4551" style="stroke:#181818;stroke-width:1.0;" width="10" x="830" y="300.3184"/><rect fill="#FFFFFF" height="93.873" style="stroke:#181818;stroke-width:1.0;" width="10" x="1018" y="331.6094"/><line style="stroke:#181818;stroke-width:0.5;stroke-dasharray:5.0,5.0;" x1="54" x2="54" y1="141.8633" y2="537.3555"/><line style="stroke:#181818;stroke-width:0.5;stroke-dasharray:5.0,5.0;" x1="293" x2="293" y1="141.8633" y2="537.3555"/><line style="stroke:#181818;stroke-width:0.5;stroke-dasharray:5.0,5.0;" x1="619" x2="619" y1="141.8633" y2="537.3555"/><line style="stroke:#181818;stroke-width:0.5;stroke-dasharray:5.0,5.0;" x1="835" x2="835" y1="141.8633" y2="537.3555"/><line style="stroke:#181818;stroke-width:0.5;stroke-dasharray:5.0,5.0;" x1="1023" x2="1023" y1="141.8633" y2="537.3555"/><text fill="#000000" font-family="sans-serif" font-size="14" font-style="italic" lengthAdjust="spacing" textLength="61" x="20.5" y="119.7285">&#171;Human&#187;</text><text fill="#000000" font-family="sans-serif" font-size="14" lengthAdjust="spacing" textLength="92" x="5" y="138.3496">Fleet Manager</text><ellipse cx="54" cy="53.1211" fill="#E2E2F0" rx="8" ry="8" style="stroke:#181818;stroke-width:0.5;"/><path d="M54,61.1211 L54,88.1211 M41,69.1211 L67,69.1211 M54,88.1211 L41,103.1211 M54,88.1211 L67,103.1211 " fill="none" style="stroke:#181818;stroke-width:0.5;"/><text fill="#000000" font-family="sans-serif" font-size="14" font-style="italic" lengthAdjust="spacing" textLength="61" x="20.5" y="551.4629">&#171;Human&#187;</text><text fill="#000000" font-family="sans-serif" font-size="14" lengthAdjust="spacing" textLength="92" x="5" y="570.084">Fleet Manager</text><ellipse cx="54" cy="582.0977" fill="#E2E2F0" rx="8" ry="8" style="stroke:#181818;stroke-width:0.5;"/><path d="M54,590.0977 L54,617.0977 M41,598.0977 L67,598.0977 M54,617.0977 L41,632.0977 M54,617.0977 L67,632.0977 " fill="none" style="stroke:#181818;stroke-width:0.5;"/><rect fill="#E2E2F0" height="51.2422" rx="2.5" ry="2.5" style="stroke:#181818;stroke-width:0.5;" width="100" x="243" y="89.6211"/><text fill="#000000" font-family="sans-serif" font-size="14" font-style="italic" lengthAdjust="spacing" textLength="86" x="250" y="111.7285">&#171;component&#187;</text><text fill="#000000" font-family="sans-serif" font-size="14" lengthAdjust="spacing" textLength="29" x="278.5" y="130.3496">View</text><rect fill="#E2E2F0" height="51.2422" rx="2.5" ry="2.5" style="stroke:#181818;stroke-width:0.5;" width="100" x="243" y="536.3555"/><text fill="#000000" font-family="sans-serif" font-size="14" font-style="italic" lengthAdjust="spacing" textLength="86" x="250" y="558.4629">&#171;component&#187;</text><text fill="#000000" font-family="sans-serif" font-size="14" lengthAdjust="spacing" textLength="29" x="278.5" y="577.084">View</text><rect fill="#E2E2F0" height="51.2422" rx="2.5" ry="2.5" style="stroke:#181818;stroke-width:0.5;" width="100" x="569" y="89.6211"/><text fill="#000000" font-family="sans-serif" font-size="14" font-style="italic" lengthAdjust="spacing" textLength="86" x="576" y="111.7285">&#171;component&#187;</text><text fill="#000000" font-family="sans-serif" font-size="14" lengthAdjust="spacing" textLength="67" x="585.5" y="130.3496">ViewModel</text><rect fill="#E2E2F0" height="51.2422" rx="2.5" ry="2.5" style="stroke:#181818;stroke-width:0.5;" width="100" x="569" y="536.3555"/><text fill="#000000" font-family="sans-serif" font-size="14" font-style="italic" lengthAdjust="spacing" textLength="86" x="576" y="558.4629">&#171;component&#187;</text><text fill="#000000" font-family="sans-serif" font-size="14" lengthAdjust="spacing" textLength="67" x="585.5" y="577.084">ViewModel</text><rect fill="#E2E2F0" height="51.2422" rx="2.5" ry="2.5" style="stroke:#181818;stroke-width:0.5;" width="100" x="785" y="89.6211"/><text fill="#000000" font-family="sans-serif" font-size="14" font-style="italic" lengthAdjust="spacing" textLength="86" x="792" y="111.7285">&#171;component&#187;</text><text fill="#000000" font-family="sans-serif" font-size="14" lengthAdjust="spacing" textLength="47" x="811.5" y="130.3496">Service</text><rect fill="#E2E2F0" height="51.2422" rx="2.5" ry="2.5" style="stroke:#181818;stroke-width:0.5;" width="100" x="785" y="536.3555"/><text fill="#000000" font-family="sans-serif" font-size="14" font-style="italic" lengthAdjust="spacing" textLength="86" x="792" y="558.4629">&#171;component&#187;</text><text fill="#000000" font-family="sans-serif" font-size="14" lengthAdjust="spacing" textLength="47" x="811.5" y="577.084">Service</text><rect fill="#E2E2F0" height="51.2422" rx="2.5" ry="2.5" style="stroke:#181818;stroke-width:0.5;" width="100" x="973" y="89.6211"/><text fill="#000000" font-family="sans-serif" font-size="14" font-style="italic" lengthAdjust="spacing" textLength="86" x="980" y="111.7285">&#171;component&#187;</text><text fill="#000000" font-family="sans-serif" font-size="14" lengthAdjust="spacing" textLength="75" x="985.5" y="130.3496">HttpAdapter</text><rect fill="#E2E2F0" height="51.2422" rx="2.5" ry="2.5" style="stroke:#181818;stroke-width:0.5;" width="100" x="973" y="536.3555"/><text fill="#000000" font-family="sans-serif" font-size="14" font-style="italic" lengthAdjust="spacing" textLength="86" x="980" y="558.4629">&#171;component&#187;</text><text fill="#000000" font-family="sans-serif" font-size="14" lengthAdjust="spacing" textLength="75" x="985.5" y="577.084">HttpAdapter</text><rect fill="#FFFFFF" height="367.4922" style="stroke:#181818;stroke-width:1.0;" width="10" x="49" y="151.8633"/><rect fill="#FFFFFF" height="344.2012" style="stroke:#181818;stroke-width:1.0;" width="10" x="288" y="175.1543"/><rect fill="#FFFFFF" height="219.0371" style="stroke:#181818;stroke-width:1.0;" width="10" x="614" y="269.0273"/><rect fill="#FFFFFF" height="156.4551" style="stroke:#181818;stroke-width:1.0;" width="10" x="830" y="300.3184"/><rect fill="#FFFFFF" height="93.873" style="stroke:#181818;stroke-width:1.0;" width="10" x="1018" y="331.6094"/><polygon fill="#181818" points="276,171.1543,286,175.1543,276,179.1543,280,175.1543" style="stroke:#181818;stroke-width:1.0;"/><line style="stroke:#181818;stroke-width:1.0;" x1="59" x2="282" y1="175.1543" y2="175.1543"/><text fill="#000000" font-family="sans-serif" font-size="13" font-weight="bold" lengthAdjust="spacing" textLength="7" x="66" y="169.8916">1</text><text fill="#000000" font-family="sans-serif" font-size="13" lengthAdjust="spacing" textLength="165" x="77" y="169.8916">Navigate to createFloor page</text><polygon fill="#181818" points="70,202.4453,60,206.4453,70,210.4453,66,206.4453" style="stroke:#181818;stroke-width:1.0;"/><line style="stroke:#181818;stroke-width:1.0;stroke-dasharray:2.0,2.0;" x1="64" x2="287" y1="206.4453" y2="206.4453"/><text fill="#000000" font-family="sans-serif" font-size="13" font-weight="bold" lengthAdjust="spacing" textLength="7" x="76" y="201.1826">2</text><text fill="#000000" font-family="sans-serif" font-size="13" lengthAdjust="spacing" textLength="194" x="87" y="201.1826">Display form for robot type details</text><polygon fill="#181818" points="276,233.7363,286,237.7363,276,241.7363,280,237.7363" style="stroke:#181818;stroke-width:1.0;"/><line style="stroke:#181818;stroke-width:1.0;" x1="59" x2="282" y1="237.7363" y2="237.7363"/><text fill="#000000" font-family="sans-serif" font-size="13" font-weight="bold" lengthAdjust="spacing" textLength="7" x="66" y="232.4736">3</text><text fill="#000000" font-family="sans-serif" font-size="13" lengthAdjust="spacing" textLength="167" x="77" y="232.4736">Enters robot type information</text><polygon fill="#181818" points="602,265.0273,612,269.0273,602,273.0273,606,269.0273" style="stroke:#181818;stroke-width:1.0;"/><line style="stroke:#181818;stroke-width:1.0;" x1="298" x2="608" y1="269.0273" y2="269.0273"/><text fill="#000000" font-family="sans-serif" font-size="13" font-weight="bold" lengthAdjust="spacing" textLength="7" x="305" y="263.7646">4</text><text fill="#000000" font-family="sans-serif" font-size="13" lengthAdjust="spacing" textLength="286" x="316" y="263.7646">Trigger create robot type with provided information</text><polygon fill="#181818" points="818,296.3184,828,300.3184,818,304.3184,822,300.3184" style="stroke:#181818;stroke-width:1.0;"/><line style="stroke:#181818;stroke-width:1.0;" x1="624" x2="824" y1="300.3184" y2="300.3184"/><text fill="#000000" font-family="sans-serif" font-size="13" font-weight="bold" lengthAdjust="spacing" textLength="7" x="631" y="295.0557">5</text><text fill="#000000" font-family="sans-serif" font-size="13" lengthAdjust="spacing" textLength="176" x="642" y="295.0557">Request to create a robot type</text><polygon fill="#181818" points="1006,327.6094,1016,331.6094,1006,335.6094,1010,331.6094" style="stroke:#181818;stroke-width:1.0;"/><line style="stroke:#181818;stroke-width:1.0;" x1="840" x2="1012" y1="331.6094" y2="331.6094"/><text fill="#000000" font-family="sans-serif" font-size="13" font-weight="bold" lengthAdjust="spacing" textLength="7" x="847" y="326.3467">6</text><text fill="#000000" font-family="sans-serif" font-size="13" lengthAdjust="spacing" textLength="120" x="858" y="326.3467">Make HTTP Request</text><line style="stroke:#181818;stroke-width:1.0;" x1="1192" x2="1182" y1="362.9004" y2="358.9004"/><line style="stroke:#181818;stroke-width:1.0;" x1="1192" x2="1182" y1="362.9004" y2="366.9004"/><line style="stroke:#181818;stroke-width:1.0;" x1="1028" x2="1193" y1="362.9004" y2="362.9004"/><text fill="#000000" font-family="sans-serif" font-size="13" font-weight="bold" lengthAdjust="spacing" textLength="7" x="1035" y="357.6377">7</text><text fill="#000000" font-family="sans-serif" font-size="13" lengthAdjust="spacing" textLength="131" x="1046" y="357.6377">HTTP Request (POST)</text><line style="stroke:#181818;stroke-width:1.0;" x1="1029" x2="1039" y1="394.1914" y2="390.1914"/><line style="stroke:#181818;stroke-width:1.0;" x1="1029" x2="1039" y1="394.1914" y2="398.1914"/><line style="stroke:#181818;stroke-width:1.0;stroke-dasharray:2.0,2.0;" x1="1028" x2="1193" y1="394.1914" y2="394.1914"/><text fill="#000000" font-family="sans-serif" font-size="13" font-weight="bold" lengthAdjust="spacing" textLength="7" x="1045" y="388.9287">8</text><text fill="#000000" font-family="sans-serif" font-size="13" lengthAdjust="spacing" textLength="127" x="1056" y="388.9287">HTTP Response (201)</text><polygon fill="#181818" points="851,421.4824,841,425.4824,851,429.4824,847,425.4824" style="stroke:#181818;stroke-width:1.0;"/><line style="stroke:#181818;stroke-width:1.0;stroke-dasharray:2.0,2.0;" x1="845" x2="1022" y1="425.4824" y2="425.4824"/><text fill="#000000" font-family="sans-serif" font-size="13" font-weight="bold" lengthAdjust="spacing" textLength="7" x="857" y="420.2197">9</text><text fill="#000000" font-family="sans-serif" font-size="13" lengthAdjust="spacing" textLength="143" x="868" y="420.2197">Receive HTTP Response</text><line style="stroke:#181818;stroke-width:1.0;" x1="625" x2="635" y1="456.7734" y2="452.7734"/><line style="stroke:#181818;stroke-width:1.0;" x1="625" x2="635" y1="456.7734" y2="460.7734"/><line style="stroke:#181818;stroke-width:1.0;stroke-dasharray:2.0,2.0;" x1="624" x2="834" y1="456.7734" y2="456.7734"/><text fill="#000000" font-family="sans-serif" font-size="13" font-weight="bold" lengthAdjust="spacing" textLength="14" x="641" y="451.5107">10</text><text fill="#000000" font-family="sans-serif" font-size="13" lengthAdjust="spacing" textLength="155" x="659" y="451.5107">Receive success response</text><line style="stroke:#181818;stroke-width:1.0;" x1="299" x2="309" y1="488.0645" y2="484.0645"/><line style="stroke:#181818;stroke-width:1.0;" x1="299" x2="309" y1="488.0645" y2="492.0645"/><line style="stroke:#181818;stroke-width:1.0;stroke-dasharray:2.0,2.0;" x1="298" x2="618" y1="488.0645" y2="488.0645"/><text fill="#000000" font-family="sans-serif" font-size="13" font-weight="bold" lengthAdjust="spacing" textLength="14" x="315" y="482.8018">11</text><text fill="#000000" font-family="sans-serif" font-size="13" lengthAdjust="spacing" textLength="155" x="333" y="482.8018">Receive success response</text><polygon fill="#181818" points="65,515.3555,55,519.3555,65,523.3555,61,519.3555" style="stroke:#181818;stroke-width:1.0;"/><line style="stroke:#181818;stroke-width:1.0;stroke-dasharray:2.0,2.0;" x1="59" x2="292" y1="519.3555" y2="519.3555"/><text fill="#000000" font-family="sans-serif" font-size="13" font-weight="bold" lengthAdjust="spacing" textLength="14" x="71" y="514.0928">12</text><text fill="#000000" font-family="sans-serif" font-size="13" lengthAdjust="spacing" textLength="131" x="89" y="514.0928">Successfully response</text><!--SRC=[ZP91J-Cm48Nl_XMZdk0GQU4OeKYhNQ9U0eXMt0TdA5OJszYJeFvx9ccpSRfTj9V8TjxtFFF6sB6pNVjAGSMziHu3jk1Hxt576puq184qAyM6PVqh4381Gd2lZe4FdfH2pIx0gco862gqGeOLO8IoWhkxTTUYBGebpcoqyMWPLY-6FaT9BmiHQTTwPydo9M7bQch-gCVTTyY6GcyqZK0yhh-Jhvdzpnezduf-d_TdsD2ewOV-oqf9RrbnB3-71-pDRlZ13lGOKTauoSHB53CrYDL8P8AAGGw_JVGD7k3DXNRu9Bb2JOocYSkRxgtK5LEPiGECR9nL9_SY2Ig7RJ0xcSYfi1JzDFmEFhZUr5GlZHP5ZqvgzfGBfc1pUAQFZYBFhV_zEevE9qHDgBYaMUVoTFO4w-tsQVASsKIeKYWh2W5J1gwU7ZVRQxKSOvRDiYW3ZGHNjpzkbhBih2zDfgSbfMgwMDFSr51Hclva4pkjAShaBZXDoQGHJpx_QJ6FwUo5ROxGMzSqXt-IAZqegoy0]--></g></svg>