<?xml version="1.0" encoding="us-ascii" standalone="no"?><svg xmlns="http://www.w3.org/2000/svg" xmlns:xlink="http://www.w3.org/1999/xlink" contentStyleType="text/css" height="573px" preserveAspectRatio="none" style="width:1007px;height:573px;background:#FFFFFF;" version="1.1" viewBox="0 0 1007 573" width="1007px" zoomAndPan="magnify"><defs/><g><text fill="#000000" font-family="sans-serif" font-size="14" font-weight="bold" lengthAdjust="spacing" textLength="311" x="344.5" y="30.1074">List all floors with passageways of a building</text><rect fill="#FFFFFF" height="298.9102" style="stroke:#181818;stroke-width:1.0;" width="10" x="59" y="173.8242"/><rect fill="#FFFFFF" height="298.9102" style="stroke:#181818;stroke-width:1.0;" width="10" x="290" y="173.8242"/><rect fill="#FFFFFF" height="219.0371" style="stroke:#181818;stroke-width:1.0;" width="10" x="582" y="205.1152"/><rect fill="#FFFFFF" height="156.4551" style="stroke:#181818;stroke-width:1.0;" width="10" x="874" y="236.4063"/><line style="stroke:#181818;stroke-width:0.5;stroke-dasharray:5.0,5.0;" x1="64" x2="64" y1="123.2422" y2="490.7344"/><line style="stroke:#181818;stroke-width:0.5;stroke-dasharray:5.0,5.0;" x1="295" x2="295" y1="123.2422" y2="490.7344"/><line style="stroke:#181818;stroke-width:0.5;stroke-dasharray:5.0,5.0;" x1="587" x2="587" y1="123.2422" y2="490.7344"/><line style="stroke:#181818;stroke-width:0.5;stroke-dasharray:5.0,5.0;" x1="879" x2="879" y1="123.2422" y2="490.7344"/><text fill="#000000" font-family="sans-serif" font-size="14" lengthAdjust="spacing" textLength="112" x="5" y="119.7285">Campus Manager</text><ellipse cx="64" cy="53.1211" fill="#E2E2F0" rx="8" ry="8" style="stroke:#181818;stroke-width:0.5;"/><path d="M64,61.1211 L64,88.1211 M51,69.1211 L77,69.1211 M64,88.1211 L51,103.1211 M64,88.1211 L77,103.1211 " fill="none" style="stroke:#181818;stroke-width:0.5;"/><text fill="#000000" font-family="sans-serif" font-size="14" lengthAdjust="spacing" textLength="112" x="5" y="504.8418">Campus Manager</text><ellipse cx="64" cy="516.8555" fill="#E2E2F0" rx="8" ry="8" style="stroke:#181818;stroke-width:0.5;"/><path d="M64,524.8555 L64,551.8555 M51,532.8555 L77,532.8555 M64,551.8555 L51,566.8555 M64,551.8555 L77,566.8555 " fill="none" style="stroke:#181818;stroke-width:0.5;"/><rect fill="#E2E2F0" height="51.2422" rx="2.5" ry="2.5" style="stroke:#181818;stroke-width:0.5;" width="100" x="245" y="71"/><text fill="#000000" font-family="sans-serif" font-size="14" font-style="italic" lengthAdjust="spacing" textLength="86" x="252" y="93.1074">&#171;component&#187;</text><text fill="#000000" font-family="sans-serif" font-size="14" lengthAdjust="spacing" textLength="49" x="270.5" y="111.7285">Routing</text><rect fill="#E2E2F0" height="51.2422" rx="2.5" ry="2.5" style="stroke:#181818;stroke-width:0.5;" width="100" x="245" y="489.7344"/><text fill="#000000" font-family="sans-serif" font-size="14" font-style="italic" lengthAdjust="spacing" textLength="86" x="252" y="511.8418">&#171;component&#187;</text><text fill="#000000" font-family="sans-serif" font-size="14" lengthAdjust="spacing" textLength="49" x="270.5" y="530.4629">Routing</text><rect fill="#E2E2F0" height="51.2422" rx="2.5" ry="2.5" style="stroke:#181818;stroke-width:0.5;" width="100" x="537" y="71"/><text fill="#000000" font-family="sans-serif" font-size="14" font-style="italic" lengthAdjust="spacing" textLength="86" x="544" y="93.1074">&#171;component&#187;</text><text fill="#000000" font-family="sans-serif" font-size="14" lengthAdjust="spacing" textLength="73" x="550.5" y="111.7285">Component</text><rect fill="#E2E2F0" height="51.2422" rx="2.5" ry="2.5" style="stroke:#181818;stroke-width:0.5;" width="100" x="537" y="489.7344"/><text fill="#000000" font-family="sans-serif" font-size="14" font-style="italic" lengthAdjust="spacing" textLength="86" x="544" y="511.8418">&#171;component&#187;</text><text fill="#000000" font-family="sans-serif" font-size="14" lengthAdjust="spacing" textLength="73" x="550.5" y="530.4629">Component</text><rect fill="#E2E2F0" height="51.2422" rx="2.5" ry="2.5" style="stroke:#181818;stroke-width:0.5;" width="100" x="829" y="71"/><text fill="#000000" font-family="sans-serif" font-size="14" font-style="italic" lengthAdjust="spacing" textLength="86" x="836" y="93.1074">&#171;component&#187;</text><text fill="#000000" font-family="sans-serif" font-size="14" lengthAdjust="spacing" textLength="47" x="855.5" y="111.7285">Service</text><rect fill="#E2E2F0" height="51.2422" rx="2.5" ry="2.5" style="stroke:#181818;stroke-width:0.5;" width="100" x="829" y="489.7344"/><text fill="#000000" font-family="sans-serif" font-size="14" font-style="italic" lengthAdjust="spacing" textLength="86" x="836" y="511.8418">&#171;component&#187;</text><text fill="#000000" font-family="sans-serif" font-size="14" lengthAdjust="spacing" textLength="47" x="855.5" y="530.4629">Service</text><rect fill="#FFFFFF" height="298.9102" style="stroke:#181818;stroke-width:1.0;" width="10" x="59" y="173.8242"/><rect fill="#FFFFFF" height="298.9102" style="stroke:#181818;stroke-width:1.0;" width="10" x="290" y="173.8242"/><rect fill="#FFFFFF" height="219.0371" style="stroke:#181818;stroke-width:1.0;" width="10" x="582" y="205.1152"/><rect fill="#FFFFFF" height="156.4551" style="stroke:#181818;stroke-width:1.0;" width="10" x="874" y="236.4063"/><line style="stroke:#181818;stroke-width:1.0;" x1="288" x2="278" y1="173.8242" y2="169.8242"/><line style="stroke:#181818;stroke-width:1.0;" x1="288" x2="278" y1="173.8242" y2="177.8242"/><line style="stroke:#181818;stroke-width:1.0;" x1="69" x2="289" y1="173.8242" y2="173.8242"/><text fill="#000000" font-family="sans-serif" font-size="13" font-weight="bold" lengthAdjust="spacing" textLength="7" x="76" y="159.916">1</text><text fill="#000000" font-family="sans-serif" font-size="13" lengthAdjust="spacing" textLength="122" x="87" y="151.2705">wants to list all floors</text><text fill="#000000" font-family="sans-serif" font-size="13" lengthAdjust="spacing" textLength="179" x="87" y="168.5615">with passageways of a building</text><line style="stroke:#181818;stroke-width:1.0;" x1="580" x2="570" y1="205.1152" y2="201.1152"/><line style="stroke:#181818;stroke-width:1.0;" x1="580" x2="570" y1="205.1152" y2="209.1152"/><line style="stroke:#181818;stroke-width:1.0;" x1="300" x2="581" y1="205.1152" y2="205.1152"/><text fill="#000000" font-family="sans-serif" font-size="13" font-weight="bold" lengthAdjust="spacing" textLength="7" x="307" y="199.8525">2</text><text fill="#000000" font-family="sans-serif" font-size="13" lengthAdjust="spacing" textLength="252" x="318" y="199.8525">list all floors with passageways of a building</text><line style="stroke:#181818;stroke-width:1.0;" x1="872" x2="862" y1="236.4063" y2="232.4063"/><line style="stroke:#181818;stroke-width:1.0;" x1="872" x2="862" y1="236.4063" y2="240.4063"/><line style="stroke:#181818;stroke-width:1.0;" x1="592" x2="873" y1="236.4063" y2="236.4063"/><text fill="#000000" font-family="sans-serif" font-size="13" font-weight="bold" lengthAdjust="spacing" textLength="7" x="599" y="231.1436">3</text><text fill="#000000" font-family="sans-serif" font-size="13" lengthAdjust="spacing" textLength="252" x="610" y="231.1436">list all floors with passageways of a building</text><polygon fill="#181818" points="989,263.6973,999,267.6973,989,271.6973,993,267.6973" style="stroke:#181818;stroke-width:1.0;"/><line style="stroke:#181818;stroke-width:1.0;stroke-dasharray:2.0,2.0;" x1="884" x2="995" y1="267.6973" y2="267.6973"/><text fill="#000000" font-family="sans-serif" font-size="13" font-weight="bold" lengthAdjust="spacing" textLength="7" x="891" y="262.4346">4</text><text fill="#000000" font-family="sans-serif" font-size="13" lengthAdjust="spacing" textLength="72" x="902" y="262.4346">HttpRequest</text><line style="stroke:#181818;stroke-width:1.0;" x1="885" x2="895" y1="298.9883" y2="294.9883"/><line style="stroke:#181818;stroke-width:1.0;" x1="885" x2="895" y1="298.9883" y2="302.9883"/><line style="stroke:#181818;stroke-width:1.0;stroke-dasharray:2.0,2.0;" x1="884" x2="1000" y1="298.9883" y2="298.9883"/><text fill="#000000" font-family="sans-serif" font-size="13" font-weight="bold" lengthAdjust="spacing" textLength="7" x="901" y="293.7256">5</text><text fill="#000000" font-family="sans-serif" font-size="13" lengthAdjust="spacing" textLength="82" x="912" y="293.7256">HttpResponse</text><line style="stroke:#181818;stroke-width:1.0;" x1="593" x2="603" y1="330.2793" y2="326.2793"/><line style="stroke:#181818;stroke-width:1.0;" x1="593" x2="603" y1="330.2793" y2="334.2793"/><line style="stroke:#181818;stroke-width:1.0;stroke-dasharray:2.0,2.0;" x1="592" x2="873" y1="330.2793" y2="330.2793"/><text fill="#000000" font-family="sans-serif" font-size="13" font-weight="bold" lengthAdjust="spacing" textLength="7" x="609" y="325.0166">6</text><text fill="#000000" font-family="sans-serif" font-size="13" lengthAdjust="spacing" textLength="82" x="620" y="325.0166">HttpResponse</text><line style="stroke:#181818;stroke-width:1.0;" x1="872" x2="862" y1="361.5703" y2="357.5703"/><line style="stroke:#181818;stroke-width:1.0;" x1="872" x2="862" y1="361.5703" y2="365.5703"/><line style="stroke:#181818;stroke-width:1.0;" x1="592" x2="873" y1="361.5703" y2="361.5703"/><text fill="#000000" font-family="sans-serif" font-size="13" font-weight="bold" lengthAdjust="spacing" textLength="7" x="599" y="356.3076">7</text><text fill="#000000" font-family="sans-serif" font-size="13" lengthAdjust="spacing" textLength="118" x="610" y="356.3076">HttpResponse to list</text><line style="stroke:#181818;stroke-width:1.0;" x1="593" x2="603" y1="392.8613" y2="388.8613"/><line style="stroke:#181818;stroke-width:1.0;" x1="593" x2="603" y1="392.8613" y2="396.8613"/><line style="stroke:#181818;stroke-width:1.0;stroke-dasharray:2.0,2.0;" x1="592" x2="878" y1="392.8613" y2="392.8613"/><text fill="#000000" font-family="sans-serif" font-size="13" font-weight="bold" lengthAdjust="spacing" textLength="7" x="609" y="387.5986">8</text><text fill="#000000" font-family="sans-serif" font-size="13" lengthAdjust="spacing" textLength="21" x="620" y="387.5986">List</text><line style="stroke:#181818;stroke-width:1.0;" x1="301" x2="311" y1="424.1523" y2="420.1523"/><line style="stroke:#181818;stroke-width:1.0;" x1="301" x2="311" y1="424.1523" y2="428.1523"/><line style="stroke:#181818;stroke-width:1.0;stroke-dasharray:2.0,2.0;" x1="300" x2="586" y1="424.1523" y2="424.1523"/><text fill="#000000" font-family="sans-serif" font-size="13" font-weight="bold" lengthAdjust="spacing" textLength="7" x="317" y="418.8896">9</text><text fill="#000000" font-family="sans-serif" font-size="13" lengthAdjust="spacing" textLength="49" x="328" y="418.8896">success</text><line style="stroke:#181818;stroke-width:1.0;" x1="65" x2="75" y1="472.7344" y2="468.7344"/><line style="stroke:#181818;stroke-width:1.0;" x1="65" x2="75" y1="472.7344" y2="476.7344"/><line style="stroke:#181818;stroke-width:1.0;stroke-dasharray:2.0,2.0;" x1="64" x2="294" y1="472.7344" y2="472.7344"/><text fill="#000000" font-family="sans-serif" font-size="13" font-weight="bold" lengthAdjust="spacing" textLength="14" x="81" y="458.8262">10</text><text fill="#000000" font-family="sans-serif" font-size="13" lengthAdjust="spacing" textLength="83" x="99" y="450.1807">listed all floors</text><text fill="#000000" font-family="sans-serif" font-size="13" lengthAdjust="spacing" textLength="179" x="99" y="467.4717">with passageways of a building</text><!--SRC=[fLAxai8m3Epz5Hhw_02JIPFcYgE1zXfX1ESXiNEMJ8Q_Fzl44E3c7dETnhlQbRJ68Cw6VajUyT7O0JtsCA0-ue4sSku8F6bHIep4-jMm07OTx3ldFCDev3socIDxn3E3smF2DfXkP-n1ATJYF2nQx8V0i48RUNu1oD2kLFGIeys0Lc2nTa5YIyRyfOQwrguVd2KhJNDFRmkG6nBjE_Q6_Cbeobo-r0zqrQwgfhawBs6CZGpYe7jO-St-i7JSsPnGAAruhITXLGoIMPvw-MJmYvjUD5E_oY99hUpr3y59GXMfgcgYt8l8iAQFG2m5gUkgWYl4yOfCQWeX8hTHdWcpKU_XSkilTTA_KpjwcdJIl8-EWzR4FEVdKyMCi-oDcVnezwTqPw8bqzbJZFmJ]--></g></svg>