<?xml version="1.0" encoding="us-ascii" standalone="no"?><svg xmlns="http://www.w3.org/2000/svg" xmlns:xlink="http://www.w3.org/1999/xlink" contentStyleType="text/css" height="979px" preserveAspectRatio="none" style="width:1193px;height:979px;background:#FFFFFF;" version="1.1" viewBox="0 0 1193 979" width="1193px" zoomAndPan="magnify"><defs/><g><text fill="#000000" font-family="sans-serif" font-size="14" font-weight="bold" lengthAdjust="spacing" textLength="135" x="530.5" y="30.1074">Create a robot type</text><rect fill="#FFFFFF" height="700.7227" style="stroke:#181818;stroke-width:1.0;" width="10" x="115" y="161.1543"/><rect fill="#FFFFFF" height="638.1406" style="stroke:#181818;stroke-width:1.0;" width="10" x="264" y="192.4453"/><rect fill="#FFFFFF" height="575.5586" style="stroke:#181818;stroke-width:1.0;" width="10" x="413" y="223.7363"/><rect fill="#FFFFFF" height="93.873" style="stroke:#181818;stroke-width:1.0;" width="10" x="649" y="255.0273"/><rect fill="#FFFFFF" height="96.5332" style="stroke:#181818;stroke-width:1.0;" width="10" x="787" y="390.1914"/><rect fill="#FFFFFF" height="124.8242" style="stroke:#181818;stroke-width:1.0;" width="10" x="897" y="643.1797"/><rect fill="#FFFFFF" height="52.2422" style="stroke:#181818;stroke-width:1.0;" width="10" x="1035" y="684.4707"/><rect fill="#FFFFFF" height="31.291" style="stroke:#181818;stroke-width:1.0;" width="10" x="1141" y="286.3184"/><rect fill="#FFFFFF" height="31.291" style="stroke:#181818;stroke-width:1.0;" width="10" x="1141" y="549.3066"/><line style="stroke:#181818;stroke-width:0.5;stroke-dasharray:5.0,5.0;" x1="120" x2="120" y1="127.8633" y2="879.877"/><line style="stroke:#181818;stroke-width:0.5;stroke-dasharray:5.0,5.0;" x1="269" x2="269" y1="127.8633" y2="879.877"/><line style="stroke:#181818;stroke-width:0.5;stroke-dasharray:5.0,5.0;" x1="418" x2="418" y1="127.8633" y2="879.877"/><line style="stroke:#181818;stroke-width:0.5;stroke-dasharray:5.0,5.0;" x1="654" x2="654" y1="127.8633" y2="879.877"/><line style="stroke:#181818;stroke-width:0.5;stroke-dasharray:5.0,5.0;" x1="792" x2="792" y1="398.0215" y2="879.877"/><line style="stroke:#181818;stroke-width:0.5;stroke-dasharray:5.0,5.0;" x1="902" x2="902" y1="127.8633" y2="879.877"/><line style="stroke:#181818;stroke-width:0.5;stroke-dasharray:5.0,5.0;" x1="1040" x2="1040" y1="692.3008" y2="879.877"/><line style="stroke:#181818;stroke-width:0.5;stroke-dasharray:5.0,5.0;" x1="1146" x2="1146" y1="127.8633" y2="879.877"/><rect fill="#E2E2F0" height="51.2422" rx="2.5" ry="2.5" style="stroke:#181818;stroke-width:0.5;" width="100" x="70" y="75.6211"/><text fill="#000000" font-family="sans-serif" font-size="14" font-style="italic" lengthAdjust="spacing" textLength="86" x="77" y="97.7285">&#171;component&#187;</text><text fill="#000000" font-family="sans-serif" font-size="14" lengthAdjust="spacing" textLength="49" x="95.5" y="116.3496">Routing</text><rect fill="#E2E2F0" height="51.2422" rx="2.5" ry="2.5" style="stroke:#181818;stroke-width:0.5;" width="100" x="70" y="878.877"/><text fill="#000000" font-family="sans-serif" font-size="14" font-style="italic" lengthAdjust="spacing" textLength="86" x="77" y="900.9844">&#171;component&#187;</text><text fill="#000000" font-family="sans-serif" font-size="14" lengthAdjust="spacing" textLength="49" x="95.5" y="919.6055">Routing</text><rect fill="#E2E2F0" height="51.2422" rx="2.5" ry="2.5" style="stroke:#181818;stroke-width:0.5;" width="100" x="219" y="75.6211"/><text fill="#000000" font-family="sans-serif" font-size="14" font-style="italic" lengthAdjust="spacing" textLength="86" x="226" y="97.7285">&#171;component&#187;</text><text fill="#000000" font-family="sans-serif" font-size="14" lengthAdjust="spacing" textLength="62" x="238" y="116.3496">Controller</text><rect fill="#E2E2F0" height="51.2422" rx="2.5" ry="2.5" style="stroke:#181818;stroke-width:0.5;" width="100" x="219" y="878.877"/><text fill="#000000" font-family="sans-serif" font-size="14" font-style="italic" lengthAdjust="spacing" textLength="86" x="226" y="900.9844">&#171;component&#187;</text><text fill="#000000" font-family="sans-serif" font-size="14" lengthAdjust="spacing" textLength="62" x="238" y="919.6055">Controller</text><rect fill="#E2E2F0" height="51.2422" rx="2.5" ry="2.5" style="stroke:#181818;stroke-width:0.5;" width="100" x="368" y="75.6211"/><text fill="#000000" font-family="sans-serif" font-size="14" font-style="italic" lengthAdjust="spacing" textLength="86" x="375" y="97.7285">&#171;component&#187;</text><text fill="#000000" font-family="sans-serif" font-size="14" lengthAdjust="spacing" textLength="47" x="394.5" y="116.3496">Service</text><rect fill="#E2E2F0" height="51.2422" rx="2.5" ry="2.5" style="stroke:#181818;stroke-width:0.5;" width="100" x="368" y="878.877"/><text fill="#000000" font-family="sans-serif" font-size="14" font-style="italic" lengthAdjust="spacing" textLength="86" x="375" y="900.9844">&#171;component&#187;</text><text fill="#000000" font-family="sans-serif" font-size="14" lengthAdjust="spacing" textLength="47" x="394.5" y="919.6055">Service</text><rect fill="#E2E2F0" height="51.2422" rx="2.5" ry="2.5" style="stroke:#181818;stroke-width:0.5;" width="156" x="576" y="75.6211"/><text fill="#000000" font-family="sans-serif" font-size="14" font-style="italic" lengthAdjust="spacing" textLength="86" x="611" y="97.7285">&#171;component&#187;</text><text fill="#000000" font-family="sans-serif" font-size="14" lengthAdjust="spacing" textLength="142" x="583" y="116.3496">RobotType Repository</text><rect fill="#E2E2F0" height="51.2422" rx="2.5" ry="2.5" style="stroke:#181818;stroke-width:0.5;" width="156" x="576" y="878.877"/><text fill="#000000" font-family="sans-serif" font-size="14" font-style="italic" lengthAdjust="spacing" textLength="86" x="611" y="900.9844">&#171;component&#187;</text><text fill="#000000" font-family="sans-serif" font-size="14" lengthAdjust="spacing" textLength="142" x="583" y="919.6055">RobotType Repository</text><rect fill="#E2E2F0" height="51.2422" rx="2.5" ry="2.5" style="stroke:#181818;stroke-width:0.5;" width="100" x="742" y="878.877"/><text fill="#000000" font-family="sans-serif" font-size="14" font-style="italic" lengthAdjust="spacing" textLength="86" x="749" y="900.9844">&#171;component&#187;</text><text fill="#000000" font-family="sans-serif" font-size="14" lengthAdjust="spacing" textLength="70" x="757" y="919.6055">RobotType</text><rect fill="#E2E2F0" height="51.2422" rx="2.5" ry="2.5" style="stroke:#181818;stroke-width:0.5;" width="100" x="852" y="75.6211"/><text fill="#000000" font-family="sans-serif" font-size="14" font-style="italic" lengthAdjust="spacing" textLength="86" x="859" y="97.7285">&#171;component&#187;</text><text fill="#000000" font-family="sans-serif" font-size="14" lengthAdjust="spacing" textLength="27" x="888.5" y="116.3496">Map</text><rect fill="#E2E2F0" height="51.2422" rx="2.5" ry="2.5" style="stroke:#181818;stroke-width:0.5;" width="100" x="852" y="878.877"/><text fill="#000000" font-family="sans-serif" font-size="14" font-style="italic" lengthAdjust="spacing" textLength="86" x="859" y="900.9844">&#171;component&#187;</text><text fill="#000000" font-family="sans-serif" font-size="14" lengthAdjust="spacing" textLength="27" x="888.5" y="919.6055">Map</text><rect fill="#E2E2F0" height="51.2422" rx="2.5" ry="2.5" style="stroke:#181818;stroke-width:0.5;" width="100" x="990" y="878.877"/><text fill="#000000" font-family="sans-serif" font-size="14" font-style="italic" lengthAdjust="spacing" textLength="86" x="997" y="900.9844">&#171;component&#187;</text><text fill="#000000" font-family="sans-serif" font-size="14" lengthAdjust="spacing" textLength="30" x="1025" y="919.6055">DTO</text><text fill="#000000" font-family="sans-serif" font-size="14" font-style="italic" lengthAdjust="spacing" textLength="86" x="1100" y="105.7285">&#171;component&#187;</text><text fill="#000000" font-family="sans-serif" font-size="14" lengthAdjust="spacing" textLength="61" x="1112.5" y="124.3496">Database</text><path d="M1128,54.6211 C1128,44.6211 1146,44.6211 1146,44.6211 C1146,44.6211 1164,44.6211 1164,54.6211 L1164,80.6211 C1164,90.6211 1146,90.6211 1146,90.6211 C1146,90.6211 1128,90.6211 1128,80.6211 L1128,54.6211 " fill="#E2E2F0" style="stroke:#181818;stroke-width:1.5;"/><path d="M1128,54.6211 C1128,64.6211 1146,64.6211 1146,64.6211 C1146,64.6211 1164,64.6211 1164,54.6211 " fill="none" style="stroke:#181818;stroke-width:1.5;"/><text fill="#000000" font-family="sans-serif" font-size="14" font-style="italic" lengthAdjust="spacing" textLength="86" x="1100" y="893.9844">&#171;component&#187;</text><text fill="#000000" font-family="sans-serif" font-size="14" lengthAdjust="spacing" textLength="61" x="1112.5" y="912.6055">Database</text><path d="M1128,926.1191 C1128,916.1191 1146,916.1191 1146,916.1191 C1146,916.1191 1164,916.1191 1164,926.1191 L1164,952.1191 C1164,962.1191 1146,962.1191 1146,962.1191 C1146,962.1191 1128,962.1191 1128,952.1191 L1128,926.1191 " fill="#E2E2F0" style="stroke:#181818;stroke-width:1.5;"/><path d="M1128,926.1191 C1128,936.1191 1146,936.1191 1146,936.1191 C1146,936.1191 1164,936.1191 1164,926.1191 " fill="none" style="stroke:#181818;stroke-width:1.5;"/><rect fill="#FFFFFF" height="700.7227" style="stroke:#181818;stroke-width:1.0;" width="10" x="115" y="161.1543"/><rect fill="#FFFFFF" height="638.1406" style="stroke:#181818;stroke-width:1.0;" width="10" x="264" y="192.4453"/><rect fill="#FFFFFF" height="575.5586" style="stroke:#181818;stroke-width:1.0;" width="10" x="413" y="223.7363"/><rect fill="#FFFFFF" height="93.873" style="stroke:#181818;stroke-width:1.0;" width="10" x="649" y="255.0273"/><rect fill="#FFFFFF" height="96.5332" style="stroke:#181818;stroke-width:1.0;" width="10" x="787" y="390.1914"/><rect fill="#FFFFFF" height="124.8242" style="stroke:#181818;stroke-width:1.0;" width="10" x="897" y="643.1797"/><rect fill="#FFFFFF" height="52.2422" style="stroke:#181818;stroke-width:1.0;" width="10" x="1035" y="684.4707"/><rect fill="#FFFFFF" height="31.291" style="stroke:#181818;stroke-width:1.0;" width="10" x="1141" y="286.3184"/><rect fill="#FFFFFF" height="31.291" style="stroke:#181818;stroke-width:1.0;" width="10" x="1141" y="549.3066"/><ellipse cx="46.5" cy="160.4043" fill="none" rx="4" ry="4" style="stroke:#181818;stroke-width:1.5;"/><line style="stroke:#181818;stroke-width:1.0;" x1="113" x2="103" y1="161.1543" y2="157.1543"/><line style="stroke:#181818;stroke-width:1.0;" x1="113" x2="103" y1="161.1543" y2="165.1543"/><line style="stroke:#181818;stroke-width:1.0;" x1="51" x2="114" y1="161.1543" y2="161.1543"/><text fill="#000000" font-family="sans-serif" font-size="13" font-weight="bold" lengthAdjust="spacing" textLength="7" x="54" y="155.8916">1</text><text fill="#000000" font-family="sans-serif" font-size="13" lengthAdjust="spacing" textLength="35" x="65" y="155.8916">POST</text><line style="stroke:#181818;stroke-width:1.0;" x1="262" x2="252" y1="192.4453" y2="188.4453"/><line style="stroke:#181818;stroke-width:1.0;" x1="262" x2="252" y1="192.4453" y2="196.4453"/><line style="stroke:#181818;stroke-width:1.0;" x1="125" x2="263" y1="192.4453" y2="192.4453"/><text fill="#000000" font-family="sans-serif" font-size="13" font-weight="bold" lengthAdjust="spacing" textLength="7" x="132" y="187.1826">2</text><text fill="#000000" font-family="sans-serif" font-size="13" lengthAdjust="spacing" textLength="109" x="143" y="187.1826">create a robot type</text><line style="stroke:#181818;stroke-width:1.0;" x1="411" x2="401" y1="223.7363" y2="219.7363"/><line style="stroke:#181818;stroke-width:1.0;" x1="411" x2="401" y1="223.7363" y2="227.7363"/><line style="stroke:#181818;stroke-width:1.0;" x1="274" x2="412" y1="223.7363" y2="223.7363"/><text fill="#000000" font-family="sans-serif" font-size="13" font-weight="bold" lengthAdjust="spacing" textLength="7" x="281" y="218.4736">3</text><text fill="#000000" font-family="sans-serif" font-size="13" lengthAdjust="spacing" textLength="109" x="292" y="218.4736">create a robot type</text><line style="stroke:#181818;stroke-width:1.0;" x1="647" x2="637" y1="255.0273" y2="251.0273"/><line style="stroke:#181818;stroke-width:1.0;" x1="647" x2="637" y1="255.0273" y2="259.0273"/><line style="stroke:#181818;stroke-width:1.0;" x1="423" x2="648" y1="255.0273" y2="255.0273"/><text fill="#000000" font-family="sans-serif" font-size="13" font-weight="bold" lengthAdjust="spacing" textLength="7" x="430" y="249.7646">4</text><text fill="#000000" font-family="sans-serif" font-size="13" lengthAdjust="spacing" textLength="196" x="441" y="249.7646">verifies if robot type already exists</text><line style="stroke:#181818;stroke-width:1.0;" x1="1139" x2="1129" y1="286.3184" y2="282.3184"/><line style="stroke:#181818;stroke-width:1.0;" x1="1139" x2="1129" y1="286.3184" y2="290.3184"/><line style="stroke:#181818;stroke-width:1.0;" x1="659" x2="1140" y1="286.3184" y2="286.3184"/><text fill="#000000" font-family="sans-serif" font-size="13" font-weight="bold" lengthAdjust="spacing" textLength="7" x="666" y="281.0557">5</text><text fill="#000000" font-family="sans-serif" font-size="13" lengthAdjust="spacing" textLength="97" x="677" y="281.0557">select robot type</text><line style="stroke:#181818;stroke-width:1.0;" x1="660" x2="670" y1="317.6094" y2="313.6094"/><line style="stroke:#181818;stroke-width:1.0;" x1="660" x2="670" y1="317.6094" y2="321.6094"/><line style="stroke:#181818;stroke-width:1.0;stroke-dasharray:2.0,2.0;" x1="659" x2="1145" y1="317.6094" y2="317.6094"/><text fill="#000000" font-family="sans-serif" font-size="13" font-weight="bold" lengthAdjust="spacing" textLength="7" x="676" y="312.3467">6</text><text fill="#000000" font-family="sans-serif" font-size="13" lengthAdjust="spacing" textLength="58" x="687" y="312.3467">robot type</text><line style="stroke:#181818;stroke-width:1.0;" x1="424" x2="434" y1="348.9004" y2="344.9004"/><line style="stroke:#181818;stroke-width:1.0;" x1="424" x2="434" y1="348.9004" y2="352.9004"/><line style="stroke:#181818;stroke-width:1.0;stroke-dasharray:2.0,2.0;" x1="423" x2="653" y1="348.9004" y2="348.9004"/><text fill="#000000" font-family="sans-serif" font-size="13" font-weight="bold" lengthAdjust="spacing" textLength="7" x="440" y="343.6377">7</text><text fill="#000000" font-family="sans-serif" font-size="13" lengthAdjust="spacing" textLength="115" x="451" y="343.6377">robot type not found</text><line style="stroke:#181818;stroke-width:1.0;" x1="740" x2="730" y1="380.1914" y2="376.1914"/><line style="stroke:#181818;stroke-width:1.0;" x1="740" x2="730" y1="380.1914" y2="384.1914"/><line style="stroke:#181818;stroke-width:1.0;" x1="423" x2="741" y1="380.1914" y2="380.1914"/><text fill="#000000" font-family="sans-serif" font-size="13" font-weight="bold" lengthAdjust="spacing" textLength="7" x="430" y="374.9287">8</text><text fill="#000000" font-family="sans-serif" font-size="13" lengthAdjust="spacing" textLength="36" x="441" y="374.9287">create</text><rect fill="#E2E2F0" height="51.2422" rx="2.5" ry="2.5" style="stroke:#181818;stroke-width:0.5;" width="100" x="742" y="356.9004"/><text fill="#000000" font-family="sans-serif" font-size="14" font-style="italic" lengthAdjust="spacing" textLength="86" x="749" y="379.0078">&#171;component&#187;</text><text fill="#000000" font-family="sans-serif" font-size="14" lengthAdjust="spacing" textLength="70" x="757" y="397.6289">RobotType</text><line style="stroke:#181818;stroke-width:1.0;stroke-dasharray:2.0,2.0;" x1="797" x2="839" y1="442.4336" y2="442.4336"/><line style="stroke:#181818;stroke-width:1.0;stroke-dasharray:2.0,2.0;" x1="839" x2="839" y1="442.4336" y2="455.4336"/><line style="stroke:#181818;stroke-width:1.0;stroke-dasharray:2.0,2.0;" x1="798" x2="839" y1="455.4336" y2="455.4336"/><line style="stroke:#181818;stroke-width:1.0;" x1="798" x2="808" y1="455.4336" y2="451.4336"/><line style="stroke:#181818;stroke-width:1.0;" x1="798" x2="808" y1="455.4336" y2="459.4336"/><text fill="#000000" font-family="sans-serif" font-size="13" font-weight="bold" lengthAdjust="spacing" textLength="7" x="804" y="437.1709">9</text><text fill="#000000" font-family="sans-serif" font-size="13" lengthAdjust="spacing" textLength="39" x="815" y="437.1709">verifies</text><line style="stroke:#181818;stroke-width:1.0;" x1="424" x2="434" y1="486.7246" y2="482.7246"/><line style="stroke:#181818;stroke-width:1.0;" x1="424" x2="434" y1="486.7246" y2="490.7246"/><line style="stroke:#181818;stroke-width:1.0;stroke-dasharray:2.0,2.0;" x1="423" x2="791" y1="486.7246" y2="486.7246"/><text fill="#000000" font-family="sans-serif" font-size="13" font-weight="bold" lengthAdjust="spacing" textLength="14" x="440" y="481.4619">10</text><text fill="#000000" font-family="sans-serif" font-size="13" lengthAdjust="spacing" textLength="43" x="458" y="481.4619">created</text><line style="stroke:#181818;stroke-width:1.0;" x1="652" x2="642" y1="518.0156" y2="514.0156"/><line style="stroke:#181818;stroke-width:1.0;" x1="652" x2="642" y1="518.0156" y2="522.0156"/><line style="stroke:#181818;stroke-width:1.0;" x1="423" x2="653" y1="518.0156" y2="518.0156"/><text fill="#000000" font-family="sans-serif" font-size="13" font-weight="bold" lengthAdjust="spacing" textLength="14" x="430" y="512.7529">11</text><text fill="#000000" font-family="sans-serif" font-size="13" lengthAdjust="spacing" textLength="26" x="448" y="512.7529">save</text><line style="stroke:#181818;stroke-width:1.0;" x1="1139" x2="1129" y1="549.3066" y2="545.3066"/><line style="stroke:#181818;stroke-width:1.0;" x1="1139" x2="1129" y1="549.3066" y2="553.3066"/><line style="stroke:#181818;stroke-width:1.0;" x1="654" x2="1140" y1="549.3066" y2="549.3066"/><text fill="#000000" font-family="sans-serif" font-size="13" font-weight="bold" lengthAdjust="spacing" textLength="14" x="661" y="544.0439">12</text><text fill="#000000" font-family="sans-serif" font-size="13" lengthAdjust="spacing" textLength="93" x="679" y="544.0439">insert robotType</text><line style="stroke:#181818;stroke-width:1.0;" x1="655" x2="665" y1="580.5977" y2="576.5977"/><line style="stroke:#181818;stroke-width:1.0;" x1="655" x2="665" y1="580.5977" y2="584.5977"/><line style="stroke:#181818;stroke-width:1.0;stroke-dasharray:2.0,2.0;" x1="654" x2="1145" y1="580.5977" y2="580.5977"/><text fill="#000000" font-family="sans-serif" font-size="13" font-weight="bold" lengthAdjust="spacing" textLength="14" x="671" y="575.335">13</text><text fill="#000000" font-family="sans-serif" font-size="13" lengthAdjust="spacing" textLength="49" x="689" y="575.335">success</text><line style="stroke:#181818;stroke-width:1.0;" x1="424" x2="434" y1="611.8887" y2="607.8887"/><line style="stroke:#181818;stroke-width:1.0;" x1="424" x2="434" y1="611.8887" y2="615.8887"/><line style="stroke:#181818;stroke-width:1.0;stroke-dasharray:2.0,2.0;" x1="423" x2="653" y1="611.8887" y2="611.8887"/><text fill="#000000" font-family="sans-serif" font-size="13" font-weight="bold" lengthAdjust="spacing" textLength="14" x="440" y="606.626">14</text><text fill="#000000" font-family="sans-serif" font-size="13" lengthAdjust="spacing" textLength="49" x="458" y="606.626">success</text><line style="stroke:#181818;stroke-width:1.0;" x1="895" x2="885" y1="643.1797" y2="639.1797"/><line style="stroke:#181818;stroke-width:1.0;" x1="895" x2="885" y1="643.1797" y2="647.1797"/><line style="stroke:#181818;stroke-width:1.0;" x1="423" x2="896" y1="643.1797" y2="643.1797"/><text fill="#000000" font-family="sans-serif" font-size="13" font-weight="bold" lengthAdjust="spacing" textLength="14" x="430" y="637.917">15</text><text fill="#000000" font-family="sans-serif" font-size="13" lengthAdjust="spacing" textLength="86" x="448" y="637.917">convert to DTO</text><line style="stroke:#181818;stroke-width:1.0;" x1="988" x2="978" y1="674.4707" y2="670.4707"/><line style="stroke:#181818;stroke-width:1.0;" x1="988" x2="978" y1="674.4707" y2="678.4707"/><line style="stroke:#181818;stroke-width:1.0;stroke-dasharray:2.0,2.0;" x1="907" x2="989" y1="674.4707" y2="674.4707"/><text fill="#000000" font-family="sans-serif" font-size="13" font-weight="bold" lengthAdjust="spacing" textLength="14" x="914" y="669.208">16</text><text fill="#000000" font-family="sans-serif" font-size="13" lengthAdjust="spacing" textLength="41" x="932" y="669.208">convert</text><rect fill="#E2E2F0" height="51.2422" rx="2.5" ry="2.5" style="stroke:#181818;stroke-width:0.5;" width="100" x="990" y="651.1797"/><text fill="#000000" font-family="sans-serif" font-size="14" font-style="italic" lengthAdjust="spacing" textLength="86" x="997" y="673.2871">&#171;component&#187;</text><text fill="#000000" font-family="sans-serif" font-size="14" lengthAdjust="spacing" textLength="30" x="1025" y="691.9082">DTO</text><line style="stroke:#181818;stroke-width:1.0;" x1="908" x2="918" y1="736.7129" y2="732.7129"/><line style="stroke:#181818;stroke-width:1.0;" x1="908" x2="918" y1="736.7129" y2="740.7129"/><line style="stroke:#181818;stroke-width:1.0;stroke-dasharray:2.0,2.0;" x1="907" x2="1039" y1="736.7129" y2="736.7129"/><text fill="#000000" font-family="sans-serif" font-size="13" font-weight="bold" lengthAdjust="spacing" textLength="14" x="924" y="731.4502">17</text><text fill="#000000" font-family="sans-serif" font-size="13" lengthAdjust="spacing" textLength="18" x="942" y="731.4502">dto</text><line style="stroke:#181818;stroke-width:1.0;" x1="424" x2="434" y1="768.0039" y2="764.0039"/><line style="stroke:#181818;stroke-width:1.0;" x1="424" x2="434" y1="768.0039" y2="772.0039"/><line style="stroke:#181818;stroke-width:1.0;stroke-dasharray:2.0,2.0;" x1="423" x2="901" y1="768.0039" y2="768.0039"/><text fill="#000000" font-family="sans-serif" font-size="13" font-weight="bold" lengthAdjust="spacing" textLength="14" x="440" y="762.7412">18</text><text fill="#000000" font-family="sans-serif" font-size="13" lengthAdjust="spacing" textLength="18" x="458" y="762.7412">dto</text><line style="stroke:#181818;stroke-width:1.0;" x1="275" x2="285" y1="799.2949" y2="795.2949"/><line style="stroke:#181818;stroke-width:1.0;" x1="275" x2="285" y1="799.2949" y2="803.2949"/><line style="stroke:#181818;stroke-width:1.0;stroke-dasharray:2.0,2.0;" x1="274" x2="417" y1="799.2949" y2="799.2949"/><text fill="#000000" font-family="sans-serif" font-size="13" font-weight="bold" lengthAdjust="spacing" textLength="14" x="291" y="794.0322">19</text><text fill="#000000" font-family="sans-serif" font-size="13" lengthAdjust="spacing" textLength="49" x="309" y="794.0322">success</text><line style="stroke:#181818;stroke-width:1.0;" x1="126" x2="136" y1="830.5859" y2="826.5859"/><line style="stroke:#181818;stroke-width:1.0;" x1="126" x2="136" y1="830.5859" y2="834.5859"/><line style="stroke:#181818;stroke-width:1.0;stroke-dasharray:2.0,2.0;" x1="125" x2="268" y1="830.5859" y2="830.5859"/><text fill="#000000" font-family="sans-serif" font-size="13" font-weight="bold" lengthAdjust="spacing" textLength="14" x="142" y="825.3232">20</text><text fill="#000000" font-family="sans-serif" font-size="13" lengthAdjust="spacing" textLength="49" x="160" y="825.3232">success</text><line style="stroke:#181818;stroke-width:1.0;" x1="6.5" x2="16.5" y1="861.877" y2="857.877"/><line style="stroke:#181818;stroke-width:1.0;" x1="6.5" x2="16.5" y1="861.877" y2="865.877"/><line style="stroke:#181818;stroke-width:1.0;stroke-dasharray:2.0,2.0;" x1="0" x2="119" y1="861.877" y2="861.877"/><text fill="#000000" font-family="sans-serif" font-size="13" font-weight="bold" lengthAdjust="spacing" textLength="14" x="17" y="856.6143">21</text><text fill="#000000" font-family="sans-serif" font-size="13" lengthAdjust="spacing" textLength="70" x="35" y="856.6143">201 Created</text><!--SRC=[bLJ1RgCm4BtFLrWzLaBQtIEAieVskkegoGyOCuci4XlP0zhy_Ow1m40eRMy3Vk_vpRF7kY7lcck10UAxTRKE-gfgRTxr1Ozqgr05D0H0bhX-2QW9bLR15vuKtMe4O0vPOsljI3qTV4FMNPwKZWpgQhNR6N-jlKD7-_qS_k8T1LzL63g66J-tI4SChJNOCM9VRy4FoUk9hQe3rZvQyk4s-1iM0l__aiASjaNve-iEVDNr5kprzDR1IbeQA3NfGaTap53rm6A1Wzy-s-_7h7Frz-ru0ct8jkceXlzmNqzOaNAkpDgHZlG92eALHEx1VwOmuE2ExytAu7FLOh1dYr7Pin1HkcBbygRmduqKGJOb-31NI_eSKiuRLtnpfQcHNnR0a6pDYe2NA0dBRUOP2DUEYxDlN2a5vevXFOtdvp7DbLw5WuNrAS07pFAKrat1vkb4tU978Ll7J19ANyauDiPWZDyAU8Mpo5IsaAOkJvUtJUvujdZE9cky2f0WtHuyUdtmFLfqGAoQ1ZER9DC_QJj1HgN9xGBMRJZwUnZ1bTxkKpERklcShx34jFApiDjbcS3_-l5pUByNbw1_8Fu3]--></g></svg>