<?xml version="1.0" encoding="us-ascii" standalone="no"?><svg xmlns="http://www.w3.org/2000/svg" xmlns:xlink="http://www.w3.org/1999/xlink" contentStyleType="text/css" height="1121px" preserveAspectRatio="none" style="width:1228px;height:1121px;background:#FFFFFF;" version="1.1" viewBox="0 0 1228 1121" width="1228px" zoomAndPan="magnify"><defs/><g><text fill="#000000" font-family="sans-serif" font-size="14" font-weight="bold" lengthAdjust="spacing" textLength="128" x="551.75" y="30.1074">Edit a passageway</text><rect fill="#FFFFFF" height="843.1777" style="stroke:#181818;stroke-width:1.0;" width="10" x="103" y="161.1543"/><rect fill="#FFFFFF" height="780.5957" style="stroke:#181818;stroke-width:1.0;" width="10" x="240" y="192.4453"/><rect fill="#FFFFFF" height="718.0137" style="stroke:#181818;stroke-width:1.0;" width="10" x="377" y="223.7363"/><rect fill="#FFFFFF" height="93.873" style="stroke:#181818;stroke-width:1.0;" width="10" x="551" y="272.3184"/><rect fill="#FFFFFF" height="93.873" style="stroke:#181818;stroke-width:1.0;" width="10" x="703" y="397.4824"/><rect fill="#FFFFFF" height="96.5332" style="stroke:#181818;stroke-width:1.0;" width="10" x="822.5" y="532.6465"/><rect fill="#FFFFFF" height="124.8242" style="stroke:#181818;stroke-width:1.0;" width="10" x="932.5" y="785.6348"/><rect fill="#FFFFFF" height="52.2422" style="stroke:#181818;stroke-width:1.0;" width="10" x="1070.5" y="826.9258"/><rect fill="#FFFFFF" height="31.291" style="stroke:#181818;stroke-width:1.0;" width="10" x="1176.5" y="303.6094"/><rect fill="#FFFFFF" height="31.291" style="stroke:#181818;stroke-width:1.0;" width="10" x="1176.5" y="428.7734"/><rect fill="#FFFFFF" height="31.291" style="stroke:#181818;stroke-width:1.0;" width="10" x="1176.5" y="691.7617"/><line style="stroke:#181818;stroke-width:0.5;stroke-dasharray:5.0,5.0;" x1="108" x2="108" y1="127.8633" y2="1022.332"/><line style="stroke:#181818;stroke-width:0.5;stroke-dasharray:5.0,5.0;" x1="245" x2="245" y1="127.8633" y2="1022.332"/><line style="stroke:#181818;stroke-width:0.5;stroke-dasharray:5.0,5.0;" x1="382" x2="382" y1="127.8633" y2="1022.332"/><line style="stroke:#181818;stroke-width:0.5;stroke-dasharray:5.0,5.0;" x1="555.5" x2="555.5" y1="127.8633" y2="1022.332"/><line style="stroke:#181818;stroke-width:0.5;stroke-dasharray:5.0,5.0;" x1="707.5" x2="707.5" y1="127.8633" y2="1022.332"/><line style="stroke:#181818;stroke-width:0.5;stroke-dasharray:5.0,5.0;" x1="827.5" x2="827.5" y1="540.4766" y2="1022.332"/><line style="stroke:#181818;stroke-width:0.5;stroke-dasharray:5.0,5.0;" x1="937.5" x2="937.5" y1="127.8633" y2="1022.332"/><line style="stroke:#181818;stroke-width:0.5;stroke-dasharray:5.0,5.0;" x1="1075.5" x2="1075.5" y1="834.7559" y2="1022.332"/><line style="stroke:#181818;stroke-width:0.5;stroke-dasharray:5.0,5.0;" x1="1181.5" x2="1181.5" y1="127.8633" y2="1022.332"/><rect fill="#E2E2F0" height="51.2422" rx="2.5" ry="2.5" style="stroke:#181818;stroke-width:0.5;" width="100" x="58" y="75.6211"/><text fill="#000000" font-family="sans-serif" font-size="14" font-style="italic" lengthAdjust="spacing" textLength="86" x="65" y="97.7285">&#171;component&#187;</text><text fill="#000000" font-family="sans-serif" font-size="14" lengthAdjust="spacing" textLength="49" x="83.5" y="116.3496">Routing</text><rect fill="#E2E2F0" height="51.2422" rx="2.5" ry="2.5" style="stroke:#181818;stroke-width:0.5;" width="100" x="58" y="1021.332"/><text fill="#000000" font-family="sans-serif" font-size="14" font-style="italic" lengthAdjust="spacing" textLength="86" x="65" y="1043.4395">&#171;component&#187;</text><text fill="#000000" font-family="sans-serif" font-size="14" lengthAdjust="spacing" textLength="49" x="83.5" y="1062.0605">Routing</text><rect fill="#E2E2F0" height="51.2422" rx="2.5" ry="2.5" style="stroke:#181818;stroke-width:0.5;" width="100" x="195" y="75.6211"/><text fill="#000000" font-family="sans-serif" font-size="14" font-style="italic" lengthAdjust="spacing" textLength="86" x="202" y="97.7285">&#171;component&#187;</text><text fill="#000000" font-family="sans-serif" font-size="14" lengthAdjust="spacing" textLength="62" x="214" y="116.3496">Controller</text><rect fill="#E2E2F0" height="51.2422" rx="2.5" ry="2.5" style="stroke:#181818;stroke-width:0.5;" width="100" x="195" y="1021.332"/><text fill="#000000" font-family="sans-serif" font-size="14" font-style="italic" lengthAdjust="spacing" textLength="86" x="202" y="1043.4395">&#171;component&#187;</text><text fill="#000000" font-family="sans-serif" font-size="14" lengthAdjust="spacing" textLength="62" x="214" y="1062.0605">Controller</text><rect fill="#E2E2F0" height="51.2422" rx="2.5" ry="2.5" style="stroke:#181818;stroke-width:0.5;" width="100" x="332" y="75.6211"/><text fill="#000000" font-family="sans-serif" font-size="14" font-style="italic" lengthAdjust="spacing" textLength="86" x="339" y="97.7285">&#171;component&#187;</text><text fill="#000000" font-family="sans-serif" font-size="14" lengthAdjust="spacing" textLength="47" x="358.5" y="116.3496">Service</text><rect fill="#E2E2F0" height="51.2422" rx="2.5" ry="2.5" style="stroke:#181818;stroke-width:0.5;" width="100" x="332" y="1021.332"/><text fill="#000000" font-family="sans-serif" font-size="14" font-style="italic" lengthAdjust="spacing" textLength="86" x="339" y="1043.4395">&#171;component&#187;</text><text fill="#000000" font-family="sans-serif" font-size="14" lengthAdjust="spacing" textLength="47" x="358.5" y="1062.0605">Service</text><rect fill="#E2E2F0" height="51.2422" rx="2.5" ry="2.5" style="stroke:#181818;stroke-width:0.5;" width="165" x="473.5" y="75.6211"/><text fill="#000000" font-family="sans-serif" font-size="14" font-style="italic" lengthAdjust="spacing" textLength="86" x="513" y="97.7285">&#171;component&#187;</text><text fill="#000000" font-family="sans-serif" font-size="14" lengthAdjust="spacing" textLength="151" x="480.5" y="116.3496">Passageway Repository</text><rect fill="#E2E2F0" height="51.2422" rx="2.5" ry="2.5" style="stroke:#181818;stroke-width:0.5;" width="165" x="473.5" y="1021.332"/><text fill="#000000" font-family="sans-serif" font-size="14" font-style="italic" lengthAdjust="spacing" textLength="86" x="513" y="1043.4395">&#171;component&#187;</text><text fill="#000000" font-family="sans-serif" font-size="14" lengthAdjust="spacing" textLength="151" x="480.5" y="1062.0605">Passageway Repository</text><rect fill="#E2E2F0" height="51.2422" rx="2.5" ry="2.5" style="stroke:#181818;stroke-width:0.5;" width="119" x="648.5" y="75.6211"/><text fill="#000000" font-family="sans-serif" font-size="14" font-style="italic" lengthAdjust="spacing" textLength="86" x="665" y="97.7285">&#171;component&#187;</text><text fill="#000000" font-family="sans-serif" font-size="14" lengthAdjust="spacing" textLength="105" x="655.5" y="116.3496">Floor Repository</text><rect fill="#E2E2F0" height="51.2422" rx="2.5" ry="2.5" style="stroke:#181818;stroke-width:0.5;" width="119" x="648.5" y="1021.332"/><text fill="#000000" font-family="sans-serif" font-size="14" font-style="italic" lengthAdjust="spacing" textLength="86" x="665" y="1043.4395">&#171;component&#187;</text><text fill="#000000" font-family="sans-serif" font-size="14" lengthAdjust="spacing" textLength="105" x="655.5" y="1062.0605">Floor Repository</text><rect fill="#E2E2F0" height="51.2422" rx="2.5" ry="2.5" style="stroke:#181818;stroke-width:0.5;" width="100" x="777.5" y="1021.332"/><text fill="#000000" font-family="sans-serif" font-size="14" font-style="italic" lengthAdjust="spacing" textLength="86" x="784.5" y="1043.4395">&#171;component&#187;</text><text fill="#000000" font-family="sans-serif" font-size="14" lengthAdjust="spacing" textLength="79" x="788" y="1062.0605">Passageway</text><rect fill="#E2E2F0" height="51.2422" rx="2.5" ry="2.5" style="stroke:#181818;stroke-width:0.5;" width="100" x="887.5" y="75.6211"/><text fill="#000000" font-family="sans-serif" font-size="14" font-style="italic" lengthAdjust="spacing" textLength="86" x="894.5" y="97.7285">&#171;component&#187;</text><text fill="#000000" font-family="sans-serif" font-size="14" lengthAdjust="spacing" textLength="27" x="924" y="116.3496">Map</text><rect fill="#E2E2F0" height="51.2422" rx="2.5" ry="2.5" style="stroke:#181818;stroke-width:0.5;" width="100" x="887.5" y="1021.332"/><text fill="#000000" font-family="sans-serif" font-size="14" font-style="italic" lengthAdjust="spacing" textLength="86" x="894.5" y="1043.4395">&#171;component&#187;</text><text fill="#000000" font-family="sans-serif" font-size="14" lengthAdjust="spacing" textLength="27" x="924" y="1062.0605">Map</text><rect fill="#E2E2F0" height="51.2422" rx="2.5" ry="2.5" style="stroke:#181818;stroke-width:0.5;" width="100" x="1025.5" y="1021.332"/><text fill="#000000" font-family="sans-serif" font-size="14" font-style="italic" lengthAdjust="spacing" textLength="86" x="1032.5" y="1043.4395">&#171;component&#187;</text><text fill="#000000" font-family="sans-serif" font-size="14" lengthAdjust="spacing" textLength="30" x="1060.5" y="1062.0605">DTO</text><text fill="#000000" font-family="sans-serif" font-size="14" font-style="italic" lengthAdjust="spacing" textLength="86" x="1135.5" y="105.7285">&#171;component&#187;</text><text fill="#000000" font-family="sans-serif" font-size="14" lengthAdjust="spacing" textLength="61" x="1148" y="124.3496">Database</text><path d="M1163.5,54.6211 C1163.5,44.6211 1181.5,44.6211 1181.5,44.6211 C1181.5,44.6211 1199.5,44.6211 1199.5,54.6211 L1199.5,80.6211 C1199.5,90.6211 1181.5,90.6211 1181.5,90.6211 C1181.5,90.6211 1163.5,90.6211 1163.5,80.6211 L1163.5,54.6211 " fill="#E2E2F0" style="stroke:#181818;stroke-width:1.5;"/><path d="M1163.5,54.6211 C1163.5,64.6211 1181.5,64.6211 1181.5,64.6211 C1181.5,64.6211 1199.5,64.6211 1199.5,54.6211 " fill="none" style="stroke:#181818;stroke-width:1.5;"/><text fill="#000000" font-family="sans-serif" font-size="14" font-style="italic" lengthAdjust="spacing" textLength="86" x="1135.5" y="1036.4395">&#171;component&#187;</text><text fill="#000000" font-family="sans-serif" font-size="14" lengthAdjust="spacing" textLength="61" x="1148" y="1055.0605">Database</text><path d="M1163.5,1068.5742 C1163.5,1058.5742 1181.5,1058.5742 1181.5,1058.5742 C1181.5,1058.5742 1199.5,1058.5742 1199.5,1068.5742 L1199.5,1094.5742 C1199.5,1104.5742 1181.5,1104.5742 1181.5,1104.5742 C1181.5,1104.5742 1163.5,1104.5742 1163.5,1094.5742 L1163.5,1068.5742 " fill="#E2E2F0" style="stroke:#181818;stroke-width:1.5;"/><path d="M1163.5,1068.5742 C1163.5,1078.5742 1181.5,1078.5742 1181.5,1078.5742 C1181.5,1078.5742 1199.5,1078.5742 1199.5,1068.5742 " fill="none" style="stroke:#181818;stroke-width:1.5;"/><rect fill="#FFFFFF" height="843.1777" style="stroke:#181818;stroke-width:1.0;" width="10" x="103" y="161.1543"/><rect fill="#FFFFFF" height="780.5957" style="stroke:#181818;stroke-width:1.0;" width="10" x="240" y="192.4453"/><rect fill="#FFFFFF" height="718.0137" style="stroke:#181818;stroke-width:1.0;" width="10" x="377" y="223.7363"/><rect fill="#FFFFFF" height="93.873" style="stroke:#181818;stroke-width:1.0;" width="10" x="551" y="272.3184"/><rect fill="#FFFFFF" height="93.873" style="stroke:#181818;stroke-width:1.0;" width="10" x="703" y="397.4824"/><rect fill="#FFFFFF" height="96.5332" style="stroke:#181818;stroke-width:1.0;" width="10" x="822.5" y="532.6465"/><rect fill="#FFFFFF" height="124.8242" style="stroke:#181818;stroke-width:1.0;" width="10" x="932.5" y="785.6348"/><rect fill="#FFFFFF" height="52.2422" style="stroke:#181818;stroke-width:1.0;" width="10" x="1070.5" y="826.9258"/><rect fill="#FFFFFF" height="31.291" style="stroke:#181818;stroke-width:1.0;" width="10" x="1176.5" y="303.6094"/><rect fill="#FFFFFF" height="31.291" style="stroke:#181818;stroke-width:1.0;" width="10" x="1176.5" y="428.7734"/><rect fill="#FFFFFF" height="31.291" style="stroke:#181818;stroke-width:1.0;" width="10" x="1176.5" y="691.7617"/><ellipse cx="4.5" cy="160.4043" fill="none" rx="4" ry="4" style="stroke:#181818;stroke-width:1.5;"/><line style="stroke:#181818;stroke-width:1.0;" x1="101" x2="91" y1="161.1543" y2="157.1543"/><line style="stroke:#181818;stroke-width:1.0;" x1="101" x2="91" y1="161.1543" y2="165.1543"/><line style="stroke:#181818;stroke-width:1.0;" x1="9" x2="102" y1="161.1543" y2="161.1543"/><text fill="#000000" font-family="sans-serif" font-size="13" font-weight="bold" lengthAdjust="spacing" textLength="7" x="12" y="155.8916">1</text><text fill="#000000" font-family="sans-serif" font-size="13" lengthAdjust="spacing" textLength="65" x="23" y="155.8916">PATCH /:id</text><line style="stroke:#181818;stroke-width:1.0;" x1="238" x2="228" y1="192.4453" y2="188.4453"/><line style="stroke:#181818;stroke-width:1.0;" x1="238" x2="228" y1="192.4453" y2="196.4453"/><line style="stroke:#181818;stroke-width:1.0;" x1="113" x2="239" y1="192.4453" y2="192.4453"/><text fill="#000000" font-family="sans-serif" font-size="13" font-weight="bold" lengthAdjust="spacing" textLength="7" x="120" y="187.1826">2</text><text fill="#000000" font-family="sans-serif" font-size="13" lengthAdjust="spacing" textLength="97" x="131" y="187.1826">edit passageway</text><line style="stroke:#181818;stroke-width:1.0;" x1="375" x2="365" y1="223.7363" y2="219.7363"/><line style="stroke:#181818;stroke-width:1.0;" x1="375" x2="365" y1="223.7363" y2="227.7363"/><line style="stroke:#181818;stroke-width:1.0;" x1="250" x2="376" y1="223.7363" y2="223.7363"/><text fill="#000000" font-family="sans-serif" font-size="13" font-weight="bold" lengthAdjust="spacing" textLength="7" x="257" y="218.4736">3</text><text fill="#000000" font-family="sans-serif" font-size="13" lengthAdjust="spacing" textLength="97" x="268" y="218.4736">edit passageway</text><line style="stroke:#181818;stroke-width:1.0;" x1="549" x2="539" y1="272.3184" y2="268.3184"/><line style="stroke:#181818;stroke-width:1.0;" x1="549" x2="539" y1="272.3184" y2="276.3184"/><line style="stroke:#181818;stroke-width:1.0;" x1="387" x2="550" y1="272.3184" y2="272.3184"/><text fill="#000000" font-family="sans-serif" font-size="13" font-weight="bold" lengthAdjust="spacing" textLength="7" x="394" y="258.4102">4</text><text fill="#000000" font-family="sans-serif" font-size="13" lengthAdjust="spacing" textLength="125" x="405" y="249.7646">verifies if passageway</text><text fill="#000000" font-family="sans-serif" font-size="13" lengthAdjust="spacing" textLength="81" x="409" y="267.0557">already exists</text><line style="stroke:#181818;stroke-width:1.0;" x1="1174.5" x2="1164.5" y1="303.6094" y2="299.6094"/><line style="stroke:#181818;stroke-width:1.0;" x1="1174.5" x2="1164.5" y1="303.6094" y2="307.6094"/><line style="stroke:#181818;stroke-width:1.0;" x1="561" x2="1175.5" y1="303.6094" y2="303.6094"/><text fill="#000000" font-family="sans-serif" font-size="13" font-weight="bold" lengthAdjust="spacing" textLength="7" x="568" y="298.3467">5</text><text fill="#000000" font-family="sans-serif" font-size="13" lengthAdjust="spacing" textLength="111" x="579" y="298.3467">select passageway</text><line style="stroke:#181818;stroke-width:1.0;" x1="562" x2="572" y1="334.9004" y2="330.9004"/><line style="stroke:#181818;stroke-width:1.0;" x1="562" x2="572" y1="334.9004" y2="338.9004"/><line style="stroke:#181818;stroke-width:1.0;stroke-dasharray:2.0,2.0;" x1="561" x2="1180.5" y1="334.9004" y2="334.9004"/><text fill="#000000" font-family="sans-serif" font-size="13" font-weight="bold" lengthAdjust="spacing" textLength="7" x="578" y="329.6377">6</text><text fill="#000000" font-family="sans-serif" font-size="13" lengthAdjust="spacing" textLength="72" x="589" y="329.6377">passageway</text><line style="stroke:#181818;stroke-width:1.0;" x1="388" x2="398" y1="366.1914" y2="362.1914"/><line style="stroke:#181818;stroke-width:1.0;" x1="388" x2="398" y1="366.1914" y2="370.1914"/><line style="stroke:#181818;stroke-width:1.0;stroke-dasharray:2.0,2.0;" x1="387" x2="555" y1="366.1914" y2="366.1914"/><text fill="#000000" font-family="sans-serif" font-size="13" font-weight="bold" lengthAdjust="spacing" textLength="7" x="404" y="360.9287">7</text><text fill="#000000" font-family="sans-serif" font-size="13" lengthAdjust="spacing" textLength="129" x="415" y="360.9287">passageway not found</text><line style="stroke:#181818;stroke-width:1.0;" x1="701" x2="691" y1="397.4824" y2="393.4824"/><line style="stroke:#181818;stroke-width:1.0;" x1="701" x2="691" y1="397.4824" y2="401.4824"/><line style="stroke:#181818;stroke-width:1.0;" x1="387" x2="702" y1="397.4824" y2="397.4824"/><text fill="#000000" font-family="sans-serif" font-size="13" font-weight="bold" lengthAdjust="spacing" textLength="7" x="394" y="392.2197">8</text><text fill="#000000" font-family="sans-serif" font-size="13" lengthAdjust="spacing" textLength="123" x="405" y="392.2197">verifies if floors exists</text><line style="stroke:#181818;stroke-width:1.0;" x1="1174.5" x2="1164.5" y1="428.7734" y2="424.7734"/><line style="stroke:#181818;stroke-width:1.0;" x1="1174.5" x2="1164.5" y1="428.7734" y2="432.7734"/><line style="stroke:#181818;stroke-width:1.0;" x1="713" x2="1175.5" y1="428.7734" y2="428.7734"/><text fill="#000000" font-family="sans-serif" font-size="13" font-weight="bold" lengthAdjust="spacing" textLength="7" x="720" y="423.5107">9</text><text fill="#000000" font-family="sans-serif" font-size="13" lengthAdjust="spacing" textLength="70" x="731" y="423.5107">select floors</text><line style="stroke:#181818;stroke-width:1.0;" x1="714" x2="724" y1="460.0645" y2="456.0645"/><line style="stroke:#181818;stroke-width:1.0;" x1="714" x2="724" y1="460.0645" y2="464.0645"/><line style="stroke:#181818;stroke-width:1.0;stroke-dasharray:2.0,2.0;" x1="713" x2="1180.5" y1="460.0645" y2="460.0645"/><text fill="#000000" font-family="sans-serif" font-size="13" font-weight="bold" lengthAdjust="spacing" textLength="14" x="730" y="454.8018">10</text><text fill="#000000" font-family="sans-serif" font-size="13" lengthAdjust="spacing" textLength="31" x="748" y="454.8018">floors</text><line style="stroke:#181818;stroke-width:1.0;" x1="388" x2="398" y1="491.3555" y2="487.3555"/><line style="stroke:#181818;stroke-width:1.0;" x1="388" x2="398" y1="491.3555" y2="495.3555"/><line style="stroke:#181818;stroke-width:1.0;stroke-dasharray:2.0,2.0;" x1="387" x2="707" y1="491.3555" y2="491.3555"/><text fill="#000000" font-family="sans-serif" font-size="13" font-weight="bold" lengthAdjust="spacing" textLength="14" x="404" y="486.0928">11</text><text fill="#000000" font-family="sans-serif" font-size="13" lengthAdjust="spacing" textLength="66" x="422" y="486.0928">floors found</text><line style="stroke:#181818;stroke-width:1.0;" x1="775.5" x2="765.5" y1="522.6465" y2="518.6465"/><line style="stroke:#181818;stroke-width:1.0;" x1="775.5" x2="765.5" y1="522.6465" y2="526.6465"/><line style="stroke:#181818;stroke-width:1.0;" x1="387" x2="776.5" y1="522.6465" y2="522.6465"/><text fill="#000000" font-family="sans-serif" font-size="13" font-weight="bold" lengthAdjust="spacing" textLength="14" x="394" y="517.3838">12</text><text fill="#000000" font-family="sans-serif" font-size="13" lengthAdjust="spacing" textLength="21" x="412" y="517.3838">edit</text><rect fill="#E2E2F0" height="51.2422" rx="2.5" ry="2.5" style="stroke:#181818;stroke-width:0.5;" width="100" x="777.5" y="499.3555"/><text fill="#000000" font-family="sans-serif" font-size="14" font-style="italic" lengthAdjust="spacing" textLength="86" x="784.5" y="521.4629">&#171;component&#187;</text><text fill="#000000" font-family="sans-serif" font-size="14" lengthAdjust="spacing" textLength="79" x="788" y="540.084">Passageway</text><line style="stroke:#181818;stroke-width:1.0;stroke-dasharray:2.0,2.0;" x1="832.5" x2="874.5" y1="584.8887" y2="584.8887"/><line style="stroke:#181818;stroke-width:1.0;stroke-dasharray:2.0,2.0;" x1="874.5" x2="874.5" y1="584.8887" y2="597.8887"/><line style="stroke:#181818;stroke-width:1.0;stroke-dasharray:2.0,2.0;" x1="833.5" x2="874.5" y1="597.8887" y2="597.8887"/><line style="stroke:#181818;stroke-width:1.0;" x1="833.5" x2="843.5" y1="597.8887" y2="593.8887"/><line style="stroke:#181818;stroke-width:1.0;" x1="833.5" x2="843.5" y1="597.8887" y2="601.8887"/><text fill="#000000" font-family="sans-serif" font-size="13" font-weight="bold" lengthAdjust="spacing" textLength="14" x="839.5" y="579.626">13</text><text fill="#000000" font-family="sans-serif" font-size="13" lengthAdjust="spacing" textLength="39" x="857.5" y="579.626">verifies</text><line style="stroke:#181818;stroke-width:1.0;" x1="388" x2="398" y1="629.1797" y2="625.1797"/><line style="stroke:#181818;stroke-width:1.0;" x1="388" x2="398" y1="629.1797" y2="633.1797"/><line style="stroke:#181818;stroke-width:1.0;stroke-dasharray:2.0,2.0;" x1="387" x2="826.5" y1="629.1797" y2="629.1797"/><text fill="#000000" font-family="sans-serif" font-size="13" font-weight="bold" lengthAdjust="spacing" textLength="14" x="404" y="623.917">14</text><text fill="#000000" font-family="sans-serif" font-size="13" lengthAdjust="spacing" textLength="35" x="422" y="623.917">edited</text><line style="stroke:#181818;stroke-width:1.0;" x1="554" x2="544" y1="660.4707" y2="656.4707"/><line style="stroke:#181818;stroke-width:1.0;" x1="554" x2="544" y1="660.4707" y2="664.4707"/><line style="stroke:#181818;stroke-width:1.0;" x1="387" x2="555" y1="660.4707" y2="660.4707"/><text fill="#000000" font-family="sans-serif" font-size="13" font-weight="bold" lengthAdjust="spacing" textLength="14" x="394" y="655.208">15</text><text fill="#000000" font-family="sans-serif" font-size="13" lengthAdjust="spacing" textLength="26" x="412" y="655.208">save</text><line style="stroke:#181818;stroke-width:1.0;" x1="1174.5" x2="1164.5" y1="691.7617" y2="687.7617"/><line style="stroke:#181818;stroke-width:1.0;" x1="1174.5" x2="1164.5" y1="691.7617" y2="695.7617"/><line style="stroke:#181818;stroke-width:1.0;" x1="556" x2="1175.5" y1="691.7617" y2="691.7617"/><text fill="#000000" font-family="sans-serif" font-size="13" font-weight="bold" lengthAdjust="spacing" textLength="14" x="563" y="686.499">16</text><text fill="#000000" font-family="sans-serif" font-size="13" lengthAdjust="spacing" textLength="108" x="581" y="686.499">insert passageway</text><line style="stroke:#181818;stroke-width:1.0;" x1="557" x2="567" y1="723.0527" y2="719.0527"/><line style="stroke:#181818;stroke-width:1.0;" x1="557" x2="567" y1="723.0527" y2="727.0527"/><line style="stroke:#181818;stroke-width:1.0;stroke-dasharray:2.0,2.0;" x1="556" x2="1180.5" y1="723.0527" y2="723.0527"/><text fill="#000000" font-family="sans-serif" font-size="13" font-weight="bold" lengthAdjust="spacing" textLength="14" x="573" y="717.79">17</text><text fill="#000000" font-family="sans-serif" font-size="13" lengthAdjust="spacing" textLength="49" x="591" y="717.79">success</text><line style="stroke:#181818;stroke-width:1.0;" x1="388" x2="398" y1="754.3438" y2="750.3438"/><line style="stroke:#181818;stroke-width:1.0;" x1="388" x2="398" y1="754.3438" y2="758.3438"/><line style="stroke:#181818;stroke-width:1.0;stroke-dasharray:2.0,2.0;" x1="387" x2="555" y1="754.3438" y2="754.3438"/><text fill="#000000" font-family="sans-serif" font-size="13" font-weight="bold" lengthAdjust="spacing" textLength="14" x="404" y="749.0811">18</text><text fill="#000000" font-family="sans-serif" font-size="13" lengthAdjust="spacing" textLength="49" x="422" y="749.0811">success</text><line style="stroke:#181818;stroke-width:1.0;" x1="930.5" x2="920.5" y1="785.6348" y2="781.6348"/><line style="stroke:#181818;stroke-width:1.0;" x1="930.5" x2="920.5" y1="785.6348" y2="789.6348"/><line style="stroke:#181818;stroke-width:1.0;" x1="387" x2="931.5" y1="785.6348" y2="785.6348"/><text fill="#000000" font-family="sans-serif" font-size="13" font-weight="bold" lengthAdjust="spacing" textLength="14" x="394" y="780.3721">19</text><text fill="#000000" font-family="sans-serif" font-size="13" lengthAdjust="spacing" textLength="86" x="412" y="780.3721">convert to DTO</text><line style="stroke:#181818;stroke-width:1.0;" x1="1023.5" x2="1013.5" y1="816.9258" y2="812.9258"/><line style="stroke:#181818;stroke-width:1.0;" x1="1023.5" x2="1013.5" y1="816.9258" y2="820.9258"/><line style="stroke:#181818;stroke-width:1.0;stroke-dasharray:2.0,2.0;" x1="942.5" x2="1024.5" y1="816.9258" y2="816.9258"/><text fill="#000000" font-family="sans-serif" font-size="13" font-weight="bold" lengthAdjust="spacing" textLength="14" x="949.5" y="811.6631">20</text><text fill="#000000" font-family="sans-serif" font-size="13" lengthAdjust="spacing" textLength="41" x="967.5" y="811.6631">convert</text><rect fill="#E2E2F0" height="51.2422" rx="2.5" ry="2.5" style="stroke:#181818;stroke-width:0.5;" width="100" x="1025.5" y="793.6348"/><text fill="#000000" font-family="sans-serif" font-size="14" font-style="italic" lengthAdjust="spacing" textLength="86" x="1032.5" y="815.7422">&#171;component&#187;</text><text fill="#000000" font-family="sans-serif" font-size="14" lengthAdjust="spacing" textLength="30" x="1060.5" y="834.3633">DTO</text><line style="stroke:#181818;stroke-width:1.0;" x1="943.5" x2="953.5" y1="879.168" y2="875.168"/><line style="stroke:#181818;stroke-width:1.0;" x1="943.5" x2="953.5" y1="879.168" y2="883.168"/><line style="stroke:#181818;stroke-width:1.0;stroke-dasharray:2.0,2.0;" x1="942.5" x2="1074.5" y1="879.168" y2="879.168"/><text fill="#000000" font-family="sans-serif" font-size="13" font-weight="bold" lengthAdjust="spacing" textLength="14" x="959.5" y="873.9053">21</text><text fill="#000000" font-family="sans-serif" font-size="13" lengthAdjust="spacing" textLength="18" x="977.5" y="873.9053">dto</text><line style="stroke:#181818;stroke-width:1.0;" x1="388" x2="398" y1="910.459" y2="906.459"/><line style="stroke:#181818;stroke-width:1.0;" x1="388" x2="398" y1="910.459" y2="914.459"/><line style="stroke:#181818;stroke-width:1.0;stroke-dasharray:2.0,2.0;" x1="387" x2="936.5" y1="910.459" y2="910.459"/><text fill="#000000" font-family="sans-serif" font-size="13" font-weight="bold" lengthAdjust="spacing" textLength="14" x="404" y="905.1963">22</text><text fill="#000000" font-family="sans-serif" font-size="13" lengthAdjust="spacing" textLength="18" x="422" y="905.1963">dto</text><line style="stroke:#181818;stroke-width:1.0;" x1="251" x2="261" y1="941.75" y2="937.75"/><line style="stroke:#181818;stroke-width:1.0;" x1="251" x2="261" y1="941.75" y2="945.75"/><line style="stroke:#181818;stroke-width:1.0;stroke-dasharray:2.0,2.0;" x1="250" x2="381" y1="941.75" y2="941.75"/><text fill="#000000" font-family="sans-serif" font-size="13" font-weight="bold" lengthAdjust="spacing" textLength="14" x="267" y="936.4873">23</text><text fill="#000000" font-family="sans-serif" font-size="13" lengthAdjust="spacing" textLength="49" x="285" y="936.4873">success</text><line style="stroke:#181818;stroke-width:1.0;" x1="114" x2="124" y1="973.041" y2="969.041"/><line style="stroke:#181818;stroke-width:1.0;" x1="114" x2="124" y1="973.041" y2="977.041"/><line style="stroke:#181818;stroke-width:1.0;stroke-dasharray:2.0,2.0;" x1="113" x2="244" y1="973.041" y2="973.041"/><text fill="#000000" font-family="sans-serif" font-size="13" font-weight="bold" lengthAdjust="spacing" textLength="14" x="130" y="967.7783">24</text><text fill="#000000" font-family="sans-serif" font-size="13" lengthAdjust="spacing" textLength="49" x="148" y="967.7783">success</text><ellipse cx="13.5" cy="1003.582" fill="none" rx="4" ry="4" style="stroke:#181818;stroke-width:1.5;"/><line style="stroke:#181818;stroke-width:1.0;" x1="20.5" x2="30.5" y1="1004.332" y2="1000.332"/><line style="stroke:#181818;stroke-width:1.0;" x1="20.5" x2="30.5" y1="1004.332" y2="1008.332"/><line style="stroke:#181818;stroke-width:1.0;stroke-dasharray:2.0,2.0;" x1="14" x2="107" y1="1004.332" y2="1004.332"/><text fill="#000000" font-family="sans-serif" font-size="13" font-weight="bold" lengthAdjust="spacing" textLength="14" x="31" y="999.0693">25</text><text fill="#000000" font-family="sans-serif" font-size="13" lengthAdjust="spacing" textLength="44" x="49" y="999.0693">200 OK</text><!--SRC=[bLHDQzmm4BthLuWS0oQXHxDiAVcWK4f2acCli_Pi4F5AHXgxtNzVIMlhQxqEkSdIUpDlFlnW82M7mmurCnz2zg3Xm7jeFk0TN-dO8TVO46Cao9uVMa4SxBinzlql71cp31ADw44IltfH0mdvViN1S7qwyyscKOTUIPIqtURmEoL9gwv3xHbD-5mZlQ8UHOEUOKxdDVXpqCfVi5T6aD97JuvLQFkm5kEnKqgNzBsx_8mPinSfrqY_eVVe0_HhiFkt9mzhgPJG0i4E35hCT3e1TmMEVLVLTXicLVFd7sztF_bDBLe63OaH2ETNDgCS8vbKpT4jHReIWHfXB66u0FFWrjWJXirOnojcLlCHjTWBD5piq-x-aHmwZT0UEVuJXamIDu_1Yf0kYsrKRTDtTlDJQI52ksCMKYqAIl0jfeopH7aV4l5I4T-hGRPfX49rrfMuYdb3_BsPEn121JYBnBBi4tMnv3JR12igJSBcHKw2pegBYYvC-_fwMfMbCQQjBQSI6tAEofSGBxIRhI-WWH4lxf2Gbllr7J93qw0nNrkW1TBQpZXpgTqVEZg5raAidKHrzfKn1_59hCFu0Kpef0YoKPt_L36akqk5EqY85EKMC9ymw3lpc8NYPdl8h2MtimLMOadM_JQRgahmtsvl-TEl53wRtty0]--></g></svg>