<?xml version="1.0" encoding="us-ascii" standalone="no"?><svg xmlns="http://www.w3.org/2000/svg" xmlns:xlink="http://www.w3.org/1999/xlink" contentStyleType="text/css" height="539px" preserveAspectRatio="none" style="width:908px;height:539px;background:#FFFFFF;" version="1.1" viewBox="0 0 908 539" width="908px" zoomAndPan="magnify"><defs/><g><text fill="#000000" font-family="sans-serif" font-size="14" font-weight="bold" lengthAdjust="spacing" textLength="263" x="319" y="30.1074">List buildings with min and max floors</text><rect fill="#FFFFFF" height="313.9102" style="stroke:#181818;stroke-width:1.0;" width="10" x="59" y="133.2422"/><rect fill="#FFFFFF" height="281.6191" style="stroke:#181818;stroke-width:1.0;" width="10" x="269" y="156.5332"/><rect fill="#FFFFFF" height="219.0371" style="stroke:#181818;stroke-width:1.0;" width="10" x="522" y="187.8242"/><rect fill="#FFFFFF" height="156.4551" style="stroke:#181818;stroke-width:1.0;" width="10" x="775" y="219.1152"/><line style="stroke:#181818;stroke-width:0.5;stroke-dasharray:5.0,5.0;" x1="64" x2="64" y1="123.2422" y2="456.1523"/><line style="stroke:#181818;stroke-width:0.5;stroke-dasharray:5.0,5.0;" x1="274" x2="274" y1="123.2422" y2="456.1523"/><line style="stroke:#181818;stroke-width:0.5;stroke-dasharray:5.0,5.0;" x1="527" x2="527" y1="123.2422" y2="456.1523"/><line style="stroke:#181818;stroke-width:0.5;stroke-dasharray:5.0,5.0;" x1="780" x2="780" y1="123.2422" y2="456.1523"/><text fill="#000000" font-family="sans-serif" font-size="14" lengthAdjust="spacing" textLength="112" x="5" y="119.7285">Campus Manager</text><ellipse cx="64" cy="53.1211" fill="#E2E2F0" rx="8" ry="8" style="stroke:#181818;stroke-width:0.5;"/><path d="M64,61.1211 L64,88.1211 M51,69.1211 L77,69.1211 M64,88.1211 L51,103.1211 M64,88.1211 L77,103.1211 " fill="none" style="stroke:#181818;stroke-width:0.5;"/><text fill="#000000" font-family="sans-serif" font-size="14" lengthAdjust="spacing" textLength="112" x="5" y="470.2598">Campus Manager</text><ellipse cx="64" cy="482.2734" fill="#E2E2F0" rx="8" ry="8" style="stroke:#181818;stroke-width:0.5;"/><path d="M64,490.2734 L64,517.2734 M51,498.2734 L77,498.2734 M64,517.2734 L51,532.2734 M64,517.2734 L77,532.2734 " fill="none" style="stroke:#181818;stroke-width:0.5;"/><rect fill="#E2E2F0" height="51.2422" rx="2.5" ry="2.5" style="stroke:#181818;stroke-width:0.5;" width="100" x="224" y="71"/><text fill="#000000" font-family="sans-serif" font-size="14" font-style="italic" lengthAdjust="spacing" textLength="86" x="231" y="93.1074">&#171;component&#187;</text><text fill="#000000" font-family="sans-serif" font-size="14" lengthAdjust="spacing" textLength="49" x="249.5" y="111.7285">Routing</text><rect fill="#E2E2F0" height="51.2422" rx="2.5" ry="2.5" style="stroke:#181818;stroke-width:0.5;" width="100" x="224" y="455.1523"/><text fill="#000000" font-family="sans-serif" font-size="14" font-style="italic" lengthAdjust="spacing" textLength="86" x="231" y="477.2598">&#171;component&#187;</text><text fill="#000000" font-family="sans-serif" font-size="14" lengthAdjust="spacing" textLength="49" x="249.5" y="495.8809">Routing</text><rect fill="#E2E2F0" height="51.2422" rx="2.5" ry="2.5" style="stroke:#181818;stroke-width:0.5;" width="100" x="477" y="71"/><text fill="#000000" font-family="sans-serif" font-size="14" font-style="italic" lengthAdjust="spacing" textLength="86" x="484" y="93.1074">&#171;component&#187;</text><text fill="#000000" font-family="sans-serif" font-size="14" lengthAdjust="spacing" textLength="73" x="490.5" y="111.7285">Component</text><rect fill="#E2E2F0" height="51.2422" rx="2.5" ry="2.5" style="stroke:#181818;stroke-width:0.5;" width="100" x="477" y="455.1523"/><text fill="#000000" font-family="sans-serif" font-size="14" font-style="italic" lengthAdjust="spacing" textLength="86" x="484" y="477.2598">&#171;component&#187;</text><text fill="#000000" font-family="sans-serif" font-size="14" lengthAdjust="spacing" textLength="73" x="490.5" y="495.8809">Component</text><rect fill="#E2E2F0" height="51.2422" rx="2.5" ry="2.5" style="stroke:#181818;stroke-width:0.5;" width="100" x="730" y="71"/><text fill="#000000" font-family="sans-serif" font-size="14" font-style="italic" lengthAdjust="spacing" textLength="86" x="737" y="93.1074">&#171;component&#187;</text><text fill="#000000" font-family="sans-serif" font-size="14" lengthAdjust="spacing" textLength="47" x="756.5" y="111.7285">Service</text><rect fill="#E2E2F0" height="51.2422" rx="2.5" ry="2.5" style="stroke:#181818;stroke-width:0.5;" width="100" x="730" y="455.1523"/><text fill="#000000" font-family="sans-serif" font-size="14" font-style="italic" lengthAdjust="spacing" textLength="86" x="737" y="477.2598">&#171;component&#187;</text><text fill="#000000" font-family="sans-serif" font-size="14" lengthAdjust="spacing" textLength="47" x="756.5" y="495.8809">Service</text><rect fill="#FFFFFF" height="313.9102" style="stroke:#181818;stroke-width:1.0;" width="10" x="59" y="133.2422"/><rect fill="#FFFFFF" height="281.6191" style="stroke:#181818;stroke-width:1.0;" width="10" x="269" y="156.5332"/><rect fill="#FFFFFF" height="219.0371" style="stroke:#181818;stroke-width:1.0;" width="10" x="522" y="187.8242"/><rect fill="#FFFFFF" height="156.4551" style="stroke:#181818;stroke-width:1.0;" width="10" x="775" y="219.1152"/><line style="stroke:#181818;stroke-width:1.0;" x1="267" x2="257" y1="156.5332" y2="152.5332"/><line style="stroke:#181818;stroke-width:1.0;" x1="267" x2="257" y1="156.5332" y2="160.5332"/><line style="stroke:#181818;stroke-width:1.0;" x1="69" x2="268" y1="156.5332" y2="156.5332"/><text fill="#000000" font-family="sans-serif" font-size="13" font-weight="bold" lengthAdjust="spacing" textLength="7" x="76" y="151.2705">1</text><text fill="#000000" font-family="sans-serif" font-size="13" lengthAdjust="spacing" textLength="170" x="87" y="151.2705">Navigate to listBuildings page</text><line style="stroke:#181818;stroke-width:1.0;" x1="520" x2="510" y1="187.8242" y2="183.8242"/><line style="stroke:#181818;stroke-width:1.0;" x1="520" x2="510" y1="187.8242" y2="191.8242"/><line style="stroke:#181818;stroke-width:1.0;" x1="279" x2="521" y1="187.8242" y2="187.8242"/><text fill="#000000" font-family="sans-serif" font-size="13" font-weight="bold" lengthAdjust="spacing" textLength="7" x="286" y="182.5615">2</text><text fill="#000000" font-family="sans-serif" font-size="13" lengthAdjust="spacing" textLength="213" x="297" y="182.5615">list buildings with min and max floors</text><line style="stroke:#181818;stroke-width:1.0;" x1="773" x2="763" y1="219.1152" y2="215.1152"/><line style="stroke:#181818;stroke-width:1.0;" x1="773" x2="763" y1="219.1152" y2="223.1152"/><line style="stroke:#181818;stroke-width:1.0;" x1="532" x2="774" y1="219.1152" y2="219.1152"/><text fill="#000000" font-family="sans-serif" font-size="13" font-weight="bold" lengthAdjust="spacing" textLength="7" x="539" y="213.8525">3</text><text fill="#000000" font-family="sans-serif" font-size="13" lengthAdjust="spacing" textLength="213" x="550" y="213.8525">list buildings with min and max floors</text><polygon fill="#181818" points="890,246.4063,900,250.4063,890,254.4063,894,250.4063" style="stroke:#181818;stroke-width:1.0;"/><line style="stroke:#181818;stroke-width:1.0;stroke-dasharray:2.0,2.0;" x1="785" x2="896" y1="250.4063" y2="250.4063"/><text fill="#000000" font-family="sans-serif" font-size="13" font-weight="bold" lengthAdjust="spacing" textLength="7" x="792" y="245.1436">4</text><text fill="#000000" font-family="sans-serif" font-size="13" lengthAdjust="spacing" textLength="72" x="803" y="245.1436">HttpRequest</text><line style="stroke:#181818;stroke-width:1.0;" x1="786" x2="796" y1="281.6973" y2="277.6973"/><line style="stroke:#181818;stroke-width:1.0;" x1="786" x2="796" y1="281.6973" y2="285.6973"/><line style="stroke:#181818;stroke-width:1.0;stroke-dasharray:2.0,2.0;" x1="785" x2="901" y1="281.6973" y2="281.6973"/><text fill="#000000" font-family="sans-serif" font-size="13" font-weight="bold" lengthAdjust="spacing" textLength="7" x="802" y="276.4346">5</text><text fill="#000000" font-family="sans-serif" font-size="13" lengthAdjust="spacing" textLength="82" x="813" y="276.4346">HttpResponse</text><line style="stroke:#181818;stroke-width:1.0;" x1="533" x2="543" y1="312.9883" y2="308.9883"/><line style="stroke:#181818;stroke-width:1.0;" x1="533" x2="543" y1="312.9883" y2="316.9883"/><line style="stroke:#181818;stroke-width:1.0;stroke-dasharray:2.0,2.0;" x1="532" x2="774" y1="312.9883" y2="312.9883"/><text fill="#000000" font-family="sans-serif" font-size="13" font-weight="bold" lengthAdjust="spacing" textLength="7" x="549" y="307.7256">6</text><text fill="#000000" font-family="sans-serif" font-size="13" lengthAdjust="spacing" textLength="82" x="560" y="307.7256">HttpResponse</text><line style="stroke:#181818;stroke-width:1.0;" x1="773" x2="763" y1="344.2793" y2="340.2793"/><line style="stroke:#181818;stroke-width:1.0;" x1="773" x2="763" y1="344.2793" y2="348.2793"/><line style="stroke:#181818;stroke-width:1.0;" x1="532" x2="774" y1="344.2793" y2="344.2793"/><text fill="#000000" font-family="sans-serif" font-size="13" font-weight="bold" lengthAdjust="spacing" textLength="7" x="539" y="339.0166">7</text><text fill="#000000" font-family="sans-serif" font-size="13" lengthAdjust="spacing" textLength="118" x="550" y="339.0166">HttpResponse to list</text><line style="stroke:#181818;stroke-width:1.0;" x1="533" x2="543" y1="375.5703" y2="371.5703"/><line style="stroke:#181818;stroke-width:1.0;" x1="533" x2="543" y1="375.5703" y2="379.5703"/><line style="stroke:#181818;stroke-width:1.0;stroke-dasharray:2.0,2.0;" x1="532" x2="779" y1="375.5703" y2="375.5703"/><text fill="#000000" font-family="sans-serif" font-size="13" font-weight="bold" lengthAdjust="spacing" textLength="7" x="549" y="370.3076">8</text><text fill="#000000" font-family="sans-serif" font-size="13" lengthAdjust="spacing" textLength="21" x="560" y="370.3076">List</text><line style="stroke:#181818;stroke-width:1.0;" x1="280" x2="290" y1="406.8613" y2="402.8613"/><line style="stroke:#181818;stroke-width:1.0;" x1="280" x2="290" y1="406.8613" y2="410.8613"/><line style="stroke:#181818;stroke-width:1.0;stroke-dasharray:2.0,2.0;" x1="279" x2="526" y1="406.8613" y2="406.8613"/><text fill="#000000" font-family="sans-serif" font-size="13" font-weight="bold" lengthAdjust="spacing" textLength="7" x="296" y="401.5986">9</text><text fill="#000000" font-family="sans-serif" font-size="13" lengthAdjust="spacing" textLength="49" x="307" y="401.5986">success</text><line style="stroke:#181818;stroke-width:1.0;" x1="70" x2="80" y1="438.1523" y2="434.1523"/><line style="stroke:#181818;stroke-width:1.0;" x1="70" x2="80" y1="438.1523" y2="442.1523"/><line style="stroke:#181818;stroke-width:1.0;stroke-dasharray:2.0,2.0;" x1="69" x2="273" y1="438.1523" y2="438.1523"/><text fill="#000000" font-family="sans-serif" font-size="13" font-weight="bold" lengthAdjust="spacing" textLength="14" x="86" y="432.8896">10</text><text fill="#000000" font-family="sans-serif" font-size="13" lengthAdjust="spacing" textLength="131" x="104" y="432.8896">Successfully response</text><!--SRC=[dL8xRiCm3Drr2YAxBn0O7kgbGzCXEG6ZCAaGMr95AcrkNqcsyccAekX6u7tq-2YCucmSjnGK7utr6704Z_g81zh8UI08f4KfCPBc5yC2ssY6dR47XWyZRp0Q2sXtCE8dx0Vd0Yk5Mbo0HO-ZZmmhjCajB00P-fLARuZHngCLMAnTbEHLi33DqBRQZTvPij9rz_I-0aMGQR-nDnHEHbFXyZH_e-UaveH2ELY_Qhhkac89htWoXuo9Wo5j_dHPtATzhj9PeQeokvHeooBxOs6JLzQf8iukDVG_Z6QfgXPDqoMRPn6_flT8B1LfswQ12yIf6YOrDvkGQuH7mat4UxWszgDF_aHgHmz9Py_x6t3KcfXl-QMYTAnYUsLk9kO-3iCvVTevvuskdkaB]--></g></svg>