<?xml version="1.0" encoding="us-ascii" standalone="no"?><svg xmlns="http://www.w3.org/2000/svg" xmlns:xlink="http://www.w3.org/1999/xlink" contentStyleType="text/css" height="1121px" preserveAspectRatio="none" style="width:1139px;height:1121px;background:#FFFFFF;" version="1.1" viewBox="0 0 1139 1121" width="1139px" zoomAndPan="magnify"><defs/><g><text fill="#000000" font-family="sans-serif" font-size="14" font-weight="bold" lengthAdjust="spacing" textLength="187" x="477.75" y="30.1074">Create a floor of a building</text><rect fill="#FFFFFF" height="843.1777" style="stroke:#181818;stroke-width:1.0;" width="10" x="115" y="161.1543"/><rect fill="#FFFFFF" height="780.5957" style="stroke:#181818;stroke-width:1.0;" width="10" x="225" y="192.4453"/><rect fill="#FFFFFF" height="718.0137" style="stroke:#181818;stroke-width:1.0;" width="10" x="335" y="223.7363"/><rect fill="#FFFFFF" height="93.873" style="stroke:#181818;stroke-width:1.0;" width="10" x="468" y="397.4824"/><rect fill="#FFFFFF" height="93.873" style="stroke:#181818;stroke-width:1.0;" width="10" x="605.5" y="255.0273"/><rect fill="#FFFFFF" height="96.5332" style="stroke:#181818;stroke-width:1.0;" width="10" x="733.5" y="532.6465"/><rect fill="#FFFFFF" height="124.8242" style="stroke:#181818;stroke-width:1.0;" width="10" x="843.5" y="785.6348"/><rect fill="#FFFFFF" height="52.2422" style="stroke:#181818;stroke-width:1.0;" width="10" x="981.5" y="826.9258"/><rect fill="#FFFFFF" height="31.291" style="stroke:#181818;stroke-width:1.0;" width="10" x="1087.5" y="286.3184"/><rect fill="#FFFFFF" height="31.291" style="stroke:#181818;stroke-width:1.0;" width="10" x="1087.5" y="428.7734"/><rect fill="#FFFFFF" height="31.291" style="stroke:#181818;stroke-width:1.0;" width="10" x="1087.5" y="691.7617"/><line style="stroke:#181818;stroke-width:0.5;stroke-dasharray:5.0,5.0;" x1="120" x2="120" y1="127.8633" y2="1022.332"/><line style="stroke:#181818;stroke-width:0.5;stroke-dasharray:5.0,5.0;" x1="230" x2="230" y1="127.8633" y2="1022.332"/><line style="stroke:#181818;stroke-width:0.5;stroke-dasharray:5.0,5.0;" x1="340" x2="340" y1="127.8633" y2="1022.332"/><line style="stroke:#181818;stroke-width:0.5;stroke-dasharray:5.0,5.0;" x1="472.5" x2="472.5" y1="127.8633" y2="1022.332"/><line style="stroke:#181818;stroke-width:0.5;stroke-dasharray:5.0,5.0;" x1="610.5" x2="610.5" y1="127.8633" y2="1022.332"/><line style="stroke:#181818;stroke-width:0.5;stroke-dasharray:5.0,5.0;" x1="738.5" x2="738.5" y1="540.4766" y2="1022.332"/><line style="stroke:#181818;stroke-width:0.5;stroke-dasharray:5.0,5.0;" x1="848.5" x2="848.5" y1="127.8633" y2="1022.332"/><line style="stroke:#181818;stroke-width:0.5;stroke-dasharray:5.0,5.0;" x1="986.5" x2="986.5" y1="834.7559" y2="1022.332"/><line style="stroke:#181818;stroke-width:0.5;stroke-dasharray:5.0,5.0;" x1="1092.5" x2="1092.5" y1="127.8633" y2="1022.332"/><rect fill="#E2E2F0" height="51.2422" rx="2.5" ry="2.5" style="stroke:#181818;stroke-width:0.5;" width="100" x="70" y="75.6211"/><text fill="#000000" font-family="sans-serif" font-size="14" font-style="italic" lengthAdjust="spacing" textLength="86" x="77" y="97.7285">&#171;component&#187;</text><text fill="#000000" font-family="sans-serif" font-size="14" lengthAdjust="spacing" textLength="49" x="95.5" y="116.3496">Routing</text><rect fill="#E2E2F0" height="51.2422" rx="2.5" ry="2.5" style="stroke:#181818;stroke-width:0.5;" width="100" x="70" y="1021.332"/><text fill="#000000" font-family="sans-serif" font-size="14" font-style="italic" lengthAdjust="spacing" textLength="86" x="77" y="1043.4395">&#171;component&#187;</text><text fill="#000000" font-family="sans-serif" font-size="14" lengthAdjust="spacing" textLength="49" x="95.5" y="1062.0605">Routing</text><rect fill="#E2E2F0" height="51.2422" rx="2.5" ry="2.5" style="stroke:#181818;stroke-width:0.5;" width="100" x="180" y="75.6211"/><text fill="#000000" font-family="sans-serif" font-size="14" font-style="italic" lengthAdjust="spacing" textLength="86" x="187" y="97.7285">&#171;component&#187;</text><text fill="#000000" font-family="sans-serif" font-size="14" lengthAdjust="spacing" textLength="62" x="199" y="116.3496">Controller</text><rect fill="#E2E2F0" height="51.2422" rx="2.5" ry="2.5" style="stroke:#181818;stroke-width:0.5;" width="100" x="180" y="1021.332"/><text fill="#000000" font-family="sans-serif" font-size="14" font-style="italic" lengthAdjust="spacing" textLength="86" x="187" y="1043.4395">&#171;component&#187;</text><text fill="#000000" font-family="sans-serif" font-size="14" lengthAdjust="spacing" textLength="62" x="199" y="1062.0605">Controller</text><rect fill="#E2E2F0" height="51.2422" rx="2.5" ry="2.5" style="stroke:#181818;stroke-width:0.5;" width="100" x="290" y="75.6211"/><text fill="#000000" font-family="sans-serif" font-size="14" font-style="italic" lengthAdjust="spacing" textLength="86" x="297" y="97.7285">&#171;component&#187;</text><text fill="#000000" font-family="sans-serif" font-size="14" lengthAdjust="spacing" textLength="47" x="316.5" y="116.3496">Service</text><rect fill="#E2E2F0" height="51.2422" rx="2.5" ry="2.5" style="stroke:#181818;stroke-width:0.5;" width="100" x="290" y="1021.332"/><text fill="#000000" font-family="sans-serif" font-size="14" font-style="italic" lengthAdjust="spacing" textLength="86" x="297" y="1043.4395">&#171;component&#187;</text><text fill="#000000" font-family="sans-serif" font-size="14" lengthAdjust="spacing" textLength="47" x="316.5" y="1062.0605">Service</text><rect fill="#E2E2F0" height="51.2422" rx="2.5" ry="2.5" style="stroke:#181818;stroke-width:0.5;" width="119" x="413.5" y="75.6211"/><text fill="#000000" font-family="sans-serif" font-size="14" font-style="italic" lengthAdjust="spacing" textLength="86" x="430" y="97.7285">&#171;component&#187;</text><text fill="#000000" font-family="sans-serif" font-size="14" lengthAdjust="spacing" textLength="105" x="420.5" y="116.3496">Floor Repository</text><rect fill="#E2E2F0" height="51.2422" rx="2.5" ry="2.5" style="stroke:#181818;stroke-width:0.5;" width="119" x="413.5" y="1021.332"/><text fill="#000000" font-family="sans-serif" font-size="14" font-style="italic" lengthAdjust="spacing" textLength="86" x="430" y="1043.4395">&#171;component&#187;</text><text fill="#000000" font-family="sans-serif" font-size="14" lengthAdjust="spacing" textLength="105" x="420.5" y="1062.0605">Floor Repository</text><rect fill="#E2E2F0" height="51.2422" rx="2.5" ry="2.5" style="stroke:#181818;stroke-width:0.5;" width="136" x="542.5" y="75.6211"/><text fill="#000000" font-family="sans-serif" font-size="14" font-style="italic" lengthAdjust="spacing" textLength="86" x="567.5" y="97.7285">&#171;component&#187;</text><text fill="#000000" font-family="sans-serif" font-size="14" lengthAdjust="spacing" textLength="122" x="549.5" y="116.3496">Building Repository</text><rect fill="#E2E2F0" height="51.2422" rx="2.5" ry="2.5" style="stroke:#181818;stroke-width:0.5;" width="136" x="542.5" y="1021.332"/><text fill="#000000" font-family="sans-serif" font-size="14" font-style="italic" lengthAdjust="spacing" textLength="86" x="567.5" y="1043.4395">&#171;component&#187;</text><text fill="#000000" font-family="sans-serif" font-size="14" lengthAdjust="spacing" textLength="122" x="549.5" y="1062.0605">Building Repository</text><rect fill="#E2E2F0" height="51.2422" rx="2.5" ry="2.5" style="stroke:#181818;stroke-width:0.5;" width="100" x="688.5" y="1021.332"/><text fill="#000000" font-family="sans-serif" font-size="14" font-style="italic" lengthAdjust="spacing" textLength="86" x="695.5" y="1043.4395">&#171;component&#187;</text><text fill="#000000" font-family="sans-serif" font-size="14" lengthAdjust="spacing" textLength="33" x="722" y="1062.0605">Floor</text><rect fill="#E2E2F0" height="51.2422" rx="2.5" ry="2.5" style="stroke:#181818;stroke-width:0.5;" width="100" x="798.5" y="75.6211"/><text fill="#000000" font-family="sans-serif" font-size="14" font-style="italic" lengthAdjust="spacing" textLength="86" x="805.5" y="97.7285">&#171;component&#187;</text><text fill="#000000" font-family="sans-serif" font-size="14" lengthAdjust="spacing" textLength="27" x="835" y="116.3496">Map</text><rect fill="#E2E2F0" height="51.2422" rx="2.5" ry="2.5" style="stroke:#181818;stroke-width:0.5;" width="100" x="798.5" y="1021.332"/><text fill="#000000" font-family="sans-serif" font-size="14" font-style="italic" lengthAdjust="spacing" textLength="86" x="805.5" y="1043.4395">&#171;component&#187;</text><text fill="#000000" font-family="sans-serif" font-size="14" lengthAdjust="spacing" textLength="27" x="835" y="1062.0605">Map</text><rect fill="#E2E2F0" height="51.2422" rx="2.5" ry="2.5" style="stroke:#181818;stroke-width:0.5;" width="100" x="936.5" y="1021.332"/><text fill="#000000" font-family="sans-serif" font-size="14" font-style="italic" lengthAdjust="spacing" textLength="86" x="943.5" y="1043.4395">&#171;component&#187;</text><text fill="#000000" font-family="sans-serif" font-size="14" lengthAdjust="spacing" textLength="30" x="971.5" y="1062.0605">DTO</text><text fill="#000000" font-family="sans-serif" font-size="14" font-style="italic" lengthAdjust="spacing" textLength="86" x="1046.5" y="105.7285">&#171;component&#187;</text><text fill="#000000" font-family="sans-serif" font-size="14" lengthAdjust="spacing" textLength="61" x="1059" y="124.3496">Database</text><path d="M1074.5,54.6211 C1074.5,44.6211 1092.5,44.6211 1092.5,44.6211 C1092.5,44.6211 1110.5,44.6211 1110.5,54.6211 L1110.5,80.6211 C1110.5,90.6211 1092.5,90.6211 1092.5,90.6211 C1092.5,90.6211 1074.5,90.6211 1074.5,80.6211 L1074.5,54.6211 " fill="#E2E2F0" style="stroke:#181818;stroke-width:1.5;"/><path d="M1074.5,54.6211 C1074.5,64.6211 1092.5,64.6211 1092.5,64.6211 C1092.5,64.6211 1110.5,64.6211 1110.5,54.6211 " fill="none" style="stroke:#181818;stroke-width:1.5;"/><text fill="#000000" font-family="sans-serif" font-size="14" font-style="italic" lengthAdjust="spacing" textLength="86" x="1046.5" y="1036.4395">&#171;component&#187;</text><text fill="#000000" font-family="sans-serif" font-size="14" lengthAdjust="spacing" textLength="61" x="1059" y="1055.0605">Database</text><path d="M1074.5,1068.5742 C1074.5,1058.5742 1092.5,1058.5742 1092.5,1058.5742 C1092.5,1058.5742 1110.5,1058.5742 1110.5,1068.5742 L1110.5,1094.5742 C1110.5,1104.5742 1092.5,1104.5742 1092.5,1104.5742 C1092.5,1104.5742 1074.5,1104.5742 1074.5,1094.5742 L1074.5,1068.5742 " fill="#E2E2F0" style="stroke:#181818;stroke-width:1.5;"/><path d="M1074.5,1068.5742 C1074.5,1078.5742 1092.5,1078.5742 1092.5,1078.5742 C1092.5,1078.5742 1110.5,1078.5742 1110.5,1068.5742 " fill="none" style="stroke:#181818;stroke-width:1.5;"/><rect fill="#FFFFFF" height="843.1777" style="stroke:#181818;stroke-width:1.0;" width="10" x="115" y="161.1543"/><rect fill="#FFFFFF" height="780.5957" style="stroke:#181818;stroke-width:1.0;" width="10" x="225" y="192.4453"/><rect fill="#FFFFFF" height="718.0137" style="stroke:#181818;stroke-width:1.0;" width="10" x="335" y="223.7363"/><rect fill="#FFFFFF" height="93.873" style="stroke:#181818;stroke-width:1.0;" width="10" x="468" y="397.4824"/><rect fill="#FFFFFF" height="93.873" style="stroke:#181818;stroke-width:1.0;" width="10" x="605.5" y="255.0273"/><rect fill="#FFFFFF" height="96.5332" style="stroke:#181818;stroke-width:1.0;" width="10" x="733.5" y="532.6465"/><rect fill="#FFFFFF" height="124.8242" style="stroke:#181818;stroke-width:1.0;" width="10" x="843.5" y="785.6348"/><rect fill="#FFFFFF" height="52.2422" style="stroke:#181818;stroke-width:1.0;" width="10" x="981.5" y="826.9258"/><rect fill="#FFFFFF" height="31.291" style="stroke:#181818;stroke-width:1.0;" width="10" x="1087.5" y="286.3184"/><rect fill="#FFFFFF" height="31.291" style="stroke:#181818;stroke-width:1.0;" width="10" x="1087.5" y="428.7734"/><rect fill="#FFFFFF" height="31.291" style="stroke:#181818;stroke-width:1.0;" width="10" x="1087.5" y="691.7617"/><ellipse cx="46.5" cy="160.4043" fill="none" rx="4" ry="4" style="stroke:#181818;stroke-width:1.5;"/><line style="stroke:#181818;stroke-width:1.0;" x1="113" x2="103" y1="161.1543" y2="157.1543"/><line style="stroke:#181818;stroke-width:1.0;" x1="113" x2="103" y1="161.1543" y2="165.1543"/><line style="stroke:#181818;stroke-width:1.0;" x1="51" x2="114" y1="161.1543" y2="161.1543"/><text fill="#000000" font-family="sans-serif" font-size="13" font-weight="bold" lengthAdjust="spacing" textLength="7" x="54" y="155.8916">1</text><text fill="#000000" font-family="sans-serif" font-size="13" lengthAdjust="spacing" textLength="35" x="65" y="155.8916">POST</text><line style="stroke:#181818;stroke-width:1.0;" x1="223" x2="213" y1="192.4453" y2="188.4453"/><line style="stroke:#181818;stroke-width:1.0;" x1="223" x2="213" y1="192.4453" y2="196.4453"/><line style="stroke:#181818;stroke-width:1.0;" x1="125" x2="224" y1="192.4453" y2="192.4453"/><text fill="#000000" font-family="sans-serif" font-size="13" font-weight="bold" lengthAdjust="spacing" textLength="7" x="132" y="187.1826">2</text><text fill="#000000" font-family="sans-serif" font-size="13" lengthAdjust="spacing" textLength="64" x="143" y="187.1826">create floor</text><line style="stroke:#181818;stroke-width:1.0;" x1="333" x2="323" y1="223.7363" y2="219.7363"/><line style="stroke:#181818;stroke-width:1.0;" x1="333" x2="323" y1="223.7363" y2="227.7363"/><line style="stroke:#181818;stroke-width:1.0;" x1="235" x2="334" y1="223.7363" y2="223.7363"/><text fill="#000000" font-family="sans-serif" font-size="13" font-weight="bold" lengthAdjust="spacing" textLength="7" x="242" y="218.4736">3</text><text fill="#000000" font-family="sans-serif" font-size="13" lengthAdjust="spacing" textLength="64" x="253" y="218.4736">create floor</text><line style="stroke:#181818;stroke-width:1.0;" x1="603.5" x2="593.5" y1="255.0273" y2="251.0273"/><line style="stroke:#181818;stroke-width:1.0;" x1="603.5" x2="593.5" y1="255.0273" y2="259.0273"/><line style="stroke:#181818;stroke-width:1.0;" x1="345" x2="604.5" y1="255.0273" y2="255.0273"/><text fill="#000000" font-family="sans-serif" font-size="13" font-weight="bold" lengthAdjust="spacing" textLength="7" x="352" y="249.7646">4</text><text fill="#000000" font-family="sans-serif" font-size="13" lengthAdjust="spacing" textLength="136" x="363" y="249.7646">verifies if building exists</text><line style="stroke:#181818;stroke-width:1.0;" x1="1085.5" x2="1075.5" y1="286.3184" y2="282.3184"/><line style="stroke:#181818;stroke-width:1.0;" x1="1085.5" x2="1075.5" y1="286.3184" y2="290.3184"/><line style="stroke:#181818;stroke-width:1.0;" x1="615.5" x2="1086.5" y1="286.3184" y2="286.3184"/><text fill="#000000" font-family="sans-serif" font-size="13" font-weight="bold" lengthAdjust="spacing" textLength="7" x="622.5" y="281.0557">5</text><text fill="#000000" font-family="sans-serif" font-size="13" lengthAdjust="spacing" textLength="83" x="633.5" y="281.0557">select building</text><line style="stroke:#181818;stroke-width:1.0;" x1="616.5" x2="626.5" y1="317.6094" y2="313.6094"/><line style="stroke:#181818;stroke-width:1.0;" x1="616.5" x2="626.5" y1="317.6094" y2="321.6094"/><line style="stroke:#181818;stroke-width:1.0;stroke-dasharray:2.0,2.0;" x1="615.5" x2="1091.5" y1="317.6094" y2="317.6094"/><text fill="#000000" font-family="sans-serif" font-size="13" font-weight="bold" lengthAdjust="spacing" textLength="7" x="632.5" y="312.3467">6</text><text fill="#000000" font-family="sans-serif" font-size="13" lengthAdjust="spacing" textLength="44" x="643.5" y="312.3467">building</text><line style="stroke:#181818;stroke-width:1.0;" x1="346" x2="356" y1="348.9004" y2="344.9004"/><line style="stroke:#181818;stroke-width:1.0;" x1="346" x2="356" y1="348.9004" y2="352.9004"/><line style="stroke:#181818;stroke-width:1.0;stroke-dasharray:2.0,2.0;" x1="345" x2="609.5" y1="348.9004" y2="348.9004"/><text fill="#000000" font-family="sans-serif" font-size="13" font-weight="bold" lengthAdjust="spacing" textLength="7" x="362" y="343.6377">7</text><text fill="#000000" font-family="sans-serif" font-size="13" lengthAdjust="spacing" textLength="79" x="373" y="343.6377">building found</text><line style="stroke:#181818;stroke-width:1.0;" x1="466" x2="456" y1="397.4824" y2="393.4824"/><line style="stroke:#181818;stroke-width:1.0;" x1="466" x2="456" y1="397.4824" y2="401.4824"/><line style="stroke:#181818;stroke-width:1.0;" x1="345" x2="467" y1="397.4824" y2="397.4824"/><text fill="#000000" font-family="sans-serif" font-size="13" font-weight="bold" lengthAdjust="spacing" textLength="7" x="352" y="383.5742">8</text><text fill="#000000" font-family="sans-serif" font-size="13" lengthAdjust="spacing" textLength="77" x="363" y="374.9287">verifies if floor</text><text fill="#000000" font-family="sans-serif" font-size="13" lengthAdjust="spacing" textLength="81" x="367" y="392.2197">already exists</text><line style="stroke:#181818;stroke-width:1.0;" x1="1085.5" x2="1075.5" y1="428.7734" y2="424.7734"/><line style="stroke:#181818;stroke-width:1.0;" x1="1085.5" x2="1075.5" y1="428.7734" y2="432.7734"/><line style="stroke:#181818;stroke-width:1.0;" x1="478" x2="1086.5" y1="428.7734" y2="428.7734"/><text fill="#000000" font-family="sans-serif" font-size="13" font-weight="bold" lengthAdjust="spacing" textLength="7" x="485" y="423.5107">9</text><text fill="#000000" font-family="sans-serif" font-size="13" lengthAdjust="spacing" textLength="63" x="496" y="423.5107">select floor</text><line style="stroke:#181818;stroke-width:1.0;" x1="479" x2="489" y1="460.0645" y2="456.0645"/><line style="stroke:#181818;stroke-width:1.0;" x1="479" x2="489" y1="460.0645" y2="464.0645"/><line style="stroke:#181818;stroke-width:1.0;stroke-dasharray:2.0,2.0;" x1="478" x2="1091.5" y1="460.0645" y2="460.0645"/><text fill="#000000" font-family="sans-serif" font-size="13" font-weight="bold" lengthAdjust="spacing" textLength="14" x="495" y="454.8018">10</text><text fill="#000000" font-family="sans-serif" font-size="13" lengthAdjust="spacing" textLength="24" x="513" y="454.8018">floor</text><line style="stroke:#181818;stroke-width:1.0;" x1="346" x2="356" y1="491.3555" y2="487.3555"/><line style="stroke:#181818;stroke-width:1.0;" x1="346" x2="356" y1="491.3555" y2="495.3555"/><line style="stroke:#181818;stroke-width:1.0;stroke-dasharray:2.0,2.0;" x1="345" x2="472" y1="491.3555" y2="491.3555"/><text fill="#000000" font-family="sans-serif" font-size="13" font-weight="bold" lengthAdjust="spacing" textLength="14" x="362" y="486.0928">11</text><text fill="#000000" font-family="sans-serif" font-size="13" lengthAdjust="spacing" textLength="81" x="380" y="486.0928">floor not found</text><line style="stroke:#181818;stroke-width:1.0;" x1="686.5" x2="676.5" y1="522.6465" y2="518.6465"/><line style="stroke:#181818;stroke-width:1.0;" x1="686.5" x2="676.5" y1="522.6465" y2="526.6465"/><line style="stroke:#181818;stroke-width:1.0;" x1="345" x2="687.5" y1="522.6465" y2="522.6465"/><text fill="#000000" font-family="sans-serif" font-size="13" font-weight="bold" lengthAdjust="spacing" textLength="14" x="352" y="517.3838">12</text><text fill="#000000" font-family="sans-serif" font-size="13" lengthAdjust="spacing" textLength="36" x="370" y="517.3838">create</text><rect fill="#E2E2F0" height="51.2422" rx="2.5" ry="2.5" style="stroke:#181818;stroke-width:0.5;" width="100" x="688.5" y="499.3555"/><text fill="#000000" font-family="sans-serif" font-size="14" font-style="italic" lengthAdjust="spacing" textLength="86" x="695.5" y="521.4629">&#171;component&#187;</text><text fill="#000000" font-family="sans-serif" font-size="14" lengthAdjust="spacing" textLength="33" x="722" y="540.084">Floor</text><line style="stroke:#181818;stroke-width:1.0;stroke-dasharray:2.0,2.0;" x1="743.5" x2="785.5" y1="584.8887" y2="584.8887"/><line style="stroke:#181818;stroke-width:1.0;stroke-dasharray:2.0,2.0;" x1="785.5" x2="785.5" y1="584.8887" y2="597.8887"/><line style="stroke:#181818;stroke-width:1.0;stroke-dasharray:2.0,2.0;" x1="744.5" x2="785.5" y1="597.8887" y2="597.8887"/><line style="stroke:#181818;stroke-width:1.0;" x1="744.5" x2="754.5" y1="597.8887" y2="593.8887"/><line style="stroke:#181818;stroke-width:1.0;" x1="744.5" x2="754.5" y1="597.8887" y2="601.8887"/><text fill="#000000" font-family="sans-serif" font-size="13" font-weight="bold" lengthAdjust="spacing" textLength="14" x="750.5" y="579.626">13</text><text fill="#000000" font-family="sans-serif" font-size="13" lengthAdjust="spacing" textLength="39" x="768.5" y="579.626">verifies</text><line style="stroke:#181818;stroke-width:1.0;" x1="346" x2="356" y1="629.1797" y2="625.1797"/><line style="stroke:#181818;stroke-width:1.0;" x1="346" x2="356" y1="629.1797" y2="633.1797"/><line style="stroke:#181818;stroke-width:1.0;stroke-dasharray:2.0,2.0;" x1="345" x2="737.5" y1="629.1797" y2="629.1797"/><text fill="#000000" font-family="sans-serif" font-size="13" font-weight="bold" lengthAdjust="spacing" textLength="14" x="362" y="623.917">14</text><text fill="#000000" font-family="sans-serif" font-size="13" lengthAdjust="spacing" textLength="43" x="380" y="623.917">created</text><line style="stroke:#181818;stroke-width:1.0;" x1="471" x2="461" y1="660.4707" y2="656.4707"/><line style="stroke:#181818;stroke-width:1.0;" x1="471" x2="461" y1="660.4707" y2="664.4707"/><line style="stroke:#181818;stroke-width:1.0;" x1="345" x2="472" y1="660.4707" y2="660.4707"/><text fill="#000000" font-family="sans-serif" font-size="13" font-weight="bold" lengthAdjust="spacing" textLength="14" x="352" y="655.208">15</text><text fill="#000000" font-family="sans-serif" font-size="13" lengthAdjust="spacing" textLength="26" x="370" y="655.208">save</text><line style="stroke:#181818;stroke-width:1.0;" x1="1085.5" x2="1075.5" y1="691.7617" y2="687.7617"/><line style="stroke:#181818;stroke-width:1.0;" x1="1085.5" x2="1075.5" y1="691.7617" y2="695.7617"/><line style="stroke:#181818;stroke-width:1.0;" x1="473" x2="1086.5" y1="691.7617" y2="691.7617"/><text fill="#000000" font-family="sans-serif" font-size="13" font-weight="bold" lengthAdjust="spacing" textLength="14" x="480" y="686.499">16</text><text fill="#000000" font-family="sans-serif" font-size="13" lengthAdjust="spacing" textLength="60" x="498" y="686.499">insert floor</text><line style="stroke:#181818;stroke-width:1.0;" x1="474" x2="484" y1="723.0527" y2="719.0527"/><line style="stroke:#181818;stroke-width:1.0;" x1="474" x2="484" y1="723.0527" y2="727.0527"/><line style="stroke:#181818;stroke-width:1.0;stroke-dasharray:2.0,2.0;" x1="473" x2="1091.5" y1="723.0527" y2="723.0527"/><text fill="#000000" font-family="sans-serif" font-size="13" font-weight="bold" lengthAdjust="spacing" textLength="14" x="490" y="717.79">17</text><text fill="#000000" font-family="sans-serif" font-size="13" lengthAdjust="spacing" textLength="49" x="508" y="717.79">success</text><line style="stroke:#181818;stroke-width:1.0;" x1="346" x2="356" y1="754.3438" y2="750.3438"/><line style="stroke:#181818;stroke-width:1.0;" x1="346" x2="356" y1="754.3438" y2="758.3438"/><line style="stroke:#181818;stroke-width:1.0;stroke-dasharray:2.0,2.0;" x1="345" x2="472" y1="754.3438" y2="754.3438"/><text fill="#000000" font-family="sans-serif" font-size="13" font-weight="bold" lengthAdjust="spacing" textLength="14" x="362" y="749.0811">18</text><text fill="#000000" font-family="sans-serif" font-size="13" lengthAdjust="spacing" textLength="49" x="380" y="749.0811">success</text><line style="stroke:#181818;stroke-width:1.0;" x1="841.5" x2="831.5" y1="785.6348" y2="781.6348"/><line style="stroke:#181818;stroke-width:1.0;" x1="841.5" x2="831.5" y1="785.6348" y2="789.6348"/><line style="stroke:#181818;stroke-width:1.0;" x1="345" x2="842.5" y1="785.6348" y2="785.6348"/><text fill="#000000" font-family="sans-serif" font-size="13" font-weight="bold" lengthAdjust="spacing" textLength="14" x="352" y="780.3721">19</text><text fill="#000000" font-family="sans-serif" font-size="13" lengthAdjust="spacing" textLength="86" x="370" y="780.3721">convert to DTO</text><line style="stroke:#181818;stroke-width:1.0;" x1="934.5" x2="924.5" y1="816.9258" y2="812.9258"/><line style="stroke:#181818;stroke-width:1.0;" x1="934.5" x2="924.5" y1="816.9258" y2="820.9258"/><line style="stroke:#181818;stroke-width:1.0;stroke-dasharray:2.0,2.0;" x1="853.5" x2="935.5" y1="816.9258" y2="816.9258"/><text fill="#000000" font-family="sans-serif" font-size="13" font-weight="bold" lengthAdjust="spacing" textLength="14" x="860.5" y="811.6631">20</text><text fill="#000000" font-family="sans-serif" font-size="13" lengthAdjust="spacing" textLength="41" x="878.5" y="811.6631">convert</text><rect fill="#E2E2F0" height="51.2422" rx="2.5" ry="2.5" style="stroke:#181818;stroke-width:0.5;" width="100" x="936.5" y="793.6348"/><text fill="#000000" font-family="sans-serif" font-size="14" font-style="italic" lengthAdjust="spacing" textLength="86" x="943.5" y="815.7422">&#171;component&#187;</text><text fill="#000000" font-family="sans-serif" font-size="14" lengthAdjust="spacing" textLength="30" x="971.5" y="834.3633">DTO</text><line style="stroke:#181818;stroke-width:1.0;" x1="854.5" x2="864.5" y1="879.168" y2="875.168"/><line style="stroke:#181818;stroke-width:1.0;" x1="854.5" x2="864.5" y1="879.168" y2="883.168"/><line style="stroke:#181818;stroke-width:1.0;stroke-dasharray:2.0,2.0;" x1="853.5" x2="985.5" y1="879.168" y2="879.168"/><text fill="#000000" font-family="sans-serif" font-size="13" font-weight="bold" lengthAdjust="spacing" textLength="14" x="870.5" y="873.9053">21</text><text fill="#000000" font-family="sans-serif" font-size="13" lengthAdjust="spacing" textLength="18" x="888.5" y="873.9053">dto</text><line style="stroke:#181818;stroke-width:1.0;" x1="346" x2="356" y1="910.459" y2="906.459"/><line style="stroke:#181818;stroke-width:1.0;" x1="346" x2="356" y1="910.459" y2="914.459"/><line style="stroke:#181818;stroke-width:1.0;stroke-dasharray:2.0,2.0;" x1="345" x2="847.5" y1="910.459" y2="910.459"/><text fill="#000000" font-family="sans-serif" font-size="13" font-weight="bold" lengthAdjust="spacing" textLength="14" x="362" y="905.1963">22</text><text fill="#000000" font-family="sans-serif" font-size="13" lengthAdjust="spacing" textLength="18" x="380" y="905.1963">dto</text><line style="stroke:#181818;stroke-width:1.0;" x1="236" x2="246" y1="941.75" y2="937.75"/><line style="stroke:#181818;stroke-width:1.0;" x1="236" x2="246" y1="941.75" y2="945.75"/><line style="stroke:#181818;stroke-width:1.0;stroke-dasharray:2.0,2.0;" x1="235" x2="339" y1="941.75" y2="941.75"/><text fill="#000000" font-family="sans-serif" font-size="13" font-weight="bold" lengthAdjust="spacing" textLength="14" x="252" y="936.4873">23</text><text fill="#000000" font-family="sans-serif" font-size="13" lengthAdjust="spacing" textLength="49" x="270" y="936.4873">success</text><line style="stroke:#181818;stroke-width:1.0;" x1="126" x2="136" y1="973.041" y2="969.041"/><line style="stroke:#181818;stroke-width:1.0;" x1="126" x2="136" y1="973.041" y2="977.041"/><line style="stroke:#181818;stroke-width:1.0;stroke-dasharray:2.0,2.0;" x1="125" x2="229" y1="973.041" y2="973.041"/><text fill="#000000" font-family="sans-serif" font-size="13" font-weight="bold" lengthAdjust="spacing" textLength="14" x="142" y="967.7783">24</text><text fill="#000000" font-family="sans-serif" font-size="13" lengthAdjust="spacing" textLength="49" x="160" y="967.7783">success</text><line style="stroke:#181818;stroke-width:1.0;" x1="6.5" x2="16.5" y1="1004.332" y2="1000.332"/><line style="stroke:#181818;stroke-width:1.0;" x1="6.5" x2="16.5" y1="1004.332" y2="1008.332"/><line style="stroke:#181818;stroke-width:1.0;stroke-dasharray:2.0,2.0;" x1="0" x2="119" y1="1004.332" y2="1004.332"/><text fill="#000000" font-family="sans-serif" font-size="13" font-weight="bold" lengthAdjust="spacing" textLength="14" x="17" y="999.0693">25</text><text fill="#000000" font-family="sans-serif" font-size="13" lengthAdjust="spacing" textLength="70" x="35" y="999.0693">201 Created</text><!--SRC=[ZLNBRkGW4Bpp5IZ7I9OsELgZMMaJvHObokIu5upR4Oe7BC1Mvk-t0Pk7n_7cXg6gkwffscoqIexd1ZGndq8EJBCp7HZ_P1zmifSUg0Pk2R72ulf10xD06UrwfJHL7IwRKVIja1-48DaABWOcBRrvKwF5tHlA3DLXJGy7hiw3aY3jyLZ27vIqMlKzQC_WyNEFT08z2GwUOS9w3_xaHR_1e8omIbyypplHkBV7_3DxN9CNx__Z-ymftHxqcGqUU6R37kpn_SN3MhjEt3BB6cO0CVCg09iLZlnMrV4OxwQcho-dTyAu5PExutcVBESEczrAJNde1M-895x2a0pksCiDVKkT0MG1Eb9HuPfEe4Kdm53HnICANy9Oa-Ba7584S16n43Mcwh6jK-z6RjiG15GRgIEsXHozIb0QZH8xDSesPnOQ2yUf8KkxeNF-IifwB5zxMMmdxP59Keorur3pBRjvte1Q6Ss2bYw3CgdijSqaQSFaxMtiXPM9ELacBDMYE5ltr7Noxujhs0HRbH8I6J-jb1av1sD-NAiDV5QZNAeR0BLxJfDJWyySdtoIWwU4E8YFZrCW53EWCzKMexePKQMGRY-Nwo0nKbAwWlc4KT_LDDZmjJpdOWwK8sU3bSqFd527GrLb-FjVT_C_gBZePLRz0m00]--></g></svg>