<?xml version="1.0" encoding="us-ascii" standalone="no"?><svg xmlns="http://www.w3.org/2000/svg" xmlns:xlink="http://www.w3.org/1999/xlink" contentStyleType="text/css" height="1075px" preserveAspectRatio="none" style="width:1114px;height:1075px;background:#FFFFFF;" version="1.1" viewBox="0 0 1114 1075" width="1114px" zoomAndPan="magnify"><defs/><g><text fill="#000000" font-family="sans-serif" font-size="14" font-weight="bold" lengthAdjust="spacing" textLength="98" x="509.5" y="30.1074">Inhibit a robot</text><rect fill="#FFFFFF" height="796.9355" style="stroke:#181818;stroke-width:1.0;" width="10" x="147" y="161.1543"/><rect fill="#FFFFFF" height="734.3535" style="stroke:#181818;stroke-width:1.0;" width="10" x="261" y="192.4453"/><rect fill="#FFFFFF" height="671.7715" style="stroke:#181818;stroke-width:1.0;" width="10" x="375" y="223.7363"/><rect fill="#FFFFFF" height="229.0371" style="stroke:#181818;stroke-width:1.0;" width="10" x="621" y="255.0273"/><rect fill="#FFFFFF" height="93.873" style="stroke:#181818;stroke-width:1.0;" width="10" x="621" y="614.2285"/><rect fill="#FFFFFF" height="37.291" style="stroke:#181818;stroke-width:1.0;" width="10" x="731" y="507.3555"/><rect fill="#FFFFFF" height="124.8242" style="stroke:#181818;stroke-width:1.0;" width="10" x="841" y="739.3926"/><rect fill="#FFFFFF" height="52.2422" style="stroke:#181818;stroke-width:1.0;" width="10" x="956" y="780.6836"/><rect fill="#FFFFFF" height="31.291" style="stroke:#181818;stroke-width:1.0;" width="10" x="1062" y="286.3184"/><rect fill="#FFFFFF" height="31.291" style="stroke:#181818;stroke-width:1.0;" width="10" x="1062" y="645.5195"/><rect fill="none" height="144.4551" style="stroke:#000000;stroke-width:1.5;" width="676" x="10" y="332.6094"/><line style="stroke:#181818;stroke-width:0.5;stroke-dasharray:5.0,5.0;" x1="152" x2="152" y1="127.8633" y2="976.0898"/><line style="stroke:#181818;stroke-width:0.5;stroke-dasharray:5.0,5.0;" x1="266" x2="266" y1="127.8633" y2="976.0898"/><line style="stroke:#181818;stroke-width:0.5;stroke-dasharray:5.0,5.0;" x1="380" x2="380" y1="127.8633" y2="976.0898"/><line style="stroke:#181818;stroke-width:0.5;stroke-dasharray:5.0,5.0;" x1="626" x2="626" y1="127.8633" y2="976.0898"/><line style="stroke:#181818;stroke-width:0.5;stroke-dasharray:5.0,5.0;" x1="736" x2="736" y1="127.8633" y2="976.0898"/><line style="stroke:#181818;stroke-width:0.5;stroke-dasharray:5.0,5.0;" x1="846" x2="846" y1="127.8633" y2="976.0898"/><line style="stroke:#181818;stroke-width:0.5;stroke-dasharray:5.0,5.0;" x1="961" x2="961" y1="788.5137" y2="976.0898"/><line style="stroke:#181818;stroke-width:0.5;stroke-dasharray:5.0,5.0;" x1="1067" x2="1067" y1="127.8633" y2="976.0898"/><rect fill="#E2E2F0" height="51.2422" rx="2.5" ry="2.5" style="stroke:#181818;stroke-width:0.5;" width="100" x="102" y="75.6211"/><text fill="#000000" font-family="sans-serif" font-size="14" font-style="italic" lengthAdjust="spacing" textLength="86" x="109" y="97.7285">&#171;component&#187;</text><text fill="#000000" font-family="sans-serif" font-size="14" lengthAdjust="spacing" textLength="49" x="127.5" y="116.3496">Routing</text><rect fill="#E2E2F0" height="51.2422" rx="2.5" ry="2.5" style="stroke:#181818;stroke-width:0.5;" width="100" x="102" y="975.0898"/><text fill="#000000" font-family="sans-serif" font-size="14" font-style="italic" lengthAdjust="spacing" textLength="86" x="109" y="997.1973">&#171;component&#187;</text><text fill="#000000" font-family="sans-serif" font-size="14" lengthAdjust="spacing" textLength="49" x="127.5" y="1015.8184">Routing</text><rect fill="#E2E2F0" height="51.2422" rx="2.5" ry="2.5" style="stroke:#181818;stroke-width:0.5;" width="100" x="216" y="75.6211"/><text fill="#000000" font-family="sans-serif" font-size="14" font-style="italic" lengthAdjust="spacing" textLength="86" x="223" y="97.7285">&#171;component&#187;</text><text fill="#000000" font-family="sans-serif" font-size="14" lengthAdjust="spacing" textLength="62" x="235" y="116.3496">Controller</text><rect fill="#E2E2F0" height="51.2422" rx="2.5" ry="2.5" style="stroke:#181818;stroke-width:0.5;" width="100" x="216" y="975.0898"/><text fill="#000000" font-family="sans-serif" font-size="14" font-style="italic" lengthAdjust="spacing" textLength="86" x="223" y="997.1973">&#171;component&#187;</text><text fill="#000000" font-family="sans-serif" font-size="14" lengthAdjust="spacing" textLength="62" x="235" y="1015.8184">Controller</text><rect fill="#E2E2F0" height="51.2422" rx="2.5" ry="2.5" style="stroke:#181818;stroke-width:0.5;" width="100" x="330" y="75.6211"/><text fill="#000000" font-family="sans-serif" font-size="14" font-style="italic" lengthAdjust="spacing" textLength="86" x="337" y="97.7285">&#171;component&#187;</text><text fill="#000000" font-family="sans-serif" font-size="14" lengthAdjust="spacing" textLength="47" x="356.5" y="116.3496">Service</text><rect fill="#E2E2F0" height="51.2422" rx="2.5" ry="2.5" style="stroke:#181818;stroke-width:0.5;" width="100" x="330" y="975.0898"/><text fill="#000000" font-family="sans-serif" font-size="14" font-style="italic" lengthAdjust="spacing" textLength="86" x="337" y="997.1973">&#171;component&#187;</text><text fill="#000000" font-family="sans-serif" font-size="14" lengthAdjust="spacing" textLength="47" x="356.5" y="1015.8184">Service</text><rect fill="#E2E2F0" height="51.2422" rx="2.5" ry="2.5" style="stroke:#181818;stroke-width:0.5;" width="100" x="576" y="75.6211"/><text fill="#000000" font-family="sans-serif" font-size="14" font-style="italic" lengthAdjust="spacing" textLength="86" x="583" y="97.7285">&#171;component&#187;</text><text fill="#000000" font-family="sans-serif" font-size="14" lengthAdjust="spacing" textLength="68" x="592" y="116.3496">Repository</text><rect fill="#E2E2F0" height="51.2422" rx="2.5" ry="2.5" style="stroke:#181818;stroke-width:0.5;" width="100" x="576" y="975.0898"/><text fill="#000000" font-family="sans-serif" font-size="14" font-style="italic" lengthAdjust="spacing" textLength="86" x="583" y="997.1973">&#171;component&#187;</text><text fill="#000000" font-family="sans-serif" font-size="14" lengthAdjust="spacing" textLength="68" x="592" y="1015.8184">Repository</text><rect fill="#E2E2F0" height="51.2422" rx="2.5" ry="2.5" style="stroke:#181818;stroke-width:0.5;" width="100" x="686" y="75.6211"/><text fill="#000000" font-family="sans-serif" font-size="14" font-style="italic" lengthAdjust="spacing" textLength="86" x="693" y="97.7285">&#171;component&#187;</text><text fill="#000000" font-family="sans-serif" font-size="14" lengthAdjust="spacing" textLength="38" x="717" y="116.3496">Robot</text><rect fill="#E2E2F0" height="51.2422" rx="2.5" ry="2.5" style="stroke:#181818;stroke-width:0.5;" width="100" x="686" y="975.0898"/><text fill="#000000" font-family="sans-serif" font-size="14" font-style="italic" lengthAdjust="spacing" textLength="86" x="693" y="997.1973">&#171;component&#187;</text><text fill="#000000" font-family="sans-serif" font-size="14" lengthAdjust="spacing" textLength="38" x="717" y="1015.8184">Robot</text><rect fill="#E2E2F0" height="51.2422" rx="2.5" ry="2.5" style="stroke:#181818;stroke-width:0.5;" width="100" x="796" y="75.6211"/><text fill="#000000" font-family="sans-serif" font-size="14" font-style="italic" lengthAdjust="spacing" textLength="86" x="803" y="97.7285">&#171;component&#187;</text><text fill="#000000" font-family="sans-serif" font-size="14" lengthAdjust="spacing" textLength="27" x="832.5" y="116.3496">Map</text><rect fill="#E2E2F0" height="51.2422" rx="2.5" ry="2.5" style="stroke:#181818;stroke-width:0.5;" width="100" x="796" y="975.0898"/><text fill="#000000" font-family="sans-serif" font-size="14" font-style="italic" lengthAdjust="spacing" textLength="86" x="803" y="997.1973">&#171;component&#187;</text><text fill="#000000" font-family="sans-serif" font-size="14" lengthAdjust="spacing" textLength="27" x="832.5" y="1015.8184">Map</text><rect fill="#E2E2F0" height="51.2422" rx="2.5" ry="2.5" style="stroke:#181818;stroke-width:0.5;" width="100" x="911" y="975.0898"/><text fill="#000000" font-family="sans-serif" font-size="14" font-style="italic" lengthAdjust="spacing" textLength="86" x="918" y="997.1973">&#171;component&#187;</text><text fill="#000000" font-family="sans-serif" font-size="14" lengthAdjust="spacing" textLength="30" x="946" y="1015.8184">DTO</text><text fill="#000000" font-family="sans-serif" font-size="14" font-style="italic" lengthAdjust="spacing" textLength="86" x="1021" y="105.7285">&#171;component&#187;</text><text fill="#000000" font-family="sans-serif" font-size="14" lengthAdjust="spacing" textLength="61" x="1033.5" y="124.3496">Database</text><path d="M1049,54.6211 C1049,44.6211 1067,44.6211 1067,44.6211 C1067,44.6211 1085,44.6211 1085,54.6211 L1085,80.6211 C1085,90.6211 1067,90.6211 1067,90.6211 C1067,90.6211 1049,90.6211 1049,80.6211 L1049,54.6211 " fill="#E2E2F0" style="stroke:#181818;stroke-width:1.5;"/><path d="M1049,54.6211 C1049,64.6211 1067,64.6211 1067,64.6211 C1067,64.6211 1085,64.6211 1085,54.6211 " fill="none" style="stroke:#181818;stroke-width:1.5;"/><text fill="#000000" font-family="sans-serif" font-size="14" font-style="italic" lengthAdjust="spacing" textLength="86" x="1021" y="990.1973">&#171;component&#187;</text><text fill="#000000" font-family="sans-serif" font-size="14" lengthAdjust="spacing" textLength="61" x="1033.5" y="1008.8184">Database</text><path d="M1049,1022.332 C1049,1012.332 1067,1012.332 1067,1012.332 C1067,1012.332 1085,1012.332 1085,1022.332 L1085,1048.332 C1085,1058.332 1067,1058.332 1067,1058.332 C1067,1058.332 1049,1058.332 1049,1048.332 L1049,1022.332 " fill="#E2E2F0" style="stroke:#181818;stroke-width:1.5;"/><path d="M1049,1022.332 C1049,1032.332 1067,1032.332 1067,1032.332 C1067,1032.332 1085,1032.332 1085,1022.332 " fill="none" style="stroke:#181818;stroke-width:1.5;"/><rect fill="#FFFFFF" height="796.9355" style="stroke:#181818;stroke-width:1.0;" width="10" x="147" y="161.1543"/><rect fill="#FFFFFF" height="734.3535" style="stroke:#181818;stroke-width:1.0;" width="10" x="261" y="192.4453"/><rect fill="#FFFFFF" height="671.7715" style="stroke:#181818;stroke-width:1.0;" width="10" x="375" y="223.7363"/><rect fill="#FFFFFF" height="229.0371" style="stroke:#181818;stroke-width:1.0;" width="10" x="621" y="255.0273"/><rect fill="#FFFFFF" height="93.873" style="stroke:#181818;stroke-width:1.0;" width="10" x="621" y="614.2285"/><rect fill="#FFFFFF" height="37.291" style="stroke:#181818;stroke-width:1.0;" width="10" x="731" y="507.3555"/><rect fill="#FFFFFF" height="124.8242" style="stroke:#181818;stroke-width:1.0;" width="10" x="841" y="739.3926"/><rect fill="#FFFFFF" height="52.2422" style="stroke:#181818;stroke-width:1.0;" width="10" x="956" y="780.6836"/><rect fill="#FFFFFF" height="31.291" style="stroke:#181818;stroke-width:1.0;" width="10" x="1062" y="286.3184"/><rect fill="#FFFFFF" height="31.291" style="stroke:#181818;stroke-width:1.0;" width="10" x="1062" y="645.5195"/><ellipse cx="15.5" cy="160.4043" fill="none" rx="4" ry="4" style="stroke:#181818;stroke-width:1.5;"/><line style="stroke:#181818;stroke-width:1.0;" x1="145" x2="135" y1="161.1543" y2="157.1543"/><line style="stroke:#181818;stroke-width:1.0;" x1="145" x2="135" y1="161.1543" y2="165.1543"/><line style="stroke:#181818;stroke-width:1.0;" x1="20" x2="146" y1="161.1543" y2="161.1543"/><text fill="#000000" font-family="sans-serif" font-size="13" font-weight="bold" lengthAdjust="spacing" textLength="7" x="23" y="155.8916">1</text><text fill="#000000" font-family="sans-serif" font-size="13" lengthAdjust="spacing" textLength="98" x="34" y="155.8916">PATCH /robot/:id</text><line style="stroke:#181818;stroke-width:1.0;" x1="259" x2="249" y1="192.4453" y2="188.4453"/><line style="stroke:#181818;stroke-width:1.0;" x1="259" x2="249" y1="192.4453" y2="196.4453"/><line style="stroke:#181818;stroke-width:1.0;" x1="157" x2="260" y1="192.4453" y2="192.4453"/><text fill="#000000" font-family="sans-serif" font-size="13" font-weight="bold" lengthAdjust="spacing" textLength="7" x="164" y="187.1826">2</text><text fill="#000000" font-family="sans-serif" font-size="13" lengthAdjust="spacing" textLength="74" x="175" y="187.1826">disable robot</text><line style="stroke:#181818;stroke-width:1.0;" x1="373" x2="363" y1="223.7363" y2="219.7363"/><line style="stroke:#181818;stroke-width:1.0;" x1="373" x2="363" y1="223.7363" y2="227.7363"/><line style="stroke:#181818;stroke-width:1.0;" x1="271" x2="374" y1="223.7363" y2="223.7363"/><text fill="#000000" font-family="sans-serif" font-size="13" font-weight="bold" lengthAdjust="spacing" textLength="7" x="278" y="218.4736">3</text><text fill="#000000" font-family="sans-serif" font-size="13" lengthAdjust="spacing" textLength="74" x="289" y="218.4736">disable robot</text><line style="stroke:#181818;stroke-width:1.0;" x1="619" x2="609" y1="255.0273" y2="251.0273"/><line style="stroke:#181818;stroke-width:1.0;" x1="619" x2="609" y1="255.0273" y2="259.0273"/><line style="stroke:#181818;stroke-width:1.0;" x1="385" x2="620" y1="255.0273" y2="255.0273"/><text fill="#000000" font-family="sans-serif" font-size="13" font-weight="bold" lengthAdjust="spacing" textLength="7" x="392" y="249.7646">4</text><text fill="#000000" font-family="sans-serif" font-size="13" lengthAdjust="spacing" textLength="206" x="403" y="249.7646">verifies if exists robot with that code</text><line style="stroke:#181818;stroke-width:1.0;" x1="1060" x2="1050" y1="286.3184" y2="282.3184"/><line style="stroke:#181818;stroke-width:1.0;" x1="1060" x2="1050" y1="286.3184" y2="290.3184"/><line style="stroke:#181818;stroke-width:1.0;" x1="631" x2="1061" y1="286.3184" y2="286.3184"/><text fill="#000000" font-family="sans-serif" font-size="13" font-weight="bold" lengthAdjust="spacing" textLength="7" x="638" y="281.0557">5</text><text fill="#000000" font-family="sans-serif" font-size="13" lengthAdjust="spacing" textLength="68" x="649" y="281.0557">select robot</text><line style="stroke:#181818;stroke-width:1.0;" x1="632" x2="642" y1="317.6094" y2="313.6094"/><line style="stroke:#181818;stroke-width:1.0;" x1="632" x2="642" y1="317.6094" y2="321.6094"/><line style="stroke:#181818;stroke-width:1.0;stroke-dasharray:2.0,2.0;" x1="631" x2="1066" y1="317.6094" y2="317.6094"/><text fill="#000000" font-family="sans-serif" font-size="13" font-weight="bold" lengthAdjust="spacing" textLength="7" x="648" y="312.3467">6</text><text fill="#000000" font-family="sans-serif" font-size="13" lengthAdjust="spacing" textLength="29" x="659" y="312.3467">robot</text><path d="M10,332.6094 L71,332.6094 L71,341.9004 L61,351.9004 L10,351.9004 L10,332.6094 " fill="#EEEEEE" style="stroke:#000000;stroke-width:1.5;"/><rect fill="none" height="144.4551" style="stroke:#000000;stroke-width:1.5;" width="676" x="10" y="332.6094"/><text fill="#000000" font-family="sans-serif" font-size="13" font-weight="bold" lengthAdjust="spacing" textLength="16" x="25" y="347.6377">alt</text><text fill="#000000" font-family="sans-serif" font-size="11" font-weight="bold" lengthAdjust="spacing" textLength="94" x="86" y="346.4795">[robot not found]</text><line style="stroke:#181818;stroke-width:1.0;" x1="386" x2="396" y1="375.1914" y2="371.1914"/><line style="stroke:#181818;stroke-width:1.0;" x1="386" x2="396" y1="375.1914" y2="379.1914"/><line style="stroke:#181818;stroke-width:1.0;stroke-dasharray:2.0,2.0;" x1="385" x2="620" y1="375.1914" y2="375.1914"/><text fill="#000000" font-family="sans-serif" font-size="13" font-weight="bold" lengthAdjust="spacing" textLength="7" x="402" y="369.9287">7</text><text fill="#000000" font-family="sans-serif" font-size="13" lengthAdjust="spacing" textLength="53" x="413" y="369.9287">not found</text><line style="stroke:#181818;stroke-width:1.0;" x1="272" x2="282" y1="406.4824" y2="402.4824"/><line style="stroke:#181818;stroke-width:1.0;" x1="272" x2="282" y1="406.4824" y2="410.4824"/><line style="stroke:#181818;stroke-width:1.0;stroke-dasharray:2.0,2.0;" x1="271" x2="374" y1="406.4824" y2="406.4824"/><text fill="#000000" font-family="sans-serif" font-size="13" font-weight="bold" lengthAdjust="spacing" textLength="7" x="288" y="401.2197">8</text><text fill="#000000" font-family="sans-serif" font-size="13" lengthAdjust="spacing" textLength="16" x="299" y="401.2197">fail</text><line style="stroke:#181818;stroke-width:1.0;" x1="158" x2="168" y1="437.7734" y2="433.7734"/><line style="stroke:#181818;stroke-width:1.0;" x1="158" x2="168" y1="437.7734" y2="441.7734"/><line style="stroke:#181818;stroke-width:1.0;stroke-dasharray:2.0,2.0;" x1="157" x2="260" y1="437.7734" y2="437.7734"/><text fill="#000000" font-family="sans-serif" font-size="13" font-weight="bold" lengthAdjust="spacing" textLength="7" x="174" y="432.5107">9</text><text fill="#000000" font-family="sans-serif" font-size="13" lengthAdjust="spacing" textLength="16" x="185" y="432.5107">fail</text><ellipse cx="6.5" cy="468.3145" fill="none" rx="4" ry="4" style="stroke:#181818;stroke-width:1.5;"/><line style="stroke:#181818;stroke-width:1.0;" x1="13.5" x2="23.5" y1="469.0645" y2="465.0645"/><line style="stroke:#181818;stroke-width:1.0;" x1="13.5" x2="23.5" y1="469.0645" y2="473.0645"/><line style="stroke:#181818;stroke-width:1.0;stroke-dasharray:2.0,2.0;" x1="7" x2="146" y1="469.0645" y2="469.0645"/><text fill="#000000" font-family="sans-serif" font-size="13" font-weight="bold" lengthAdjust="spacing" textLength="14" x="24" y="463.8018">10</text><text fill="#000000" font-family="sans-serif" font-size="13" lengthAdjust="spacing" textLength="100" x="42" y="463.8018">400 Bad Request</text><line style="stroke:#181818;stroke-width:1.0;" x1="729" x2="719" y1="507.3555" y2="503.3555"/><line style="stroke:#181818;stroke-width:1.0;" x1="729" x2="719" y1="507.3555" y2="511.3555"/><line style="stroke:#181818;stroke-width:1.0;" x1="385" x2="730" y1="507.3555" y2="507.3555"/><text fill="#000000" font-family="sans-serif" font-size="13" font-weight="bold" lengthAdjust="spacing" textLength="14" x="392" y="502.0928">11</text><text fill="#000000" font-family="sans-serif" font-size="13" lengthAdjust="spacing" textLength="67" x="410" y="502.0928">inhibit robot</text><line style="stroke:#181818;stroke-width:1.0;stroke-dasharray:2.0,2.0;" x1="741" x2="783" y1="543.6465" y2="543.6465"/><line style="stroke:#181818;stroke-width:1.0;stroke-dasharray:2.0,2.0;" x1="783" x2="783" y1="543.6465" y2="556.6465"/><line style="stroke:#181818;stroke-width:1.0;stroke-dasharray:2.0,2.0;" x1="736" x2="783" y1="556.6465" y2="556.6465"/><line style="stroke:#181818;stroke-width:1.0;" x1="736" x2="746" y1="556.6465" y2="552.6465"/><line style="stroke:#181818;stroke-width:1.0;" x1="736" x2="746" y1="556.6465" y2="560.6465"/><text fill="#000000" font-family="sans-serif" font-size="13" font-weight="bold" lengthAdjust="spacing" textLength="14" x="748" y="538.3838">12</text><text fill="#000000" font-family="sans-serif" font-size="13" lengthAdjust="spacing" textLength="68" x="766" y="538.3838">verifies data</text><line style="stroke:#181818;stroke-width:1.0;" x1="386" x2="396" y1="582.9375" y2="578.9375"/><line style="stroke:#181818;stroke-width:1.0;" x1="386" x2="396" y1="582.9375" y2="586.9375"/><line style="stroke:#181818;stroke-width:1.0;stroke-dasharray:2.0,2.0;" x1="385" x2="735" y1="582.9375" y2="582.9375"/><text fill="#000000" font-family="sans-serif" font-size="13" font-weight="bold" lengthAdjust="spacing" textLength="14" x="402" y="577.6748">13</text><text fill="#000000" font-family="sans-serif" font-size="13" lengthAdjust="spacing" textLength="29" x="420" y="577.6748">robot</text><line style="stroke:#181818;stroke-width:1.0;" x1="619" x2="609" y1="614.2285" y2="610.2285"/><line style="stroke:#181818;stroke-width:1.0;" x1="619" x2="609" y1="614.2285" y2="618.2285"/><line style="stroke:#181818;stroke-width:1.0;" x1="385" x2="620" y1="614.2285" y2="614.2285"/><text fill="#000000" font-family="sans-serif" font-size="13" font-weight="bold" lengthAdjust="spacing" textLength="14" x="392" y="608.9658">14</text><text fill="#000000" font-family="sans-serif" font-size="13" lengthAdjust="spacing" textLength="26" x="410" y="608.9658">save</text><line style="stroke:#181818;stroke-width:1.0;" x1="1060" x2="1050" y1="645.5195" y2="641.5195"/><line style="stroke:#181818;stroke-width:1.0;" x1="1060" x2="1050" y1="645.5195" y2="649.5195"/><line style="stroke:#181818;stroke-width:1.0;" x1="631" x2="1061" y1="645.5195" y2="645.5195"/><text fill="#000000" font-family="sans-serif" font-size="13" font-weight="bold" lengthAdjust="spacing" textLength="14" x="638" y="640.2568">15</text><text fill="#000000" font-family="sans-serif" font-size="13" lengthAdjust="spacing" textLength="65" x="656" y="640.2568">insert robot</text><line style="stroke:#181818;stroke-width:1.0;" x1="632" x2="642" y1="676.8105" y2="672.8105"/><line style="stroke:#181818;stroke-width:1.0;" x1="632" x2="642" y1="676.8105" y2="680.8105"/><line style="stroke:#181818;stroke-width:1.0;stroke-dasharray:2.0,2.0;" x1="631" x2="1066" y1="676.8105" y2="676.8105"/><text fill="#000000" font-family="sans-serif" font-size="13" font-weight="bold" lengthAdjust="spacing" textLength="14" x="648" y="671.5479">16</text><text fill="#000000" font-family="sans-serif" font-size="13" lengthAdjust="spacing" textLength="49" x="666" y="671.5479">success</text><line style="stroke:#181818;stroke-width:1.0;" x1="386" x2="396" y1="708.1016" y2="704.1016"/><line style="stroke:#181818;stroke-width:1.0;" x1="386" x2="396" y1="708.1016" y2="712.1016"/><line style="stroke:#181818;stroke-width:1.0;stroke-dasharray:2.0,2.0;" x1="385" x2="625" y1="708.1016" y2="708.1016"/><text fill="#000000" font-family="sans-serif" font-size="13" font-weight="bold" lengthAdjust="spacing" textLength="14" x="402" y="702.8389">17</text><text fill="#000000" font-family="sans-serif" font-size="13" lengthAdjust="spacing" textLength="49" x="420" y="702.8389">success</text><line style="stroke:#181818;stroke-width:1.0;" x1="839" x2="829" y1="739.3926" y2="735.3926"/><line style="stroke:#181818;stroke-width:1.0;" x1="839" x2="829" y1="739.3926" y2="743.3926"/><line style="stroke:#181818;stroke-width:1.0;" x1="385" x2="840" y1="739.3926" y2="739.3926"/><text fill="#000000" font-family="sans-serif" font-size="13" font-weight="bold" lengthAdjust="spacing" textLength="14" x="392" y="734.1299">18</text><text fill="#000000" font-family="sans-serif" font-size="13" lengthAdjust="spacing" textLength="37" x="410" y="734.1299">toDTO</text><line style="stroke:#181818;stroke-width:1.0;" x1="909" x2="899" y1="770.6836" y2="766.6836"/><line style="stroke:#181818;stroke-width:1.0;" x1="909" x2="899" y1="770.6836" y2="774.6836"/><line style="stroke:#181818;stroke-width:1.0;" x1="851" x2="910" y1="770.6836" y2="770.6836"/><text fill="#000000" font-family="sans-serif" font-size="13" font-weight="bold" lengthAdjust="spacing" textLength="14" x="858" y="765.4209">19</text><text fill="#000000" font-family="sans-serif" font-size="13" lengthAdjust="spacing" textLength="18" x="876" y="765.4209">dto</text><rect fill="#E2E2F0" height="51.2422" rx="2.5" ry="2.5" style="stroke:#181818;stroke-width:0.5;" width="100" x="911" y="747.3926"/><text fill="#000000" font-family="sans-serif" font-size="14" font-style="italic" lengthAdjust="spacing" textLength="86" x="918" y="769.5">&#171;component&#187;</text><text fill="#000000" font-family="sans-serif" font-size="14" lengthAdjust="spacing" textLength="30" x="946" y="788.1211">DTO</text><line style="stroke:#181818;stroke-width:1.0;" x1="852" x2="862" y1="832.9258" y2="828.9258"/><line style="stroke:#181818;stroke-width:1.0;" x1="852" x2="862" y1="832.9258" y2="836.9258"/><line style="stroke:#181818;stroke-width:1.0;stroke-dasharray:2.0,2.0;" x1="851" x2="960" y1="832.9258" y2="832.9258"/><text fill="#000000" font-family="sans-serif" font-size="13" font-weight="bold" lengthAdjust="spacing" textLength="14" x="868" y="827.6631">20</text><text fill="#000000" font-family="sans-serif" font-size="13" lengthAdjust="spacing" textLength="18" x="886" y="827.6631">dto</text><line style="stroke:#181818;stroke-width:1.0;" x1="386" x2="396" y1="864.2168" y2="860.2168"/><line style="stroke:#181818;stroke-width:1.0;" x1="386" x2="396" y1="864.2168" y2="868.2168"/><line style="stroke:#181818;stroke-width:1.0;stroke-dasharray:2.0,2.0;" x1="385" x2="845" y1="864.2168" y2="864.2168"/><text fill="#000000" font-family="sans-serif" font-size="13" font-weight="bold" lengthAdjust="spacing" textLength="14" x="402" y="858.9541">21</text><text fill="#000000" font-family="sans-serif" font-size="13" lengthAdjust="spacing" textLength="18" x="420" y="858.9541">dto</text><line style="stroke:#181818;stroke-width:1.0;" x1="272" x2="282" y1="895.5078" y2="891.5078"/><line style="stroke:#181818;stroke-width:1.0;" x1="272" x2="282" y1="895.5078" y2="899.5078"/><line style="stroke:#181818;stroke-width:1.0;stroke-dasharray:2.0,2.0;" x1="271" x2="379" y1="895.5078" y2="895.5078"/><text fill="#000000" font-family="sans-serif" font-size="13" font-weight="bold" lengthAdjust="spacing" textLength="14" x="288" y="890.2451">22</text><text fill="#000000" font-family="sans-serif" font-size="13" lengthAdjust="spacing" textLength="49" x="306" y="890.2451">success</text><line style="stroke:#181818;stroke-width:1.0;" x1="158" x2="168" y1="926.7988" y2="922.7988"/><line style="stroke:#181818;stroke-width:1.0;" x1="158" x2="168" y1="926.7988" y2="930.7988"/><line style="stroke:#181818;stroke-width:1.0;stroke-dasharray:2.0,2.0;" x1="157" x2="265" y1="926.7988" y2="926.7988"/><text fill="#000000" font-family="sans-serif" font-size="13" font-weight="bold" lengthAdjust="spacing" textLength="14" x="174" y="921.5361">23</text><text fill="#000000" font-family="sans-serif" font-size="13" lengthAdjust="spacing" textLength="49" x="192" y="921.5361">success</text><ellipse cx="39.5" cy="957.3398" fill="none" rx="4" ry="4" style="stroke:#181818;stroke-width:1.5;"/><line style="stroke:#181818;stroke-width:1.0;" x1="46.5" x2="56.5" y1="958.0898" y2="954.0898"/><line style="stroke:#181818;stroke-width:1.0;" x1="46.5" x2="56.5" y1="958.0898" y2="962.0898"/><line style="stroke:#181818;stroke-width:1.0;stroke-dasharray:2.0,2.0;" x1="40" x2="151" y1="958.0898" y2="958.0898"/><text fill="#000000" font-family="sans-serif" font-size="13" font-weight="bold" lengthAdjust="spacing" textLength="14" x="57" y="952.8271">24</text><text fill="#000000" font-family="sans-serif" font-size="13" lengthAdjust="spacing" textLength="62" x="75" y="952.8271">200 Edited</text><!--SRC=[XPJTRjim38NlzHH2BmiOBOPT6K6AhHsmNGmRqhu0RJ4DKKVoB3fRttwq_2VRiHiWY2n_HwGEoK3DpjRd32lbtyYMKC5Pbv2_mIi-ytk1kiASbM9YMV-m9yg8DUZAPKwsXMVAgGJB-kRWQYRxUgF1o_kmrhjTxiwbisXvlv_YZyvovOe2gw38XySjqJDM5yenA7oxti8FM3fFxAhtBYl9kfAzJKq3ZVWM-XFA09wXtCAUNdu5pF0yi06633mAqwrQC9jnwi4b-_tWQgf_Vtbv_AxlGePtAHa5ETC567j6zMoZYxnDjI4FMLFOjeI3S8HKn3VotkXrRKUedcoJxSrEzGKhEX9wJKUD_yXpR-vVufFc4x24DwZYQtHgDPxJd2hMf1AkaAxiiXWa9bFoDfd7RYc3CGT5fzPMlaTNMwEqVA9Oquj7N027YoxiFG8L0ObDd1PlG1xSRfSaqPlFz_VwAnXzm3yrUbPeZPPSLPp-wCpIRZc2kXcTcTDLhAL6ZwBIDBsu33Ge8ZzwJyDdhUGUBdYjdDVgILPEuKLNhHJKrtcEtgjPJLThr_CVUoXpd6fsCgzZ4hAdclaEoRAxlKsRdoX9UMW6EnaE23iu0MH_Qk2CQO9yMEH5grsvM3-8QhtxhgYYqLUBdlmaFVdD4AEP9jZ-pVm7]--></g></svg>