<?xml version="1.0" encoding="us-ascii" standalone="no"?><svg xmlns="http://www.w3.org/2000/svg" xmlns:xlink="http://www.w3.org/1999/xlink" contentStyleType="text/css" height="1104px" preserveAspectRatio="none" style="width:1324px;height:1104px;background:#FFFFFF;" version="1.1" viewBox="0 0 1324 1104" width="1324px" zoomAndPan="magnify"><defs/><g><text fill="#000000" font-family="sans-serif" font-size="14" font-weight="bold" lengthAdjust="spacing" textLength="165" x="581.25" y="30.1074">Create a room in a floor</text><rect fill="#FFFFFF" height="825.8867" style="stroke:#181818;stroke-width:1.0;" width="10" x="115" y="161.1543"/><rect fill="#FFFFFF" height="763.3047" style="stroke:#181818;stroke-width:1.0;" width="10" x="288" y="192.4453"/><rect fill="#FFFFFF" height="700.7227" style="stroke:#181818;stroke-width:1.0;" width="10" x="461" y="223.7363"/><rect fill="#FFFFFF" height="93.873" style="stroke:#181818;stroke-width:1.0;" width="10" x="668" y="255.0273"/><rect fill="#FFFFFF" height="93.873" style="stroke:#181818;stroke-width:1.0;" width="10" x="799" y="380.1914"/><rect fill="#FFFFFF" height="96.5332" style="stroke:#181818;stroke-width:1.0;" width="10" x="918.5" y="515.3555"/><rect fill="#FFFFFF" height="124.8242" style="stroke:#181818;stroke-width:1.0;" width="10" x="1028.5" y="768.3438"/><rect fill="#FFFFFF" height="52.2422" style="stroke:#181818;stroke-width:1.0;" width="10" x="1166.5" y="809.6348"/><rect fill="#FFFFFF" height="31.291" style="stroke:#181818;stroke-width:1.0;" width="10" x="1272.5" y="286.3184"/><rect fill="#FFFFFF" height="31.291" style="stroke:#181818;stroke-width:1.0;" width="10" x="1272.5" y="411.4824"/><rect fill="#FFFFFF" height="31.291" style="stroke:#181818;stroke-width:1.0;" width="10" x="1272.5" y="674.4707"/><line style="stroke:#181818;stroke-width:0.5;stroke-dasharray:5.0,5.0;" x1="120" x2="120" y1="127.8633" y2="1005.041"/><line style="stroke:#181818;stroke-width:0.5;stroke-dasharray:5.0,5.0;" x1="293" x2="293" y1="127.8633" y2="1005.041"/><line style="stroke:#181818;stroke-width:0.5;stroke-dasharray:5.0,5.0;" x1="466" x2="466" y1="127.8633" y2="1005.041"/><line style="stroke:#181818;stroke-width:0.5;stroke-dasharray:5.0,5.0;" x1="672.5" x2="672.5" y1="127.8633" y2="1005.041"/><line style="stroke:#181818;stroke-width:0.5;stroke-dasharray:5.0,5.0;" x1="803.5" x2="803.5" y1="127.8633" y2="1005.041"/><line style="stroke:#181818;stroke-width:0.5;stroke-dasharray:5.0,5.0;" x1="923.5" x2="923.5" y1="523.1855" y2="1005.041"/><line style="stroke:#181818;stroke-width:0.5;stroke-dasharray:5.0,5.0;" x1="1033.5" x2="1033.5" y1="127.8633" y2="1005.041"/><line style="stroke:#181818;stroke-width:0.5;stroke-dasharray:5.0,5.0;" x1="1171.5" x2="1171.5" y1="817.4648" y2="1005.041"/><line style="stroke:#181818;stroke-width:0.5;stroke-dasharray:5.0,5.0;" x1="1277.5" x2="1277.5" y1="127.8633" y2="1005.041"/><rect fill="#E2E2F0" height="51.2422" rx="2.5" ry="2.5" style="stroke:#181818;stroke-width:0.5;" width="100" x="70" y="75.6211"/><text fill="#000000" font-family="sans-serif" font-size="14" font-style="italic" lengthAdjust="spacing" textLength="86" x="77" y="97.7285">&#171;component&#187;</text><text fill="#000000" font-family="sans-serif" font-size="14" lengthAdjust="spacing" textLength="49" x="95.5" y="116.3496">Routing</text><rect fill="#E2E2F0" height="51.2422" rx="2.5" ry="2.5" style="stroke:#181818;stroke-width:0.5;" width="100" x="70" y="1004.041"/><text fill="#000000" font-family="sans-serif" font-size="14" font-style="italic" lengthAdjust="spacing" textLength="86" x="77" y="1026.1484">&#171;component&#187;</text><text fill="#000000" font-family="sans-serif" font-size="14" lengthAdjust="spacing" textLength="49" x="95.5" y="1044.7695">Routing</text><rect fill="#E2E2F0" height="51.2422" rx="2.5" ry="2.5" style="stroke:#181818;stroke-width:0.5;" width="100" x="243" y="75.6211"/><text fill="#000000" font-family="sans-serif" font-size="14" font-style="italic" lengthAdjust="spacing" textLength="86" x="250" y="97.7285">&#171;component&#187;</text><text fill="#000000" font-family="sans-serif" font-size="14" lengthAdjust="spacing" textLength="62" x="262" y="116.3496">Controller</text><rect fill="#E2E2F0" height="51.2422" rx="2.5" ry="2.5" style="stroke:#181818;stroke-width:0.5;" width="100" x="243" y="1004.041"/><text fill="#000000" font-family="sans-serif" font-size="14" font-style="italic" lengthAdjust="spacing" textLength="86" x="250" y="1026.1484">&#171;component&#187;</text><text fill="#000000" font-family="sans-serif" font-size="14" lengthAdjust="spacing" textLength="62" x="262" y="1044.7695">Controller</text><rect fill="#E2E2F0" height="51.2422" rx="2.5" ry="2.5" style="stroke:#181818;stroke-width:0.5;" width="100" x="416" y="75.6211"/><text fill="#000000" font-family="sans-serif" font-size="14" font-style="italic" lengthAdjust="spacing" textLength="86" x="423" y="97.7285">&#171;component&#187;</text><text fill="#000000" font-family="sans-serif" font-size="14" lengthAdjust="spacing" textLength="47" x="442.5" y="116.3496">Service</text><rect fill="#E2E2F0" height="51.2422" rx="2.5" ry="2.5" style="stroke:#181818;stroke-width:0.5;" width="100" x="416" y="1004.041"/><text fill="#000000" font-family="sans-serif" font-size="14" font-style="italic" lengthAdjust="spacing" textLength="86" x="423" y="1026.1484">&#171;component&#187;</text><text fill="#000000" font-family="sans-serif" font-size="14" lengthAdjust="spacing" textLength="47" x="442.5" y="1044.7695">Service</text><rect fill="#E2E2F0" height="51.2422" rx="2.5" ry="2.5" style="stroke:#181818;stroke-width:0.5;" width="123" x="611.5" y="75.6211"/><text fill="#000000" font-family="sans-serif" font-size="14" font-style="italic" lengthAdjust="spacing" textLength="86" x="630" y="97.7285">&#171;component&#187;</text><text fill="#000000" font-family="sans-serif" font-size="14" lengthAdjust="spacing" textLength="109" x="618.5" y="116.3496">Room Repository</text><rect fill="#E2E2F0" height="51.2422" rx="2.5" ry="2.5" style="stroke:#181818;stroke-width:0.5;" width="123" x="611.5" y="1004.041"/><text fill="#000000" font-family="sans-serif" font-size="14" font-style="italic" lengthAdjust="spacing" textLength="86" x="630" y="1026.1484">&#171;component&#187;</text><text fill="#000000" font-family="sans-serif" font-size="14" lengthAdjust="spacing" textLength="109" x="618.5" y="1044.7695">Room Repository</text><rect fill="#E2E2F0" height="51.2422" rx="2.5" ry="2.5" style="stroke:#181818;stroke-width:0.5;" width="119" x="744.5" y="75.6211"/><text fill="#000000" font-family="sans-serif" font-size="14" font-style="italic" lengthAdjust="spacing" textLength="86" x="761" y="97.7285">&#171;component&#187;</text><text fill="#000000" font-family="sans-serif" font-size="14" lengthAdjust="spacing" textLength="105" x="751.5" y="116.3496">Floor Repository</text><rect fill="#E2E2F0" height="51.2422" rx="2.5" ry="2.5" style="stroke:#181818;stroke-width:0.5;" width="119" x="744.5" y="1004.041"/><text fill="#000000" font-family="sans-serif" font-size="14" font-style="italic" lengthAdjust="spacing" textLength="86" x="761" y="1026.1484">&#171;component&#187;</text><text fill="#000000" font-family="sans-serif" font-size="14" lengthAdjust="spacing" textLength="105" x="751.5" y="1044.7695">Floor Repository</text><rect fill="#E2E2F0" height="51.2422" rx="2.5" ry="2.5" style="stroke:#181818;stroke-width:0.5;" width="100" x="873.5" y="1004.041"/><text fill="#000000" font-family="sans-serif" font-size="14" font-style="italic" lengthAdjust="spacing" textLength="86" x="880.5" y="1026.1484">&#171;component&#187;</text><text fill="#000000" font-family="sans-serif" font-size="14" lengthAdjust="spacing" textLength="37" x="905" y="1044.7695">Room</text><rect fill="#E2E2F0" height="51.2422" rx="2.5" ry="2.5" style="stroke:#181818;stroke-width:0.5;" width="100" x="983.5" y="75.6211"/><text fill="#000000" font-family="sans-serif" font-size="14" font-style="italic" lengthAdjust="spacing" textLength="86" x="990.5" y="97.7285">&#171;component&#187;</text><text fill="#000000" font-family="sans-serif" font-size="14" lengthAdjust="spacing" textLength="27" x="1020" y="116.3496">Map</text><rect fill="#E2E2F0" height="51.2422" rx="2.5" ry="2.5" style="stroke:#181818;stroke-width:0.5;" width="100" x="983.5" y="1004.041"/><text fill="#000000" font-family="sans-serif" font-size="14" font-style="italic" lengthAdjust="spacing" textLength="86" x="990.5" y="1026.1484">&#171;component&#187;</text><text fill="#000000" font-family="sans-serif" font-size="14" lengthAdjust="spacing" textLength="27" x="1020" y="1044.7695">Map</text><rect fill="#E2E2F0" height="51.2422" rx="2.5" ry="2.5" style="stroke:#181818;stroke-width:0.5;" width="100" x="1121.5" y="1004.041"/><text fill="#000000" font-family="sans-serif" font-size="14" font-style="italic" lengthAdjust="spacing" textLength="86" x="1128.5" y="1026.1484">&#171;component&#187;</text><text fill="#000000" font-family="sans-serif" font-size="14" lengthAdjust="spacing" textLength="30" x="1156.5" y="1044.7695">DTO</text><text fill="#000000" font-family="sans-serif" font-size="14" font-style="italic" lengthAdjust="spacing" textLength="86" x="1231.5" y="105.7285">&#171;component&#187;</text><text fill="#000000" font-family="sans-serif" font-size="14" lengthAdjust="spacing" textLength="61" x="1244" y="124.3496">Database</text><path d="M1259.5,54.6211 C1259.5,44.6211 1277.5,44.6211 1277.5,44.6211 C1277.5,44.6211 1295.5,44.6211 1295.5,54.6211 L1295.5,80.6211 C1295.5,90.6211 1277.5,90.6211 1277.5,90.6211 C1277.5,90.6211 1259.5,90.6211 1259.5,80.6211 L1259.5,54.6211 " fill="#E2E2F0" style="stroke:#181818;stroke-width:1.5;"/><path d="M1259.5,54.6211 C1259.5,64.6211 1277.5,64.6211 1277.5,64.6211 C1277.5,64.6211 1295.5,64.6211 1295.5,54.6211 " fill="none" style="stroke:#181818;stroke-width:1.5;"/><text fill="#000000" font-family="sans-serif" font-size="14" font-style="italic" lengthAdjust="spacing" textLength="86" x="1231.5" y="1019.1484">&#171;component&#187;</text><text fill="#000000" font-family="sans-serif" font-size="14" lengthAdjust="spacing" textLength="61" x="1244" y="1037.7695">Database</text><path d="M1259.5,1051.2832 C1259.5,1041.2832 1277.5,1041.2832 1277.5,1041.2832 C1277.5,1041.2832 1295.5,1041.2832 1295.5,1051.2832 L1295.5,1077.2832 C1295.5,1087.2832 1277.5,1087.2832 1277.5,1087.2832 C1277.5,1087.2832 1259.5,1087.2832 1259.5,1077.2832 L1259.5,1051.2832 " fill="#E2E2F0" style="stroke:#181818;stroke-width:1.5;"/><path d="M1259.5,1051.2832 C1259.5,1061.2832 1277.5,1061.2832 1277.5,1061.2832 C1277.5,1061.2832 1295.5,1061.2832 1295.5,1051.2832 " fill="none" style="stroke:#181818;stroke-width:1.5;"/><rect fill="#FFFFFF" height="825.8867" style="stroke:#181818;stroke-width:1.0;" width="10" x="115" y="161.1543"/><rect fill="#FFFFFF" height="763.3047" style="stroke:#181818;stroke-width:1.0;" width="10" x="288" y="192.4453"/><rect fill="#FFFFFF" height="700.7227" style="stroke:#181818;stroke-width:1.0;" width="10" x="461" y="223.7363"/><rect fill="#FFFFFF" height="93.873" style="stroke:#181818;stroke-width:1.0;" width="10" x="668" y="255.0273"/><rect fill="#FFFFFF" height="93.873" style="stroke:#181818;stroke-width:1.0;" width="10" x="799" y="380.1914"/><rect fill="#FFFFFF" height="96.5332" style="stroke:#181818;stroke-width:1.0;" width="10" x="918.5" y="515.3555"/><rect fill="#FFFFFF" height="124.8242" style="stroke:#181818;stroke-width:1.0;" width="10" x="1028.5" y="768.3438"/><rect fill="#FFFFFF" height="52.2422" style="stroke:#181818;stroke-width:1.0;" width="10" x="1166.5" y="809.6348"/><rect fill="#FFFFFF" height="31.291" style="stroke:#181818;stroke-width:1.0;" width="10" x="1272.5" y="286.3184"/><rect fill="#FFFFFF" height="31.291" style="stroke:#181818;stroke-width:1.0;" width="10" x="1272.5" y="411.4824"/><rect fill="#FFFFFF" height="31.291" style="stroke:#181818;stroke-width:1.0;" width="10" x="1272.5" y="674.4707"/><ellipse cx="46.5" cy="160.4043" fill="none" rx="4" ry="4" style="stroke:#181818;stroke-width:1.5;"/><line style="stroke:#181818;stroke-width:1.0;" x1="113" x2="103" y1="161.1543" y2="157.1543"/><line style="stroke:#181818;stroke-width:1.0;" x1="113" x2="103" y1="161.1543" y2="165.1543"/><line style="stroke:#181818;stroke-width:1.0;" x1="51" x2="114" y1="161.1543" y2="161.1543"/><text fill="#000000" font-family="sans-serif" font-size="13" font-weight="bold" lengthAdjust="spacing" textLength="7" x="54" y="155.8916">1</text><text fill="#000000" font-family="sans-serif" font-size="13" lengthAdjust="spacing" textLength="35" x="65" y="155.8916">POST</text><line style="stroke:#181818;stroke-width:1.0;" x1="286" x2="276" y1="192.4453" y2="188.4453"/><line style="stroke:#181818;stroke-width:1.0;" x1="286" x2="276" y1="192.4453" y2="196.4453"/><line style="stroke:#181818;stroke-width:1.0;" x1="125" x2="287" y1="192.4453" y2="192.4453"/><text fill="#000000" font-family="sans-serif" font-size="13" font-weight="bold" lengthAdjust="spacing" textLength="7" x="132" y="187.1826">2</text><text fill="#000000" font-family="sans-serif" font-size="13" lengthAdjust="spacing" textLength="133" x="143" y="187.1826">create a room in a floor</text><line style="stroke:#181818;stroke-width:1.0;" x1="459" x2="449" y1="223.7363" y2="219.7363"/><line style="stroke:#181818;stroke-width:1.0;" x1="459" x2="449" y1="223.7363" y2="227.7363"/><line style="stroke:#181818;stroke-width:1.0;" x1="298" x2="460" y1="223.7363" y2="223.7363"/><text fill="#000000" font-family="sans-serif" font-size="13" font-weight="bold" lengthAdjust="spacing" textLength="7" x="305" y="218.4736">3</text><text fill="#000000" font-family="sans-serif" font-size="13" lengthAdjust="spacing" textLength="133" x="316" y="218.4736">create a room in a floor</text><line style="stroke:#181818;stroke-width:1.0;" x1="666" x2="656" y1="255.0273" y2="251.0273"/><line style="stroke:#181818;stroke-width:1.0;" x1="666" x2="656" y1="255.0273" y2="259.0273"/><line style="stroke:#181818;stroke-width:1.0;" x1="471" x2="667" y1="255.0273" y2="255.0273"/><text fill="#000000" font-family="sans-serif" font-size="13" font-weight="bold" lengthAdjust="spacing" textLength="7" x="478" y="249.7646">4</text><text fill="#000000" font-family="sans-serif" font-size="13" lengthAdjust="spacing" textLength="167" x="489" y="249.7646">verifies if room already exists</text><line style="stroke:#181818;stroke-width:1.0;" x1="1270.5" x2="1260.5" y1="286.3184" y2="282.3184"/><line style="stroke:#181818;stroke-width:1.0;" x1="1270.5" x2="1260.5" y1="286.3184" y2="290.3184"/><line style="stroke:#181818;stroke-width:1.0;" x1="678" x2="1271.5" y1="286.3184" y2="286.3184"/><text fill="#000000" font-family="sans-serif" font-size="13" font-weight="bold" lengthAdjust="spacing" textLength="7" x="685" y="281.0557">5</text><text fill="#000000" font-family="sans-serif" font-size="13" lengthAdjust="spacing" textLength="68" x="696" y="281.0557">select room</text><line style="stroke:#181818;stroke-width:1.0;" x1="679" x2="689" y1="317.6094" y2="313.6094"/><line style="stroke:#181818;stroke-width:1.0;" x1="679" x2="689" y1="317.6094" y2="321.6094"/><line style="stroke:#181818;stroke-width:1.0;stroke-dasharray:2.0,2.0;" x1="678" x2="1276.5" y1="317.6094" y2="317.6094"/><text fill="#000000" font-family="sans-serif" font-size="13" font-weight="bold" lengthAdjust="spacing" textLength="7" x="695" y="312.3467">6</text><text fill="#000000" font-family="sans-serif" font-size="13" lengthAdjust="spacing" textLength="29" x="706" y="312.3467">room</text><line style="stroke:#181818;stroke-width:1.0;" x1="472" x2="482" y1="348.9004" y2="344.9004"/><line style="stroke:#181818;stroke-width:1.0;" x1="472" x2="482" y1="348.9004" y2="352.9004"/><line style="stroke:#181818;stroke-width:1.0;stroke-dasharray:2.0,2.0;" x1="471" x2="672" y1="348.9004" y2="348.9004"/><text fill="#000000" font-family="sans-serif" font-size="13" font-weight="bold" lengthAdjust="spacing" textLength="7" x="488" y="343.6377">7</text><text fill="#000000" font-family="sans-serif" font-size="13" lengthAdjust="spacing" textLength="86" x="499" y="343.6377">room not found</text><line style="stroke:#181818;stroke-width:1.0;" x1="797" x2="787" y1="380.1914" y2="376.1914"/><line style="stroke:#181818;stroke-width:1.0;" x1="797" x2="787" y1="380.1914" y2="384.1914"/><line style="stroke:#181818;stroke-width:1.0;" x1="471" x2="798" y1="380.1914" y2="380.1914"/><text fill="#000000" font-family="sans-serif" font-size="13" font-weight="bold" lengthAdjust="spacing" textLength="7" x="478" y="374.9287">8</text><text fill="#000000" font-family="sans-serif" font-size="13" lengthAdjust="spacing" textLength="116" x="489" y="374.9287">verifies if floor exists</text><line style="stroke:#181818;stroke-width:1.0;" x1="1270.5" x2="1260.5" y1="411.4824" y2="407.4824"/><line style="stroke:#181818;stroke-width:1.0;" x1="1270.5" x2="1260.5" y1="411.4824" y2="415.4824"/><line style="stroke:#181818;stroke-width:1.0;" x1="809" x2="1271.5" y1="411.4824" y2="411.4824"/><text fill="#000000" font-family="sans-serif" font-size="13" font-weight="bold" lengthAdjust="spacing" textLength="7" x="816" y="406.2197">9</text><text fill="#000000" font-family="sans-serif" font-size="13" lengthAdjust="spacing" textLength="63" x="827" y="406.2197">select floor</text><line style="stroke:#181818;stroke-width:1.0;" x1="810" x2="820" y1="442.7734" y2="438.7734"/><line style="stroke:#181818;stroke-width:1.0;" x1="810" x2="820" y1="442.7734" y2="446.7734"/><line style="stroke:#181818;stroke-width:1.0;stroke-dasharray:2.0,2.0;" x1="809" x2="1276.5" y1="442.7734" y2="442.7734"/><text fill="#000000" font-family="sans-serif" font-size="13" font-weight="bold" lengthAdjust="spacing" textLength="14" x="826" y="437.5107">10</text><text fill="#000000" font-family="sans-serif" font-size="13" lengthAdjust="spacing" textLength="24" x="844" y="437.5107">floor</text><line style="stroke:#181818;stroke-width:1.0;" x1="472" x2="482" y1="474.0645" y2="470.0645"/><line style="stroke:#181818;stroke-width:1.0;" x1="472" x2="482" y1="474.0645" y2="478.0645"/><line style="stroke:#181818;stroke-width:1.0;stroke-dasharray:2.0,2.0;" x1="471" x2="803" y1="474.0645" y2="474.0645"/><text fill="#000000" font-family="sans-serif" font-size="13" font-weight="bold" lengthAdjust="spacing" textLength="14" x="488" y="468.8018">11</text><text fill="#000000" font-family="sans-serif" font-size="13" lengthAdjust="spacing" textLength="59" x="506" y="468.8018">floor found</text><line style="stroke:#181818;stroke-width:1.0;" x1="871.5" x2="861.5" y1="505.3555" y2="501.3555"/><line style="stroke:#181818;stroke-width:1.0;" x1="871.5" x2="861.5" y1="505.3555" y2="509.3555"/><line style="stroke:#181818;stroke-width:1.0;" x1="471" x2="872.5" y1="505.3555" y2="505.3555"/><text fill="#000000" font-family="sans-serif" font-size="13" font-weight="bold" lengthAdjust="spacing" textLength="14" x="478" y="500.0928">12</text><text fill="#000000" font-family="sans-serif" font-size="13" lengthAdjust="spacing" textLength="36" x="496" y="500.0928">create</text><rect fill="#E2E2F0" height="51.2422" rx="2.5" ry="2.5" style="stroke:#181818;stroke-width:0.5;" width="100" x="873.5" y="482.0645"/><text fill="#000000" font-family="sans-serif" font-size="14" font-style="italic" lengthAdjust="spacing" textLength="86" x="880.5" y="504.1719">&#171;component&#187;</text><text fill="#000000" font-family="sans-serif" font-size="14" lengthAdjust="spacing" textLength="37" x="905" y="522.793">Room</text><line style="stroke:#181818;stroke-width:1.0;stroke-dasharray:2.0,2.0;" x1="928.5" x2="970.5" y1="567.5977" y2="567.5977"/><line style="stroke:#181818;stroke-width:1.0;stroke-dasharray:2.0,2.0;" x1="970.5" x2="970.5" y1="567.5977" y2="580.5977"/><line style="stroke:#181818;stroke-width:1.0;stroke-dasharray:2.0,2.0;" x1="929.5" x2="970.5" y1="580.5977" y2="580.5977"/><line style="stroke:#181818;stroke-width:1.0;" x1="929.5" x2="939.5" y1="580.5977" y2="576.5977"/><line style="stroke:#181818;stroke-width:1.0;" x1="929.5" x2="939.5" y1="580.5977" y2="584.5977"/><text fill="#000000" font-family="sans-serif" font-size="13" font-weight="bold" lengthAdjust="spacing" textLength="14" x="935.5" y="562.335">13</text><text fill="#000000" font-family="sans-serif" font-size="13" lengthAdjust="spacing" textLength="39" x="953.5" y="562.335">verifies</text><line style="stroke:#181818;stroke-width:1.0;" x1="472" x2="482" y1="611.8887" y2="607.8887"/><line style="stroke:#181818;stroke-width:1.0;" x1="472" x2="482" y1="611.8887" y2="615.8887"/><line style="stroke:#181818;stroke-width:1.0;stroke-dasharray:2.0,2.0;" x1="471" x2="922.5" y1="611.8887" y2="611.8887"/><text fill="#000000" font-family="sans-serif" font-size="13" font-weight="bold" lengthAdjust="spacing" textLength="14" x="488" y="606.626">14</text><text fill="#000000" font-family="sans-serif" font-size="13" lengthAdjust="spacing" textLength="43" x="506" y="606.626">created</text><line style="stroke:#181818;stroke-width:1.0;" x1="671" x2="661" y1="643.1797" y2="639.1797"/><line style="stroke:#181818;stroke-width:1.0;" x1="671" x2="661" y1="643.1797" y2="647.1797"/><line style="stroke:#181818;stroke-width:1.0;" x1="471" x2="672" y1="643.1797" y2="643.1797"/><text fill="#000000" font-family="sans-serif" font-size="13" font-weight="bold" lengthAdjust="spacing" textLength="14" x="478" y="637.917">15</text><text fill="#000000" font-family="sans-serif" font-size="13" lengthAdjust="spacing" textLength="26" x="496" y="637.917">save</text><line style="stroke:#181818;stroke-width:1.0;" x1="1270.5" x2="1260.5" y1="674.4707" y2="670.4707"/><line style="stroke:#181818;stroke-width:1.0;" x1="1270.5" x2="1260.5" y1="674.4707" y2="678.4707"/><line style="stroke:#181818;stroke-width:1.0;" x1="673" x2="1271.5" y1="674.4707" y2="674.4707"/><text fill="#000000" font-family="sans-serif" font-size="13" font-weight="bold" lengthAdjust="spacing" textLength="14" x="680" y="669.208">16</text><text fill="#000000" font-family="sans-serif" font-size="13" lengthAdjust="spacing" textLength="65" x="698" y="669.208">insert robot</text><line style="stroke:#181818;stroke-width:1.0;" x1="674" x2="684" y1="705.7617" y2="701.7617"/><line style="stroke:#181818;stroke-width:1.0;" x1="674" x2="684" y1="705.7617" y2="709.7617"/><line style="stroke:#181818;stroke-width:1.0;stroke-dasharray:2.0,2.0;" x1="673" x2="1276.5" y1="705.7617" y2="705.7617"/><text fill="#000000" font-family="sans-serif" font-size="13" font-weight="bold" lengthAdjust="spacing" textLength="14" x="690" y="700.499">17</text><text fill="#000000" font-family="sans-serif" font-size="13" lengthAdjust="spacing" textLength="49" x="708" y="700.499">success</text><line style="stroke:#181818;stroke-width:1.0;" x1="472" x2="482" y1="737.0527" y2="733.0527"/><line style="stroke:#181818;stroke-width:1.0;" x1="472" x2="482" y1="737.0527" y2="741.0527"/><line style="stroke:#181818;stroke-width:1.0;stroke-dasharray:2.0,2.0;" x1="471" x2="672" y1="737.0527" y2="737.0527"/><text fill="#000000" font-family="sans-serif" font-size="13" font-weight="bold" lengthAdjust="spacing" textLength="14" x="488" y="731.79">18</text><text fill="#000000" font-family="sans-serif" font-size="13" lengthAdjust="spacing" textLength="49" x="506" y="731.79">success</text><line style="stroke:#181818;stroke-width:1.0;" x1="1026.5" x2="1016.5" y1="768.3438" y2="764.3438"/><line style="stroke:#181818;stroke-width:1.0;" x1="1026.5" x2="1016.5" y1="768.3438" y2="772.3438"/><line style="stroke:#181818;stroke-width:1.0;" x1="471" x2="1027.5" y1="768.3438" y2="768.3438"/><text fill="#000000" font-family="sans-serif" font-size="13" font-weight="bold" lengthAdjust="spacing" textLength="14" x="478" y="763.0811">19</text><text fill="#000000" font-family="sans-serif" font-size="13" lengthAdjust="spacing" textLength="86" x="496" y="763.0811">convert to DTO</text><line style="stroke:#181818;stroke-width:1.0;" x1="1119.5" x2="1109.5" y1="799.6348" y2="795.6348"/><line style="stroke:#181818;stroke-width:1.0;" x1="1119.5" x2="1109.5" y1="799.6348" y2="803.6348"/><line style="stroke:#181818;stroke-width:1.0;stroke-dasharray:2.0,2.0;" x1="1038.5" x2="1120.5" y1="799.6348" y2="799.6348"/><text fill="#000000" font-family="sans-serif" font-size="13" font-weight="bold" lengthAdjust="spacing" textLength="14" x="1045.5" y="794.3721">20</text><text fill="#000000" font-family="sans-serif" font-size="13" lengthAdjust="spacing" textLength="41" x="1063.5" y="794.3721">convert</text><rect fill="#E2E2F0" height="51.2422" rx="2.5" ry="2.5" style="stroke:#181818;stroke-width:0.5;" width="100" x="1121.5" y="776.3438"/><text fill="#000000" font-family="sans-serif" font-size="14" font-style="italic" lengthAdjust="spacing" textLength="86" x="1128.5" y="798.4512">&#171;component&#187;</text><text fill="#000000" font-family="sans-serif" font-size="14" lengthAdjust="spacing" textLength="30" x="1156.5" y="817.0723">DTO</text><line style="stroke:#181818;stroke-width:1.0;" x1="1039.5" x2="1049.5" y1="861.877" y2="857.877"/><line style="stroke:#181818;stroke-width:1.0;" x1="1039.5" x2="1049.5" y1="861.877" y2="865.877"/><line style="stroke:#181818;stroke-width:1.0;stroke-dasharray:2.0,2.0;" x1="1038.5" x2="1170.5" y1="861.877" y2="861.877"/><text fill="#000000" font-family="sans-serif" font-size="13" font-weight="bold" lengthAdjust="spacing" textLength="14" x="1055.5" y="856.6143">21</text><text fill="#000000" font-family="sans-serif" font-size="13" lengthAdjust="spacing" textLength="18" x="1073.5" y="856.6143">dto</text><line style="stroke:#181818;stroke-width:1.0;" x1="472" x2="482" y1="893.168" y2="889.168"/><line style="stroke:#181818;stroke-width:1.0;" x1="472" x2="482" y1="893.168" y2="897.168"/><line style="stroke:#181818;stroke-width:1.0;stroke-dasharray:2.0,2.0;" x1="471" x2="1032.5" y1="893.168" y2="893.168"/><text fill="#000000" font-family="sans-serif" font-size="13" font-weight="bold" lengthAdjust="spacing" textLength="14" x="488" y="887.9053">22</text><text fill="#000000" font-family="sans-serif" font-size="13" lengthAdjust="spacing" textLength="18" x="506" y="887.9053">dto</text><line style="stroke:#181818;stroke-width:1.0;" x1="299" x2="309" y1="924.459" y2="920.459"/><line style="stroke:#181818;stroke-width:1.0;" x1="299" x2="309" y1="924.459" y2="928.459"/><line style="stroke:#181818;stroke-width:1.0;stroke-dasharray:2.0,2.0;" x1="298" x2="465" y1="924.459" y2="924.459"/><text fill="#000000" font-family="sans-serif" font-size="13" font-weight="bold" lengthAdjust="spacing" textLength="14" x="315" y="919.1963">23</text><text fill="#000000" font-family="sans-serif" font-size="13" lengthAdjust="spacing" textLength="49" x="333" y="919.1963">success</text><line style="stroke:#181818;stroke-width:1.0;" x1="126" x2="136" y1="955.75" y2="951.75"/><line style="stroke:#181818;stroke-width:1.0;" x1="126" x2="136" y1="955.75" y2="959.75"/><line style="stroke:#181818;stroke-width:1.0;stroke-dasharray:2.0,2.0;" x1="125" x2="292" y1="955.75" y2="955.75"/><text fill="#000000" font-family="sans-serif" font-size="13" font-weight="bold" lengthAdjust="spacing" textLength="14" x="142" y="950.4873">24</text><text fill="#000000" font-family="sans-serif" font-size="13" lengthAdjust="spacing" textLength="49" x="160" y="950.4873">success</text><line style="stroke:#181818;stroke-width:1.0;" x1="6.5" x2="16.5" y1="987.041" y2="983.041"/><line style="stroke:#181818;stroke-width:1.0;" x1="6.5" x2="16.5" y1="987.041" y2="991.041"/><line style="stroke:#181818;stroke-width:1.0;stroke-dasharray:2.0,2.0;" x1="0" x2="119" y1="987.041" y2="987.041"/><text fill="#000000" font-family="sans-serif" font-size="13" font-weight="bold" lengthAdjust="spacing" textLength="14" x="17" y="981.7783">25</text><text fill="#000000" font-family="sans-serif" font-size="13" lengthAdjust="spacing" textLength="70" x="35" y="981.7783">201 Created</text><!--SRC=[ZLLDR-iW4BppAr2FbIozlgCLfOS-zVRKAkaVm7XJeTfWmTfg_dtvi04Jr-sDc9dT6OObR4Gbnxu1JSo7a0FJhAS3un_i7SvuxO1gu4W82hJh9mqCWJAgbUgfa7PrwPJIX5WY2Yu69f7UdTI8GhxVKMOiqg_fuS1LFoW94e_7DVn9ITIgwq1x1ey_zqXdq9FWu1achFVW9oVu18Co0fM-pj9Kh-sdFTwpirSIlUUVcAvZRBC7_Cy6Z-lPi0Vxz_RYOIsMRLk6h646B6PU1M1JuCYZgex7c4XDNr_ERuHn59DBTVvEbds7pRAeAVys_LWZuKb6TPMMZ7vLPWQJXHHapsdLT08jBW8C5PTGX7MsPdkby2aC6f9x2YGIsQwKFPdQzkZipVQ8X6yROZUhef_7j92Zie9hTrwFL4WlQfHjpefQLhRINLhxyjyNGx56H9F4Ans5mzoobFSAgC9KLdJjAgYviPJaa9kixkzZrkiymjcbGqw-yvtoljmS9VdkTXWsmKRUGbgyoxjH-5FWPkGSZFbjvXlmxR3TYDTkI2OdnGwo7UganUuIuY2-l9tpS8G1dKb6MzMz0bKgwRxbOXqaLaf22vXl6FNTpFk6hMKmLzEzVbGsMDchOD-Wmw6gClpVFm_p_qeHSNYDlW00]--></g></svg>