<?xml version="1.0" encoding="us-ascii" standalone="no"?><svg xmlns="http://www.w3.org/2000/svg" xmlns:xlink="http://www.w3.org/1999/xlink" contentStyleType="text/css" height="476px" preserveAspectRatio="none" style="width:644px;height:476px;background:#FFFFFF;" version="1.1" viewBox="0 0 644 476" width="644px" zoomAndPan="magnify"><defs/><g><text fill="#000000" font-family="sans-serif" font-size="14" font-weight="bold" lengthAdjust="spacing" textLength="98" x="269.5" y="30.1074">Inhibit a robot</text><rect fill="#FFFFFF" height="219.0371" style="stroke:#181818;stroke-width:1.0;" width="10" x="59" y="156.5332"/><rect fill="#FFFFFF" height="219.0371" style="stroke:#181818;stroke-width:1.0;" width="10" x="271" y="156.5332"/><rect fill="#FFFFFF" height="156.4551" style="stroke:#181818;stroke-width:1.0;" width="10" x="389" y="187.8242"/><rect fill="#FFFFFF" height="93.873" style="stroke:#181818;stroke-width:1.0;" width="10" x="507" y="219.1152"/><line style="stroke:#181818;stroke-width:0.5;stroke-dasharray:5.0,5.0;" x1="64" x2="64" y1="123.2422" y2="393.5703"/><line style="stroke:#181818;stroke-width:0.5;stroke-dasharray:5.0,5.0;" x1="276" x2="276" y1="123.2422" y2="393.5703"/><line style="stroke:#181818;stroke-width:0.5;stroke-dasharray:5.0,5.0;" x1="394" x2="394" y1="123.2422" y2="393.5703"/><line style="stroke:#181818;stroke-width:0.5;stroke-dasharray:5.0,5.0;" x1="512" x2="512" y1="123.2422" y2="393.5703"/><text fill="#000000" font-family="sans-serif" font-size="14" lengthAdjust="spacing" textLength="112" x="5" y="119.7285">Campus Manager</text><ellipse cx="64" cy="53.1211" fill="#E2E2F0" rx="8" ry="8" style="stroke:#181818;stroke-width:0.5;"/><path d="M64,61.1211 L64,88.1211 M51,69.1211 L77,69.1211 M64,88.1211 L51,103.1211 M64,88.1211 L77,103.1211 " fill="none" style="stroke:#181818;stroke-width:0.5;"/><text fill="#000000" font-family="sans-serif" font-size="14" lengthAdjust="spacing" textLength="112" x="5" y="407.6777">Campus Manager</text><ellipse cx="64" cy="419.6914" fill="#E2E2F0" rx="8" ry="8" style="stroke:#181818;stroke-width:0.5;"/><path d="M64,427.6914 L64,454.6914 M51,435.6914 L77,435.6914 M64,454.6914 L51,469.6914 M64,454.6914 L77,469.6914 " fill="none" style="stroke:#181818;stroke-width:0.5;"/><rect fill="#E2E2F0" height="51.2422" rx="2.5" ry="2.5" style="stroke:#181818;stroke-width:0.5;" width="100" x="226" y="71"/><text fill="#000000" font-family="sans-serif" font-size="14" font-style="italic" lengthAdjust="spacing" textLength="86" x="233" y="93.1074">&#171;component&#187;</text><text fill="#000000" font-family="sans-serif" font-size="14" lengthAdjust="spacing" textLength="49" x="251.5" y="111.7285">Routing</text><rect fill="#E2E2F0" height="51.2422" rx="2.5" ry="2.5" style="stroke:#181818;stroke-width:0.5;" width="100" x="226" y="392.5703"/><text fill="#000000" font-family="sans-serif" font-size="14" font-style="italic" lengthAdjust="spacing" textLength="86" x="233" y="414.6777">&#171;component&#187;</text><text fill="#000000" font-family="sans-serif" font-size="14" lengthAdjust="spacing" textLength="49" x="251.5" y="433.2988">Routing</text><rect fill="#E2E2F0" height="51.2422" rx="2.5" ry="2.5" style="stroke:#181818;stroke-width:0.5;" width="100" x="344" y="71"/><text fill="#000000" font-family="sans-serif" font-size="14" font-style="italic" lengthAdjust="spacing" textLength="86" x="351" y="93.1074">&#171;component&#187;</text><text fill="#000000" font-family="sans-serif" font-size="14" lengthAdjust="spacing" textLength="73" x="357.5" y="111.7285">Component</text><rect fill="#E2E2F0" height="51.2422" rx="2.5" ry="2.5" style="stroke:#181818;stroke-width:0.5;" width="100" x="344" y="392.5703"/><text fill="#000000" font-family="sans-serif" font-size="14" font-style="italic" lengthAdjust="spacing" textLength="86" x="351" y="414.6777">&#171;component&#187;</text><text fill="#000000" font-family="sans-serif" font-size="14" lengthAdjust="spacing" textLength="73" x="357.5" y="433.2988">Component</text><rect fill="#E2E2F0" height="51.2422" rx="2.5" ry="2.5" style="stroke:#181818;stroke-width:0.5;" width="100" x="462" y="71"/><text fill="#000000" font-family="sans-serif" font-size="14" font-style="italic" lengthAdjust="spacing" textLength="86" x="469" y="93.1074">&#171;component&#187;</text><text fill="#000000" font-family="sans-serif" font-size="14" lengthAdjust="spacing" textLength="47" x="488.5" y="111.7285">Service</text><rect fill="#E2E2F0" height="51.2422" rx="2.5" ry="2.5" style="stroke:#181818;stroke-width:0.5;" width="100" x="462" y="392.5703"/><text fill="#000000" font-family="sans-serif" font-size="14" font-style="italic" lengthAdjust="spacing" textLength="86" x="469" y="414.6777">&#171;component&#187;</text><text fill="#000000" font-family="sans-serif" font-size="14" lengthAdjust="spacing" textLength="47" x="488.5" y="433.2988">Service</text><rect fill="#FFFFFF" height="219.0371" style="stroke:#181818;stroke-width:1.0;" width="10" x="59" y="156.5332"/><rect fill="#FFFFFF" height="219.0371" style="stroke:#181818;stroke-width:1.0;" width="10" x="271" y="156.5332"/><rect fill="#FFFFFF" height="156.4551" style="stroke:#181818;stroke-width:1.0;" width="10" x="389" y="187.8242"/><rect fill="#FFFFFF" height="93.873" style="stroke:#181818;stroke-width:1.0;" width="10" x="507" y="219.1152"/><line style="stroke:#181818;stroke-width:1.0;" x1="269" x2="259" y1="156.5332" y2="152.5332"/><line style="stroke:#181818;stroke-width:1.0;" x1="269" x2="259" y1="156.5332" y2="160.5332"/><line style="stroke:#181818;stroke-width:1.0;" x1="69" x2="270" y1="156.5332" y2="156.5332"/><text fill="#000000" font-family="sans-serif" font-size="13" font-weight="bold" lengthAdjust="spacing" textLength="7" x="76" y="151.2705">1</text><text fill="#000000" font-family="sans-serif" font-size="13" lengthAdjust="spacing" textLength="177" x="87" y="151.2705">Navigate to InhibitARobot page</text><line style="stroke:#181818;stroke-width:1.0;" x1="387" x2="377" y1="187.8242" y2="183.8242"/><line style="stroke:#181818;stroke-width:1.0;" x1="387" x2="377" y1="187.8242" y2="191.8242"/><line style="stroke:#181818;stroke-width:1.0;" x1="281" x2="388" y1="187.8242" y2="187.8242"/><text fill="#000000" font-family="sans-serif" font-size="13" font-weight="bold" lengthAdjust="spacing" textLength="7" x="288" y="182.5615">2</text><text fill="#000000" font-family="sans-serif" font-size="13" lengthAdjust="spacing" textLength="78" x="299" y="182.5615">inhibit a robot</text><line style="stroke:#181818;stroke-width:1.0;" x1="505" x2="495" y1="219.1152" y2="215.1152"/><line style="stroke:#181818;stroke-width:1.0;" x1="505" x2="495" y1="219.1152" y2="223.1152"/><line style="stroke:#181818;stroke-width:1.0;" x1="399" x2="506" y1="219.1152" y2="219.1152"/><text fill="#000000" font-family="sans-serif" font-size="13" font-weight="bold" lengthAdjust="spacing" textLength="7" x="406" y="213.8525">3</text><text fill="#000000" font-family="sans-serif" font-size="13" lengthAdjust="spacing" textLength="78" x="417" y="213.8525">inhibit a robot</text><line style="stroke:#181818;stroke-width:1.0;" x1="636" x2="626" y1="250.4063" y2="246.4063"/><line style="stroke:#181818;stroke-width:1.0;" x1="636" x2="626" y1="250.4063" y2="254.4063"/><line style="stroke:#181818;stroke-width:1.0;" x1="517" x2="637" y1="250.4063" y2="250.4063"/><text fill="#000000" font-family="sans-serif" font-size="13" font-weight="bold" lengthAdjust="spacing" textLength="7" x="524" y="245.1436">4</text><text fill="#000000" font-family="sans-serif" font-size="13" lengthAdjust="spacing" textLength="76" x="535" y="245.1436">Http Request</text><line style="stroke:#181818;stroke-width:1.0;" x1="518" x2="528" y1="281.6973" y2="277.6973"/><line style="stroke:#181818;stroke-width:1.0;" x1="518" x2="528" y1="281.6973" y2="285.6973"/><line style="stroke:#181818;stroke-width:1.0;stroke-dasharray:2.0,2.0;" x1="517" x2="637" y1="281.6973" y2="281.6973"/><text fill="#000000" font-family="sans-serif" font-size="13" font-weight="bold" lengthAdjust="spacing" textLength="7" x="534" y="276.4346">5</text><text fill="#000000" font-family="sans-serif" font-size="13" lengthAdjust="spacing" textLength="86" x="545" y="276.4346">Http Response</text><line style="stroke:#181818;stroke-width:1.0;" x1="400" x2="410" y1="312.9883" y2="308.9883"/><line style="stroke:#181818;stroke-width:1.0;" x1="400" x2="410" y1="312.9883" y2="316.9883"/><line style="stroke:#181818;stroke-width:1.0;stroke-dasharray:2.0,2.0;" x1="399" x2="511" y1="312.9883" y2="312.9883"/><text fill="#000000" font-family="sans-serif" font-size="13" font-weight="bold" lengthAdjust="spacing" textLength="7" x="416" y="307.7256">6</text><text fill="#000000" font-family="sans-serif" font-size="13" lengthAdjust="spacing" textLength="49" x="427" y="307.7256">success</text><line style="stroke:#181818;stroke-width:1.0;" x1="282" x2="292" y1="344.2793" y2="340.2793"/><line style="stroke:#181818;stroke-width:1.0;" x1="282" x2="292" y1="344.2793" y2="348.2793"/><line style="stroke:#181818;stroke-width:1.0;stroke-dasharray:2.0,2.0;" x1="281" x2="393" y1="344.2793" y2="344.2793"/><text fill="#000000" font-family="sans-serif" font-size="13" font-weight="bold" lengthAdjust="spacing" textLength="7" x="298" y="339.0166">7</text><text fill="#000000" font-family="sans-serif" font-size="13" lengthAdjust="spacing" textLength="49" x="309" y="339.0166">success</text><line style="stroke:#181818;stroke-width:1.0;" x1="65" x2="75" y1="375.5703" y2="371.5703"/><line style="stroke:#181818;stroke-width:1.0;" x1="65" x2="75" y1="375.5703" y2="379.5703"/><line style="stroke:#181818;stroke-width:1.0;stroke-dasharray:2.0,2.0;" x1="64" x2="275" y1="375.5703" y2="375.5703"/><text fill="#000000" font-family="sans-serif" font-size="13" font-weight="bold" lengthAdjust="spacing" textLength="7" x="81" y="370.3076">8</text><text fill="#000000" font-family="sans-serif" font-size="13" lengthAdjust="spacing" textLength="131" x="92" y="370.3076">Successfully response</text><!--SRC=[VPB1ReCm38RlUGghTru0LKWLb-t03l049lDOL4XOuY3rxPS4KkXMzMR5ts__lnNqRBIVUhB2NPMUqU84Cyeh3jJnRIIm95a8LXngUDVVgbSC2DRq9hoZP6FXLECqUmSDwg2p9q07TIF2D5PIpQWPJgtnhFIGUdQjuNoMPfgD9irLzOZNkP444Nj5TsGN9IcnRgt_uA9kYggwRoxX0nSr81EmoR4kRGmLuWyKWwabjaEEUxsfHPuI9oPh9QWdbrb54H29YdXszqgnCIApKLV26_CCBVruSYpsa4Mnzro8wqZimeD1vwKavyGd_TkpkNkypnC-9Gc7J4jtibl9Bp-Ej_1TDXC7NJxRuQbkVW40]--></g></svg>