<?xml version="1.0" encoding="us-ascii" standalone="no"?><svg xmlns="http://www.w3.org/2000/svg" xmlns:xlink="http://www.w3.org/1999/xlink" contentStyleType="text/css" height="476px" preserveAspectRatio="none" style="width:596px;height:476px;background:#FFFFFF;" version="1.1" viewBox="0 0 596 476" width="596px" zoomAndPan="magnify"><defs/><g><text fill="#000000" font-family="sans-serif" font-size="14" font-weight="bold" lengthAdjust="spacing" textLength="76" x="256.5" y="30.1074">Edit a floor</text><rect fill="#FFFFFF" height="251.3281" style="stroke:#181818;stroke-width:1.0;" width="10" x="59" y="133.2422"/><rect fill="#FFFFFF" height="219.0371" style="stroke:#181818;stroke-width:1.0;" width="10" x="249" y="156.5332"/><rect fill="#FFFFFF" height="196.7461" style="stroke:#181818;stroke-width:1.0;" width="10" x="359" y="187.8242"/><line style="stroke:#181818;stroke-width:0.5;stroke-dasharray:5.0,5.0;" x1="64" x2="64" y1="123.2422" y2="393.5703"/><line style="stroke:#181818;stroke-width:0.5;stroke-dasharray:5.0,5.0;" x1="254" x2="254" y1="123.2422" y2="393.5703"/><line style="stroke:#181818;stroke-width:0.5;stroke-dasharray:5.0,5.0;" x1="364" x2="364" y1="123.2422" y2="393.5703"/><line style="stroke:#181818;stroke-width:0.5;stroke-dasharray:5.0,5.0;" x1="474" x2="474" y1="123.2422" y2="393.5703"/><text fill="#000000" font-family="sans-serif" font-size="14" lengthAdjust="spacing" textLength="112" x="5" y="119.7285">Campus Manager</text><ellipse cx="64" cy="53.1211" fill="#E2E2F0" rx="8" ry="8" style="stroke:#181818;stroke-width:0.5;"/><path d="M64,61.1211 L64,88.1211 M51,69.1211 L77,69.1211 M64,88.1211 L51,103.1211 M64,88.1211 L77,103.1211 " fill="none" style="stroke:#181818;stroke-width:0.5;"/><text fill="#000000" font-family="sans-serif" font-size="14" lengthAdjust="spacing" textLength="112" x="5" y="407.6777">Campus Manager</text><ellipse cx="64" cy="419.6914" fill="#E2E2F0" rx="8" ry="8" style="stroke:#181818;stroke-width:0.5;"/><path d="M64,427.6914 L64,454.6914 M51,435.6914 L77,435.6914 M64,454.6914 L51,469.6914 M64,454.6914 L77,469.6914 " fill="none" style="stroke:#181818;stroke-width:0.5;"/><rect fill="#E2E2F0" height="51.2422" rx="2.5" ry="2.5" style="stroke:#181818;stroke-width:0.5;" width="100" x="204" y="71"/><text fill="#000000" font-family="sans-serif" font-size="14" font-style="italic" lengthAdjust="spacing" textLength="86" x="211" y="93.1074">&#171;component&#187;</text><text fill="#000000" font-family="sans-serif" font-size="14" lengthAdjust="spacing" textLength="49" x="229.5" y="111.7285">Routing</text><rect fill="#E2E2F0" height="51.2422" rx="2.5" ry="2.5" style="stroke:#181818;stroke-width:0.5;" width="100" x="204" y="392.5703"/><text fill="#000000" font-family="sans-serif" font-size="14" font-style="italic" lengthAdjust="spacing" textLength="86" x="211" y="414.6777">&#171;component&#187;</text><text fill="#000000" font-family="sans-serif" font-size="14" lengthAdjust="spacing" textLength="49" x="229.5" y="433.2988">Routing</text><rect fill="#E2E2F0" height="51.2422" rx="2.5" ry="2.5" style="stroke:#181818;stroke-width:0.5;" width="100" x="314" y="71"/><text fill="#000000" font-family="sans-serif" font-size="14" font-style="italic" lengthAdjust="spacing" textLength="86" x="321" y="93.1074">&#171;component&#187;</text><text fill="#000000" font-family="sans-serif" font-size="14" lengthAdjust="spacing" textLength="73" x="327.5" y="111.7285">Component</text><rect fill="#E2E2F0" height="51.2422" rx="2.5" ry="2.5" style="stroke:#181818;stroke-width:0.5;" width="100" x="314" y="392.5703"/><text fill="#000000" font-family="sans-serif" font-size="14" font-style="italic" lengthAdjust="spacing" textLength="86" x="321" y="414.6777">&#171;component&#187;</text><text fill="#000000" font-family="sans-serif" font-size="14" lengthAdjust="spacing" textLength="73" x="327.5" y="433.2988">Component</text><rect fill="#E2E2F0" height="51.2422" rx="2.5" ry="2.5" style="stroke:#181818;stroke-width:0.5;" width="100" x="424" y="71"/><text fill="#000000" font-family="sans-serif" font-size="14" font-style="italic" lengthAdjust="spacing" textLength="86" x="431" y="93.1074">&#171;component&#187;</text><text fill="#000000" font-family="sans-serif" font-size="14" lengthAdjust="spacing" textLength="47" x="450.5" y="111.7285">Service</text><rect fill="#E2E2F0" height="51.2422" rx="2.5" ry="2.5" style="stroke:#181818;stroke-width:0.5;" width="100" x="424" y="392.5703"/><text fill="#000000" font-family="sans-serif" font-size="14" font-style="italic" lengthAdjust="spacing" textLength="86" x="431" y="414.6777">&#171;component&#187;</text><text fill="#000000" font-family="sans-serif" font-size="14" lengthAdjust="spacing" textLength="47" x="450.5" y="433.2988">Service</text><rect fill="#FFFFFF" height="251.3281" style="stroke:#181818;stroke-width:1.0;" width="10" x="59" y="133.2422"/><rect fill="#FFFFFF" height="219.0371" style="stroke:#181818;stroke-width:1.0;" width="10" x="249" y="156.5332"/><rect fill="#FFFFFF" height="196.7461" style="stroke:#181818;stroke-width:1.0;" width="10" x="359" y="187.8242"/><line style="stroke:#181818;stroke-width:1.0;" x1="247" x2="237" y1="156.5332" y2="152.5332"/><line style="stroke:#181818;stroke-width:1.0;" x1="247" x2="237" y1="156.5332" y2="160.5332"/><line style="stroke:#181818;stroke-width:1.0;" x1="69" x2="248" y1="156.5332" y2="156.5332"/><text fill="#000000" font-family="sans-serif" font-size="13" font-weight="bold" lengthAdjust="spacing" textLength="7" x="76" y="151.2705">1</text><text fill="#000000" font-family="sans-serif" font-size="13" lengthAdjust="spacing" textLength="150" x="87" y="151.2705">Navigate to editFloor page</text><line style="stroke:#181818;stroke-width:1.0;" x1="357" x2="347" y1="187.8242" y2="183.8242"/><line style="stroke:#181818;stroke-width:1.0;" x1="357" x2="347" y1="187.8242" y2="191.8242"/><line style="stroke:#181818;stroke-width:1.0;" x1="259" x2="358" y1="187.8242" y2="187.8242"/><text fill="#000000" font-family="sans-serif" font-size="13" font-weight="bold" lengthAdjust="spacing" textLength="7" x="266" y="182.5615">2</text><text fill="#000000" font-family="sans-serif" font-size="13" lengthAdjust="spacing" textLength="49" x="277" y="182.5615">edit floor</text><line style="stroke:#181818;stroke-width:1.0;" x1="472" x2="462" y1="219.1152" y2="215.1152"/><line style="stroke:#181818;stroke-width:1.0;" x1="472" x2="462" y1="219.1152" y2="223.1152"/><line style="stroke:#181818;stroke-width:1.0;" x1="369" x2="473" y1="219.1152" y2="219.1152"/><text fill="#000000" font-family="sans-serif" font-size="13" font-weight="bold" lengthAdjust="spacing" textLength="7" x="376" y="213.8525">3</text><text fill="#000000" font-family="sans-serif" font-size="13" lengthAdjust="spacing" textLength="49" x="387" y="213.8525">edit floor</text><line style="stroke:#181818;stroke-width:1.0;" x1="588" x2="578" y1="250.4063" y2="246.4063"/><line style="stroke:#181818;stroke-width:1.0;" x1="588" x2="578" y1="250.4063" y2="254.4063"/><line style="stroke:#181818;stroke-width:1.0;" x1="474" x2="589" y1="250.4063" y2="250.4063"/><text fill="#000000" font-family="sans-serif" font-size="13" font-weight="bold" lengthAdjust="spacing" textLength="7" x="481" y="245.1436">4</text><text fill="#000000" font-family="sans-serif" font-size="13" lengthAdjust="spacing" textLength="71" x="492" y="245.1436">Http request</text><line style="stroke:#181818;stroke-width:1.0;" x1="475" x2="485" y1="281.6973" y2="277.6973"/><line style="stroke:#181818;stroke-width:1.0;" x1="475" x2="485" y1="281.6973" y2="285.6973"/><line style="stroke:#181818;stroke-width:1.0;stroke-dasharray:2.0,2.0;" x1="474" x2="589" y1="281.6973" y2="281.6973"/><text fill="#000000" font-family="sans-serif" font-size="13" font-weight="bold" lengthAdjust="spacing" textLength="7" x="491" y="276.4346">5</text><text fill="#000000" font-family="sans-serif" font-size="13" lengthAdjust="spacing" textLength="81" x="502" y="276.4346">Http response</text><line style="stroke:#181818;stroke-width:1.0;" x1="370" x2="380" y1="312.9883" y2="308.9883"/><line style="stroke:#181818;stroke-width:1.0;" x1="370" x2="380" y1="312.9883" y2="316.9883"/><line style="stroke:#181818;stroke-width:1.0;stroke-dasharray:2.0,2.0;" x1="369" x2="473" y1="312.9883" y2="312.9883"/><text fill="#000000" font-family="sans-serif" font-size="13" font-weight="bold" lengthAdjust="spacing" textLength="7" x="386" y="307.7256">6</text><text fill="#000000" font-family="sans-serif" font-size="13" lengthAdjust="spacing" textLength="49" x="397" y="307.7256">success</text><line style="stroke:#181818;stroke-width:1.0;" x1="260" x2="270" y1="344.2793" y2="340.2793"/><line style="stroke:#181818;stroke-width:1.0;" x1="260" x2="270" y1="344.2793" y2="348.2793"/><line style="stroke:#181818;stroke-width:1.0;stroke-dasharray:2.0,2.0;" x1="259" x2="358" y1="344.2793" y2="344.2793"/><text fill="#000000" font-family="sans-serif" font-size="13" font-weight="bold" lengthAdjust="spacing" textLength="7" x="276" y="339.0166">7</text><text fill="#000000" font-family="sans-serif" font-size="13" lengthAdjust="spacing" textLength="49" x="287" y="339.0166">success</text><line style="stroke:#181818;stroke-width:1.0;" x1="70" x2="80" y1="375.5703" y2="371.5703"/><line style="stroke:#181818;stroke-width:1.0;" x1="70" x2="80" y1="375.5703" y2="379.5703"/><line style="stroke:#181818;stroke-width:1.0;stroke-dasharray:2.0,2.0;" x1="69" x2="253" y1="375.5703" y2="375.5703"/><text fill="#000000" font-family="sans-serif" font-size="13" font-weight="bold" lengthAdjust="spacing" textLength="7" x="86" y="370.3076">8</text><text fill="#000000" font-family="sans-serif" font-size="13" lengthAdjust="spacing" textLength="131" x="97" y="370.3076">Successfully response</text><!--SRC=[VP11ReCm44NtFiM8FHT04HkKg1kwA2UOEXDa1MpN7YFbzhKD3j15ToF_zyV_3mOsEipVv8H_ActHuGmMvHD76lWr4JYIB0GhZlFrhXWG7fCnJWYKR1nK7SusUEXHHu-h03rqlOYRM4bbKJDKNoQmqcFMt3h3vIBDR8qcpMrxnhiYP4F2_gC7SekIb5c_pd_mb5Gjo9I2TNtTjkyK3S0dBcfC8XkWMF2MsiKRZBJxDbmKMrgHSpNPShZ8oYTDP22H9TKPBg-9QE23sSPR_mJoBFOQTRrhFXRoT30UKlWW9NalxlJEi65Yot5kNVXuZlp9hWohyWZJzDe_FUmjj_W5]--></g></svg>