<?xml version="1.0" encoding="us-ascii" standalone="no"?><svg xmlns="http://www.w3.org/2000/svg" xmlns:xlink="http://www.w3.org/1999/xlink" contentStyleType="text/css" height="716px" preserveAspectRatio="none" style="width:962px;height:716px;background:#FFFFFF;" version="1.1" viewBox="0 0 962 716" width="962px" zoomAndPan="magnify"><defs/><g><text fill="#000000" font-family="sans-serif" font-size="14" font-weight="bold" lengthAdjust="spacing" textLength="142" x="411.75" y="30.1074">List all passageways</text><rect fill="#FFFFFF" height="437.7344" style="stroke:#181818;stroke-width:1.0;" width="10" x="89" y="161.1543"/><rect fill="#FFFFFF" height="375.1523" style="stroke:#181818;stroke-width:1.0;" width="10" x="222" y="192.4453"/><rect fill="#FFFFFF" height="312.5703" style="stroke:#181818;stroke-width:1.0;" width="10" x="355" y="223.7363"/><rect fill="#FFFFFF" height="93.873" style="stroke:#181818;stroke-width:1.0;" width="10" x="531" y="255.0273"/><rect fill="#FFFFFF" height="124.8242" style="stroke:#181818;stroke-width:1.0;" width="10" x="673.5" y="380.1914"/><rect fill="#FFFFFF" height="52.2422" style="stroke:#181818;stroke-width:1.0;" width="10" x="804.5" y="421.4824"/><rect fill="#FFFFFF" height="31.291" style="stroke:#181818;stroke-width:1.0;" width="10" x="910.5" y="286.3184"/><line style="stroke:#181818;stroke-width:0.5;stroke-dasharray:5.0,5.0;" x1="94" x2="94" y1="127.8633" y2="616.8887"/><line style="stroke:#181818;stroke-width:0.5;stroke-dasharray:5.0,5.0;" x1="227" x2="227" y1="127.8633" y2="616.8887"/><line style="stroke:#181818;stroke-width:0.5;stroke-dasharray:5.0,5.0;" x1="360" x2="360" y1="127.8633" y2="616.8887"/><line style="stroke:#181818;stroke-width:0.5;stroke-dasharray:5.0,5.0;" x1="535.5" x2="535.5" y1="127.8633" y2="616.8887"/><line style="stroke:#181818;stroke-width:0.5;stroke-dasharray:5.0,5.0;" x1="678.5" x2="678.5" y1="127.8633" y2="616.8887"/><line style="stroke:#181818;stroke-width:0.5;stroke-dasharray:5.0,5.0;" x1="809.5" x2="809.5" y1="429.3125" y2="616.8887"/><line style="stroke:#181818;stroke-width:0.5;stroke-dasharray:5.0,5.0;" x1="915.5" x2="915.5" y1="127.8633" y2="616.8887"/><rect fill="#E2E2F0" height="51.2422" rx="2.5" ry="2.5" style="stroke:#181818;stroke-width:0.5;" width="100" x="44" y="75.6211"/><text fill="#000000" font-family="sans-serif" font-size="14" font-style="italic" lengthAdjust="spacing" textLength="86" x="51" y="97.7285">&#171;component&#187;</text><text fill="#000000" font-family="sans-serif" font-size="14" lengthAdjust="spacing" textLength="49" x="69.5" y="116.3496">Routing</text><rect fill="#E2E2F0" height="51.2422" rx="2.5" ry="2.5" style="stroke:#181818;stroke-width:0.5;" width="100" x="44" y="615.8887"/><text fill="#000000" font-family="sans-serif" font-size="14" font-style="italic" lengthAdjust="spacing" textLength="86" x="51" y="637.9961">&#171;component&#187;</text><text fill="#000000" font-family="sans-serif" font-size="14" lengthAdjust="spacing" textLength="49" x="69.5" y="656.6172">Routing</text><rect fill="#E2E2F0" height="51.2422" rx="2.5" ry="2.5" style="stroke:#181818;stroke-width:0.5;" width="100" x="177" y="75.6211"/><text fill="#000000" font-family="sans-serif" font-size="14" font-style="italic" lengthAdjust="spacing" textLength="86" x="184" y="97.7285">&#171;component&#187;</text><text fill="#000000" font-family="sans-serif" font-size="14" lengthAdjust="spacing" textLength="62" x="196" y="116.3496">Controller</text><rect fill="#E2E2F0" height="51.2422" rx="2.5" ry="2.5" style="stroke:#181818;stroke-width:0.5;" width="100" x="177" y="615.8887"/><text fill="#000000" font-family="sans-serif" font-size="14" font-style="italic" lengthAdjust="spacing" textLength="86" x="184" y="637.9961">&#171;component&#187;</text><text fill="#000000" font-family="sans-serif" font-size="14" lengthAdjust="spacing" textLength="62" x="196" y="656.6172">Controller</text><rect fill="#E2E2F0" height="51.2422" rx="2.5" ry="2.5" style="stroke:#181818;stroke-width:0.5;" width="100" x="310" y="75.6211"/><text fill="#000000" font-family="sans-serif" font-size="14" font-style="italic" lengthAdjust="spacing" textLength="86" x="317" y="97.7285">&#171;component&#187;</text><text fill="#000000" font-family="sans-serif" font-size="14" lengthAdjust="spacing" textLength="47" x="336.5" y="116.3496">Service</text><rect fill="#E2E2F0" height="51.2422" rx="2.5" ry="2.5" style="stroke:#181818;stroke-width:0.5;" width="100" x="310" y="615.8887"/><text fill="#000000" font-family="sans-serif" font-size="14" font-style="italic" lengthAdjust="spacing" textLength="86" x="317" y="637.9961">&#171;component&#187;</text><text fill="#000000" font-family="sans-serif" font-size="14" lengthAdjust="spacing" textLength="47" x="336.5" y="656.6172">Service</text><rect fill="#E2E2F0" height="51.2422" rx="2.5" ry="2.5" style="stroke:#181818;stroke-width:0.5;" width="165" x="453.5" y="75.6211"/><text fill="#000000" font-family="sans-serif" font-size="14" font-style="italic" lengthAdjust="spacing" textLength="86" x="493" y="97.7285">&#171;component&#187;</text><text fill="#000000" font-family="sans-serif" font-size="14" lengthAdjust="spacing" textLength="151" x="460.5" y="116.3496">Passageway Repository</text><rect fill="#E2E2F0" height="51.2422" rx="2.5" ry="2.5" style="stroke:#181818;stroke-width:0.5;" width="165" x="453.5" y="615.8887"/><text fill="#000000" font-family="sans-serif" font-size="14" font-style="italic" lengthAdjust="spacing" textLength="86" x="493" y="637.9961">&#171;component&#187;</text><text fill="#000000" font-family="sans-serif" font-size="14" lengthAdjust="spacing" textLength="151" x="460.5" y="656.6172">Passageway Repository</text><rect fill="#E2E2F0" height="51.2422" rx="2.5" ry="2.5" style="stroke:#181818;stroke-width:0.5;" width="100" x="628.5" y="75.6211"/><text fill="#000000" font-family="sans-serif" font-size="14" font-style="italic" lengthAdjust="spacing" textLength="86" x="635.5" y="97.7285">&#171;component&#187;</text><text fill="#000000" font-family="sans-serif" font-size="14" lengthAdjust="spacing" textLength="27" x="665" y="116.3496">Map</text><rect fill="#E2E2F0" height="51.2422" rx="2.5" ry="2.5" style="stroke:#181818;stroke-width:0.5;" width="100" x="628.5" y="615.8887"/><text fill="#000000" font-family="sans-serif" font-size="14" font-style="italic" lengthAdjust="spacing" textLength="86" x="635.5" y="637.9961">&#171;component&#187;</text><text fill="#000000" font-family="sans-serif" font-size="14" lengthAdjust="spacing" textLength="27" x="665" y="656.6172">Map</text><rect fill="#E2E2F0" height="51.2422" rx="2.5" ry="2.5" style="stroke:#181818;stroke-width:0.5;" width="100" x="759.5" y="615.8887"/><text fill="#000000" font-family="sans-serif" font-size="14" font-style="italic" lengthAdjust="spacing" textLength="86" x="766.5" y="637.9961">&#171;component&#187;</text><text fill="#000000" font-family="sans-serif" font-size="14" lengthAdjust="spacing" textLength="30" x="794.5" y="656.6172">DTO</text><text fill="#000000" font-family="sans-serif" font-size="14" font-style="italic" lengthAdjust="spacing" textLength="86" x="869.5" y="105.7285">&#171;component&#187;</text><text fill="#000000" font-family="sans-serif" font-size="14" lengthAdjust="spacing" textLength="61" x="882" y="124.3496">Database</text><path d="M897.5,54.6211 C897.5,44.6211 915.5,44.6211 915.5,44.6211 C915.5,44.6211 933.5,44.6211 933.5,54.6211 L933.5,80.6211 C933.5,90.6211 915.5,90.6211 915.5,90.6211 C915.5,90.6211 897.5,90.6211 897.5,80.6211 L897.5,54.6211 " fill="#E2E2F0" style="stroke:#181818;stroke-width:1.5;"/><path d="M897.5,54.6211 C897.5,64.6211 915.5,64.6211 915.5,64.6211 C915.5,64.6211 933.5,64.6211 933.5,54.6211 " fill="none" style="stroke:#181818;stroke-width:1.5;"/><text fill="#000000" font-family="sans-serif" font-size="14" font-style="italic" lengthAdjust="spacing" textLength="86" x="869.5" y="630.9961">&#171;component&#187;</text><text fill="#000000" font-family="sans-serif" font-size="14" lengthAdjust="spacing" textLength="61" x="882" y="649.6172">Database</text><path d="M897.5,663.1309 C897.5,653.1309 915.5,653.1309 915.5,653.1309 C915.5,653.1309 933.5,653.1309 933.5,663.1309 L933.5,689.1309 C933.5,699.1309 915.5,699.1309 915.5,699.1309 C915.5,699.1309 897.5,699.1309 897.5,689.1309 L897.5,663.1309 " fill="#E2E2F0" style="stroke:#181818;stroke-width:1.5;"/><path d="M897.5,663.1309 C897.5,673.1309 915.5,673.1309 915.5,673.1309 C915.5,673.1309 933.5,673.1309 933.5,663.1309 " fill="none" style="stroke:#181818;stroke-width:1.5;"/><rect fill="#FFFFFF" height="437.7344" style="stroke:#181818;stroke-width:1.0;" width="10" x="89" y="161.1543"/><rect fill="#FFFFFF" height="375.1523" style="stroke:#181818;stroke-width:1.0;" width="10" x="222" y="192.4453"/><rect fill="#FFFFFF" height="312.5703" style="stroke:#181818;stroke-width:1.0;" width="10" x="355" y="223.7363"/><rect fill="#FFFFFF" height="93.873" style="stroke:#181818;stroke-width:1.0;" width="10" x="531" y="255.0273"/><rect fill="#FFFFFF" height="124.8242" style="stroke:#181818;stroke-width:1.0;" width="10" x="673.5" y="380.1914"/><rect fill="#FFFFFF" height="52.2422" style="stroke:#181818;stroke-width:1.0;" width="10" x="804.5" y="421.4824"/><rect fill="#FFFFFF" height="31.291" style="stroke:#181818;stroke-width:1.0;" width="10" x="910.5" y="286.3184"/><ellipse cx="29.5" cy="160.4043" fill="none" rx="4" ry="4" style="stroke:#181818;stroke-width:1.5;"/><line style="stroke:#181818;stroke-width:1.0;" x1="87" x2="77" y1="161.1543" y2="157.1543"/><line style="stroke:#181818;stroke-width:1.0;" x1="87" x2="77" y1="161.1543" y2="165.1543"/><line style="stroke:#181818;stroke-width:1.0;" x1="34" x2="88" y1="161.1543" y2="161.1543"/><text fill="#000000" font-family="sans-serif" font-size="13" font-weight="bold" lengthAdjust="spacing" textLength="7" x="37" y="155.8916">1</text><text fill="#000000" font-family="sans-serif" font-size="13" lengthAdjust="spacing" textLength="26" x="48" y="155.8916">GET</text><line style="stroke:#181818;stroke-width:1.0;" x1="220" x2="210" y1="192.4453" y2="188.4453"/><line style="stroke:#181818;stroke-width:1.0;" x1="220" x2="210" y1="192.4453" y2="196.4453"/><line style="stroke:#181818;stroke-width:1.0;" x1="99" x2="221" y1="192.4453" y2="192.4453"/><text fill="#000000" font-family="sans-serif" font-size="13" font-weight="bold" lengthAdjust="spacing" textLength="7" x="106" y="187.1826">2</text><text fill="#000000" font-family="sans-serif" font-size="13" lengthAdjust="spacing" textLength="93" x="117" y="187.1826">list passageway</text><line style="stroke:#181818;stroke-width:1.0;" x1="353" x2="343" y1="223.7363" y2="219.7363"/><line style="stroke:#181818;stroke-width:1.0;" x1="353" x2="343" y1="223.7363" y2="227.7363"/><line style="stroke:#181818;stroke-width:1.0;" x1="232" x2="354" y1="223.7363" y2="223.7363"/><text fill="#000000" font-family="sans-serif" font-size="13" font-weight="bold" lengthAdjust="spacing" textLength="7" x="239" y="218.4736">3</text><text fill="#000000" font-family="sans-serif" font-size="13" lengthAdjust="spacing" textLength="93" x="250" y="218.4736">list passageway</text><line style="stroke:#181818;stroke-width:1.0;" x1="529" x2="519" y1="255.0273" y2="251.0273"/><line style="stroke:#181818;stroke-width:1.0;" x1="529" x2="519" y1="255.0273" y2="259.0273"/><line style="stroke:#181818;stroke-width:1.0;" x1="365" x2="530" y1="255.0273" y2="255.0273"/><text fill="#000000" font-family="sans-serif" font-size="13" font-weight="bold" lengthAdjust="spacing" textLength="7" x="372" y="249.7646">4</text><text fill="#000000" font-family="sans-serif" font-size="13" lengthAdjust="spacing" textLength="136" x="383" y="249.7646">get list of passageways</text><line style="stroke:#181818;stroke-width:1.0;" x1="908.5" x2="898.5" y1="286.3184" y2="282.3184"/><line style="stroke:#181818;stroke-width:1.0;" x1="908.5" x2="898.5" y1="286.3184" y2="290.3184"/><line style="stroke:#181818;stroke-width:1.0;" x1="541" x2="909.5" y1="286.3184" y2="286.3184"/><text fill="#000000" font-family="sans-serif" font-size="13" font-weight="bold" lengthAdjust="spacing" textLength="7" x="548" y="281.0557">5</text><text fill="#000000" font-family="sans-serif" font-size="13" lengthAdjust="spacing" textLength="118" x="559" y="281.0557">select passageways</text><line style="stroke:#181818;stroke-width:1.0;" x1="542" x2="552" y1="317.6094" y2="313.6094"/><line style="stroke:#181818;stroke-width:1.0;" x1="542" x2="552" y1="317.6094" y2="321.6094"/><line style="stroke:#181818;stroke-width:1.0;stroke-dasharray:2.0,2.0;" x1="541" x2="914.5" y1="317.6094" y2="317.6094"/><text fill="#000000" font-family="sans-serif" font-size="13" font-weight="bold" lengthAdjust="spacing" textLength="7" x="558" y="312.3467">6</text><text fill="#000000" font-family="sans-serif" font-size="13" lengthAdjust="spacing" textLength="17" x="569" y="312.3467">list</text><line style="stroke:#181818;stroke-width:1.0;" x1="366" x2="376" y1="348.9004" y2="344.9004"/><line style="stroke:#181818;stroke-width:1.0;" x1="366" x2="376" y1="348.9004" y2="352.9004"/><line style="stroke:#181818;stroke-width:1.0;stroke-dasharray:2.0,2.0;" x1="365" x2="535" y1="348.9004" y2="348.9004"/><text fill="#000000" font-family="sans-serif" font-size="13" font-weight="bold" lengthAdjust="spacing" textLength="7" x="382" y="343.6377">7</text><text fill="#000000" font-family="sans-serif" font-size="13" lengthAdjust="spacing" textLength="114" x="393" y="343.6377">list of passageways</text><line style="stroke:#181818;stroke-width:1.0;" x1="671.5" x2="661.5" y1="380.1914" y2="376.1914"/><line style="stroke:#181818;stroke-width:1.0;" x1="671.5" x2="661.5" y1="380.1914" y2="384.1914"/><line style="stroke:#181818;stroke-width:1.0;" x1="365" x2="672.5" y1="380.1914" y2="380.1914"/><text fill="#000000" font-family="sans-serif" font-size="13" font-weight="bold" lengthAdjust="spacing" textLength="7" x="372" y="374.9287">8</text><text fill="#000000" font-family="sans-serif" font-size="13" lengthAdjust="spacing" textLength="111" x="383" y="374.9287">convert to DTO List</text><line style="stroke:#181818;stroke-width:1.0;" x1="757.5" x2="747.5" y1="411.4824" y2="407.4824"/><line style="stroke:#181818;stroke-width:1.0;" x1="757.5" x2="747.5" y1="411.4824" y2="415.4824"/><line style="stroke:#181818;stroke-width:1.0;stroke-dasharray:2.0,2.0;" x1="683.5" x2="758.5" y1="411.4824" y2="411.4824"/><text fill="#000000" font-family="sans-serif" font-size="13" font-weight="bold" lengthAdjust="spacing" textLength="7" x="690.5" y="406.2197">9</text><text fill="#000000" font-family="sans-serif" font-size="13" lengthAdjust="spacing" textLength="41" x="701.5" y="406.2197">convert</text><rect fill="#E2E2F0" height="51.2422" rx="2.5" ry="2.5" style="stroke:#181818;stroke-width:0.5;" width="100" x="759.5" y="388.1914"/><text fill="#000000" font-family="sans-serif" font-size="14" font-style="italic" lengthAdjust="spacing" textLength="86" x="766.5" y="410.2988">&#171;component&#187;</text><text fill="#000000" font-family="sans-serif" font-size="14" lengthAdjust="spacing" textLength="30" x="794.5" y="428.9199">DTO</text><line style="stroke:#181818;stroke-width:1.0;" x1="684.5" x2="694.5" y1="473.7246" y2="469.7246"/><line style="stroke:#181818;stroke-width:1.0;" x1="684.5" x2="694.5" y1="473.7246" y2="477.7246"/><line style="stroke:#181818;stroke-width:1.0;stroke-dasharray:2.0,2.0;" x1="683.5" x2="808.5" y1="473.7246" y2="473.7246"/><text fill="#000000" font-family="sans-serif" font-size="13" font-weight="bold" lengthAdjust="spacing" textLength="14" x="700.5" y="468.4619">10</text><text fill="#000000" font-family="sans-serif" font-size="13" lengthAdjust="spacing" textLength="39" x="718.5" y="468.4619">dto list</text><line style="stroke:#181818;stroke-width:1.0;" x1="366" x2="376" y1="505.0156" y2="501.0156"/><line style="stroke:#181818;stroke-width:1.0;" x1="366" x2="376" y1="505.0156" y2="509.0156"/><line style="stroke:#181818;stroke-width:1.0;stroke-dasharray:2.0,2.0;" x1="365" x2="677.5" y1="505.0156" y2="505.0156"/><text fill="#000000" font-family="sans-serif" font-size="13" font-weight="bold" lengthAdjust="spacing" textLength="14" x="382" y="499.7529">11</text><text fill="#000000" font-family="sans-serif" font-size="13" lengthAdjust="spacing" textLength="39" x="400" y="499.7529">dto list</text><line style="stroke:#181818;stroke-width:1.0;" x1="233" x2="243" y1="536.3066" y2="532.3066"/><line style="stroke:#181818;stroke-width:1.0;" x1="233" x2="243" y1="536.3066" y2="540.3066"/><line style="stroke:#181818;stroke-width:1.0;stroke-dasharray:2.0,2.0;" x1="232" x2="359" y1="536.3066" y2="536.3066"/><text fill="#000000" font-family="sans-serif" font-size="13" font-weight="bold" lengthAdjust="spacing" textLength="14" x="249" y="531.0439">12</text><text fill="#000000" font-family="sans-serif" font-size="13" lengthAdjust="spacing" textLength="49" x="267" y="531.0439">success</text><line style="stroke:#181818;stroke-width:1.0;" x1="100" x2="110" y1="567.5977" y2="563.5977"/><line style="stroke:#181818;stroke-width:1.0;" x1="100" x2="110" y1="567.5977" y2="571.5977"/><line style="stroke:#181818;stroke-width:1.0;stroke-dasharray:2.0,2.0;" x1="99" x2="226" y1="567.5977" y2="567.5977"/><text fill="#000000" font-family="sans-serif" font-size="13" font-weight="bold" lengthAdjust="spacing" textLength="14" x="116" y="562.335">13</text><text fill="#000000" font-family="sans-serif" font-size="13" lengthAdjust="spacing" textLength="49" x="134" y="562.335">success</text><line style="stroke:#181818;stroke-width:1.0;" x1="6.5" x2="16.5" y1="598.8887" y2="594.8887"/><line style="stroke:#181818;stroke-width:1.0;" x1="6.5" x2="16.5" y1="598.8887" y2="602.8887"/><line style="stroke:#181818;stroke-width:1.0;stroke-dasharray:2.0,2.0;" x1="0" x2="93" y1="598.8887" y2="598.8887"/><text fill="#000000" font-family="sans-serif" font-size="13" font-weight="bold" lengthAdjust="spacing" textLength="14" x="17" y="593.626">14</text><text fill="#000000" font-family="sans-serif" font-size="13" lengthAdjust="spacing" textLength="44" x="35" y="593.626">200 OK</text><!--SRC=[VPDDReCm48NtSmghoqX8KPS8qKLRTT5MgP9SO31kP0KmieTKkNrj4x1D8dO6llVcnmySI7L3MmaDvYox7ZMsh4T-nfCuqBKHJ0jE02J9dh-a8OPDOmbZBF67LmDWHIIvxB4ZzhHN0ydkzCJGC3sUML5mrVQg4nsLPOg_gewqQXgXlOBFZskYWz0NoOLNcF6yXl_CpRAzw9MHfFJLYyCOsdvOy_Z6tYjQxDUmj-FEOpKjtMeahD08oznE8rWjE7XHMLdEgylPn_iHa9Ey88dfDKoV7HhjB6UDkw4m5WHfm21IE8DfXMlg6mCJwtIBxUNi96YqKBzfGcQRL08B1sTg5vBRQerDNU8nMzGLM2Pxs80h3hM8sRiQ3oPUj1iPBFfDndTHoDrQBq8JinTkBz__8Q5NYm0upbUreTXiWYGQYQorYqmMVDtZtJYEc-t248zONtfkzoudPk1Sc6JMwOgJUAHPVA2AOcMZMnHP5l7FsotRVSRu5E1_]--></g></svg>