<?xml version="1.0" encoding="us-ascii" standalone="no"?><svg xmlns="http://www.w3.org/2000/svg" xmlns:xlink="http://www.w3.org/1999/xlink" contentStyleType="text/css" height="539px" preserveAspectRatio="none" style="width:755px;height:539px;background:#FFFFFF;" version="1.1" viewBox="0 0 755 539" width="755px" zoomAndPan="magnify"><defs/><g><text fill="#000000" font-family="sans-serif" font-size="14" font-weight="bold" lengthAdjust="spacing" textLength="142" x="303" y="30.1074">List all passageways</text><rect fill="#FFFFFF" height="281.6191" style="stroke:#181818;stroke-width:1.0;" width="10" x="59" y="156.5332"/><rect fill="#FFFFFF" height="281.6191" style="stroke:#181818;stroke-width:1.0;" width="10" x="264" y="156.5332"/><rect fill="#FFFFFF" height="219.0371" style="stroke:#181818;stroke-width:1.0;" width="10" x="421" y="187.8242"/><rect fill="#FFFFFF" height="156.4551" style="stroke:#181818;stroke-width:1.0;" width="10" x="584" y="219.1152"/><line style="stroke:#181818;stroke-width:0.5;stroke-dasharray:5.0,5.0;" x1="64" x2="64" y1="123.2422" y2="456.1523"/><line style="stroke:#181818;stroke-width:0.5;stroke-dasharray:5.0,5.0;" x1="269" x2="269" y1="123.2422" y2="456.1523"/><line style="stroke:#181818;stroke-width:0.5;stroke-dasharray:5.0,5.0;" x1="426" x2="426" y1="123.2422" y2="456.1523"/><line style="stroke:#181818;stroke-width:0.5;stroke-dasharray:5.0,5.0;" x1="589" x2="589" y1="123.2422" y2="456.1523"/><text fill="#000000" font-family="sans-serif" font-size="14" lengthAdjust="spacing" textLength="112" x="5" y="119.7285">Campus Manager</text><ellipse cx="64" cy="53.1211" fill="#E2E2F0" rx="8" ry="8" style="stroke:#181818;stroke-width:0.5;"/><path d="M64,61.1211 L64,88.1211 M51,69.1211 L77,69.1211 M64,88.1211 L51,103.1211 M64,88.1211 L77,103.1211 " fill="none" style="stroke:#181818;stroke-width:0.5;"/><text fill="#000000" font-family="sans-serif" font-size="14" lengthAdjust="spacing" textLength="112" x="5" y="470.2598">Campus Manager</text><ellipse cx="64" cy="482.2734" fill="#E2E2F0" rx="8" ry="8" style="stroke:#181818;stroke-width:0.5;"/><path d="M64,490.2734 L64,517.2734 M51,498.2734 L77,498.2734 M64,517.2734 L51,532.2734 M64,517.2734 L77,532.2734 " fill="none" style="stroke:#181818;stroke-width:0.5;"/><rect fill="#E2E2F0" height="51.2422" rx="2.5" ry="2.5" style="stroke:#181818;stroke-width:0.5;" width="100" x="219" y="71"/><text fill="#000000" font-family="sans-serif" font-size="14" font-style="italic" lengthAdjust="spacing" textLength="86" x="226" y="93.1074">&#171;component&#187;</text><text fill="#000000" font-family="sans-serif" font-size="14" lengthAdjust="spacing" textLength="49" x="244.5" y="111.7285">Routing</text><rect fill="#E2E2F0" height="51.2422" rx="2.5" ry="2.5" style="stroke:#181818;stroke-width:0.5;" width="100" x="219" y="455.1523"/><text fill="#000000" font-family="sans-serif" font-size="14" font-style="italic" lengthAdjust="spacing" textLength="86" x="226" y="477.2598">&#171;component&#187;</text><text fill="#000000" font-family="sans-serif" font-size="14" lengthAdjust="spacing" textLength="49" x="244.5" y="495.8809">Routing</text><rect fill="#E2E2F0" height="51.2422" rx="2.5" ry="2.5" style="stroke:#181818;stroke-width:0.5;" width="100" x="376" y="71"/><text fill="#000000" font-family="sans-serif" font-size="14" font-style="italic" lengthAdjust="spacing" textLength="86" x="383" y="93.1074">&#171;component&#187;</text><text fill="#000000" font-family="sans-serif" font-size="14" lengthAdjust="spacing" textLength="73" x="389.5" y="111.7285">Component</text><rect fill="#E2E2F0" height="51.2422" rx="2.5" ry="2.5" style="stroke:#181818;stroke-width:0.5;" width="100" x="376" y="455.1523"/><text fill="#000000" font-family="sans-serif" font-size="14" font-style="italic" lengthAdjust="spacing" textLength="86" x="383" y="477.2598">&#171;component&#187;</text><text fill="#000000" font-family="sans-serif" font-size="14" lengthAdjust="spacing" textLength="73" x="389.5" y="495.8809">Component</text><rect fill="#E2E2F0" height="51.2422" rx="2.5" ry="2.5" style="stroke:#181818;stroke-width:0.5;" width="100" x="539" y="71"/><text fill="#000000" font-family="sans-serif" font-size="14" font-style="italic" lengthAdjust="spacing" textLength="86" x="546" y="93.1074">&#171;component&#187;</text><text fill="#000000" font-family="sans-serif" font-size="14" lengthAdjust="spacing" textLength="47" x="565.5" y="111.7285">Service</text><rect fill="#E2E2F0" height="51.2422" rx="2.5" ry="2.5" style="stroke:#181818;stroke-width:0.5;" width="100" x="539" y="455.1523"/><text fill="#000000" font-family="sans-serif" font-size="14" font-style="italic" lengthAdjust="spacing" textLength="86" x="546" y="477.2598">&#171;component&#187;</text><text fill="#000000" font-family="sans-serif" font-size="14" lengthAdjust="spacing" textLength="47" x="565.5" y="495.8809">Service</text><rect fill="#FFFFFF" height="281.6191" style="stroke:#181818;stroke-width:1.0;" width="10" x="59" y="156.5332"/><rect fill="#FFFFFF" height="281.6191" style="stroke:#181818;stroke-width:1.0;" width="10" x="264" y="156.5332"/><rect fill="#FFFFFF" height="219.0371" style="stroke:#181818;stroke-width:1.0;" width="10" x="421" y="187.8242"/><rect fill="#FFFFFF" height="156.4551" style="stroke:#181818;stroke-width:1.0;" width="10" x="584" y="219.1152"/><line style="stroke:#181818;stroke-width:1.0;" x1="262" x2="252" y1="156.5332" y2="152.5332"/><line style="stroke:#181818;stroke-width:1.0;" x1="262" x2="252" y1="156.5332" y2="160.5332"/><line style="stroke:#181818;stroke-width:1.0;" x1="69" x2="263" y1="156.5332" y2="156.5332"/><text fill="#000000" font-family="sans-serif" font-size="13" font-weight="bold" lengthAdjust="spacing" textLength="7" x="76" y="151.2705">1</text><text fill="#000000" font-family="sans-serif" font-size="13" lengthAdjust="spacing" textLength="170" x="87" y="151.2705">wants to list all passageways</text><line style="stroke:#181818;stroke-width:1.0;" x1="419" x2="409" y1="187.8242" y2="183.8242"/><line style="stroke:#181818;stroke-width:1.0;" x1="419" x2="409" y1="187.8242" y2="191.8242"/><line style="stroke:#181818;stroke-width:1.0;" x1="274" x2="420" y1="187.8242" y2="187.8242"/><text fill="#000000" font-family="sans-serif" font-size="13" font-weight="bold" lengthAdjust="spacing" textLength="7" x="281" y="182.5615">2</text><text fill="#000000" font-family="sans-serif" font-size="13" lengthAdjust="spacing" textLength="117" x="292" y="182.5615">list all passageways</text><line style="stroke:#181818;stroke-width:1.0;" x1="582" x2="572" y1="219.1152" y2="215.1152"/><line style="stroke:#181818;stroke-width:1.0;" x1="582" x2="572" y1="219.1152" y2="223.1152"/><line style="stroke:#181818;stroke-width:1.0;" x1="431" x2="583" y1="219.1152" y2="219.1152"/><text fill="#000000" font-family="sans-serif" font-size="13" font-weight="bold" lengthAdjust="spacing" textLength="7" x="438" y="213.8525">3</text><text fill="#000000" font-family="sans-serif" font-size="13" lengthAdjust="spacing" textLength="117" x="449" y="213.8525">list all passageways</text><polygon fill="#181818" points="737,246.4063,747,250.4063,737,254.4063,741,250.4063" style="stroke:#181818;stroke-width:1.0;"/><line style="stroke:#181818;stroke-width:1.0;stroke-dasharray:2.0,2.0;" x1="594" x2="743" y1="250.4063" y2="250.4063"/><text fill="#000000" font-family="sans-serif" font-size="13" font-weight="bold" lengthAdjust="spacing" textLength="7" x="601" y="245.1436">4</text><text fill="#000000" font-family="sans-serif" font-size="13" lengthAdjust="spacing" textLength="72" x="612" y="245.1436">HttpRequest</text><line style="stroke:#181818;stroke-width:1.0;" x1="595" x2="605" y1="281.6973" y2="277.6973"/><line style="stroke:#181818;stroke-width:1.0;" x1="595" x2="605" y1="281.6973" y2="285.6973"/><line style="stroke:#181818;stroke-width:1.0;stroke-dasharray:2.0,2.0;" x1="594" x2="748" y1="281.6973" y2="281.6973"/><text fill="#000000" font-family="sans-serif" font-size="13" font-weight="bold" lengthAdjust="spacing" textLength="7" x="611" y="276.4346">5</text><text fill="#000000" font-family="sans-serif" font-size="13" lengthAdjust="spacing" textLength="120" x="622" y="276.4346">HttpResponse (GET)</text><line style="stroke:#181818;stroke-width:1.0;" x1="432" x2="442" y1="312.9883" y2="308.9883"/><line style="stroke:#181818;stroke-width:1.0;" x1="432" x2="442" y1="312.9883" y2="316.9883"/><line style="stroke:#181818;stroke-width:1.0;stroke-dasharray:2.0,2.0;" x1="431" x2="583" y1="312.9883" y2="312.9883"/><text fill="#000000" font-family="sans-serif" font-size="13" font-weight="bold" lengthAdjust="spacing" textLength="7" x="448" y="307.7256">6</text><text fill="#000000" font-family="sans-serif" font-size="13" lengthAdjust="spacing" textLength="115" x="459" y="307.7256">HttpResponse (200)</text><line style="stroke:#181818;stroke-width:1.0;" x1="582" x2="572" y1="344.2793" y2="340.2793"/><line style="stroke:#181818;stroke-width:1.0;" x1="582" x2="572" y1="344.2793" y2="348.2793"/><line style="stroke:#181818;stroke-width:1.0;" x1="431" x2="583" y1="344.2793" y2="344.2793"/><text fill="#000000" font-family="sans-serif" font-size="13" font-weight="bold" lengthAdjust="spacing" textLength="7" x="438" y="339.0166">7</text><text fill="#000000" font-family="sans-serif" font-size="13" lengthAdjust="spacing" textLength="118" x="449" y="339.0166">HttpResponse to list</text><line style="stroke:#181818;stroke-width:1.0;" x1="432" x2="442" y1="375.5703" y2="371.5703"/><line style="stroke:#181818;stroke-width:1.0;" x1="432" x2="442" y1="375.5703" y2="379.5703"/><line style="stroke:#181818;stroke-width:1.0;stroke-dasharray:2.0,2.0;" x1="431" x2="588" y1="375.5703" y2="375.5703"/><text fill="#000000" font-family="sans-serif" font-size="13" font-weight="bold" lengthAdjust="spacing" textLength="7" x="448" y="370.3076">8</text><text fill="#000000" font-family="sans-serif" font-size="13" lengthAdjust="spacing" textLength="21" x="459" y="370.3076">List</text><line style="stroke:#181818;stroke-width:1.0;" x1="275" x2="285" y1="406.8613" y2="402.8613"/><line style="stroke:#181818;stroke-width:1.0;" x1="275" x2="285" y1="406.8613" y2="410.8613"/><line style="stroke:#181818;stroke-width:1.0;stroke-dasharray:2.0,2.0;" x1="274" x2="425" y1="406.8613" y2="406.8613"/><text fill="#000000" font-family="sans-serif" font-size="13" font-weight="bold" lengthAdjust="spacing" textLength="7" x="291" y="401.5986">9</text><text fill="#000000" font-family="sans-serif" font-size="13" lengthAdjust="spacing" textLength="49" x="302" y="401.5986">success</text><line style="stroke:#181818;stroke-width:1.0;" x1="65" x2="75" y1="438.1523" y2="434.1523"/><line style="stroke:#181818;stroke-width:1.0;" x1="65" x2="75" y1="438.1523" y2="442.1523"/><line style="stroke:#181818;stroke-width:1.0;stroke-dasharray:2.0,2.0;" x1="64" x2="268" y1="438.1523" y2="438.1523"/><text fill="#000000" font-family="sans-serif" font-size="13" font-weight="bold" lengthAdjust="spacing" textLength="14" x="81" y="432.8896">10</text><text fill="#000000" font-family="sans-serif" font-size="13" lengthAdjust="spacing" textLength="124" x="99" y="432.8896">lists all passageways</text><!--SRC=[XPBBRi8m44Nt_eeHcvP52keIHTb4g5sK3VG7N3EY5edZUiOW_hvZa_1MknjvphtpyjCtiwVPPE8RxJYspOlfsWdXJqHdi5XRlGcwLKf7xbnilp0esbhdjRo2rsQhDxZYGuCGqB1IR5dY3qiCkcc4819Yhmya7eQx0ADQjpuIBBIJJ1Y19gWNIXpP6kkb2nWjkyZMRN8k76CeI-dCTmuTLzKrNW-9B4ZON_GAmyuQp2mTunjSgNfHLDMfz0pseYJW3ff7aybWTgSPqnodk1UhmIGPvjPcZqtEoaIfZ2RDqEA_iXvKWw0eAX6zotsNwPp4GwOiYm9EAPAn2U7vRVuvLltk97ykUuszJgVZk-Pke7vF3ztIrr1hlEkwzxnUEqLZaEYIpykH-sJRCvdgqTroBdJ3EIwUv5g_]--></g></svg>