<?xml version="1.0" encoding="us-ascii" standalone="no"?><svg xmlns="http://www.w3.org/2000/svg" xmlns:xlink="http://www.w3.org/1999/xlink" contentStyleType="text/css" height="885px" preserveAspectRatio="none" style="width:1446px;height:885px;background:#FFFFFF;" version="1.1" viewBox="0 0 1446 885" width="1446px" zoomAndPan="magnify"><defs/><g><text fill="#000000" font-family="sans-serif" font-size="14" font-weight="bold" lengthAdjust="spacing" textLength="311" x="569.25" y="30.1074">List all floors with passageways of a building</text><rect fill="#FFFFFF" height="607.1895" style="stroke:#181818;stroke-width:1.0;" width="10" x="150" y="161.1543"/><rect fill="#FFFFFF" height="544.6074" style="stroke:#181818;stroke-width:1.0;" width="10" x="352" y="192.4453"/><rect fill="#FFFFFF" height="482.0254" style="stroke:#181818;stroke-width:1.0;" width="10" x="554" y="223.7363"/><rect fill="#FFFFFF" height="93.873" style="stroke:#181818;stroke-width:1.0;" width="10" x="856" y="255.0273"/><rect fill="#FFFFFF" height="93.873" style="stroke:#181818;stroke-width:1.0;" width="10" x="1008" y="380.1914"/><rect fill="#FFFFFF" height="124.8242" style="stroke:#181818;stroke-width:1.0;" width="10" x="1150.5" y="549.6465"/><rect fill="#FFFFFF" height="52.2422" style="stroke:#181818;stroke-width:1.0;" width="10" x="1288.5" y="590.9375"/><rect fill="#FFFFFF" height="31.291" style="stroke:#181818;stroke-width:1.0;" width="10" x="1394.5" y="286.3184"/><rect fill="#FFFFFF" height="31.291" style="stroke:#181818;stroke-width:1.0;" width="10" x="1394.5" y="411.4824"/><line style="stroke:#181818;stroke-width:0.5;stroke-dasharray:5.0,5.0;" x1="155" x2="155" y1="127.8633" y2="786.3438"/><line style="stroke:#181818;stroke-width:0.5;stroke-dasharray:5.0,5.0;" x1="357" x2="357" y1="127.8633" y2="786.3438"/><line style="stroke:#181818;stroke-width:0.5;stroke-dasharray:5.0,5.0;" x1="559" x2="559" y1="127.8633" y2="786.3438"/><line style="stroke:#181818;stroke-width:0.5;stroke-dasharray:5.0,5.0;" x1="860.5" x2="860.5" y1="127.8633" y2="786.3438"/><line style="stroke:#181818;stroke-width:0.5;stroke-dasharray:5.0,5.0;" x1="1012.5" x2="1012.5" y1="127.8633" y2="786.3438"/><line style="stroke:#181818;stroke-width:0.5;stroke-dasharray:5.0,5.0;" x1="1155.5" x2="1155.5" y1="127.8633" y2="786.3438"/><line style="stroke:#181818;stroke-width:0.5;stroke-dasharray:5.0,5.0;" x1="1293.5" x2="1293.5" y1="598.7676" y2="786.3438"/><line style="stroke:#181818;stroke-width:0.5;stroke-dasharray:5.0,5.0;" x1="1399.5" x2="1399.5" y1="127.8633" y2="786.3438"/><rect fill="#E2E2F0" height="51.2422" rx="2.5" ry="2.5" style="stroke:#181818;stroke-width:0.5;" width="100" x="105" y="75.6211"/><text fill="#000000" font-family="sans-serif" font-size="14" font-style="italic" lengthAdjust="spacing" textLength="86" x="112" y="97.7285">&#171;component&#187;</text><text fill="#000000" font-family="sans-serif" font-size="14" lengthAdjust="spacing" textLength="49" x="130.5" y="116.3496">Routing</text><rect fill="#E2E2F0" height="51.2422" rx="2.5" ry="2.5" style="stroke:#181818;stroke-width:0.5;" width="100" x="105" y="785.3438"/><text fill="#000000" font-family="sans-serif" font-size="14" font-style="italic" lengthAdjust="spacing" textLength="86" x="112" y="807.4512">&#171;component&#187;</text><text fill="#000000" font-family="sans-serif" font-size="14" lengthAdjust="spacing" textLength="49" x="130.5" y="826.0723">Routing</text><rect fill="#E2E2F0" height="51.2422" rx="2.5" ry="2.5" style="stroke:#181818;stroke-width:0.5;" width="100" x="307" y="75.6211"/><text fill="#000000" font-family="sans-serif" font-size="14" font-style="italic" lengthAdjust="spacing" textLength="86" x="314" y="97.7285">&#171;component&#187;</text><text fill="#000000" font-family="sans-serif" font-size="14" lengthAdjust="spacing" textLength="62" x="326" y="116.3496">Controller</text><rect fill="#E2E2F0" height="51.2422" rx="2.5" ry="2.5" style="stroke:#181818;stroke-width:0.5;" width="100" x="307" y="785.3438"/><text fill="#000000" font-family="sans-serif" font-size="14" font-style="italic" lengthAdjust="spacing" textLength="86" x="314" y="807.4512">&#171;component&#187;</text><text fill="#000000" font-family="sans-serif" font-size="14" lengthAdjust="spacing" textLength="62" x="326" y="826.0723">Controller</text><rect fill="#E2E2F0" height="51.2422" rx="2.5" ry="2.5" style="stroke:#181818;stroke-width:0.5;" width="100" x="509" y="75.6211"/><text fill="#000000" font-family="sans-serif" font-size="14" font-style="italic" lengthAdjust="spacing" textLength="86" x="516" y="97.7285">&#171;component&#187;</text><text fill="#000000" font-family="sans-serif" font-size="14" lengthAdjust="spacing" textLength="47" x="535.5" y="116.3496">Service</text><rect fill="#E2E2F0" height="51.2422" rx="2.5" ry="2.5" style="stroke:#181818;stroke-width:0.5;" width="100" x="509" y="785.3438"/><text fill="#000000" font-family="sans-serif" font-size="14" font-style="italic" lengthAdjust="spacing" textLength="86" x="516" y="807.4512">&#171;component&#187;</text><text fill="#000000" font-family="sans-serif" font-size="14" lengthAdjust="spacing" textLength="47" x="535.5" y="826.0723">Service</text><rect fill="#E2E2F0" height="51.2422" rx="2.5" ry="2.5" style="stroke:#181818;stroke-width:0.5;" width="119" x="801.5" y="75.6211"/><text fill="#000000" font-family="sans-serif" font-size="14" font-style="italic" lengthAdjust="spacing" textLength="86" x="818" y="97.7285">&#171;component&#187;</text><text fill="#000000" font-family="sans-serif" font-size="14" lengthAdjust="spacing" textLength="105" x="808.5" y="116.3496">Floor Repository</text><rect fill="#E2E2F0" height="51.2422" rx="2.5" ry="2.5" style="stroke:#181818;stroke-width:0.5;" width="119" x="801.5" y="785.3438"/><text fill="#000000" font-family="sans-serif" font-size="14" font-style="italic" lengthAdjust="spacing" textLength="86" x="818" y="807.4512">&#171;component&#187;</text><text fill="#000000" font-family="sans-serif" font-size="14" lengthAdjust="spacing" textLength="105" x="808.5" y="826.0723">Floor Repository</text><rect fill="#E2E2F0" height="51.2422" rx="2.5" ry="2.5" style="stroke:#181818;stroke-width:0.5;" width="165" x="930.5" y="75.6211"/><text fill="#000000" font-family="sans-serif" font-size="14" font-style="italic" lengthAdjust="spacing" textLength="86" x="970" y="97.7285">&#171;component&#187;</text><text fill="#000000" font-family="sans-serif" font-size="14" lengthAdjust="spacing" textLength="151" x="937.5" y="116.3496">Passageway Repository</text><rect fill="#E2E2F0" height="51.2422" rx="2.5" ry="2.5" style="stroke:#181818;stroke-width:0.5;" width="165" x="930.5" y="785.3438"/><text fill="#000000" font-family="sans-serif" font-size="14" font-style="italic" lengthAdjust="spacing" textLength="86" x="970" y="807.4512">&#171;component&#187;</text><text fill="#000000" font-family="sans-serif" font-size="14" lengthAdjust="spacing" textLength="151" x="937.5" y="826.0723">Passageway Repository</text><rect fill="#E2E2F0" height="51.2422" rx="2.5" ry="2.5" style="stroke:#181818;stroke-width:0.5;" width="100" x="1105.5" y="75.6211"/><text fill="#000000" font-family="sans-serif" font-size="14" font-style="italic" lengthAdjust="spacing" textLength="86" x="1112.5" y="97.7285">&#171;component&#187;</text><text fill="#000000" font-family="sans-serif" font-size="14" lengthAdjust="spacing" textLength="27" x="1142" y="116.3496">Map</text><rect fill="#E2E2F0" height="51.2422" rx="2.5" ry="2.5" style="stroke:#181818;stroke-width:0.5;" width="100" x="1105.5" y="785.3438"/><text fill="#000000" font-family="sans-serif" font-size="14" font-style="italic" lengthAdjust="spacing" textLength="86" x="1112.5" y="807.4512">&#171;component&#187;</text><text fill="#000000" font-family="sans-serif" font-size="14" lengthAdjust="spacing" textLength="27" x="1142" y="826.0723">Map</text><rect fill="#E2E2F0" height="51.2422" rx="2.5" ry="2.5" style="stroke:#181818;stroke-width:0.5;" width="100" x="1243.5" y="785.3438"/><text fill="#000000" font-family="sans-serif" font-size="14" font-style="italic" lengthAdjust="spacing" textLength="86" x="1250.5" y="807.4512">&#171;component&#187;</text><text fill="#000000" font-family="sans-serif" font-size="14" lengthAdjust="spacing" textLength="30" x="1278.5" y="826.0723">DTO</text><text fill="#000000" font-family="sans-serif" font-size="14" font-style="italic" lengthAdjust="spacing" textLength="86" x="1353.5" y="105.7285">&#171;component&#187;</text><text fill="#000000" font-family="sans-serif" font-size="14" lengthAdjust="spacing" textLength="61" x="1366" y="124.3496">Database</text><path d="M1381.5,54.6211 C1381.5,44.6211 1399.5,44.6211 1399.5,44.6211 C1399.5,44.6211 1417.5,44.6211 1417.5,54.6211 L1417.5,80.6211 C1417.5,90.6211 1399.5,90.6211 1399.5,90.6211 C1399.5,90.6211 1381.5,90.6211 1381.5,80.6211 L1381.5,54.6211 " fill="#E2E2F0" style="stroke:#181818;stroke-width:1.5;"/><path d="M1381.5,54.6211 C1381.5,64.6211 1399.5,64.6211 1399.5,64.6211 C1399.5,64.6211 1417.5,64.6211 1417.5,54.6211 " fill="none" style="stroke:#181818;stroke-width:1.5;"/><text fill="#000000" font-family="sans-serif" font-size="14" font-style="italic" lengthAdjust="spacing" textLength="86" x="1353.5" y="800.4512">&#171;component&#187;</text><text fill="#000000" font-family="sans-serif" font-size="14" lengthAdjust="spacing" textLength="61" x="1366" y="819.0723">Database</text><path d="M1381.5,832.5859 C1381.5,822.5859 1399.5,822.5859 1399.5,822.5859 C1399.5,822.5859 1417.5,822.5859 1417.5,832.5859 L1417.5,858.5859 C1417.5,868.5859 1399.5,868.5859 1399.5,868.5859 C1399.5,868.5859 1381.5,868.5859 1381.5,858.5859 L1381.5,832.5859 " fill="#E2E2F0" style="stroke:#181818;stroke-width:1.5;"/><path d="M1381.5,832.5859 C1381.5,842.5859 1399.5,842.5859 1399.5,842.5859 C1399.5,842.5859 1417.5,842.5859 1417.5,832.5859 " fill="none" style="stroke:#181818;stroke-width:1.5;"/><rect fill="#FFFFFF" height="607.1895" style="stroke:#181818;stroke-width:1.0;" width="10" x="150" y="161.1543"/><rect fill="#FFFFFF" height="544.6074" style="stroke:#181818;stroke-width:1.0;" width="10" x="352" y="192.4453"/><rect fill="#FFFFFF" height="482.0254" style="stroke:#181818;stroke-width:1.0;" width="10" x="554" y="223.7363"/><rect fill="#FFFFFF" height="93.873" style="stroke:#181818;stroke-width:1.0;" width="10" x="856" y="255.0273"/><rect fill="#FFFFFF" height="93.873" style="stroke:#181818;stroke-width:1.0;" width="10" x="1008" y="380.1914"/><rect fill="#FFFFFF" height="124.8242" style="stroke:#181818;stroke-width:1.0;" width="10" x="1150.5" y="549.6465"/><rect fill="#FFFFFF" height="52.2422" style="stroke:#181818;stroke-width:1.0;" width="10" x="1288.5" y="590.9375"/><rect fill="#FFFFFF" height="31.291" style="stroke:#181818;stroke-width:1.0;" width="10" x="1394.5" y="286.3184"/><rect fill="#FFFFFF" height="31.291" style="stroke:#181818;stroke-width:1.0;" width="10" x="1394.5" y="411.4824"/><ellipse cx="4.5" cy="160.4043" fill="none" rx="4" ry="4" style="stroke:#181818;stroke-width:1.5;"/><line style="stroke:#181818;stroke-width:1.0;" x1="148" x2="138" y1="161.1543" y2="157.1543"/><line style="stroke:#181818;stroke-width:1.0;" x1="148" x2="138" y1="161.1543" y2="165.1543"/><line style="stroke:#181818;stroke-width:1.0;" x1="9" x2="149" y1="161.1543" y2="161.1543"/><text fill="#000000" font-family="sans-serif" font-size="13" font-weight="bold" lengthAdjust="spacing" textLength="7" x="12" y="155.8916">1</text><text fill="#000000" font-family="sans-serif" font-size="13" lengthAdjust="spacing" textLength="112" x="23" y="155.8916">GET /:buildingCode</text><line style="stroke:#181818;stroke-width:1.0;" x1="350" x2="340" y1="192.4453" y2="188.4453"/><line style="stroke:#181818;stroke-width:1.0;" x1="350" x2="340" y1="192.4453" y2="196.4453"/><line style="stroke:#181818;stroke-width:1.0;" x1="160" x2="351" y1="192.4453" y2="192.4453"/><text fill="#000000" font-family="sans-serif" font-size="13" font-weight="bold" lengthAdjust="spacing" textLength="7" x="167" y="187.1826">2</text><text fill="#000000" font-family="sans-serif" font-size="13" lengthAdjust="spacing" textLength="162" x="178" y="187.1826">list floors with passageways</text><line style="stroke:#181818;stroke-width:1.0;" x1="552" x2="542" y1="223.7363" y2="219.7363"/><line style="stroke:#181818;stroke-width:1.0;" x1="552" x2="542" y1="223.7363" y2="227.7363"/><line style="stroke:#181818;stroke-width:1.0;" x1="362" x2="553" y1="223.7363" y2="223.7363"/><text fill="#000000" font-family="sans-serif" font-size="13" font-weight="bold" lengthAdjust="spacing" textLength="7" x="369" y="218.4736">3</text><text fill="#000000" font-family="sans-serif" font-size="13" lengthAdjust="spacing" textLength="162" x="380" y="218.4736">list floors with passageways</text><line style="stroke:#181818;stroke-width:1.0;" x1="854" x2="844" y1="255.0273" y2="251.0273"/><line style="stroke:#181818;stroke-width:1.0;" x1="854" x2="844" y1="255.0273" y2="259.0273"/><line style="stroke:#181818;stroke-width:1.0;" x1="564" x2="855" y1="255.0273" y2="255.0273"/><text fill="#000000" font-family="sans-serif" font-size="13" font-weight="bold" lengthAdjust="spacing" textLength="7" x="571" y="249.7646">4</text><text fill="#000000" font-family="sans-serif" font-size="13" lengthAdjust="spacing" textLength="88" x="582" y="249.7646">get list of floors</text><line style="stroke:#181818;stroke-width:1.0;" x1="1392.5" x2="1382.5" y1="286.3184" y2="282.3184"/><line style="stroke:#181818;stroke-width:1.0;" x1="1392.5" x2="1382.5" y1="286.3184" y2="290.3184"/><line style="stroke:#181818;stroke-width:1.0;" x1="866" x2="1393.5" y1="286.3184" y2="286.3184"/><text fill="#000000" font-family="sans-serif" font-size="13" font-weight="bold" lengthAdjust="spacing" textLength="7" x="873" y="281.0557">5</text><text fill="#000000" font-family="sans-serif" font-size="13" lengthAdjust="spacing" textLength="70" x="884" y="281.0557">select floors</text><line style="stroke:#181818;stroke-width:1.0;" x1="867" x2="877" y1="317.6094" y2="313.6094"/><line style="stroke:#181818;stroke-width:1.0;" x1="867" x2="877" y1="317.6094" y2="321.6094"/><line style="stroke:#181818;stroke-width:1.0;stroke-dasharray:2.0,2.0;" x1="866" x2="1398.5" y1="317.6094" y2="317.6094"/><text fill="#000000" font-family="sans-serif" font-size="13" font-weight="bold" lengthAdjust="spacing" textLength="7" x="883" y="312.3467">6</text><text fill="#000000" font-family="sans-serif" font-size="13" lengthAdjust="spacing" textLength="17" x="894" y="312.3467">list</text><line style="stroke:#181818;stroke-width:1.0;" x1="565" x2="575" y1="348.9004" y2="344.9004"/><line style="stroke:#181818;stroke-width:1.0;" x1="565" x2="575" y1="348.9004" y2="352.9004"/><line style="stroke:#181818;stroke-width:1.0;stroke-dasharray:2.0,2.0;" x1="564" x2="860" y1="348.9004" y2="348.9004"/><text fill="#000000" font-family="sans-serif" font-size="13" font-weight="bold" lengthAdjust="spacing" textLength="7" x="581" y="343.6377">7</text><text fill="#000000" font-family="sans-serif" font-size="13" lengthAdjust="spacing" textLength="66" x="592" y="343.6377">list of floors</text><line style="stroke:#181818;stroke-width:1.0;" x1="1006" x2="996" y1="380.1914" y2="376.1914"/><line style="stroke:#181818;stroke-width:1.0;" x1="1006" x2="996" y1="380.1914" y2="384.1914"/><line style="stroke:#181818;stroke-width:1.0;" x1="564" x2="1007" y1="380.1914" y2="380.1914"/><text fill="#000000" font-family="sans-serif" font-size="13" font-weight="bold" lengthAdjust="spacing" textLength="7" x="571" y="374.9287">8</text><text fill="#000000" font-family="sans-serif" font-size="13" lengthAdjust="spacing" textLength="136" x="582" y="374.9287">get list of passageways</text><line style="stroke:#181818;stroke-width:1.0;" x1="1392.5" x2="1382.5" y1="411.4824" y2="407.4824"/><line style="stroke:#181818;stroke-width:1.0;" x1="1392.5" x2="1382.5" y1="411.4824" y2="415.4824"/><line style="stroke:#181818;stroke-width:1.0;" x1="1018" x2="1393.5" y1="411.4824" y2="411.4824"/><text fill="#000000" font-family="sans-serif" font-size="13" font-weight="bold" lengthAdjust="spacing" textLength="7" x="1025" y="406.2197">9</text><text fill="#000000" font-family="sans-serif" font-size="13" lengthAdjust="spacing" textLength="118" x="1036" y="406.2197">select passageways</text><line style="stroke:#181818;stroke-width:1.0;" x1="1019" x2="1029" y1="442.7734" y2="438.7734"/><line style="stroke:#181818;stroke-width:1.0;" x1="1019" x2="1029" y1="442.7734" y2="446.7734"/><line style="stroke:#181818;stroke-width:1.0;stroke-dasharray:2.0,2.0;" x1="1018" x2="1398.5" y1="442.7734" y2="442.7734"/><text fill="#000000" font-family="sans-serif" font-size="13" font-weight="bold" lengthAdjust="spacing" textLength="14" x="1035" y="437.5107">10</text><text fill="#000000" font-family="sans-serif" font-size="13" lengthAdjust="spacing" textLength="17" x="1053" y="437.5107">list</text><line style="stroke:#181818;stroke-width:1.0;" x1="565" x2="575" y1="474.0645" y2="470.0645"/><line style="stroke:#181818;stroke-width:1.0;" x1="565" x2="575" y1="474.0645" y2="478.0645"/><line style="stroke:#181818;stroke-width:1.0;stroke-dasharray:2.0,2.0;" x1="564" x2="1012" y1="474.0645" y2="474.0645"/><text fill="#000000" font-family="sans-serif" font-size="13" font-weight="bold" lengthAdjust="spacing" textLength="14" x="581" y="468.8018">11</text><text fill="#000000" font-family="sans-serif" font-size="13" lengthAdjust="spacing" textLength="114" x="599" y="468.8018">list of passageways</text><line style="stroke:#181818;stroke-width:1.0;" x1="564" x2="606" y1="505.3555" y2="505.3555"/><line style="stroke:#181818;stroke-width:1.0;" x1="606" x2="606" y1="505.3555" y2="518.3555"/><line style="stroke:#181818;stroke-width:1.0;" x1="565" x2="606" y1="518.3555" y2="518.3555"/><line style="stroke:#181818;stroke-width:1.0;" x1="565" x2="575" y1="518.3555" y2="514.3555"/><line style="stroke:#181818;stroke-width:1.0;" x1="565" x2="575" y1="518.3555" y2="522.3555"/><text fill="#000000" font-family="sans-serif" font-size="13" font-weight="bold" lengthAdjust="spacing" textLength="14" x="571" y="500.0928">12</text><text fill="#000000" font-family="sans-serif" font-size="13" lengthAdjust="spacing" textLength="260" x="589" y="500.0928">verifies if passageway's floor is in list of floors</text><line style="stroke:#181818;stroke-width:1.0;" x1="1148.5" x2="1138.5" y1="549.6465" y2="545.6465"/><line style="stroke:#181818;stroke-width:1.0;" x1="1148.5" x2="1138.5" y1="549.6465" y2="553.6465"/><line style="stroke:#181818;stroke-width:1.0;" x1="564" x2="1149.5" y1="549.6465" y2="549.6465"/><text fill="#000000" font-family="sans-serif" font-size="13" font-weight="bold" lengthAdjust="spacing" textLength="14" x="571" y="544.3838">13</text><text fill="#000000" font-family="sans-serif" font-size="13" lengthAdjust="spacing" textLength="111" x="589" y="544.3838">convert to DTO List</text><line style="stroke:#181818;stroke-width:1.0;" x1="1241.5" x2="1231.5" y1="580.9375" y2="576.9375"/><line style="stroke:#181818;stroke-width:1.0;" x1="1241.5" x2="1231.5" y1="580.9375" y2="584.9375"/><line style="stroke:#181818;stroke-width:1.0;stroke-dasharray:2.0,2.0;" x1="1160.5" x2="1242.5" y1="580.9375" y2="580.9375"/><text fill="#000000" font-family="sans-serif" font-size="13" font-weight="bold" lengthAdjust="spacing" textLength="14" x="1167.5" y="575.6748">14</text><text fill="#000000" font-family="sans-serif" font-size="13" lengthAdjust="spacing" textLength="41" x="1185.5" y="575.6748">convert</text><rect fill="#E2E2F0" height="51.2422" rx="2.5" ry="2.5" style="stroke:#181818;stroke-width:0.5;" width="100" x="1243.5" y="557.6465"/><text fill="#000000" font-family="sans-serif" font-size="14" font-style="italic" lengthAdjust="spacing" textLength="86" x="1250.5" y="579.7539">&#171;component&#187;</text><text fill="#000000" font-family="sans-serif" font-size="14" lengthAdjust="spacing" textLength="30" x="1278.5" y="598.375">DTO</text><line style="stroke:#181818;stroke-width:1.0;" x1="1161.5" x2="1171.5" y1="643.1797" y2="639.1797"/><line style="stroke:#181818;stroke-width:1.0;" x1="1161.5" x2="1171.5" y1="643.1797" y2="647.1797"/><line style="stroke:#181818;stroke-width:1.0;stroke-dasharray:2.0,2.0;" x1="1160.5" x2="1292.5" y1="643.1797" y2="643.1797"/><text fill="#000000" font-family="sans-serif" font-size="13" font-weight="bold" lengthAdjust="spacing" textLength="14" x="1177.5" y="637.917">15</text><text fill="#000000" font-family="sans-serif" font-size="13" lengthAdjust="spacing" textLength="39" x="1195.5" y="637.917">dto list</text><line style="stroke:#181818;stroke-width:1.0;" x1="565" x2="575" y1="674.4707" y2="670.4707"/><line style="stroke:#181818;stroke-width:1.0;" x1="565" x2="575" y1="674.4707" y2="678.4707"/><line style="stroke:#181818;stroke-width:1.0;stroke-dasharray:2.0,2.0;" x1="564" x2="1154.5" y1="674.4707" y2="674.4707"/><text fill="#000000" font-family="sans-serif" font-size="13" font-weight="bold" lengthAdjust="spacing" textLength="14" x="581" y="669.208">16</text><text fill="#000000" font-family="sans-serif" font-size="13" lengthAdjust="spacing" textLength="39" x="599" y="669.208">dto list</text><line style="stroke:#181818;stroke-width:1.0;" x1="363" x2="373" y1="705.7617" y2="701.7617"/><line style="stroke:#181818;stroke-width:1.0;" x1="363" x2="373" y1="705.7617" y2="709.7617"/><line style="stroke:#181818;stroke-width:1.0;stroke-dasharray:2.0,2.0;" x1="362" x2="558" y1="705.7617" y2="705.7617"/><text fill="#000000" font-family="sans-serif" font-size="13" font-weight="bold" lengthAdjust="spacing" textLength="14" x="379" y="700.499">17</text><text fill="#000000" font-family="sans-serif" font-size="13" lengthAdjust="spacing" textLength="49" x="397" y="700.499">success</text><line style="stroke:#181818;stroke-width:1.0;" x1="161" x2="171" y1="737.0527" y2="733.0527"/><line style="stroke:#181818;stroke-width:1.0;" x1="161" x2="171" y1="737.0527" y2="741.0527"/><line style="stroke:#181818;stroke-width:1.0;stroke-dasharray:2.0,2.0;" x1="160" x2="356" y1="737.0527" y2="737.0527"/><text fill="#000000" font-family="sans-serif" font-size="13" font-weight="bold" lengthAdjust="spacing" textLength="14" x="177" y="731.79">18</text><text fill="#000000" font-family="sans-serif" font-size="13" lengthAdjust="spacing" textLength="49" x="195" y="731.79">success</text><ellipse cx="60.5" cy="767.5938" fill="none" rx="4" ry="4" style="stroke:#181818;stroke-width:1.5;"/><line style="stroke:#181818;stroke-width:1.0;" x1="67.5" x2="77.5" y1="768.3438" y2="764.3438"/><line style="stroke:#181818;stroke-width:1.0;" x1="67.5" x2="77.5" y1="768.3438" y2="772.3438"/><line style="stroke:#181818;stroke-width:1.0;stroke-dasharray:2.0,2.0;" x1="61" x2="154" y1="768.3438" y2="768.3438"/><text fill="#000000" font-family="sans-serif" font-size="13" font-weight="bold" lengthAdjust="spacing" textLength="14" x="78" y="763.0811">19</text><text fill="#000000" font-family="sans-serif" font-size="13" lengthAdjust="spacing" textLength="44" x="96" y="763.0811">200 OK</text><!--SRC=[ZLH1Rjim4Bpp5OjS2WGG6lGe6EuXRND8YnH9Fh2YQ9S8BGhaoe5_toLbYHIjEhrHqipipd97E93jXaEZdF1lkklHuG5wb6-uLozqCWgSaYG4QUBpJ-q9q1ZO6MkTXtTDVnZjFQFVyUJ1xW2X6RHfTRSNWkL8IzrZHt3pR0VYjpU07jnuXir6saDlEzNHThk4tzkEd3L6kSYGy-CrqejoHorLPFZnV0t-8zY0PzLRhycwK-H5RuxVNMF-dasNz3IEZpH-OHyP1-olmRwzFaLOIwLQYuGDUiMOysa4DWLEVBNLTZiFlOQ7xw_mkPxkwTwsIg0aVKHI4qfCwC3CXb-32KlmZmKGIITnH4OFQjF5_BVKcI0cOX19jrJ3Nj4enUitgcNa6IWI9GZmb6fMDhpU4sdcj8tWprLP9zGGhSfXkUYAjzHGHaiTBHmLYxEqbGzc5beoH25GcboLo9nUr5-pMzPOzvoNoWIAVXVkayXHERtJoeFEXJwTWmcQFtGNrvrBXJpLOVzOYO1JmmcAlwvaco5215mqmCcwlKsKR3h4NORSLKatF5vC9k1ckMHb3HjBp-rUfCiFKYg_6Dkq_eiSBGEzmihon_dVRAegmt-vkuEdnnm-nVul]--></g></svg>