<?xml version="1.0" encoding="us-ascii" standalone="no"?><svg xmlns="http://www.w3.org/2000/svg" xmlns:xlink="http://www.w3.org/1999/xlink" contentStyleType="text/css" height="1121px" preserveAspectRatio="none" style="width:1095px;height:1121px;background:#FFFFFF;" version="1.1" viewBox="0 0 1095 1121" width="1095px" zoomAndPan="magnify"><defs/><g><text fill="#000000" font-family="sans-serif" font-size="14" font-weight="bold" lengthAdjust="spacing" textLength="61" x="518.75" y="30.1074">Edit a lift</text><rect fill="#FFFFFF" height="843.1777" style="stroke:#181818;stroke-width:1.0;" width="10" x="103" y="161.1543"/><rect fill="#FFFFFF" height="780.5957" style="stroke:#181818;stroke-width:1.0;" width="10" x="213" y="192.4453"/><rect fill="#FFFFFF" height="718.0137" style="stroke:#181818;stroke-width:1.0;" width="10" x="323" y="223.7363"/><rect fill="#FFFFFF" height="93.873" style="stroke:#181818;stroke-width:1.0;" width="10" x="448" y="272.3184"/><rect fill="#FFFFFF" height="93.873" style="stroke:#181818;stroke-width:1.0;" width="10" x="570" y="397.4824"/><rect fill="#FFFFFF" height="96.5332" style="stroke:#181818;stroke-width:1.0;" width="10" x="689.5" y="532.6465"/><rect fill="#FFFFFF" height="124.8242" style="stroke:#181818;stroke-width:1.0;" width="10" x="799.5" y="785.6348"/><rect fill="#FFFFFF" height="52.2422" style="stroke:#181818;stroke-width:1.0;" width="10" x="937.5" y="826.9258"/><rect fill="#FFFFFF" height="31.291" style="stroke:#181818;stroke-width:1.0;" width="10" x="1043.5" y="303.6094"/><rect fill="#FFFFFF" height="31.291" style="stroke:#181818;stroke-width:1.0;" width="10" x="1043.5" y="428.7734"/><rect fill="#FFFFFF" height="31.291" style="stroke:#181818;stroke-width:1.0;" width="10" x="1043.5" y="691.7617"/><line style="stroke:#181818;stroke-width:0.5;stroke-dasharray:5.0,5.0;" x1="108" x2="108" y1="127.8633" y2="1022.332"/><line style="stroke:#181818;stroke-width:0.5;stroke-dasharray:5.0,5.0;" x1="218" x2="218" y1="127.8633" y2="1022.332"/><line style="stroke:#181818;stroke-width:0.5;stroke-dasharray:5.0,5.0;" x1="328" x2="328" y1="127.8633" y2="1022.332"/><line style="stroke:#181818;stroke-width:0.5;stroke-dasharray:5.0,5.0;" x1="452.5" x2="452.5" y1="127.8633" y2="1022.332"/><line style="stroke:#181818;stroke-width:0.5;stroke-dasharray:5.0,5.0;" x1="574.5" x2="574.5" y1="127.8633" y2="1022.332"/><line style="stroke:#181818;stroke-width:0.5;stroke-dasharray:5.0,5.0;" x1="694.5" x2="694.5" y1="540.4766" y2="1022.332"/><line style="stroke:#181818;stroke-width:0.5;stroke-dasharray:5.0,5.0;" x1="804.5" x2="804.5" y1="127.8633" y2="1022.332"/><line style="stroke:#181818;stroke-width:0.5;stroke-dasharray:5.0,5.0;" x1="942.5" x2="942.5" y1="834.7559" y2="1022.332"/><line style="stroke:#181818;stroke-width:0.5;stroke-dasharray:5.0,5.0;" x1="1048.5" x2="1048.5" y1="127.8633" y2="1022.332"/><rect fill="#E2E2F0" height="51.2422" rx="2.5" ry="2.5" style="stroke:#181818;stroke-width:0.5;" width="100" x="58" y="75.6211"/><text fill="#000000" font-family="sans-serif" font-size="14" font-style="italic" lengthAdjust="spacing" textLength="86" x="65" y="97.7285">&#171;component&#187;</text><text fill="#000000" font-family="sans-serif" font-size="14" lengthAdjust="spacing" textLength="49" x="83.5" y="116.3496">Routing</text><rect fill="#E2E2F0" height="51.2422" rx="2.5" ry="2.5" style="stroke:#181818;stroke-width:0.5;" width="100" x="58" y="1021.332"/><text fill="#000000" font-family="sans-serif" font-size="14" font-style="italic" lengthAdjust="spacing" textLength="86" x="65" y="1043.4395">&#171;component&#187;</text><text fill="#000000" font-family="sans-serif" font-size="14" lengthAdjust="spacing" textLength="49" x="83.5" y="1062.0605">Routing</text><rect fill="#E2E2F0" height="51.2422" rx="2.5" ry="2.5" style="stroke:#181818;stroke-width:0.5;" width="100" x="168" y="75.6211"/><text fill="#000000" font-family="sans-serif" font-size="14" font-style="italic" lengthAdjust="spacing" textLength="86" x="175" y="97.7285">&#171;component&#187;</text><text fill="#000000" font-family="sans-serif" font-size="14" lengthAdjust="spacing" textLength="62" x="187" y="116.3496">Controller</text><rect fill="#E2E2F0" height="51.2422" rx="2.5" ry="2.5" style="stroke:#181818;stroke-width:0.5;" width="100" x="168" y="1021.332"/><text fill="#000000" font-family="sans-serif" font-size="14" font-style="italic" lengthAdjust="spacing" textLength="86" x="175" y="1043.4395">&#171;component&#187;</text><text fill="#000000" font-family="sans-serif" font-size="14" lengthAdjust="spacing" textLength="62" x="187" y="1062.0605">Controller</text><rect fill="#E2E2F0" height="51.2422" rx="2.5" ry="2.5" style="stroke:#181818;stroke-width:0.5;" width="100" x="278" y="75.6211"/><text fill="#000000" font-family="sans-serif" font-size="14" font-style="italic" lengthAdjust="spacing" textLength="86" x="285" y="97.7285">&#171;component&#187;</text><text fill="#000000" font-family="sans-serif" font-size="14" lengthAdjust="spacing" textLength="47" x="304.5" y="116.3496">Service</text><rect fill="#E2E2F0" height="51.2422" rx="2.5" ry="2.5" style="stroke:#181818;stroke-width:0.5;" width="100" x="278" y="1021.332"/><text fill="#000000" font-family="sans-serif" font-size="14" font-style="italic" lengthAdjust="spacing" textLength="86" x="285" y="1043.4395">&#171;component&#187;</text><text fill="#000000" font-family="sans-serif" font-size="14" lengthAdjust="spacing" textLength="47" x="304.5" y="1062.0605">Service</text><rect fill="#E2E2F0" height="51.2422" rx="2.5" ry="2.5" style="stroke:#181818;stroke-width:0.5;" width="105" x="400.5" y="75.6211"/><text fill="#000000" font-family="sans-serif" font-size="14" font-style="italic" lengthAdjust="spacing" textLength="86" x="410" y="97.7285">&#171;component&#187;</text><text fill="#000000" font-family="sans-serif" font-size="14" lengthAdjust="spacing" textLength="91" x="407.5" y="116.3496">Lift Repository</text><rect fill="#E2E2F0" height="51.2422" rx="2.5" ry="2.5" style="stroke:#181818;stroke-width:0.5;" width="105" x="400.5" y="1021.332"/><text fill="#000000" font-family="sans-serif" font-size="14" font-style="italic" lengthAdjust="spacing" textLength="86" x="410" y="1043.4395">&#171;component&#187;</text><text fill="#000000" font-family="sans-serif" font-size="14" lengthAdjust="spacing" textLength="91" x="407.5" y="1062.0605">Lift Repository</text><rect fill="#E2E2F0" height="51.2422" rx="2.5" ry="2.5" style="stroke:#181818;stroke-width:0.5;" width="119" x="515.5" y="75.6211"/><text fill="#000000" font-family="sans-serif" font-size="14" font-style="italic" lengthAdjust="spacing" textLength="86" x="532" y="97.7285">&#171;component&#187;</text><text fill="#000000" font-family="sans-serif" font-size="14" lengthAdjust="spacing" textLength="105" x="522.5" y="116.3496">Floor Repository</text><rect fill="#E2E2F0" height="51.2422" rx="2.5" ry="2.5" style="stroke:#181818;stroke-width:0.5;" width="119" x="515.5" y="1021.332"/><text fill="#000000" font-family="sans-serif" font-size="14" font-style="italic" lengthAdjust="spacing" textLength="86" x="532" y="1043.4395">&#171;component&#187;</text><text fill="#000000" font-family="sans-serif" font-size="14" lengthAdjust="spacing" textLength="105" x="522.5" y="1062.0605">Floor Repository</text><rect fill="#E2E2F0" height="51.2422" rx="2.5" ry="2.5" style="stroke:#181818;stroke-width:0.5;" width="100" x="644.5" y="1021.332"/><text fill="#000000" font-family="sans-serif" font-size="14" font-style="italic" lengthAdjust="spacing" textLength="86" x="651.5" y="1043.4395">&#171;component&#187;</text><text fill="#000000" font-family="sans-serif" font-size="14" lengthAdjust="spacing" textLength="19" x="685" y="1062.0605">Lift</text><rect fill="#E2E2F0" height="51.2422" rx="2.5" ry="2.5" style="stroke:#181818;stroke-width:0.5;" width="100" x="754.5" y="75.6211"/><text fill="#000000" font-family="sans-serif" font-size="14" font-style="italic" lengthAdjust="spacing" textLength="86" x="761.5" y="97.7285">&#171;component&#187;</text><text fill="#000000" font-family="sans-serif" font-size="14" lengthAdjust="spacing" textLength="27" x="791" y="116.3496">Map</text><rect fill="#E2E2F0" height="51.2422" rx="2.5" ry="2.5" style="stroke:#181818;stroke-width:0.5;" width="100" x="754.5" y="1021.332"/><text fill="#000000" font-family="sans-serif" font-size="14" font-style="italic" lengthAdjust="spacing" textLength="86" x="761.5" y="1043.4395">&#171;component&#187;</text><text fill="#000000" font-family="sans-serif" font-size="14" lengthAdjust="spacing" textLength="27" x="791" y="1062.0605">Map</text><rect fill="#E2E2F0" height="51.2422" rx="2.5" ry="2.5" style="stroke:#181818;stroke-width:0.5;" width="100" x="892.5" y="1021.332"/><text fill="#000000" font-family="sans-serif" font-size="14" font-style="italic" lengthAdjust="spacing" textLength="86" x="899.5" y="1043.4395">&#171;component&#187;</text><text fill="#000000" font-family="sans-serif" font-size="14" lengthAdjust="spacing" textLength="30" x="927.5" y="1062.0605">DTO</text><text fill="#000000" font-family="sans-serif" font-size="14" font-style="italic" lengthAdjust="spacing" textLength="86" x="1002.5" y="105.7285">&#171;component&#187;</text><text fill="#000000" font-family="sans-serif" font-size="14" lengthAdjust="spacing" textLength="61" x="1015" y="124.3496">Database</text><path d="M1030.5,54.6211 C1030.5,44.6211 1048.5,44.6211 1048.5,44.6211 C1048.5,44.6211 1066.5,44.6211 1066.5,54.6211 L1066.5,80.6211 C1066.5,90.6211 1048.5,90.6211 1048.5,90.6211 C1048.5,90.6211 1030.5,90.6211 1030.5,80.6211 L1030.5,54.6211 " fill="#E2E2F0" style="stroke:#181818;stroke-width:1.5;"/><path d="M1030.5,54.6211 C1030.5,64.6211 1048.5,64.6211 1048.5,64.6211 C1048.5,64.6211 1066.5,64.6211 1066.5,54.6211 " fill="none" style="stroke:#181818;stroke-width:1.5;"/><text fill="#000000" font-family="sans-serif" font-size="14" font-style="italic" lengthAdjust="spacing" textLength="86" x="1002.5" y="1036.4395">&#171;component&#187;</text><text fill="#000000" font-family="sans-serif" font-size="14" lengthAdjust="spacing" textLength="61" x="1015" y="1055.0605">Database</text><path d="M1030.5,1068.5742 C1030.5,1058.5742 1048.5,1058.5742 1048.5,1058.5742 C1048.5,1058.5742 1066.5,1058.5742 1066.5,1068.5742 L1066.5,1094.5742 C1066.5,1104.5742 1048.5,1104.5742 1048.5,1104.5742 C1048.5,1104.5742 1030.5,1104.5742 1030.5,1094.5742 L1030.5,1068.5742 " fill="#E2E2F0" style="stroke:#181818;stroke-width:1.5;"/><path d="M1030.5,1068.5742 C1030.5,1078.5742 1048.5,1078.5742 1048.5,1078.5742 C1048.5,1078.5742 1066.5,1078.5742 1066.5,1068.5742 " fill="none" style="stroke:#181818;stroke-width:1.5;"/><rect fill="#FFFFFF" height="843.1777" style="stroke:#181818;stroke-width:1.0;" width="10" x="103" y="161.1543"/><rect fill="#FFFFFF" height="780.5957" style="stroke:#181818;stroke-width:1.0;" width="10" x="213" y="192.4453"/><rect fill="#FFFFFF" height="718.0137" style="stroke:#181818;stroke-width:1.0;" width="10" x="323" y="223.7363"/><rect fill="#FFFFFF" height="93.873" style="stroke:#181818;stroke-width:1.0;" width="10" x="448" y="272.3184"/><rect fill="#FFFFFF" height="93.873" style="stroke:#181818;stroke-width:1.0;" width="10" x="570" y="397.4824"/><rect fill="#FFFFFF" height="96.5332" style="stroke:#181818;stroke-width:1.0;" width="10" x="689.5" y="532.6465"/><rect fill="#FFFFFF" height="124.8242" style="stroke:#181818;stroke-width:1.0;" width="10" x="799.5" y="785.6348"/><rect fill="#FFFFFF" height="52.2422" style="stroke:#181818;stroke-width:1.0;" width="10" x="937.5" y="826.9258"/><rect fill="#FFFFFF" height="31.291" style="stroke:#181818;stroke-width:1.0;" width="10" x="1043.5" y="303.6094"/><rect fill="#FFFFFF" height="31.291" style="stroke:#181818;stroke-width:1.0;" width="10" x="1043.5" y="428.7734"/><rect fill="#FFFFFF" height="31.291" style="stroke:#181818;stroke-width:1.0;" width="10" x="1043.5" y="691.7617"/><ellipse cx="4.5" cy="160.4043" fill="none" rx="4" ry="4" style="stroke:#181818;stroke-width:1.5;"/><line style="stroke:#181818;stroke-width:1.0;" x1="101" x2="91" y1="161.1543" y2="157.1543"/><line style="stroke:#181818;stroke-width:1.0;" x1="101" x2="91" y1="161.1543" y2="165.1543"/><line style="stroke:#181818;stroke-width:1.0;" x1="9" x2="102" y1="161.1543" y2="161.1543"/><text fill="#000000" font-family="sans-serif" font-size="13" font-weight="bold" lengthAdjust="spacing" textLength="7" x="12" y="155.8916">1</text><text fill="#000000" font-family="sans-serif" font-size="13" lengthAdjust="spacing" textLength="65" x="23" y="155.8916">PATCH /:id</text><line style="stroke:#181818;stroke-width:1.0;" x1="211" x2="201" y1="192.4453" y2="188.4453"/><line style="stroke:#181818;stroke-width:1.0;" x1="211" x2="201" y1="192.4453" y2="196.4453"/><line style="stroke:#181818;stroke-width:1.0;" x1="113" x2="212" y1="192.4453" y2="192.4453"/><text fill="#000000" font-family="sans-serif" font-size="13" font-weight="bold" lengthAdjust="spacing" textLength="7" x="120" y="187.1826">2</text><text fill="#000000" font-family="sans-serif" font-size="13" lengthAdjust="spacing" textLength="38" x="131" y="187.1826">edit lift</text><line style="stroke:#181818;stroke-width:1.0;" x1="321" x2="311" y1="223.7363" y2="219.7363"/><line style="stroke:#181818;stroke-width:1.0;" x1="321" x2="311" y1="223.7363" y2="227.7363"/><line style="stroke:#181818;stroke-width:1.0;" x1="223" x2="322" y1="223.7363" y2="223.7363"/><text fill="#000000" font-family="sans-serif" font-size="13" font-weight="bold" lengthAdjust="spacing" textLength="7" x="230" y="218.4736">3</text><text fill="#000000" font-family="sans-serif" font-size="13" lengthAdjust="spacing" textLength="38" x="241" y="218.4736">edit lift</text><line style="stroke:#181818;stroke-width:1.0;" x1="446" x2="436" y1="272.3184" y2="268.3184"/><line style="stroke:#181818;stroke-width:1.0;" x1="446" x2="436" y1="272.3184" y2="276.3184"/><line style="stroke:#181818;stroke-width:1.0;" x1="333" x2="447" y1="272.3184" y2="272.3184"/><text fill="#000000" font-family="sans-serif" font-size="13" font-weight="bold" lengthAdjust="spacing" textLength="7" x="340" y="258.4102">4</text><text fill="#000000" font-family="sans-serif" font-size="13" lengthAdjust="spacing" textLength="66" x="351" y="249.7646">verifies if lift</text><text fill="#000000" font-family="sans-serif" font-size="13" lengthAdjust="spacing" textLength="81" x="355" y="267.0557">already exists</text><line style="stroke:#181818;stroke-width:1.0;" x1="1041.5" x2="1031.5" y1="303.6094" y2="299.6094"/><line style="stroke:#181818;stroke-width:1.0;" x1="1041.5" x2="1031.5" y1="303.6094" y2="307.6094"/><line style="stroke:#181818;stroke-width:1.0;" x1="458" x2="1042.5" y1="303.6094" y2="303.6094"/><text fill="#000000" font-family="sans-serif" font-size="13" font-weight="bold" lengthAdjust="spacing" textLength="7" x="465" y="298.3467">5</text><text fill="#000000" font-family="sans-serif" font-size="13" lengthAdjust="spacing" textLength="52" x="476" y="298.3467">select lift</text><line style="stroke:#181818;stroke-width:1.0;" x1="459" x2="469" y1="334.9004" y2="330.9004"/><line style="stroke:#181818;stroke-width:1.0;" x1="459" x2="469" y1="334.9004" y2="338.9004"/><line style="stroke:#181818;stroke-width:1.0;stroke-dasharray:2.0,2.0;" x1="458" x2="1047.5" y1="334.9004" y2="334.9004"/><text fill="#000000" font-family="sans-serif" font-size="13" font-weight="bold" lengthAdjust="spacing" textLength="7" x="475" y="329.6377">6</text><text fill="#000000" font-family="sans-serif" font-size="13" lengthAdjust="spacing" textLength="13" x="486" y="329.6377">lift</text><line style="stroke:#181818;stroke-width:1.0;" x1="334" x2="344" y1="366.1914" y2="362.1914"/><line style="stroke:#181818;stroke-width:1.0;" x1="334" x2="344" y1="366.1914" y2="370.1914"/><line style="stroke:#181818;stroke-width:1.0;stroke-dasharray:2.0,2.0;" x1="333" x2="452" y1="366.1914" y2="366.1914"/><text fill="#000000" font-family="sans-serif" font-size="13" font-weight="bold" lengthAdjust="spacing" textLength="7" x="350" y="360.9287">7</text><text fill="#000000" font-family="sans-serif" font-size="13" lengthAdjust="spacing" textLength="48" x="361" y="360.9287">lift found</text><line style="stroke:#181818;stroke-width:1.0;" x1="568" x2="558" y1="397.4824" y2="393.4824"/><line style="stroke:#181818;stroke-width:1.0;" x1="568" x2="558" y1="397.4824" y2="401.4824"/><line style="stroke:#181818;stroke-width:1.0;" x1="333" x2="569" y1="397.4824" y2="397.4824"/><text fill="#000000" font-family="sans-serif" font-size="13" font-weight="bold" lengthAdjust="spacing" textLength="7" x="340" y="392.2197">8</text><text fill="#000000" font-family="sans-serif" font-size="13" lengthAdjust="spacing" textLength="123" x="351" y="392.2197">verifies if floors exists</text><line style="stroke:#181818;stroke-width:1.0;" x1="1041.5" x2="1031.5" y1="428.7734" y2="424.7734"/><line style="stroke:#181818;stroke-width:1.0;" x1="1041.5" x2="1031.5" y1="428.7734" y2="432.7734"/><line style="stroke:#181818;stroke-width:1.0;" x1="580" x2="1042.5" y1="428.7734" y2="428.7734"/><text fill="#000000" font-family="sans-serif" font-size="13" font-weight="bold" lengthAdjust="spacing" textLength="7" x="587" y="423.5107">9</text><text fill="#000000" font-family="sans-serif" font-size="13" lengthAdjust="spacing" textLength="70" x="598" y="423.5107">select floors</text><line style="stroke:#181818;stroke-width:1.0;" x1="581" x2="591" y1="460.0645" y2="456.0645"/><line style="stroke:#181818;stroke-width:1.0;" x1="581" x2="591" y1="460.0645" y2="464.0645"/><line style="stroke:#181818;stroke-width:1.0;stroke-dasharray:2.0,2.0;" x1="580" x2="1047.5" y1="460.0645" y2="460.0645"/><text fill="#000000" font-family="sans-serif" font-size="13" font-weight="bold" lengthAdjust="spacing" textLength="14" x="597" y="454.8018">10</text><text fill="#000000" font-family="sans-serif" font-size="13" lengthAdjust="spacing" textLength="31" x="615" y="454.8018">floors</text><line style="stroke:#181818;stroke-width:1.0;" x1="334" x2="344" y1="491.3555" y2="487.3555"/><line style="stroke:#181818;stroke-width:1.0;" x1="334" x2="344" y1="491.3555" y2="495.3555"/><line style="stroke:#181818;stroke-width:1.0;stroke-dasharray:2.0,2.0;" x1="333" x2="574" y1="491.3555" y2="491.3555"/><text fill="#000000" font-family="sans-serif" font-size="13" font-weight="bold" lengthAdjust="spacing" textLength="14" x="350" y="486.0928">11</text><text fill="#000000" font-family="sans-serif" font-size="13" lengthAdjust="spacing" textLength="66" x="368" y="486.0928">floors found</text><line style="stroke:#181818;stroke-width:1.0;" x1="642.5" x2="632.5" y1="522.6465" y2="518.6465"/><line style="stroke:#181818;stroke-width:1.0;" x1="642.5" x2="632.5" y1="522.6465" y2="526.6465"/><line style="stroke:#181818;stroke-width:1.0;" x1="333" x2="643.5" y1="522.6465" y2="522.6465"/><text fill="#000000" font-family="sans-serif" font-size="13" font-weight="bold" lengthAdjust="spacing" textLength="14" x="340" y="517.3838">12</text><text fill="#000000" font-family="sans-serif" font-size="13" lengthAdjust="spacing" textLength="21" x="358" y="517.3838">edit</text><rect fill="#E2E2F0" height="51.2422" rx="2.5" ry="2.5" style="stroke:#181818;stroke-width:0.5;" width="100" x="644.5" y="499.3555"/><text fill="#000000" font-family="sans-serif" font-size="14" font-style="italic" lengthAdjust="spacing" textLength="86" x="651.5" y="521.4629">&#171;component&#187;</text><text fill="#000000" font-family="sans-serif" font-size="14" lengthAdjust="spacing" textLength="19" x="685" y="540.084">Lift</text><line style="stroke:#181818;stroke-width:1.0;stroke-dasharray:2.0,2.0;" x1="699.5" x2="741.5" y1="584.8887" y2="584.8887"/><line style="stroke:#181818;stroke-width:1.0;stroke-dasharray:2.0,2.0;" x1="741.5" x2="741.5" y1="584.8887" y2="597.8887"/><line style="stroke:#181818;stroke-width:1.0;stroke-dasharray:2.0,2.0;" x1="700.5" x2="741.5" y1="597.8887" y2="597.8887"/><line style="stroke:#181818;stroke-width:1.0;" x1="700.5" x2="710.5" y1="597.8887" y2="593.8887"/><line style="stroke:#181818;stroke-width:1.0;" x1="700.5" x2="710.5" y1="597.8887" y2="601.8887"/><text fill="#000000" font-family="sans-serif" font-size="13" font-weight="bold" lengthAdjust="spacing" textLength="14" x="706.5" y="579.626">13</text><text fill="#000000" font-family="sans-serif" font-size="13" lengthAdjust="spacing" textLength="39" x="724.5" y="579.626">verifies</text><line style="stroke:#181818;stroke-width:1.0;" x1="334" x2="344" y1="629.1797" y2="625.1797"/><line style="stroke:#181818;stroke-width:1.0;" x1="334" x2="344" y1="629.1797" y2="633.1797"/><line style="stroke:#181818;stroke-width:1.0;stroke-dasharray:2.0,2.0;" x1="333" x2="693.5" y1="629.1797" y2="629.1797"/><text fill="#000000" font-family="sans-serif" font-size="13" font-weight="bold" lengthAdjust="spacing" textLength="14" x="350" y="623.917">14</text><text fill="#000000" font-family="sans-serif" font-size="13" lengthAdjust="spacing" textLength="35" x="368" y="623.917">edited</text><line style="stroke:#181818;stroke-width:1.0;" x1="451" x2="441" y1="660.4707" y2="656.4707"/><line style="stroke:#181818;stroke-width:1.0;" x1="451" x2="441" y1="660.4707" y2="664.4707"/><line style="stroke:#181818;stroke-width:1.0;" x1="333" x2="452" y1="660.4707" y2="660.4707"/><text fill="#000000" font-family="sans-serif" font-size="13" font-weight="bold" lengthAdjust="spacing" textLength="14" x="340" y="655.208">15</text><text fill="#000000" font-family="sans-serif" font-size="13" lengthAdjust="spacing" textLength="26" x="358" y="655.208">save</text><line style="stroke:#181818;stroke-width:1.0;" x1="1041.5" x2="1031.5" y1="691.7617" y2="687.7617"/><line style="stroke:#181818;stroke-width:1.0;" x1="1041.5" x2="1031.5" y1="691.7617" y2="695.7617"/><line style="stroke:#181818;stroke-width:1.0;" x1="453" x2="1042.5" y1="691.7617" y2="691.7617"/><text fill="#000000" font-family="sans-serif" font-size="13" font-weight="bold" lengthAdjust="spacing" textLength="14" x="460" y="686.499">16</text><text fill="#000000" font-family="sans-serif" font-size="13" lengthAdjust="spacing" textLength="49" x="478" y="686.499">insert lift</text><line style="stroke:#181818;stroke-width:1.0;" x1="454" x2="464" y1="723.0527" y2="719.0527"/><line style="stroke:#181818;stroke-width:1.0;" x1="454" x2="464" y1="723.0527" y2="727.0527"/><line style="stroke:#181818;stroke-width:1.0;stroke-dasharray:2.0,2.0;" x1="453" x2="1047.5" y1="723.0527" y2="723.0527"/><text fill="#000000" font-family="sans-serif" font-size="13" font-weight="bold" lengthAdjust="spacing" textLength="14" x="470" y="717.79">17</text><text fill="#000000" font-family="sans-serif" font-size="13" lengthAdjust="spacing" textLength="49" x="488" y="717.79">success</text><line style="stroke:#181818;stroke-width:1.0;" x1="334" x2="344" y1="754.3438" y2="750.3438"/><line style="stroke:#181818;stroke-width:1.0;" x1="334" x2="344" y1="754.3438" y2="758.3438"/><line style="stroke:#181818;stroke-width:1.0;stroke-dasharray:2.0,2.0;" x1="333" x2="452" y1="754.3438" y2="754.3438"/><text fill="#000000" font-family="sans-serif" font-size="13" font-weight="bold" lengthAdjust="spacing" textLength="14" x="350" y="749.0811">18</text><text fill="#000000" font-family="sans-serif" font-size="13" lengthAdjust="spacing" textLength="49" x="368" y="749.0811">success</text><line style="stroke:#181818;stroke-width:1.0;" x1="797.5" x2="787.5" y1="785.6348" y2="781.6348"/><line style="stroke:#181818;stroke-width:1.0;" x1="797.5" x2="787.5" y1="785.6348" y2="789.6348"/><line style="stroke:#181818;stroke-width:1.0;" x1="333" x2="798.5" y1="785.6348" y2="785.6348"/><text fill="#000000" font-family="sans-serif" font-size="13" font-weight="bold" lengthAdjust="spacing" textLength="14" x="340" y="780.3721">19</text><text fill="#000000" font-family="sans-serif" font-size="13" lengthAdjust="spacing" textLength="86" x="358" y="780.3721">convert to DTO</text><line style="stroke:#181818;stroke-width:1.0;" x1="890.5" x2="880.5" y1="816.9258" y2="812.9258"/><line style="stroke:#181818;stroke-width:1.0;" x1="890.5" x2="880.5" y1="816.9258" y2="820.9258"/><line style="stroke:#181818;stroke-width:1.0;stroke-dasharray:2.0,2.0;" x1="809.5" x2="891.5" y1="816.9258" y2="816.9258"/><text fill="#000000" font-family="sans-serif" font-size="13" font-weight="bold" lengthAdjust="spacing" textLength="14" x="816.5" y="811.6631">20</text><text fill="#000000" font-family="sans-serif" font-size="13" lengthAdjust="spacing" textLength="41" x="834.5" y="811.6631">convert</text><rect fill="#E2E2F0" height="51.2422" rx="2.5" ry="2.5" style="stroke:#181818;stroke-width:0.5;" width="100" x="892.5" y="793.6348"/><text fill="#000000" font-family="sans-serif" font-size="14" font-style="italic" lengthAdjust="spacing" textLength="86" x="899.5" y="815.7422">&#171;component&#187;</text><text fill="#000000" font-family="sans-serif" font-size="14" lengthAdjust="spacing" textLength="30" x="927.5" y="834.3633">DTO</text><line style="stroke:#181818;stroke-width:1.0;" x1="810.5" x2="820.5" y1="879.168" y2="875.168"/><line style="stroke:#181818;stroke-width:1.0;" x1="810.5" x2="820.5" y1="879.168" y2="883.168"/><line style="stroke:#181818;stroke-width:1.0;stroke-dasharray:2.0,2.0;" x1="809.5" x2="941.5" y1="879.168" y2="879.168"/><text fill="#000000" font-family="sans-serif" font-size="13" font-weight="bold" lengthAdjust="spacing" textLength="14" x="826.5" y="873.9053">21</text><text fill="#000000" font-family="sans-serif" font-size="13" lengthAdjust="spacing" textLength="18" x="844.5" y="873.9053">dto</text><line style="stroke:#181818;stroke-width:1.0;" x1="334" x2="344" y1="910.459" y2="906.459"/><line style="stroke:#181818;stroke-width:1.0;" x1="334" x2="344" y1="910.459" y2="914.459"/><line style="stroke:#181818;stroke-width:1.0;stroke-dasharray:2.0,2.0;" x1="333" x2="803.5" y1="910.459" y2="910.459"/><text fill="#000000" font-family="sans-serif" font-size="13" font-weight="bold" lengthAdjust="spacing" textLength="14" x="350" y="905.1963">22</text><text fill="#000000" font-family="sans-serif" font-size="13" lengthAdjust="spacing" textLength="18" x="368" y="905.1963">dto</text><line style="stroke:#181818;stroke-width:1.0;" x1="224" x2="234" y1="941.75" y2="937.75"/><line style="stroke:#181818;stroke-width:1.0;" x1="224" x2="234" y1="941.75" y2="945.75"/><line style="stroke:#181818;stroke-width:1.0;stroke-dasharray:2.0,2.0;" x1="223" x2="327" y1="941.75" y2="941.75"/><text fill="#000000" font-family="sans-serif" font-size="13" font-weight="bold" lengthAdjust="spacing" textLength="14" x="240" y="936.4873">23</text><text fill="#000000" font-family="sans-serif" font-size="13" lengthAdjust="spacing" textLength="49" x="258" y="936.4873">success</text><line style="stroke:#181818;stroke-width:1.0;" x1="114" x2="124" y1="973.041" y2="969.041"/><line style="stroke:#181818;stroke-width:1.0;" x1="114" x2="124" y1="973.041" y2="977.041"/><line style="stroke:#181818;stroke-width:1.0;stroke-dasharray:2.0,2.0;" x1="113" x2="217" y1="973.041" y2="973.041"/><text fill="#000000" font-family="sans-serif" font-size="13" font-weight="bold" lengthAdjust="spacing" textLength="14" x="130" y="967.7783">24</text><text fill="#000000" font-family="sans-serif" font-size="13" lengthAdjust="spacing" textLength="49" x="148" y="967.7783">success</text><ellipse cx="13.5" cy="1003.582" fill="none" rx="4" ry="4" style="stroke:#181818;stroke-width:1.5;"/><line style="stroke:#181818;stroke-width:1.0;" x1="20.5" x2="30.5" y1="1004.332" y2="1000.332"/><line style="stroke:#181818;stroke-width:1.0;" x1="20.5" x2="30.5" y1="1004.332" y2="1008.332"/><line style="stroke:#181818;stroke-width:1.0;stroke-dasharray:2.0,2.0;" x1="14" x2="107" y1="1004.332" y2="1004.332"/><text fill="#000000" font-family="sans-serif" font-size="13" font-weight="bold" lengthAdjust="spacing" textLength="14" x="31" y="999.0693">25</text><text fill="#000000" font-family="sans-serif" font-size="13" lengthAdjust="spacing" textLength="44" x="49" y="999.0693">200 OK</text><!--SRC=[ZPHDQzmm48Rl-XKYnu1fwD4iMqhQKcXBIf9ZBxFoE8Xu9IEDJVVVLv9jVNXT9pTPUjxvqAin3AJLS3wXOVPLgXuCd7aFuXLUy8ak7NA3WXWZIMxzjP74WNUoTLkE9Iba3uhupQCUIAgN6mwMcsdD3mUXpxrMgEXuBF5xhSZehaCJ529-xecUq8nIO53OQRs7_tHLyaVijPMapIN8VEN6RUtfldLQcxMmzPjlANt6c6OF_0LzuCxGxs5VdXy2rj0wRGC49x3ec7arWQSLnpxfwdYCZjJyz-Vd- -_yGoqR1eBa28JBALiehyWSgJbwsoVJeoW1B6EzTB5cMpUVieNoYkXApKSqifLekModM_oZE7G6eRbm_2ijsIpMecCnW8_cBg5sQJhtRgVaaMzEp1rMgvI1QJ2die1bHw6aLW-goHMnZgAhz6JAjiA-NRg9GIBEad3TpYJTR2ZFDcEhdhAmPLDpGLTjfOgktBgzdUqjpPWkBjrmQZm_AHy8Nbqb-z_Zi33YXjTIEVvzNjj12BJslNPluDjU-q6k_KoClX8thcvqKotkb36FXF1kciFrpNHMChceVjQh5DBlvSLw94PAXQwma33MTpNF6sqjOraCS_dhs51bFm7tfpaSgYhZFzxTyOSVERxyQFu1]--></g></svg>