<?xml version="1.0" encoding="us-ascii" standalone="no"?><svg xmlns="http://www.w3.org/2000/svg" xmlns:xlink="http://www.w3.org/1999/xlink" contentStyleType="text/css" height="476px" preserveAspectRatio="none" style="width:584px;height:476px;background:#FFFFFF;" version="1.1" viewBox="0 0 584 476" width="584px" zoomAndPan="magnify"><defs/><g><text fill="#000000" font-family="sans-serif" font-size="14" font-weight="bold" lengthAdjust="spacing" textLength="61" x="258" y="30.1074">Edit a lift</text><rect fill="#FFFFFF" height="251.3281" style="stroke:#181818;stroke-width:1.0;" width="10" x="59" y="133.2422"/><rect fill="#FFFFFF" height="219.0371" style="stroke:#181818;stroke-width:1.0;" width="10" x="237" y="156.5332"/><rect fill="#FFFFFF" height="196.7461" style="stroke:#181818;stroke-width:1.0;" width="10" x="347" y="187.8242"/><line style="stroke:#181818;stroke-width:0.5;stroke-dasharray:5.0,5.0;" x1="64" x2="64" y1="123.2422" y2="393.5703"/><line style="stroke:#181818;stroke-width:0.5;stroke-dasharray:5.0,5.0;" x1="242" x2="242" y1="123.2422" y2="393.5703"/><line style="stroke:#181818;stroke-width:0.5;stroke-dasharray:5.0,5.0;" x1="352" x2="352" y1="123.2422" y2="393.5703"/><line style="stroke:#181818;stroke-width:0.5;stroke-dasharray:5.0,5.0;" x1="462" x2="462" y1="123.2422" y2="393.5703"/><text fill="#000000" font-family="sans-serif" font-size="14" lengthAdjust="spacing" textLength="112" x="5" y="119.7285">Campus Manager</text><ellipse cx="64" cy="53.1211" fill="#E2E2F0" rx="8" ry="8" style="stroke:#181818;stroke-width:0.5;"/><path d="M64,61.1211 L64,88.1211 M51,69.1211 L77,69.1211 M64,88.1211 L51,103.1211 M64,88.1211 L77,103.1211 " fill="none" style="stroke:#181818;stroke-width:0.5;"/><text fill="#000000" font-family="sans-serif" font-size="14" lengthAdjust="spacing" textLength="112" x="5" y="407.6777">Campus Manager</text><ellipse cx="64" cy="419.6914" fill="#E2E2F0" rx="8" ry="8" style="stroke:#181818;stroke-width:0.5;"/><path d="M64,427.6914 L64,454.6914 M51,435.6914 L77,435.6914 M64,454.6914 L51,469.6914 M64,454.6914 L77,469.6914 " fill="none" style="stroke:#181818;stroke-width:0.5;"/><rect fill="#E2E2F0" height="51.2422" rx="2.5" ry="2.5" style="stroke:#181818;stroke-width:0.5;" width="100" x="192" y="71"/><text fill="#000000" font-family="sans-serif" font-size="14" font-style="italic" lengthAdjust="spacing" textLength="86" x="199" y="93.1074">&#171;component&#187;</text><text fill="#000000" font-family="sans-serif" font-size="14" lengthAdjust="spacing" textLength="49" x="217.5" y="111.7285">Routing</text><rect fill="#E2E2F0" height="51.2422" rx="2.5" ry="2.5" style="stroke:#181818;stroke-width:0.5;" width="100" x="192" y="392.5703"/><text fill="#000000" font-family="sans-serif" font-size="14" font-style="italic" lengthAdjust="spacing" textLength="86" x="199" y="414.6777">&#171;component&#187;</text><text fill="#000000" font-family="sans-serif" font-size="14" lengthAdjust="spacing" textLength="49" x="217.5" y="433.2988">Routing</text><rect fill="#E2E2F0" height="51.2422" rx="2.5" ry="2.5" style="stroke:#181818;stroke-width:0.5;" width="100" x="302" y="71"/><text fill="#000000" font-family="sans-serif" font-size="14" font-style="italic" lengthAdjust="spacing" textLength="86" x="309" y="93.1074">&#171;component&#187;</text><text fill="#000000" font-family="sans-serif" font-size="14" lengthAdjust="spacing" textLength="73" x="315.5" y="111.7285">Component</text><rect fill="#E2E2F0" height="51.2422" rx="2.5" ry="2.5" style="stroke:#181818;stroke-width:0.5;" width="100" x="302" y="392.5703"/><text fill="#000000" font-family="sans-serif" font-size="14" font-style="italic" lengthAdjust="spacing" textLength="86" x="309" y="414.6777">&#171;component&#187;</text><text fill="#000000" font-family="sans-serif" font-size="14" lengthAdjust="spacing" textLength="73" x="315.5" y="433.2988">Component</text><rect fill="#E2E2F0" height="51.2422" rx="2.5" ry="2.5" style="stroke:#181818;stroke-width:0.5;" width="100" x="412" y="71"/><text fill="#000000" font-family="sans-serif" font-size="14" font-style="italic" lengthAdjust="spacing" textLength="86" x="419" y="93.1074">&#171;component&#187;</text><text fill="#000000" font-family="sans-serif" font-size="14" lengthAdjust="spacing" textLength="47" x="438.5" y="111.7285">Service</text><rect fill="#E2E2F0" height="51.2422" rx="2.5" ry="2.5" style="stroke:#181818;stroke-width:0.5;" width="100" x="412" y="392.5703"/><text fill="#000000" font-family="sans-serif" font-size="14" font-style="italic" lengthAdjust="spacing" textLength="86" x="419" y="414.6777">&#171;component&#187;</text><text fill="#000000" font-family="sans-serif" font-size="14" lengthAdjust="spacing" textLength="47" x="438.5" y="433.2988">Service</text><rect fill="#FFFFFF" height="251.3281" style="stroke:#181818;stroke-width:1.0;" width="10" x="59" y="133.2422"/><rect fill="#FFFFFF" height="219.0371" style="stroke:#181818;stroke-width:1.0;" width="10" x="237" y="156.5332"/><rect fill="#FFFFFF" height="196.7461" style="stroke:#181818;stroke-width:1.0;" width="10" x="347" y="187.8242"/><line style="stroke:#181818;stroke-width:1.0;" x1="235" x2="225" y1="156.5332" y2="152.5332"/><line style="stroke:#181818;stroke-width:1.0;" x1="235" x2="225" y1="156.5332" y2="160.5332"/><line style="stroke:#181818;stroke-width:1.0;" x1="69" x2="236" y1="156.5332" y2="156.5332"/><text fill="#000000" font-family="sans-serif" font-size="13" font-weight="bold" lengthAdjust="spacing" textLength="7" x="76" y="151.2705">1</text><text fill="#000000" font-family="sans-serif" font-size="13" lengthAdjust="spacing" textLength="138" x="87" y="151.2705">Navigate to editLift page</text><line style="stroke:#181818;stroke-width:1.0;" x1="345" x2="335" y1="187.8242" y2="183.8242"/><line style="stroke:#181818;stroke-width:1.0;" x1="345" x2="335" y1="187.8242" y2="191.8242"/><line style="stroke:#181818;stroke-width:1.0;" x1="247" x2="346" y1="187.8242" y2="187.8242"/><text fill="#000000" font-family="sans-serif" font-size="13" font-weight="bold" lengthAdjust="spacing" textLength="7" x="254" y="182.5615">2</text><text fill="#000000" font-family="sans-serif" font-size="13" lengthAdjust="spacing" textLength="38" x="265" y="182.5615">edit lift</text><line style="stroke:#181818;stroke-width:1.0;" x1="460" x2="450" y1="219.1152" y2="215.1152"/><line style="stroke:#181818;stroke-width:1.0;" x1="460" x2="450" y1="219.1152" y2="223.1152"/><line style="stroke:#181818;stroke-width:1.0;" x1="357" x2="461" y1="219.1152" y2="219.1152"/><text fill="#000000" font-family="sans-serif" font-size="13" font-weight="bold" lengthAdjust="spacing" textLength="7" x="364" y="213.8525">3</text><text fill="#000000" font-family="sans-serif" font-size="13" lengthAdjust="spacing" textLength="38" x="375" y="213.8525">edit lift</text><line style="stroke:#181818;stroke-width:1.0;" x1="576" x2="566" y1="250.4063" y2="246.4063"/><line style="stroke:#181818;stroke-width:1.0;" x1="576" x2="566" y1="250.4063" y2="254.4063"/><line style="stroke:#181818;stroke-width:1.0;" x1="462" x2="577" y1="250.4063" y2="250.4063"/><text fill="#000000" font-family="sans-serif" font-size="13" font-weight="bold" lengthAdjust="spacing" textLength="7" x="469" y="245.1436">4</text><text fill="#000000" font-family="sans-serif" font-size="13" lengthAdjust="spacing" textLength="71" x="480" y="245.1436">Http request</text><line style="stroke:#181818;stroke-width:1.0;" x1="463" x2="473" y1="281.6973" y2="277.6973"/><line style="stroke:#181818;stroke-width:1.0;" x1="463" x2="473" y1="281.6973" y2="285.6973"/><line style="stroke:#181818;stroke-width:1.0;stroke-dasharray:2.0,2.0;" x1="462" x2="577" y1="281.6973" y2="281.6973"/><text fill="#000000" font-family="sans-serif" font-size="13" font-weight="bold" lengthAdjust="spacing" textLength="7" x="479" y="276.4346">5</text><text fill="#000000" font-family="sans-serif" font-size="13" lengthAdjust="spacing" textLength="81" x="490" y="276.4346">Http response</text><line style="stroke:#181818;stroke-width:1.0;" x1="358" x2="368" y1="312.9883" y2="308.9883"/><line style="stroke:#181818;stroke-width:1.0;" x1="358" x2="368" y1="312.9883" y2="316.9883"/><line style="stroke:#181818;stroke-width:1.0;stroke-dasharray:2.0,2.0;" x1="357" x2="461" y1="312.9883" y2="312.9883"/><text fill="#000000" font-family="sans-serif" font-size="13" font-weight="bold" lengthAdjust="spacing" textLength="7" x="374" y="307.7256">6</text><text fill="#000000" font-family="sans-serif" font-size="13" lengthAdjust="spacing" textLength="49" x="385" y="307.7256">success</text><line style="stroke:#181818;stroke-width:1.0;" x1="248" x2="258" y1="344.2793" y2="340.2793"/><line style="stroke:#181818;stroke-width:1.0;" x1="248" x2="258" y1="344.2793" y2="348.2793"/><line style="stroke:#181818;stroke-width:1.0;stroke-dasharray:2.0,2.0;" x1="247" x2="346" y1="344.2793" y2="344.2793"/><text fill="#000000" font-family="sans-serif" font-size="13" font-weight="bold" lengthAdjust="spacing" textLength="7" x="264" y="339.0166">7</text><text fill="#000000" font-family="sans-serif" font-size="13" lengthAdjust="spacing" textLength="49" x="275" y="339.0166">success</text><line style="stroke:#181818;stroke-width:1.0;" x1="70" x2="80" y1="375.5703" y2="371.5703"/><line style="stroke:#181818;stroke-width:1.0;" x1="70" x2="80" y1="375.5703" y2="379.5703"/><line style="stroke:#181818;stroke-width:1.0;stroke-dasharray:2.0,2.0;" x1="69" x2="241" y1="375.5703" y2="375.5703"/><text fill="#000000" font-family="sans-serif" font-size="13" font-weight="bold" lengthAdjust="spacing" textLength="7" x="86" y="370.3076">8</text><text fill="#000000" font-family="sans-serif" font-size="13" lengthAdjust="spacing" textLength="131" x="97" y="370.3076">Successfully response</text><!--SRC=[VP11RiGW34NtdCBAFXU8Hjb4bRfekkYSm6Ky4Pe4A9X8S_i22KFIHNSM_ttplp6mqM7v9YVyGscB3XUmA1yuqPMVCu4ZoKAmuZY_tHG3mgpkyGab6mVDW8iD7aRKqU8QG0_3AE8YLb9Pr0pDbmciz9GrjyrmkKYpMAD9Sz-VyQ48sP2m_-WhkLL9ogpVvZzuIgfMP4h1Xh7j-rUA3ZvnLLFIs035UX-nMpp0HDMrmwAOqeASgikEUeuDJvB8UW9Bf1DR7XFGmJkpZMV-2UHPr0fjMpKVotWw60yPV92Il1StUaNOCR77E3SkV3n5_gGgrqsvXtb-rayFUyibVW40]--></g></svg>