<?xml version="1.0" encoding="us-ascii" standalone="no"?><svg xmlns="http://www.w3.org/2000/svg" xmlns:xlink="http://www.w3.org/1999/xlink" contentStyleType="text/css" height="513px" preserveAspectRatio="none" style="width:748px;height:513px;background:#FFFFFF;" version="1.1" viewBox="0 0 748 513" width="748px" zoomAndPan="magnify"><defs/><g><text fill="#000000" font-family="sans-serif" font-size="14" font-weight="bold" lengthAdjust="spacing" textLength="148" x="296.5" y="30.1074">Create a passageway</text><rect fill="#FFFFFF" height="219.0371" style="stroke:#181818;stroke-width:1.0;" width="10" x="59" y="175.1543"/><rect fill="#FFFFFF" height="219.0371" style="stroke:#181818;stroke-width:1.0;" width="10" x="270" y="175.1543"/><rect fill="#FFFFFF" height="156.4551" style="stroke:#181818;stroke-width:1.0;" width="10" x="422" y="206.4453"/><rect fill="#FFFFFF" height="93.873" style="stroke:#181818;stroke-width:1.0;" width="10" x="574" y="237.7363"/><line style="stroke:#181818;stroke-width:0.5;stroke-dasharray:5.0,5.0;" x1="64" x2="64" y1="141.8633" y2="412.1914"/><line style="stroke:#181818;stroke-width:0.5;stroke-dasharray:5.0,5.0;" x1="275" x2="275" y1="141.8633" y2="412.1914"/><line style="stroke:#181818;stroke-width:0.5;stroke-dasharray:5.0,5.0;" x1="427" x2="427" y1="141.8633" y2="412.1914"/><line style="stroke:#181818;stroke-width:0.5;stroke-dasharray:5.0,5.0;" x1="579" x2="579" y1="141.8633" y2="412.1914"/><text fill="#000000" font-family="sans-serif" font-size="14" font-style="italic" lengthAdjust="spacing" textLength="61" x="30.5" y="119.7285">&#171;Human&#187;</text><text fill="#000000" font-family="sans-serif" font-size="14" lengthAdjust="spacing" textLength="112" x="5" y="138.3496">Campus Manager</text><ellipse cx="64" cy="53.1211" fill="#E2E2F0" rx="8" ry="8" style="stroke:#181818;stroke-width:0.5;"/><path d="M64,61.1211 L64,88.1211 M51,69.1211 L77,69.1211 M64,88.1211 L51,103.1211 M64,88.1211 L77,103.1211 " fill="none" style="stroke:#181818;stroke-width:0.5;"/><text fill="#000000" font-family="sans-serif" font-size="14" font-style="italic" lengthAdjust="spacing" textLength="61" x="30.5" y="426.2988">&#171;Human&#187;</text><text fill="#000000" font-family="sans-serif" font-size="14" lengthAdjust="spacing" textLength="112" x="5" y="444.9199">Campus Manager</text><ellipse cx="64" cy="456.9336" fill="#E2E2F0" rx="8" ry="8" style="stroke:#181818;stroke-width:0.5;"/><path d="M64,464.9336 L64,491.9336 M51,472.9336 L77,472.9336 M64,491.9336 L51,506.9336 M64,491.9336 L77,506.9336 " fill="none" style="stroke:#181818;stroke-width:0.5;"/><rect fill="#E2E2F0" height="51.2422" rx="2.5" ry="2.5" style="stroke:#181818;stroke-width:0.5;" width="100" x="225" y="89.6211"/><text fill="#000000" font-family="sans-serif" font-size="14" font-style="italic" lengthAdjust="spacing" textLength="86" x="232" y="111.7285">&#171;component&#187;</text><text fill="#000000" font-family="sans-serif" font-size="14" lengthAdjust="spacing" textLength="49" x="250.5" y="130.3496">Routing</text><rect fill="#E2E2F0" height="51.2422" rx="2.5" ry="2.5" style="stroke:#181818;stroke-width:0.5;" width="100" x="225" y="411.1914"/><text fill="#000000" font-family="sans-serif" font-size="14" font-style="italic" lengthAdjust="spacing" textLength="86" x="232" y="433.2988">&#171;component&#187;</text><text fill="#000000" font-family="sans-serif" font-size="14" lengthAdjust="spacing" textLength="49" x="250.5" y="451.9199">Routing</text><rect fill="#E2E2F0" height="51.2422" rx="2.5" ry="2.5" style="stroke:#181818;stroke-width:0.5;" width="100" x="377" y="89.6211"/><text fill="#000000" font-family="sans-serif" font-size="14" font-style="italic" lengthAdjust="spacing" textLength="86" x="384" y="111.7285">&#171;component&#187;</text><text fill="#000000" font-family="sans-serif" font-size="14" lengthAdjust="spacing" textLength="73" x="390.5" y="130.3496">Component</text><rect fill="#E2E2F0" height="51.2422" rx="2.5" ry="2.5" style="stroke:#181818;stroke-width:0.5;" width="100" x="377" y="411.1914"/><text fill="#000000" font-family="sans-serif" font-size="14" font-style="italic" lengthAdjust="spacing" textLength="86" x="384" y="433.2988">&#171;component&#187;</text><text fill="#000000" font-family="sans-serif" font-size="14" lengthAdjust="spacing" textLength="73" x="390.5" y="451.9199">Component</text><rect fill="#E2E2F0" height="51.2422" rx="2.5" ry="2.5" style="stroke:#181818;stroke-width:0.5;" width="100" x="529" y="89.6211"/><text fill="#000000" font-family="sans-serif" font-size="14" font-style="italic" lengthAdjust="spacing" textLength="86" x="536" y="111.7285">&#171;component&#187;</text><text fill="#000000" font-family="sans-serif" font-size="14" lengthAdjust="spacing" textLength="47" x="555.5" y="130.3496">Service</text><rect fill="#E2E2F0" height="51.2422" rx="2.5" ry="2.5" style="stroke:#181818;stroke-width:0.5;" width="100" x="529" y="411.1914"/><text fill="#000000" font-family="sans-serif" font-size="14" font-style="italic" lengthAdjust="spacing" textLength="86" x="536" y="433.2988">&#171;component&#187;</text><text fill="#000000" font-family="sans-serif" font-size="14" lengthAdjust="spacing" textLength="47" x="555.5" y="451.9199">Service</text><rect fill="#FFFFFF" height="219.0371" style="stroke:#181818;stroke-width:1.0;" width="10" x="59" y="175.1543"/><rect fill="#FFFFFF" height="219.0371" style="stroke:#181818;stroke-width:1.0;" width="10" x="270" y="175.1543"/><rect fill="#FFFFFF" height="156.4551" style="stroke:#181818;stroke-width:1.0;" width="10" x="422" y="206.4453"/><rect fill="#FFFFFF" height="93.873" style="stroke:#181818;stroke-width:1.0;" width="10" x="574" y="237.7363"/><line style="stroke:#181818;stroke-width:1.0;" x1="268" x2="258" y1="175.1543" y2="171.1543"/><line style="stroke:#181818;stroke-width:1.0;" x1="268" x2="258" y1="175.1543" y2="179.1543"/><line style="stroke:#181818;stroke-width:1.0;" x1="69" x2="269" y1="175.1543" y2="175.1543"/><text fill="#000000" font-family="sans-serif" font-size="13" font-weight="bold" lengthAdjust="spacing" textLength="7" x="76" y="169.8916">1</text><text fill="#000000" font-family="sans-serif" font-size="13" lengthAdjust="spacing" textLength="176" x="87" y="169.8916">wants to create a passageway</text><line style="stroke:#181818;stroke-width:1.0;" x1="420" x2="410" y1="206.4453" y2="202.4453"/><line style="stroke:#181818;stroke-width:1.0;" x1="420" x2="410" y1="206.4453" y2="210.4453"/><line style="stroke:#181818;stroke-width:1.0;" x1="280" x2="421" y1="206.4453" y2="206.4453"/><text fill="#000000" font-family="sans-serif" font-size="13" font-weight="bold" lengthAdjust="spacing" textLength="7" x="287" y="201.1826">2</text><text fill="#000000" font-family="sans-serif" font-size="13" lengthAdjust="spacing" textLength="112" x="298" y="201.1826">create passageway</text><line style="stroke:#181818;stroke-width:1.0;" x1="572" x2="562" y1="237.7363" y2="233.7363"/><line style="stroke:#181818;stroke-width:1.0;" x1="572" x2="562" y1="237.7363" y2="241.7363"/><line style="stroke:#181818;stroke-width:1.0;" x1="432" x2="573" y1="237.7363" y2="237.7363"/><text fill="#000000" font-family="sans-serif" font-size="13" font-weight="bold" lengthAdjust="spacing" textLength="7" x="439" y="232.4736">3</text><text fill="#000000" font-family="sans-serif" font-size="13" lengthAdjust="spacing" textLength="112" x="450" y="232.4736">create passageway</text><line style="stroke:#181818;stroke-width:1.0;" x1="740" x2="730" y1="269.0273" y2="265.0273"/><line style="stroke:#181818;stroke-width:1.0;" x1="740" x2="730" y1="269.0273" y2="273.0273"/><line style="stroke:#181818;stroke-width:1.0;" x1="584" x2="741" y1="269.0273" y2="269.0273"/><text fill="#000000" font-family="sans-serif" font-size="13" font-weight="bold" lengthAdjust="spacing" textLength="7" x="591" y="263.7646">4</text><text fill="#000000" font-family="sans-serif" font-size="13" lengthAdjust="spacing" textLength="123" x="602" y="263.7646">Http Request (POST)</text><line style="stroke:#181818;stroke-width:1.0;" x1="585" x2="595" y1="300.3184" y2="296.3184"/><line style="stroke:#181818;stroke-width:1.0;" x1="585" x2="595" y1="300.3184" y2="304.3184"/><line style="stroke:#181818;stroke-width:1.0;stroke-dasharray:2.0,2.0;" x1="584" x2="741" y1="300.3184" y2="300.3184"/><text fill="#000000" font-family="sans-serif" font-size="13" font-weight="bold" lengthAdjust="spacing" textLength="7" x="601" y="295.0557">5</text><text fill="#000000" font-family="sans-serif" font-size="13" lengthAdjust="spacing" textLength="119" x="612" y="295.0557">Http Response (201)</text><line style="stroke:#181818;stroke-width:1.0;" x1="433" x2="443" y1="331.6094" y2="327.6094"/><line style="stroke:#181818;stroke-width:1.0;" x1="433" x2="443" y1="331.6094" y2="335.6094"/><line style="stroke:#181818;stroke-width:1.0;stroke-dasharray:2.0,2.0;" x1="432" x2="578" y1="331.6094" y2="331.6094"/><text fill="#000000" font-family="sans-serif" font-size="13" font-weight="bold" lengthAdjust="spacing" textLength="7" x="449" y="326.3467">6</text><text fill="#000000" font-family="sans-serif" font-size="13" lengthAdjust="spacing" textLength="49" x="460" y="326.3467">success</text><line style="stroke:#181818;stroke-width:1.0;" x1="281" x2="291" y1="362.9004" y2="358.9004"/><line style="stroke:#181818;stroke-width:1.0;" x1="281" x2="291" y1="362.9004" y2="366.9004"/><line style="stroke:#181818;stroke-width:1.0;stroke-dasharray:2.0,2.0;" x1="280" x2="426" y1="362.9004" y2="362.9004"/><text fill="#000000" font-family="sans-serif" font-size="13" font-weight="bold" lengthAdjust="spacing" textLength="7" x="297" y="357.6377">7</text><text fill="#000000" font-family="sans-serif" font-size="13" lengthAdjust="spacing" textLength="49" x="308" y="357.6377">success</text><line style="stroke:#181818;stroke-width:1.0;" x1="65" x2="75" y1="394.1914" y2="390.1914"/><line style="stroke:#181818;stroke-width:1.0;" x1="65" x2="75" y1="394.1914" y2="398.1914"/><line style="stroke:#181818;stroke-width:1.0;stroke-dasharray:2.0,2.0;" x1="64" x2="274" y1="394.1914" y2="394.1914"/><text fill="#000000" font-family="sans-serif" font-size="13" font-weight="bold" lengthAdjust="spacing" textLength="7" x="81" y="388.9287">8</text><text fill="#000000" font-family="sans-serif" font-size="13" lengthAdjust="spacing" textLength="106" x="92" y="388.9287">success message</text><!--SRC=[VP2nRiCm34HtVWMHAHa2j1sDm8kNB4QAk3_0gaGWf9PTaKgGlwyisxNh1Da8wTsHTnIqSQ7-P0zojgubJpMsPCvquafltuoUZGAerJWNdaaPAH8YaRZI3O2CDXvN1TLj42p9nG-_GX8iIjpjzg4cb-SGhTKQsv9JN1sReDQT4kNxEQAcgTl6iTCbNemVIT1Xp-YA_SKQJgpqymA7ejpc-T_c3AzHAAWDcWS9Oq1xwLwBSfe7BOmUdLywB1iz5XtriWw1n7M2yRhdce62aUwK6UvLMppoJs1HNByVgeyDJ6ctsmcHc5iOrsylhnkON6ONIp26HU2BxvOEn_wlwm6VWiLUq-ex4cjEmUQAiS7PKopu5m00]--></g></svg>