<?xml version="1.0" encoding="us-ascii" standalone="no"?><svg xmlns="http://www.w3.org/2000/svg" xmlns:xlink="http://www.w3.org/1999/xlink" contentStyleType="text/css" height="716px" preserveAspectRatio="none" style="width:853px;height:716px;background:#FFFFFF;" version="1.1" viewBox="0 0 853 716" width="853px" zoomAndPan="magnify"><defs/><g><text fill="#000000" font-family="sans-serif" font-size="14" font-weight="bold" lengthAdjust="spacing" textLength="164" x="346" y="30.1074">list all robot of the fleet</text><rect fill="#FFFFFF" height="437.7344" style="stroke:#181818;stroke-width:1.0;" width="10" x="89" y="161.1543"/><rect fill="#FFFFFF" height="375.1523" style="stroke:#181818;stroke-width:1.0;" width="10" x="199" y="192.4453"/><rect fill="#FFFFFF" height="312.5703" style="stroke:#181818;stroke-width:1.0;" width="10" x="309" y="223.7363"/><rect fill="#FFFFFF" height="93.873" style="stroke:#181818;stroke-width:1.0;" width="10" x="442" y="255.0273"/><rect fill="#FFFFFF" height="124.8242" style="stroke:#181818;stroke-width:1.0;" width="10" x="564" y="380.1914"/><rect fill="#FFFFFF" height="52.2422" style="stroke:#181818;stroke-width:1.0;" width="10" x="695" y="421.4824"/><rect fill="#FFFFFF" height="31.291" style="stroke:#181818;stroke-width:1.0;" width="10" x="801" y="286.3184"/><line style="stroke:#181818;stroke-width:0.5;stroke-dasharray:5.0,5.0;" x1="94" x2="94" y1="127.8633" y2="616.8887"/><line style="stroke:#181818;stroke-width:0.5;stroke-dasharray:5.0,5.0;" x1="204" x2="204" y1="127.8633" y2="616.8887"/><line style="stroke:#181818;stroke-width:0.5;stroke-dasharray:5.0,5.0;" x1="314" x2="314" y1="127.8633" y2="616.8887"/><line style="stroke:#181818;stroke-width:0.5;stroke-dasharray:5.0,5.0;" x1="447" x2="447" y1="127.8633" y2="616.8887"/><line style="stroke:#181818;stroke-width:0.5;stroke-dasharray:5.0,5.0;" x1="569" x2="569" y1="127.8633" y2="616.8887"/><line style="stroke:#181818;stroke-width:0.5;stroke-dasharray:5.0,5.0;" x1="700" x2="700" y1="429.3125" y2="616.8887"/><line style="stroke:#181818;stroke-width:0.5;stroke-dasharray:5.0,5.0;" x1="806" x2="806" y1="127.8633" y2="616.8887"/><rect fill="#E2E2F0" height="51.2422" rx="2.5" ry="2.5" style="stroke:#181818;stroke-width:0.5;" width="100" x="44" y="75.6211"/><text fill="#000000" font-family="sans-serif" font-size="14" font-style="italic" lengthAdjust="spacing" textLength="86" x="51" y="97.7285">&#171;component&#187;</text><text fill="#000000" font-family="sans-serif" font-size="14" lengthAdjust="spacing" textLength="49" x="69.5" y="116.3496">Routing</text><rect fill="#E2E2F0" height="51.2422" rx="2.5" ry="2.5" style="stroke:#181818;stroke-width:0.5;" width="100" x="44" y="615.8887"/><text fill="#000000" font-family="sans-serif" font-size="14" font-style="italic" lengthAdjust="spacing" textLength="86" x="51" y="637.9961">&#171;component&#187;</text><text fill="#000000" font-family="sans-serif" font-size="14" lengthAdjust="spacing" textLength="49" x="69.5" y="656.6172">Routing</text><rect fill="#E2E2F0" height="51.2422" rx="2.5" ry="2.5" style="stroke:#181818;stroke-width:0.5;" width="100" x="154" y="75.6211"/><text fill="#000000" font-family="sans-serif" font-size="14" font-style="italic" lengthAdjust="spacing" textLength="86" x="161" y="97.7285">&#171;component&#187;</text><text fill="#000000" font-family="sans-serif" font-size="14" lengthAdjust="spacing" textLength="62" x="173" y="116.3496">Controller</text><rect fill="#E2E2F0" height="51.2422" rx="2.5" ry="2.5" style="stroke:#181818;stroke-width:0.5;" width="100" x="154" y="615.8887"/><text fill="#000000" font-family="sans-serif" font-size="14" font-style="italic" lengthAdjust="spacing" textLength="86" x="161" y="637.9961">&#171;component&#187;</text><text fill="#000000" font-family="sans-serif" font-size="14" lengthAdjust="spacing" textLength="62" x="173" y="656.6172">Controller</text><rect fill="#E2E2F0" height="51.2422" rx="2.5" ry="2.5" style="stroke:#181818;stroke-width:0.5;" width="100" x="264" y="75.6211"/><text fill="#000000" font-family="sans-serif" font-size="14" font-style="italic" lengthAdjust="spacing" textLength="86" x="271" y="97.7285">&#171;component&#187;</text><text fill="#000000" font-family="sans-serif" font-size="14" lengthAdjust="spacing" textLength="47" x="290.5" y="116.3496">Service</text><rect fill="#E2E2F0" height="51.2422" rx="2.5" ry="2.5" style="stroke:#181818;stroke-width:0.5;" width="100" x="264" y="615.8887"/><text fill="#000000" font-family="sans-serif" font-size="14" font-style="italic" lengthAdjust="spacing" textLength="86" x="271" y="637.9961">&#171;component&#187;</text><text fill="#000000" font-family="sans-serif" font-size="14" lengthAdjust="spacing" textLength="47" x="290.5" y="656.6172">Service</text><rect fill="#E2E2F0" height="51.2422" rx="2.5" ry="2.5" style="stroke:#181818;stroke-width:0.5;" width="124" x="385" y="75.6211"/><text fill="#000000" font-family="sans-serif" font-size="14" font-style="italic" lengthAdjust="spacing" textLength="86" x="404" y="97.7285">&#171;component&#187;</text><text fill="#000000" font-family="sans-serif" font-size="14" lengthAdjust="spacing" textLength="110" x="392" y="116.3496">Robot Repository</text><rect fill="#E2E2F0" height="51.2422" rx="2.5" ry="2.5" style="stroke:#181818;stroke-width:0.5;" width="124" x="385" y="615.8887"/><text fill="#000000" font-family="sans-serif" font-size="14" font-style="italic" lengthAdjust="spacing" textLength="86" x="404" y="637.9961">&#171;component&#187;</text><text fill="#000000" font-family="sans-serif" font-size="14" lengthAdjust="spacing" textLength="110" x="392" y="656.6172">Robot Repository</text><rect fill="#E2E2F0" height="51.2422" rx="2.5" ry="2.5" style="stroke:#181818;stroke-width:0.5;" width="100" x="519" y="75.6211"/><text fill="#000000" font-family="sans-serif" font-size="14" font-style="italic" lengthAdjust="spacing" textLength="86" x="526" y="97.7285">&#171;component&#187;</text><text fill="#000000" font-family="sans-serif" font-size="14" lengthAdjust="spacing" textLength="27" x="555.5" y="116.3496">Map</text><rect fill="#E2E2F0" height="51.2422" rx="2.5" ry="2.5" style="stroke:#181818;stroke-width:0.5;" width="100" x="519" y="615.8887"/><text fill="#000000" font-family="sans-serif" font-size="14" font-style="italic" lengthAdjust="spacing" textLength="86" x="526" y="637.9961">&#171;component&#187;</text><text fill="#000000" font-family="sans-serif" font-size="14" lengthAdjust="spacing" textLength="27" x="555.5" y="656.6172">Map</text><rect fill="#E2E2F0" height="51.2422" rx="2.5" ry="2.5" style="stroke:#181818;stroke-width:0.5;" width="100" x="650" y="615.8887"/><text fill="#000000" font-family="sans-serif" font-size="14" font-style="italic" lengthAdjust="spacing" textLength="86" x="657" y="637.9961">&#171;component&#187;</text><text fill="#000000" font-family="sans-serif" font-size="14" lengthAdjust="spacing" textLength="30" x="685" y="656.6172">DTO</text><text fill="#000000" font-family="sans-serif" font-size="14" font-style="italic" lengthAdjust="spacing" textLength="86" x="760" y="105.7285">&#171;component&#187;</text><text fill="#000000" font-family="sans-serif" font-size="14" lengthAdjust="spacing" textLength="61" x="772.5" y="124.3496">Database</text><path d="M788,54.6211 C788,44.6211 806,44.6211 806,44.6211 C806,44.6211 824,44.6211 824,54.6211 L824,80.6211 C824,90.6211 806,90.6211 806,90.6211 C806,90.6211 788,90.6211 788,80.6211 L788,54.6211 " fill="#E2E2F0" style="stroke:#181818;stroke-width:1.5;"/><path d="M788,54.6211 C788,64.6211 806,64.6211 806,64.6211 C806,64.6211 824,64.6211 824,54.6211 " fill="none" style="stroke:#181818;stroke-width:1.5;"/><text fill="#000000" font-family="sans-serif" font-size="14" font-style="italic" lengthAdjust="spacing" textLength="86" x="760" y="630.9961">&#171;component&#187;</text><text fill="#000000" font-family="sans-serif" font-size="14" lengthAdjust="spacing" textLength="61" x="772.5" y="649.6172">Database</text><path d="M788,663.1309 C788,653.1309 806,653.1309 806,653.1309 C806,653.1309 824,653.1309 824,663.1309 L824,689.1309 C824,699.1309 806,699.1309 806,699.1309 C806,699.1309 788,699.1309 788,689.1309 L788,663.1309 " fill="#E2E2F0" style="stroke:#181818;stroke-width:1.5;"/><path d="M788,663.1309 C788,673.1309 806,673.1309 806,673.1309 C806,673.1309 824,673.1309 824,663.1309 " fill="none" style="stroke:#181818;stroke-width:1.5;"/><rect fill="#FFFFFF" height="437.7344" style="stroke:#181818;stroke-width:1.0;" width="10" x="89" y="161.1543"/><rect fill="#FFFFFF" height="375.1523" style="stroke:#181818;stroke-width:1.0;" width="10" x="199" y="192.4453"/><rect fill="#FFFFFF" height="312.5703" style="stroke:#181818;stroke-width:1.0;" width="10" x="309" y="223.7363"/><rect fill="#FFFFFF" height="93.873" style="stroke:#181818;stroke-width:1.0;" width="10" x="442" y="255.0273"/><rect fill="#FFFFFF" height="124.8242" style="stroke:#181818;stroke-width:1.0;" width="10" x="564" y="380.1914"/><rect fill="#FFFFFF" height="52.2422" style="stroke:#181818;stroke-width:1.0;" width="10" x="695" y="421.4824"/><rect fill="#FFFFFF" height="31.291" style="stroke:#181818;stroke-width:1.0;" width="10" x="801" y="286.3184"/><ellipse cx="29.5" cy="160.4043" fill="none" rx="4" ry="4" style="stroke:#181818;stroke-width:1.5;"/><line style="stroke:#181818;stroke-width:1.0;" x1="87" x2="77" y1="161.1543" y2="157.1543"/><line style="stroke:#181818;stroke-width:1.0;" x1="87" x2="77" y1="161.1543" y2="165.1543"/><line style="stroke:#181818;stroke-width:1.0;" x1="34" x2="88" y1="161.1543" y2="161.1543"/><text fill="#000000" font-family="sans-serif" font-size="13" font-weight="bold" lengthAdjust="spacing" textLength="7" x="37" y="155.8916">1</text><text fill="#000000" font-family="sans-serif" font-size="13" lengthAdjust="spacing" textLength="26" x="48" y="155.8916">GET</text><line style="stroke:#181818;stroke-width:1.0;" x1="197" x2="187" y1="192.4453" y2="188.4453"/><line style="stroke:#181818;stroke-width:1.0;" x1="197" x2="187" y1="192.4453" y2="196.4453"/><line style="stroke:#181818;stroke-width:1.0;" x1="99" x2="198" y1="192.4453" y2="192.4453"/><text fill="#000000" font-family="sans-serif" font-size="13" font-weight="bold" lengthAdjust="spacing" textLength="7" x="106" y="187.1826">2</text><text fill="#000000" font-family="sans-serif" font-size="13" lengthAdjust="spacing" textLength="50" x="117" y="187.1826">list robot</text><line style="stroke:#181818;stroke-width:1.0;" x1="307" x2="297" y1="223.7363" y2="219.7363"/><line style="stroke:#181818;stroke-width:1.0;" x1="307" x2="297" y1="223.7363" y2="227.7363"/><line style="stroke:#181818;stroke-width:1.0;" x1="209" x2="308" y1="223.7363" y2="223.7363"/><text fill="#000000" font-family="sans-serif" font-size="13" font-weight="bold" lengthAdjust="spacing" textLength="7" x="216" y="218.4736">3</text><text fill="#000000" font-family="sans-serif" font-size="13" lengthAdjust="spacing" textLength="50" x="227" y="218.4736">list robot</text><line style="stroke:#181818;stroke-width:1.0;" x1="440" x2="430" y1="255.0273" y2="251.0273"/><line style="stroke:#181818;stroke-width:1.0;" x1="440" x2="430" y1="255.0273" y2="259.0273"/><line style="stroke:#181818;stroke-width:1.0;" x1="319" x2="441" y1="255.0273" y2="255.0273"/><text fill="#000000" font-family="sans-serif" font-size="13" font-weight="bold" lengthAdjust="spacing" textLength="7" x="326" y="249.7646">4</text><text fill="#000000" font-family="sans-serif" font-size="13" lengthAdjust="spacing" textLength="93" x="337" y="249.7646">get list of robots</text><line style="stroke:#181818;stroke-width:1.0;" x1="799" x2="789" y1="286.3184" y2="282.3184"/><line style="stroke:#181818;stroke-width:1.0;" x1="799" x2="789" y1="286.3184" y2="290.3184"/><line style="stroke:#181818;stroke-width:1.0;" x1="452" x2="800" y1="286.3184" y2="286.3184"/><text fill="#000000" font-family="sans-serif" font-size="13" font-weight="bold" lengthAdjust="spacing" textLength="7" x="459" y="281.0557">5</text><text fill="#000000" font-family="sans-serif" font-size="13" lengthAdjust="spacing" textLength="75" x="470" y="281.0557">select robots</text><line style="stroke:#181818;stroke-width:1.0;" x1="453" x2="463" y1="317.6094" y2="313.6094"/><line style="stroke:#181818;stroke-width:1.0;" x1="453" x2="463" y1="317.6094" y2="321.6094"/><line style="stroke:#181818;stroke-width:1.0;stroke-dasharray:2.0,2.0;" x1="452" x2="805" y1="317.6094" y2="317.6094"/><text fill="#000000" font-family="sans-serif" font-size="13" font-weight="bold" lengthAdjust="spacing" textLength="7" x="469" y="312.3467">6</text><text fill="#000000" font-family="sans-serif" font-size="13" lengthAdjust="spacing" textLength="17" x="480" y="312.3467">list</text><line style="stroke:#181818;stroke-width:1.0;" x1="320" x2="330" y1="348.9004" y2="344.9004"/><line style="stroke:#181818;stroke-width:1.0;" x1="320" x2="330" y1="348.9004" y2="352.9004"/><line style="stroke:#181818;stroke-width:1.0;stroke-dasharray:2.0,2.0;" x1="319" x2="446" y1="348.9004" y2="348.9004"/><text fill="#000000" font-family="sans-serif" font-size="13" font-weight="bold" lengthAdjust="spacing" textLength="7" x="336" y="343.6377">7</text><text fill="#000000" font-family="sans-serif" font-size="13" lengthAdjust="spacing" textLength="71" x="347" y="343.6377">list of robots</text><line style="stroke:#181818;stroke-width:1.0;" x1="562" x2="552" y1="380.1914" y2="376.1914"/><line style="stroke:#181818;stroke-width:1.0;" x1="562" x2="552" y1="380.1914" y2="384.1914"/><line style="stroke:#181818;stroke-width:1.0;" x1="319" x2="563" y1="380.1914" y2="380.1914"/><text fill="#000000" font-family="sans-serif" font-size="13" font-weight="bold" lengthAdjust="spacing" textLength="7" x="326" y="374.9287">8</text><text fill="#000000" font-family="sans-serif" font-size="13" lengthAdjust="spacing" textLength="111" x="337" y="374.9287">convert to DTO List</text><line style="stroke:#181818;stroke-width:1.0;" x1="648" x2="638" y1="411.4824" y2="407.4824"/><line style="stroke:#181818;stroke-width:1.0;" x1="648" x2="638" y1="411.4824" y2="415.4824"/><line style="stroke:#181818;stroke-width:1.0;stroke-dasharray:2.0,2.0;" x1="574" x2="649" y1="411.4824" y2="411.4824"/><text fill="#000000" font-family="sans-serif" font-size="13" font-weight="bold" lengthAdjust="spacing" textLength="7" x="581" y="406.2197">9</text><text fill="#000000" font-family="sans-serif" font-size="13" lengthAdjust="spacing" textLength="41" x="592" y="406.2197">convert</text><rect fill="#E2E2F0" height="51.2422" rx="2.5" ry="2.5" style="stroke:#181818;stroke-width:0.5;" width="100" x="650" y="388.1914"/><text fill="#000000" font-family="sans-serif" font-size="14" font-style="italic" lengthAdjust="spacing" textLength="86" x="657" y="410.2988">&#171;component&#187;</text><text fill="#000000" font-family="sans-serif" font-size="14" lengthAdjust="spacing" textLength="30" x="685" y="428.9199">DTO</text><line style="stroke:#181818;stroke-width:1.0;" x1="575" x2="585" y1="473.7246" y2="469.7246"/><line style="stroke:#181818;stroke-width:1.0;" x1="575" x2="585" y1="473.7246" y2="477.7246"/><line style="stroke:#181818;stroke-width:1.0;stroke-dasharray:2.0,2.0;" x1="574" x2="699" y1="473.7246" y2="473.7246"/><text fill="#000000" font-family="sans-serif" font-size="13" font-weight="bold" lengthAdjust="spacing" textLength="14" x="591" y="468.4619">10</text><text fill="#000000" font-family="sans-serif" font-size="13" lengthAdjust="spacing" textLength="39" x="609" y="468.4619">dto list</text><line style="stroke:#181818;stroke-width:1.0;" x1="320" x2="330" y1="505.0156" y2="501.0156"/><line style="stroke:#181818;stroke-width:1.0;" x1="320" x2="330" y1="505.0156" y2="509.0156"/><line style="stroke:#181818;stroke-width:1.0;stroke-dasharray:2.0,2.0;" x1="319" x2="568" y1="505.0156" y2="505.0156"/><text fill="#000000" font-family="sans-serif" font-size="13" font-weight="bold" lengthAdjust="spacing" textLength="14" x="336" y="499.7529">11</text><text fill="#000000" font-family="sans-serif" font-size="13" lengthAdjust="spacing" textLength="39" x="354" y="499.7529">dto list</text><line style="stroke:#181818;stroke-width:1.0;" x1="210" x2="220" y1="536.3066" y2="532.3066"/><line style="stroke:#181818;stroke-width:1.0;" x1="210" x2="220" y1="536.3066" y2="540.3066"/><line style="stroke:#181818;stroke-width:1.0;stroke-dasharray:2.0,2.0;" x1="209" x2="313" y1="536.3066" y2="536.3066"/><text fill="#000000" font-family="sans-serif" font-size="13" font-weight="bold" lengthAdjust="spacing" textLength="14" x="226" y="531.0439">12</text><text fill="#000000" font-family="sans-serif" font-size="13" lengthAdjust="spacing" textLength="49" x="244" y="531.0439">success</text><line style="stroke:#181818;stroke-width:1.0;" x1="100" x2="110" y1="567.5977" y2="563.5977"/><line style="stroke:#181818;stroke-width:1.0;" x1="100" x2="110" y1="567.5977" y2="571.5977"/><line style="stroke:#181818;stroke-width:1.0;stroke-dasharray:2.0,2.0;" x1="99" x2="203" y1="567.5977" y2="567.5977"/><text fill="#000000" font-family="sans-serif" font-size="13" font-weight="bold" lengthAdjust="spacing" textLength="14" x="116" y="562.335">13</text><text fill="#000000" font-family="sans-serif" font-size="13" lengthAdjust="spacing" textLength="49" x="134" y="562.335">success</text><line style="stroke:#181818;stroke-width:1.0;" x1="6.5" x2="16.5" y1="598.8887" y2="594.8887"/><line style="stroke:#181818;stroke-width:1.0;" x1="6.5" x2="16.5" y1="598.8887" y2="602.8887"/><line style="stroke:#181818;stroke-width:1.0;stroke-dasharray:2.0,2.0;" x1="0" x2="93" y1="598.8887" y2="598.8887"/><text fill="#000000" font-family="sans-serif" font-size="13" font-weight="bold" lengthAdjust="spacing" textLength="14" x="17" y="593.626">14</text><text fill="#000000" font-family="sans-serif" font-size="13" lengthAdjust="spacing" textLength="44" x="35" y="593.626">200 OK</text><!--SRC=[VPBBRi8m44Nt_WgB9L8ar6KKfOkswgAja80VS9o1MZXnP4-G-FkEdOSTeEpyE7VcpaFqQDg-gS0oTrPj9wneU2VaMPnWZrSDt894nb0XdRLoo8NMt9hA83T7Zh_0Zng04DAYageJBVBLplIesjEA2qTmEFEYaARfJ0ijbkKIVpCjMgCrsA2Gy_MPQ0_seYG4XHlEp_1TyBo3pZY5nbv7R_HewUsPyaTq0Mv4zmnxFsm3LkDjj5gWg8G3OiRJ05Ot77irMLdE3SlvvyU12Odg8X2cPpPzUpJfL3wC9rJ4eYeIB86zTkhPFyBncqtOu6ngLyvFW8EGrY2yEvPw7K4M9Ju0bPnJP4rBDObcJLqn-ivky_WSh8OKIuC-g2GQIcJHqQ8YFzFSD-a25ZbDZgR8lttAMKa8OvuBkMYwwtMK9FQHGllPPp6klzxvzzmSBbf_n8RKizsxWRjUId2BCgUfBOQzNAe7gcH9Q0UB8iiI_cMpuTklPI-7JVm3]--></g></svg>