<?xml version="1.0" encoding="us-ascii" standalone="no"?><svg xmlns="http://www.w3.org/2000/svg" xmlns:xlink="http://www.w3.org/1999/xlink" contentStyleType="text/css" height="1121px" preserveAspectRatio="none" style="width:1160px;height:1121px;background:#FFFFFF;" version="1.1" viewBox="0 0 1160 1121" width="1160px" zoomAndPan="magnify"><defs/><g><text fill="#000000" font-family="sans-serif" font-size="14" font-weight="bold" lengthAdjust="spacing" textLength="101" x="531" y="30.1074">Create a robot</text><rect fill="#FFFFFF" height="843.1777" style="stroke:#181818;stroke-width:1.0;" width="10" x="115" y="161.1543"/><rect fill="#FFFFFF" height="780.5957" style="stroke:#181818;stroke-width:1.0;" width="10" x="225" y="192.4453"/><rect fill="#FFFFFF" height="718.0137" style="stroke:#181818;stroke-width:1.0;" width="10" x="335" y="223.7363"/><rect fill="#FFFFFF" height="93.873" style="stroke:#181818;stroke-width:1.0;" width="10" x="466" y="272.3184"/><rect fill="#FFFFFF" height="93.873" style="stroke:#181818;stroke-width:1.0;" width="10" x="616" y="397.4824"/><rect fill="#FFFFFF" height="96.5332" style="stroke:#181818;stroke-width:1.0;" width="10" x="754" y="532.6465"/><rect fill="#FFFFFF" height="124.8242" style="stroke:#181818;stroke-width:1.0;" width="10" x="864" y="785.6348"/><rect fill="#FFFFFF" height="52.2422" style="stroke:#181818;stroke-width:1.0;" width="10" x="1002" y="826.9258"/><rect fill="#FFFFFF" height="31.291" style="stroke:#181818;stroke-width:1.0;" width="10" x="1108" y="303.6094"/><rect fill="#FFFFFF" height="31.291" style="stroke:#181818;stroke-width:1.0;" width="10" x="1108" y="428.7734"/><rect fill="#FFFFFF" height="31.291" style="stroke:#181818;stroke-width:1.0;" width="10" x="1108" y="691.7617"/><line style="stroke:#181818;stroke-width:0.5;stroke-dasharray:5.0,5.0;" x1="120" x2="120" y1="127.8633" y2="1022.332"/><line style="stroke:#181818;stroke-width:0.5;stroke-dasharray:5.0,5.0;" x1="230" x2="230" y1="127.8633" y2="1022.332"/><line style="stroke:#181818;stroke-width:0.5;stroke-dasharray:5.0,5.0;" x1="340" x2="340" y1="127.8633" y2="1022.332"/><line style="stroke:#181818;stroke-width:0.5;stroke-dasharray:5.0,5.0;" x1="471" x2="471" y1="127.8633" y2="1022.332"/><line style="stroke:#181818;stroke-width:0.5;stroke-dasharray:5.0,5.0;" x1="621" x2="621" y1="127.8633" y2="1022.332"/><line style="stroke:#181818;stroke-width:0.5;stroke-dasharray:5.0,5.0;" x1="759" x2="759" y1="540.4766" y2="1022.332"/><line style="stroke:#181818;stroke-width:0.5;stroke-dasharray:5.0,5.0;" x1="869" x2="869" y1="127.8633" y2="1022.332"/><line style="stroke:#181818;stroke-width:0.5;stroke-dasharray:5.0,5.0;" x1="1007" x2="1007" y1="834.7559" y2="1022.332"/><line style="stroke:#181818;stroke-width:0.5;stroke-dasharray:5.0,5.0;" x1="1113" x2="1113" y1="127.8633" y2="1022.332"/><rect fill="#E2E2F0" height="51.2422" rx="2.5" ry="2.5" style="stroke:#181818;stroke-width:0.5;" width="100" x="70" y="75.6211"/><text fill="#000000" font-family="sans-serif" font-size="14" font-style="italic" lengthAdjust="spacing" textLength="86" x="77" y="97.7285">&#171;component&#187;</text><text fill="#000000" font-family="sans-serif" font-size="14" lengthAdjust="spacing" textLength="49" x="95.5" y="116.3496">Routing</text><rect fill="#E2E2F0" height="51.2422" rx="2.5" ry="2.5" style="stroke:#181818;stroke-width:0.5;" width="100" x="70" y="1021.332"/><text fill="#000000" font-family="sans-serif" font-size="14" font-style="italic" lengthAdjust="spacing" textLength="86" x="77" y="1043.4395">&#171;component&#187;</text><text fill="#000000" font-family="sans-serif" font-size="14" lengthAdjust="spacing" textLength="49" x="95.5" y="1062.0605">Routing</text><rect fill="#E2E2F0" height="51.2422" rx="2.5" ry="2.5" style="stroke:#181818;stroke-width:0.5;" width="100" x="180" y="75.6211"/><text fill="#000000" font-family="sans-serif" font-size="14" font-style="italic" lengthAdjust="spacing" textLength="86" x="187" y="97.7285">&#171;component&#187;</text><text fill="#000000" font-family="sans-serif" font-size="14" lengthAdjust="spacing" textLength="62" x="199" y="116.3496">Controller</text><rect fill="#E2E2F0" height="51.2422" rx="2.5" ry="2.5" style="stroke:#181818;stroke-width:0.5;" width="100" x="180" y="1021.332"/><text fill="#000000" font-family="sans-serif" font-size="14" font-style="italic" lengthAdjust="spacing" textLength="86" x="187" y="1043.4395">&#171;component&#187;</text><text fill="#000000" font-family="sans-serif" font-size="14" lengthAdjust="spacing" textLength="62" x="199" y="1062.0605">Controller</text><rect fill="#E2E2F0" height="51.2422" rx="2.5" ry="2.5" style="stroke:#181818;stroke-width:0.5;" width="100" x="290" y="75.6211"/><text fill="#000000" font-family="sans-serif" font-size="14" font-style="italic" lengthAdjust="spacing" textLength="86" x="297" y="97.7285">&#171;component&#187;</text><text fill="#000000" font-family="sans-serif" font-size="14" lengthAdjust="spacing" textLength="47" x="316.5" y="116.3496">Service</text><rect fill="#E2E2F0" height="51.2422" rx="2.5" ry="2.5" style="stroke:#181818;stroke-width:0.5;" width="100" x="290" y="1021.332"/><text fill="#000000" font-family="sans-serif" font-size="14" font-style="italic" lengthAdjust="spacing" textLength="86" x="297" y="1043.4395">&#171;component&#187;</text><text fill="#000000" font-family="sans-serif" font-size="14" lengthAdjust="spacing" textLength="47" x="316.5" y="1062.0605">Service</text><rect fill="#E2E2F0" height="51.2422" rx="2.5" ry="2.5" style="stroke:#181818;stroke-width:0.5;" width="124" x="409" y="75.6211"/><text fill="#000000" font-family="sans-serif" font-size="14" font-style="italic" lengthAdjust="spacing" textLength="86" x="428" y="97.7285">&#171;component&#187;</text><text fill="#000000" font-family="sans-serif" font-size="14" lengthAdjust="spacing" textLength="110" x="416" y="116.3496">Robot Repository</text><rect fill="#E2E2F0" height="51.2422" rx="2.5" ry="2.5" style="stroke:#181818;stroke-width:0.5;" width="124" x="409" y="1021.332"/><text fill="#000000" font-family="sans-serif" font-size="14" font-style="italic" lengthAdjust="spacing" textLength="86" x="428" y="1043.4395">&#171;component&#187;</text><text fill="#000000" font-family="sans-serif" font-size="14" lengthAdjust="spacing" textLength="110" x="416" y="1062.0605">Robot Repository</text><rect fill="#E2E2F0" height="51.2422" rx="2.5" ry="2.5" style="stroke:#181818;stroke-width:0.5;" width="156" x="543" y="75.6211"/><text fill="#000000" font-family="sans-serif" font-size="14" font-style="italic" lengthAdjust="spacing" textLength="86" x="578" y="97.7285">&#171;component&#187;</text><text fill="#000000" font-family="sans-serif" font-size="14" lengthAdjust="spacing" textLength="142" x="550" y="116.3496">RobotType Repository</text><rect fill="#E2E2F0" height="51.2422" rx="2.5" ry="2.5" style="stroke:#181818;stroke-width:0.5;" width="156" x="543" y="1021.332"/><text fill="#000000" font-family="sans-serif" font-size="14" font-style="italic" lengthAdjust="spacing" textLength="86" x="578" y="1043.4395">&#171;component&#187;</text><text fill="#000000" font-family="sans-serif" font-size="14" lengthAdjust="spacing" textLength="142" x="550" y="1062.0605">RobotType Repository</text><rect fill="#E2E2F0" height="51.2422" rx="2.5" ry="2.5" style="stroke:#181818;stroke-width:0.5;" width="100" x="709" y="1021.332"/><text fill="#000000" font-family="sans-serif" font-size="14" font-style="italic" lengthAdjust="spacing" textLength="86" x="716" y="1043.4395">&#171;component&#187;</text><text fill="#000000" font-family="sans-serif" font-size="14" lengthAdjust="spacing" textLength="38" x="740" y="1062.0605">Robot</text><rect fill="#E2E2F0" height="51.2422" rx="2.5" ry="2.5" style="stroke:#181818;stroke-width:0.5;" width="100" x="819" y="75.6211"/><text fill="#000000" font-family="sans-serif" font-size="14" font-style="italic" lengthAdjust="spacing" textLength="86" x="826" y="97.7285">&#171;component&#187;</text><text fill="#000000" font-family="sans-serif" font-size="14" lengthAdjust="spacing" textLength="27" x="855.5" y="116.3496">Map</text><rect fill="#E2E2F0" height="51.2422" rx="2.5" ry="2.5" style="stroke:#181818;stroke-width:0.5;" width="100" x="819" y="1021.332"/><text fill="#000000" font-family="sans-serif" font-size="14" font-style="italic" lengthAdjust="spacing" textLength="86" x="826" y="1043.4395">&#171;component&#187;</text><text fill="#000000" font-family="sans-serif" font-size="14" lengthAdjust="spacing" textLength="27" x="855.5" y="1062.0605">Map</text><rect fill="#E2E2F0" height="51.2422" rx="2.5" ry="2.5" style="stroke:#181818;stroke-width:0.5;" width="100" x="957" y="1021.332"/><text fill="#000000" font-family="sans-serif" font-size="14" font-style="italic" lengthAdjust="spacing" textLength="86" x="964" y="1043.4395">&#171;component&#187;</text><text fill="#000000" font-family="sans-serif" font-size="14" lengthAdjust="spacing" textLength="30" x="992" y="1062.0605">DTO</text><text fill="#000000" font-family="sans-serif" font-size="14" font-style="italic" lengthAdjust="spacing" textLength="86" x="1067" y="105.7285">&#171;component&#187;</text><text fill="#000000" font-family="sans-serif" font-size="14" lengthAdjust="spacing" textLength="61" x="1079.5" y="124.3496">Database</text><path d="M1095,54.6211 C1095,44.6211 1113,44.6211 1113,44.6211 C1113,44.6211 1131,44.6211 1131,54.6211 L1131,80.6211 C1131,90.6211 1113,90.6211 1113,90.6211 C1113,90.6211 1095,90.6211 1095,80.6211 L1095,54.6211 " fill="#E2E2F0" style="stroke:#181818;stroke-width:1.5;"/><path d="M1095,54.6211 C1095,64.6211 1113,64.6211 1113,64.6211 C1113,64.6211 1131,64.6211 1131,54.6211 " fill="none" style="stroke:#181818;stroke-width:1.5;"/><text fill="#000000" font-family="sans-serif" font-size="14" font-style="italic" lengthAdjust="spacing" textLength="86" x="1067" y="1036.4395">&#171;component&#187;</text><text fill="#000000" font-family="sans-serif" font-size="14" lengthAdjust="spacing" textLength="61" x="1079.5" y="1055.0605">Database</text><path d="M1095,1068.5742 C1095,1058.5742 1113,1058.5742 1113,1058.5742 C1113,1058.5742 1131,1058.5742 1131,1068.5742 L1131,1094.5742 C1131,1104.5742 1113,1104.5742 1113,1104.5742 C1113,1104.5742 1095,1104.5742 1095,1094.5742 L1095,1068.5742 " fill="#E2E2F0" style="stroke:#181818;stroke-width:1.5;"/><path d="M1095,1068.5742 C1095,1078.5742 1113,1078.5742 1113,1078.5742 C1113,1078.5742 1131,1078.5742 1131,1068.5742 " fill="none" style="stroke:#181818;stroke-width:1.5;"/><rect fill="#FFFFFF" height="843.1777" style="stroke:#181818;stroke-width:1.0;" width="10" x="115" y="161.1543"/><rect fill="#FFFFFF" height="780.5957" style="stroke:#181818;stroke-width:1.0;" width="10" x="225" y="192.4453"/><rect fill="#FFFFFF" height="718.0137" style="stroke:#181818;stroke-width:1.0;" width="10" x="335" y="223.7363"/><rect fill="#FFFFFF" height="93.873" style="stroke:#181818;stroke-width:1.0;" width="10" x="466" y="272.3184"/><rect fill="#FFFFFF" height="93.873" style="stroke:#181818;stroke-width:1.0;" width="10" x="616" y="397.4824"/><rect fill="#FFFFFF" height="96.5332" style="stroke:#181818;stroke-width:1.0;" width="10" x="754" y="532.6465"/><rect fill="#FFFFFF" height="124.8242" style="stroke:#181818;stroke-width:1.0;" width="10" x="864" y="785.6348"/><rect fill="#FFFFFF" height="52.2422" style="stroke:#181818;stroke-width:1.0;" width="10" x="1002" y="826.9258"/><rect fill="#FFFFFF" height="31.291" style="stroke:#181818;stroke-width:1.0;" width="10" x="1108" y="303.6094"/><rect fill="#FFFFFF" height="31.291" style="stroke:#181818;stroke-width:1.0;" width="10" x="1108" y="428.7734"/><rect fill="#FFFFFF" height="31.291" style="stroke:#181818;stroke-width:1.0;" width="10" x="1108" y="691.7617"/><ellipse cx="46.5" cy="160.4043" fill="none" rx="4" ry="4" style="stroke:#181818;stroke-width:1.5;"/><line style="stroke:#181818;stroke-width:1.0;" x1="113" x2="103" y1="161.1543" y2="157.1543"/><line style="stroke:#181818;stroke-width:1.0;" x1="113" x2="103" y1="161.1543" y2="165.1543"/><line style="stroke:#181818;stroke-width:1.0;" x1="51" x2="114" y1="161.1543" y2="161.1543"/><text fill="#000000" font-family="sans-serif" font-size="13" font-weight="bold" lengthAdjust="spacing" textLength="7" x="54" y="155.8916">1</text><text fill="#000000" font-family="sans-serif" font-size="13" lengthAdjust="spacing" textLength="35" x="65" y="155.8916">POST</text><line style="stroke:#181818;stroke-width:1.0;" x1="223" x2="213" y1="192.4453" y2="188.4453"/><line style="stroke:#181818;stroke-width:1.0;" x1="223" x2="213" y1="192.4453" y2="196.4453"/><line style="stroke:#181818;stroke-width:1.0;" x1="125" x2="224" y1="192.4453" y2="192.4453"/><text fill="#000000" font-family="sans-serif" font-size="13" font-weight="bold" lengthAdjust="spacing" textLength="7" x="132" y="187.1826">2</text><text fill="#000000" font-family="sans-serif" font-size="13" lengthAdjust="spacing" textLength="69" x="143" y="187.1826">create robot</text><line style="stroke:#181818;stroke-width:1.0;" x1="333" x2="323" y1="223.7363" y2="219.7363"/><line style="stroke:#181818;stroke-width:1.0;" x1="333" x2="323" y1="223.7363" y2="227.7363"/><line style="stroke:#181818;stroke-width:1.0;" x1="235" x2="334" y1="223.7363" y2="223.7363"/><text fill="#000000" font-family="sans-serif" font-size="13" font-weight="bold" lengthAdjust="spacing" textLength="7" x="242" y="218.4736">3</text><text fill="#000000" font-family="sans-serif" font-size="13" lengthAdjust="spacing" textLength="69" x="253" y="218.4736">create robot</text><line style="stroke:#181818;stroke-width:1.0;" x1="464" x2="454" y1="272.3184" y2="268.3184"/><line style="stroke:#181818;stroke-width:1.0;" x1="464" x2="454" y1="272.3184" y2="276.3184"/><line style="stroke:#181818;stroke-width:1.0;" x1="345" x2="465" y1="272.3184" y2="272.3184"/><text fill="#000000" font-family="sans-serif" font-size="13" font-weight="bold" lengthAdjust="spacing" textLength="7" x="352" y="258.4102">4</text><text fill="#000000" font-family="sans-serif" font-size="13" lengthAdjust="spacing" textLength="82" x="363" y="249.7646">verifies if robot</text><text fill="#000000" font-family="sans-serif" font-size="13" lengthAdjust="spacing" textLength="81" x="367" y="267.0557">already exists</text><line style="stroke:#181818;stroke-width:1.0;" x1="1106" x2="1096" y1="303.6094" y2="299.6094"/><line style="stroke:#181818;stroke-width:1.0;" x1="1106" x2="1096" y1="303.6094" y2="307.6094"/><line style="stroke:#181818;stroke-width:1.0;" x1="476" x2="1107" y1="303.6094" y2="303.6094"/><text fill="#000000" font-family="sans-serif" font-size="13" font-weight="bold" lengthAdjust="spacing" textLength="7" x="483" y="298.3467">5</text><text fill="#000000" font-family="sans-serif" font-size="13" lengthAdjust="spacing" textLength="68" x="494" y="298.3467">select robot</text><line style="stroke:#181818;stroke-width:1.0;" x1="477" x2="487" y1="334.9004" y2="330.9004"/><line style="stroke:#181818;stroke-width:1.0;" x1="477" x2="487" y1="334.9004" y2="338.9004"/><line style="stroke:#181818;stroke-width:1.0;stroke-dasharray:2.0,2.0;" x1="476" x2="1112" y1="334.9004" y2="334.9004"/><text fill="#000000" font-family="sans-serif" font-size="13" font-weight="bold" lengthAdjust="spacing" textLength="7" x="493" y="329.6377">6</text><text fill="#000000" font-family="sans-serif" font-size="13" lengthAdjust="spacing" textLength="29" x="504" y="329.6377">robot</text><line style="stroke:#181818;stroke-width:1.0;" x1="346" x2="356" y1="366.1914" y2="362.1914"/><line style="stroke:#181818;stroke-width:1.0;" x1="346" x2="356" y1="366.1914" y2="370.1914"/><line style="stroke:#181818;stroke-width:1.0;stroke-dasharray:2.0,2.0;" x1="345" x2="470" y1="366.1914" y2="366.1914"/><text fill="#000000" font-family="sans-serif" font-size="13" font-weight="bold" lengthAdjust="spacing" textLength="7" x="362" y="360.9287">7</text><text fill="#000000" font-family="sans-serif" font-size="13" lengthAdjust="spacing" textLength="86" x="373" y="360.9287">robot not found</text><line style="stroke:#181818;stroke-width:1.0;" x1="614" x2="604" y1="397.4824" y2="393.4824"/><line style="stroke:#181818;stroke-width:1.0;" x1="614" x2="604" y1="397.4824" y2="401.4824"/><line style="stroke:#181818;stroke-width:1.0;" x1="345" x2="615" y1="397.4824" y2="397.4824"/><text fill="#000000" font-family="sans-serif" font-size="13" font-weight="bold" lengthAdjust="spacing" textLength="7" x="352" y="392.2197">8</text><text fill="#000000" font-family="sans-serif" font-size="13" lengthAdjust="spacing" textLength="153" x="363" y="392.2197">verifies if robottypes exists</text><line style="stroke:#181818;stroke-width:1.0;" x1="1106" x2="1096" y1="428.7734" y2="424.7734"/><line style="stroke:#181818;stroke-width:1.0;" x1="1106" x2="1096" y1="428.7734" y2="432.7734"/><line style="stroke:#181818;stroke-width:1.0;" x1="626" x2="1107" y1="428.7734" y2="428.7734"/><text fill="#000000" font-family="sans-serif" font-size="13" font-weight="bold" lengthAdjust="spacing" textLength="7" x="633" y="423.5107">9</text><text fill="#000000" font-family="sans-serif" font-size="13" lengthAdjust="spacing" textLength="100" x="644" y="423.5107">select robottypes</text><line style="stroke:#181818;stroke-width:1.0;" x1="627" x2="637" y1="460.0645" y2="456.0645"/><line style="stroke:#181818;stroke-width:1.0;" x1="627" x2="637" y1="460.0645" y2="464.0645"/><line style="stroke:#181818;stroke-width:1.0;stroke-dasharray:2.0,2.0;" x1="626" x2="1112" y1="460.0645" y2="460.0645"/><text fill="#000000" font-family="sans-serif" font-size="13" font-weight="bold" lengthAdjust="spacing" textLength="14" x="643" y="454.8018">10</text><text fill="#000000" font-family="sans-serif" font-size="13" lengthAdjust="spacing" textLength="61" x="661" y="454.8018">robottypes</text><line style="stroke:#181818;stroke-width:1.0;" x1="346" x2="356" y1="491.3555" y2="487.3555"/><line style="stroke:#181818;stroke-width:1.0;" x1="346" x2="356" y1="491.3555" y2="495.3555"/><line style="stroke:#181818;stroke-width:1.0;stroke-dasharray:2.0,2.0;" x1="345" x2="620" y1="491.3555" y2="491.3555"/><text fill="#000000" font-family="sans-serif" font-size="13" font-weight="bold" lengthAdjust="spacing" textLength="14" x="362" y="486.0928">11</text><text fill="#000000" font-family="sans-serif" font-size="13" lengthAdjust="spacing" textLength="96" x="380" y="486.0928">robottypes found</text><line style="stroke:#181818;stroke-width:1.0;" x1="707" x2="697" y1="522.6465" y2="518.6465"/><line style="stroke:#181818;stroke-width:1.0;" x1="707" x2="697" y1="522.6465" y2="526.6465"/><line style="stroke:#181818;stroke-width:1.0;" x1="345" x2="708" y1="522.6465" y2="522.6465"/><text fill="#000000" font-family="sans-serif" font-size="13" font-weight="bold" lengthAdjust="spacing" textLength="14" x="352" y="517.3838">12</text><text fill="#000000" font-family="sans-serif" font-size="13" lengthAdjust="spacing" textLength="36" x="370" y="517.3838">create</text><rect fill="#E2E2F0" height="51.2422" rx="2.5" ry="2.5" style="stroke:#181818;stroke-width:0.5;" width="100" x="709" y="499.3555"/><text fill="#000000" font-family="sans-serif" font-size="14" font-style="italic" lengthAdjust="spacing" textLength="86" x="716" y="521.4629">&#171;component&#187;</text><text fill="#000000" font-family="sans-serif" font-size="14" lengthAdjust="spacing" textLength="38" x="740" y="540.084">Robot</text><line style="stroke:#181818;stroke-width:1.0;stroke-dasharray:2.0,2.0;" x1="764" x2="806" y1="584.8887" y2="584.8887"/><line style="stroke:#181818;stroke-width:1.0;stroke-dasharray:2.0,2.0;" x1="806" x2="806" y1="584.8887" y2="597.8887"/><line style="stroke:#181818;stroke-width:1.0;stroke-dasharray:2.0,2.0;" x1="765" x2="806" y1="597.8887" y2="597.8887"/><line style="stroke:#181818;stroke-width:1.0;" x1="765" x2="775" y1="597.8887" y2="593.8887"/><line style="stroke:#181818;stroke-width:1.0;" x1="765" x2="775" y1="597.8887" y2="601.8887"/><text fill="#000000" font-family="sans-serif" font-size="13" font-weight="bold" lengthAdjust="spacing" textLength="14" x="771" y="579.626">13</text><text fill="#000000" font-family="sans-serif" font-size="13" lengthAdjust="spacing" textLength="39" x="789" y="579.626">verifies</text><line style="stroke:#181818;stroke-width:1.0;" x1="346" x2="356" y1="629.1797" y2="625.1797"/><line style="stroke:#181818;stroke-width:1.0;" x1="346" x2="356" y1="629.1797" y2="633.1797"/><line style="stroke:#181818;stroke-width:1.0;stroke-dasharray:2.0,2.0;" x1="345" x2="758" y1="629.1797" y2="629.1797"/><text fill="#000000" font-family="sans-serif" font-size="13" font-weight="bold" lengthAdjust="spacing" textLength="14" x="362" y="623.917">14</text><text fill="#000000" font-family="sans-serif" font-size="13" lengthAdjust="spacing" textLength="43" x="380" y="623.917">created</text><line style="stroke:#181818;stroke-width:1.0;" x1="469" x2="459" y1="660.4707" y2="656.4707"/><line style="stroke:#181818;stroke-width:1.0;" x1="469" x2="459" y1="660.4707" y2="664.4707"/><line style="stroke:#181818;stroke-width:1.0;" x1="345" x2="470" y1="660.4707" y2="660.4707"/><text fill="#000000" font-family="sans-serif" font-size="13" font-weight="bold" lengthAdjust="spacing" textLength="14" x="352" y="655.208">15</text><text fill="#000000" font-family="sans-serif" font-size="13" lengthAdjust="spacing" textLength="26" x="370" y="655.208">save</text><line style="stroke:#181818;stroke-width:1.0;" x1="1106" x2="1096" y1="691.7617" y2="687.7617"/><line style="stroke:#181818;stroke-width:1.0;" x1="1106" x2="1096" y1="691.7617" y2="695.7617"/><line style="stroke:#181818;stroke-width:1.0;" x1="471" x2="1107" y1="691.7617" y2="691.7617"/><text fill="#000000" font-family="sans-serif" font-size="13" font-weight="bold" lengthAdjust="spacing" textLength="14" x="478" y="686.499">16</text><text fill="#000000" font-family="sans-serif" font-size="13" lengthAdjust="spacing" textLength="65" x="496" y="686.499">insert robot</text><line style="stroke:#181818;stroke-width:1.0;" x1="472" x2="482" y1="723.0527" y2="719.0527"/><line style="stroke:#181818;stroke-width:1.0;" x1="472" x2="482" y1="723.0527" y2="727.0527"/><line style="stroke:#181818;stroke-width:1.0;stroke-dasharray:2.0,2.0;" x1="471" x2="1112" y1="723.0527" y2="723.0527"/><text fill="#000000" font-family="sans-serif" font-size="13" font-weight="bold" lengthAdjust="spacing" textLength="14" x="488" y="717.79">17</text><text fill="#000000" font-family="sans-serif" font-size="13" lengthAdjust="spacing" textLength="49" x="506" y="717.79">success</text><line style="stroke:#181818;stroke-width:1.0;" x1="346" x2="356" y1="754.3438" y2="750.3438"/><line style="stroke:#181818;stroke-width:1.0;" x1="346" x2="356" y1="754.3438" y2="758.3438"/><line style="stroke:#181818;stroke-width:1.0;stroke-dasharray:2.0,2.0;" x1="345" x2="470" y1="754.3438" y2="754.3438"/><text fill="#000000" font-family="sans-serif" font-size="13" font-weight="bold" lengthAdjust="spacing" textLength="14" x="362" y="749.0811">18</text><text fill="#000000" font-family="sans-serif" font-size="13" lengthAdjust="spacing" textLength="49" x="380" y="749.0811">success</text><line style="stroke:#181818;stroke-width:1.0;" x1="862" x2="852" y1="785.6348" y2="781.6348"/><line style="stroke:#181818;stroke-width:1.0;" x1="862" x2="852" y1="785.6348" y2="789.6348"/><line style="stroke:#181818;stroke-width:1.0;" x1="345" x2="863" y1="785.6348" y2="785.6348"/><text fill="#000000" font-family="sans-serif" font-size="13" font-weight="bold" lengthAdjust="spacing" textLength="14" x="352" y="780.3721">19</text><text fill="#000000" font-family="sans-serif" font-size="13" lengthAdjust="spacing" textLength="86" x="370" y="780.3721">convert to DTO</text><line style="stroke:#181818;stroke-width:1.0;" x1="955" x2="945" y1="816.9258" y2="812.9258"/><line style="stroke:#181818;stroke-width:1.0;" x1="955" x2="945" y1="816.9258" y2="820.9258"/><line style="stroke:#181818;stroke-width:1.0;stroke-dasharray:2.0,2.0;" x1="874" x2="956" y1="816.9258" y2="816.9258"/><text fill="#000000" font-family="sans-serif" font-size="13" font-weight="bold" lengthAdjust="spacing" textLength="14" x="881" y="811.6631">20</text><text fill="#000000" font-family="sans-serif" font-size="13" lengthAdjust="spacing" textLength="41" x="899" y="811.6631">convert</text><rect fill="#E2E2F0" height="51.2422" rx="2.5" ry="2.5" style="stroke:#181818;stroke-width:0.5;" width="100" x="957" y="793.6348"/><text fill="#000000" font-family="sans-serif" font-size="14" font-style="italic" lengthAdjust="spacing" textLength="86" x="964" y="815.7422">&#171;component&#187;</text><text fill="#000000" font-family="sans-serif" font-size="14" lengthAdjust="spacing" textLength="30" x="992" y="834.3633">DTO</text><line style="stroke:#181818;stroke-width:1.0;" x1="875" x2="885" y1="879.168" y2="875.168"/><line style="stroke:#181818;stroke-width:1.0;" x1="875" x2="885" y1="879.168" y2="883.168"/><line style="stroke:#181818;stroke-width:1.0;stroke-dasharray:2.0,2.0;" x1="874" x2="1006" y1="879.168" y2="879.168"/><text fill="#000000" font-family="sans-serif" font-size="13" font-weight="bold" lengthAdjust="spacing" textLength="14" x="891" y="873.9053">21</text><text fill="#000000" font-family="sans-serif" font-size="13" lengthAdjust="spacing" textLength="18" x="909" y="873.9053">dto</text><line style="stroke:#181818;stroke-width:1.0;" x1="346" x2="356" y1="910.459" y2="906.459"/><line style="stroke:#181818;stroke-width:1.0;" x1="346" x2="356" y1="910.459" y2="914.459"/><line style="stroke:#181818;stroke-width:1.0;stroke-dasharray:2.0,2.0;" x1="345" x2="868" y1="910.459" y2="910.459"/><text fill="#000000" font-family="sans-serif" font-size="13" font-weight="bold" lengthAdjust="spacing" textLength="14" x="362" y="905.1963">22</text><text fill="#000000" font-family="sans-serif" font-size="13" lengthAdjust="spacing" textLength="18" x="380" y="905.1963">dto</text><line style="stroke:#181818;stroke-width:1.0;" x1="236" x2="246" y1="941.75" y2="937.75"/><line style="stroke:#181818;stroke-width:1.0;" x1="236" x2="246" y1="941.75" y2="945.75"/><line style="stroke:#181818;stroke-width:1.0;stroke-dasharray:2.0,2.0;" x1="235" x2="339" y1="941.75" y2="941.75"/><text fill="#000000" font-family="sans-serif" font-size="13" font-weight="bold" lengthAdjust="spacing" textLength="14" x="252" y="936.4873">23</text><text fill="#000000" font-family="sans-serif" font-size="13" lengthAdjust="spacing" textLength="49" x="270" y="936.4873">success</text><line style="stroke:#181818;stroke-width:1.0;" x1="126" x2="136" y1="973.041" y2="969.041"/><line style="stroke:#181818;stroke-width:1.0;" x1="126" x2="136" y1="973.041" y2="977.041"/><line style="stroke:#181818;stroke-width:1.0;stroke-dasharray:2.0,2.0;" x1="125" x2="229" y1="973.041" y2="973.041"/><text fill="#000000" font-family="sans-serif" font-size="13" font-weight="bold" lengthAdjust="spacing" textLength="14" x="142" y="967.7783">24</text><text fill="#000000" font-family="sans-serif" font-size="13" lengthAdjust="spacing" textLength="49" x="160" y="967.7783">success</text><line style="stroke:#181818;stroke-width:1.0;" x1="6.5" x2="16.5" y1="1004.332" y2="1000.332"/><line style="stroke:#181818;stroke-width:1.0;" x1="6.5" x2="16.5" y1="1004.332" y2="1008.332"/><line style="stroke:#181818;stroke-width:1.0;stroke-dasharray:2.0,2.0;" x1="0" x2="119" y1="1004.332" y2="1004.332"/><text fill="#000000" font-family="sans-serif" font-size="13" font-weight="bold" lengthAdjust="spacing" textLength="14" x="17" y="999.0693">25</text><text fill="#000000" font-family="sans-serif" font-size="13" lengthAdjust="spacing" textLength="70" x="35" y="999.0693">201 Created</text><!--SRC=[ZLN1ZjiW4Btp5MYFArbgUxIYzB2zLhjASkm5uyaAhGCMZAtcxpiORB13qXmY4NXlvZrc68i1ZHuk3LZclfJkXHKNtWlv9JxXYDSEk0M9ZA52MhzP40XSS6iQGxi4HoLLBpJobuCPKEdF5ouSdKzhljj9S-cD1etx_Hh-PZHQqtLW9uPS_ZuY7S6EIiB4S67z27xmCla1UkCK6dkDscZJqjv_cQTh3qKsqi5J4HBb4VItw2VWHVIFOBzExnEinMtYLg1eX0F2n5K0DXiS-scg_NwfJiq_teyd9YIgqTSrxhFvt6EpkjHSXlh7wY-yX64PtBFd6jsbHW2RWK7UNA2QZs3LMO7ZwXplyO_cegDWxPN3N-NGiTn0PB8KmqUaYwWfLKUj71KibBPXT5fjymPK2pak3xes5vHf-ftDeDkSboJTUbpQgE3JdxdPuJhQJ6Fh84MZKvZxRZC56RnaEwKfM0zYozuNjRV-Nr-NnjXOZ4apfUcALcVR1hlDp-xsbXCZb1f5QM8ysoXka1ASUxfL2lWxBUAdGUtVrkZLq9kdzv_aq2bZ7ZB5fv4GBZEWCzL8KVt0g598lvVBzP0bKbAwWKq95tqtew7WQtxRgw6mdZy5LZPCQ5pjTbMLuNzy-nu_Gfj2Xy7r3m00]--></g></svg>