<?xml version="1.0" encoding="us-ascii" standalone="no"?><svg xmlns="http://www.w3.org/2000/svg" xmlns:xlink="http://www.w3.org/1999/xlink" contentStyleType="text/css" height="979px" preserveAspectRatio="none" style="width:1208px;height:979px;background:#FFFFFF;" version="1.1" viewBox="0 0 1208 979" width="1208px" zoomAndPan="magnify"><defs/><g><text fill="#000000" font-family="sans-serif" font-size="14" font-weight="bold" lengthAdjust="spacing" textLength="303" x="454.25" y="30.1074">Request the deletion of all my data (utente)</text><rect fill="#FFFFFF" height="700.7227" style="stroke:#181818;stroke-width:1.0;" width="10" x="115" y="161.1543"/><rect fill="#FFFFFF" height="638.1406" style="stroke:#181818;stroke-width:1.0;" width="10" x="281" y="192.4453"/><rect fill="#FFFFFF" height="575.5586" style="stroke:#181818;stroke-width:1.0;" width="10" x="447" y="223.7363"/><rect fill="#FFFFFF" height="93.873" style="stroke:#181818;stroke-width:1.0;" width="10" x="685" y="255.0273"/><rect fill="#FFFFFF" height="96.5332" style="stroke:#181818;stroke-width:1.0;" width="10" x="802.5" y="390.1914"/><rect fill="#FFFFFF" height="124.8242" style="stroke:#181818;stroke-width:1.0;" width="10" x="912.5" y="643.1797"/><rect fill="#FFFFFF" height="52.2422" style="stroke:#181818;stroke-width:1.0;" width="10" x="1050.5" y="684.4707"/><rect fill="#FFFFFF" height="31.291" style="stroke:#181818;stroke-width:1.0;" width="10" x="1156.5" y="286.3184"/><rect fill="#FFFFFF" height="31.291" style="stroke:#181818;stroke-width:1.0;" width="10" x="1156.5" y="549.3066"/><line style="stroke:#181818;stroke-width:0.5;stroke-dasharray:5.0,5.0;" x1="120" x2="120" y1="127.8633" y2="879.877"/><line style="stroke:#181818;stroke-width:0.5;stroke-dasharray:5.0,5.0;" x1="286" x2="286" y1="127.8633" y2="879.877"/><line style="stroke:#181818;stroke-width:0.5;stroke-dasharray:5.0,5.0;" x1="452" x2="452" y1="127.8633" y2="879.877"/><line style="stroke:#181818;stroke-width:0.5;stroke-dasharray:5.0,5.0;" x1="689.5" x2="689.5" y1="127.8633" y2="879.877"/><line style="stroke:#181818;stroke-width:0.5;stroke-dasharray:5.0,5.0;" x1="807.5" x2="807.5" y1="398.0215" y2="879.877"/><line style="stroke:#181818;stroke-width:0.5;stroke-dasharray:5.0,5.0;" x1="917.5" x2="917.5" y1="127.8633" y2="879.877"/><line style="stroke:#181818;stroke-width:0.5;stroke-dasharray:5.0,5.0;" x1="1055.5" x2="1055.5" y1="692.3008" y2="879.877"/><line style="stroke:#181818;stroke-width:0.5;stroke-dasharray:5.0,5.0;" x1="1161.5" x2="1161.5" y1="127.8633" y2="879.877"/><rect fill="#E2E2F0" height="51.2422" rx="2.5" ry="2.5" style="stroke:#181818;stroke-width:0.5;" width="100" x="70" y="75.6211"/><text fill="#000000" font-family="sans-serif" font-size="14" font-style="italic" lengthAdjust="spacing" textLength="86" x="77" y="97.7285">&#171;component&#187;</text><text fill="#000000" font-family="sans-serif" font-size="14" lengthAdjust="spacing" textLength="49" x="95.5" y="116.3496">Routing</text><rect fill="#E2E2F0" height="51.2422" rx="2.5" ry="2.5" style="stroke:#181818;stroke-width:0.5;" width="100" x="70" y="878.877"/><text fill="#000000" font-family="sans-serif" font-size="14" font-style="italic" lengthAdjust="spacing" textLength="86" x="77" y="900.9844">&#171;component&#187;</text><text fill="#000000" font-family="sans-serif" font-size="14" lengthAdjust="spacing" textLength="49" x="95.5" y="919.6055">Routing</text><rect fill="#E2E2F0" height="51.2422" rx="2.5" ry="2.5" style="stroke:#181818;stroke-width:0.5;" width="100" x="236" y="75.6211"/><text fill="#000000" font-family="sans-serif" font-size="14" font-style="italic" lengthAdjust="spacing" textLength="86" x="243" y="97.7285">&#171;component&#187;</text><text fill="#000000" font-family="sans-serif" font-size="14" lengthAdjust="spacing" textLength="62" x="255" y="116.3496">Controller</text><rect fill="#E2E2F0" height="51.2422" rx="2.5" ry="2.5" style="stroke:#181818;stroke-width:0.5;" width="100" x="236" y="878.877"/><text fill="#000000" font-family="sans-serif" font-size="14" font-style="italic" lengthAdjust="spacing" textLength="86" x="243" y="900.9844">&#171;component&#187;</text><text fill="#000000" font-family="sans-serif" font-size="14" lengthAdjust="spacing" textLength="62" x="255" y="919.6055">Controller</text><rect fill="#E2E2F0" height="51.2422" rx="2.5" ry="2.5" style="stroke:#181818;stroke-width:0.5;" width="100" x="402" y="75.6211"/><text fill="#000000" font-family="sans-serif" font-size="14" font-style="italic" lengthAdjust="spacing" textLength="86" x="409" y="97.7285">&#171;component&#187;</text><text fill="#000000" font-family="sans-serif" font-size="14" lengthAdjust="spacing" textLength="47" x="428.5" y="116.3496">Service</text><rect fill="#E2E2F0" height="51.2422" rx="2.5" ry="2.5" style="stroke:#181818;stroke-width:0.5;" width="100" x="402" y="878.877"/><text fill="#000000" font-family="sans-serif" font-size="14" font-style="italic" lengthAdjust="spacing" textLength="86" x="409" y="900.9844">&#171;component&#187;</text><text fill="#000000" font-family="sans-serif" font-size="14" lengthAdjust="spacing" textLength="47" x="428.5" y="919.6055">Service</text><rect fill="#E2E2F0" height="51.2422" rx="2.5" ry="2.5" style="stroke:#181818;stroke-width:0.5;" width="115" x="632.5" y="75.6211"/><text fill="#000000" font-family="sans-serif" font-size="14" font-style="italic" lengthAdjust="spacing" textLength="86" x="647" y="97.7285">&#171;component&#187;</text><text fill="#000000" font-family="sans-serif" font-size="14" lengthAdjust="spacing" textLength="101" x="639.5" y="116.3496">User Repository</text><rect fill="#E2E2F0" height="51.2422" rx="2.5" ry="2.5" style="stroke:#181818;stroke-width:0.5;" width="115" x="632.5" y="878.877"/><text fill="#000000" font-family="sans-serif" font-size="14" font-style="italic" lengthAdjust="spacing" textLength="86" x="647" y="900.9844">&#171;component&#187;</text><text fill="#000000" font-family="sans-serif" font-size="14" lengthAdjust="spacing" textLength="101" x="639.5" y="919.6055">User Repository</text><rect fill="#E2E2F0" height="51.2422" rx="2.5" ry="2.5" style="stroke:#181818;stroke-width:0.5;" width="100" x="757.5" y="878.877"/><text fill="#000000" font-family="sans-serif" font-size="14" font-style="italic" lengthAdjust="spacing" textLength="86" x="764.5" y="900.9844">&#171;component&#187;</text><text fill="#000000" font-family="sans-serif" font-size="14" lengthAdjust="spacing" textLength="29" x="793" y="919.6055">User</text><rect fill="#E2E2F0" height="51.2422" rx="2.5" ry="2.5" style="stroke:#181818;stroke-width:0.5;" width="100" x="867.5" y="75.6211"/><text fill="#000000" font-family="sans-serif" font-size="14" font-style="italic" lengthAdjust="spacing" textLength="86" x="874.5" y="97.7285">&#171;component&#187;</text><text fill="#000000" font-family="sans-serif" font-size="14" lengthAdjust="spacing" textLength="27" x="904" y="116.3496">Map</text><rect fill="#E2E2F0" height="51.2422" rx="2.5" ry="2.5" style="stroke:#181818;stroke-width:0.5;" width="100" x="867.5" y="878.877"/><text fill="#000000" font-family="sans-serif" font-size="14" font-style="italic" lengthAdjust="spacing" textLength="86" x="874.5" y="900.9844">&#171;component&#187;</text><text fill="#000000" font-family="sans-serif" font-size="14" lengthAdjust="spacing" textLength="27" x="904" y="919.6055">Map</text><rect fill="#E2E2F0" height="51.2422" rx="2.5" ry="2.5" style="stroke:#181818;stroke-width:0.5;" width="100" x="1005.5" y="878.877"/><text fill="#000000" font-family="sans-serif" font-size="14" font-style="italic" lengthAdjust="spacing" textLength="86" x="1012.5" y="900.9844">&#171;component&#187;</text><text fill="#000000" font-family="sans-serif" font-size="14" lengthAdjust="spacing" textLength="30" x="1040.5" y="919.6055">DTO</text><text fill="#000000" font-family="sans-serif" font-size="14" font-style="italic" lengthAdjust="spacing" textLength="86" x="1115.5" y="105.7285">&#171;component&#187;</text><text fill="#000000" font-family="sans-serif" font-size="14" lengthAdjust="spacing" textLength="61" x="1128" y="124.3496">Database</text><path d="M1143.5,54.6211 C1143.5,44.6211 1161.5,44.6211 1161.5,44.6211 C1161.5,44.6211 1179.5,44.6211 1179.5,54.6211 L1179.5,80.6211 C1179.5,90.6211 1161.5,90.6211 1161.5,90.6211 C1161.5,90.6211 1143.5,90.6211 1143.5,80.6211 L1143.5,54.6211 " fill="#E2E2F0" style="stroke:#181818;stroke-width:1.5;"/><path d="M1143.5,54.6211 C1143.5,64.6211 1161.5,64.6211 1161.5,64.6211 C1161.5,64.6211 1179.5,64.6211 1179.5,54.6211 " fill="none" style="stroke:#181818;stroke-width:1.5;"/><text fill="#000000" font-family="sans-serif" font-size="14" font-style="italic" lengthAdjust="spacing" textLength="86" x="1115.5" y="893.9844">&#171;component&#187;</text><text fill="#000000" font-family="sans-serif" font-size="14" lengthAdjust="spacing" textLength="61" x="1128" y="912.6055">Database</text><path d="M1143.5,926.1191 C1143.5,916.1191 1161.5,916.1191 1161.5,916.1191 C1161.5,916.1191 1179.5,916.1191 1179.5,926.1191 L1179.5,952.1191 C1179.5,962.1191 1161.5,962.1191 1161.5,962.1191 C1161.5,962.1191 1143.5,962.1191 1143.5,952.1191 L1143.5,926.1191 " fill="#E2E2F0" style="stroke:#181818;stroke-width:1.5;"/><path d="M1143.5,926.1191 C1143.5,936.1191 1161.5,936.1191 1161.5,936.1191 C1161.5,936.1191 1179.5,936.1191 1179.5,926.1191 " fill="none" style="stroke:#181818;stroke-width:1.5;"/><rect fill="#FFFFFF" height="700.7227" style="stroke:#181818;stroke-width:1.0;" width="10" x="115" y="161.1543"/><rect fill="#FFFFFF" height="638.1406" style="stroke:#181818;stroke-width:1.0;" width="10" x="281" y="192.4453"/><rect fill="#FFFFFF" height="575.5586" style="stroke:#181818;stroke-width:1.0;" width="10" x="447" y="223.7363"/><rect fill="#FFFFFF" height="93.873" style="stroke:#181818;stroke-width:1.0;" width="10" x="685" y="255.0273"/><rect fill="#FFFFFF" height="96.5332" style="stroke:#181818;stroke-width:1.0;" width="10" x="802.5" y="390.1914"/><rect fill="#FFFFFF" height="124.8242" style="stroke:#181818;stroke-width:1.0;" width="10" x="912.5" y="643.1797"/><rect fill="#FFFFFF" height="52.2422" style="stroke:#181818;stroke-width:1.0;" width="10" x="1050.5" y="684.4707"/><rect fill="#FFFFFF" height="31.291" style="stroke:#181818;stroke-width:1.0;" width="10" x="1156.5" y="286.3184"/><rect fill="#FFFFFF" height="31.291" style="stroke:#181818;stroke-width:1.0;" width="10" x="1156.5" y="549.3066"/><ellipse cx="46.5" cy="160.4043" fill="none" rx="4" ry="4" style="stroke:#181818;stroke-width:1.5;"/><line style="stroke:#181818;stroke-width:1.0;" x1="113" x2="103" y1="161.1543" y2="157.1543"/><line style="stroke:#181818;stroke-width:1.0;" x1="113" x2="103" y1="161.1543" y2="165.1543"/><line style="stroke:#181818;stroke-width:1.0;" x1="51" x2="114" y1="161.1543" y2="161.1543"/><text fill="#000000" font-family="sans-serif" font-size="13" font-weight="bold" lengthAdjust="spacing" textLength="7" x="54" y="155.8916">1</text><text fill="#000000" font-family="sans-serif" font-size="13" lengthAdjust="spacing" textLength="35" x="65" y="155.8916">POST</text><line style="stroke:#181818;stroke-width:1.0;" x1="279" x2="269" y1="192.4453" y2="188.4453"/><line style="stroke:#181818;stroke-width:1.0;" x1="279" x2="269" y1="192.4453" y2="196.4453"/><line style="stroke:#181818;stroke-width:1.0;" x1="125" x2="280" y1="192.4453" y2="192.4453"/><text fill="#000000" font-family="sans-serif" font-size="13" font-weight="bold" lengthAdjust="spacing" textLength="7" x="132" y="187.1826">2</text><text fill="#000000" font-family="sans-serif" font-size="13" lengthAdjust="spacing" textLength="126" x="143" y="187.1826">create a user account</text><line style="stroke:#181818;stroke-width:1.0;" x1="445" x2="435" y1="223.7363" y2="219.7363"/><line style="stroke:#181818;stroke-width:1.0;" x1="445" x2="435" y1="223.7363" y2="227.7363"/><line style="stroke:#181818;stroke-width:1.0;" x1="291" x2="446" y1="223.7363" y2="223.7363"/><text fill="#000000" font-family="sans-serif" font-size="13" font-weight="bold" lengthAdjust="spacing" textLength="7" x="298" y="218.4736">3</text><text fill="#000000" font-family="sans-serif" font-size="13" lengthAdjust="spacing" textLength="126" x="309" y="218.4736">create a user account</text><line style="stroke:#181818;stroke-width:1.0;" x1="683" x2="673" y1="255.0273" y2="251.0273"/><line style="stroke:#181818;stroke-width:1.0;" x1="683" x2="673" y1="255.0273" y2="259.0273"/><line style="stroke:#181818;stroke-width:1.0;" x1="457" x2="684" y1="255.0273" y2="255.0273"/><text fill="#000000" font-family="sans-serif" font-size="13" font-weight="bold" lengthAdjust="spacing" textLength="7" x="464" y="249.7646">4</text><text fill="#000000" font-family="sans-serif" font-size="13" lengthAdjust="spacing" textLength="198" x="475" y="249.7646">verifies if user email already exists</text><line style="stroke:#181818;stroke-width:1.0;" x1="1154.5" x2="1144.5" y1="286.3184" y2="282.3184"/><line style="stroke:#181818;stroke-width:1.0;" x1="1154.5" x2="1144.5" y1="286.3184" y2="290.3184"/><line style="stroke:#181818;stroke-width:1.0;" x1="695" x2="1155.5" y1="286.3184" y2="286.3184"/><text fill="#000000" font-family="sans-serif" font-size="13" font-weight="bold" lengthAdjust="spacing" textLength="7" x="702" y="281.0557">5</text><text fill="#000000" font-family="sans-serif" font-size="13" lengthAdjust="spacing" textLength="70" x="713" y="281.0557">select email</text><line style="stroke:#181818;stroke-width:1.0;" x1="696" x2="706" y1="317.6094" y2="313.6094"/><line style="stroke:#181818;stroke-width:1.0;" x1="696" x2="706" y1="317.6094" y2="321.6094"/><line style="stroke:#181818;stroke-width:1.0;stroke-dasharray:2.0,2.0;" x1="695" x2="1160.5" y1="317.6094" y2="317.6094"/><text fill="#000000" font-family="sans-serif" font-size="13" font-weight="bold" lengthAdjust="spacing" textLength="7" x="712" y="312.3467">6</text><text fill="#000000" font-family="sans-serif" font-size="13" lengthAdjust="spacing" textLength="31" x="723" y="312.3467">email</text><line style="stroke:#181818;stroke-width:1.0;" x1="458" x2="468" y1="348.9004" y2="344.9004"/><line style="stroke:#181818;stroke-width:1.0;" x1="458" x2="468" y1="348.9004" y2="352.9004"/><line style="stroke:#181818;stroke-width:1.0;stroke-dasharray:2.0,2.0;" x1="457" x2="689" y1="348.9004" y2="348.9004"/><text fill="#000000" font-family="sans-serif" font-size="13" font-weight="bold" lengthAdjust="spacing" textLength="7" x="474" y="343.6377">7</text><text fill="#000000" font-family="sans-serif" font-size="13" lengthAdjust="spacing" textLength="88" x="485" y="343.6377">email not found</text><line style="stroke:#181818;stroke-width:1.0;" x1="755.5" x2="745.5" y1="380.1914" y2="376.1914"/><line style="stroke:#181818;stroke-width:1.0;" x1="755.5" x2="745.5" y1="380.1914" y2="384.1914"/><line style="stroke:#181818;stroke-width:1.0;" x1="457" x2="756.5" y1="380.1914" y2="380.1914"/><text fill="#000000" font-family="sans-serif" font-size="13" font-weight="bold" lengthAdjust="spacing" textLength="7" x="464" y="374.9287">8</text><text fill="#000000" font-family="sans-serif" font-size="13" lengthAdjust="spacing" textLength="36" x="475" y="374.9287">create</text><rect fill="#E2E2F0" height="51.2422" rx="2.5" ry="2.5" style="stroke:#181818;stroke-width:0.5;" width="100" x="757.5" y="356.9004"/><text fill="#000000" font-family="sans-serif" font-size="14" font-style="italic" lengthAdjust="spacing" textLength="86" x="764.5" y="379.0078">&#171;component&#187;</text><text fill="#000000" font-family="sans-serif" font-size="14" lengthAdjust="spacing" textLength="29" x="793" y="397.6289">User</text><line style="stroke:#181818;stroke-width:1.0;stroke-dasharray:2.0,2.0;" x1="812.5" x2="854.5" y1="442.4336" y2="442.4336"/><line style="stroke:#181818;stroke-width:1.0;stroke-dasharray:2.0,2.0;" x1="854.5" x2="854.5" y1="442.4336" y2="455.4336"/><line style="stroke:#181818;stroke-width:1.0;stroke-dasharray:2.0,2.0;" x1="813.5" x2="854.5" y1="455.4336" y2="455.4336"/><line style="stroke:#181818;stroke-width:1.0;" x1="813.5" x2="823.5" y1="455.4336" y2="451.4336"/><line style="stroke:#181818;stroke-width:1.0;" x1="813.5" x2="823.5" y1="455.4336" y2="459.4336"/><text fill="#000000" font-family="sans-serif" font-size="13" font-weight="bold" lengthAdjust="spacing" textLength="7" x="819.5" y="437.1709">9</text><text fill="#000000" font-family="sans-serif" font-size="13" lengthAdjust="spacing" textLength="39" x="830.5" y="437.1709">verifies</text><line style="stroke:#181818;stroke-width:1.0;" x1="458" x2="468" y1="486.7246" y2="482.7246"/><line style="stroke:#181818;stroke-width:1.0;" x1="458" x2="468" y1="486.7246" y2="490.7246"/><line style="stroke:#181818;stroke-width:1.0;stroke-dasharray:2.0,2.0;" x1="457" x2="806.5" y1="486.7246" y2="486.7246"/><text fill="#000000" font-family="sans-serif" font-size="13" font-weight="bold" lengthAdjust="spacing" textLength="14" x="474" y="481.4619">10</text><text fill="#000000" font-family="sans-serif" font-size="13" lengthAdjust="spacing" textLength="43" x="492" y="481.4619">created</text><line style="stroke:#181818;stroke-width:1.0;" x1="688" x2="678" y1="518.0156" y2="514.0156"/><line style="stroke:#181818;stroke-width:1.0;" x1="688" x2="678" y1="518.0156" y2="522.0156"/><line style="stroke:#181818;stroke-width:1.0;" x1="457" x2="689" y1="518.0156" y2="518.0156"/><text fill="#000000" font-family="sans-serif" font-size="13" font-weight="bold" lengthAdjust="spacing" textLength="14" x="464" y="512.7529">11</text><text fill="#000000" font-family="sans-serif" font-size="13" lengthAdjust="spacing" textLength="26" x="482" y="512.7529">save</text><line style="stroke:#181818;stroke-width:1.0;" x1="1154.5" x2="1144.5" y1="549.3066" y2="545.3066"/><line style="stroke:#181818;stroke-width:1.0;" x1="1154.5" x2="1144.5" y1="549.3066" y2="553.3066"/><line style="stroke:#181818;stroke-width:1.0;" x1="690" x2="1155.5" y1="549.3066" y2="549.3066"/><text fill="#000000" font-family="sans-serif" font-size="13" font-weight="bold" lengthAdjust="spacing" textLength="14" x="697" y="544.0439">12</text><text fill="#000000" font-family="sans-serif" font-size="13" lengthAdjust="spacing" textLength="61" x="715" y="544.0439">insert user</text><line style="stroke:#181818;stroke-width:1.0;" x1="691" x2="701" y1="580.5977" y2="576.5977"/><line style="stroke:#181818;stroke-width:1.0;" x1="691" x2="701" y1="580.5977" y2="584.5977"/><line style="stroke:#181818;stroke-width:1.0;stroke-dasharray:2.0,2.0;" x1="690" x2="1160.5" y1="580.5977" y2="580.5977"/><text fill="#000000" font-family="sans-serif" font-size="13" font-weight="bold" lengthAdjust="spacing" textLength="14" x="707" y="575.335">13</text><text fill="#000000" font-family="sans-serif" font-size="13" lengthAdjust="spacing" textLength="49" x="725" y="575.335">success</text><line style="stroke:#181818;stroke-width:1.0;" x1="458" x2="468" y1="611.8887" y2="607.8887"/><line style="stroke:#181818;stroke-width:1.0;" x1="458" x2="468" y1="611.8887" y2="615.8887"/><line style="stroke:#181818;stroke-width:1.0;stroke-dasharray:2.0,2.0;" x1="457" x2="689" y1="611.8887" y2="611.8887"/><text fill="#000000" font-family="sans-serif" font-size="13" font-weight="bold" lengthAdjust="spacing" textLength="14" x="474" y="606.626">14</text><text fill="#000000" font-family="sans-serif" font-size="13" lengthAdjust="spacing" textLength="49" x="492" y="606.626">success</text><line style="stroke:#181818;stroke-width:1.0;" x1="910.5" x2="900.5" y1="643.1797" y2="639.1797"/><line style="stroke:#181818;stroke-width:1.0;" x1="910.5" x2="900.5" y1="643.1797" y2="647.1797"/><line style="stroke:#181818;stroke-width:1.0;" x1="457" x2="911.5" y1="643.1797" y2="643.1797"/><text fill="#000000" font-family="sans-serif" font-size="13" font-weight="bold" lengthAdjust="spacing" textLength="14" x="464" y="637.917">15</text><text fill="#000000" font-family="sans-serif" font-size="13" lengthAdjust="spacing" textLength="86" x="482" y="637.917">convert to DTO</text><line style="stroke:#181818;stroke-width:1.0;" x1="1003.5" x2="993.5" y1="674.4707" y2="670.4707"/><line style="stroke:#181818;stroke-width:1.0;" x1="1003.5" x2="993.5" y1="674.4707" y2="678.4707"/><line style="stroke:#181818;stroke-width:1.0;stroke-dasharray:2.0,2.0;" x1="922.5" x2="1004.5" y1="674.4707" y2="674.4707"/><text fill="#000000" font-family="sans-serif" font-size="13" font-weight="bold" lengthAdjust="spacing" textLength="14" x="929.5" y="669.208">16</text><text fill="#000000" font-family="sans-serif" font-size="13" lengthAdjust="spacing" textLength="41" x="947.5" y="669.208">convert</text><rect fill="#E2E2F0" height="51.2422" rx="2.5" ry="2.5" style="stroke:#181818;stroke-width:0.5;" width="100" x="1005.5" y="651.1797"/><text fill="#000000" font-family="sans-serif" font-size="14" font-style="italic" lengthAdjust="spacing" textLength="86" x="1012.5" y="673.2871">&#171;component&#187;</text><text fill="#000000" font-family="sans-serif" font-size="14" lengthAdjust="spacing" textLength="30" x="1040.5" y="691.9082">DTO</text><line style="stroke:#181818;stroke-width:1.0;" x1="923.5" x2="933.5" y1="736.7129" y2="732.7129"/><line style="stroke:#181818;stroke-width:1.0;" x1="923.5" x2="933.5" y1="736.7129" y2="740.7129"/><line style="stroke:#181818;stroke-width:1.0;stroke-dasharray:2.0,2.0;" x1="922.5" x2="1054.5" y1="736.7129" y2="736.7129"/><text fill="#000000" font-family="sans-serif" font-size="13" font-weight="bold" lengthAdjust="spacing" textLength="14" x="939.5" y="731.4502">17</text><text fill="#000000" font-family="sans-serif" font-size="13" lengthAdjust="spacing" textLength="18" x="957.5" y="731.4502">dto</text><line style="stroke:#181818;stroke-width:1.0;" x1="458" x2="468" y1="768.0039" y2="764.0039"/><line style="stroke:#181818;stroke-width:1.0;" x1="458" x2="468" y1="768.0039" y2="772.0039"/><line style="stroke:#181818;stroke-width:1.0;stroke-dasharray:2.0,2.0;" x1="457" x2="916.5" y1="768.0039" y2="768.0039"/><text fill="#000000" font-family="sans-serif" font-size="13" font-weight="bold" lengthAdjust="spacing" textLength="14" x="474" y="762.7412">18</text><text fill="#000000" font-family="sans-serif" font-size="13" lengthAdjust="spacing" textLength="18" x="492" y="762.7412">dto</text><line style="stroke:#181818;stroke-width:1.0;" x1="292" x2="302" y1="799.2949" y2="795.2949"/><line style="stroke:#181818;stroke-width:1.0;" x1="292" x2="302" y1="799.2949" y2="803.2949"/><line style="stroke:#181818;stroke-width:1.0;stroke-dasharray:2.0,2.0;" x1="291" x2="451" y1="799.2949" y2="799.2949"/><text fill="#000000" font-family="sans-serif" font-size="13" font-weight="bold" lengthAdjust="spacing" textLength="14" x="308" y="794.0322">19</text><text fill="#000000" font-family="sans-serif" font-size="13" lengthAdjust="spacing" textLength="49" x="326" y="794.0322">success</text><line style="stroke:#181818;stroke-width:1.0;" x1="126" x2="136" y1="830.5859" y2="826.5859"/><line style="stroke:#181818;stroke-width:1.0;" x1="126" x2="136" y1="830.5859" y2="834.5859"/><line style="stroke:#181818;stroke-width:1.0;stroke-dasharray:2.0,2.0;" x1="125" x2="285" y1="830.5859" y2="830.5859"/><text fill="#000000" font-family="sans-serif" font-size="13" font-weight="bold" lengthAdjust="spacing" textLength="14" x="142" y="825.3232">20</text><text fill="#000000" font-family="sans-serif" font-size="13" lengthAdjust="spacing" textLength="49" x="160" y="825.3232">success</text><line style="stroke:#181818;stroke-width:1.0;" x1="6.5" x2="16.5" y1="861.877" y2="857.877"/><line style="stroke:#181818;stroke-width:1.0;" x1="6.5" x2="16.5" y1="861.877" y2="865.877"/><line style="stroke:#181818;stroke-width:1.0;stroke-dasharray:2.0,2.0;" x1="0" x2="119" y1="861.877" y2="861.877"/><text fill="#000000" font-family="sans-serif" font-size="13" font-weight="bold" lengthAdjust="spacing" textLength="14" x="17" y="856.6143">21</text><text fill="#000000" font-family="sans-serif" font-size="13" lengthAdjust="spacing" textLength="70" x="35" y="856.6143">201 Created</text><!--SRC=[ZPF1Rjim38RlUWgYfws0WMt78CWEtNLeqNGFmCXC9zIMN8asbhSVPTMox6J9RhBq_J-ftoBsx6pV7iYhy6PiXnvRw52_uIlj-TGGUDAi51kMzJEzznGO-3T1JGsnSHRS4R1fe3r1ZOpmgMUoJ9-L4ZCssdHe6UwUNS_6lju11l1f3TkjTctdhF2xtH9_S9QzQnhoeqBdpskYFVd1Q1eL8QsluR-4aIjrBXXs_ZJAUjdpidLBb-5hu4_iHgx5xXhsu-Lnn6fUbus17Z2GC1-h11vMdFhkgjqkvxg1fyVzYqBDPa2cQLzDvv4j4js0zXGvJ3T2hLrlvQTdWnbMXIxQJ37VzlWWrQI8wfps1WRovcWeW3ac1shHDFAonBO-0VqnWKDXDqbLzeY6ain6AZNoPfF1BAWFIawhLTa4rLHYXUNoYgabwnYEShcwbELsrDa5x-zpEilsKw6vfJc4ycITy5bPzQz80mvq8HvZPOkJz4OweTUQGlZVV2xWSovbat4WDl5L3R4JUVOo0dClSgfKH4PxcOgKOAABbbbSuynKisNSAvkDI7QQ6rrXOy7StzbqNBZMz9WNux0SmGkgOenaOhVRgYhuRr- -miFv7vvczoy0]--></g></svg>