<?xml version="1.0" encoding="us-ascii" standalone="no"?><svg xmlns="http://www.w3.org/2000/svg" xmlns:xlink="http://www.w3.org/1999/xlink" contentStyleType="text/css" height="476px" preserveAspectRatio="none" style="width:571px;height:476px;background:#FFFFFF;" version="1.1" viewBox="0 0 571 476" width="571px" zoomAndPan="magnify"><defs/><g><text fill="#000000" font-family="sans-serif" font-size="14" font-weight="bold" lengthAdjust="spacing" textLength="215" x="174.75" y="30.1074">Create a user account (utente)</text><rect fill="#FFFFFF" height="251.3281" style="stroke:#181818;stroke-width:1.0;" width="10" x="32.5" y="133.2422"/><rect fill="#FFFFFF" height="219.0371" style="stroke:#181818;stroke-width:1.0;" width="10" x="214.5" y="156.5332"/><rect fill="#FFFFFF" height="156.4551" style="stroke:#181818;stroke-width:1.0;" width="10" x="324.5" y="187.8242"/><rect fill="#FFFFFF" height="93.873" style="stroke:#181818;stroke-width:1.0;" width="10" x="434.5" y="219.1152"/><line style="stroke:#181818;stroke-width:0.5;stroke-dasharray:5.0,5.0;" x1="37" x2="37" y1="123.2422" y2="393.5703"/><line style="stroke:#181818;stroke-width:0.5;stroke-dasharray:5.0,5.0;" x1="219.5" x2="219.5" y1="123.2422" y2="393.5703"/><line style="stroke:#181818;stroke-width:0.5;stroke-dasharray:5.0,5.0;" x1="329.5" x2="329.5" y1="123.2422" y2="393.5703"/><line style="stroke:#181818;stroke-width:0.5;stroke-dasharray:5.0,5.0;" x1="439.5" x2="439.5" y1="123.2422" y2="393.5703"/><text fill="#000000" font-family="sans-serif" font-size="14" lengthAdjust="spacing" textLength="59" x="5" y="119.7285">New User</text><ellipse cx="37.5" cy="53.1211" fill="#E2E2F0" rx="8" ry="8" style="stroke:#181818;stroke-width:0.5;"/><path d="M37.5,61.1211 L37.5,88.1211 M24.5,69.1211 L50.5,69.1211 M37.5,88.1211 L24.5,103.1211 M37.5,88.1211 L50.5,103.1211 " fill="none" style="stroke:#181818;stroke-width:0.5;"/><text fill="#000000" font-family="sans-serif" font-size="14" lengthAdjust="spacing" textLength="59" x="5" y="407.6777">New User</text><ellipse cx="37.5" cy="419.6914" fill="#E2E2F0" rx="8" ry="8" style="stroke:#181818;stroke-width:0.5;"/><path d="M37.5,427.6914 L37.5,454.6914 M24.5,435.6914 L50.5,435.6914 M37.5,454.6914 L24.5,469.6914 M37.5,454.6914 L50.5,469.6914 " fill="none" style="stroke:#181818;stroke-width:0.5;"/><rect fill="#E2E2F0" height="51.2422" rx="2.5" ry="2.5" style="stroke:#181818;stroke-width:0.5;" width="100" x="169.5" y="71"/><text fill="#000000" font-family="sans-serif" font-size="14" font-style="italic" lengthAdjust="spacing" textLength="86" x="176.5" y="93.1074">&#171;component&#187;</text><text fill="#000000" font-family="sans-serif" font-size="14" lengthAdjust="spacing" textLength="49" x="195" y="111.7285">Routing</text><rect fill="#E2E2F0" height="51.2422" rx="2.5" ry="2.5" style="stroke:#181818;stroke-width:0.5;" width="100" x="169.5" y="392.5703"/><text fill="#000000" font-family="sans-serif" font-size="14" font-style="italic" lengthAdjust="spacing" textLength="86" x="176.5" y="414.6777">&#171;component&#187;</text><text fill="#000000" font-family="sans-serif" font-size="14" lengthAdjust="spacing" textLength="49" x="195" y="433.2988">Routing</text><rect fill="#E2E2F0" height="51.2422" rx="2.5" ry="2.5" style="stroke:#181818;stroke-width:0.5;" width="100" x="279.5" y="71"/><text fill="#000000" font-family="sans-serif" font-size="14" font-style="italic" lengthAdjust="spacing" textLength="86" x="286.5" y="93.1074">&#171;component&#187;</text><text fill="#000000" font-family="sans-serif" font-size="14" lengthAdjust="spacing" textLength="73" x="293" y="111.7285">Component</text><rect fill="#E2E2F0" height="51.2422" rx="2.5" ry="2.5" style="stroke:#181818;stroke-width:0.5;" width="100" x="279.5" y="392.5703"/><text fill="#000000" font-family="sans-serif" font-size="14" font-style="italic" lengthAdjust="spacing" textLength="86" x="286.5" y="414.6777">&#171;component&#187;</text><text fill="#000000" font-family="sans-serif" font-size="14" lengthAdjust="spacing" textLength="73" x="293" y="433.2988">Component</text><rect fill="#E2E2F0" height="51.2422" rx="2.5" ry="2.5" style="stroke:#181818;stroke-width:0.5;" width="100" x="389.5" y="71"/><text fill="#000000" font-family="sans-serif" font-size="14" font-style="italic" lengthAdjust="spacing" textLength="86" x="396.5" y="93.1074">&#171;component&#187;</text><text fill="#000000" font-family="sans-serif" font-size="14" lengthAdjust="spacing" textLength="47" x="416" y="111.7285">Service</text><rect fill="#E2E2F0" height="51.2422" rx="2.5" ry="2.5" style="stroke:#181818;stroke-width:0.5;" width="100" x="389.5" y="392.5703"/><text fill="#000000" font-family="sans-serif" font-size="14" font-style="italic" lengthAdjust="spacing" textLength="86" x="396.5" y="414.6777">&#171;component&#187;</text><text fill="#000000" font-family="sans-serif" font-size="14" lengthAdjust="spacing" textLength="47" x="416" y="433.2988">Service</text><rect fill="#FFFFFF" height="251.3281" style="stroke:#181818;stroke-width:1.0;" width="10" x="32.5" y="133.2422"/><rect fill="#FFFFFF" height="219.0371" style="stroke:#181818;stroke-width:1.0;" width="10" x="214.5" y="156.5332"/><rect fill="#FFFFFF" height="156.4551" style="stroke:#181818;stroke-width:1.0;" width="10" x="324.5" y="187.8242"/><rect fill="#FFFFFF" height="93.873" style="stroke:#181818;stroke-width:1.0;" width="10" x="434.5" y="219.1152"/><line style="stroke:#181818;stroke-width:1.0;" x1="212.5" x2="202.5" y1="156.5332" y2="152.5332"/><line style="stroke:#181818;stroke-width:1.0;" x1="212.5" x2="202.5" y1="156.5332" y2="160.5332"/><line style="stroke:#181818;stroke-width:1.0;" x1="42.5" x2="213.5" y1="156.5332" y2="156.5332"/><text fill="#000000" font-family="sans-serif" font-size="13" font-weight="bold" lengthAdjust="spacing" textLength="7" x="49.5" y="151.2705">1</text><text fill="#000000" font-family="sans-serif" font-size="13" lengthAdjust="spacing" textLength="142" x="60.5" y="151.2705">Navigate to sign up page</text><line style="stroke:#181818;stroke-width:1.0;" x1="322.5" x2="312.5" y1="187.8242" y2="183.8242"/><line style="stroke:#181818;stroke-width:1.0;" x1="322.5" x2="312.5" y1="187.8242" y2="191.8242"/><line style="stroke:#181818;stroke-width:1.0;" x1="224.5" x2="323.5" y1="187.8242" y2="187.8242"/><text fill="#000000" font-family="sans-serif" font-size="13" font-weight="bold" lengthAdjust="spacing" textLength="7" x="231.5" y="182.5615">2</text><text fill="#000000" font-family="sans-serif" font-size="13" lengthAdjust="spacing" textLength="65" x="242.5" y="182.5615">create user</text><line style="stroke:#181818;stroke-width:1.0;" x1="432.5" x2="422.5" y1="219.1152" y2="215.1152"/><line style="stroke:#181818;stroke-width:1.0;" x1="432.5" x2="422.5" y1="219.1152" y2="223.1152"/><line style="stroke:#181818;stroke-width:1.0;" x1="334.5" x2="433.5" y1="219.1152" y2="219.1152"/><text fill="#000000" font-family="sans-serif" font-size="13" font-weight="bold" lengthAdjust="spacing" textLength="7" x="341.5" y="213.8525">3</text><text fill="#000000" font-family="sans-serif" font-size="13" lengthAdjust="spacing" textLength="65" x="352.5" y="213.8525">create user</text><line style="stroke:#181818;stroke-width:1.0;" x1="563.5" x2="553.5" y1="250.4063" y2="246.4063"/><line style="stroke:#181818;stroke-width:1.0;" x1="563.5" x2="553.5" y1="250.4063" y2="254.4063"/><line style="stroke:#181818;stroke-width:1.0;" x1="444.5" x2="564.5" y1="250.4063" y2="250.4063"/><text fill="#000000" font-family="sans-serif" font-size="13" font-weight="bold" lengthAdjust="spacing" textLength="7" x="451.5" y="245.1436">4</text><text fill="#000000" font-family="sans-serif" font-size="13" lengthAdjust="spacing" textLength="76" x="462.5" y="245.1436">Http Request</text><line style="stroke:#181818;stroke-width:1.0;" x1="445.5" x2="455.5" y1="281.6973" y2="277.6973"/><line style="stroke:#181818;stroke-width:1.0;" x1="445.5" x2="455.5" y1="281.6973" y2="285.6973"/><line style="stroke:#181818;stroke-width:1.0;stroke-dasharray:2.0,2.0;" x1="444.5" x2="564.5" y1="281.6973" y2="281.6973"/><text fill="#000000" font-family="sans-serif" font-size="13" font-weight="bold" lengthAdjust="spacing" textLength="7" x="461.5" y="276.4346">5</text><text fill="#000000" font-family="sans-serif" font-size="13" lengthAdjust="spacing" textLength="86" x="472.5" y="276.4346">Http Response</text><line style="stroke:#181818;stroke-width:1.0;" x1="335.5" x2="345.5" y1="312.9883" y2="308.9883"/><line style="stroke:#181818;stroke-width:1.0;" x1="335.5" x2="345.5" y1="312.9883" y2="316.9883"/><line style="stroke:#181818;stroke-width:1.0;stroke-dasharray:2.0,2.0;" x1="334.5" x2="438.5" y1="312.9883" y2="312.9883"/><text fill="#000000" font-family="sans-serif" font-size="13" font-weight="bold" lengthAdjust="spacing" textLength="7" x="351.5" y="307.7256">6</text><text fill="#000000" font-family="sans-serif" font-size="13" lengthAdjust="spacing" textLength="49" x="362.5" y="307.7256">success</text><line style="stroke:#181818;stroke-width:1.0;" x1="225.5" x2="235.5" y1="344.2793" y2="340.2793"/><line style="stroke:#181818;stroke-width:1.0;" x1="225.5" x2="235.5" y1="344.2793" y2="348.2793"/><line style="stroke:#181818;stroke-width:1.0;stroke-dasharray:2.0,2.0;" x1="224.5" x2="328.5" y1="344.2793" y2="344.2793"/><text fill="#000000" font-family="sans-serif" font-size="13" font-weight="bold" lengthAdjust="spacing" textLength="7" x="241.5" y="339.0166">7</text><text fill="#000000" font-family="sans-serif" font-size="13" lengthAdjust="spacing" textLength="49" x="252.5" y="339.0166">success</text><line style="stroke:#181818;stroke-width:1.0;" x1="43.5" x2="53.5" y1="375.5703" y2="371.5703"/><line style="stroke:#181818;stroke-width:1.0;" x1="43.5" x2="53.5" y1="375.5703" y2="379.5703"/><line style="stroke:#181818;stroke-width:1.0;stroke-dasharray:2.0,2.0;" x1="42.5" x2="218.5" y1="375.5703" y2="375.5703"/><text fill="#000000" font-family="sans-serif" font-size="13" font-weight="bold" lengthAdjust="spacing" textLength="7" x="59.5" y="370.3076">8</text><text fill="#000000" font-family="sans-serif" font-size="13" lengthAdjust="spacing" textLength="124" x="70.5" y="370.3076">Successfully reponse</text><!--SRC=[VP9DReGm38NtFeN5gbrm0JHYCvkkM0pY09xKHT50GXE7QcxV941X-hUpzBuNFp-5WbWJnYixy3Tj9d8quaJgHZstSXyO7Ii142rnFZicOIGCdXsIKZOOmQSWR8IV0KY9TLWq_85T90eaZqq7yLNHIayKuU9YWsZJPyqjCvvEoewJDV6Pkdx4pvkG3GdxZsxPpLfnPlqoVyDJHZsdAsAmfYlh-Yj5XGtDka-QMFIwDnYcM4RFksbbOVCaVmvLeLhAITKSjYGHCf7GBTDVzAh3nYLFXIyY4rxuFR0NsCygortpyK3Fi1iFmNnGYhs7L_wnPqtssC8lVBuYrfMNxcIxa6zX6ExneomP3hQjhKy0]--></g></svg>